<svg width="150" height="30" viewBox="0 0 150 30" fill="none" xmlns="http://www.w3.org/2000/svg">
<rect x="0.5" y="0.5" width="149" height="29" fill="white"/>
<path d="M49.6 21H46.69V20.88C46.69 20.62 46.76 20.45 46.9 20.37C46.97 20.34 47.055 20.32 47.155 20.31L47.83 20.28V16.29H42.865V20.25L43.96 20.34C44 20.78 43.865 21 43.555 21H40.63V20.88C40.63 20.62 40.7 20.45 40.84 20.37C40.91 20.34 40.995 20.32 41.095 20.31L41.785 20.28V11.595L40.69 11.505C40.65 11.065 40.785 10.845 41.095 10.845H44.02V10.965C44.02 11.235 43.95 11.4 43.81 11.46C43.74 11.5 43.655 11.525 43.555 11.535L42.865 11.565V15.555H47.83V11.595L46.75 11.505C46.71 11.065 46.845 10.845 47.155 10.845H50.065V10.965C50.065 11.235 49.995 11.4 49.855 11.46C49.785 11.5 49.7 11.525 49.6 11.535L48.925 11.565V20.25L50.005 20.34C50.045 20.78 49.91 21 49.6 21ZM54.5184 14.22C53.8384 14.22 53.3134 14.515 52.9434 15.105C52.5734 15.695 52.3884 16.45 52.3884 17.37C52.3884 18.28 52.5684 19.025 52.9284 19.605C53.2884 20.175 53.8084 20.46 54.4884 20.46C55.1684 20.45 55.6934 20.16 56.0634 19.59C56.4334 19.02 56.6184 18.285 56.6184 17.385C56.6184 16.475 56.4384 15.72 56.0784 15.12C55.7284 14.51 55.2084 14.21 54.5184 14.22ZM54.6084 13.44C55.3684 13.44 56.0534 13.68 56.6634 14.16C56.9834 14.42 57.2384 14.8 57.4284 15.3C57.6284 15.8 57.7284 16.4 57.7284 17.1C57.7484 18.34 57.4584 19.34 56.8584 20.1C56.2584 20.85 55.4484 21.225 54.4284 21.225C53.4084 21.225 52.6334 20.905 52.1034 20.265C51.5734 19.625 51.2984 18.7 51.2784 17.49C51.2684 16.28 51.5634 15.305 52.1634 14.565C52.7734 13.815 53.5884 13.44 54.6084 13.44ZM71.4805 21H68.6455V20.88C68.6455 20.64 68.7155 20.49 68.8555 20.43C68.9255 20.39 69.0105 20.365 69.1105 20.355L69.7255 20.325V16.575C69.7255 15.115 69.1355 14.385 67.9555 14.385C67.5455 14.385 67.1855 14.475 66.8755 14.655C66.5655 14.825 66.2255 15.08 65.8555 15.42C65.9455 15.7 65.9905 16.055 65.9905 16.485V20.295L67.1155 20.385C67.1555 20.795 67.0205 21 66.7105 21H63.8605V20.88C63.8605 20.64 63.9305 20.49 64.0705 20.43C64.1405 20.39 64.2255 20.365 64.3255 20.355L64.9405 20.325V16.575C64.9405 15.855 64.7805 15.31 64.4605 14.94C64.1505 14.57 63.7155 14.385 63.1555 14.385C62.7655 14.385 62.4205 14.465 62.1205 14.625C61.8205 14.785 61.5005 15.02 61.1605 15.33V20.295L62.3005 20.385C62.3405 20.795 62.2005 21 61.8805 21H59.0305V20.88C59.0305 20.64 59.1005 20.49 59.2405 20.43C59.3105 20.39 59.3955 20.365 59.4955 20.355L60.1255 20.325V14.37L59.4655 14.355C59.1455 14.355 58.9855 14.14 58.9855 13.71L60.9205 13.455L61.1005 14.505H61.1455C61.8155 13.795 62.5655 13.44 63.3955 13.44C63.8455 13.44 64.2755 13.55 64.6855 13.77C65.0955 13.99 65.4105 14.335 65.6305 14.805C65.9805 14.395 66.3505 14.065 66.7405 13.815C67.1405 13.565 67.6555 13.44 68.2855 13.44C68.9155 13.44 69.4855 13.685 69.9955 14.175C70.5055 14.665 70.7605 15.435 70.7605 16.485V20.295L71.9005 20.385C71.9405 20.795 71.8005 21 71.4805 21ZM78.7059 17.055H73.9959C73.9859 17.155 73.9809 17.31 73.9809 17.52C73.9809 18.37 74.1609 19.06 74.5209 19.59C74.8809 20.11 75.4409 20.37 76.2009 20.37C76.9609 20.37 77.6859 20.1 78.3759 19.56C78.4959 19.66 78.5559 19.785 78.5559 19.935C78.5559 20.215 78.2809 20.5 77.7309 20.79C77.1909 21.08 76.5809 21.225 75.9009 21.225C74.9709 21.225 74.2259 20.92 73.6659 20.31C73.1159 19.7 72.8409 18.77 72.8409 17.52C72.8409 16.27 73.1709 15.28 73.8309 14.55C74.4909 13.81 75.2709 13.44 76.1709 13.44C77.0709 13.44 77.7209 13.725 78.1209 14.295C78.5209 14.865 78.7159 15.545 78.7059 16.335V17.055ZM77.6109 16.38C77.6109 15.71 77.4809 15.18 77.2209 14.79C76.9609 14.39 76.5809 14.19 76.0809 14.19C75.5909 14.19 75.1709 14.385 74.8209 14.775C74.4709 15.165 74.2259 15.7 74.0859 16.38H77.6109ZM84.2636 10.815H87.4136C88.6436 10.815 89.5736 11.08 90.2036 11.61C90.8336 12.13 91.1486 12.81 91.1486 13.65C91.1486 14.79 90.7736 15.62 90.0236 16.14C89.2836 16.66 88.2886 16.92 87.0386 16.92C86.7086 16.92 86.3786 16.905 86.0486 16.875V20.25L87.1886 20.34C87.2286 20.78 87.0886 21 86.7686 21H83.8136C83.8136 21 83.8136 20.96 83.8136 20.88C83.8136 20.62 83.8836 20.45 84.0236 20.37C84.0936 20.34 84.1786 20.32 84.2786 20.31L84.9686 20.28V11.565L83.8736 11.475C83.8436 11.035 83.9736 10.815 84.2636 10.815ZM86.9036 16.215C88.9636 16.215 89.9936 15.42 89.9936 13.83C89.9936 12.14 88.9486 11.36 86.8586 11.49L86.0486 11.535V16.185C86.2486 16.205 86.5336 16.215 86.9036 16.215ZM98.7053 20.535C98.7053 21.005 98.3953 21.24 97.7753 21.24C97.1553 21.24 96.7953 20.925 96.6953 20.295C96.0553 20.915 95.2853 21.225 94.3853 21.225C93.6953 21.225 93.1453 21.05 92.7353 20.7C92.3353 20.34 92.1353 19.855 92.1353 19.245C92.1353 18.635 92.3603 18.12 92.8103 17.7C93.2603 17.28 94.0053 17.07 95.0453 17.07C95.6553 17.07 96.1953 17.14 96.6653 17.28V16.095C96.6653 15.525 96.5203 15.07 96.2303 14.73C95.9503 14.38 95.5353 14.205 94.9853 14.205C94.4353 14.205 94.0403 14.355 93.8003 14.655C93.5703 14.945 93.4403 15.285 93.4103 15.675C93.1703 15.695 92.9703 15.645 92.8103 15.525C92.6503 15.405 92.5703 15.21 92.5703 14.94C92.5703 14.51 92.7903 14.155 93.2303 13.875C93.6703 13.585 94.2403 13.44 94.9403 13.44C95.5503 13.44 96.1303 13.59 96.6803 13.89C96.9903 14.05 97.2403 14.315 97.4303 14.685C97.6203 15.055 97.7153 15.505 97.7153 16.035V20.415L98.7053 20.535ZM96.6653 18.18C96.2053 17.93 95.6703 17.805 95.0603 17.805C94.4503 17.805 94.0003 17.92 93.7103 18.15C93.4303 18.38 93.2903 18.695 93.2903 19.095C93.2903 19.495 93.4153 19.815 93.6653 20.055C93.9153 20.285 94.2603 20.4 94.7003 20.4C95.4003 20.4 96.0553 20.13 96.6653 19.59V18.18ZM101.945 19.575L102.395 19.59C103.615 19.61 104.475 19.755 104.975 20.025C105.485 20.285 105.74 20.77 105.74 21.48C105.74 22.35 105.42 23.05 104.78 23.58C104.14 24.12 103.315 24.39 102.305 24.39C101.305 24.39 100.545 24.2 100.025 23.82C99.5046 23.45 99.2446 22.97 99.2446 22.38C99.2446 21.62 99.6396 20.945 100.43 20.355C100.18 20.225 100.055 20 100.055 19.68C100.055 19.35 100.305 18.925 100.805 18.405C100.045 18.015 99.6396 17.345 99.5896 16.395C99.5396 15.595 99.7646 14.905 100.265 14.325C100.765 13.735 101.445 13.44 102.305 13.44C102.875 13.44 103.38 13.58 103.82 13.86L105.635 13.38C105.725 13.5 105.775 13.65 105.785 13.83C105.795 14.01 105.745 14.15 105.635 14.25C105.475 14.33 105.045 14.36 104.345 14.34C104.665 14.76 104.815 15.34 104.795 16.08C104.785 16.81 104.545 17.43 104.075 17.94C103.615 18.45 102.965 18.705 102.125 18.705C101.895 18.705 101.665 18.68 101.435 18.63C101.035 19.1 100.935 19.38 101.135 19.47C101.315 19.54 101.585 19.575 101.945 19.575ZM101.03 14.715C100.75 15.085 100.61 15.54 100.61 16.08C100.61 16.62 100.745 17.08 101.015 17.46C101.295 17.84 101.68 18.025 102.17 18.015C102.67 18.005 103.06 17.81 103.34 17.43C103.63 17.05 103.775 16.595 103.775 16.065C103.775 15.525 103.64 15.07 103.37 14.7C103.1 14.32 102.715 14.135 102.215 14.145C101.715 14.155 101.32 14.345 101.03 14.715ZM100.13 22.005C100.13 22.505 100.34 22.875 100.76 23.115C101.18 23.365 101.76 23.49 102.5 23.49C103.24 23.49 103.835 23.32 104.285 22.98C104.735 22.64 104.96 22.23 104.96 21.75C104.96 21.28 104.695 20.97 104.165 20.82C103.705 20.7 103.115 20.63 102.395 20.61C101.685 20.59 101.21 20.56 100.97 20.52C100.41 21.01 100.13 21.505 100.13 22.005ZM112.368 17.055H107.658C107.648 17.155 107.643 17.31 107.643 17.52C107.643 18.37 107.823 19.06 108.183 19.59C108.543 20.11 109.103 20.37 109.863 20.37C110.623 20.37 111.348 20.1 112.038 19.56C112.158 19.66 112.218 19.785 112.218 19.935C112.218 20.215 111.943 20.5 111.393 20.79C110.853 21.08 110.243 21.225 109.563 21.225C108.633 21.225 107.888 20.92 107.328 20.31C106.778 19.7 106.503 18.77 106.503 17.52C106.503 16.27 106.833 15.28 107.493 14.55C108.153 13.81 108.933 13.44 109.833 13.44C110.733 13.44 111.383 13.725 111.783 14.295C112.183 14.865 112.378 15.545 112.368 16.335V17.055ZM111.273 16.38C111.273 15.71 111.143 15.18 110.883 14.79C110.623 14.39 110.243 14.19 109.743 14.19C109.253 14.19 108.833 14.385 108.483 14.775C108.133 15.165 107.888 15.7 107.748 16.38H111.273Z" fill="#7C0000"/>
<rect x="0.5" y="0.5" width="149" height="29" stroke="url(#paint0_linear)"/>
<defs>
<linearGradient id="paint0_linear" x1="70" y1="-4.99999" x2="95" y2="70.5" gradientUnits="userSpaceOnUse">
<stop stop-color="#DD9539"/>
<stop offset="0.742956" stop-color="#7C0000"/>
<stop offset="0.743056" stop-color="#DD9539" stop-opacity="0"/>
</linearGradient>
</defs>
</svg>
