<svg width="158" height="38" viewBox="0 0 158 38" fill="none" xmlns="http://www.w3.org/2000/svg">
<g filter="url(#filter0_d)">
<rect x="4" width="150" height="30" rx="5" fill="white"/>
<path d="M45.7744 8.77441L44.0693 9.71484L43.832 14.0742L48.3672 14.2148L48.4814 10.5586L46.8555 9.5918L52.0586 9.2666L50.0811 10.8838L50.4062 19.7256L52.2256 20.9297L45.9766 20.9648L48.1914 19.4883L48.332 15.3486L43.7617 15.2607L43.5684 18.873L44.8604 20.1738H40.5801L42.0918 18.9521L41.5645 9.83789L39.6572 8.68652L45.7744 8.77441ZM52.4541 16.5879C52.4541 15.9316 52.5566 15.3252 52.7617 14.7686C52.9727 14.2061 53.2627 13.7197 53.6318 13.3096C54.0068 12.8994 54.4492 12.5801 54.959 12.3516C55.4746 12.1172 56.0371 12 56.6465 12C57.2383 12 57.7803 12.1113 58.2725 12.334C58.7646 12.5508 59.1924 12.8584 59.5557 13.2568C59.9189 13.6553 60.209 14.1328 60.4258 14.6895C60.6426 15.2461 60.7715 15.8613 60.8125 16.5352C60.8535 17.2559 60.7773 17.9092 60.584 18.4951C60.3965 19.0752 60.1182 19.5703 59.749 19.9805C59.3799 20.3848 58.9375 20.6982 58.4219 20.9209C57.9121 21.1436 57.3584 21.2549 56.7607 21.2549C56.1865 21.2549 55.6387 21.1523 55.1172 20.9473C54.6016 20.7363 54.1445 20.4316 53.7461 20.0332C53.3535 19.6348 53.04 19.1484 52.8057 18.5742C52.5713 17.9941 52.4541 17.332 52.4541 16.5879ZM54.6162 16.7373C54.6162 17.2529 54.6895 17.7188 54.8359 18.1348C54.9824 18.5508 55.1787 18.9053 55.4248 19.1982C55.6709 19.4854 55.9551 19.708 56.2773 19.8662C56.5996 20.0244 56.9395 20.1035 57.2969 20.1035C57.6543 20.1035 57.9883 20.0273 58.2988 19.875C58.6094 19.7168 58.8789 19.4971 59.1074 19.2158C59.3359 18.9287 59.5146 18.5859 59.6436 18.1875C59.7725 17.7891 59.8369 17.3467 59.8369 16.8604C59.8369 16.3799 59.7725 15.9287 59.6436 15.5068C59.5146 15.0791 59.333 14.707 59.0986 14.3906C58.8701 14.0742 58.5977 13.8252 58.2812 13.6436C57.9648 13.4619 57.6191 13.3711 57.2441 13.3711C56.9102 13.3711 56.585 13.4473 56.2686 13.5996C55.958 13.752 55.6797 13.9746 55.4336 14.2676C55.1875 14.5547 54.9883 14.9062 54.8359 15.3223C54.6895 15.7383 54.6162 16.21 54.6162 16.7373ZM61.252 21.0879L62.4033 19.7959L63.001 13.8369L61.1465 12.501L64.1348 12.7031V13.5996C64.3574 13.3008 64.5889 13.0693 64.8291 12.9053C65.0752 12.7412 65.3008 12.6211 65.5059 12.5449C65.7461 12.457 65.9834 12.4072 66.2178 12.3955C66.6338 12.3955 67.0117 12.4805 67.3516 12.6504C67.6914 12.8203 67.9609 13.0547 68.1602 13.3535C68.4062 13.0605 68.6875 12.8291 69.0039 12.6592C69.3203 12.4834 69.6631 12.3955 70.0322 12.3955C70.3662 12.3955 70.6768 12.4717 70.9639 12.624C71.251 12.7764 71.4971 12.9902 71.7021 13.2656C71.9131 13.541 72.0771 13.8779 72.1943 14.2764C72.3174 14.6689 72.3789 15.1055 72.3789 15.5859C72.3789 15.9316 72.3555 16.292 72.3086 16.667C72.2676 17.042 72.209 17.4141 72.1328 17.7832C72.0625 18.1523 71.9746 18.5127 71.8691 18.8643C71.7637 19.21 71.6494 19.5322 71.5264 19.8311L72.7744 20.3848L68.415 21.2021L70.3398 19.6641C70.4336 19.0312 70.4922 18.4541 70.5156 17.9326C70.5449 17.4053 70.5596 16.957 70.5596 16.5879C70.5596 15.6445 70.4453 14.959 70.2168 14.5312C69.9941 14.1035 69.6748 13.8896 69.2588 13.8896C69.0068 13.8896 68.7549 13.9805 68.5029 14.1621C68.5381 14.3027 68.5557 14.4521 68.5557 14.6104C68.5557 14.9678 68.5264 15.3369 68.4678 15.7178C68.415 16.0986 68.3447 16.4736 68.2568 16.8428C68.1689 17.2119 68.0693 17.5693 67.958 17.915C67.8467 18.2607 67.7354 18.5742 67.624 18.8555L68.8633 19.8311H65.3213L66.5078 18.873C66.5781 18.3281 66.6279 17.7715 66.6572 17.2031C66.6865 16.6289 66.7012 16.0898 66.7012 15.5859C66.7012 14.9883 66.6309 14.5195 66.4902 14.1797C66.3555 13.8398 66.1094 13.6699 65.752 13.6699C65.5703 13.6699 65.4004 13.7051 65.2422 13.7754C65.0898 13.8457 64.9463 13.9395 64.8115 14.0566C64.6826 14.1738 64.5596 14.3086 64.4424 14.4609C64.3311 14.6133 64.2285 14.7715 64.1348 14.9355V19.7256L65.6113 20.7803L61.252 21.0879ZM75.7275 17.7744C75.8037 18.1025 75.9062 18.4248 76.0352 18.7412C76.1641 19.0518 76.3223 19.3301 76.5098 19.5762C76.6973 19.8223 76.9141 20.0215 77.1602 20.1738C77.4062 20.3262 77.6846 20.4023 77.9951 20.4023C78.4053 20.4023 78.7627 20.3174 79.0674 20.1475C79.3721 19.9775 79.6211 19.7637 79.8145 19.5059C80.0078 19.2422 80.1426 18.9551 80.2188 18.6445C80.2949 18.3281 80.3096 18.0264 80.2627 17.7393C80.4268 17.8037 80.5615 17.8887 80.667 17.9941C80.7783 18.0996 80.8633 18.2168 80.9219 18.3457C80.9863 18.4688 81.0303 18.5977 81.0537 18.7324C81.0771 18.8613 81.0889 18.9873 81.0889 19.1104C81.0889 19.3916 81.0068 19.6641 80.8428 19.9277C80.6787 20.1855 80.4473 20.417 80.1484 20.6221C79.8555 20.8213 79.5068 20.9824 79.1025 21.1055C78.6982 21.2285 78.2559 21.29 77.7754 21.29C77.1309 21.29 76.5537 21.1641 76.0439 20.9121C75.54 20.6602 75.1123 20.3203 74.7607 19.8926C74.4092 19.459 74.1396 18.9521 73.9521 18.3721C73.7646 17.792 73.6709 17.1738 73.6709 16.5176C73.6709 15.8496 73.7646 15.2344 73.9521 14.6719C74.1396 14.1035 74.415 13.6201 74.7783 13.2217C75.1475 12.8232 75.5986 12.5215 76.1318 12.3164C76.665 12.1113 77.2803 12.0293 77.9775 12.0703C78.458 12.1055 78.9004 12.2432 79.3047 12.4834C79.709 12.7236 80.0605 13.0342 80.3594 13.415C80.6641 13.79 80.9072 14.2207 81.0889 14.707C81.2764 15.1934 81.3906 15.7002 81.4316 16.2275L75.7275 17.7744ZM75.5605 16.3594C75.5605 16.4414 75.5605 16.5234 75.5605 16.6055C75.5605 16.6816 75.5664 16.7607 75.5781 16.8428L79.4365 15.4365C79.3076 15.0146 79.1611 14.6543 78.9971 14.3555C78.8389 14.0508 78.6719 13.8018 78.4961 13.6084C78.3203 13.415 78.1416 13.2744 77.96 13.1865C77.7842 13.0928 77.6143 13.0459 77.4502 13.0459C77.2041 13.0459 76.9873 13.0928 76.7998 13.1865C76.6123 13.2803 76.4482 13.4092 76.3076 13.5732C76.1729 13.7314 76.0557 13.9189 75.9561 14.1357C75.8623 14.3525 75.7861 14.584 75.7275 14.8301C75.6689 15.0762 75.625 15.3311 75.5957 15.5947C75.5723 15.8525 75.5605 16.1074 75.5605 16.3594ZM90.4756 17.2383V19.7783L92.6904 20.877H86.1514L88.3311 19.5762L88.9463 10.541L86.3184 8.94141C86.623 8.89453 86.9336 8.85645 87.25 8.82715C87.5723 8.79785 87.8887 8.77734 88.1992 8.76562C88.5156 8.74805 88.8203 8.73633 89.1133 8.73047C89.4121 8.72461 89.6904 8.72168 89.9482 8.72168C90.5342 8.72168 91.1172 8.74219 91.6973 8.7832C92.2773 8.82422 92.8311 8.90332 93.3584 9.02051C93.8916 9.13184 94.3838 9.28711 94.835 9.48633C95.292 9.68555 95.6875 9.94336 96.0215 10.2598C96.3555 10.5703 96.6162 10.9482 96.8037 11.3936C96.9971 11.8389 97.0938 12.3604 97.0938 12.958C97.0938 13.5029 97.0059 13.9863 96.8301 14.4082C96.6602 14.8301 96.4258 15.2021 96.127 15.5244C95.834 15.8408 95.4883 16.1074 95.0898 16.3242C94.6914 16.541 94.2695 16.7197 93.8242 16.8604C93.3789 16.9951 92.9219 17.0918 92.4531 17.1504C91.9844 17.209 91.5273 17.2383 91.082 17.2383H90.4756ZM90.4756 9.89062V16.3594C91.1611 16.3594 91.7412 16.292 92.2158 16.1572C92.6904 16.0225 93.0859 15.8525 93.4023 15.6475C93.7188 15.4365 93.9648 15.2051 94.1406 14.9531C94.3223 14.6953 94.457 14.4492 94.5449 14.2148C94.6328 13.9746 94.6855 13.7607 94.7031 13.5732C94.7266 13.3799 94.7383 13.2393 94.7383 13.1514C94.7383 13.0342 94.7266 12.873 94.7031 12.668C94.6855 12.457 94.6357 12.2314 94.5537 11.9912C94.4717 11.751 94.3486 11.5078 94.1846 11.2617C94.0205 11.0098 93.792 10.7842 93.499 10.585C93.2061 10.3799 92.8398 10.2129 92.4004 10.084C91.9668 9.95508 91.4395 9.89062 90.8184 9.89062H90.4756ZM105.443 15.5244C105.443 15.835 105.426 16.1689 105.391 16.5264C105.355 16.8838 105.303 17.2471 105.232 17.6162C105.168 17.9854 105.089 18.3486 104.995 18.7061C104.907 19.0576 104.811 19.3828 104.705 19.6816L106.577 21L103.264 20.8594L103.466 19.7783C103.114 20.2178 102.707 20.5547 102.244 20.7891C101.787 21.0176 101.257 21.1553 100.653 21.2021C100.161 21.2373 99.7305 21.2021 99.3613 21.0967C98.998 20.9971 98.6934 20.8418 98.4473 20.6309C98.207 20.4141 98.0283 20.1504 97.9111 19.8398C97.7939 19.5234 97.7354 19.1719 97.7354 18.7852C97.7354 18.4277 97.8232 18.082 97.999 17.748C98.1748 17.4082 98.4268 17.1094 98.7549 16.8516C99.0889 16.5938 99.4961 16.3887 99.9766 16.2363C100.457 16.0781 101.002 15.999 101.611 15.999C101.893 15.999 102.215 16.0254 102.578 16.0781C102.947 16.1309 103.296 16.2422 103.624 16.4121C103.595 16.0547 103.539 15.6914 103.457 15.3223C103.381 14.9473 103.267 14.6074 103.114 14.3027C102.962 13.998 102.763 13.752 102.517 13.5645C102.276 13.3711 101.975 13.2744 101.611 13.2744C101.301 13.2744 100.999 13.3389 100.706 13.4678C100.413 13.5967 100.138 13.7812 99.8799 14.0215C99.6279 14.2617 99.3994 14.5547 99.1943 14.9004C98.9893 15.2461 98.8164 15.6357 98.6758 16.0693L97.9375 11.7627L99.0537 13.4766C99.3291 13.1367 99.6074 12.8672 99.8887 12.668C100.17 12.4629 100.448 12.3076 100.724 12.2021C101.005 12.0908 101.274 12.0176 101.532 11.9824C101.796 11.9473 102.048 11.9297 102.288 11.9297C102.739 11.9531 103.155 12.0469 103.536 12.2109C103.923 12.3691 104.257 12.6006 104.538 12.9053C104.819 13.2041 105.039 13.5732 105.197 14.0127C105.361 14.4521 105.443 14.9561 105.443 15.5244ZM103.624 18.3369C103.636 18.1729 103.645 18.0146 103.65 17.8623C103.656 17.71 103.659 17.5605 103.659 17.4141V17.3086C103.448 17.2266 103.234 17.165 103.018 17.124C102.807 17.0771 102.61 17.0449 102.429 17.0273C102.247 17.0039 102.092 16.9922 101.963 16.9922C101.84 16.9863 101.758 16.9834 101.717 16.9834C101.383 16.9951 101.093 17.0566 100.847 17.168C100.601 17.2793 100.396 17.4199 100.231 17.5898C100.073 17.7539 99.9531 17.9385 99.8711 18.1436C99.7949 18.3486 99.7568 18.5508 99.7568 18.75C99.7568 19.2012 99.8652 19.5439 100.082 19.7783C100.305 20.0068 100.627 20.1211 101.049 20.1211C101.33 20.1211 101.597 20.0713 101.849 19.9717C102.101 19.8721 102.335 19.7402 102.552 19.5762C102.774 19.4062 102.974 19.2158 103.149 19.0049C103.331 18.7881 103.489 18.5654 103.624 18.3369ZM116.324 11.9473L114.654 13.4062C114.719 13.8926 114.766 14.3848 114.795 14.8828C114.83 15.375 114.848 15.8672 114.848 16.3594C114.848 17.4961 114.789 18.5479 114.672 19.5146C114.561 20.4756 114.353 21.3047 114.048 22.002C113.749 22.6992 113.333 23.2441 112.8 23.6367C112.267 24.0293 111.581 24.2256 110.743 24.2256C110.585 24.2256 110.421 24.2021 110.251 24.1553C110.087 24.1143 109.926 24.0586 109.768 23.9883C109.615 23.918 109.469 23.8389 109.328 23.751C109.188 23.6631 109.062 23.5752 108.95 23.4873L107.922 24.6387L107.685 20.8242C107.989 21.3691 108.291 21.7939 108.59 22.0986C108.895 22.4092 109.176 22.6406 109.434 22.793C109.691 22.9512 109.923 23.0479 110.128 23.083C110.333 23.124 110.491 23.1445 110.603 23.1445C110.743 23.1445 110.887 23.1357 111.033 23.1182C111.186 23.1064 111.332 23.0684 111.473 23.0039C111.619 22.9395 111.76 22.8369 111.895 22.6963C112.035 22.5615 112.164 22.374 112.281 22.1338C112.404 21.8936 112.513 21.5889 112.606 21.2197C112.706 20.8564 112.788 20.4111 112.853 19.8838C112.712 20.0889 112.557 20.2822 112.387 20.4639C112.217 20.6396 112.026 20.7949 111.815 20.9297C111.61 21.0586 111.388 21.1611 111.147 21.2373C110.907 21.3193 110.646 21.3604 110.365 21.3604C109.914 21.3486 109.483 21.2461 109.073 21.0527C108.669 20.8594 108.312 20.584 108.001 20.2266C107.696 19.8633 107.453 19.4209 107.271 18.8994C107.09 18.3721 106.999 17.7715 106.999 17.0977C106.999 16.2773 107.096 15.5566 107.289 14.9355C107.482 14.3145 107.746 13.7959 108.08 13.3799C108.414 12.9639 108.804 12.6562 109.249 12.457C109.7 12.252 110.181 12.1582 110.69 12.1758C111.171 12.1992 111.59 12.3164 111.947 12.5273C112.305 12.7324 112.606 12.9873 112.853 13.292C112.841 13.1514 112.826 13.0049 112.809 12.8525C112.797 12.7002 112.782 12.542 112.765 12.3779L116.324 11.9473ZM113.011 16.9131C113.011 16.5674 113.005 16.2217 112.993 15.876C112.987 15.5244 112.976 15.1553 112.958 14.7686C112.864 14.5811 112.756 14.4023 112.633 14.2324C112.516 14.0566 112.384 13.9043 112.237 13.7754C112.097 13.6465 111.944 13.5439 111.78 13.4678C111.622 13.3916 111.452 13.3535 111.271 13.3535C110.866 13.3535 110.521 13.4531 110.233 13.6523C109.952 13.8516 109.718 14.127 109.53 14.4785C109.349 14.8301 109.214 15.2461 109.126 15.7266C109.044 16.207 109.003 16.7285 109.003 17.291C109.003 17.707 109.038 18.0967 109.108 18.46C109.179 18.8174 109.281 19.1279 109.416 19.3916C109.551 19.6553 109.721 19.8633 109.926 20.0156C110.131 20.168 110.368 20.2441 110.638 20.2441C110.655 20.2441 110.708 20.2412 110.796 20.2354C110.884 20.2236 110.992 20.1973 111.121 20.1562C111.256 20.1094 111.405 20.0449 111.569 19.9629C111.733 19.8809 111.9 19.7666 112.07 19.6201C112.24 19.4736 112.404 19.292 112.562 19.0752C112.721 18.8525 112.864 18.583 112.993 18.2666C113.005 18.0615 113.011 17.8477 113.011 17.625C113.011 17.3965 113.011 17.1592 113.011 16.9131ZM118.513 17.7744C118.589 18.1025 118.691 18.4248 118.82 18.7412C118.949 19.0518 119.107 19.3301 119.295 19.5762C119.482 19.8223 119.699 20.0215 119.945 20.1738C120.191 20.3262 120.47 20.4023 120.78 20.4023C121.19 20.4023 121.548 20.3174 121.853 20.1475C122.157 19.9775 122.406 19.7637 122.6 19.5059C122.793 19.2422 122.928 18.9551 123.004 18.6445C123.08 18.3281 123.095 18.0264 123.048 17.7393C123.212 17.8037 123.347 17.8887 123.452 17.9941C123.563 18.0996 123.648 18.2168 123.707 18.3457C123.771 18.4688 123.815 18.5977 123.839 18.7324C123.862 18.8613 123.874 18.9873 123.874 19.1104C123.874 19.3916 123.792 19.6641 123.628 19.9277C123.464 20.1855 123.232 20.417 122.934 20.6221C122.641 20.8213 122.292 20.9824 121.888 21.1055C121.483 21.2285 121.041 21.29 120.561 21.29C119.916 21.29 119.339 21.1641 118.829 20.9121C118.325 20.6602 117.897 20.3203 117.546 19.8926C117.194 19.459 116.925 18.9521 116.737 18.3721C116.55 17.792 116.456 17.1738 116.456 16.5176C116.456 15.8496 116.55 15.2344 116.737 14.6719C116.925 14.1035 117.2 13.6201 117.563 13.2217C117.933 12.8232 118.384 12.5215 118.917 12.3164C119.45 12.1113 120.065 12.0293 120.763 12.0703C121.243 12.1055 121.686 12.2432 122.09 12.4834C122.494 12.7236 122.846 13.0342 123.145 13.415C123.449 13.79 123.692 14.2207 123.874 14.707C124.062 15.1934 124.176 15.7002 124.217 16.2275L118.513 17.7744ZM118.346 16.3594C118.346 16.4414 118.346 16.5234 118.346 16.6055C118.346 16.6816 118.352 16.7607 118.363 16.8428L122.222 15.4365C122.093 15.0146 121.946 14.6543 121.782 14.3555C121.624 14.0508 121.457 13.8018 121.281 13.6084C121.105 13.415 120.927 13.2744 120.745 13.1865C120.569 13.0928 120.399 13.0459 120.235 13.0459C119.989 13.0459 119.772 13.0928 119.585 13.1865C119.397 13.2803 119.233 13.4092 119.093 13.5732C118.958 13.7314 118.841 13.9189 118.741 14.1357C118.647 14.3525 118.571 14.584 118.513 14.8301C118.454 15.0762 118.41 15.3311 118.381 15.5947C118.357 15.8525 118.346 16.1074 118.346 16.3594Z" fill="#CC9C0B"/>
<rect x="5" y="1" width="148" height="28" rx="4" stroke="url(#paint0_linear)" stroke-width="2"/>
</g>
<defs>
<filter id="filter0_d" x="0" y="0" width="158" height="38" filterUnits="userSpaceOnUse" color-interpolation-filters="sRGB">
<feFlood flood-opacity="0" result="BackgroundImageFix"/>
<feColorMatrix in="SourceAlpha" type="matrix" values="0 0 0 0 0 0 0 0 0 0 0 0 0 0 0 0 0 0 127 0"/>
<feOffset dy="4"/>
<feGaussianBlur stdDeviation="2"/>
<feColorMatrix type="matrix" values="0 0 0 0 0 0 0 0 0 0 0 0 0 0 0 0 0 0 0.25 0"/>
<feBlend mode="normal" in2="BackgroundImageFix" result="effect1_dropShadow"/>
<feBlend mode="normal" in="SourceGraphic" in2="effect1_dropShadow" result="shape"/>
</filter>
<linearGradient id="paint0_linear" x1="74" y1="-5.00002" x2="384" y2="80" gradientUnits="userSpaceOnUse">
<stop stop-color="#F4EB11"/>
<stop offset="0.742956" stop-color="#7C0000"/>
<stop offset="0.743056" stop-color="#DD9539" stop-opacity="0"/>
</linearGradient>
</defs>
</svg>
