<svg width="150" height="30" viewBox="0 0 150 30" fill="none" xmlns="http://www.w3.org/2000/svg">
<rect x="2.5" y="2.5" width="145" height="25" fill="url(#paint0_linear)"/>
<path d="M46.2 22H42.825V21.88C42.825 21.33 43.045 21.035 43.485 20.995L43.92 20.965V17.425H39.57V20.935L40.65 21.025C40.71 21.675 40.485 22 39.975 22H36.6V21.88C36.6 21.33 36.82 21.035 37.26 20.995L37.695 20.965V12.79L36.615 12.7C36.585 12.64 36.59 12.505 36.63 12.295C36.72 11.915 36.94 11.725 37.29 11.725H40.665V11.845C40.665 12.395 40.445 12.69 40.005 12.73L39.57 12.76V16.42H43.92V12.79L42.84 12.7C42.78 12.05 43.005 11.725 43.515 11.725H46.89V11.845C46.89 12.395 46.67 12.69 46.23 12.73L45.795 12.76V20.935L46.875 21.025C46.905 21.085 46.9 21.22 46.86 21.43C46.77 21.81 46.55 22 46.2 22ZM52.7494 16.15C52.4694 15.62 52.0694 15.355 51.5494 15.355C51.0294 15.355 50.6244 15.615 50.3344 16.135C50.0544 16.655 49.9144 17.365 49.9144 18.265C49.9144 19.155 50.0544 19.85 50.3344 20.35C50.6244 20.84 51.0294 21.085 51.5494 21.085C52.0694 21.085 52.4694 20.845 52.7494 20.365C53.0394 19.875 53.1844 19.185 53.1844 18.295C53.1844 17.395 53.0394 16.68 52.7494 16.15ZM48.0094 18.34C48.0094 17.06 48.3244 16.05 48.9544 15.31C49.5944 14.57 50.4794 14.2 51.6094 14.2C52.7394 14.2 53.5994 14.555 54.1894 15.265C54.7894 15.975 55.0894 16.96 55.0894 18.22C55.0894 19.47 54.7694 20.45 54.1294 21.16C53.4894 21.87 52.5944 22.225 51.4444 22.225C50.3044 22.225 49.4444 21.895 48.8644 21.235C48.2944 20.575 48.0094 19.61 48.0094 18.34ZM69.0843 22H65.7693V21.88C65.7693 21.33 65.9893 21.035 66.4293 20.995L66.8643 20.965V17.275C66.8643 16.695 66.7443 16.29 66.5043 16.06C66.2643 15.82 65.8793 15.7 65.3493 15.7C64.8293 15.7 64.3043 15.93 63.7743 16.39C63.8443 16.7 63.8793 17.02 63.8793 17.35V20.935L64.9443 21.025C65.0043 21.675 64.7793 22 64.2693 22H60.9243V21.88C60.9243 21.33 61.1443 21.035 61.5843 20.995L62.0493 20.965V17.275C62.0493 16.695 61.9293 16.29 61.6893 16.06C61.4493 15.82 61.0843 15.7 60.5943 15.7C60.1043 15.7 59.5893 15.93 59.0493 16.39V20.935L60.1143 21.025C60.1743 21.675 59.9493 22 59.4393 22H56.0943V21.88C56.0943 21.33 56.3143 21.035 56.7543 20.995L57.2193 20.965V15.61L56.6343 15.55C56.2243 15.51 56.0393 15.2 56.0793 14.62L58.7943 14.29L58.8993 15.205H58.9443C59.2043 14.975 59.4093 14.805 59.5593 14.695C59.7093 14.585 59.9343 14.475 60.2343 14.365C60.5443 14.255 60.8893 14.2 61.2693 14.2C61.6593 14.2 62.0493 14.3 62.4393 14.5C62.8293 14.69 63.1493 14.985 63.3993 15.385C64.2293 14.595 65.0493 14.2 65.8593 14.2C66.6793 14.2 67.3543 14.46 67.8843 14.98C68.4243 15.49 68.6943 16.28 68.6943 17.35V20.935L69.7593 21.025C69.7893 21.085 69.7843 21.22 69.7443 21.43C69.6543 21.81 69.4343 22 69.0843 22ZM72.473 18.325V18.49C72.473 19.3 72.618 19.905 72.908 20.305C73.208 20.695 73.718 20.89 74.438 20.89C75.168 20.89 75.883 20.615 76.583 20.065C76.783 20.215 76.883 20.45 76.883 20.77C76.883 21.08 76.603 21.4 76.043 21.73C75.493 22.06 74.803 22.225 73.973 22.225C72.893 22.225 72.053 21.91 71.453 21.28C70.863 20.64 70.568 19.675 70.568 18.385C70.568 17.085 70.888 16.065 71.528 15.325C72.178 14.575 73.068 14.2 74.198 14.2C75.158 14.2 75.873 14.5 76.343 15.1C76.823 15.7 77.053 16.49 77.033 17.47V18.325H72.473ZM74.033 15.4C73.213 15.4 72.718 16.03 72.548 17.29H75.278C75.258 16.61 75.143 16.125 74.933 15.835C74.723 15.545 74.423 15.4 74.033 15.4ZM85.7577 18.175H85.0827V20.935L86.3577 21.025C86.3877 21.085 86.3827 21.22 86.3427 21.43C86.2527 21.81 86.0327 22 85.6827 22H82.1127V21.88C82.1127 21.33 82.3327 21.035 82.7727 20.995L83.2077 20.965V12.76L82.1127 12.67C82.1027 12.42 82.1477 12.2 82.2477 12.01C82.3477 11.82 82.4977 11.725 82.6977 11.725H86.2077C87.4277 11.725 88.3777 11.985 89.0577 12.505C89.7377 13.015 90.0777 13.73 90.0777 14.65C90.0777 15.76 89.6977 16.625 88.9377 17.245C88.1777 17.865 87.1177 18.175 85.7577 18.175ZM85.0827 17.245H85.5627C86.3627 17.245 86.9877 17.025 87.4377 16.585C87.8977 16.145 88.1277 15.56 88.1277 14.83C88.1277 14.09 87.9477 13.535 87.5877 13.165C87.2277 12.795 86.7227 12.62 86.0727 12.64L85.0827 12.67V17.245ZM98.04 21.325C98.04 21.925 97.65 22.225 96.87 22.225C96.09 22.225 95.585 21.965 95.355 21.445C94.725 21.965 94.03 22.225 93.27 22.225C92.51 22.225 91.91 22.04 91.47 21.67C91.04 21.29 90.825 20.775 90.825 20.125C90.825 19.465 91.08 18.925 91.59 18.505C92.1 18.085 92.905 17.875 94.005 17.875C94.435 17.875 94.845 17.905 95.235 17.965V17.305C95.235 16.615 95.12 16.125 94.89 15.835C94.67 15.545 94.365 15.4 93.975 15.4C93.585 15.4 93.27 15.525 93.03 15.775C92.8 16.025 92.685 16.365 92.685 16.795C92.285 16.835 91.95 16.775 91.68 16.615C91.42 16.445 91.29 16.19 91.29 15.85C91.29 15.37 91.54 14.975 92.04 14.665C92.54 14.355 93.185 14.2 93.975 14.2C96.035 14.2 97.065 15.2 97.065 17.2V21.205L98.04 21.325ZM95.235 19.09C94.875 18.96 94.495 18.895 94.095 18.895C93.705 18.895 93.38 18.99 93.12 19.18C92.86 19.36 92.73 19.62 92.73 19.96C92.73 20.66 93.09 21.01 93.81 21.01C94.32 21.01 94.795 20.865 95.235 20.575V19.09ZM101.527 19.81C101.277 19.81 101.027 19.785 100.777 19.735C100.637 19.985 100.567 20.165 100.567 20.275C100.567 20.385 100.682 20.46 100.912 20.5C101.142 20.53 101.687 20.56 102.547 20.59C103.407 20.62 104.072 20.775 104.542 21.055C105.022 21.325 105.262 21.795 105.262 22.465C105.262 23.385 104.907 24.12 104.197 24.67C103.487 25.22 102.612 25.495 101.572 25.495C100.542 25.495 99.7673 25.305 99.2473 24.925C98.7373 24.545 98.4823 24.055 98.4823 23.455C98.4823 22.855 98.7723 22.285 99.3523 21.745C99.2023 21.565 99.1273 21.325 99.1273 21.025C99.1273 20.495 99.3773 19.94 99.8773 19.36C99.1073 18.86 98.7223 18.1 98.7223 17.08C98.7223 16.25 98.9873 15.565 99.5173 15.025C100.057 14.475 100.777 14.2 101.677 14.2C102.267 14.2 102.787 14.32 103.237 14.56L105.247 14.02C105.337 14.13 105.387 14.335 105.397 14.635C105.407 14.935 105.357 15.135 105.247 15.235C105.097 15.315 104.707 15.345 104.077 15.325C104.367 15.755 104.492 16.355 104.452 17.125C104.412 17.885 104.127 18.525 103.597 19.045C103.067 19.555 102.377 19.81 101.527 19.81ZM103.987 22.93C103.987 22.7 103.817 22.55 103.477 22.48C103.137 22.41 102.562 22.355 101.752 22.315C100.942 22.275 100.422 22.23 100.192 22.18C99.9423 22.48 99.8173 22.785 99.8173 23.095C99.8173 23.405 99.9773 23.66 100.297 23.86C100.617 24.06 101.097 24.16 101.737 24.16C102.377 24.16 102.912 24.04 103.342 23.8C103.772 23.57 103.987 23.28 103.987 22.93ZM101.557 18.715C101.917 18.715 102.202 18.57 102.412 18.28C102.622 17.98 102.727 17.565 102.727 17.035C102.727 16.495 102.627 16.08 102.427 15.79C102.227 15.49 101.942 15.34 101.572 15.34C101.202 15.34 100.917 15.49 100.717 15.79C100.527 16.09 100.432 16.51 100.432 17.05C100.432 18.16 100.807 18.715 101.557 18.715ZM107.878 18.325V18.49C107.878 19.3 108.023 19.905 108.313 20.305C108.613 20.695 109.123 20.89 109.843 20.89C110.573 20.89 111.288 20.615 111.988 20.065C112.188 20.215 112.288 20.45 112.288 20.77C112.288 21.08 112.008 21.4 111.448 21.73C110.898 22.06 110.208 22.225 109.378 22.225C108.298 22.225 107.458 21.91 106.858 21.28C106.268 20.64 105.973 19.675 105.973 18.385C105.973 17.085 106.293 16.065 106.933 15.325C107.583 14.575 108.473 14.2 109.603 14.2C110.563 14.2 111.278 14.5 111.748 15.1C112.228 15.7 112.458 16.49 112.438 17.47V18.325H107.878ZM109.438 15.4C108.618 15.4 108.123 16.03 107.953 17.29H110.683C110.663 16.61 110.548 16.125 110.338 15.835C110.128 15.545 109.828 15.4 109.438 15.4Z" fill="white"/>
<rect x="2.5" y="2.5" width="145" height="25" stroke="url(#paint1_linear)" stroke-width="5"/>
<defs>
<linearGradient id="paint0_linear" x1="75" y1="5.96046e-07" x2="67" y2="164" gradientUnits="userSpaceOnUse">
<stop stop-color="#BD1313"/>
<stop offset="1" stop-color="#CE1D1D" stop-opacity="0"/>
</linearGradient>
<linearGradient id="paint1_linear" x1="70" y1="-4.99999" x2="95" y2="70.5" gradientUnits="userSpaceOnUse">
<stop stop-color="#DDCD39"/>
<stop offset="0.742855" stop-color="#7D0301"/>
<stop offset="0.742956" stop-color="#7C0000"/>
<stop offset="0.743056" stop-color="#DD9539" stop-opacity="0"/>
</linearGradient>
</defs>
</svg>
