<svg width="150" height="30" viewBox="0 0 150 30" fill="none" xmlns="http://www.w3.org/2000/svg">
<rect x="2.5" y="2.5" width="145" height="25" fill="url(#paint0_linear)"/>
<path d="M49.6 21H46.69V20.88C46.69 20.62 46.76 20.45 46.9 20.37C46.97 20.34 47.055 20.32 47.155 20.31L47.83 20.28V16.29H42.865V20.25L43.96 20.34C44 20.78 43.865 21 43.555 21H40.63V20.88C40.63 20.62 40.7 20.45 40.84 20.37C40.91 20.34 40.995 20.32 41.095 20.31L41.785 20.28V11.595L40.69 11.505C40.65 11.065 40.785 10.845 41.095 10.845H44.02V10.965C44.02 11.235 43.95 11.4 43.81 11.46C43.74 11.5 43.655 11.525 43.555 11.535L42.865 11.565V15.555H47.83V11.595L46.75 11.505C46.71 11.065 46.845 10.845 47.155 10.845H50.065V10.965C50.065 11.235 49.995 11.4 49.855 11.46C49.785 11.5 49.7 11.525 49.6 11.535L48.925 11.565V20.25L50.005 20.34C50.045 20.78 49.91 21 49.6 21ZM54.5184 14.22C53.8384 14.22 53.3134 14.515 52.9434 15.105C52.5734 15.695 52.3884 16.45 52.3884 17.37C52.3884 18.28 52.5684 19.025 52.9284 19.605C53.2884 20.175 53.8084 20.46 54.4884 20.46C55.1684 20.45 55.6934 20.16 56.0634 19.59C56.4334 19.02 56.6184 18.285 56.6184 17.385C56.6184 16.475 56.4384 15.72 56.0784 15.12C55.7284 14.51 55.2084 14.21 54.5184 14.22ZM54.6084 13.44C55.3684 13.44 56.0534 13.68 56.6634 14.16C56.9834 14.42 57.2384 14.8 57.4284 15.3C57.6284 15.8 57.7284 16.4 57.7284 17.1C57.7484 18.34 57.4584 19.34 56.8584 20.1C56.2584 20.85 55.4484 21.225 54.4284 21.225C53.4084 21.225 52.6334 20.905 52.1034 20.265C51.5734 19.625 51.2984 18.7 51.2784 17.49C51.2684 16.28 51.5634 15.305 52.1634 14.565C52.7734 13.815 53.5884 13.44 54.6084 13.44ZM71.4805 21H68.6455V20.88C68.6455 20.64 68.7155 20.49 68.8555 20.43C68.9255 20.39 69.0105 20.365 69.1105 20.355L69.7255 20.325V16.575C69.7255 15.115 69.1355 14.385 67.9555 14.385C67.5455 14.385 67.1855 14.475 66.8755 14.655C66.5655 14.825 66.2255 15.08 65.8555 15.42C65.9455 15.7 65.9905 16.055 65.9905 16.485V20.295L67.1155 20.385C67.1555 20.795 67.0205 21 66.7105 21H63.8605V20.88C63.8605 20.64 63.9305 20.49 64.0705 20.43C64.1405 20.39 64.2255 20.365 64.3255 20.355L64.9405 20.325V16.575C64.9405 15.855 64.7805 15.31 64.4605 14.94C64.1505 14.57 63.7155 14.385 63.1555 14.385C62.7655 14.385 62.4205 14.465 62.1205 14.625C61.8205 14.785 61.5005 15.02 61.1605 15.33V20.295L62.3005 20.385C62.3405 20.795 62.2005 21 61.8805 21H59.0305V20.88C59.0305 20.64 59.1005 20.49 59.2405 20.43C59.3105 20.39 59.3955 20.365 59.4955 20.355L60.1255 20.325V14.37L59.4655 14.355C59.1455 14.355 58.9855 14.14 58.9855 13.71L60.9205 13.455L61.1005 14.505H61.1455C61.8155 13.795 62.5655 13.44 63.3955 13.44C63.8455 13.44 64.2755 13.55 64.6855 13.77C65.0955 13.99 65.4105 14.335 65.6305 14.805C65.9805 14.395 66.3505 14.065 66.7405 13.815C67.1405 13.565 67.6555 13.44 68.2855 13.44C68.9155 13.44 69.4855 13.685 69.9955 14.175C70.5055 14.665 70.7605 15.435 70.7605 16.485V20.295L71.9005 20.385C71.9405 20.795 71.8005 21 71.4805 21ZM78.7059 17.055H73.9959C73.9859 17.155 73.9809 17.31 73.9809 17.52C73.9809 18.37 74.1609 19.06 74.5209 19.59C74.8809 20.11 75.4409 20.37 76.2009 20.37C76.9609 20.37 77.6859 20.1 78.3759 19.56C78.4959 19.66 78.5559 19.785 78.5559 19.935C78.5559 20.215 78.2809 20.5 77.7309 20.79C77.1909 21.08 76.5809 21.225 75.9009 21.225C74.9709 21.225 74.2259 20.92 73.6659 20.31C73.1159 19.7 72.8409 18.77 72.8409 17.52C72.8409 16.27 73.1709 15.28 73.8309 14.55C74.4909 13.81 75.2709 13.44 76.1709 13.44C77.0709 13.44 77.7209 13.725 78.1209 14.295C78.5209 14.865 78.7159 15.545 78.7059 16.335V17.055ZM77.6109 16.38C77.6109 15.71 77.4809 15.18 77.2209 14.79C76.9609 14.39 76.5809 14.19 76.0809 14.19C75.5909 14.19 75.1709 14.385 74.8209 14.775C74.4709 15.165 74.2259 15.7 74.0859 16.38H77.6109ZM84.2636 10.815H87.4136C88.6436 10.815 89.5736 11.08 90.2036 11.61C90.8336 12.13 91.1486 12.81 91.1486 13.65C91.1486 14.79 90.7736 15.62 90.0236 16.14C89.2836 16.66 88.2886 16.92 87.0386 16.92C86.7086 16.92 86.3786 16.905 86.0486 16.875V20.25L87.1886 20.34C87.2286 20.78 87.0886 21 86.7686 21H83.8136C83.8136 21 83.8136 20.96 83.8136 20.88C83.8136 20.62 83.8836 20.45 84.0236 20.37C84.0936 20.34 84.1786 20.32 84.2786 20.31L84.9686 20.28V11.565L83.8736 11.475C83.8436 11.035 83.9736 10.815 84.2636 10.815ZM86.9036 16.215C88.9636 16.215 89.9936 15.42 89.9936 13.83C89.9936 12.14 88.9486 11.36 86.8586 11.49L86.0486 11.535V16.185C86.2486 16.205 86.5336 16.215 86.9036 16.215ZM98.7053 20.535C98.7053 21.005 98.3953 21.24 97.7753 21.24C97.1553 21.24 96.7953 20.925 96.6953 20.295C96.0553 20.915 95.2853 21.225 94.3853 21.225C93.6953 21.225 93.1453 21.05 92.7353 20.7C92.3353 20.34 92.1353 19.855 92.1353 19.245C92.1353 18.635 92.3603 18.12 92.8103 17.7C93.2603 17.28 94.0053 17.07 95.0453 17.07C95.6553 17.07 96.1953 17.14 96.6653 17.28V16.095C96.6653 15.525 96.5203 15.07 96.2303 14.73C95.9503 14.38 95.5353 14.205 94.9853 14.205C94.4353 14.205 94.0403 14.355 93.8003 14.655C93.5703 14.945 93.4403 15.285 93.4103 15.675C93.1703 15.695 92.9703 15.645 92.8103 15.525C92.6503 15.405 92.5703 15.21 92.5703 14.94C92.5703 14.51 92.7903 14.155 93.2303 13.875C93.6703 13.585 94.2403 13.44 94.9403 13.44C95.5503 13.44 96.1303 13.59 96.6803 13.89C96.9903 14.05 97.2403 14.315 97.4303 14.685C97.6203 15.055 97.7153 15.505 97.7153 16.035V20.415L98.7053 20.535ZM96.6653 18.18C96.2053 17.93 95.6703 17.805 95.0603 17.805C94.4503 17.805 94.0003 17.92 93.7103 18.15C93.4303 18.38 93.2903 18.695 93.2903 19.095C93.2903 19.495 93.4153 19.815 93.6653 20.055C93.9153 20.285 94.2603 20.4 94.7003 20.4C95.4003 20.4 96.0553 20.13 96.6653 19.59V18.18ZM101.945 19.575L102.395 19.59C103.615 19.61 104.475 19.755 104.975 20.025C105.485 20.285 105.74 20.77 105.74 21.48C105.74 22.35 105.42 23.05 104.78 23.58C104.14 24.12 103.315 24.39 102.305 24.39C101.305 24.39 100.545 24.2 100.025 23.82C99.5046 23.45 99.2446 22.97 99.2446 22.38C99.2446 21.62 99.6396 20.945 100.43 20.355C100.18 20.225 100.055 20 100.055 19.68C100.055 19.35 100.305 18.925 100.805 18.405C100.045 18.015 99.6396 17.345 99.5896 16.395C99.5396 15.595 99.7646 14.905 100.265 14.325C100.765 13.735 101.445 13.44 102.305 13.44C102.875 13.44 103.38 13.58 103.82 13.86L105.635 13.38C105.725 13.5 105.775 13.65 105.785 13.83C105.795 14.01 105.745 14.15 105.635 14.25C105.475 14.33 105.045 14.36 104.345 14.34C104.665 14.76 104.815 15.34 104.795 16.08C104.785 16.81 104.545 17.43 104.075 17.94C103.615 18.45 102.965 18.705 102.125 18.705C101.895 18.705 101.665 18.68 101.435 18.63C101.035 19.1 100.935 19.38 101.135 19.47C101.315 19.54 101.585 19.575 101.945 19.575ZM101.03 14.715C100.75 15.085 100.61 15.54 100.61 16.08C100.61 16.62 100.745 17.08 101.015 17.46C101.295 17.84 101.68 18.025 102.17 18.015C102.67 18.005 103.06 17.81 103.34 17.43C103.63 17.05 103.775 16.595 103.775 16.065C103.775 15.525 103.64 15.07 103.37 14.7C103.1 14.32 102.715 14.135 102.215 14.145C101.715 14.155 101.32 14.345 101.03 14.715ZM100.13 22.005C100.13 22.505 100.34 22.875 100.76 23.115C101.18 23.365 101.76 23.49 102.5 23.49C103.24 23.49 103.835 23.32 104.285 22.98C104.735 22.64 104.96 22.23 104.96 21.75C104.96 21.28 104.695 20.97 104.165 20.82C103.705 20.7 103.115 20.63 102.395 20.61C101.685 20.59 101.21 20.56 100.97 20.52C100.41 21.01 100.13 21.505 100.13 22.005ZM112.368 17.055H107.658C107.648 17.155 107.643 17.31 107.643 17.52C107.643 18.37 107.823 19.06 108.183 19.59C108.543 20.11 109.103 20.37 109.863 20.37C110.623 20.37 111.348 20.1 112.038 19.56C112.158 19.66 112.218 19.785 112.218 19.935C112.218 20.215 111.943 20.5 111.393 20.79C110.853 21.08 110.243 21.225 109.563 21.225C108.633 21.225 107.888 20.92 107.328 20.31C106.778 19.7 106.503 18.77 106.503 17.52C106.503 16.27 106.833 15.28 107.493 14.55C108.153 13.81 108.933 13.44 109.833 13.44C110.733 13.44 111.383 13.725 111.783 14.295C112.183 14.865 112.378 15.545 112.368 16.335V17.055ZM111.273 16.38C111.273 15.71 111.143 15.18 110.883 14.79C110.623 14.39 110.243 14.19 109.743 14.19C109.253 14.19 108.833 14.385 108.483 14.775C108.133 15.165 107.888 15.7 107.748 16.38H111.273Z" fill="#7C0000"/>
<path d="M49.2 20H45.825V19.88C45.825 19.33 46.045 19.035 46.485 18.995L46.92 18.965V15.425H42.57V18.935L43.65 19.025C43.71 19.675 43.485 20 42.975 20H39.6V19.88C39.6 19.33 39.82 19.035 40.26 18.995L40.695 18.965V10.79L39.615 10.7C39.585 10.64 39.59 10.505 39.63 10.295C39.72 9.915 39.94 9.725 40.29 9.725H43.665V9.845C43.665 10.395 43.445 10.69 43.005 10.73L42.57 10.76V14.42H46.92V10.79L45.84 10.7C45.78 10.05 46.005 9.725 46.515 9.725H49.89V9.845C49.89 10.395 49.67 10.69 49.23 10.73L48.795 10.76V18.935L49.875 19.025C49.905 19.085 49.9 19.22 49.86 19.43C49.77 19.81 49.55 20 49.2 20ZM55.7494 14.15C55.4694 13.62 55.0694 13.355 54.5494 13.355C54.0294 13.355 53.6244 13.615 53.3344 14.135C53.0544 14.655 52.9144 15.365 52.9144 16.265C52.9144 17.155 53.0544 17.85 53.3344 18.35C53.6244 18.84 54.0294 19.085 54.5494 19.085C55.0694 19.085 55.4694 18.845 55.7494 18.365C56.0394 17.875 56.1844 17.185 56.1844 16.295C56.1844 15.395 56.0394 14.68 55.7494 14.15ZM51.0094 16.34C51.0094 15.06 51.3244 14.05 51.9544 13.31C52.5944 12.57 53.4794 12.2 54.6094 12.2C55.7394 12.2 56.5994 12.555 57.1894 13.265C57.7894 13.975 58.0894 14.96 58.0894 16.22C58.0894 17.47 57.7694 18.45 57.1294 19.16C56.4894 19.87 55.5944 20.225 54.4444 20.225C53.3044 20.225 52.4444 19.895 51.8644 19.235C51.2944 18.575 51.0094 17.61 51.0094 16.34ZM72.0843 20H68.7693V19.88C68.7693 19.33 68.9893 19.035 69.4293 18.995L69.8643 18.965V15.275C69.8643 14.695 69.7443 14.29 69.5043 14.06C69.2643 13.82 68.8793 13.7 68.3493 13.7C67.8293 13.7 67.3043 13.93 66.7743 14.39C66.8443 14.7 66.8793 15.02 66.8793 15.35V18.935L67.9443 19.025C68.0043 19.675 67.7793 20 67.2693 20H63.9243V19.88C63.9243 19.33 64.1443 19.035 64.5843 18.995L65.0493 18.965V15.275C65.0493 14.695 64.9293 14.29 64.6893 14.06C64.4493 13.82 64.0843 13.7 63.5943 13.7C63.1043 13.7 62.5893 13.93 62.0493 14.39V18.935L63.1143 19.025C63.1743 19.675 62.9493 20 62.4393 20H59.0943V19.88C59.0943 19.33 59.3143 19.035 59.7543 18.995L60.2193 18.965V13.61L59.6343 13.55C59.2243 13.51 59.0393 13.2 59.0793 12.62L61.7943 12.29L61.8993 13.205H61.9443C62.2043 12.975 62.4093 12.805 62.5593 12.695C62.7093 12.585 62.9343 12.475 63.2343 12.365C63.5443 12.255 63.8893 12.2 64.2693 12.2C64.6593 12.2 65.0493 12.3 65.4393 12.5C65.8293 12.69 66.1493 12.985 66.3993 13.385C67.2293 12.595 68.0493 12.2 68.8593 12.2C69.6793 12.2 70.3543 12.46 70.8843 12.98C71.4243 13.49 71.6943 14.28 71.6943 15.35V18.935L72.7593 19.025C72.7893 19.085 72.7843 19.22 72.7443 19.43C72.6543 19.81 72.4343 20 72.0843 20ZM75.473 16.325V16.49C75.473 17.3 75.618 17.905 75.908 18.305C76.208 18.695 76.718 18.89 77.438 18.89C78.168 18.89 78.883 18.615 79.583 18.065C79.783 18.215 79.883 18.45 79.883 18.77C79.883 19.08 79.603 19.4 79.043 19.73C78.493 20.06 77.803 20.225 76.973 20.225C75.893 20.225 75.053 19.91 74.453 19.28C73.863 18.64 73.568 17.675 73.568 16.385C73.568 15.085 73.888 14.065 74.528 13.325C75.178 12.575 76.068 12.2 77.198 12.2C78.158 12.2 78.873 12.5 79.343 13.1C79.823 13.7 80.053 14.49 80.033 15.47V16.325H75.473ZM77.033 13.4C76.213 13.4 75.718 14.03 75.548 15.29H78.278C78.258 14.61 78.143 14.125 77.933 13.835C77.723 13.545 77.423 13.4 77.033 13.4ZM88.7577 16.175H88.0827V18.935L89.3577 19.025C89.3877 19.085 89.3827 19.22 89.3427 19.43C89.2527 19.81 89.0327 20 88.6827 20H85.1127V19.88C85.1127 19.33 85.3327 19.035 85.7727 18.995L86.2077 18.965V10.76L85.1127 10.67C85.1027 10.42 85.1477 10.2 85.2477 10.01C85.3477 9.82 85.4977 9.725 85.6977 9.725H89.2077C90.4277 9.725 91.3777 9.985 92.0577 10.505C92.7377 11.015 93.0777 11.73 93.0777 12.65C93.0777 13.76 92.6977 14.625 91.9377 15.245C91.1777 15.865 90.1177 16.175 88.7577 16.175ZM88.0827 15.245H88.5627C89.3627 15.245 89.9877 15.025 90.4377 14.585C90.8977 14.145 91.1277 13.56 91.1277 12.83C91.1277 12.09 90.9477 11.535 90.5877 11.165C90.2277 10.795 89.7227 10.62 89.0727 10.64L88.0827 10.67V15.245ZM101.04 19.325C101.04 19.925 100.65 20.225 99.87 20.225C99.09 20.225 98.585 19.965 98.355 19.445C97.725 19.965 97.03 20.225 96.27 20.225C95.51 20.225 94.91 20.04 94.47 19.67C94.04 19.29 93.825 18.775 93.825 18.125C93.825 17.465 94.08 16.925 94.59 16.505C95.1 16.085 95.905 15.875 97.005 15.875C97.435 15.875 97.845 15.905 98.235 15.965V15.305C98.235 14.615 98.12 14.125 97.89 13.835C97.67 13.545 97.365 13.4 96.975 13.4C96.585 13.4 96.27 13.525 96.03 13.775C95.8 14.025 95.685 14.365 95.685 14.795C95.285 14.835 94.95 14.775 94.68 14.615C94.42 14.445 94.29 14.19 94.29 13.85C94.29 13.37 94.54 12.975 95.04 12.665C95.54 12.355 96.185 12.2 96.975 12.2C99.035 12.2 100.065 13.2 100.065 15.2V19.205L101.04 19.325ZM98.235 17.09C97.875 16.96 97.495 16.895 97.095 16.895C96.705 16.895 96.38 16.99 96.12 17.18C95.86 17.36 95.73 17.62 95.73 17.96C95.73 18.66 96.09 19.01 96.81 19.01C97.32 19.01 97.795 18.865 98.235 18.575V17.09ZM104.527 17.81C104.277 17.81 104.027 17.785 103.777 17.735C103.637 17.985 103.567 18.165 103.567 18.275C103.567 18.385 103.682 18.46 103.912 18.5C104.142 18.53 104.687 18.56 105.547 18.59C106.407 18.62 107.072 18.775 107.542 19.055C108.022 19.325 108.262 19.795 108.262 20.465C108.262 21.385 107.907 22.12 107.197 22.67C106.487 23.22 105.612 23.495 104.572 23.495C103.542 23.495 102.767 23.305 102.247 22.925C101.737 22.545 101.482 22.055 101.482 21.455C101.482 20.855 101.772 20.285 102.352 19.745C102.202 19.565 102.127 19.325 102.127 19.025C102.127 18.495 102.377 17.94 102.877 17.36C102.107 16.86 101.722 16.1 101.722 15.08C101.722 14.25 101.987 13.565 102.517 13.025C103.057 12.475 103.777 12.2 104.677 12.2C105.267 12.2 105.787 12.32 106.237 12.56L108.247 12.02C108.337 12.13 108.387 12.335 108.397 12.635C108.407 12.935 108.357 13.135 108.247 13.235C108.097 13.315 107.707 13.345 107.077 13.325C107.367 13.755 107.492 14.355 107.452 15.125C107.412 15.885 107.127 16.525 106.597 17.045C106.067 17.555 105.377 17.81 104.527 17.81ZM106.987 20.93C106.987 20.7 106.817 20.55 106.477 20.48C106.137 20.41 105.562 20.355 104.752 20.315C103.942 20.275 103.422 20.23 103.192 20.18C102.942 20.48 102.817 20.785 102.817 21.095C102.817 21.405 102.977 21.66 103.297 21.86C103.617 22.06 104.097 22.16 104.737 22.16C105.377 22.16 105.912 22.04 106.342 21.8C106.772 21.57 106.987 21.28 106.987 20.93ZM104.557 16.715C104.917 16.715 105.202 16.57 105.412 16.28C105.622 15.98 105.727 15.565 105.727 15.035C105.727 14.495 105.627 14.08 105.427 13.79C105.227 13.49 104.942 13.34 104.572 13.34C104.202 13.34 103.917 13.49 103.717 13.79C103.527 14.09 103.432 14.51 103.432 15.05C103.432 16.16 103.807 16.715 104.557 16.715ZM110.878 16.325V16.49C110.878 17.3 111.023 17.905 111.313 18.305C111.613 18.695 112.123 18.89 112.843 18.89C113.573 18.89 114.288 18.615 114.988 18.065C115.188 18.215 115.288 18.45 115.288 18.77C115.288 19.08 115.008 19.4 114.448 19.73C113.898 20.06 113.208 20.225 112.378 20.225C111.298 20.225 110.458 19.91 109.858 19.28C109.268 18.64 108.973 17.675 108.973 16.385C108.973 15.085 109.293 14.065 109.933 13.325C110.583 12.575 111.473 12.2 112.603 12.2C113.563 12.2 114.278 12.5 114.748 13.1C115.228 13.7 115.458 14.49 115.438 15.47V16.325H110.878ZM112.438 13.4C111.618 13.4 111.123 14.03 110.953 15.29H113.683C113.663 14.61 113.548 14.125 113.338 13.835C113.128 13.545 112.828 13.4 112.438 13.4Z" fill="white"/>
<rect x="2.5" y="2.5" width="145" height="25" stroke="url(#paint1_linear)" stroke-width="5"/>
<defs>
<linearGradient id="paint0_linear" x1="75" y1="5.96046e-07" x2="67" y2="164" gradientUnits="userSpaceOnUse">
<stop stop-color="#BD1313"/>
<stop offset="1" stop-color="#CE1D1D" stop-opacity="0"/>
</linearGradient>
<linearGradient id="paint1_linear" x1="70" y1="-4.99999" x2="95" y2="70.5" gradientUnits="userSpaceOnUse">
<stop stop-color="#DD9539"/>
<stop offset="0.742956" stop-color="#7C0000"/>
<stop offset="0.743056" stop-color="#DD9539" stop-opacity="0"/>
</linearGradient>
</defs>
</svg>
