<svg width="150" height="30" viewBox="0 0 150 30" fill="none" xmlns="http://www.w3.org/2000/svg">
<rect x="1" y="1" width="148" height="28" rx="7" fill="white"/>
<path d="M41.7744 8.77441L40.0693 9.71484L39.832 14.0742L44.3672 14.2148L44.4814 10.5586L42.8555 9.5918L48.0586 9.2666L46.0811 10.8838L46.4062 19.7256L48.2256 20.9297L41.9766 20.9648L44.1914 19.4883L44.332 15.3486L39.7617 15.2607L39.5684 18.873L40.8604 20.1738H36.5801L38.0918 18.9521L37.5645 9.83789L35.6572 8.68652L41.7744 8.77441ZM48.4541 16.5879C48.4541 15.9316 48.5566 15.3252 48.7617 14.7686C48.9727 14.2061 49.2627 13.7197 49.6318 13.3096C50.0068 12.8994 50.4492 12.5801 50.959 12.3516C51.4746 12.1172 52.0371 12 52.6465 12C53.2383 12 53.7803 12.1113 54.2725 12.334C54.7646 12.5508 55.1924 12.8584 55.5557 13.2568C55.9189 13.6553 56.209 14.1328 56.4258 14.6895C56.6426 15.2461 56.7715 15.8613 56.8125 16.5352C56.8535 17.2559 56.7773 17.9092 56.584 18.4951C56.3965 19.0752 56.1182 19.5703 55.749 19.9805C55.3799 20.3848 54.9375 20.6982 54.4219 20.9209C53.9121 21.1436 53.3584 21.2549 52.7607 21.2549C52.1865 21.2549 51.6387 21.1523 51.1172 20.9473C50.6016 20.7363 50.1445 20.4316 49.7461 20.0332C49.3535 19.6348 49.04 19.1484 48.8057 18.5742C48.5713 17.9941 48.4541 17.332 48.4541 16.5879ZM50.6162 16.7373C50.6162 17.2529 50.6895 17.7188 50.8359 18.1348C50.9824 18.5508 51.1787 18.9053 51.4248 19.1982C51.6709 19.4854 51.9551 19.708 52.2773 19.8662C52.5996 20.0244 52.9395 20.1035 53.2969 20.1035C53.6543 20.1035 53.9883 20.0273 54.2988 19.875C54.6094 19.7168 54.8789 19.4971 55.1074 19.2158C55.3359 18.9287 55.5146 18.5859 55.6436 18.1875C55.7725 17.7891 55.8369 17.3467 55.8369 16.8604C55.8369 16.3799 55.7725 15.9287 55.6436 15.5068C55.5146 15.0791 55.333 14.707 55.0986 14.3906C54.8701 14.0742 54.5977 13.8252 54.2812 13.6436C53.9648 13.4619 53.6191 13.3711 53.2441 13.3711C52.9102 13.3711 52.585 13.4473 52.2686 13.5996C51.958 13.752 51.6797 13.9746 51.4336 14.2676C51.1875 14.5547 50.9883 14.9062 50.8359 15.3223C50.6895 15.7383 50.6162 16.21 50.6162 16.7373ZM57.252 21.0879L58.4033 19.7959L59.001 13.8369L57.1465 12.501L60.1348 12.7031V13.5996C60.3574 13.3008 60.5889 13.0693 60.8291 12.9053C61.0752 12.7412 61.3008 12.6211 61.5059 12.5449C61.7461 12.457 61.9834 12.4072 62.2178 12.3955C62.6338 12.3955 63.0117 12.4805 63.3516 12.6504C63.6914 12.8203 63.9609 13.0547 64.1602 13.3535C64.4062 13.0605 64.6875 12.8291 65.0039 12.6592C65.3203 12.4834 65.6631 12.3955 66.0322 12.3955C66.3662 12.3955 66.6768 12.4717 66.9639 12.624C67.251 12.7764 67.4971 12.9902 67.7021 13.2656C67.9131 13.541 68.0771 13.8779 68.1943 14.2764C68.3174 14.6689 68.3789 15.1055 68.3789 15.5859C68.3789 15.9316 68.3555 16.292 68.3086 16.667C68.2676 17.042 68.209 17.4141 68.1328 17.7832C68.0625 18.1523 67.9746 18.5127 67.8691 18.8643C67.7637 19.21 67.6494 19.5322 67.5264 19.8311L68.7744 20.3848L64.415 21.2021L66.3398 19.6641C66.4336 19.0312 66.4922 18.4541 66.5156 17.9326C66.5449 17.4053 66.5596 16.957 66.5596 16.5879C66.5596 15.6445 66.4453 14.959 66.2168 14.5312C65.9941 14.1035 65.6748 13.8896 65.2588 13.8896C65.0068 13.8896 64.7549 13.9805 64.5029 14.1621C64.5381 14.3027 64.5557 14.4521 64.5557 14.6104C64.5557 14.9678 64.5264 15.3369 64.4678 15.7178C64.415 16.0986 64.3447 16.4736 64.2568 16.8428C64.1689 17.2119 64.0693 17.5693 63.958 17.915C63.8467 18.2607 63.7354 18.5742 63.624 18.8555L64.8633 19.8311H61.3213L62.5078 18.873C62.5781 18.3281 62.6279 17.7715 62.6572 17.2031C62.6865 16.6289 62.7012 16.0898 62.7012 15.5859C62.7012 14.9883 62.6309 14.5195 62.4902 14.1797C62.3555 13.8398 62.1094 13.6699 61.752 13.6699C61.5703 13.6699 61.4004 13.7051 61.2422 13.7754C61.0898 13.8457 60.9463 13.9395 60.8115 14.0566C60.6826 14.1738 60.5596 14.3086 60.4424 14.4609C60.3311 14.6133 60.2285 14.7715 60.1348 14.9355V19.7256L61.6113 20.7803L57.252 21.0879ZM71.7275 17.7744C71.8037 18.1025 71.9062 18.4248 72.0352 18.7412C72.1641 19.0518 72.3223 19.3301 72.5098 19.5762C72.6973 19.8223 72.9141 20.0215 73.1602 20.1738C73.4062 20.3262 73.6846 20.4023 73.9951 20.4023C74.4053 20.4023 74.7627 20.3174 75.0674 20.1475C75.3721 19.9775 75.6211 19.7637 75.8145 19.5059C76.0078 19.2422 76.1426 18.9551 76.2188 18.6445C76.2949 18.3281 76.3096 18.0264 76.2627 17.7393C76.4268 17.8037 76.5615 17.8887 76.667 17.9941C76.7783 18.0996 76.8633 18.2168 76.9219 18.3457C76.9863 18.4688 77.0303 18.5977 77.0537 18.7324C77.0771 18.8613 77.0889 18.9873 77.0889 19.1104C77.0889 19.3916 77.0068 19.6641 76.8428 19.9277C76.6787 20.1855 76.4473 20.417 76.1484 20.6221C75.8555 20.8213 75.5068 20.9824 75.1025 21.1055C74.6982 21.2285 74.2559 21.29 73.7754 21.29C73.1309 21.29 72.5537 21.1641 72.0439 20.9121C71.54 20.6602 71.1123 20.3203 70.7607 19.8926C70.4092 19.459 70.1396 18.9521 69.9521 18.3721C69.7646 17.792 69.6709 17.1738 69.6709 16.5176C69.6709 15.8496 69.7646 15.2344 69.9521 14.6719C70.1396 14.1035 70.415 13.6201 70.7783 13.2217C71.1475 12.8232 71.5986 12.5215 72.1318 12.3164C72.665 12.1113 73.2803 12.0293 73.9775 12.0703C74.458 12.1055 74.9004 12.2432 75.3047 12.4834C75.709 12.7236 76.0605 13.0342 76.3594 13.415C76.6641 13.79 76.9072 14.2207 77.0889 14.707C77.2764 15.1934 77.3906 15.7002 77.4316 16.2275L71.7275 17.7744ZM71.5605 16.3594C71.5605 16.4414 71.5605 16.5234 71.5605 16.6055C71.5605 16.6816 71.5664 16.7607 71.5781 16.8428L75.4365 15.4365C75.3076 15.0146 75.1611 14.6543 74.9971 14.3555C74.8389 14.0508 74.6719 13.8018 74.4961 13.6084C74.3203 13.415 74.1416 13.2744 73.96 13.1865C73.7842 13.0928 73.6143 13.0459 73.4502 13.0459C73.2041 13.0459 72.9873 13.0928 72.7998 13.1865C72.6123 13.2803 72.4482 13.4092 72.3076 13.5732C72.1729 13.7314 72.0557 13.9189 71.9561 14.1357C71.8623 14.3525 71.7861 14.584 71.7275 14.8301C71.6689 15.0762 71.625 15.3311 71.5957 15.5947C71.5723 15.8525 71.5605 16.1074 71.5605 16.3594ZM86.4756 17.2383V19.7783L88.6904 20.877H82.1514L84.3311 19.5762L84.9463 10.541L82.3184 8.94141C82.623 8.89453 82.9336 8.85645 83.25 8.82715C83.5723 8.79785 83.8887 8.77734 84.1992 8.76562C84.5156 8.74805 84.8203 8.73633 85.1133 8.73047C85.4121 8.72461 85.6904 8.72168 85.9482 8.72168C86.5342 8.72168 87.1172 8.74219 87.6973 8.7832C88.2773 8.82422 88.8311 8.90332 89.3584 9.02051C89.8916 9.13184 90.3838 9.28711 90.835 9.48633C91.292 9.68555 91.6875 9.94336 92.0215 10.2598C92.3555 10.5703 92.6162 10.9482 92.8037 11.3936C92.9971 11.8389 93.0938 12.3604 93.0938 12.958C93.0938 13.5029 93.0059 13.9863 92.8301 14.4082C92.6602 14.8301 92.4258 15.2021 92.127 15.5244C91.834 15.8408 91.4883 16.1074 91.0898 16.3242C90.6914 16.541 90.2695 16.7197 89.8242 16.8604C89.3789 16.9951 88.9219 17.0918 88.4531 17.1504C87.9844 17.209 87.5273 17.2383 87.082 17.2383H86.4756ZM86.4756 9.89062V16.3594C87.1611 16.3594 87.7412 16.292 88.2158 16.1572C88.6904 16.0225 89.0859 15.8525 89.4023 15.6475C89.7188 15.4365 89.9648 15.2051 90.1406 14.9531C90.3223 14.6953 90.457 14.4492 90.5449 14.2148C90.6328 13.9746 90.6855 13.7607 90.7031 13.5732C90.7266 13.3799 90.7383 13.2393 90.7383 13.1514C90.7383 13.0342 90.7266 12.873 90.7031 12.668C90.6855 12.457 90.6357 12.2314 90.5537 11.9912C90.4717 11.751 90.3486 11.5078 90.1846 11.2617C90.0205 11.0098 89.792 10.7842 89.499 10.585C89.2061 10.3799 88.8398 10.2129 88.4004 10.084C87.9668 9.95508 87.4395 9.89062 86.8184 9.89062H86.4756ZM101.443 15.5244C101.443 15.835 101.426 16.1689 101.391 16.5264C101.355 16.8838 101.303 17.2471 101.232 17.6162C101.168 17.9854 101.089 18.3486 100.995 18.7061C100.907 19.0576 100.811 19.3828 100.705 19.6816L102.577 21L99.2637 20.8594L99.4658 19.7783C99.1143 20.2178 98.707 20.5547 98.2441 20.7891C97.7871 21.0176 97.2568 21.1553 96.6533 21.2021C96.1611 21.2373 95.7305 21.2021 95.3613 21.0967C94.998 20.9971 94.6934 20.8418 94.4473 20.6309C94.207 20.4141 94.0283 20.1504 93.9111 19.8398C93.7939 19.5234 93.7354 19.1719 93.7354 18.7852C93.7354 18.4277 93.8232 18.082 93.999 17.748C94.1748 17.4082 94.4268 17.1094 94.7549 16.8516C95.0889 16.5938 95.4961 16.3887 95.9766 16.2363C96.457 16.0781 97.002 15.999 97.6113 15.999C97.8926 15.999 98.2148 16.0254 98.5781 16.0781C98.9473 16.1309 99.2959 16.2422 99.624 16.4121C99.5947 16.0547 99.5391 15.6914 99.457 15.3223C99.3809 14.9473 99.2666 14.6074 99.1143 14.3027C98.9619 13.998 98.7627 13.752 98.5166 13.5645C98.2764 13.3711 97.9746 13.2744 97.6113 13.2744C97.3008 13.2744 96.999 13.3389 96.7061 13.4678C96.4131 13.5967 96.1377 13.7812 95.8799 14.0215C95.6279 14.2617 95.3994 14.5547 95.1943 14.9004C94.9893 15.2461 94.8164 15.6357 94.6758 16.0693L93.9375 11.7627L95.0537 13.4766C95.3291 13.1367 95.6074 12.8672 95.8887 12.668C96.1699 12.4629 96.4482 12.3076 96.7236 12.2021C97.0049 12.0908 97.2744 12.0176 97.5322 11.9824C97.7959 11.9473 98.0479 11.9297 98.2881 11.9297C98.7393 11.9531 99.1553 12.0469 99.5361 12.2109C99.9229 12.3691 100.257 12.6006 100.538 12.9053C100.819 13.2041 101.039 13.5732 101.197 14.0127C101.361 14.4521 101.443 14.9561 101.443 15.5244ZM99.624 18.3369C99.6357 18.1729 99.6445 18.0146 99.6504 17.8623C99.6562 17.71 99.6592 17.5605 99.6592 17.4141V17.3086C99.4482 17.2266 99.2344 17.165 99.0176 17.124C98.8066 17.0771 98.6104 17.0449 98.4287 17.0273C98.2471 17.0039 98.0918 16.9922 97.9629 16.9922C97.8398 16.9863 97.7578 16.9834 97.7168 16.9834C97.3828 16.9951 97.0928 17.0566 96.8467 17.168C96.6006 17.2793 96.3955 17.4199 96.2314 17.5898C96.0732 17.7539 95.9531 17.9385 95.8711 18.1436C95.7949 18.3486 95.7568 18.5508 95.7568 18.75C95.7568 19.2012 95.8652 19.5439 96.082 19.7783C96.3047 20.0068 96.627 20.1211 97.0488 20.1211C97.3301 20.1211 97.5967 20.0713 97.8486 19.9717C98.1006 19.8721 98.335 19.7402 98.5518 19.5762C98.7744 19.4062 98.9736 19.2158 99.1494 19.0049C99.3311 18.7881 99.4893 18.5654 99.624 18.3369ZM112.324 11.9473L110.654 13.4062C110.719 13.8926 110.766 14.3848 110.795 14.8828C110.83 15.375 110.848 15.8672 110.848 16.3594C110.848 17.4961 110.789 18.5479 110.672 19.5146C110.561 20.4756 110.353 21.3047 110.048 22.002C109.749 22.6992 109.333 23.2441 108.8 23.6367C108.267 24.0293 107.581 24.2256 106.743 24.2256C106.585 24.2256 106.421 24.2021 106.251 24.1553C106.087 24.1143 105.926 24.0586 105.768 23.9883C105.615 23.918 105.469 23.8389 105.328 23.751C105.188 23.6631 105.062 23.5752 104.95 23.4873L103.922 24.6387L103.685 20.8242C103.989 21.3691 104.291 21.7939 104.59 22.0986C104.895 22.4092 105.176 22.6406 105.434 22.793C105.691 22.9512 105.923 23.0479 106.128 23.083C106.333 23.124 106.491 23.1445 106.603 23.1445C106.743 23.1445 106.887 23.1357 107.033 23.1182C107.186 23.1064 107.332 23.0684 107.473 23.0039C107.619 22.9395 107.76 22.8369 107.895 22.6963C108.035 22.5615 108.164 22.374 108.281 22.1338C108.404 21.8936 108.513 21.5889 108.606 21.2197C108.706 20.8564 108.788 20.4111 108.853 19.8838C108.712 20.0889 108.557 20.2822 108.387 20.4639C108.217 20.6396 108.026 20.7949 107.815 20.9297C107.61 21.0586 107.388 21.1611 107.147 21.2373C106.907 21.3193 106.646 21.3604 106.365 21.3604C105.914 21.3486 105.483 21.2461 105.073 21.0527C104.669 20.8594 104.312 20.584 104.001 20.2266C103.696 19.8633 103.453 19.4209 103.271 18.8994C103.09 18.3721 102.999 17.7715 102.999 17.0977C102.999 16.2773 103.096 15.5566 103.289 14.9355C103.482 14.3145 103.746 13.7959 104.08 13.3799C104.414 12.9639 104.804 12.6562 105.249 12.457C105.7 12.252 106.181 12.1582 106.69 12.1758C107.171 12.1992 107.59 12.3164 107.947 12.5273C108.305 12.7324 108.606 12.9873 108.853 13.292C108.841 13.1514 108.826 13.0049 108.809 12.8525C108.797 12.7002 108.782 12.542 108.765 12.3779L112.324 11.9473ZM109.011 16.9131C109.011 16.5674 109.005 16.2217 108.993 15.876C108.987 15.5244 108.976 15.1553 108.958 14.7686C108.864 14.5811 108.756 14.4023 108.633 14.2324C108.516 14.0566 108.384 13.9043 108.237 13.7754C108.097 13.6465 107.944 13.5439 107.78 13.4678C107.622 13.3916 107.452 13.3535 107.271 13.3535C106.866 13.3535 106.521 13.4531 106.233 13.6523C105.952 13.8516 105.718 14.127 105.53 14.4785C105.349 14.8301 105.214 15.2461 105.126 15.7266C105.044 16.207 105.003 16.7285 105.003 17.291C105.003 17.707 105.038 18.0967 105.108 18.46C105.179 18.8174 105.281 19.1279 105.416 19.3916C105.551 19.6553 105.721 19.8633 105.926 20.0156C106.131 20.168 106.368 20.2441 106.638 20.2441C106.655 20.2441 106.708 20.2412 106.796 20.2354C106.884 20.2236 106.992 20.1973 107.121 20.1562C107.256 20.1094 107.405 20.0449 107.569 19.9629C107.733 19.8809 107.9 19.7666 108.07 19.6201C108.24 19.4736 108.404 19.292 108.562 19.0752C108.721 18.8525 108.864 18.583 108.993 18.2666C109.005 18.0615 109.011 17.8477 109.011 17.625C109.011 17.3965 109.011 17.1592 109.011 16.9131ZM114.513 17.7744C114.589 18.1025 114.691 18.4248 114.82 18.7412C114.949 19.0518 115.107 19.3301 115.295 19.5762C115.482 19.8223 115.699 20.0215 115.945 20.1738C116.191 20.3262 116.47 20.4023 116.78 20.4023C117.19 20.4023 117.548 20.3174 117.853 20.1475C118.157 19.9775 118.406 19.7637 118.6 19.5059C118.793 19.2422 118.928 18.9551 119.004 18.6445C119.08 18.3281 119.095 18.0264 119.048 17.7393C119.212 17.8037 119.347 17.8887 119.452 17.9941C119.563 18.0996 119.648 18.2168 119.707 18.3457C119.771 18.4688 119.815 18.5977 119.839 18.7324C119.862 18.8613 119.874 18.9873 119.874 19.1104C119.874 19.3916 119.792 19.6641 119.628 19.9277C119.464 20.1855 119.232 20.417 118.934 20.6221C118.641 20.8213 118.292 20.9824 117.888 21.1055C117.483 21.2285 117.041 21.29 116.561 21.29C115.916 21.29 115.339 21.1641 114.829 20.9121C114.325 20.6602 113.897 20.3203 113.546 19.8926C113.194 19.459 112.925 18.9521 112.737 18.3721C112.55 17.792 112.456 17.1738 112.456 16.5176C112.456 15.8496 112.55 15.2344 112.737 14.6719C112.925 14.1035 113.2 13.6201 113.563 13.2217C113.933 12.8232 114.384 12.5215 114.917 12.3164C115.45 12.1113 116.065 12.0293 116.763 12.0703C117.243 12.1055 117.686 12.2432 118.09 12.4834C118.494 12.7236 118.846 13.0342 119.145 13.415C119.449 13.79 119.692 14.2207 119.874 14.707C120.062 15.1934 120.176 15.7002 120.217 16.2275L114.513 17.7744ZM114.346 16.3594C114.346 16.4414 114.346 16.5234 114.346 16.6055C114.346 16.6816 114.352 16.7607 114.363 16.8428L118.222 15.4365C118.093 15.0146 117.946 14.6543 117.782 14.3555C117.624 14.0508 117.457 13.8018 117.281 13.6084C117.105 13.415 116.927 13.2744 116.745 13.1865C116.569 13.0928 116.399 13.0459 116.235 13.0459C115.989 13.0459 115.772 13.0928 115.585 13.1865C115.397 13.2803 115.233 13.4092 115.093 13.5732C114.958 13.7314 114.841 13.9189 114.741 14.1357C114.647 14.3525 114.571 14.584 114.513 14.8301C114.454 15.0762 114.41 15.3311 114.381 15.5947C114.357 15.8525 114.346 16.1074 114.346 16.3594Z" fill="#C24320"/>
<rect x="1" y="1" width="148" height="28" rx="7" stroke="url(#paint0_linear)" stroke-width="2"/>
<defs>
<linearGradient id="paint0_linear" x1="70" y1="-4.99999" x2="95" y2="70.5" gradientUnits="userSpaceOnUse">
<stop stop-color="#D1662B"/>
<stop offset="0.742956" stop-color="#7C0000"/>
<stop offset="0.743056" stop-color="#DD9539" stop-opacity="0"/>
</linearGradient>
</defs>
</svg>
