<svg width="468" height="42" viewBox="0 0 468 42" fill="none" xmlns="http://www.w3.org/2000/svg">
<g clip-path="url(#clip0)">
<rect width="468" height="42" fill="#BD1313"/>
<g filter="url(#filter0_d)">
<path d="M108.641 8.71875L107.879 14.4414L106.756 10.2617L103.758 10.6035L104.158 20.3594L106.58 21.5996L98.7773 22.3418L101.619 20.2812L102.117 10.7012L99.0215 10.584L97.8203 14.1387L97.4395 8.88477L108.641 8.71875ZM108.396 21.8828L109.9 20.6621L110.594 9.7832L108.416 8.69922L111.873 8.12305L111.912 13.6211C112.133 13.3021 112.378 13.0417 112.645 12.8398C112.911 12.6315 113.172 12.4688 113.426 12.3516C113.686 12.2344 113.924 12.153 114.139 12.1074C114.36 12.0618 114.533 12.0391 114.656 12.0391C115.268 12.0391 115.786 12.1497 116.209 12.3711C116.632 12.5859 116.974 12.8854 117.234 13.2695C117.501 13.6536 117.693 14.1094 117.811 14.6367C117.934 15.1576 117.996 15.724 117.996 16.3359C117.996 16.6745 117.967 17.0358 117.908 17.4199C117.856 17.804 117.785 18.1914 117.693 18.582C117.602 18.9661 117.498 19.3405 117.381 19.7051C117.27 20.0632 117.156 20.3887 117.039 20.6816L118.973 21.7559L113.914 22.2832L116.053 20.3398C116.144 19.8581 116.209 19.4056 116.248 18.9824C116.294 18.5592 116.316 18.1654 116.316 17.8008C116.316 17.6185 116.303 17.3971 116.277 17.1367C116.258 16.8763 116.215 16.6061 116.15 16.3262C116.085 16.0397 115.997 15.7565 115.887 15.4766C115.776 15.1966 115.63 14.946 115.447 14.7246C115.271 14.5033 115.057 14.3242 114.803 14.1875C114.555 14.0508 114.259 13.9824 113.914 13.9824C113.576 13.9824 113.227 14.0573 112.869 14.207C112.518 14.3568 112.199 14.5944 111.912 14.9199L111.98 20.7988L113.279 21.8828H108.396ZM121.873 18.416C121.958 18.7806 122.072 19.1387 122.215 19.4902C122.358 19.8353 122.534 20.1445 122.742 20.418C122.951 20.6914 123.191 20.9128 123.465 21.082C123.738 21.2513 124.048 21.3359 124.393 21.3359C124.848 21.3359 125.245 21.2415 125.584 21.0527C125.923 20.8639 126.199 20.6263 126.414 20.3398C126.629 20.0469 126.779 19.7279 126.863 19.3828C126.948 19.0312 126.964 18.696 126.912 18.377C127.094 18.4486 127.244 18.543 127.361 18.6602C127.485 18.7773 127.579 18.9076 127.645 19.0508C127.716 19.1875 127.765 19.3307 127.791 19.4805C127.817 19.6237 127.83 19.7637 127.83 19.9004C127.83 20.2129 127.739 20.5156 127.557 20.8086C127.374 21.0951 127.117 21.3522 126.785 21.5801C126.46 21.8014 126.072 21.9805 125.623 22.1172C125.174 22.2539 124.682 22.3223 124.148 22.3223C123.432 22.3223 122.791 22.1823 122.225 21.9023C121.665 21.6224 121.189 21.2448 120.799 20.7695C120.408 20.2878 120.109 19.7246 119.9 19.0801C119.692 18.4355 119.588 17.7487 119.588 17.0195C119.588 16.2773 119.692 15.5938 119.9 14.9688C120.109 14.3372 120.415 13.8001 120.818 13.3574C121.229 12.9147 121.73 12.5794 122.322 12.3516C122.915 12.1237 123.598 12.0326 124.373 12.0781C124.907 12.1172 125.398 12.2702 125.848 12.5371C126.297 12.804 126.688 13.1491 127.02 13.5723C127.358 13.9889 127.628 14.4674 127.83 15.0078C128.038 15.5482 128.165 16.1113 128.211 16.6973L121.873 18.416ZM121.688 16.8438C121.688 16.9349 121.688 17.026 121.688 17.1172C121.688 17.2018 121.694 17.2897 121.707 17.3809L125.994 15.8184C125.851 15.3496 125.688 14.9492 125.506 14.6172C125.33 14.2786 125.145 14.002 124.949 13.7871C124.754 13.5723 124.555 13.416 124.354 13.3184C124.158 13.2142 123.969 13.1621 123.787 13.1621C123.514 13.1621 123.273 13.2142 123.064 13.3184C122.856 13.4225 122.674 13.5658 122.518 13.748C122.368 13.9238 122.238 14.1322 122.127 14.373C122.023 14.6139 121.938 14.8711 121.873 15.1445C121.808 15.418 121.759 15.7012 121.727 15.9941C121.701 16.2806 121.688 16.5638 121.688 16.8438ZM140.438 8.33789C141.102 8.33789 141.736 8.45508 142.342 8.68945C142.947 8.91732 143.452 9.2526 143.855 9.69531L146.238 7.80078L143.514 13.6406L143.279 10.7988C143.064 10.5384 142.837 10.3333 142.596 10.1836C142.355 10.0339 142.12 9.92318 141.893 9.85156C141.671 9.77344 141.469 9.72461 141.287 9.70508C141.111 9.68555 140.975 9.67578 140.877 9.67578C140.35 9.67578 139.858 9.80924 139.402 10.0762C138.953 10.3431 138.562 10.7272 138.23 11.2285C137.898 11.7233 137.635 12.3223 137.439 13.0254C137.251 13.7285 137.156 14.513 137.156 15.3789C137.156 16.2448 137.251 17.0358 137.439 17.752C137.635 18.4681 137.895 19.0833 138.221 19.5977C138.553 20.112 138.94 20.5124 139.383 20.7988C139.826 21.0788 140.298 21.2188 140.799 21.2188C141.307 21.2188 141.743 21.0951 142.107 20.8477C142.472 20.5938 142.771 20.2747 143.006 19.8906C143.24 19.5065 143.41 19.0866 143.514 18.6309C143.624 18.1751 143.68 17.7389 143.68 17.3223C143.68 17.2311 143.68 17.1465 143.68 17.0684C143.68 16.9837 143.673 16.8958 143.66 16.8047C144.083 17.0846 144.393 17.4036 144.588 17.7617C144.79 18.1133 144.891 18.4779 144.891 18.8555C144.891 19.207 144.803 19.5814 144.627 19.9785C144.458 20.3691 144.204 20.7337 143.865 21.0723C143.527 21.4043 143.11 21.681 142.615 21.9023C142.12 22.1172 141.548 22.2246 140.896 22.2246C140.369 22.2246 139.845 22.1693 139.324 22.0586C138.803 21.9479 138.305 21.7786 137.83 21.5508C137.355 21.3164 136.912 21.0202 136.502 20.6621C136.092 20.304 135.737 19.8776 135.438 19.3828C135.138 18.888 134.9 18.3184 134.725 17.6738C134.555 17.0293 134.471 16.3099 134.471 15.5156C134.471 14.7409 134.549 14.028 134.705 13.377C134.868 12.7194 135.089 12.127 135.369 11.5996C135.656 11.0658 135.988 10.597 136.365 10.1934C136.749 9.7832 137.16 9.44141 137.596 9.16797C138.038 8.89453 138.501 8.68945 138.982 8.55273C139.471 8.40951 139.956 8.33789 140.438 8.33789ZM145.232 21.8828L146.736 20.6621L147.43 9.7832L145.252 8.69922L148.709 8.12305L148.748 13.6211C148.969 13.3021 149.214 13.0417 149.48 12.8398C149.747 12.6315 150.008 12.4688 150.262 12.3516C150.522 12.2344 150.76 12.153 150.975 12.1074C151.196 12.0618 151.368 12.0391 151.492 12.0391C152.104 12.0391 152.622 12.1497 153.045 12.3711C153.468 12.5859 153.81 12.8854 154.07 13.2695C154.337 13.6536 154.529 14.1094 154.646 14.6367C154.77 15.1576 154.832 15.724 154.832 16.3359C154.832 16.6745 154.803 17.0358 154.744 17.4199C154.692 17.804 154.62 18.1914 154.529 18.582C154.438 18.9661 154.334 19.3405 154.217 19.7051C154.106 20.0632 153.992 20.3887 153.875 20.6816L155.809 21.7559L150.75 22.2832L152.889 20.3398C152.98 19.8581 153.045 19.4056 153.084 18.9824C153.13 18.5592 153.152 18.1654 153.152 17.8008C153.152 17.6185 153.139 17.3971 153.113 17.1367C153.094 16.8763 153.051 16.6061 152.986 16.3262C152.921 16.0397 152.833 15.7565 152.723 15.4766C152.612 15.1966 152.465 14.946 152.283 14.7246C152.107 14.5033 151.893 14.3242 151.639 14.1875C151.391 14.0508 151.095 13.9824 150.75 13.9824C150.411 13.9824 150.063 14.0573 149.705 14.207C149.354 14.3568 149.035 14.5944 148.748 14.9199L148.816 20.7988L150.115 21.8828H145.232ZM156.209 22.0977L157.742 20.8965L157.41 14.1582L155.604 12.9766L159.803 12.2637L159.051 20.0957L161.15 21.4043L156.209 22.0977ZM159.91 9.90039C159.91 10.0957 159.871 10.2812 159.793 10.457C159.715 10.6263 159.607 10.7793 159.471 10.916C159.334 11.0462 159.178 11.1504 159.002 11.2285C158.826 11.3001 158.641 11.3359 158.445 11.3359C158.237 11.3359 158.042 11.3001 157.859 11.2285C157.684 11.1504 157.531 11.0462 157.4 10.916C157.27 10.7793 157.166 10.6263 157.088 10.457C157.01 10.2812 156.971 10.0957 156.971 9.90039C156.971 9.69857 157.01 9.51302 157.088 9.34375C157.166 9.16797 157.27 9.01497 157.4 8.88477C157.531 8.75456 157.684 8.65365 157.859 8.58203C158.042 8.50391 158.237 8.46484 158.445 8.46484C158.641 8.46484 158.826 8.50391 159.002 8.58203C159.178 8.65365 159.334 8.75456 159.471 8.88477C159.607 9.01497 159.715 9.16797 159.793 9.34375C159.871 9.51302 159.91 9.69857 159.91 9.90039ZM170.389 15.9355C170.389 16.3001 170.372 16.6842 170.34 17.0879C170.307 17.4915 170.258 17.8952 170.193 18.2988C170.128 18.7025 170.047 19.0964 169.949 19.4805C169.858 19.8646 169.751 20.2161 169.627 20.5352L171.551 21.1602L166.463 22.1562L168.191 20.8574C168.328 20.3561 168.419 19.8743 168.465 19.4121C168.517 18.9499 168.543 18.5137 168.543 18.1035C168.543 17.8561 168.533 17.5762 168.514 17.2637C168.501 16.9447 168.465 16.6224 168.406 16.2969C168.354 15.9714 168.276 15.6523 168.172 15.3398C168.074 15.0273 167.944 14.7507 167.781 14.5098C167.618 14.2624 167.417 14.0671 167.176 13.9238C166.941 13.7741 166.658 13.6992 166.326 13.6992C165.942 13.6992 165.551 13.8262 165.154 14.0801C164.757 14.334 164.389 14.7083 164.051 15.2031V20.6035L165.662 21.7559L160.828 22.0977L162.107 20.6816L162.791 13.582L160.711 12.5566L164.051 12.2246V13.6992C164.24 13.4388 164.448 13.1947 164.676 12.9668C164.904 12.7389 165.145 12.5436 165.398 12.3809C165.652 12.2116 165.916 12.0814 166.189 11.9902C166.469 11.8926 166.756 11.8438 167.049 11.8438C167.615 11.8438 168.107 11.9479 168.523 12.1562C168.94 12.3646 169.285 12.6543 169.559 13.0254C169.839 13.39 170.047 13.8229 170.184 14.3242C170.32 14.819 170.389 15.3561 170.389 15.9355ZM174.295 18.416C174.38 18.7806 174.493 19.1387 174.637 19.4902C174.78 19.8353 174.956 20.1445 175.164 20.418C175.372 20.6914 175.613 20.9128 175.887 21.082C176.16 21.2513 176.469 21.3359 176.814 21.3359C177.27 21.3359 177.667 21.2415 178.006 21.0527C178.344 20.8639 178.621 20.6263 178.836 20.3398C179.051 20.0469 179.201 19.7279 179.285 19.3828C179.37 19.0312 179.386 18.696 179.334 18.377C179.516 18.4486 179.666 18.543 179.783 18.6602C179.907 18.7773 180.001 18.9076 180.066 19.0508C180.138 19.1875 180.187 19.3307 180.213 19.4805C180.239 19.6237 180.252 19.7637 180.252 19.9004C180.252 20.2129 180.161 20.5156 179.979 20.8086C179.796 21.0951 179.539 21.3522 179.207 21.5801C178.882 21.8014 178.494 21.9805 178.045 22.1172C177.596 22.2539 177.104 22.3223 176.57 22.3223C175.854 22.3223 175.213 22.1823 174.646 21.9023C174.087 21.6224 173.611 21.2448 173.221 20.7695C172.83 20.2878 172.531 19.7246 172.322 19.0801C172.114 18.4355 172.01 17.7487 172.01 17.0195C172.01 16.2773 172.114 15.5938 172.322 14.9688C172.531 14.3372 172.837 13.8001 173.24 13.3574C173.65 12.9147 174.152 12.5794 174.744 12.3516C175.337 12.1237 176.02 12.0326 176.795 12.0781C177.329 12.1172 177.82 12.2702 178.27 12.5371C178.719 12.804 179.109 13.1491 179.441 13.5723C179.78 13.9889 180.05 14.4674 180.252 15.0078C180.46 15.5482 180.587 16.1113 180.633 16.6973L174.295 18.416ZM174.109 16.8438C174.109 16.9349 174.109 17.026 174.109 17.1172C174.109 17.2018 174.116 17.2897 174.129 17.3809L178.416 15.8184C178.273 15.3496 178.11 14.9492 177.928 14.6172C177.752 14.2786 177.566 14.002 177.371 13.7871C177.176 13.5723 176.977 13.416 176.775 13.3184C176.58 13.2142 176.391 13.1621 176.209 13.1621C175.936 13.1621 175.695 13.2142 175.486 13.3184C175.278 13.4225 175.096 13.5658 174.939 13.748C174.79 13.9238 174.66 14.1322 174.549 14.373C174.445 14.6139 174.36 14.8711 174.295 15.1445C174.23 15.418 174.181 15.7012 174.148 15.9941C174.122 16.2806 174.109 16.5638 174.109 16.8438ZM185.438 12.0586C185.685 12.0586 185.936 12.0814 186.189 12.127C186.443 12.166 186.691 12.2279 186.932 12.3125C187.179 12.3906 187.41 12.4883 187.625 12.6055C187.846 12.7161 188.045 12.8398 188.221 12.9766L189.822 11.0039L189.1 15.877C189.021 15.5384 188.885 15.2064 188.689 14.8809C188.494 14.5488 188.25 14.2526 187.957 13.9922C187.671 13.7318 187.339 13.5234 186.961 13.3672C186.583 13.2044 186.17 13.123 185.721 13.123C185.473 13.123 185.236 13.1523 185.008 13.2109C184.78 13.263 184.578 13.3509 184.402 13.4746C184.233 13.5983 184.096 13.7546 183.992 13.9434C183.895 14.1322 183.846 14.3568 183.846 14.6172C183.846 14.9297 183.93 15.1836 184.1 15.3789C184.275 15.5742 184.503 15.7402 184.783 15.877C185.063 16.0072 185.382 16.1211 185.74 16.2188C186.098 16.3099 186.466 16.4076 186.844 16.5117C187.221 16.6159 187.589 16.7396 187.947 16.8828C188.305 17.0195 188.624 17.1986 188.904 17.4199C189.184 17.6413 189.409 17.918 189.578 18.25C189.754 18.5755 189.842 18.9792 189.842 19.4609C189.842 20.0013 189.734 20.4635 189.52 20.8477C189.311 21.2253 189.041 21.5378 188.709 21.7852C188.377 22.026 188.009 22.2018 187.605 22.3125C187.202 22.4232 186.808 22.4785 186.424 22.4785C186.111 22.4785 185.799 22.446 185.486 22.3809C185.174 22.3158 184.871 22.2246 184.578 22.1074C184.285 21.9902 184.005 21.8503 183.738 21.6875C183.478 21.5247 183.24 21.349 183.025 21.1602L181.541 23.1426L182 18.2988C182.208 18.7415 182.459 19.1549 182.752 19.5391C183.045 19.9232 183.37 20.2585 183.729 20.5449C184.087 20.8249 184.471 21.0462 184.881 21.209C185.291 21.3652 185.717 21.4434 186.16 21.4434C186.674 21.4434 187.085 21.3359 187.391 21.1211C187.703 20.8997 187.859 20.5872 187.859 20.1836C187.859 19.9232 187.771 19.7083 187.596 19.5391C187.426 19.3633 187.199 19.2103 186.912 19.0801C186.632 18.9499 186.313 18.8327 185.955 18.7285C185.597 18.6243 185.229 18.5104 184.852 18.3867C184.474 18.263 184.106 18.1198 183.748 17.957C183.39 17.7878 183.068 17.5794 182.781 17.332C182.501 17.0781 182.273 16.7721 182.098 16.4141C181.928 16.0495 181.844 15.61 181.844 15.0957C181.844 14.653 181.909 14.2689 182.039 13.9434C182.169 13.6178 182.339 13.3444 182.547 13.123C182.762 12.8952 182.999 12.7129 183.26 12.5762C183.527 12.4329 183.794 12.3255 184.061 12.2539C184.327 12.1758 184.581 12.1237 184.822 12.0977C185.063 12.0716 185.268 12.0586 185.438 12.0586ZM193.201 18.416C193.286 18.7806 193.4 19.1387 193.543 19.4902C193.686 19.8353 193.862 20.1445 194.07 20.418C194.279 20.6914 194.52 20.9128 194.793 21.082C195.066 21.2513 195.376 21.3359 195.721 21.3359C196.176 21.3359 196.574 21.2415 196.912 21.0527C197.251 20.8639 197.527 20.6263 197.742 20.3398C197.957 20.0469 198.107 19.7279 198.191 19.3828C198.276 19.0312 198.292 18.696 198.24 18.377C198.423 18.4486 198.572 18.543 198.689 18.6602C198.813 18.7773 198.908 18.9076 198.973 19.0508C199.044 19.1875 199.093 19.3307 199.119 19.4805C199.145 19.6237 199.158 19.7637 199.158 19.9004C199.158 20.2129 199.067 20.5156 198.885 20.8086C198.702 21.0951 198.445 21.3522 198.113 21.5801C197.788 21.8014 197.4 21.9805 196.951 22.1172C196.502 22.2539 196.01 22.3223 195.477 22.3223C194.76 22.3223 194.119 22.1823 193.553 21.9023C192.993 21.6224 192.518 21.2448 192.127 20.7695C191.736 20.2878 191.437 19.7246 191.229 19.0801C191.02 18.4355 190.916 17.7487 190.916 17.0195C190.916 16.2773 191.02 15.5938 191.229 14.9688C191.437 14.3372 191.743 13.8001 192.146 13.3574C192.557 12.9147 193.058 12.5794 193.65 12.3516C194.243 12.1237 194.926 12.0326 195.701 12.0781C196.235 12.1172 196.727 12.2702 197.176 12.5371C197.625 12.804 198.016 13.1491 198.348 13.5723C198.686 13.9889 198.956 14.4674 199.158 15.0078C199.367 15.5482 199.493 16.1113 199.539 16.6973L193.201 18.416ZM193.016 16.8438C193.016 16.9349 193.016 17.026 193.016 17.1172C193.016 17.2018 193.022 17.2897 193.035 17.3809L197.322 15.8184C197.179 15.3496 197.016 14.9492 196.834 14.6172C196.658 14.2786 196.473 14.002 196.277 13.7871C196.082 13.5723 195.883 13.416 195.682 13.3184C195.486 13.2142 195.298 13.1621 195.115 13.1621C194.842 13.1621 194.601 13.2142 194.393 13.3184C194.184 13.4225 194.002 13.5658 193.846 13.748C193.696 13.9238 193.566 14.1322 193.455 14.373C193.351 14.6139 193.266 14.8711 193.201 15.1445C193.136 15.418 193.087 15.7012 193.055 15.9941C193.029 16.2806 193.016 16.5638 193.016 16.8438ZM208.006 20.6035L214.168 19.998L216.16 16.7754L215.428 22.1758L205.721 21.7168L212.264 10.623L207.488 11.7363L206.307 14.0996L206.023 8.24023L207.068 9.48047L216.16 9.04102L208.006 20.6035ZM235.818 20.7793L237.977 21.5801L234.441 22.2637L234.48 20.3594C234.324 20.6263 234.145 20.8835 233.943 21.1309C233.742 21.3717 233.514 21.5866 233.26 21.7754C233.012 21.9642 232.736 22.1139 232.43 22.2246C232.124 22.3418 231.792 22.4004 231.434 22.4004C230.926 22.3874 230.444 22.2734 229.988 22.0586C229.539 21.8438 229.142 21.5378 228.797 21.1406C228.458 20.737 228.188 20.2454 227.986 19.666C227.791 19.0801 227.693 18.4128 227.693 17.6641C227.693 16.7526 227.801 15.9551 228.016 15.2715C228.23 14.5879 228.523 14.0182 228.895 13.5625C229.266 13.1068 229.699 12.765 230.193 12.5371C230.695 12.3092 231.229 12.1953 231.795 12.1953C232.368 12.1953 232.898 12.319 233.387 12.5664C233.882 12.8073 234.285 13.1328 234.598 13.543L234.637 11.2383L232.254 10.3398L237.078 9.48047L235.818 20.7793ZM231.736 21.1602C231.756 21.1602 231.821 21.1536 231.932 21.1406C232.042 21.1276 232.179 21.0951 232.342 21.043C232.505 20.9844 232.684 20.8997 232.879 20.7891C233.081 20.6784 233.279 20.5254 233.475 20.3301C233.676 20.1283 233.868 19.8776 234.051 19.5781C234.233 19.2786 234.389 18.9141 234.52 18.4844L234.578 15.3008C234.48 15.0664 234.357 14.8418 234.207 14.627C234.064 14.4121 233.901 14.2233 233.719 14.0605C233.543 13.8913 233.344 13.7578 233.123 13.6602C232.908 13.556 232.68 13.5039 232.439 13.5039C231.99 13.5039 231.606 13.6146 231.287 13.8359C230.975 14.0573 230.714 14.3633 230.506 14.7539C230.304 15.1445 230.154 15.6068 230.057 16.1406C229.965 16.6745 229.92 17.2539 229.92 17.8789C229.92 18.3411 229.959 18.7741 230.037 19.1777C230.115 19.5749 230.229 19.9199 230.379 20.2129C230.529 20.5059 230.717 20.737 230.945 20.9062C231.173 21.0755 231.437 21.1602 231.736 21.1602ZM238.104 22.0977L239.637 20.8965L239.305 14.1582L237.498 12.9766L241.697 12.2637L240.945 20.0957L243.045 21.4043L238.104 22.0977ZM241.805 9.90039C241.805 10.0957 241.766 10.2812 241.688 10.457C241.609 10.6263 241.502 10.7793 241.365 10.916C241.229 11.0462 241.072 11.1504 240.896 11.2285C240.721 11.3001 240.535 11.3359 240.34 11.3359C240.132 11.3359 239.936 11.3001 239.754 11.2285C239.578 11.1504 239.425 11.0462 239.295 10.916C239.165 10.7793 239.061 10.6263 238.982 10.457C238.904 10.2812 238.865 10.0957 238.865 9.90039C238.865 9.69857 238.904 9.51302 238.982 9.34375C239.061 9.16797 239.165 9.01497 239.295 8.88477C239.425 8.75456 239.578 8.65365 239.754 8.58203C239.936 8.50391 240.132 8.46484 240.34 8.46484C240.535 8.46484 240.721 8.50391 240.896 8.58203C241.072 8.65365 241.229 8.75456 241.365 8.88477C241.502 9.01497 241.609 9.16797 241.688 9.34375C241.766 9.51302 241.805 9.69857 241.805 9.90039ZM251.863 15.916C251.863 16.2611 251.844 16.6322 251.805 17.0293C251.766 17.4264 251.707 17.8301 251.629 18.2402C251.557 18.6504 251.469 19.054 251.365 19.4512C251.268 19.8418 251.16 20.2031 251.043 20.5352L253.123 22L249.441 21.8438L249.666 20.6426C249.275 21.1309 248.823 21.5052 248.309 21.7656C247.801 22.0195 247.212 22.1725 246.541 22.2246C245.994 22.2637 245.516 22.2246 245.105 22.1074C244.702 21.9967 244.363 21.8242 244.09 21.5898C243.823 21.349 243.624 21.056 243.494 20.7109C243.364 20.3594 243.299 19.9688 243.299 19.5391C243.299 19.1419 243.396 18.7578 243.592 18.3867C243.787 18.0091 244.067 17.6771 244.432 17.3906C244.803 17.1042 245.255 16.8763 245.789 16.707C246.323 16.5312 246.928 16.4434 247.605 16.4434C247.918 16.4434 248.276 16.4727 248.68 16.5312C249.09 16.5898 249.477 16.7135 249.842 16.9023C249.809 16.5052 249.747 16.1016 249.656 15.6914C249.572 15.2747 249.445 14.8971 249.275 14.5586C249.106 14.2201 248.885 13.9466 248.611 13.7383C248.344 13.5234 248.009 13.416 247.605 13.416C247.26 13.416 246.925 13.4876 246.6 13.6309C246.274 13.7741 245.968 13.9792 245.682 14.2461C245.402 14.513 245.148 14.8385 244.92 15.2227C244.692 15.6068 244.5 16.0397 244.344 16.5215L243.523 11.7363L244.764 13.6406C245.07 13.263 245.379 12.9635 245.691 12.7422C246.004 12.5143 246.313 12.3418 246.619 12.2246C246.932 12.1009 247.231 12.0195 247.518 11.9805C247.811 11.9414 248.09 11.9219 248.357 11.9219C248.859 11.9479 249.321 12.0521 249.744 12.2344C250.174 12.4102 250.545 12.6673 250.857 13.0059C251.17 13.3379 251.414 13.748 251.59 14.2363C251.772 14.7246 251.863 15.2845 251.863 15.916ZM249.842 19.041C249.855 18.8587 249.865 18.6829 249.871 18.5137C249.878 18.3444 249.881 18.1784 249.881 18.0156V17.8984C249.646 17.8073 249.409 17.7389 249.168 17.6934C248.934 17.6413 248.715 17.6055 248.514 17.5859C248.312 17.5599 248.139 17.5469 247.996 17.5469C247.859 17.5404 247.768 17.5371 247.723 17.5371C247.352 17.5501 247.029 17.6185 246.756 17.7422C246.482 17.8659 246.255 18.0221 246.072 18.2109C245.896 18.3932 245.763 18.5983 245.672 18.8262C245.587 19.054 245.545 19.2786 245.545 19.5C245.545 20.0013 245.665 20.3822 245.906 20.6426C246.154 20.8965 246.512 21.0234 246.98 21.0234C247.293 21.0234 247.589 20.9681 247.869 20.8574C248.149 20.7467 248.41 20.6003 248.65 20.418C248.898 20.2292 249.119 20.0176 249.314 19.7832C249.516 19.5423 249.692 19.2949 249.842 19.041ZM258.172 12.2441C258.719 12.2441 259.214 12.3646 259.656 12.6055C260.105 12.8398 260.467 13.1589 260.74 13.5625L262.713 11.5605L261.092 16.8438C261.033 16.2969 260.942 15.8346 260.818 15.457C260.695 15.0729 260.551 14.7572 260.389 14.5098C260.232 14.2559 260.066 14.0605 259.891 13.9238C259.721 13.7871 259.562 13.6862 259.412 13.6211C259.269 13.556 259.142 13.5169 259.031 13.5039C258.927 13.4909 258.862 13.4844 258.836 13.4844C258.367 13.4844 257.944 13.5755 257.566 13.7578C257.189 13.9401 256.863 14.207 256.59 14.5586C256.323 14.9102 256.118 15.3431 255.975 15.8574C255.831 16.3652 255.76 16.9447 255.76 17.5957C255.76 18.2207 255.835 18.7741 255.984 19.2559C256.134 19.7311 256.333 20.1315 256.58 20.457C256.827 20.7826 257.111 21.0299 257.43 21.1992C257.749 21.362 258.077 21.4434 258.416 21.4434C258.813 21.4434 259.181 21.3555 259.52 21.1797C259.858 20.9974 260.148 20.7598 260.389 20.4668C260.63 20.1738 260.809 19.8385 260.926 19.4609C261.049 19.0768 261.092 18.6829 261.053 18.2793C261.131 18.3509 261.212 18.4388 261.297 18.543C261.388 18.6471 261.469 18.7643 261.541 18.8945C261.619 19.0182 261.681 19.1549 261.727 19.3047C261.772 19.4479 261.795 19.5944 261.795 19.7441C261.795 20.1868 261.688 20.5872 261.473 20.9453C261.264 21.2969 260.994 21.5964 260.662 21.8438C260.33 22.0911 259.956 22.2799 259.539 22.4102C259.122 22.5469 258.709 22.6152 258.299 22.6152C258.123 22.6152 257.882 22.5957 257.576 22.5566C257.277 22.5176 256.948 22.4362 256.59 22.3125C256.238 22.1953 255.88 22.0228 255.516 21.7949C255.151 21.5671 254.819 21.2643 254.52 20.8867C254.227 20.5091 253.986 20.0436 253.797 19.4902C253.608 18.9368 253.514 18.2728 253.514 17.498C253.514 16.8079 253.592 16.1992 253.748 15.6719C253.911 15.138 254.122 14.6758 254.383 14.2852C254.65 13.8945 254.949 13.569 255.281 13.3086C255.613 13.0482 255.952 12.8398 256.297 12.6836C256.642 12.5273 256.977 12.4167 257.303 12.3516C257.635 12.2799 257.924 12.2441 258.172 12.2441Z" fill="white"/>
</g>
<g filter="url(#filter1_d)">
<path d="M193.984 21.0936L196.864 30.6858L195.526 30.63L194.57 27.3374L191.453 27.2075L190.213 30.4087L189.122 30.3632L192.802 21.0443L193.984 21.0936ZM193.217 22.649L191.788 26.3367L194.308 26.4417L193.217 22.649ZM203.91 24.3566C204.239 24.3703 204.566 24.4403 204.891 24.5666C205.224 24.6846 205.546 24.8628 205.857 25.1013L205.241 25.8303C205.007 25.6211 204.775 25.4683 204.545 25.3719C204.315 25.2669 204.092 25.2099 203.875 25.2009C203.529 25.1865 203.213 25.2774 202.927 25.4737C202.641 25.6699 202.408 25.9552 202.228 26.3293C202.056 26.7038 201.96 27.1465 201.938 27.6574C201.904 28.4714 202.06 29.1024 202.406 29.5505C202.76 29.999 203.219 30.2349 203.782 30.2584C204.033 30.2689 204.277 30.24 204.514 30.1718C204.76 30.104 205.015 30.0019 205.281 29.8655L205.603 30.5685C205.248 30.7705 204.908 30.9168 204.583 31.0074C204.258 31.1066 203.896 31.1479 203.498 31.1313C202.944 31.1083 202.456 30.9491 202.035 30.654C201.622 30.3506 201.301 29.9339 201.072 29.4038C200.851 28.8742 200.755 28.2587 200.784 27.5573C200.813 26.8819 200.971 26.303 201.26 25.8206C201.558 25.3299 201.938 24.9597 202.399 24.71C202.87 24.4521 203.374 24.3343 203.91 24.3566ZM209.359 31.3755C208.726 31.3492 208.2 31.1711 207.78 30.8414C207.369 30.5033 207.066 30.0743 206.871 29.5544C206.685 29.0349 206.603 28.485 206.628 27.9048C206.652 27.3247 206.787 26.7795 207.034 26.2693C207.29 25.7509 207.645 25.3363 208.101 25.0257C208.556 24.715 209.095 24.5727 209.719 24.5987C210.36 24.6254 210.886 24.8034 211.297 25.1328C211.717 25.4626 212.02 25.8872 212.207 26.4068C212.402 26.9267 212.487 27.4811 212.463 28.0699C212.438 28.6587 212.302 29.2125 212.055 29.7314C211.809 30.2415 211.457 30.6519 211.002 30.9626C210.547 31.2646 209.999 31.4022 209.359 31.3755ZM209.406 30.5578C209.743 30.5718 210.028 30.5056 210.26 30.3592C210.5 30.2044 210.695 30 210.845 29.746C211.003 29.4923 211.118 29.2196 211.191 28.9277C211.264 28.6271 211.307 28.3383 211.318 28.0612C211.33 27.7755 211.312 27.4841 211.264 27.1872C211.224 26.882 211.145 26.6011 211.025 26.3446C210.906 26.0794 210.733 25.864 210.506 25.6984C210.288 25.5245 210.01 25.4305 209.672 25.4164C209.334 25.4023 209.045 25.4727 208.804 25.6275C208.573 25.774 208.382 25.9742 208.233 26.2282C208.083 26.4822 207.972 26.7595 207.899 27.06C207.826 27.3519 207.784 27.6364 207.772 27.9135C207.761 28.1819 207.779 28.4689 207.827 28.7745C207.876 29.0715 207.96 29.3525 208.079 29.6177C208.206 29.8833 208.379 30.103 208.598 30.2769C208.816 30.4508 209.085 30.5444 209.406 30.5578ZM216.643 24.9002C216.937 24.9124 217.23 24.9723 217.52 25.0798C217.811 25.1874 218.06 25.3452 218.268 25.5534C218.264 25.4318 218.261 25.3145 218.257 25.2016C218.262 25.0804 218.267 24.9635 218.271 24.8509L218.372 22.435L218.222 21.6611L219.469 21.713L219.134 29.7531C219.123 30.0215 219.14 30.3345 219.186 30.692C219.24 31.05 219.332 31.353 219.46 31.6013L218.311 31.6965C218.257 31.5468 218.211 31.3974 218.174 31.2484C218.137 31.0994 218.113 30.9509 218.101 30.803C217.864 31.088 217.573 31.3058 217.228 31.4562C216.884 31.6067 216.525 31.6741 216.153 31.6586C215.703 31.6399 215.313 31.5282 214.983 31.3236C214.653 31.1191 214.382 30.8519 214.171 30.5221C213.968 30.184 213.818 29.8178 213.722 29.4235C213.635 29.0208 213.599 28.616 213.616 28.209C213.641 27.6202 213.768 27.0704 213.997 26.5595C214.236 26.0403 214.574 25.6293 215.012 25.3266C215.45 25.0153 215.993 24.8731 216.643 24.9002ZM216.632 25.7845C216.182 25.7657 215.821 25.8765 215.551 26.1168C215.281 26.3571 215.086 26.6655 214.966 27.0422C214.846 27.4189 214.779 27.7977 214.763 28.1787C214.746 28.5684 214.787 28.9561 214.883 29.3418C214.989 29.7278 215.17 30.052 215.428 30.3143C215.695 30.5683 216.058 30.7049 216.517 30.724C216.82 30.7366 217.101 30.6616 217.359 30.4988C217.627 30.3278 217.86 30.138 218.06 29.9295L218.151 27.7474C218.165 27.401 218.122 27.0826 218.021 26.7922C217.929 26.5021 217.77 26.2656 217.543 26.0827C217.317 25.8997 217.013 25.8003 216.632 25.7845ZM223.925 25.1906C224.704 25.223 225.283 25.4814 225.662 25.9656C226.05 26.4415 226.228 27.0561 226.197 27.8094C226.192 27.9306 226.178 28.0558 226.155 28.185C226.142 28.3059 226.123 28.4352 226.1 28.573L221.996 28.402C221.961 29.2247 222.117 29.8687 222.462 30.3341C222.807 30.7995 223.282 31.0449 223.888 31.0701C224.382 31.0907 224.934 30.9576 225.544 30.6707L225.92 31.3369C225.607 31.5668 225.257 31.7344 224.871 31.8397C224.485 31.9451 224.097 31.9896 223.708 31.9734C223.032 31.9453 222.476 31.7616 222.039 31.4225C221.611 31.0837 221.299 30.6543 221.104 30.1344C220.909 29.6145 220.823 29.0774 220.846 28.5233C220.864 28.0903 220.942 27.6729 221.08 27.2709C221.218 26.869 221.415 26.5086 221.672 26.1896C221.937 25.8624 222.255 25.6111 222.627 25.4357C222.999 25.2517 223.431 25.17 223.925 25.1906ZM223.787 26.0045C223.493 25.9923 223.229 26.0637 222.997 26.2188C222.765 26.374 222.575 26.5786 222.425 26.8326C222.276 27.0779 222.17 27.3337 222.107 27.6L225.069 27.7234C225.108 27.1872 225.013 26.7712 224.782 26.4754C224.552 26.1795 224.22 26.0226 223.787 26.0045ZM233.297 25.5941C233.592 25.6064 233.884 25.6662 234.175 25.7738C234.465 25.8813 234.714 26.0391 234.923 26.2473C234.919 26.1257 234.915 26.0085 234.911 25.8955C234.916 25.7743 234.921 25.6574 234.926 25.5448L235.026 23.1289L234.877 22.355L236.123 22.407L235.788 30.447C235.777 30.7154 235.795 31.0284 235.84 31.386C235.895 31.7439 235.986 32.047 236.115 32.2952L234.966 32.3904C234.911 32.2407 234.866 32.0913 234.828 31.9423C234.791 31.7933 234.767 31.6448 234.756 31.4969C234.518 31.782 234.227 31.9997 233.883 32.1501C233.538 32.3006 233.18 32.3681 232.808 32.3526C232.357 32.3338 231.967 32.2221 231.637 32.0176C231.308 31.813 231.037 31.5458 230.825 31.216C230.622 30.878 230.473 30.5118 230.376 30.1174C230.289 29.7148 230.254 29.3099 230.271 28.903C230.295 28.3141 230.422 27.7643 230.652 27.2534C230.89 26.7342 231.229 26.3233 231.666 26.0205C232.104 25.7092 232.648 25.567 233.297 25.5941ZM233.286 26.4784C232.836 26.4596 232.476 26.5704 232.206 26.8107C231.935 27.051 231.74 27.3595 231.621 27.7361C231.501 28.1128 231.433 28.4917 231.417 28.8727C231.401 29.2623 231.441 29.65 231.538 30.0357C231.643 30.4217 231.825 30.7459 232.083 31.0082C232.35 31.2622 232.713 31.3988 233.172 31.4179C233.475 31.4305 233.756 31.3555 234.014 31.1928C234.281 31.0217 234.515 30.832 234.714 30.6234L234.805 28.4413C234.82 28.095 234.776 27.7766 234.676 27.4861C234.584 27.196 234.424 26.9595 234.198 26.7766C233.971 26.5937 233.667 26.4943 233.286 26.4784ZM240.58 25.8845C241.359 25.917 241.938 26.1753 242.317 26.6595C242.705 27.1354 242.883 27.75 242.852 28.5033C242.846 28.6246 242.833 28.7498 242.81 28.8789C242.796 28.9998 242.778 29.1292 242.755 29.267L238.65 29.096C238.616 29.9186 238.771 30.5626 239.116 31.028C239.461 31.4935 239.937 31.7388 240.543 31.7641C241.036 31.7846 241.588 31.6515 242.199 31.3647L242.574 32.0309C242.261 32.2607 241.912 32.4283 241.526 32.5336C241.14 32.639 240.752 32.6836 240.362 32.6673C239.687 32.6392 239.13 32.4555 238.693 32.1164C238.265 31.7776 237.953 31.3482 237.758 30.8283C237.563 30.3084 237.477 29.7714 237.5 29.2172C237.518 28.7842 237.596 28.3668 237.734 27.9649C237.873 27.5629 238.07 27.2025 238.326 26.8835C238.591 26.5563 238.91 26.305 239.281 26.1297C239.653 25.9457 240.086 25.8639 240.58 25.8845ZM240.442 26.6985C240.147 26.6862 239.884 26.7576 239.652 26.9128C239.42 27.0679 239.229 27.2725 239.08 27.5265C238.931 27.7718 238.825 28.0276 238.762 28.2939L241.723 28.4173C241.763 27.8812 241.667 27.4652 241.437 27.1693C241.206 26.8734 240.875 26.7165 240.442 26.6985ZM245.294 26.146C245.403 26.4454 245.472 26.7476 245.503 27.0525C245.746 26.8371 246.041 26.6325 246.387 26.4388C246.734 26.245 247.08 26.1553 247.426 26.1698C247.842 26.1871 248.194 26.2885 248.481 26.4739C248.768 26.6507 248.995 26.9334 249.161 27.322C249.432 27.073 249.749 26.8434 250.113 26.633C250.478 26.414 250.847 26.3123 251.219 26.3278C251.938 26.3578 252.435 26.5953 252.712 27.0406C252.997 27.4861 253.125 28.0423 253.098 28.7091L252.918 33.0213L251.84 32.9764L252.005 29.0148C252.016 28.7551 252.005 28.4944 251.973 28.2328C251.949 27.9716 251.862 27.7512 251.714 27.5715C251.574 27.3922 251.335 27.2955 250.997 27.2814C250.694 27.2688 250.391 27.3559 250.089 27.5428C249.786 27.721 249.531 27.9056 249.324 28.0964L249.125 32.8633L248.047 32.8184L248.212 28.8568C248.223 28.5884 248.213 28.3277 248.18 28.0748C248.156 27.8136 248.07 27.5931 247.921 27.4134C247.781 27.2341 247.542 27.1374 247.205 27.1234C247.014 27.1154 246.817 27.1549 246.614 27.2419C246.411 27.3202 246.216 27.4248 246.029 27.5558C245.841 27.6781 245.676 27.797 245.532 27.9124L245.333 32.7053L244.254 32.6604L244.45 27.9714C244.461 27.703 244.439 27.4071 244.383 27.0839C244.336 26.7523 244.244 26.4665 244.106 26.2266L245.294 26.146ZM257.419 33.378C256.787 33.3517 256.261 33.1736 255.841 32.8439C255.43 32.5058 255.127 32.0768 254.932 31.5569C254.745 31.0374 254.664 30.4875 254.688 29.9073C254.713 29.3272 254.848 28.782 255.095 28.2718C255.351 27.7534 255.706 27.3388 256.162 27.0282C256.617 26.7175 257.156 26.5752 257.78 26.6012C258.421 26.6279 258.947 26.8059 259.358 27.1353C259.778 27.4651 260.081 27.8897 260.268 28.4093C260.463 28.9292 260.548 29.4836 260.524 30.0724C260.499 30.6612 260.363 31.215 260.116 31.7339C259.869 32.244 259.518 32.6544 259.063 32.9651C258.608 33.2671 258.06 33.4047 257.419 33.378ZM257.466 32.5603C257.804 32.5744 258.089 32.5081 258.32 32.3617C258.561 32.2069 258.756 32.0025 258.905 31.7485C259.064 31.4948 259.179 31.2221 259.252 30.9302C259.325 30.6296 259.367 30.3408 259.379 30.0637C259.391 29.778 259.373 29.4866 259.324 29.1897C259.285 28.8845 259.206 28.6036 259.086 28.3471C258.967 28.0819 258.794 27.8665 258.567 27.7009C258.348 27.527 258.07 27.433 257.733 27.4189C257.395 27.4048 257.106 27.4752 256.865 27.63C256.634 27.7765 256.443 27.9767 256.294 28.2307C256.144 28.4847 256.033 28.762 255.96 29.0625C255.887 29.3544 255.845 29.6389 255.833 29.916C255.822 30.1844 255.84 30.4714 255.888 30.777C255.937 31.074 256.02 31.355 256.139 31.6202C256.267 31.8858 256.44 32.1055 256.658 32.2794C256.877 32.4533 257.146 32.5469 257.466 32.5603ZM262.938 26.8681C262.992 27.0178 263.038 27.1715 263.075 27.3292C263.111 27.4869 263.135 27.644 263.146 27.8006C263.417 27.5516 263.733 27.3393 264.096 27.1636C264.46 26.9792 264.828 26.8948 265.2 26.9103C265.919 26.9403 266.416 27.1779 266.693 27.6231C266.978 28.0687 267.106 28.6248 267.078 29.2916L266.899 33.6039L265.834 33.5595L265.999 29.5979C266.01 29.3295 265.999 29.0645 265.967 28.8029C265.943 28.5417 265.857 28.3256 265.708 28.1545C265.568 27.9752 265.324 27.8783 264.978 27.8639C264.658 27.8506 264.333 27.9281 264.005 28.0966C263.687 28.2568 263.41 28.4405 263.176 28.6476L262.976 33.4404L261.911 33.396L262.102 28.824C262.109 28.6508 262.104 28.4511 262.087 28.2249C262.071 27.99 262.037 27.7631 261.986 27.5441C261.935 27.3164 261.856 27.1266 261.749 26.9747L262.938 26.8681ZM271.42 27.1695C271.714 27.1818 272.003 27.2328 272.285 27.3226C272.577 27.4042 272.841 27.5279 273.076 27.6939L272.665 28.5095C272.481 28.3457 272.274 28.22 272.043 28.1323C271.813 28.0446 271.585 27.9961 271.36 27.9867C271.039 27.9733 270.755 28.0352 270.506 28.1723C270.266 28.3098 270.14 28.5257 270.128 28.8201C270.115 29.1405 270.209 29.383 270.41 29.5475C270.62 29.7124 270.869 29.8702 271.158 30.0211C271.438 30.1628 271.718 30.322 271.997 30.4984C272.285 30.6665 272.523 30.8803 272.712 31.1397C272.901 31.3905 272.987 31.7237 272.969 32.1393C272.951 32.5723 272.828 32.9271 272.6 33.2038C272.38 33.4723 272.095 33.6642 271.743 33.7797C271.4 33.8955 271.029 33.9451 270.631 33.9285C270.284 33.9141 269.94 33.852 269.598 33.7423C269.255 33.6326 268.94 33.4851 268.653 33.2996L269.141 32.5263C269.342 32.6908 269.571 32.8261 269.827 32.9322C270.082 33.0382 270.332 33.0963 270.574 33.1064C270.903 33.1201 271.192 33.0541 271.441 32.9083C271.699 32.7629 271.834 32.5344 271.847 32.2226C271.856 32.0062 271.794 31.8258 271.661 31.6814C271.538 31.5288 271.374 31.3919 271.171 31.2707C270.968 31.1495 270.756 31.0322 270.535 30.9189C270.281 30.7782 270.031 30.629 269.786 30.4713C269.55 30.3054 269.359 30.1022 269.213 29.8619C269.067 29.6217 269.001 29.3197 269.016 28.956C269.034 28.5403 269.156 28.1985 269.384 27.9304C269.621 27.6627 269.92 27.467 270.281 27.3432C270.642 27.2108 271.022 27.1529 271.42 27.1695ZM276.461 25.6881C276.388 25.9799 276.319 26.285 276.254 26.6032C276.197 26.9131 276.154 27.2193 276.124 27.5216L277.813 27.592L277.558 28.4011L276.09 28.3399L275.918 32.4703C275.908 32.7215 275.943 32.9224 276.023 33.0732C276.112 33.2244 276.295 33.3058 276.572 33.3173C276.711 33.3231 276.85 33.3159 276.99 33.2957C277.129 33.2755 277.265 33.2507 277.396 33.2215L277.548 33.9565C277.329 34.0081 277.119 34.0514 276.918 34.0864C276.725 34.1304 276.503 34.1471 276.252 34.1367C275.698 34.1136 275.319 33.9503 275.114 33.6469C274.91 33.3435 274.819 32.9277 274.841 32.3994L275.012 28.295L274.051 28.255L274.078 27.6055C274.425 27.6113 274.702 27.5101 274.91 27.3019C275.119 27.0851 275.282 26.8229 275.398 26.5155C275.515 26.2081 275.605 25.9213 275.669 25.655L276.461 25.6881ZM279.885 27.5612C280.025 27.9487 280.108 28.3555 280.133 28.7816C280.373 28.436 280.688 28.1585 281.079 27.9493C281.469 27.74 281.876 27.6442 282.301 27.6619L281.993 28.7941C281.578 28.7767 281.218 28.8702 280.915 29.0744C280.62 29.279 280.353 29.5411 280.114 29.8608L279.936 34.147L278.858 34.1021L279.052 29.4262C279.063 29.1751 279.041 28.8749 278.986 28.5256C278.94 28.1681 278.848 27.878 278.71 27.6554L279.885 27.5612ZM285.705 27.7647C286.389 27.7932 286.897 28.0008 287.228 28.3876C287.558 28.7744 287.71 29.3055 287.682 29.9809L287.547 33.2151C287.539 33.3969 287.569 33.5239 287.635 33.5961C287.702 33.6596 287.783 33.6933 287.878 33.6973C287.956 33.7005 288.039 33.6953 288.126 33.6816C288.214 33.6592 288.297 33.6324 288.377 33.601L288.581 34.3121C288.439 34.3843 288.259 34.4461 288.04 34.4977C287.829 34.5583 287.611 34.584 287.386 34.5746C287.161 34.5652 286.96 34.4961 286.783 34.3673C286.607 34.2298 286.504 33.9914 286.475 33.6518C286.212 33.9098 285.909 34.1184 285.564 34.2775C285.219 34.4279 284.861 34.4954 284.489 34.4799C283.978 34.4586 283.56 34.2894 283.235 33.9722C282.91 33.6551 282.758 33.2324 282.78 32.7042C282.801 32.2106 282.934 31.8215 283.18 31.5368C283.435 31.2525 283.756 31.0447 284.143 30.9134C284.53 30.7821 284.937 30.6992 285.363 30.665C285.798 30.6311 286.202 30.6219 286.574 30.6374L286.603 29.949C286.618 29.5853 286.557 29.2748 286.421 29.0176C286.284 28.7603 286.003 28.6229 285.579 28.6052C285.25 28.5915 284.931 28.6432 284.623 28.7605C284.314 28.8778 284.003 29.0556 283.69 29.2941L283.189 28.5056C283.556 28.2346 283.955 28.0387 284.385 27.9179C284.815 27.797 285.255 27.7459 285.705 27.7647ZM286.539 31.4816C286.305 31.4719 286.041 31.4739 285.745 31.4876C285.45 31.4926 285.162 31.5327 284.881 31.6077C284.601 31.6741 284.366 31.7945 284.177 31.9687C283.996 32.1433 283.899 32.3909 283.886 32.7112C283.874 32.997 283.96 33.2131 284.145 33.3596C284.339 33.4978 284.583 33.573 284.877 33.5853C285.189 33.5983 285.465 33.523 285.706 33.3596C285.947 33.1962 286.138 32.9829 286.279 32.7199C286.429 32.4572 286.51 32.183 286.522 31.8973L286.539 31.4816ZM291.466 26.3133C291.394 26.6052 291.324 26.9102 291.259 27.2284C291.203 27.5384 291.16 27.8445 291.13 28.1469L292.818 28.2172L292.563 29.0263L291.096 28.9651L290.924 33.0956C290.913 33.3467 290.948 33.5476 291.029 33.6985C291.118 33.8496 291.301 33.931 291.578 33.9425C291.716 33.9483 291.856 33.9411 291.995 33.9209C292.135 33.9007 292.27 33.876 292.402 33.8467L292.553 34.5817C292.334 34.6333 292.124 34.6766 291.923 34.7116C291.731 34.7556 291.509 34.7724 291.258 34.7619C290.703 34.7388 290.324 34.5756 290.12 34.2721C289.916 33.9687 289.825 33.5529 289.847 33.0247L290.018 28.9202L289.056 28.8802L289.084 28.2307C289.43 28.2365 289.708 28.1353 289.916 27.9271C290.124 27.7103 290.287 27.4482 290.404 27.1408C290.521 26.8334 290.611 26.5465 290.674 26.2803L291.466 26.3133ZM295.573 26.1591C295.564 26.3756 295.479 26.5585 295.316 26.7079C295.163 26.8576 294.973 26.9278 294.748 26.9184C294.532 26.9094 294.349 26.8237 294.199 26.6613C294.058 26.4993 293.993 26.3101 294.002 26.0936C294.011 25.8772 294.092 25.694 294.246 25.5443C294.408 25.3949 294.598 25.3248 294.814 25.3338C295.03 25.3428 295.213 25.4285 295.363 25.5909C295.512 25.7532 295.582 25.9426 295.573 26.1591ZM295.249 28.3185L294.98 34.7739L293.902 34.729L294.139 29.0399L294.015 28.2671L295.249 28.3185ZM299.506 35.1316C298.874 35.1053 298.348 34.9272 297.928 34.5974C297.517 34.2594 297.214 33.8304 297.019 33.3105C296.832 32.7909 296.751 32.2411 296.775 31.6609C296.799 31.0807 296.935 30.5356 297.181 30.0254C297.437 29.5069 297.793 29.0924 298.248 28.7817C298.703 28.4711 299.243 28.3288 299.866 28.3547C300.507 28.3814 301.033 28.5595 301.444 28.8889C301.864 29.2187 302.168 29.6433 302.354 30.1629C302.549 30.6828 302.635 31.2372 302.61 31.826C302.586 32.4148 302.45 32.9686 302.203 33.4874C301.956 33.9976 301.605 34.408 301.15 34.7187C300.695 35.0207 300.147 35.1583 299.506 35.1316ZM299.553 34.3139C299.891 34.3279 300.175 34.2617 300.407 34.1152C300.648 33.9605 300.843 33.7561 300.992 33.5021C301.15 33.2484 301.265 32.9757 301.338 32.6838C301.412 32.3832 301.454 32.0944 301.466 31.8173C301.477 31.5316 301.459 31.2402 301.411 30.9433C301.372 30.638 301.292 30.3572 301.173 30.1006C301.054 29.8355 300.881 29.6201 300.653 29.4544C300.435 29.2805 300.157 29.1866 299.819 29.1725C299.482 29.1584 299.192 29.2288 298.952 29.3836C298.72 29.53 298.53 29.7303 298.38 29.9843C298.231 30.2383 298.12 30.5156 298.046 30.8161C297.973 31.108 297.931 31.3925 297.92 31.6696C297.908 31.938 297.927 32.225 297.975 32.5306C298.023 32.8276 298.107 33.1086 298.226 33.3738C298.354 33.6393 298.527 33.8591 298.745 34.033C298.963 34.2069 299.233 34.3005 299.553 34.3139ZM305.024 28.6217C305.079 28.7714 305.124 28.9251 305.161 29.0828C305.198 29.2405 305.222 29.3976 305.233 29.5542C305.503 29.3052 305.82 29.0929 306.183 28.9172C306.546 28.7328 306.914 28.6484 307.286 28.6639C308.005 28.6938 308.503 28.9314 308.779 29.3767C309.064 29.8222 309.193 30.3784 309.165 31.0452L308.985 35.3574L307.92 35.3131L308.085 31.3515C308.096 31.0831 308.086 30.818 308.053 30.5565C308.03 30.2953 307.943 30.0791 307.794 29.9081C307.654 29.7288 307.411 29.6319 307.065 29.6175C306.744 29.6041 306.42 29.6817 306.092 29.8502C305.773 30.0104 305.497 30.194 305.262 30.4011L305.063 35.194L303.998 35.1496L304.188 30.5776C304.195 30.4044 304.191 30.2047 304.174 29.9785C304.158 29.7436 304.124 29.5167 304.072 29.2976C304.021 29.07 303.942 28.8802 303.836 28.7283L305.024 28.6217ZM317.407 25.6897C317.866 25.7088 318.282 25.8345 318.654 26.0669L318.322 26.8597C318.213 26.7511 318.069 26.6671 317.89 26.6075C317.719 26.5397 317.556 26.5025 317.4 26.496C317.019 26.4802 316.712 26.5541 316.48 26.7179C316.256 26.8821 316.082 27.1047 315.958 27.3858C315.842 27.6585 315.76 27.9544 315.712 28.2733C315.665 28.5836 315.635 28.8816 315.623 29.1674L317.481 29.2448L317.213 30.0403L315.59 29.9727L315.354 35.6228L314.289 35.5784L314.525 29.9283L313.55 29.8877L313.579 29.2123C313.718 29.2008 313.857 29.1936 313.996 29.1907C314.144 29.1795 314.271 29.1414 314.378 29.0765C314.485 29.0115 314.559 28.8975 314.6 28.7344C314.703 28.3397 314.782 28.022 314.835 27.7814C314.889 27.5321 314.959 27.3138 315.045 27.1265C315.131 26.9393 315.265 26.7367 315.447 26.5188C315.675 26.2507 315.953 26.0411 316.28 25.8899C316.607 25.7387 316.983 25.672 317.407 25.6897ZM320.232 35.9952C319.6 35.9688 319.074 35.7908 318.654 35.461C318.243 35.123 317.94 34.694 317.745 34.1741C317.558 33.6545 317.477 33.1047 317.501 32.5245C317.525 31.9443 317.661 31.3992 317.908 30.889C318.163 30.3705 318.519 29.956 318.974 29.6453C319.43 29.3347 319.969 29.1923 320.592 29.2183C321.233 29.245 321.759 29.4231 322.171 29.7525C322.591 30.0822 322.894 30.5069 323.08 31.0265C323.276 31.5464 323.361 32.1007 323.336 32.6895C323.312 33.2784 323.176 33.8322 322.929 34.351C322.682 34.8612 322.331 35.2716 321.876 35.5822C321.421 35.8842 320.873 36.0219 320.232 35.9952ZM320.279 35.1774C320.617 35.1915 320.902 35.1253 321.133 34.9788C321.374 34.824 321.569 34.6196 321.718 34.3656C321.876 34.112 321.992 33.8392 322.065 33.5473C322.138 33.2468 322.18 32.958 322.192 32.6809C322.204 32.3951 322.185 32.1038 322.137 31.8069C322.098 31.5016 322.018 31.2207 321.899 30.9642C321.78 30.699 321.607 30.4836 321.379 30.318C321.161 30.1441 320.883 30.0501 320.545 30.0361C320.208 30.022 319.919 30.0923 319.678 30.2471C319.446 30.3936 319.256 30.5939 319.106 30.8479C318.957 31.1019 318.846 31.3791 318.772 31.6797C318.7 31.9716 318.657 32.2561 318.646 32.5331C318.635 32.8016 318.653 33.0886 318.701 33.3942C318.749 33.6911 318.833 33.9722 318.952 34.2374C319.08 34.5029 319.253 34.7226 319.471 34.8966C319.689 35.0705 319.959 35.1641 320.279 35.1774ZM325.764 29.4728C325.904 29.8603 325.987 30.2671 326.012 30.6932C326.252 30.3476 326.567 30.0701 326.958 29.8609C327.348 29.6516 327.756 29.5558 328.18 29.5735L327.872 30.7057C327.457 30.6883 327.097 30.7818 326.794 30.986C326.499 31.1906 326.232 31.4527 325.993 31.7724L325.815 36.0586L324.737 36.0137L324.932 31.3378C324.942 31.0867 324.92 30.7865 324.865 30.4372C324.819 30.0797 324.727 29.7896 324.589 29.567L325.764 29.4728ZM332.523 26.8659L335.354 26.9839C335.978 27.0099 336.523 27.1324 336.991 27.3514C337.468 27.5621 337.832 27.8808 338.083 28.3077C338.335 28.7345 338.446 29.2899 338.417 29.974C338.391 30.6061 338.226 31.1284 337.923 31.5408C337.619 31.9532 337.225 32.2577 336.74 32.4543C336.255 32.6423 335.718 32.724 335.129 32.6995L333.687 32.6394L333.531 36.3802L332.323 36.3298L332.682 27.7313L332.523 26.8659ZM333.888 27.8206L333.724 31.7562L335.14 31.8152C335.737 31.8401 336.217 31.6779 336.578 31.3286C336.94 30.9794 337.133 30.5103 337.157 29.9215C337.183 29.3067 337.039 28.8193 336.724 28.4592C336.409 28.0991 335.94 27.9061 335.317 27.8801L333.888 27.8206ZM345.8 32.4155L341.202 32.2239L341.015 36.692L339.808 36.6417L340.166 28.0431C340.166 28.0345 340.152 27.9645 340.122 27.8331C340.102 27.7022 340.082 27.5669 340.061 27.4272C340.041 27.2876 340.027 27.2046 340.02 27.1783L341.409 27.2362L341.238 31.3406L345.836 31.5322L346.007 27.4278L347.215 27.4781L346.821 36.9339L345.613 36.8836L345.8 32.4155ZM349.266 27.5636L352.097 27.6815C352.721 27.7075 353.267 27.83 353.735 28.049C354.212 28.2597 354.576 28.5785 354.827 29.0053C355.078 29.4321 355.189 29.9876 355.161 30.6716C355.134 31.3038 354.969 31.826 354.666 32.2384C354.363 32.6508 353.968 32.9553 353.483 33.1519C352.998 33.3399 352.461 33.4216 351.872 33.3971L350.431 33.337L350.275 37.0778L349.067 37.0275L349.425 28.4289L349.266 27.5636ZM350.631 28.5182L350.467 32.4538L351.883 32.5128C352.481 32.5377 352.96 32.3755 353.322 32.0263C353.683 31.677 353.876 31.208 353.901 30.6191C353.926 30.0043 353.782 29.5169 353.467 29.1568C353.153 28.7968 352.684 28.6037 352.06 28.5778L350.631 28.5182Z" fill="#FFD700"/>
</g>
<rect x="46" y="-3" width="7" height="25" fill="url(#paint0_linear)"/>
<rect x="410" y="-1" width="3" height="18" fill="url(#paint1_linear)"/>
<rect x="60" y="-1" width="3" height="35" fill="url(#paint2_linear)"/>
<rect x="400" y="-1" width="3" height="63" fill="url(#paint3_linear)"/>
<g filter="url(#filter2_d)">
<ellipse cx="0.5" cy="34" rx="20.5" ry="19" fill="url(#paint4_linear)"/>
<path d="M20.5 34C20.5 44.1822 11.5822 52.5 0.5 52.5C-10.5822 52.5 -19.5 44.1822 -19.5 34C-19.5 23.8178 -10.5822 15.5 0.5 15.5C11.5822 15.5 20.5 23.8178 20.5 34Z" stroke="#D88033"/>
</g>
<g filter="url(#filter3_d)">
<ellipse cx="296.5" cy="-3" rx="20.5" ry="19" fill="url(#paint5_linear)"/>
<path d="M316.5 -3C316.5 7.18217 307.582 15.5 296.5 15.5C285.418 15.5 276.5 7.18217 276.5 -3C276.5 -13.1822 285.418 -21.5 296.5 -21.5C307.582 -21.5 316.5 -13.1822 316.5 -3Z" stroke="#D88033"/>
</g>
<g filter="url(#filter4_d)">
<ellipse cx="444.5" cy="43" rx="20.5" ry="19" fill="url(#paint6_linear)"/>
<path d="M464.5 43C464.5 53.1822 455.582 61.5 444.5 61.5C433.418 61.5 424.5 53.1822 424.5 43C424.5 32.8178 433.418 24.5 444.5 24.5C455.582 24.5 464.5 32.8178 464.5 43Z" stroke="#D88033"/>
</g>
<g filter="url(#filter5_d)">
<ellipse cx="221.5" cy="16" rx="5.5" ry="5" fill="white"/>
<path d="M221.5 22C224.998 22 228 19.4013 228 16C228 12.5987 224.998 10 221.5 10C218.002 10 215 12.5987 215 16C215 19.4013 218.002 22 221.5 22Z" stroke="#FFD700" stroke-width="2"/>
</g>
<g filter="url(#filter6_d)">
<ellipse cx="21.5" cy="-7" rx="20.5" ry="19" fill="url(#paint7_linear)"/>
<path d="M41.5 -7C41.5 3.18217 32.5822 11.5 21.5 11.5C10.4178 11.5 1.5 3.18217 1.5 -7C1.5 -17.1822 10.4178 -25.5 21.5 -25.5C32.5822 -25.5 41.5 -17.1822 41.5 -7Z" stroke="#D88033"/>
</g>
<g filter="url(#filter7_d)">
<ellipse cx="465.5" cy="2" rx="20.5" ry="19" fill="url(#paint8_linear)"/>
<path d="M485.5 2C485.5 12.1822 476.582 20.5 465.5 20.5C454.418 20.5 445.5 12.1822 445.5 2C445.5 -8.18217 454.418 -16.5 465.5 -16.5C476.582 -16.5 485.5 -8.18217 485.5 2Z" stroke="#D88033"/>
</g>
</g>
<defs>
<filter id="filter0_d" x="93.4395" y="7.80078" width="173.273" height="23.3418" filterUnits="userSpaceOnUse" color-interpolation-filters="sRGB">
<feFlood flood-opacity="0" result="BackgroundImageFix"/>
<feColorMatrix in="SourceAlpha" type="matrix" values="0 0 0 0 0 0 0 0 0 0 0 0 0 0 0 0 0 0 127 0"/>
<feOffset dy="4"/>
<feGaussianBlur stdDeviation="2"/>
<feColorMatrix type="matrix" values="0 0 0 0 0 0 0 0 0 0 0 0 0 0 0 0 0 0 0.68 0"/>
<feBlend mode="normal" in2="BackgroundImageFix" result="effect1_dropShadow"/>
<feBlend mode="normal" in="SourceGraphic" in2="effect1_dropShadow" result="shape"/>
</filter>
<filter id="filter1_d" x="185.122" y="21.0444" width="174.043" height="24.0335" filterUnits="userSpaceOnUse" color-interpolation-filters="sRGB">
<feFlood flood-opacity="0" result="BackgroundImageFix"/>
<feColorMatrix in="SourceAlpha" type="matrix" values="0 0 0 0 0 0 0 0 0 0 0 0 0 0 0 0 0 0 127 0"/>
<feOffset dy="4"/>
<feGaussianBlur stdDeviation="2"/>
<feColorMatrix type="matrix" values="0 0 0 0 0 0 0 0 0 0 0 0 0 0 0 0 0 0 0.66 0"/>
<feBlend mode="normal" in2="BackgroundImageFix" result="effect1_dropShadow"/>
<feBlend mode="normal" in="SourceGraphic" in2="effect1_dropShadow" result="shape"/>
</filter>
<filter id="filter2_d" x="-24" y="15" width="49" height="46" filterUnits="userSpaceOnUse" color-interpolation-filters="sRGB">
<feFlood flood-opacity="0" result="BackgroundImageFix"/>
<feColorMatrix in="SourceAlpha" type="matrix" values="0 0 0 0 0 0 0 0 0 0 0 0 0 0 0 0 0 0 127 0"/>
<feOffset dy="4"/>
<feGaussianBlur stdDeviation="2"/>
<feColorMatrix type="matrix" values="0 0 0 0 0.108333 0 0 0 0 0 0 0 0 0 0 0 0 0 0.25 0"/>
<feBlend mode="normal" in2="BackgroundImageFix" result="effect1_dropShadow"/>
<feBlend mode="normal" in="SourceGraphic" in2="effect1_dropShadow" result="shape"/>
</filter>
<filter id="filter3_d" x="272" y="-22" width="49" height="46" filterUnits="userSpaceOnUse" color-interpolation-filters="sRGB">
<feFlood flood-opacity="0" result="BackgroundImageFix"/>
<feColorMatrix in="SourceAlpha" type="matrix" values="0 0 0 0 0 0 0 0 0 0 0 0 0 0 0 0 0 0 127 0"/>
<feOffset dy="4"/>
<feGaussianBlur stdDeviation="2"/>
<feColorMatrix type="matrix" values="0 0 0 0 0.108333 0 0 0 0 0 0 0 0 0 0 0 0 0 0.25 0"/>
<feBlend mode="normal" in2="BackgroundImageFix" result="effect1_dropShadow"/>
<feBlend mode="normal" in="SourceGraphic" in2="effect1_dropShadow" result="shape"/>
</filter>
<filter id="filter4_d" x="420" y="24" width="49" height="46" filterUnits="userSpaceOnUse" color-interpolation-filters="sRGB">
<feFlood flood-opacity="0" result="BackgroundImageFix"/>
<feColorMatrix in="SourceAlpha" type="matrix" values="0 0 0 0 0 0 0 0 0 0 0 0 0 0 0 0 0 0 127 0"/>
<feOffset dy="4"/>
<feGaussianBlur stdDeviation="2"/>
<feColorMatrix type="matrix" values="0 0 0 0 0.108333 0 0 0 0 0 0 0 0 0 0 0 0 0 0.25 0"/>
<feBlend mode="normal" in2="BackgroundImageFix" result="effect1_dropShadow"/>
<feBlend mode="normal" in="SourceGraphic" in2="effect1_dropShadow" result="shape"/>
</filter>
<filter id="filter5_d" x="210" y="9" width="23" height="22" filterUnits="userSpaceOnUse" color-interpolation-filters="sRGB">
<feFlood flood-opacity="0" result="BackgroundImageFix"/>
<feColorMatrix in="SourceAlpha" type="matrix" values="0 0 0 0 0 0 0 0 0 0 0 0 0 0 0 0 0 0 127 0"/>
<feOffset dy="4"/>
<feGaussianBlur stdDeviation="2"/>
<feColorMatrix type="matrix" values="0 0 0 0 0.108333 0 0 0 0 0 0 0 0 0 0 0 0 0 0.65 0"/>
<feBlend mode="normal" in2="BackgroundImageFix" result="effect1_dropShadow"/>
<feBlend mode="normal" in="SourceGraphic" in2="effect1_dropShadow" result="shape"/>
</filter>
<filter id="filter6_d" x="-3" y="-26" width="49" height="46" filterUnits="userSpaceOnUse" color-interpolation-filters="sRGB">
<feFlood flood-opacity="0" result="BackgroundImageFix"/>
<feColorMatrix in="SourceAlpha" type="matrix" values="0 0 0 0 0 0 0 0 0 0 0 0 0 0 0 0 0 0 127 0"/>
<feOffset dy="4"/>
<feGaussianBlur stdDeviation="2"/>
<feColorMatrix type="matrix" values="0 0 0 0 0.108333 0 0 0 0 0 0 0 0 0 0 0 0 0 0.25 0"/>
<feBlend mode="normal" in2="BackgroundImageFix" result="effect1_dropShadow"/>
<feBlend mode="normal" in="SourceGraphic" in2="effect1_dropShadow" result="shape"/>
</filter>
<filter id="filter7_d" x="441" y="-17" width="49" height="46" filterUnits="userSpaceOnUse" color-interpolation-filters="sRGB">
<feFlood flood-opacity="0" result="BackgroundImageFix"/>
<feColorMatrix in="SourceAlpha" type="matrix" values="0 0 0 0 0 0 0 0 0 0 0 0 0 0 0 0 0 0 127 0"/>
<feOffset dy="4"/>
<feGaussianBlur stdDeviation="2"/>
<feColorMatrix type="matrix" values="0 0 0 0 0.108333 0 0 0 0 0 0 0 0 0 0 0 0 0 0.25 0"/>
<feBlend mode="normal" in2="BackgroundImageFix" result="effect1_dropShadow"/>
<feBlend mode="normal" in="SourceGraphic" in2="effect1_dropShadow" result="shape"/>
</filter>
<linearGradient id="paint0_linear" x1="49.5" y1="-3" x2="49.5" y2="22" gradientUnits="userSpaceOnUse">
<stop stop-color="#D1652B"/>
<stop offset="1" stop-color="#DD9539" stop-opacity="0"/>
</linearGradient>
<linearGradient id="paint1_linear" x1="411.5" y1="-1" x2="411.5" y2="17" gradientUnits="userSpaceOnUse">
<stop stop-color="#DD9539"/>
<stop offset="1" stop-color="#DD9539" stop-opacity="0"/>
</linearGradient>
<linearGradient id="paint2_linear" x1="61.5" y1="-1" x2="61.5" y2="34" gradientUnits="userSpaceOnUse">
<stop stop-color="#DD9539"/>
<stop offset="1" stop-color="#DD9539" stop-opacity="0"/>
</linearGradient>
<linearGradient id="paint3_linear" x1="401.5" y1="-1" x2="401.5" y2="62" gradientUnits="userSpaceOnUse">
<stop stop-color="#DD9539"/>
<stop offset="1" stop-color="#DD9539" stop-opacity="0"/>
</linearGradient>
<linearGradient id="paint4_linear" x1="0.5" y1="15" x2="0.5" y2="53" gradientUnits="userSpaceOnUse">
<stop stop-color="#CE5927"/>
<stop offset="1" stop-color="#CE5927" stop-opacity="0"/>
</linearGradient>
<linearGradient id="paint5_linear" x1="296.5" y1="-22" x2="296.5" y2="16" gradientUnits="userSpaceOnUse">
<stop stop-color="#CE5927"/>
<stop offset="1" stop-color="#CE5927" stop-opacity="0"/>
</linearGradient>
<linearGradient id="paint6_linear" x1="444.5" y1="24" x2="444.5" y2="62" gradientUnits="userSpaceOnUse">
<stop stop-color="#CE5927"/>
<stop offset="1" stop-color="#CE5927" stop-opacity="0"/>
</linearGradient>
<linearGradient id="paint7_linear" x1="21.5" y1="-26" x2="21.5" y2="12" gradientUnits="userSpaceOnUse">
<stop stop-color="#CE5927"/>
<stop offset="1" stop-color="#CE5927" stop-opacity="0"/>
</linearGradient>
<linearGradient id="paint8_linear" x1="465.5" y1="-17" x2="465.5" y2="21" gradientUnits="userSpaceOnUse">
<stop stop-color="#CE5927"/>
<stop offset="1" stop-color="#CE5927" stop-opacity="0"/>
</linearGradient>
<clipPath id="clip0">
<rect width="468" height="42" fill="white"/>
</clipPath>
</defs>
</svg>
