<svg width="1200" height="60" viewBox="0 0 1200 60" fill="none" xmlns="http://www.w3.org/2000/svg">
<g clip-path="url(#clip0)">
<rect width="1200" height="60" fill="#BD1313"/>
<path d="M515.881 17.6777C515.881 17.6973 515.884 17.7233 515.891 17.7559C515.897 17.7819 515.9 17.8112 515.9 17.8438C515.9 17.9805 515.845 18.1009 515.734 18.2051C515.63 18.3092 515.513 18.3613 515.383 18.3613C515.279 18.3613 515.181 18.3288 515.09 18.2637C515.005 18.1986 514.943 18.1107 514.904 18C514.82 17.7526 514.738 17.4889 514.66 17.209C514.582 16.9225 514.51 16.6426 514.445 16.3691C514.387 16.0957 514.331 15.8385 514.279 15.5977C514.227 15.3568 514.188 15.1517 514.162 14.9824C513.791 15.002 513.368 15.0182 512.893 15.0312C512.417 15.0378 511.906 15.041 511.359 15.041L511.037 27.1016C511.571 27.1211 512.085 27.1602 512.58 27.2188C512.723 27.2318 512.834 27.2871 512.912 27.3848C512.997 27.4759 513.039 27.5866 513.039 27.7168C513.039 27.8796 512.984 28.0065 512.873 28.0977C512.769 28.1953 512.658 28.2441 512.541 28.2441H512.482C511.955 28.179 511.434 28.1335 510.92 28.1074C510.406 28.0879 509.891 28.0781 509.377 28.0781C508.856 28.0781 508.345 28.0879 507.844 28.1074C507.342 28.1335 506.841 28.179 506.34 28.2441H506.281C506.138 28.2441 506.014 28.1888 505.91 28.0781C505.812 27.9674 505.764 27.847 505.764 27.7168C505.764 27.5866 505.806 27.4759 505.891 27.3848C505.982 27.2871 506.092 27.2318 506.223 27.2188C506.724 27.1602 507.215 27.1211 507.697 27.1016L507.922 14.9824C507.368 14.9629 506.848 14.9401 506.359 14.9141C505.878 14.8815 505.445 14.849 505.061 14.8164C505.021 14.9922 504.973 15.207 504.914 15.4609C504.862 15.7148 504.8 15.985 504.729 16.2715C504.663 16.5579 504.595 16.8509 504.523 17.1504C504.452 17.4434 504.377 17.7201 504.299 17.9805C504.266 18.0911 504.204 18.1823 504.113 18.2539C504.029 18.3255 503.931 18.3613 503.82 18.3613C503.671 18.3613 503.547 18.3092 503.449 18.2051C503.352 18.0944 503.303 17.974 503.303 17.8438C503.303 17.8242 503.303 17.8014 503.303 17.7754C503.303 17.7428 503.309 17.7168 503.322 17.6973C503.42 17.3522 503.518 16.9746 503.615 16.5645C503.713 16.1543 503.801 15.7702 503.879 15.4121C503.964 15.054 504.032 14.7546 504.084 14.5137C504.136 14.2728 504.162 14.1491 504.162 14.1426C504.195 14.0189 504.253 13.9212 504.338 13.8496C504.429 13.778 504.536 13.7422 504.66 13.7422H504.738C505.077 13.7878 505.487 13.8268 505.969 13.8594C506.457 13.8919 506.981 13.9212 507.541 13.9473C508.107 13.9668 508.693 13.9831 509.299 13.9961C509.904 14.0091 510.497 14.0156 511.076 14.0156C511.786 14.0156 512.44 14.0091 513.039 13.9961C513.638 13.9766 514.139 13.9505 514.543 13.918H514.582C514.699 13.918 514.807 13.9603 514.904 14.0449C515.002 14.123 515.061 14.2207 515.08 14.3379C515.08 14.3444 515.09 14.3997 515.109 14.5039C515.129 14.6081 515.155 14.748 515.188 14.9238C515.22 15.0996 515.259 15.3014 515.305 15.5293C515.357 15.7572 515.412 15.9948 515.471 16.2422C515.529 16.4831 515.591 16.7305 515.656 16.9844C515.728 17.2318 515.803 17.4629 515.881 17.6777ZM528.82 27.8438C528.794 27.8438 528.775 27.8372 528.762 27.8242C528.534 27.7917 528.309 27.7689 528.088 27.7559C527.867 27.7428 527.645 27.7363 527.424 27.7363C527.092 27.7363 526.76 27.7526 526.428 27.7852C526.102 27.8177 525.773 27.8633 525.441 27.9219C525.428 27.9349 525.415 27.9414 525.402 27.9414C525.389 27.9414 525.376 27.9414 525.363 27.9414C525.214 27.9414 525.09 27.8893 524.992 27.7852C524.895 27.6745 524.846 27.554 524.846 27.4238C524.846 27.3001 524.885 27.1927 524.963 27.1016C525.041 27.0039 525.142 26.9421 525.266 26.916C525.728 26.8184 526.193 26.7598 526.662 26.7402C527.02 25.0931 527.199 23.6868 527.199 22.5215C527.199 22.0137 527.16 21.5384 527.082 21.0957C527.01 20.6465 526.877 20.2559 526.682 19.9238C526.493 19.5918 526.232 19.3281 525.9 19.1328C525.568 18.9375 525.142 18.8398 524.621 18.8398C524.328 18.8398 524.048 18.8952 523.781 19.0059C523.521 19.1165 523.277 19.2663 523.049 19.4551C522.827 19.6374 522.626 19.8522 522.443 20.0996C522.261 20.347 522.105 20.6074 521.975 20.8809C521.851 21.1478 521.753 21.4212 521.682 21.7012C521.617 21.9811 521.584 22.248 521.584 22.502L521.564 26.8574C521.792 26.877 522.02 26.9062 522.248 26.9453C522.482 26.9844 522.72 27.0299 522.961 27.082C523.085 27.1016 523.186 27.1602 523.264 27.2578C523.342 27.349 523.381 27.4564 523.381 27.5801C523.381 27.7298 523.326 27.8503 523.215 27.9414C523.111 28.0326 522.993 28.0781 522.863 28.0781H522.766C522.238 27.9805 521.737 27.9056 521.262 27.8535C520.786 27.8014 520.314 27.7754 519.846 27.7754C519.383 27.7754 518.915 27.8014 518.439 27.8535C517.964 27.9056 517.466 27.9805 516.945 28.0781H516.848C516.698 28.0781 516.574 28.0293 516.477 27.9316C516.385 27.8275 516.34 27.7103 516.34 27.5801C516.34 27.4564 516.376 27.349 516.447 27.2578C516.525 27.1602 516.623 27.1016 516.74 27.082C516.968 27.0299 517.196 26.9876 517.424 26.9551C517.658 26.9225 517.886 26.89 518.107 26.8574V15.2168C517.697 15.1973 517.352 15.1745 517.072 15.1484C516.792 15.1159 516.636 15.0996 516.604 15.0996C516.473 15.0801 516.366 15.0215 516.281 14.9238C516.203 14.8262 516.164 14.7122 516.164 14.582C516.164 14.4193 516.223 14.2956 516.34 14.2109C516.457 14.1263 516.571 14.084 516.682 14.084H516.74C516.747 14.084 516.822 14.0938 516.965 14.1133C517.108 14.1263 517.294 14.1426 517.521 14.1621C517.756 14.1816 518.02 14.2012 518.312 14.2207C518.605 14.2337 518.908 14.2402 519.221 14.2402C519.533 14.2402 519.839 14.2305 520.139 14.2109C520.438 14.1849 520.715 14.1426 520.969 14.084H521.066C521.216 14.084 521.34 14.1361 521.438 14.2402C521.535 14.3379 521.584 14.4518 521.584 14.582V19.543C521.955 18.9701 522.395 18.5404 522.902 18.2539C523.417 17.9674 523.99 17.8242 524.621 17.8242C525.298 17.8242 525.865 17.9479 526.32 18.1953C526.783 18.4427 527.154 18.778 527.434 19.2012C527.72 19.6243 527.922 20.1257 528.039 20.7051C528.163 21.278 528.225 21.89 528.225 22.541C528.225 23.6934 528.052 25.0866 527.707 26.7207C527.909 26.7207 528.107 26.7305 528.303 26.75C528.505 26.763 528.7 26.7858 528.889 26.8184C529.019 26.8314 529.126 26.8867 529.211 26.9844C529.302 27.0755 529.348 27.1862 529.348 27.3164C529.348 27.4596 529.292 27.5833 529.182 27.6875C529.071 27.7917 528.951 27.8438 528.82 27.8438ZM539.24 22.8438V22.6777C539.24 22.1895 539.188 21.737 539.084 21.3203C538.98 20.9036 538.814 20.5358 538.586 20.2168C538.365 19.8913 538.078 19.6243 537.727 19.416C537.375 19.2077 536.952 19.0677 536.457 18.9961C536.112 19.0352 535.812 19.1296 535.559 19.2793C535.305 19.429 535.087 19.6146 534.904 19.8359C534.729 20.0508 534.582 20.2949 534.465 20.5684C534.348 20.8418 534.253 21.125 534.182 21.418C534.117 21.7044 534.068 21.9941 534.035 22.2871C534.003 22.5736 533.983 22.8438 533.977 23.0977C534.081 23.1302 534.211 23.166 534.367 23.2051C534.53 23.2441 534.712 23.2832 534.914 23.3223C535.116 23.3548 535.334 23.3841 535.568 23.4102C535.809 23.4297 536.06 23.4395 536.32 23.4395C536.874 23.4395 537.391 23.3874 537.873 23.2832C538.361 23.179 538.817 23.0326 539.24 22.8438ZM540.236 23.2246C540.217 23.3939 540.126 23.5404 539.963 23.6641C539.8 23.7878 539.595 23.8984 539.348 23.9961C539.1 24.0872 538.827 24.1654 538.527 24.2305C538.234 24.2891 537.945 24.3379 537.658 24.377C537.372 24.416 537.108 24.4453 536.867 24.4648C536.626 24.4779 536.438 24.4844 536.301 24.4844C535.826 24.4844 535.386 24.4518 534.982 24.3867C534.585 24.3216 534.257 24.2533 533.996 24.1816C534.035 24.5853 534.11 24.9824 534.221 25.373C534.331 25.7637 534.491 26.1152 534.699 26.4277C534.908 26.7337 535.168 26.9844 535.48 27.1797C535.793 27.3685 536.171 27.4629 536.613 27.4629C536.776 27.4629 536.962 27.4434 537.17 27.4043C537.378 27.3587 537.583 27.2969 537.785 27.2188C537.987 27.1341 538.173 27.0365 538.342 26.9258C538.511 26.8086 538.645 26.6784 538.742 26.5352C538.853 26.4049 538.986 26.3398 539.143 26.3398C539.279 26.3398 539.4 26.3952 539.504 26.5059C539.608 26.61 539.66 26.7272 539.66 26.8574C539.66 26.9941 539.618 27.1016 539.533 27.1797C539.377 27.4206 539.159 27.6257 538.879 27.7949C538.599 27.9642 538.296 28.1009 537.971 28.2051C537.645 28.3158 537.316 28.3939 536.984 28.4395C536.652 28.4915 536.35 28.5176 536.076 28.5176C535.295 28.5176 534.569 28.3776 533.898 28.0977C533.228 27.8242 532.645 27.4466 532.15 26.9648C531.656 26.4831 531.265 25.9167 530.979 25.2656C530.699 24.6146 530.559 23.9115 530.559 23.1562C530.559 22.3294 530.682 21.5938 530.93 20.9492C531.177 20.2982 531.529 19.7513 531.984 19.3086C532.44 18.8594 532.993 18.5208 533.645 18.293C534.296 18.0586 535.028 17.9414 535.842 17.9414C536.61 17.974 537.271 18.1042 537.824 18.332C538.384 18.5599 538.843 18.8757 539.201 19.2793C539.559 19.6829 539.823 20.1712 539.992 20.7441C540.168 21.3105 540.256 21.9486 540.256 22.6582C540.256 22.821 540.253 22.9512 540.246 23.0488C540.24 23.14 540.236 23.1986 540.236 23.2246ZM559.689 18.6641C559.657 18.7747 559.595 18.8594 559.504 18.918C559.413 18.9701 559.312 18.9961 559.201 18.9961C559.051 18.9961 558.928 18.9408 558.83 18.8301C558.732 18.7194 558.684 18.6087 558.684 18.498C558.684 18.446 558.697 18.3939 558.723 18.3418L559.348 16.5156C559.185 16.2552 558.986 16.0078 558.752 15.7734C558.524 15.5326 558.273 15.321 558 15.1387C557.727 14.9564 557.437 14.8132 557.131 14.709C556.825 14.5983 556.516 14.543 556.203 14.543C555.611 14.543 555.08 14.6341 554.611 14.8164C554.149 14.9987 553.742 15.2461 553.391 15.5586C553.046 15.8711 552.749 16.2389 552.502 16.6621C552.255 17.0788 552.053 17.5247 551.896 18C551.747 18.4753 551.636 18.9668 551.564 19.4746C551.499 19.9759 551.467 20.4707 551.467 20.959C551.467 21.3822 551.49 21.8346 551.535 22.3164C551.581 22.7917 551.659 23.2702 551.77 23.752C551.88 24.2272 552.027 24.6862 552.209 25.1289C552.391 25.5651 552.616 25.9525 552.883 26.291C553.156 26.6296 553.475 26.8997 553.84 27.1016C554.204 27.3034 554.628 27.4043 555.109 27.4043C555.676 27.4043 556.213 27.3229 556.721 27.1602C557.235 26.9974 557.701 26.7663 558.117 26.4668C558.54 26.1608 558.908 25.7962 559.221 25.373C559.54 24.9499 559.787 24.4779 559.963 23.957C559.995 23.8398 560.057 23.7454 560.148 23.6738C560.24 23.5957 560.344 23.5566 560.461 23.5566C560.604 23.5566 560.725 23.612 560.822 23.7227C560.92 23.8333 560.969 23.9538 560.969 24.084V24.2012C560.962 24.2142 560.939 24.2793 560.9 24.3965C560.868 24.5137 560.809 24.6667 560.725 24.8555C560.646 25.0378 560.539 25.2493 560.402 25.4902C560.272 25.7246 560.106 25.9688 559.904 26.2227C559.605 26.5938 559.27 26.916 558.898 27.1895C558.527 27.4629 558.133 27.6908 557.717 27.873C557.307 28.0553 556.88 28.1921 556.438 28.2832C555.995 28.3743 555.552 28.4199 555.109 28.4199C553.996 28.4004 552.997 28.2214 552.111 27.8828C551.232 27.5378 550.484 27.0592 549.865 26.4473C549.253 25.8288 548.781 25.0866 548.449 24.2207C548.124 23.3548 547.961 22.388 547.961 21.3203C547.961 20.3307 548.065 19.4486 548.273 18.6738C548.482 17.8991 548.765 17.222 549.123 16.6426C549.488 16.0566 549.914 15.5618 550.402 15.1582C550.891 14.748 551.408 14.416 551.955 14.1621C552.508 13.9082 553.081 13.7259 553.674 13.6152C554.266 13.498 554.849 13.4395 555.422 13.4395C555.995 13.4395 556.509 13.5013 556.965 13.625C557.421 13.7422 557.827 13.8952 558.186 14.084C558.544 14.2728 558.85 14.4811 559.104 14.709C559.364 14.9303 559.579 15.1419 559.748 15.3438L560.285 13.8008C560.324 13.6901 560.389 13.6022 560.48 13.5371C560.572 13.472 560.666 13.4395 560.764 13.4395C560.907 13.4395 561.027 13.4948 561.125 13.6055C561.229 13.7096 561.281 13.8268 561.281 13.957C561.281 14.0156 561.268 14.071 561.242 14.123L559.689 18.6641ZM574.426 27.8438C574.4 27.8438 574.38 27.8372 574.367 27.8242C574.139 27.7917 573.915 27.7689 573.693 27.7559C573.472 27.7428 573.251 27.7363 573.029 27.7363C572.697 27.7363 572.365 27.7526 572.033 27.7852C571.708 27.8177 571.379 27.8633 571.047 27.9219C571.034 27.9349 571.021 27.9414 571.008 27.9414C570.995 27.9414 570.982 27.9414 570.969 27.9414C570.819 27.9414 570.695 27.8893 570.598 27.7852C570.5 27.6745 570.451 27.554 570.451 27.4238C570.451 27.3001 570.49 27.1927 570.568 27.1016C570.646 27.0039 570.747 26.9421 570.871 26.916C571.333 26.8184 571.799 26.7598 572.268 26.7402C572.626 25.0931 572.805 23.6868 572.805 22.5215C572.805 22.0137 572.766 21.5384 572.688 21.0957C572.616 20.6465 572.482 20.2559 572.287 19.9238C572.098 19.5918 571.838 19.3281 571.506 19.1328C571.174 18.9375 570.747 18.8398 570.227 18.8398C569.934 18.8398 569.654 18.8952 569.387 19.0059C569.126 19.1165 568.882 19.2663 568.654 19.4551C568.433 19.6374 568.231 19.8522 568.049 20.0996C567.867 20.347 567.71 20.6074 567.58 20.8809C567.456 21.1478 567.359 21.4212 567.287 21.7012C567.222 21.9811 567.189 22.248 567.189 22.502L567.17 26.8574C567.398 26.877 567.626 26.9062 567.854 26.9453C568.088 26.9844 568.326 27.0299 568.566 27.082C568.69 27.1016 568.791 27.1602 568.869 27.2578C568.947 27.349 568.986 27.4564 568.986 27.5801C568.986 27.7298 568.931 27.8503 568.82 27.9414C568.716 28.0326 568.599 28.0781 568.469 28.0781H568.371C567.844 27.9805 567.342 27.9056 566.867 27.8535C566.392 27.8014 565.92 27.7754 565.451 27.7754C564.989 27.7754 564.52 27.8014 564.045 27.8535C563.57 27.9056 563.072 27.9805 562.551 28.0781H562.453C562.303 28.0781 562.18 28.0293 562.082 27.9316C561.991 27.8275 561.945 27.7103 561.945 27.5801C561.945 27.4564 561.981 27.349 562.053 27.2578C562.131 27.1602 562.229 27.1016 562.346 27.082C562.574 27.0299 562.801 26.9876 563.029 26.9551C563.264 26.9225 563.492 26.89 563.713 26.8574V15.2168C563.303 15.1973 562.958 15.1745 562.678 15.1484C562.398 15.1159 562.242 15.0996 562.209 15.0996C562.079 15.0801 561.971 15.0215 561.887 14.9238C561.809 14.8262 561.77 14.7122 561.77 14.582C561.77 14.4193 561.828 14.2956 561.945 14.2109C562.062 14.1263 562.176 14.084 562.287 14.084H562.346C562.352 14.084 562.427 14.0938 562.57 14.1133C562.714 14.1263 562.899 14.1426 563.127 14.1621C563.361 14.1816 563.625 14.2012 563.918 14.2207C564.211 14.2337 564.514 14.2402 564.826 14.2402C565.139 14.2402 565.445 14.2305 565.744 14.2109C566.044 14.1849 566.32 14.1426 566.574 14.084H566.672C566.822 14.084 566.945 14.1361 567.043 14.2402C567.141 14.3379 567.189 14.4518 567.189 14.582V19.543C567.561 18.9701 568 18.5404 568.508 18.2539C569.022 17.9674 569.595 17.8242 570.227 17.8242C570.904 17.8242 571.47 17.9479 571.926 18.1953C572.388 18.4427 572.759 18.778 573.039 19.2012C573.326 19.6243 573.527 20.1257 573.645 20.7051C573.768 21.278 573.83 21.89 573.83 22.541C573.83 23.6934 573.658 25.0866 573.312 26.7207C573.514 26.7207 573.713 26.7305 573.908 26.75C574.11 26.763 574.305 26.7858 574.494 26.8184C574.624 26.8314 574.732 26.8867 574.816 26.9844C574.908 27.0755 574.953 27.1862 574.953 27.3164C574.953 27.4596 574.898 27.5833 574.787 27.6875C574.676 27.7917 574.556 27.8438 574.426 27.8438ZM582.443 28.2441C582.43 28.2441 582.414 28.2409 582.395 28.2344C582.382 28.2279 582.365 28.2246 582.346 28.2246C581.818 28.1204 581.317 28.0456 580.842 28C580.367 27.9479 579.895 27.9219 579.426 27.9219C578.951 27.9219 578.479 27.9479 578.01 28C577.541 28.0456 577.046 28.1204 576.525 28.2246C576.506 28.2246 576.49 28.2279 576.477 28.2344C576.464 28.2409 576.447 28.2441 576.428 28.2441C576.278 28.2441 576.154 28.1888 576.057 28.0781C575.965 27.9674 575.92 27.847 575.92 27.7168C575.92 27.5996 575.956 27.4922 576.027 27.3945C576.105 27.2969 576.203 27.2383 576.32 27.2188C576.548 27.1667 576.776 27.1276 577.004 27.1016C577.238 27.069 577.466 27.0365 577.688 27.0039V19.5234C577.277 19.5039 576.932 19.4779 576.652 19.4453C576.372 19.4128 576.216 19.3965 576.184 19.3965C576.053 19.377 575.946 19.3184 575.861 19.2207C575.783 19.123 575.744 19.0091 575.744 18.8789C575.744 18.7161 575.803 18.5924 575.92 18.5078C576.037 18.4232 576.151 18.3809 576.262 18.3809H576.32C576.327 18.3809 576.402 18.3906 576.545 18.4102C576.688 18.4232 576.874 18.4395 577.102 18.459C577.336 18.4785 577.6 18.498 577.893 18.5176C578.186 18.5306 578.488 18.5371 578.801 18.5371C579.113 18.5371 579.419 18.5273 579.719 18.5078C580.018 18.4818 580.292 18.4395 580.539 18.3809H580.646C580.796 18.3809 580.92 18.4329 581.018 18.5371C581.115 18.6348 581.164 18.7487 581.164 18.8789L581.145 27.0039C581.372 27.0365 581.6 27.069 581.828 27.1016C582.062 27.1276 582.3 27.1667 582.541 27.2188C582.665 27.2383 582.766 27.2969 582.844 27.3945C582.922 27.4922 582.961 27.5996 582.961 27.7168C582.961 27.8665 582.906 27.9902 582.795 28.0879C582.684 28.1921 582.567 28.2441 582.443 28.2441ZM581.027 15.4023C581.027 15.6432 580.982 15.8711 580.891 16.0859C580.799 16.2943 580.673 16.4766 580.51 16.6328C580.354 16.7891 580.168 16.9128 579.953 17.0039C579.745 17.0951 579.52 17.1406 579.279 17.1406C579.038 17.1406 578.811 17.0951 578.596 17.0039C578.387 16.9128 578.205 16.7891 578.049 16.6328C577.893 16.4766 577.769 16.2943 577.678 16.0859C577.587 15.8711 577.541 15.6432 577.541 15.4023C577.541 15.1615 577.587 14.9368 577.678 14.7285C577.769 14.5137 577.893 14.3281 578.049 14.1719C578.205 14.0156 578.387 13.8919 578.596 13.8008C578.811 13.7096 579.038 13.6641 579.279 13.6641C579.52 13.6641 579.745 13.7096 579.953 13.8008C580.168 13.8919 580.354 14.0156 580.51 14.1719C580.673 14.3281 580.799 14.5137 580.891 14.7285C580.982 14.9368 581.027 15.1615 581.027 15.4023ZM596.281 27.5605C596.268 27.6908 596.21 27.8014 596.105 27.8926C596.001 27.9772 595.884 28.0195 595.754 28.0195H595.715C595.402 27.987 595.1 27.9642 594.807 27.9512C594.52 27.9316 594.237 27.9219 593.957 27.9219C593.547 27.9219 593.153 27.9414 592.775 27.9805C592.404 28.013 592.04 28.0586 591.682 28.1172C591.669 28.1172 591.652 28.1204 591.633 28.127C591.62 28.1335 591.607 28.1367 591.594 28.1367C591.457 28.1367 591.337 28.0846 591.232 27.9805C591.128 27.8698 591.076 27.7493 591.076 27.6191C591.076 27.502 591.115 27.3945 591.193 27.2969C591.278 27.1992 591.379 27.1406 591.496 27.1211C591.77 27.069 592.043 27.0299 592.316 27.0039C592.596 26.9714 592.883 26.9421 593.176 26.916C593.234 26.7142 593.296 26.4408 593.361 26.0957C593.426 25.7507 593.485 25.3796 593.537 24.9824C593.596 24.5853 593.641 24.1849 593.674 23.7812C593.713 23.3776 593.732 23.0163 593.732 22.6973C593.732 22.3652 593.713 22.0039 593.674 21.6133C593.641 21.2227 593.56 20.8581 593.43 20.5195C593.306 20.1745 593.124 19.888 592.883 19.6602C592.648 19.4323 592.333 19.3184 591.936 19.3184C591.486 19.3184 591.07 19.429 590.686 19.6504C590.301 19.8717 589.969 20.1549 589.689 20.5C589.416 20.8385 589.198 21.2129 589.035 21.623C588.879 22.0332 588.801 22.4271 588.801 22.8047V22.8242L588.781 27.1211C588.898 27.1341 589.012 27.1471 589.123 27.1602C589.234 27.1667 589.344 27.1797 589.455 27.1992C589.585 27.2122 589.693 27.2676 589.777 27.3652C589.868 27.4564 589.914 27.5671 589.914 27.6973C589.914 27.8405 589.859 27.9642 589.748 28.0684C589.644 28.1725 589.527 28.2246 589.396 28.2246C589.37 28.2246 589.351 28.2148 589.338 28.1953C588.947 28.1562 588.547 28.1172 588.137 28.0781C587.733 28.0391 587.307 28.0195 586.857 28.0195C586.454 28.0195 586.027 28.0391 585.578 28.0781C585.135 28.1237 584.66 28.1921 584.152 28.2832C584.126 28.2962 584.094 28.3027 584.055 28.3027C583.905 28.3027 583.785 28.2474 583.693 28.1367C583.602 28.026 583.557 27.9056 583.557 27.7754C583.557 27.6582 583.592 27.5508 583.664 27.4531C583.736 27.3555 583.833 27.2969 583.957 27.2773C584.198 27.2253 584.429 27.1862 584.65 27.1602C584.872 27.1276 585.093 27.1016 585.314 27.082V19.6211C584.904 19.6016 584.559 19.5788 584.279 19.5527C584.006 19.5202 583.853 19.4974 583.82 19.4844C583.69 19.4714 583.583 19.416 583.498 19.3184C583.42 19.2207 583.381 19.1068 583.381 18.9766C583.381 18.8203 583.436 18.6966 583.547 18.6055C583.658 18.5078 583.775 18.459 583.898 18.459C583.924 18.459 583.944 18.4655 583.957 18.4785C583.964 18.4785 584.038 18.485 584.182 18.498C584.325 18.5111 584.51 18.5273 584.738 18.5469C584.973 18.5664 585.236 18.5827 585.529 18.5957C585.822 18.6087 586.125 18.6152 586.438 18.6152C586.75 18.6152 587.056 18.6087 587.355 18.5957C587.655 18.5762 587.928 18.5371 588.176 18.4785C588.189 18.4785 588.202 18.4753 588.215 18.4688C588.234 18.4622 588.254 18.459 588.273 18.459C588.423 18.459 588.547 18.5143 588.645 18.625C588.749 18.7292 588.801 18.8464 588.801 18.9766V19.9824C589.178 19.429 589.628 19.0124 590.148 18.7324C590.676 18.446 591.271 18.3027 591.936 18.3027C592.326 18.3027 592.665 18.3711 592.951 18.5078C593.244 18.638 593.495 18.8171 593.703 19.0449C593.918 19.2728 594.09 19.5365 594.221 19.8359C594.357 20.1289 594.465 20.4382 594.543 20.7637C594.628 21.0892 594.683 21.4212 594.709 21.7598C594.742 22.0918 594.758 22.4043 594.758 22.6973C594.758 23.0228 594.742 23.3809 594.709 23.7715C594.676 24.1556 594.634 24.5397 594.582 24.9238C594.536 25.3079 594.481 25.6725 594.416 26.0176C594.357 26.3626 594.299 26.6556 594.24 26.8965C594.488 26.9095 594.742 26.9225 595.002 26.9355C595.269 26.9486 595.539 26.9714 595.812 27.0039C595.962 27.0169 596.076 27.082 596.154 27.1992C596.239 27.3099 596.281 27.4303 596.281 27.5605ZM605.822 22.8438V22.6777C605.822 22.1895 605.77 21.737 605.666 21.3203C605.562 20.9036 605.396 20.5358 605.168 20.2168C604.947 19.8913 604.66 19.6243 604.309 19.416C603.957 19.2077 603.534 19.0677 603.039 18.9961C602.694 19.0352 602.395 19.1296 602.141 19.2793C601.887 19.429 601.669 19.6146 601.486 19.8359C601.311 20.0508 601.164 20.2949 601.047 20.5684C600.93 20.8418 600.835 21.125 600.764 21.418C600.699 21.7044 600.65 21.9941 600.617 22.2871C600.585 22.5736 600.565 22.8438 600.559 23.0977C600.663 23.1302 600.793 23.166 600.949 23.2051C601.112 23.2441 601.294 23.2832 601.496 23.3223C601.698 23.3548 601.916 23.3841 602.15 23.4102C602.391 23.4297 602.642 23.4395 602.902 23.4395C603.456 23.4395 603.973 23.3874 604.455 23.2832C604.943 23.179 605.399 23.0326 605.822 22.8438ZM606.818 23.2246C606.799 23.3939 606.708 23.5404 606.545 23.6641C606.382 23.7878 606.177 23.8984 605.93 23.9961C605.682 24.0872 605.409 24.1654 605.109 24.2305C604.816 24.2891 604.527 24.3379 604.24 24.377C603.954 24.416 603.69 24.4453 603.449 24.4648C603.208 24.4779 603.02 24.4844 602.883 24.4844C602.408 24.4844 601.968 24.4518 601.564 24.3867C601.167 24.3216 600.839 24.2533 600.578 24.1816C600.617 24.5853 600.692 24.9824 600.803 25.373C600.913 25.7637 601.073 26.1152 601.281 26.4277C601.49 26.7337 601.75 26.9844 602.062 27.1797C602.375 27.3685 602.753 27.4629 603.195 27.4629C603.358 27.4629 603.544 27.4434 603.752 27.4043C603.96 27.3587 604.165 27.2969 604.367 27.2188C604.569 27.1341 604.755 27.0365 604.924 26.9258C605.093 26.8086 605.227 26.6784 605.324 26.5352C605.435 26.4049 605.568 26.3398 605.725 26.3398C605.861 26.3398 605.982 26.3952 606.086 26.5059C606.19 26.61 606.242 26.7272 606.242 26.8574C606.242 26.9941 606.2 27.1016 606.115 27.1797C605.959 27.4206 605.741 27.6257 605.461 27.7949C605.181 27.9642 604.878 28.1009 604.553 28.2051C604.227 28.3158 603.898 28.3939 603.566 28.4395C603.234 28.4915 602.932 28.5176 602.658 28.5176C601.877 28.5176 601.151 28.3776 600.48 28.0977C599.81 27.8242 599.227 27.4466 598.732 26.9648C598.238 26.4831 597.847 25.9167 597.561 25.2656C597.281 24.6146 597.141 23.9115 597.141 23.1562C597.141 22.3294 597.264 21.5938 597.512 20.9492C597.759 20.2982 598.111 19.7513 598.566 19.3086C599.022 18.8594 599.576 18.5208 600.227 18.293C600.878 18.0586 601.61 17.9414 602.424 17.9414C603.192 17.974 603.853 18.1042 604.406 18.332C604.966 18.5599 605.425 18.8757 605.783 19.2793C606.141 19.6829 606.405 20.1712 606.574 20.7441C606.75 21.3105 606.838 21.9486 606.838 22.6582C606.838 22.821 606.835 22.9512 606.828 23.0488C606.822 23.14 606.818 23.1986 606.818 23.2246ZM618.234 25.2168C618.234 25.5879 618.169 25.9297 618.039 26.2422C617.909 26.5482 617.733 26.8281 617.512 27.082C617.29 27.3294 617.033 27.5475 616.74 27.7363C616.454 27.9186 616.148 28.0716 615.822 28.1953C615.503 28.3255 615.178 28.4199 614.846 28.4785C614.514 28.5436 614.195 28.5762 613.889 28.5762C613.062 28.5762 612.284 28.4525 611.555 28.2051C610.826 27.9642 610.165 27.5898 609.572 27.082C609.572 27.1927 609.572 27.3034 609.572 27.4141C609.572 27.5182 609.579 27.6191 609.592 27.7168V27.7559C609.592 27.8861 609.546 28.0033 609.455 28.1074C609.37 28.2116 609.263 28.2637 609.133 28.2637C608.983 28.2637 608.853 28.2181 608.742 28.127C608.638 28.0423 608.579 27.9349 608.566 27.8047C608.553 27.6745 608.547 27.5443 608.547 27.4141C608.547 27.2773 608.547 27.1406 608.547 27.0039C608.547 26.763 608.55 26.5254 608.557 26.291C608.57 26.0566 608.583 25.8483 608.596 25.666C608.609 25.4772 608.618 25.3242 608.625 25.207C608.638 25.0833 608.648 25.015 608.654 25.002C608.667 24.8717 608.719 24.7643 608.811 24.6797C608.908 24.5885 609.022 24.543 609.152 24.543C609.315 24.543 609.442 24.5951 609.533 24.6992C609.624 24.8034 609.67 24.9173 609.67 25.041V25.0996C609.663 25.1517 609.657 25.2103 609.65 25.2754C609.644 25.3275 609.637 25.3926 609.631 25.4707C609.624 25.5488 609.618 25.6335 609.611 25.7246C610.204 26.3561 610.855 26.8184 611.564 27.1113C612.281 27.3978 613.055 27.541 613.889 27.541C613.986 27.541 614.113 27.5345 614.27 27.5215C614.426 27.5085 614.589 27.4889 614.758 27.4629C614.934 27.4303 615.109 27.3913 615.285 27.3457C615.461 27.2936 615.617 27.2318 615.754 27.1602C615.897 27.082 616.011 26.9909 616.096 26.8867C616.187 26.7826 616.232 26.6589 616.232 26.5156C616.232 26.3724 616.167 26.2454 616.037 26.1348C615.913 26.0176 615.754 25.9134 615.559 25.8223C615.363 25.7311 615.145 25.653 614.904 25.5879C614.67 25.5228 614.439 25.4674 614.211 25.4219C613.99 25.3763 613.788 25.3405 613.605 25.3145C613.43 25.2884 613.299 25.2689 613.215 25.2559C612.655 25.1973 612.102 25.0898 611.555 24.9336C611.014 24.7708 610.526 24.5495 610.09 24.2695C609.654 23.9896 609.302 23.6445 609.035 23.2344C608.768 22.8242 608.635 22.3392 608.635 21.7793C608.635 21.2064 608.752 20.6921 608.986 20.2363C609.221 19.7741 609.527 19.3835 609.904 19.0645C610.288 18.7454 610.725 18.5013 611.213 18.332C611.708 18.1628 612.212 18.0781 612.727 18.0781C613.404 18.0781 614.045 18.1628 614.65 18.332C615.262 18.4948 615.822 18.752 616.33 19.1035C616.389 18.9603 616.457 18.8171 616.535 18.6738C616.613 18.5241 616.691 18.3809 616.77 18.2441C616.822 18.1595 616.887 18.0977 616.965 18.0586C617.049 18.0195 617.131 18 617.209 18C617.359 18 617.482 18.0521 617.58 18.1562C617.678 18.2539 617.727 18.3678 617.727 18.498C617.727 18.6022 617.701 18.6901 617.648 18.7617C617.401 19.2044 617.193 19.6536 617.023 20.1094C616.861 20.5586 616.75 21.0143 616.691 21.4766C616.672 21.6003 616.613 21.7044 616.516 21.7891C616.418 21.8737 616.304 21.916 616.174 21.916C616.031 21.916 615.91 21.8639 615.812 21.7598C615.715 21.6491 615.666 21.5286 615.666 21.3984V21.3203C615.738 20.9167 615.832 20.5098 615.949 20.0996C615.48 19.7285 614.969 19.4714 614.416 19.3281C613.863 19.1784 613.299 19.1035 612.727 19.1035C612.531 19.1035 612.326 19.1263 612.111 19.1719C611.896 19.2109 611.695 19.2793 611.506 19.377C611.324 19.4681 611.171 19.5918 611.047 19.748C610.93 19.9043 610.871 20.0964 610.871 20.3242C610.871 20.526 610.936 20.7051 611.066 20.8613C611.197 21.0111 611.363 21.1445 611.564 21.2617C611.766 21.3789 611.991 21.4798 612.238 21.5645C612.492 21.6491 612.74 21.7207 612.98 21.7793C613.228 21.8379 613.456 21.8867 613.664 21.9258C613.879 21.9648 614.048 21.9974 614.172 22.0234C614.628 22.1146 615.093 22.235 615.568 22.3848C616.05 22.528 616.486 22.7233 616.877 22.9707C617.274 23.2116 617.6 23.5143 617.854 23.8789C618.107 24.2435 618.234 24.6895 618.234 25.2168ZM628.479 22.8438V22.6777C628.479 22.1895 628.426 21.737 628.322 21.3203C628.218 20.9036 628.052 20.5358 627.824 20.2168C627.603 19.8913 627.316 19.6243 626.965 19.416C626.613 19.2077 626.19 19.0677 625.695 18.9961C625.35 19.0352 625.051 19.1296 624.797 19.2793C624.543 19.429 624.325 19.6146 624.143 19.8359C623.967 20.0508 623.82 20.2949 623.703 20.5684C623.586 20.8418 623.492 21.125 623.42 21.418C623.355 21.7044 623.306 21.9941 623.273 22.2871C623.241 22.5736 623.221 22.8438 623.215 23.0977C623.319 23.1302 623.449 23.166 623.605 23.2051C623.768 23.2441 623.951 23.2832 624.152 23.3223C624.354 23.3548 624.572 23.3841 624.807 23.4102C625.048 23.4297 625.298 23.4395 625.559 23.4395C626.112 23.4395 626.63 23.3874 627.111 23.2832C627.6 23.179 628.055 23.0326 628.479 22.8438ZM629.475 23.2246C629.455 23.3939 629.364 23.5404 629.201 23.6641C629.038 23.7878 628.833 23.8984 628.586 23.9961C628.339 24.0872 628.065 24.1654 627.766 24.2305C627.473 24.2891 627.183 24.3379 626.896 24.377C626.61 24.416 626.346 24.4453 626.105 24.4648C625.865 24.4779 625.676 24.4844 625.539 24.4844C625.064 24.4844 624.624 24.4518 624.221 24.3867C623.824 24.3216 623.495 24.2533 623.234 24.1816C623.273 24.5853 623.348 24.9824 623.459 25.373C623.57 25.7637 623.729 26.1152 623.938 26.4277C624.146 26.7337 624.406 26.9844 624.719 27.1797C625.031 27.3685 625.409 27.4629 625.852 27.4629C626.014 27.4629 626.2 27.4434 626.408 27.4043C626.617 27.3587 626.822 27.2969 627.023 27.2188C627.225 27.1341 627.411 27.0365 627.58 26.9258C627.749 26.8086 627.883 26.6784 627.98 26.5352C628.091 26.4049 628.225 26.3398 628.381 26.3398C628.518 26.3398 628.638 26.3952 628.742 26.5059C628.846 26.61 628.898 26.7272 628.898 26.8574C628.898 26.9941 628.856 27.1016 628.771 27.1797C628.615 27.4206 628.397 27.6257 628.117 27.7949C627.837 27.9642 627.535 28.1009 627.209 28.2051C626.883 28.3158 626.555 28.3939 626.223 28.4395C625.891 28.4915 625.588 28.5176 625.314 28.5176C624.533 28.5176 623.807 28.3776 623.137 28.0977C622.466 27.8242 621.883 27.4466 621.389 26.9648C620.894 26.4831 620.503 25.9167 620.217 25.2656C619.937 24.6146 619.797 23.9115 619.797 23.1562C619.797 22.3294 619.921 21.5938 620.168 20.9492C620.415 20.2982 620.767 19.7513 621.223 19.3086C621.678 18.8594 622.232 18.5208 622.883 18.293C623.534 18.0586 624.266 17.9414 625.08 17.9414C625.848 17.974 626.509 18.1042 627.062 18.332C627.622 18.5599 628.081 18.8757 628.439 19.2793C628.798 19.6829 629.061 20.1712 629.23 20.7441C629.406 21.3105 629.494 21.9486 629.494 22.6582C629.494 22.821 629.491 22.9512 629.484 23.0488C629.478 23.14 629.475 23.1986 629.475 23.2246ZM648.645 23.4004C648.534 24.0124 648.449 24.6406 648.391 25.2852C648.332 25.9232 648.303 26.5872 648.303 27.2773V27.5215C648.303 27.6647 648.251 27.7884 648.146 27.8926C648.049 27.9902 647.935 28.0391 647.805 28.0391H647.766C647.16 28.0065 646.555 27.987 645.949 27.9805C645.344 27.9674 644.735 27.9609 644.123 27.9609C642.997 27.9609 641.877 27.9837 640.764 28.0293C639.65 28.0814 638.537 28.153 637.424 28.2441H637.385C637.242 28.2441 637.118 28.1921 637.014 28.0879C636.916 27.9837 636.867 27.8665 636.867 27.7363C636.867 27.6842 636.874 27.6387 636.887 27.5996C636.906 27.5605 636.926 27.5215 636.945 27.4824L644.26 14.9629H643.039C642.336 14.9629 641.643 14.9531 640.959 14.9336C640.275 14.9141 639.598 14.8815 638.928 14.8359C638.863 15.3893 638.771 15.9395 638.654 16.4863C638.544 17.0332 638.413 17.5833 638.264 18.1367C638.225 18.2474 638.16 18.3353 638.068 18.4004C637.977 18.4655 637.876 18.498 637.766 18.498C637.616 18.498 637.489 18.446 637.385 18.3418C637.287 18.2376 637.238 18.1237 637.238 18C637.238 17.9674 637.242 17.9414 637.248 17.9219C637.261 17.9023 637.268 17.8763 637.268 17.8438C637.443 17.2513 637.587 16.6556 637.697 16.0566C637.808 15.4512 637.889 14.8457 637.941 14.2402C637.961 14.11 638.02 14.0026 638.117 13.918C638.215 13.8268 638.329 13.7812 638.459 13.7812H638.508C639.25 13.8333 639.995 13.8724 640.744 13.8984C641.493 13.9245 642.258 13.9375 643.039 13.9375C643.833 13.9375 644.634 13.9245 645.441 13.8984C646.255 13.8724 647.089 13.8333 647.941 13.7812H647.961C648.111 13.7943 648.234 13.8496 648.332 13.9473C648.43 14.0384 648.479 14.1556 648.479 14.2988C648.479 14.3379 648.472 14.3835 648.459 14.4355C648.452 14.4811 648.433 14.5234 648.4 14.5625L641.281 26.9844C641.763 26.9583 642.242 26.9453 642.717 26.9453C643.199 26.9388 643.68 26.9355 644.162 26.9355C644.689 26.9355 645.21 26.9421 645.725 26.9551C646.239 26.9681 646.76 26.9844 647.287 27.0039C647.3 26.3268 647.333 25.6758 647.385 25.0508C647.437 24.4258 647.521 23.8073 647.639 23.1953C647.665 23.0781 647.723 22.9805 647.814 22.9023C647.912 22.8177 648.023 22.7754 648.146 22.7754C648.283 22.7754 648.404 22.8307 648.508 22.9414C648.612 23.0521 648.664 23.1725 648.664 23.3027C648.664 23.3418 648.658 23.3743 648.645 23.4004ZM659.826 23.1758C659.826 22.8568 659.79 22.5345 659.719 22.209C659.647 21.8835 659.543 21.5677 659.406 21.2617C659.27 20.9557 659.104 20.6693 658.908 20.4023C658.713 20.1354 658.492 19.9043 658.244 19.709C658.003 19.5072 657.736 19.3509 657.443 19.2402C657.157 19.123 656.851 19.0645 656.525 19.0645C656.161 19.0645 655.842 19.1263 655.568 19.25C655.301 19.3672 655.067 19.5299 654.865 19.7383C654.663 19.9401 654.497 20.1745 654.367 20.4414C654.237 20.7083 654.133 20.9915 654.055 21.291C653.977 21.5905 653.921 21.8932 653.889 22.1992C653.856 22.5052 653.84 22.7982 653.84 23.0781C653.84 23.3646 653.853 23.6706 653.879 23.9961C653.905 24.3151 653.951 24.6341 654.016 24.9531C654.081 25.2656 654.169 25.5684 654.279 25.8613C654.39 26.1543 654.533 26.4115 654.709 26.6328C654.885 26.8542 655.096 27.0299 655.344 27.1602C655.598 27.2904 655.897 27.3555 656.242 27.3555C656.809 27.3555 657.313 27.2383 657.756 27.0039C658.205 26.763 658.583 26.4473 658.889 26.0566C659.195 25.666 659.426 25.2201 659.582 24.7188C659.745 24.2174 659.826 23.7031 659.826 23.1758ZM660.842 23.1758C660.842 23.957 660.702 24.6732 660.422 25.3242C660.142 25.9753 659.764 26.5352 659.289 27.0039C658.814 27.4661 658.257 27.8275 657.619 28.0879C656.988 28.3483 656.32 28.4785 655.617 28.4785C654.823 28.4785 654.104 28.3516 653.459 28.0977C652.821 27.8503 652.274 27.4954 651.818 27.0332C651.363 26.571 651.011 26.0143 650.764 25.3633C650.523 24.7122 650.402 23.9831 650.402 23.1758C650.402 22.4076 650.536 21.6979 650.803 21.0469C651.07 20.3958 651.438 19.8359 651.906 19.3672C652.375 18.8919 652.925 18.5241 653.557 18.2637C654.195 17.9967 654.882 17.8633 655.617 17.8633C656.385 17.8633 657.089 18.0065 657.727 18.293C658.371 18.5729 658.924 18.957 659.387 19.4453C659.849 19.9271 660.207 20.4902 660.461 21.1348C660.715 21.7793 660.842 22.4596 660.842 23.1758ZM669.797 20.6367C669.699 20.3438 669.553 20.0898 669.357 19.875C669.162 19.6602 668.938 19.4811 668.684 19.3379C668.436 19.1947 668.169 19.0905 667.883 19.0254C667.596 18.9538 667.307 18.918 667.014 18.918C666.571 18.918 666.177 18.9896 665.832 19.1328C665.487 19.2695 665.184 19.4583 664.924 19.6992C664.663 19.9336 664.439 20.2103 664.25 20.5293C664.068 20.8418 663.918 21.1738 663.801 21.5254C663.684 21.8704 663.599 22.2253 663.547 22.5898C663.495 22.9544 663.469 23.306 663.469 23.6445C663.475 24.1198 663.54 24.5788 663.664 25.0215C663.794 25.4577 663.983 25.8483 664.23 26.1934C664.484 26.5319 664.79 26.8053 665.148 27.0137C665.513 27.2155 665.933 27.3164 666.408 27.3164C666.844 27.3164 667.232 27.2155 667.57 27.0137C667.909 26.8053 668.205 26.5449 668.459 26.2324C668.719 25.9199 668.938 25.5781 669.113 25.207C669.289 24.8294 669.429 24.4714 669.533 24.1328C669.637 23.7878 669.709 23.485 669.748 23.2246C669.794 22.9577 669.81 22.7819 669.797 22.6973V20.6367ZM674.455 27.9609H674.416C674.253 27.9479 674.09 27.9382 673.928 27.9316C673.771 27.9251 673.618 27.9219 673.469 27.9219C673.052 27.9219 672.661 27.9414 672.297 27.9805C671.932 28.0195 671.613 28.0618 671.34 28.1074C671.073 28.1595 670.858 28.2051 670.695 28.2441C670.539 28.2832 670.458 28.3027 670.451 28.3027C670.432 28.3158 670.409 28.3223 670.383 28.3223C670.357 28.3223 670.334 28.3223 670.314 28.3223C670.165 28.3223 670.041 28.2669 669.943 28.1562C669.846 28.0521 669.797 27.9349 669.797 27.8047V26.1445C669.647 26.457 669.455 26.7467 669.221 27.0137C668.993 27.2806 668.736 27.5117 668.449 27.707C668.163 27.9023 667.847 28.0553 667.502 28.166C667.163 28.2832 666.809 28.3418 666.438 28.3418C665.812 28.3418 665.256 28.2148 664.768 27.9609C664.279 27.707 663.863 27.3685 663.518 26.9453C663.179 26.5156 662.919 26.0176 662.736 25.4512C662.554 24.8848 662.46 24.2891 662.453 23.6641C662.453 23.1758 662.492 22.6973 662.57 22.2285C662.655 21.7533 662.782 21.304 662.951 20.8809C663.12 20.4512 663.329 20.054 663.576 19.6895C663.83 19.3249 664.126 19.0124 664.465 18.752C664.803 18.485 665.184 18.2767 665.607 18.127C666.031 17.9772 666.499 17.9023 667.014 17.9023C667.58 17.9023 668.098 17.987 668.566 18.1562C669.035 18.3255 669.445 18.5599 669.797 18.8594V14.9238C669.393 14.9043 669.051 14.8783 668.771 14.8457C668.498 14.8132 668.345 14.7969 668.312 14.7969C668.182 14.7773 668.072 14.7188 667.98 14.6211C667.896 14.5234 667.854 14.4095 667.854 14.2793C667.854 14.1361 667.906 14.0189 668.01 13.9277C668.12 13.8301 668.241 13.7812 668.371 13.7812H668.43C668.436 13.7812 668.511 13.791 668.654 13.8105C668.798 13.8236 668.983 13.8398 669.211 13.8594C669.445 13.8789 669.712 13.8984 670.012 13.918C670.311 13.931 670.617 13.9375 670.93 13.9375C671.236 13.9375 671.535 13.9277 671.828 13.9082C672.128 13.8822 672.401 13.8398 672.648 13.7812H672.775C672.925 13.7812 673.046 13.8333 673.137 13.9375C673.228 14.0352 673.273 14.1491 673.273 14.2793V26.8965H673.469C673.638 26.8965 673.807 26.8997 673.977 26.9062C674.152 26.9062 674.325 26.916 674.494 26.9355C674.637 26.9486 674.751 27.0039 674.836 27.1016C674.927 27.1992 674.973 27.3132 674.973 27.4434C674.973 27.5996 674.914 27.7266 674.797 27.8242C674.686 27.9154 674.572 27.9609 674.455 27.9609ZM682.229 28.2441C682.215 28.2441 682.199 28.2409 682.18 28.2344C682.167 28.2279 682.15 28.2246 682.131 28.2246C681.604 28.1204 681.102 28.0456 680.627 28C680.152 27.9479 679.68 27.9219 679.211 27.9219C678.736 27.9219 678.264 27.9479 677.795 28C677.326 28.0456 676.831 28.1204 676.311 28.2246C676.291 28.2246 676.275 28.2279 676.262 28.2344C676.249 28.2409 676.232 28.2441 676.213 28.2441C676.063 28.2441 675.939 28.1888 675.842 28.0781C675.751 27.9674 675.705 27.847 675.705 27.7168C675.705 27.5996 675.741 27.4922 675.812 27.3945C675.891 27.2969 675.988 27.2383 676.105 27.2188C676.333 27.1667 676.561 27.1276 676.789 27.1016C677.023 27.069 677.251 27.0365 677.473 27.0039V19.5234C677.062 19.5039 676.717 19.4779 676.438 19.4453C676.158 19.4128 676.001 19.3965 675.969 19.3965C675.839 19.377 675.731 19.3184 675.646 19.2207C675.568 19.123 675.529 19.0091 675.529 18.8789C675.529 18.7161 675.588 18.5924 675.705 18.5078C675.822 18.4232 675.936 18.3809 676.047 18.3809H676.105C676.112 18.3809 676.187 18.3906 676.33 18.4102C676.473 18.4232 676.659 18.4395 676.887 18.459C677.121 18.4785 677.385 18.498 677.678 18.5176C677.971 18.5306 678.273 18.5371 678.586 18.5371C678.898 18.5371 679.204 18.5273 679.504 18.5078C679.803 18.4818 680.077 18.4395 680.324 18.3809H680.432C680.581 18.3809 680.705 18.4329 680.803 18.5371C680.9 18.6348 680.949 18.7487 680.949 18.8789L680.93 27.0039C681.158 27.0365 681.385 27.069 681.613 27.1016C681.848 27.1276 682.085 27.1667 682.326 27.2188C682.45 27.2383 682.551 27.2969 682.629 27.3945C682.707 27.4922 682.746 27.5996 682.746 27.7168C682.746 27.8665 682.691 27.9902 682.58 28.0879C682.469 28.1921 682.352 28.2441 682.229 28.2441ZM680.812 15.4023C680.812 15.6432 680.767 15.8711 680.676 16.0859C680.585 16.2943 680.458 16.4766 680.295 16.6328C680.139 16.7891 679.953 16.9128 679.738 17.0039C679.53 17.0951 679.305 17.1406 679.064 17.1406C678.824 17.1406 678.596 17.0951 678.381 17.0039C678.173 16.9128 677.99 16.7891 677.834 16.6328C677.678 16.4766 677.554 16.2943 677.463 16.0859C677.372 15.8711 677.326 15.6432 677.326 15.4023C677.326 15.1615 677.372 14.9368 677.463 14.7285C677.554 14.5137 677.678 14.3281 677.834 14.1719C677.99 14.0156 678.173 13.8919 678.381 13.8008C678.596 13.7096 678.824 13.6641 679.064 13.6641C679.305 13.6641 679.53 13.7096 679.738 13.8008C679.953 13.8919 680.139 14.0156 680.295 14.1719C680.458 14.3281 680.585 14.5137 680.676 14.7285C680.767 14.9368 680.812 15.1615 680.812 15.4023ZM690.324 24.582C690.311 24.4714 690.301 24.3574 690.295 24.2402C690.288 24.123 690.285 24.0026 690.285 23.8789H689.924C689.663 23.8789 689.354 23.8984 688.996 23.9375C688.645 23.9766 688.28 24.0384 687.902 24.123C687.525 24.2077 687.15 24.3216 686.779 24.4648C686.408 24.6016 686.076 24.7708 685.783 24.9727C685.49 25.168 685.253 25.3991 685.07 25.666C684.895 25.9329 684.807 26.2389 684.807 26.584C684.807 26.7663 684.849 26.9225 684.934 27.0527C685.025 27.1829 685.135 27.2904 685.266 27.375C685.402 27.4531 685.552 27.5117 685.715 27.5508C685.878 27.5833 686.034 27.5996 686.184 27.5996C686.646 27.5996 687.082 27.5117 687.492 27.3359C687.909 27.1536 688.293 26.9193 688.645 26.6328C688.996 26.3398 689.312 26.0143 689.592 25.6562C689.872 25.2982 690.116 24.9401 690.324 24.582ZM695.002 27.9609H694.963C694.852 27.9479 694.738 27.9414 694.621 27.9414C694.504 27.9414 694.39 27.9414 694.279 27.9414C693.667 27.9414 693.078 27.9805 692.512 28.0586C691.952 28.1367 691.389 28.2572 690.822 28.4199C690.803 28.4199 690.783 28.4232 690.764 28.4297C690.744 28.4362 690.718 28.4395 690.686 28.4395C690.536 28.4395 690.412 28.3809 690.314 28.2637C690.223 28.153 690.178 28.0391 690.178 27.9219V27.8438C690.178 27.8307 690.194 27.7005 690.227 27.4531C690.259 27.1992 690.292 26.8477 690.324 26.3984C690.044 26.7109 689.745 27.0039 689.426 27.2773C689.113 27.5443 688.781 27.7786 688.43 27.9805C688.085 28.1758 687.727 28.3288 687.355 28.4395C686.984 28.5566 686.6 28.6152 686.203 28.6152C685.891 28.6152 685.588 28.5664 685.295 28.4688C685.002 28.3776 684.742 28.2441 684.514 28.0684C684.292 27.8926 684.113 27.681 683.977 27.4336C683.846 27.1797 683.781 26.8965 683.781 26.584C683.781 26.0957 683.885 25.666 684.094 25.2949C684.309 24.9238 684.589 24.6016 684.934 24.3281C685.279 24.0482 685.669 23.8171 686.105 23.6348C686.548 23.446 686.997 23.2962 687.453 23.1855C687.909 23.0684 688.352 22.987 688.781 22.9414C689.211 22.8893 689.592 22.8633 689.924 22.8633H690.158C690.158 22.4661 690.087 22.0788 689.943 21.7012C689.807 21.3236 689.611 20.9883 689.357 20.6953C689.11 20.4023 688.814 20.168 688.469 19.9922C688.124 19.8099 687.743 19.7188 687.326 19.7188C687.02 19.7188 686.721 19.8066 686.428 19.9824C686.135 20.1517 685.874 20.3698 685.646 20.6367C685.419 20.9036 685.233 21.2031 685.09 21.5352C684.953 21.8672 684.885 22.1895 684.885 22.502C684.885 22.6322 684.829 22.7428 684.719 22.834C684.615 22.9186 684.497 22.9609 684.367 22.9609C684.224 22.9609 684.1 22.9089 683.996 22.8047C683.892 22.694 683.84 22.5736 683.84 22.4434C683.84 22.1309 683.895 21.8053 684.006 21.4668C684.117 21.1217 684.276 20.7865 684.484 20.4609C684.699 20.1289 684.956 19.8164 685.256 19.5234C685.562 19.2305 685.907 18.9733 686.291 18.752C686.682 18.5241 687.108 18.3451 687.57 18.2148C688.033 18.0846 688.524 18.0195 689.045 18.0195C689.774 18.0195 690.396 18.1335 690.91 18.3613C691.431 18.5892 691.864 18.8984 692.209 19.2891C692.561 19.6797 692.837 20.1322 693.039 20.6465C693.241 21.1608 693.394 21.7044 693.498 22.2773C693.602 22.8503 693.667 23.4329 693.693 24.0254C693.726 24.6178 693.742 25.1842 693.742 25.7246C693.742 25.998 693.739 26.2324 693.732 26.4277C693.726 26.623 693.723 26.7858 693.723 26.916C693.82 26.916 693.918 26.9128 694.016 26.9062C694.12 26.8997 694.221 26.8965 694.318 26.8965C694.429 26.8965 694.543 26.8997 694.66 26.9062C694.784 26.9128 694.904 26.916 695.021 26.916C695.165 26.929 695.279 26.9844 695.363 27.082C695.454 27.1797 695.5 27.3001 695.5 27.4434C695.5 27.5801 695.451 27.7005 695.354 27.8047C695.262 27.9089 695.145 27.9609 695.002 27.9609ZM705.412 21.5156C705.393 21.6458 705.331 21.7533 705.227 21.8379C705.129 21.9225 705.015 21.9648 704.885 21.9648C704.755 21.9648 704.641 21.9193 704.543 21.8281C704.452 21.737 704.4 21.6198 704.387 21.4766C704.387 21.1966 704.328 20.9036 704.211 20.5977C704.094 20.2917 703.934 20.0117 703.732 19.7578C703.531 19.5039 703.299 19.2956 703.039 19.1328C702.779 18.9635 702.502 18.8789 702.209 18.8789C701.844 18.8789 701.522 18.957 701.242 19.1133C700.962 19.263 700.718 19.4648 700.51 19.7188C700.301 19.9727 700.129 20.2624 699.992 20.5879C699.855 20.9134 699.745 21.2487 699.66 21.5938C699.576 21.9323 699.514 22.2676 699.475 22.5996C699.442 22.9316 699.426 23.2311 699.426 23.498C699.426 23.9538 699.475 24.4095 699.572 24.8652C699.676 25.321 699.833 25.7311 700.041 26.0957C700.249 26.4538 700.516 26.7467 700.842 26.9746C701.167 27.2025 701.555 27.3164 702.004 27.3164C702.336 27.3164 702.648 27.2415 702.941 27.0918C703.234 26.9421 703.495 26.75 703.723 26.5156C703.957 26.2747 704.156 26.0111 704.318 25.7246C704.481 25.4382 704.598 25.1582 704.67 24.8848C704.702 24.7611 704.761 24.6602 704.846 24.582C704.937 24.5039 705.044 24.4648 705.168 24.4648C705.311 24.4648 705.432 24.5202 705.529 24.6309C705.633 24.735 705.686 24.8522 705.686 24.9824C705.686 25.0215 705.679 25.054 705.666 25.0801C705.62 25.2949 705.542 25.5293 705.432 25.7832C705.321 26.0371 705.174 26.291 704.992 26.5449C704.816 26.7988 704.602 27.0462 704.348 27.2871C704.094 27.5215 703.804 27.7298 703.479 27.9121C703.153 28.0944 702.792 28.2409 702.395 28.3516C701.997 28.4622 701.561 28.5176 701.086 28.5176C700.337 28.5176 699.647 28.3906 699.016 28.1367C698.384 27.8893 697.84 27.541 697.385 27.0918C696.929 26.6361 696.571 26.0924 696.311 25.4609C696.057 24.8229 695.93 24.123 695.93 23.3613C695.93 22.541 696.04 21.7793 696.262 21.0762C696.49 20.373 696.818 19.7643 697.248 19.25C697.684 18.7357 698.218 18.332 698.85 18.0391C699.488 17.7461 700.22 17.5996 701.047 17.5996C701.789 17.5996 702.479 17.7493 703.117 18.0488C703.755 18.3418 704.279 18.7845 704.689 19.377L705.012 17.3848C705.031 17.2611 705.087 17.1602 705.178 17.082C705.275 17.0039 705.386 16.9648 705.51 16.9648C705.673 16.9648 705.799 17.0202 705.891 17.1309C705.982 17.2415 706.027 17.3522 706.027 17.4629V17.541L705.412 21.5156Z" fill="white"/>
<path d="M519.706 36.536L522.982 46H521.643L520.551 42.75H517.431L516.326 46H515.234L518.523 36.536H519.706ZM519.004 38.122L517.73 41.866H520.252L519.004 38.122ZM529.759 39.383C530.089 39.383 530.418 39.4393 530.747 39.552C531.085 39.656 531.415 39.8207 531.735 40.046L531.15 40.8C530.908 40.6007 530.669 40.4577 530.435 40.371C530.201 40.2757 529.976 40.228 529.759 40.228C529.413 40.228 529.101 40.332 528.823 40.54C528.546 40.748 528.325 41.0427 528.16 41.424C528.004 41.8053 527.926 42.2517 527.926 42.763C527.926 43.5777 528.108 44.2017 528.472 44.635C528.845 45.0683 529.313 45.285 529.876 45.285C530.128 45.285 530.37 45.246 530.604 45.168C530.847 45.09 531.098 44.9773 531.358 44.83L531.709 45.519C531.363 45.7357 531.029 45.896 530.708 46C530.388 46.1127 530.028 46.169 529.629 46.169C529.075 46.169 528.581 46.0303 528.147 45.753C527.723 45.467 527.385 45.064 527.133 44.544C526.891 44.024 526.769 43.413 526.769 42.711C526.769 42.035 526.904 41.45 527.172 40.956C527.45 40.4533 527.814 40.0677 528.264 39.799C528.724 39.5217 529.222 39.383 529.759 39.383ZM535.495 46.169C534.862 46.169 534.329 46.013 533.896 45.701C533.471 45.3803 533.15 44.9643 532.934 44.453C532.726 43.9417 532.622 43.3957 532.622 42.815C532.622 42.2343 532.734 41.684 532.96 41.164C533.194 40.6353 533.532 40.2063 533.974 39.877C534.416 39.5477 534.949 39.383 535.573 39.383C536.214 39.383 536.747 39.539 537.172 39.851C537.605 40.163 537.926 40.5747 538.134 41.086C538.35 41.5973 538.459 42.1477 538.459 42.737C538.459 43.3263 538.346 43.8853 538.121 44.414C537.895 44.934 537.562 45.3587 537.12 45.688C536.678 46.0087 536.136 46.169 535.495 46.169ZM535.508 45.35C535.846 45.35 536.127 45.272 536.353 45.116C536.587 44.9513 536.773 44.739 536.912 44.479C537.059 44.219 537.163 43.9417 537.224 43.647C537.284 43.3437 537.315 43.0533 537.315 42.776C537.315 42.49 537.284 42.1997 537.224 41.905C537.172 41.6017 537.081 41.3243 536.951 41.073C536.821 40.813 536.639 40.605 536.405 40.449C536.179 40.2843 535.898 40.202 535.56 40.202C535.222 40.202 534.936 40.2843 534.702 40.449C534.476 40.605 534.294 40.813 534.156 41.073C534.017 41.333 533.917 41.6147 533.857 41.918C533.796 42.2127 533.766 42.4987 533.766 42.776C533.766 43.0447 533.796 43.3307 533.857 43.634C533.917 43.9287 534.013 44.206 534.143 44.466C534.281 44.726 534.463 44.9383 534.689 45.103C534.914 45.2677 535.187 45.35 535.508 45.35ZM542.503 39.396C542.798 39.396 543.093 39.4437 543.387 39.539C543.682 39.6343 543.938 39.7817 544.154 39.981C544.146 39.8597 544.137 39.7427 544.128 39.63C544.128 39.5087 544.128 39.3917 544.128 39.279V36.861L543.946 36.094H545.194V44.141C545.194 44.4097 545.225 44.7217 545.285 45.077C545.355 45.4323 545.459 45.7313 545.597 45.974L544.453 46.117C544.393 45.9697 544.341 45.8223 544.297 45.675C544.254 45.5277 544.224 45.3803 544.206 45.233C543.981 45.5277 543.699 45.7573 543.361 45.922C543.023 46.0867 542.668 46.169 542.295 46.169C541.845 46.169 541.45 46.0737 541.112 45.883C540.774 45.6923 540.493 45.4367 540.267 45.116C540.051 44.7867 539.886 44.427 539.773 44.037C539.669 43.6383 539.617 43.2353 539.617 42.828C539.617 42.2387 539.721 41.684 539.929 41.164C540.146 40.6353 540.467 40.2107 540.891 39.89C541.316 39.5607 541.853 39.396 542.503 39.396ZM542.529 40.28C542.079 40.28 541.723 40.4057 541.463 40.657C541.203 40.9083 541.021 41.2247 540.917 41.606C540.813 41.9873 540.761 42.3687 540.761 42.75C540.761 43.14 540.818 43.5257 540.93 43.907C541.052 44.2883 541.247 44.6047 541.515 44.856C541.793 45.0987 542.161 45.22 542.62 45.22C542.924 45.22 543.201 45.1333 543.452 44.96C543.712 44.778 543.938 44.5787 544.128 44.362V42.178C544.128 41.8313 544.072 41.515 543.959 41.229C543.855 40.943 543.686 40.7133 543.452 40.54C543.218 40.3667 542.911 40.28 542.529 40.28ZM549.791 39.383C550.571 39.383 551.161 39.617 551.559 40.085C551.967 40.5443 552.17 41.151 552.17 41.905C552.17 42.0263 552.162 42.152 552.144 42.282C552.136 42.4033 552.123 42.5333 552.105 42.672H547.997C547.997 43.4953 548.179 44.1323 548.543 44.583C548.907 45.0337 549.393 45.259 549.999 45.259C550.493 45.259 551.039 45.103 551.637 44.791L552.04 45.441C551.737 45.6837 551.395 45.8657 551.013 45.987C550.632 46.1083 550.246 46.169 549.856 46.169C549.18 46.169 548.617 46.0087 548.166 45.688C547.724 45.3673 547.395 44.9513 547.178 44.44C546.962 43.9287 546.853 43.3957 546.853 42.841C546.853 42.4077 546.914 41.9873 547.035 41.58C547.157 41.1727 547.339 40.8043 547.581 40.475C547.833 40.137 548.14 39.8727 548.504 39.682C548.868 39.4827 549.297 39.383 549.791 39.383ZM549.687 40.202C549.393 40.202 549.133 40.2843 548.907 40.449C548.682 40.6137 548.5 40.826 548.361 41.086C548.223 41.3373 548.127 41.5973 548.075 41.866H551.039C551.057 41.3287 550.944 40.917 550.701 40.631C550.459 40.345 550.121 40.202 549.687 40.202ZM559.172 39.396C559.467 39.396 559.762 39.4437 560.056 39.539C560.351 39.6343 560.607 39.7817 560.823 39.981C560.815 39.8597 560.806 39.7427 560.797 39.63C560.797 39.5087 560.797 39.3917 560.797 39.279V36.861L560.615 36.094H561.863V44.141C561.863 44.4097 561.894 44.7217 561.954 45.077C562.024 45.4323 562.128 45.7313 562.266 45.974L561.122 46.117C561.062 45.9697 561.01 45.8223 560.966 45.675C560.923 45.5277 560.893 45.3803 560.875 45.233C560.65 45.5277 560.368 45.7573 560.03 45.922C559.692 46.0867 559.337 46.169 558.964 46.169C558.514 46.169 558.119 46.0737 557.781 45.883C557.443 45.6923 557.162 45.4367 556.936 45.116C556.72 44.7867 556.555 44.427 556.442 44.037C556.338 43.6383 556.286 43.2353 556.286 42.828C556.286 42.2387 556.39 41.684 556.598 41.164C556.815 40.6353 557.136 40.2107 557.56 39.89C557.985 39.5607 558.522 39.396 559.172 39.396ZM559.198 40.28C558.748 40.28 558.392 40.4057 558.132 40.657C557.872 40.9083 557.69 41.2247 557.586 41.606C557.482 41.9873 557.43 42.3687 557.43 42.75C557.43 43.14 557.487 43.5257 557.599 43.907C557.721 44.2883 557.916 44.6047 558.184 44.856C558.462 45.0987 558.83 45.22 559.289 45.22C559.593 45.22 559.87 45.1333 560.121 44.96C560.381 44.778 560.607 44.5787 560.797 44.362V42.178C560.797 41.8313 560.741 41.515 560.628 41.229C560.524 40.943 560.355 40.7133 560.121 40.54C559.887 40.3667 559.58 40.28 559.198 40.28ZM566.46 39.383C567.24 39.383 567.83 39.617 568.228 40.085C568.636 40.5443 568.839 41.151 568.839 41.905C568.839 42.0263 568.831 42.152 568.813 42.282C568.805 42.4033 568.792 42.5333 568.774 42.672H564.666C564.666 43.4953 564.848 44.1323 565.212 44.583C565.576 45.0337 566.062 45.259 566.668 45.259C567.162 45.259 567.708 45.103 568.306 44.791L568.709 45.441C568.406 45.6837 568.064 45.8657 567.682 45.987C567.301 46.1083 566.915 46.169 566.525 46.169C565.849 46.169 565.286 46.0087 564.835 45.688C564.393 45.3673 564.064 44.9513 563.847 44.44C563.631 43.9287 563.522 43.3957 563.522 42.841C563.522 42.4077 563.583 41.9873 563.704 41.58C563.826 41.1727 564.008 40.8043 564.25 40.475C564.502 40.137 564.809 39.8727 565.173 39.682C565.537 39.4827 565.966 39.383 566.46 39.383ZM566.356 40.202C566.062 40.202 565.802 40.2843 565.576 40.449C565.351 40.6137 565.169 40.826 565.03 41.086C564.892 41.3373 564.796 41.5973 564.744 41.866H567.708C567.726 41.3287 567.613 40.917 567.37 40.631C567.128 40.345 566.79 40.202 566.356 40.202ZM571.181 39.448C571.302 39.7427 571.385 40.0417 571.428 40.345C571.662 40.1197 571.948 39.903 572.286 39.695C572.624 39.487 572.966 39.383 573.313 39.383C573.729 39.383 574.084 39.4697 574.379 39.643C574.674 39.8077 574.912 40.0807 575.094 40.462C575.354 40.202 575.662 39.9593 576.017 39.734C576.372 39.5 576.736 39.383 577.109 39.383C577.828 39.383 578.335 39.5997 578.63 40.033C578.933 40.4663 579.085 41.0167 579.085 41.684V46H578.006V42.035C578.006 41.775 577.984 41.515 577.941 41.255C577.906 40.995 577.811 40.7783 577.655 40.605C577.508 40.4317 577.265 40.345 576.927 40.345C576.624 40.345 576.325 40.4447 576.03 40.644C575.735 40.8347 575.488 41.0297 575.289 41.229V46H574.21V42.035C574.21 41.7663 574.188 41.5063 574.145 41.255C574.11 40.995 574.015 40.7783 573.859 40.605C573.712 40.4317 573.469 40.345 573.131 40.345C572.94 40.345 572.745 40.3927 572.546 40.488C572.347 40.5747 572.156 40.6873 571.974 40.826C571.792 40.956 571.632 41.0817 571.493 41.203V46H570.414V41.307C570.414 41.0383 570.379 40.7437 570.31 40.423C570.249 40.0937 570.145 39.812 569.998 39.578L571.181 39.448ZM583.597 46.169C582.965 46.169 582.432 46.013 581.998 45.701C581.574 45.3803 581.253 44.9643 581.036 44.453C580.828 43.9417 580.724 43.3957 580.724 42.815C580.724 42.2343 580.837 41.684 581.062 41.164C581.296 40.6353 581.634 40.2063 582.076 39.877C582.518 39.5477 583.051 39.383 583.675 39.383C584.317 39.383 584.85 39.539 585.274 39.851C585.708 40.163 586.028 40.5747 586.236 41.086C586.453 41.5973 586.561 42.1477 586.561 42.737C586.561 43.3263 586.449 43.8853 586.223 44.414C585.998 44.934 585.664 45.3587 585.222 45.688C584.78 46.0087 584.239 46.169 583.597 46.169ZM583.61 45.35C583.948 45.35 584.23 45.272 584.455 45.116C584.689 44.9513 584.876 44.739 585.014 44.479C585.162 44.219 585.266 43.9417 585.326 43.647C585.387 43.3437 585.417 43.0533 585.417 42.776C585.417 42.49 585.387 42.1997 585.326 41.905C585.274 41.6017 585.183 41.3243 585.053 41.073C584.923 40.813 584.741 40.605 584.507 40.449C584.282 40.2843 584 40.202 583.662 40.202C583.324 40.202 583.038 40.2843 582.804 40.449C582.579 40.605 582.397 40.813 582.258 41.073C582.12 41.333 582.02 41.6147 581.959 41.918C581.899 42.2127 581.868 42.4987 581.868 42.776C581.868 43.0447 581.899 43.3307 581.959 43.634C582.02 43.9287 582.115 44.206 582.245 44.466C582.384 44.726 582.566 44.9383 582.791 45.103C583.017 45.2677 583.29 45.35 583.61 45.35ZM588.84 39.435C588.901 39.5823 588.953 39.734 588.996 39.89C589.039 40.046 589.07 40.202 589.087 40.358C589.347 40.098 589.655 39.8727 590.01 39.682C590.365 39.4827 590.729 39.383 591.102 39.383C591.821 39.383 592.328 39.5997 592.623 40.033C592.926 40.4663 593.078 41.0167 593.078 41.684V46H592.012V42.035C592.012 41.7663 591.99 41.502 591.947 41.242C591.912 40.982 591.817 40.7697 591.661 40.605C591.514 40.4317 591.267 40.345 590.92 40.345C590.599 40.345 590.279 40.436 589.958 40.618C589.646 40.7913 589.377 40.9863 589.152 41.203V46H588.086V41.424C588.086 41.2507 588.073 41.0513 588.047 40.826C588.021 40.592 587.978 40.3667 587.917 40.15C587.856 39.9247 587.77 39.7383 587.657 39.591L588.84 39.435ZM597.327 39.383C597.622 39.383 597.912 39.422 598.198 39.5C598.493 39.5693 598.762 39.682 599.004 39.838L598.627 40.67C598.437 40.514 598.224 40.397 597.99 40.319C597.756 40.241 597.527 40.202 597.301 40.202C596.981 40.202 596.699 40.2757 596.456 40.423C596.222 40.5703 596.105 40.7913 596.105 41.086C596.105 41.4067 596.209 41.645 596.417 41.801C596.634 41.957 596.89 42.1043 597.184 42.243C597.47 42.373 597.756 42.5203 598.042 42.685C598.337 42.841 598.584 43.0447 598.783 43.296C598.983 43.5387 599.082 43.868 599.082 44.284C599.082 44.7173 598.974 45.077 598.757 45.363C598.549 45.6403 598.272 45.844 597.925 45.974C597.587 46.104 597.219 46.169 596.82 46.169C596.474 46.169 596.127 46.1213 595.78 46.026C595.434 45.9307 595.113 45.7963 594.818 45.623L595.273 44.83C595.481 44.986 595.715 45.1117 595.975 45.207C596.235 45.3023 596.487 45.35 596.729 45.35C597.059 45.35 597.345 45.272 597.587 45.116C597.839 44.96 597.964 44.726 597.964 44.414C597.964 44.1973 597.895 44.0197 597.756 43.881C597.626 43.7337 597.457 43.6037 597.249 43.491C597.041 43.3783 596.825 43.27 596.599 43.166C596.339 43.036 596.084 42.8973 595.832 42.75C595.59 42.594 595.39 42.399 595.234 42.165C595.078 41.931 595 41.632 595 41.268C595 40.852 595.109 40.5053 595.325 40.228C595.551 39.9507 595.841 39.7427 596.196 39.604C596.552 39.4567 596.929 39.383 597.327 39.383ZM602.302 37.693C602.242 37.9877 602.185 38.2953 602.133 38.616C602.09 38.928 602.06 39.2357 602.042 39.539H603.732L603.511 40.358H602.042V44.492C602.042 44.7433 602.086 44.9427 602.172 45.09C602.268 45.2373 602.454 45.311 602.731 45.311C602.87 45.311 603.009 45.298 603.147 45.272C603.286 45.246 603.42 45.2157 603.55 45.181L603.732 45.909C603.516 45.9697 603.308 46.0217 603.108 46.065C602.918 46.117 602.697 46.143 602.445 46.143C601.891 46.143 601.505 45.9957 601.288 45.701C601.072 45.4063 600.963 44.9947 600.963 44.466V40.358H600.001V39.708C600.348 39.6993 600.621 39.5867 600.82 39.37C601.02 39.1447 601.171 38.876 601.275 38.564C601.379 38.252 601.457 37.9617 601.509 37.693H602.302ZM605.801 39.422C605.957 39.8033 606.057 40.2063 606.1 40.631C606.325 40.2757 606.629 39.9853 607.01 39.76C607.391 39.5347 607.794 39.422 608.219 39.422L607.959 40.566C607.543 40.566 607.188 40.6743 606.893 40.891C606.607 41.1077 606.351 41.3807 606.126 41.71V46H605.047V41.32C605.047 41.0687 605.012 40.7697 604.943 40.423C604.882 40.0677 604.778 39.7817 604.631 39.565L605.801 39.422ZM611.625 39.383C612.31 39.383 612.825 39.5693 613.172 39.942C613.519 40.3147 613.692 40.839 613.692 41.515V44.752C613.692 44.934 613.727 45.0597 613.796 45.129C613.865 45.1897 613.948 45.22 614.043 45.22C614.121 45.22 614.203 45.2113 614.29 45.194C614.377 45.168 614.459 45.1377 614.537 45.103L614.771 45.805C614.632 45.883 614.455 45.9523 614.238 46.013C614.03 46.0823 613.813 46.117 613.588 46.117C613.363 46.117 613.159 46.0563 612.977 45.935C612.795 45.805 612.682 45.571 612.639 45.233C612.388 45.5017 612.093 45.7227 611.755 45.896C611.417 46.0607 611.062 46.143 610.689 46.143C610.178 46.143 609.753 45.9913 609.415 45.688C609.077 45.3847 608.908 44.9687 608.908 44.44C608.908 43.946 609.025 43.5517 609.259 43.257C609.502 42.9623 609.814 42.7413 610.195 42.594C610.576 42.4467 610.979 42.347 611.404 42.295C611.837 42.243 612.24 42.217 612.613 42.217V41.528C612.613 41.164 612.539 40.8563 612.392 40.605C612.245 40.3537 611.959 40.228 611.534 40.228C611.205 40.228 610.888 40.293 610.585 40.423C610.282 40.553 609.978 40.7437 609.675 40.995L609.142 40.228C609.497 39.942 609.887 39.7297 610.312 39.591C610.737 39.4523 611.174 39.383 611.625 39.383ZM612.613 43.062C612.379 43.062 612.115 43.075 611.82 43.101C611.525 43.1183 611.239 43.1703 610.962 43.257C610.685 43.335 610.455 43.465 610.273 43.647C610.1 43.829 610.013 44.0803 610.013 44.401C610.013 44.687 610.108 44.8993 610.299 45.038C610.498 45.168 610.745 45.233 611.04 45.233C611.352 45.233 611.625 45.1463 611.859 44.973C612.093 44.7997 612.275 44.5787 612.405 44.31C612.544 44.0413 612.613 43.764 612.613 43.478V43.062ZM617.321 37.693C617.26 37.9877 617.204 38.2953 617.152 38.616C617.108 38.928 617.078 39.2357 617.061 39.539H618.751L618.53 40.358H617.061V44.492C617.061 44.7433 617.104 44.9427 617.191 45.09C617.286 45.2373 617.472 45.311 617.75 45.311C617.888 45.311 618.027 45.298 618.166 45.272C618.304 45.246 618.439 45.2157 618.569 45.181L618.751 45.909C618.534 45.9697 618.326 46.0217 618.127 46.065C617.936 46.117 617.715 46.143 617.464 46.143C616.909 46.143 616.523 45.9957 616.307 45.701C616.09 45.4063 615.982 44.9947 615.982 44.466V40.358H615.02V39.708C615.366 39.6993 615.639 39.5867 615.839 39.37C616.038 39.1447 616.19 38.876 616.294 38.564C616.398 38.252 616.476 37.9617 616.528 37.693H617.321ZM621.418 37.368C621.418 37.5847 621.34 37.771 621.184 37.927C621.036 38.083 620.85 38.161 620.625 38.161C620.408 38.161 620.222 38.083 620.066 37.927C619.918 37.771 619.845 37.5847 619.845 37.368C619.845 37.1513 619.918 36.965 620.066 36.809C620.222 36.653 620.408 36.575 620.625 36.575C620.841 36.575 621.028 36.653 621.184 36.809C621.34 36.965 621.418 37.1513 621.418 37.368ZM621.184 39.539V46H620.105V40.306L619.949 39.539H621.184ZM625.72 46.169C625.088 46.169 624.555 46.013 624.121 45.701C623.697 45.3803 623.376 44.9643 623.159 44.453C622.951 43.9417 622.847 43.3957 622.847 42.815C622.847 42.2343 622.96 41.684 623.185 41.164C623.419 40.6353 623.757 40.2063 624.199 39.877C624.641 39.5477 625.174 39.383 625.798 39.383C626.44 39.383 626.973 39.539 627.397 39.851C627.831 40.163 628.151 40.5747 628.359 41.086C628.576 41.5973 628.684 42.1477 628.684 42.737C628.684 43.3263 628.572 43.8853 628.346 44.414C628.121 44.934 627.787 45.3587 627.345 45.688C626.903 46.0087 626.362 46.169 625.72 46.169ZM625.733 45.35C626.071 45.35 626.353 45.272 626.578 45.116C626.812 44.9513 626.999 44.739 627.137 44.479C627.285 44.219 627.389 43.9417 627.449 43.647C627.51 43.3437 627.54 43.0533 627.54 42.776C627.54 42.49 627.51 42.1997 627.449 41.905C627.397 41.6017 627.306 41.3243 627.176 41.073C627.046 40.813 626.864 40.605 626.63 40.449C626.405 40.2843 626.123 40.202 625.785 40.202C625.447 40.202 625.161 40.2843 624.927 40.449C624.702 40.605 624.52 40.813 624.381 41.073C624.243 41.333 624.143 41.6147 624.082 41.918C624.022 42.2127 623.991 42.4987 623.991 42.776C623.991 43.0447 624.022 43.3307 624.082 43.634C624.143 43.9287 624.238 44.206 624.368 44.466C624.507 44.726 624.689 44.9383 624.914 45.103C625.14 45.2677 625.413 45.35 625.733 45.35ZM630.963 39.435C631.024 39.5823 631.076 39.734 631.119 39.89C631.162 40.046 631.193 40.202 631.21 40.358C631.47 40.098 631.778 39.8727 632.133 39.682C632.488 39.4827 632.852 39.383 633.225 39.383C633.944 39.383 634.451 39.5997 634.746 40.033C635.049 40.4663 635.201 41.0167 635.201 41.684V46H634.135V42.035C634.135 41.7663 634.113 41.502 634.07 41.242C634.035 40.982 633.94 40.7697 633.784 40.605C633.637 40.4317 633.39 40.345 633.043 40.345C632.722 40.345 632.402 40.436 632.081 40.618C631.769 40.7913 631.5 40.9863 631.275 41.203V46H630.209V41.424C630.209 41.2507 630.196 41.0513 630.17 40.826C630.144 40.592 630.101 40.3667 630.04 40.15C629.979 39.9247 629.893 39.7383 629.78 39.591L630.963 39.435ZM643.213 35.99C643.673 35.99 644.093 36.0983 644.474 36.315L644.175 37.121C644.063 37.017 643.915 36.939 643.733 36.887C643.56 36.8263 643.395 36.796 643.239 36.796C642.858 36.796 642.555 36.8827 642.329 37.056C642.113 37.2293 641.948 37.459 641.835 37.745C641.731 38.0223 641.662 38.3213 641.627 38.642C641.593 38.954 641.575 39.253 641.575 39.539H643.434L643.2 40.345H641.575V46H640.509V40.345H639.534V39.669C639.673 39.6517 639.812 39.6387 639.95 39.63C640.098 39.6127 640.223 39.5693 640.327 39.5C640.431 39.4307 640.501 39.3137 640.535 39.149C640.622 38.7503 640.687 38.4297 640.73 38.187C640.774 37.9357 640.834 37.7147 640.912 37.524C640.99 37.3333 641.116 37.1253 641.289 36.9C641.506 36.6227 641.775 36.4017 642.095 36.237C642.416 36.0723 642.789 35.99 643.213 35.99ZM646.465 46.169C645.832 46.169 645.299 46.013 644.866 45.701C644.441 45.3803 644.12 44.9643 643.904 44.453C643.696 43.9417 643.592 43.3957 643.592 42.815C643.592 42.2343 643.704 41.684 643.93 41.164C644.164 40.6353 644.502 40.2063 644.944 39.877C645.386 39.5477 645.919 39.383 646.543 39.383C647.184 39.383 647.717 39.539 648.142 39.851C648.575 40.163 648.896 40.5747 649.104 41.086C649.32 41.5973 649.429 42.1477 649.429 42.737C649.429 43.3263 649.316 43.8853 649.091 44.414C648.865 44.934 648.532 45.3587 648.09 45.688C647.648 46.0087 647.106 46.169 646.465 46.169ZM646.478 45.35C646.816 45.35 647.097 45.272 647.323 45.116C647.557 44.9513 647.743 44.739 647.882 44.479C648.029 44.219 648.133 43.9417 648.194 43.647C648.254 43.3437 648.285 43.0533 648.285 42.776C648.285 42.49 648.254 42.1997 648.194 41.905C648.142 41.6017 648.051 41.3243 647.921 41.073C647.791 40.813 647.609 40.605 647.375 40.449C647.149 40.2843 646.868 40.202 646.53 40.202C646.192 40.202 645.906 40.2843 645.672 40.449C645.446 40.605 645.264 40.813 645.126 41.073C644.987 41.333 644.887 41.6147 644.827 41.918C644.766 42.2127 644.736 42.4987 644.736 42.776C644.736 43.0447 644.766 43.3307 644.827 43.634C644.887 43.9287 644.983 44.206 645.113 44.466C645.251 44.726 645.433 44.9383 645.659 45.103C645.884 45.2677 646.157 45.35 646.478 45.35ZM651.72 39.422C651.876 39.8033 651.976 40.2063 652.019 40.631C652.244 40.2757 652.548 39.9853 652.929 39.76C653.31 39.5347 653.713 39.422 654.138 39.422L653.878 40.566C653.462 40.566 653.107 40.6743 652.812 40.891C652.526 41.1077 652.27 41.3807 652.045 41.71V46H650.966V41.32C650.966 41.0687 650.931 40.7697 650.862 40.423C650.801 40.0677 650.697 39.7817 650.55 39.565L651.72 39.422ZM658.364 36.536H661.198C661.822 36.536 662.373 36.6357 662.849 36.835C663.335 37.0257 663.712 37.329 663.98 37.745C664.249 38.161 664.383 38.7113 664.383 39.396C664.383 40.0287 664.24 40.5573 663.954 40.982C663.668 41.4067 663.287 41.7273 662.81 41.944C662.334 42.152 661.801 42.256 661.211 42.256H659.768V46H658.559V37.394L658.364 36.536ZM659.768 37.433V41.372H661.185C661.783 41.372 662.256 41.19 662.602 40.826C662.949 40.462 663.122 39.9853 663.122 39.396C663.122 38.7807 662.958 38.2997 662.628 37.953C662.299 37.6063 661.822 37.433 661.198 37.433H659.768ZM671.861 41.528H667.259V46H666.05V37.394C666.05 37.3853 666.033 37.316 665.998 37.186C665.972 37.056 665.946 36.9217 665.92 36.783C665.894 36.6443 665.877 36.562 665.868 36.536H667.259V40.644H671.861V36.536H673.07V46H671.861V41.528ZM675.122 36.536H677.956C678.58 36.536 679.131 36.6357 679.607 36.835C680.093 37.0257 680.47 37.329 680.738 37.745C681.007 38.161 681.141 38.7113 681.141 39.396C681.141 40.0287 680.998 40.5573 680.712 40.982C680.426 41.4067 680.045 41.7273 679.568 41.944C679.092 42.152 678.559 42.256 677.969 42.256H676.526V46H675.317V37.394L675.122 36.536ZM676.526 37.433V41.372H677.943C678.541 41.372 679.014 41.19 679.36 40.826C679.707 40.462 679.88 39.9853 679.88 39.396C679.88 38.7807 679.716 38.2997 679.386 37.953C679.057 37.6063 678.58 37.433 677.956 37.433H676.526Z" fill="#FFD700"/>
<rect x="414" y="-5" width="7" height="63" fill="url(#paint0_linear)"/>
<rect x="778" y="-3" width="7" height="63" fill="url(#paint1_linear)"/>
<rect x="428" y="-3" width="3" height="63" fill="url(#paint2_linear)"/>
<rect x="768" y="-3" width="3" height="63" fill="url(#paint3_linear)"/>
</g>
<defs>
<linearGradient id="paint0_linear" x1="417.5" y1="-5" x2="417.5" y2="58" gradientUnits="userSpaceOnUse">
<stop stop-color="#D1652B"/>
<stop offset="1" stop-color="#DD9539" stop-opacity="0"/>
</linearGradient>
<linearGradient id="paint1_linear" x1="781.5" y1="-3" x2="781.5" y2="60" gradientUnits="userSpaceOnUse">
<stop stop-color="#DD9539"/>
<stop offset="1" stop-color="#DD9539" stop-opacity="0"/>
</linearGradient>
<linearGradient id="paint2_linear" x1="429.5" y1="-3" x2="429.5" y2="60" gradientUnits="userSpaceOnUse">
<stop stop-color="#DD9539"/>
<stop offset="1" stop-color="#DD9539" stop-opacity="0"/>
</linearGradient>
<linearGradient id="paint3_linear" x1="769.5" y1="-3" x2="769.5" y2="60" gradientUnits="userSpaceOnUse">
<stop stop-color="#DD9539"/>
<stop offset="1" stop-color="#DD9539" stop-opacity="0"/>
</linearGradient>
<clipPath id="clip0">
<rect width="1200" height="60" fill="white"/>
</clipPath>
</defs>
</svg>
