<svg width="468" height="60" viewBox="0 0 468 60" fill="none" xmlns="http://www.w3.org/2000/svg">
<g clip-path="url(#clip0)">
<rect width="468" height="60" fill="#7C0000"/>
<path d="M147.881 19.6777C147.881 19.6973 147.884 19.7233 147.891 19.7559C147.897 19.7819 147.9 19.8112 147.9 19.8438C147.9 19.9805 147.845 20.1009 147.734 20.2051C147.63 20.3092 147.513 20.3613 147.383 20.3613C147.279 20.3613 147.181 20.3288 147.09 20.2637C147.005 20.1986 146.943 20.1107 146.904 20C146.82 19.7526 146.738 19.4889 146.66 19.209C146.582 18.9225 146.51 18.6426 146.445 18.3691C146.387 18.0957 146.331 17.8385 146.279 17.5977C146.227 17.3568 146.188 17.1517 146.162 16.9824C145.791 17.002 145.368 17.0182 144.893 17.0312C144.417 17.0378 143.906 17.041 143.359 17.041L143.037 29.1016C143.571 29.1211 144.085 29.1602 144.58 29.2188C144.723 29.2318 144.834 29.2871 144.912 29.3848C144.997 29.4759 145.039 29.5866 145.039 29.7168C145.039 29.8796 144.984 30.0065 144.873 30.0977C144.769 30.1953 144.658 30.2441 144.541 30.2441H144.482C143.955 30.179 143.434 30.1335 142.92 30.1074C142.406 30.0879 141.891 30.0781 141.377 30.0781C140.856 30.0781 140.345 30.0879 139.844 30.1074C139.342 30.1335 138.841 30.179 138.34 30.2441H138.281C138.138 30.2441 138.014 30.1888 137.91 30.0781C137.812 29.9674 137.764 29.847 137.764 29.7168C137.764 29.5866 137.806 29.4759 137.891 29.3848C137.982 29.2871 138.092 29.2318 138.223 29.2188C138.724 29.1602 139.215 29.1211 139.697 29.1016L139.922 16.9824C139.368 16.9629 138.848 16.9401 138.359 16.9141C137.878 16.8815 137.445 16.849 137.061 16.8164C137.021 16.9922 136.973 17.207 136.914 17.4609C136.862 17.7148 136.8 17.985 136.729 18.2715C136.663 18.5579 136.595 18.8509 136.523 19.1504C136.452 19.4434 136.377 19.7201 136.299 19.9805C136.266 20.0911 136.204 20.1823 136.113 20.2539C136.029 20.3255 135.931 20.3613 135.82 20.3613C135.671 20.3613 135.547 20.3092 135.449 20.2051C135.352 20.0944 135.303 19.974 135.303 19.8438C135.303 19.8242 135.303 19.8014 135.303 19.7754C135.303 19.7428 135.309 19.7168 135.322 19.6973C135.42 19.3522 135.518 18.9746 135.615 18.5645C135.713 18.1543 135.801 17.7702 135.879 17.4121C135.964 17.054 136.032 16.7546 136.084 16.5137C136.136 16.2728 136.162 16.1491 136.162 16.1426C136.195 16.0189 136.253 15.9212 136.338 15.8496C136.429 15.778 136.536 15.7422 136.66 15.7422H136.738C137.077 15.7878 137.487 15.8268 137.969 15.8594C138.457 15.8919 138.981 15.9212 139.541 15.9473C140.107 15.9668 140.693 15.9831 141.299 15.9961C141.904 16.0091 142.497 16.0156 143.076 16.0156C143.786 16.0156 144.44 16.0091 145.039 15.9961C145.638 15.9766 146.139 15.9505 146.543 15.918H146.582C146.699 15.918 146.807 15.9603 146.904 16.0449C147.002 16.123 147.061 16.2207 147.08 16.3379C147.08 16.3444 147.09 16.3997 147.109 16.5039C147.129 16.6081 147.155 16.748 147.188 16.9238C147.22 17.0996 147.259 17.3014 147.305 17.5293C147.357 17.7572 147.412 17.9948 147.471 18.2422C147.529 18.4831 147.591 18.7305 147.656 18.9844C147.728 19.2318 147.803 19.4629 147.881 19.6777ZM160.82 29.8438C160.794 29.8438 160.775 29.8372 160.762 29.8242C160.534 29.7917 160.309 29.7689 160.088 29.7559C159.867 29.7428 159.645 29.7363 159.424 29.7363C159.092 29.7363 158.76 29.7526 158.428 29.7852C158.102 29.8177 157.773 29.8633 157.441 29.9219C157.428 29.9349 157.415 29.9414 157.402 29.9414C157.389 29.9414 157.376 29.9414 157.363 29.9414C157.214 29.9414 157.09 29.8893 156.992 29.7852C156.895 29.6745 156.846 29.554 156.846 29.4238C156.846 29.3001 156.885 29.1927 156.963 29.1016C157.041 29.0039 157.142 28.9421 157.266 28.916C157.728 28.8184 158.193 28.7598 158.662 28.7402C159.02 27.0931 159.199 25.6868 159.199 24.5215C159.199 24.0137 159.16 23.5384 159.082 23.0957C159.01 22.6465 158.877 22.2559 158.682 21.9238C158.493 21.5918 158.232 21.3281 157.9 21.1328C157.568 20.9375 157.142 20.8398 156.621 20.8398C156.328 20.8398 156.048 20.8952 155.781 21.0059C155.521 21.1165 155.277 21.2663 155.049 21.4551C154.827 21.6374 154.626 21.8522 154.443 22.0996C154.261 22.347 154.105 22.6074 153.975 22.8809C153.851 23.1478 153.753 23.4212 153.682 23.7012C153.617 23.9811 153.584 24.248 153.584 24.502L153.564 28.8574C153.792 28.877 154.02 28.9062 154.248 28.9453C154.482 28.9844 154.72 29.0299 154.961 29.082C155.085 29.1016 155.186 29.1602 155.264 29.2578C155.342 29.349 155.381 29.4564 155.381 29.5801C155.381 29.7298 155.326 29.8503 155.215 29.9414C155.111 30.0326 154.993 30.0781 154.863 30.0781H154.766C154.238 29.9805 153.737 29.9056 153.262 29.8535C152.786 29.8014 152.314 29.7754 151.846 29.7754C151.383 29.7754 150.915 29.8014 150.439 29.8535C149.964 29.9056 149.466 29.9805 148.945 30.0781H148.848C148.698 30.0781 148.574 30.0293 148.477 29.9316C148.385 29.8275 148.34 29.7103 148.34 29.5801C148.34 29.4564 148.376 29.349 148.447 29.2578C148.525 29.1602 148.623 29.1016 148.74 29.082C148.968 29.0299 149.196 28.9876 149.424 28.9551C149.658 28.9225 149.886 28.89 150.107 28.8574V17.2168C149.697 17.1973 149.352 17.1745 149.072 17.1484C148.792 17.1159 148.636 17.0996 148.604 17.0996C148.473 17.0801 148.366 17.0215 148.281 16.9238C148.203 16.8262 148.164 16.7122 148.164 16.582C148.164 16.4193 148.223 16.2956 148.34 16.2109C148.457 16.1263 148.571 16.084 148.682 16.084H148.74C148.747 16.084 148.822 16.0938 148.965 16.1133C149.108 16.1263 149.294 16.1426 149.521 16.1621C149.756 16.1816 150.02 16.2012 150.312 16.2207C150.605 16.2337 150.908 16.2402 151.221 16.2402C151.533 16.2402 151.839 16.2305 152.139 16.2109C152.438 16.1849 152.715 16.1426 152.969 16.084H153.066C153.216 16.084 153.34 16.1361 153.438 16.2402C153.535 16.3379 153.584 16.4518 153.584 16.582V21.543C153.955 20.9701 154.395 20.5404 154.902 20.2539C155.417 19.9674 155.99 19.8242 156.621 19.8242C157.298 19.8242 157.865 19.9479 158.32 20.1953C158.783 20.4427 159.154 20.778 159.434 21.2012C159.72 21.6243 159.922 22.1257 160.039 22.7051C160.163 23.278 160.225 23.89 160.225 24.541C160.225 25.6934 160.052 27.0866 159.707 28.7207C159.909 28.7207 160.107 28.7305 160.303 28.75C160.505 28.763 160.7 28.7858 160.889 28.8184C161.019 28.8314 161.126 28.8867 161.211 28.9844C161.302 29.0755 161.348 29.1862 161.348 29.3164C161.348 29.4596 161.292 29.5833 161.182 29.6875C161.071 29.7917 160.951 29.8438 160.82 29.8438ZM171.24 24.8438V24.6777C171.24 24.1895 171.188 23.737 171.084 23.3203C170.98 22.9036 170.814 22.5358 170.586 22.2168C170.365 21.8913 170.078 21.6243 169.727 21.416C169.375 21.2077 168.952 21.0677 168.457 20.9961C168.112 21.0352 167.812 21.1296 167.559 21.2793C167.305 21.429 167.087 21.6146 166.904 21.8359C166.729 22.0508 166.582 22.2949 166.465 22.5684C166.348 22.8418 166.253 23.125 166.182 23.418C166.117 23.7044 166.068 23.9941 166.035 24.2871C166.003 24.5736 165.983 24.8438 165.977 25.0977C166.081 25.1302 166.211 25.166 166.367 25.2051C166.53 25.2441 166.712 25.2832 166.914 25.3223C167.116 25.3548 167.334 25.3841 167.568 25.4102C167.809 25.4297 168.06 25.4395 168.32 25.4395C168.874 25.4395 169.391 25.3874 169.873 25.2832C170.361 25.179 170.817 25.0326 171.24 24.8438ZM172.236 25.2246C172.217 25.3939 172.126 25.5404 171.963 25.6641C171.8 25.7878 171.595 25.8984 171.348 25.9961C171.1 26.0872 170.827 26.1654 170.527 26.2305C170.234 26.2891 169.945 26.3379 169.658 26.377C169.372 26.416 169.108 26.4453 168.867 26.4648C168.626 26.4779 168.438 26.4844 168.301 26.4844C167.826 26.4844 167.386 26.4518 166.982 26.3867C166.585 26.3216 166.257 26.2533 165.996 26.1816C166.035 26.5853 166.11 26.9824 166.221 27.373C166.331 27.7637 166.491 28.1152 166.699 28.4277C166.908 28.7337 167.168 28.9844 167.48 29.1797C167.793 29.3685 168.171 29.4629 168.613 29.4629C168.776 29.4629 168.962 29.4434 169.17 29.4043C169.378 29.3587 169.583 29.2969 169.785 29.2188C169.987 29.1341 170.173 29.0365 170.342 28.9258C170.511 28.8086 170.645 28.6784 170.742 28.5352C170.853 28.4049 170.986 28.3398 171.143 28.3398C171.279 28.3398 171.4 28.3952 171.504 28.5059C171.608 28.61 171.66 28.7272 171.66 28.8574C171.66 28.9941 171.618 29.1016 171.533 29.1797C171.377 29.4206 171.159 29.6257 170.879 29.7949C170.599 29.9642 170.296 30.1009 169.971 30.2051C169.645 30.3158 169.316 30.3939 168.984 30.4395C168.652 30.4915 168.35 30.5176 168.076 30.5176C167.295 30.5176 166.569 30.3776 165.898 30.0977C165.228 29.8242 164.645 29.4466 164.15 28.9648C163.656 28.4831 163.265 27.9167 162.979 27.2656C162.699 26.6146 162.559 25.9115 162.559 25.1562C162.559 24.3294 162.682 23.5938 162.93 22.9492C163.177 22.2982 163.529 21.7513 163.984 21.3086C164.44 20.8594 164.993 20.5208 165.645 20.293C166.296 20.0586 167.028 19.9414 167.842 19.9414C168.61 19.974 169.271 20.1042 169.824 20.332C170.384 20.5599 170.843 20.8757 171.201 21.2793C171.559 21.6829 171.823 22.1712 171.992 22.7441C172.168 23.3105 172.256 23.9486 172.256 24.6582C172.256 24.821 172.253 24.9512 172.246 25.0488C172.24 25.14 172.236 25.1986 172.236 25.2246ZM191.689 20.6641C191.657 20.7747 191.595 20.8594 191.504 20.918C191.413 20.9701 191.312 20.9961 191.201 20.9961C191.051 20.9961 190.928 20.9408 190.83 20.8301C190.732 20.7194 190.684 20.6087 190.684 20.498C190.684 20.446 190.697 20.3939 190.723 20.3418L191.348 18.5156C191.185 18.2552 190.986 18.0078 190.752 17.7734C190.524 17.5326 190.273 17.321 190 17.1387C189.727 16.9564 189.437 16.8132 189.131 16.709C188.825 16.5983 188.516 16.543 188.203 16.543C187.611 16.543 187.08 16.6341 186.611 16.8164C186.149 16.9987 185.742 17.2461 185.391 17.5586C185.046 17.8711 184.749 18.2389 184.502 18.6621C184.255 19.0788 184.053 19.5247 183.896 20C183.747 20.4753 183.636 20.9668 183.564 21.4746C183.499 21.9759 183.467 22.4707 183.467 22.959C183.467 23.3822 183.49 23.8346 183.535 24.3164C183.581 24.7917 183.659 25.2702 183.77 25.752C183.88 26.2272 184.027 26.6862 184.209 27.1289C184.391 27.5651 184.616 27.9525 184.883 28.291C185.156 28.6296 185.475 28.8997 185.84 29.1016C186.204 29.3034 186.628 29.4043 187.109 29.4043C187.676 29.4043 188.213 29.3229 188.721 29.1602C189.235 28.9974 189.701 28.7663 190.117 28.4668C190.54 28.1608 190.908 27.7962 191.221 27.373C191.54 26.9499 191.787 26.4779 191.963 25.957C191.995 25.8398 192.057 25.7454 192.148 25.6738C192.24 25.5957 192.344 25.5566 192.461 25.5566C192.604 25.5566 192.725 25.612 192.822 25.7227C192.92 25.8333 192.969 25.9538 192.969 26.084V26.2012C192.962 26.2142 192.939 26.2793 192.9 26.3965C192.868 26.5137 192.809 26.6667 192.725 26.8555C192.646 27.0378 192.539 27.2493 192.402 27.4902C192.272 27.7246 192.106 27.9688 191.904 28.2227C191.605 28.5938 191.27 28.916 190.898 29.1895C190.527 29.4629 190.133 29.6908 189.717 29.873C189.307 30.0553 188.88 30.1921 188.438 30.2832C187.995 30.3743 187.552 30.4199 187.109 30.4199C185.996 30.4004 184.997 30.2214 184.111 29.8828C183.232 29.5378 182.484 29.0592 181.865 28.4473C181.253 27.8288 180.781 27.0866 180.449 26.2207C180.124 25.3548 179.961 24.388 179.961 23.3203C179.961 22.3307 180.065 21.4486 180.273 20.6738C180.482 19.8991 180.765 19.222 181.123 18.6426C181.488 18.0566 181.914 17.5618 182.402 17.1582C182.891 16.748 183.408 16.416 183.955 16.1621C184.508 15.9082 185.081 15.7259 185.674 15.6152C186.266 15.498 186.849 15.4395 187.422 15.4395C187.995 15.4395 188.509 15.5013 188.965 15.625C189.421 15.7422 189.827 15.8952 190.186 16.084C190.544 16.2728 190.85 16.4811 191.104 16.709C191.364 16.9303 191.579 17.1419 191.748 17.3438L192.285 15.8008C192.324 15.6901 192.389 15.6022 192.48 15.5371C192.572 15.472 192.666 15.4395 192.764 15.4395C192.907 15.4395 193.027 15.4948 193.125 15.6055C193.229 15.7096 193.281 15.8268 193.281 15.957C193.281 16.0156 193.268 16.071 193.242 16.123L191.689 20.6641ZM206.426 29.8438C206.4 29.8438 206.38 29.8372 206.367 29.8242C206.139 29.7917 205.915 29.7689 205.693 29.7559C205.472 29.7428 205.251 29.7363 205.029 29.7363C204.697 29.7363 204.365 29.7526 204.033 29.7852C203.708 29.8177 203.379 29.8633 203.047 29.9219C203.034 29.9349 203.021 29.9414 203.008 29.9414C202.995 29.9414 202.982 29.9414 202.969 29.9414C202.819 29.9414 202.695 29.8893 202.598 29.7852C202.5 29.6745 202.451 29.554 202.451 29.4238C202.451 29.3001 202.49 29.1927 202.568 29.1016C202.646 29.0039 202.747 28.9421 202.871 28.916C203.333 28.8184 203.799 28.7598 204.268 28.7402C204.626 27.0931 204.805 25.6868 204.805 24.5215C204.805 24.0137 204.766 23.5384 204.688 23.0957C204.616 22.6465 204.482 22.2559 204.287 21.9238C204.098 21.5918 203.838 21.3281 203.506 21.1328C203.174 20.9375 202.747 20.8398 202.227 20.8398C201.934 20.8398 201.654 20.8952 201.387 21.0059C201.126 21.1165 200.882 21.2663 200.654 21.4551C200.433 21.6374 200.231 21.8522 200.049 22.0996C199.867 22.347 199.71 22.6074 199.58 22.8809C199.456 23.1478 199.359 23.4212 199.287 23.7012C199.222 23.9811 199.189 24.248 199.189 24.502L199.17 28.8574C199.398 28.877 199.626 28.9062 199.854 28.9453C200.088 28.9844 200.326 29.0299 200.566 29.082C200.69 29.1016 200.791 29.1602 200.869 29.2578C200.947 29.349 200.986 29.4564 200.986 29.5801C200.986 29.7298 200.931 29.8503 200.82 29.9414C200.716 30.0326 200.599 30.0781 200.469 30.0781H200.371C199.844 29.9805 199.342 29.9056 198.867 29.8535C198.392 29.8014 197.92 29.7754 197.451 29.7754C196.989 29.7754 196.52 29.8014 196.045 29.8535C195.57 29.9056 195.072 29.9805 194.551 30.0781H194.453C194.303 30.0781 194.18 30.0293 194.082 29.9316C193.991 29.8275 193.945 29.7103 193.945 29.5801C193.945 29.4564 193.981 29.349 194.053 29.2578C194.131 29.1602 194.229 29.1016 194.346 29.082C194.574 29.0299 194.801 28.9876 195.029 28.9551C195.264 28.9225 195.492 28.89 195.713 28.8574V17.2168C195.303 17.1973 194.958 17.1745 194.678 17.1484C194.398 17.1159 194.242 17.0996 194.209 17.0996C194.079 17.0801 193.971 17.0215 193.887 16.9238C193.809 16.8262 193.77 16.7122 193.77 16.582C193.77 16.4193 193.828 16.2956 193.945 16.2109C194.062 16.1263 194.176 16.084 194.287 16.084H194.346C194.352 16.084 194.427 16.0938 194.57 16.1133C194.714 16.1263 194.899 16.1426 195.127 16.1621C195.361 16.1816 195.625 16.2012 195.918 16.2207C196.211 16.2337 196.514 16.2402 196.826 16.2402C197.139 16.2402 197.445 16.2305 197.744 16.2109C198.044 16.1849 198.32 16.1426 198.574 16.084H198.672C198.822 16.084 198.945 16.1361 199.043 16.2402C199.141 16.3379 199.189 16.4518 199.189 16.582V21.543C199.561 20.9701 200 20.5404 200.508 20.2539C201.022 19.9674 201.595 19.8242 202.227 19.8242C202.904 19.8242 203.47 19.9479 203.926 20.1953C204.388 20.4427 204.759 20.778 205.039 21.2012C205.326 21.6243 205.527 22.1257 205.645 22.7051C205.768 23.278 205.83 23.89 205.83 24.541C205.83 25.6934 205.658 27.0866 205.312 28.7207C205.514 28.7207 205.713 28.7305 205.908 28.75C206.11 28.763 206.305 28.7858 206.494 28.8184C206.624 28.8314 206.732 28.8867 206.816 28.9844C206.908 29.0755 206.953 29.1862 206.953 29.3164C206.953 29.4596 206.898 29.5833 206.787 29.6875C206.676 29.7917 206.556 29.8438 206.426 29.8438ZM214.443 30.2441C214.43 30.2441 214.414 30.2409 214.395 30.2344C214.382 30.2279 214.365 30.2246 214.346 30.2246C213.818 30.1204 213.317 30.0456 212.842 30C212.367 29.9479 211.895 29.9219 211.426 29.9219C210.951 29.9219 210.479 29.9479 210.01 30C209.541 30.0456 209.046 30.1204 208.525 30.2246C208.506 30.2246 208.49 30.2279 208.477 30.2344C208.464 30.2409 208.447 30.2441 208.428 30.2441C208.278 30.2441 208.154 30.1888 208.057 30.0781C207.965 29.9674 207.92 29.847 207.92 29.7168C207.92 29.5996 207.956 29.4922 208.027 29.3945C208.105 29.2969 208.203 29.2383 208.32 29.2188C208.548 29.1667 208.776 29.1276 209.004 29.1016C209.238 29.069 209.466 29.0365 209.688 29.0039V21.5234C209.277 21.5039 208.932 21.4779 208.652 21.4453C208.372 21.4128 208.216 21.3965 208.184 21.3965C208.053 21.377 207.946 21.3184 207.861 21.2207C207.783 21.123 207.744 21.0091 207.744 20.8789C207.744 20.7161 207.803 20.5924 207.92 20.5078C208.037 20.4232 208.151 20.3809 208.262 20.3809H208.32C208.327 20.3809 208.402 20.3906 208.545 20.4102C208.688 20.4232 208.874 20.4395 209.102 20.459C209.336 20.4785 209.6 20.498 209.893 20.5176C210.186 20.5306 210.488 20.5371 210.801 20.5371C211.113 20.5371 211.419 20.5273 211.719 20.5078C212.018 20.4818 212.292 20.4395 212.539 20.3809H212.646C212.796 20.3809 212.92 20.4329 213.018 20.5371C213.115 20.6348 213.164 20.7487 213.164 20.8789L213.145 29.0039C213.372 29.0365 213.6 29.069 213.828 29.1016C214.062 29.1276 214.3 29.1667 214.541 29.2188C214.665 29.2383 214.766 29.2969 214.844 29.3945C214.922 29.4922 214.961 29.5996 214.961 29.7168C214.961 29.8665 214.906 29.9902 214.795 30.0879C214.684 30.1921 214.567 30.2441 214.443 30.2441ZM213.027 17.4023C213.027 17.6432 212.982 17.8711 212.891 18.0859C212.799 18.2943 212.673 18.4766 212.51 18.6328C212.354 18.7891 212.168 18.9128 211.953 19.0039C211.745 19.0951 211.52 19.1406 211.279 19.1406C211.038 19.1406 210.811 19.0951 210.596 19.0039C210.387 18.9128 210.205 18.7891 210.049 18.6328C209.893 18.4766 209.769 18.2943 209.678 18.0859C209.587 17.8711 209.541 17.6432 209.541 17.4023C209.541 17.1615 209.587 16.9368 209.678 16.7285C209.769 16.5137 209.893 16.3281 210.049 16.1719C210.205 16.0156 210.387 15.8919 210.596 15.8008C210.811 15.7096 211.038 15.6641 211.279 15.6641C211.52 15.6641 211.745 15.7096 211.953 15.8008C212.168 15.8919 212.354 16.0156 212.51 16.1719C212.673 16.3281 212.799 16.5137 212.891 16.7285C212.982 16.9368 213.027 17.1615 213.027 17.4023ZM228.281 29.5605C228.268 29.6908 228.21 29.8014 228.105 29.8926C228.001 29.9772 227.884 30.0195 227.754 30.0195H227.715C227.402 29.987 227.1 29.9642 226.807 29.9512C226.52 29.9316 226.237 29.9219 225.957 29.9219C225.547 29.9219 225.153 29.9414 224.775 29.9805C224.404 30.013 224.04 30.0586 223.682 30.1172C223.669 30.1172 223.652 30.1204 223.633 30.127C223.62 30.1335 223.607 30.1367 223.594 30.1367C223.457 30.1367 223.337 30.0846 223.232 29.9805C223.128 29.8698 223.076 29.7493 223.076 29.6191C223.076 29.502 223.115 29.3945 223.193 29.2969C223.278 29.1992 223.379 29.1406 223.496 29.1211C223.77 29.069 224.043 29.0299 224.316 29.0039C224.596 28.9714 224.883 28.9421 225.176 28.916C225.234 28.7142 225.296 28.4408 225.361 28.0957C225.426 27.7507 225.485 27.3796 225.537 26.9824C225.596 26.5853 225.641 26.1849 225.674 25.7812C225.713 25.3776 225.732 25.0163 225.732 24.6973C225.732 24.3652 225.713 24.0039 225.674 23.6133C225.641 23.2227 225.56 22.8581 225.43 22.5195C225.306 22.1745 225.124 21.888 224.883 21.6602C224.648 21.4323 224.333 21.3184 223.936 21.3184C223.486 21.3184 223.07 21.429 222.686 21.6504C222.301 21.8717 221.969 22.1549 221.689 22.5C221.416 22.8385 221.198 23.2129 221.035 23.623C220.879 24.0332 220.801 24.4271 220.801 24.8047V24.8242L220.781 29.1211C220.898 29.1341 221.012 29.1471 221.123 29.1602C221.234 29.1667 221.344 29.1797 221.455 29.1992C221.585 29.2122 221.693 29.2676 221.777 29.3652C221.868 29.4564 221.914 29.5671 221.914 29.6973C221.914 29.8405 221.859 29.9642 221.748 30.0684C221.644 30.1725 221.527 30.2246 221.396 30.2246C221.37 30.2246 221.351 30.2148 221.338 30.1953C220.947 30.1562 220.547 30.1172 220.137 30.0781C219.733 30.0391 219.307 30.0195 218.857 30.0195C218.454 30.0195 218.027 30.0391 217.578 30.0781C217.135 30.1237 216.66 30.1921 216.152 30.2832C216.126 30.2962 216.094 30.3027 216.055 30.3027C215.905 30.3027 215.785 30.2474 215.693 30.1367C215.602 30.026 215.557 29.9056 215.557 29.7754C215.557 29.6582 215.592 29.5508 215.664 29.4531C215.736 29.3555 215.833 29.2969 215.957 29.2773C216.198 29.2253 216.429 29.1862 216.65 29.1602C216.872 29.1276 217.093 29.1016 217.314 29.082V21.6211C216.904 21.6016 216.559 21.5788 216.279 21.5527C216.006 21.5202 215.853 21.4974 215.82 21.4844C215.69 21.4714 215.583 21.416 215.498 21.3184C215.42 21.2207 215.381 21.1068 215.381 20.9766C215.381 20.8203 215.436 20.6966 215.547 20.6055C215.658 20.5078 215.775 20.459 215.898 20.459C215.924 20.459 215.944 20.4655 215.957 20.4785C215.964 20.4785 216.038 20.485 216.182 20.498C216.325 20.5111 216.51 20.5273 216.738 20.5469C216.973 20.5664 217.236 20.5827 217.529 20.5957C217.822 20.6087 218.125 20.6152 218.438 20.6152C218.75 20.6152 219.056 20.6087 219.355 20.5957C219.655 20.5762 219.928 20.5371 220.176 20.4785C220.189 20.4785 220.202 20.4753 220.215 20.4688C220.234 20.4622 220.254 20.459 220.273 20.459C220.423 20.459 220.547 20.5143 220.645 20.625C220.749 20.7292 220.801 20.8464 220.801 20.9766V21.9824C221.178 21.429 221.628 21.0124 222.148 20.7324C222.676 20.446 223.271 20.3027 223.936 20.3027C224.326 20.3027 224.665 20.3711 224.951 20.5078C225.244 20.638 225.495 20.8171 225.703 21.0449C225.918 21.2728 226.09 21.5365 226.221 21.8359C226.357 22.1289 226.465 22.4382 226.543 22.7637C226.628 23.0892 226.683 23.4212 226.709 23.7598C226.742 24.0918 226.758 24.4043 226.758 24.6973C226.758 25.0228 226.742 25.3809 226.709 25.7715C226.676 26.1556 226.634 26.5397 226.582 26.9238C226.536 27.3079 226.481 27.6725 226.416 28.0176C226.357 28.3626 226.299 28.6556 226.24 28.8965C226.488 28.9095 226.742 28.9225 227.002 28.9355C227.269 28.9486 227.539 28.9714 227.812 29.0039C227.962 29.0169 228.076 29.082 228.154 29.1992C228.239 29.3099 228.281 29.4303 228.281 29.5605ZM237.822 24.8438V24.6777C237.822 24.1895 237.77 23.737 237.666 23.3203C237.562 22.9036 237.396 22.5358 237.168 22.2168C236.947 21.8913 236.66 21.6243 236.309 21.416C235.957 21.2077 235.534 21.0677 235.039 20.9961C234.694 21.0352 234.395 21.1296 234.141 21.2793C233.887 21.429 233.669 21.6146 233.486 21.8359C233.311 22.0508 233.164 22.2949 233.047 22.5684C232.93 22.8418 232.835 23.125 232.764 23.418C232.699 23.7044 232.65 23.9941 232.617 24.2871C232.585 24.5736 232.565 24.8438 232.559 25.0977C232.663 25.1302 232.793 25.166 232.949 25.2051C233.112 25.2441 233.294 25.2832 233.496 25.3223C233.698 25.3548 233.916 25.3841 234.15 25.4102C234.391 25.4297 234.642 25.4395 234.902 25.4395C235.456 25.4395 235.973 25.3874 236.455 25.2832C236.943 25.179 237.399 25.0326 237.822 24.8438ZM238.818 25.2246C238.799 25.3939 238.708 25.5404 238.545 25.6641C238.382 25.7878 238.177 25.8984 237.93 25.9961C237.682 26.0872 237.409 26.1654 237.109 26.2305C236.816 26.2891 236.527 26.3379 236.24 26.377C235.954 26.416 235.69 26.4453 235.449 26.4648C235.208 26.4779 235.02 26.4844 234.883 26.4844C234.408 26.4844 233.968 26.4518 233.564 26.3867C233.167 26.3216 232.839 26.2533 232.578 26.1816C232.617 26.5853 232.692 26.9824 232.803 27.373C232.913 27.7637 233.073 28.1152 233.281 28.4277C233.49 28.7337 233.75 28.9844 234.062 29.1797C234.375 29.3685 234.753 29.4629 235.195 29.4629C235.358 29.4629 235.544 29.4434 235.752 29.4043C235.96 29.3587 236.165 29.2969 236.367 29.2188C236.569 29.1341 236.755 29.0365 236.924 28.9258C237.093 28.8086 237.227 28.6784 237.324 28.5352C237.435 28.4049 237.568 28.3398 237.725 28.3398C237.861 28.3398 237.982 28.3952 238.086 28.5059C238.19 28.61 238.242 28.7272 238.242 28.8574C238.242 28.9941 238.2 29.1016 238.115 29.1797C237.959 29.4206 237.741 29.6257 237.461 29.7949C237.181 29.9642 236.878 30.1009 236.553 30.2051C236.227 30.3158 235.898 30.3939 235.566 30.4395C235.234 30.4915 234.932 30.5176 234.658 30.5176C233.877 30.5176 233.151 30.3776 232.48 30.0977C231.81 29.8242 231.227 29.4466 230.732 28.9648C230.238 28.4831 229.847 27.9167 229.561 27.2656C229.281 26.6146 229.141 25.9115 229.141 25.1562C229.141 24.3294 229.264 23.5938 229.512 22.9492C229.759 22.2982 230.111 21.7513 230.566 21.3086C231.022 20.8594 231.576 20.5208 232.227 20.293C232.878 20.0586 233.61 19.9414 234.424 19.9414C235.192 19.974 235.853 20.1042 236.406 20.332C236.966 20.5599 237.425 20.8757 237.783 21.2793C238.141 21.6829 238.405 22.1712 238.574 22.7441C238.75 23.3105 238.838 23.9486 238.838 24.6582C238.838 24.821 238.835 24.9512 238.828 25.0488C238.822 25.14 238.818 25.1986 238.818 25.2246ZM250.234 27.2168C250.234 27.5879 250.169 27.9297 250.039 28.2422C249.909 28.5482 249.733 28.8281 249.512 29.082C249.29 29.3294 249.033 29.5475 248.74 29.7363C248.454 29.9186 248.148 30.0716 247.822 30.1953C247.503 30.3255 247.178 30.4199 246.846 30.4785C246.514 30.5436 246.195 30.5762 245.889 30.5762C245.062 30.5762 244.284 30.4525 243.555 30.2051C242.826 29.9642 242.165 29.5898 241.572 29.082C241.572 29.1927 241.572 29.3034 241.572 29.4141C241.572 29.5182 241.579 29.6191 241.592 29.7168V29.7559C241.592 29.8861 241.546 30.0033 241.455 30.1074C241.37 30.2116 241.263 30.2637 241.133 30.2637C240.983 30.2637 240.853 30.2181 240.742 30.127C240.638 30.0423 240.579 29.9349 240.566 29.8047C240.553 29.6745 240.547 29.5443 240.547 29.4141C240.547 29.2773 240.547 29.1406 240.547 29.0039C240.547 28.763 240.55 28.5254 240.557 28.291C240.57 28.0566 240.583 27.8483 240.596 27.666C240.609 27.4772 240.618 27.3242 240.625 27.207C240.638 27.0833 240.648 27.015 240.654 27.002C240.667 26.8717 240.719 26.7643 240.811 26.6797C240.908 26.5885 241.022 26.543 241.152 26.543C241.315 26.543 241.442 26.5951 241.533 26.6992C241.624 26.8034 241.67 26.9173 241.67 27.041V27.0996C241.663 27.1517 241.657 27.2103 241.65 27.2754C241.644 27.3275 241.637 27.3926 241.631 27.4707C241.624 27.5488 241.618 27.6335 241.611 27.7246C242.204 28.3561 242.855 28.8184 243.564 29.1113C244.281 29.3978 245.055 29.541 245.889 29.541C245.986 29.541 246.113 29.5345 246.27 29.5215C246.426 29.5085 246.589 29.4889 246.758 29.4629C246.934 29.4303 247.109 29.3913 247.285 29.3457C247.461 29.2936 247.617 29.2318 247.754 29.1602C247.897 29.082 248.011 28.9909 248.096 28.8867C248.187 28.7826 248.232 28.6589 248.232 28.5156C248.232 28.3724 248.167 28.2454 248.037 28.1348C247.913 28.0176 247.754 27.9134 247.559 27.8223C247.363 27.7311 247.145 27.653 246.904 27.5879C246.67 27.5228 246.439 27.4674 246.211 27.4219C245.99 27.3763 245.788 27.3405 245.605 27.3145C245.43 27.2884 245.299 27.2689 245.215 27.2559C244.655 27.1973 244.102 27.0898 243.555 26.9336C243.014 26.7708 242.526 26.5495 242.09 26.2695C241.654 25.9896 241.302 25.6445 241.035 25.2344C240.768 24.8242 240.635 24.3392 240.635 23.7793C240.635 23.2064 240.752 22.6921 240.986 22.2363C241.221 21.7741 241.527 21.3835 241.904 21.0645C242.288 20.7454 242.725 20.5013 243.213 20.332C243.708 20.1628 244.212 20.0781 244.727 20.0781C245.404 20.0781 246.045 20.1628 246.65 20.332C247.262 20.4948 247.822 20.752 248.33 21.1035C248.389 20.9603 248.457 20.8171 248.535 20.6738C248.613 20.5241 248.691 20.3809 248.77 20.2441C248.822 20.1595 248.887 20.0977 248.965 20.0586C249.049 20.0195 249.131 20 249.209 20C249.359 20 249.482 20.0521 249.58 20.1562C249.678 20.2539 249.727 20.3678 249.727 20.498C249.727 20.6022 249.701 20.6901 249.648 20.7617C249.401 21.2044 249.193 21.6536 249.023 22.1094C248.861 22.5586 248.75 23.0143 248.691 23.4766C248.672 23.6003 248.613 23.7044 248.516 23.7891C248.418 23.8737 248.304 23.916 248.174 23.916C248.031 23.916 247.91 23.8639 247.812 23.7598C247.715 23.6491 247.666 23.5286 247.666 23.3984V23.3203C247.738 22.9167 247.832 22.5098 247.949 22.0996C247.48 21.7285 246.969 21.4714 246.416 21.3281C245.863 21.1784 245.299 21.1035 244.727 21.1035C244.531 21.1035 244.326 21.1263 244.111 21.1719C243.896 21.2109 243.695 21.2793 243.506 21.377C243.324 21.4681 243.171 21.5918 243.047 21.748C242.93 21.9043 242.871 22.0964 242.871 22.3242C242.871 22.526 242.936 22.7051 243.066 22.8613C243.197 23.0111 243.363 23.1445 243.564 23.2617C243.766 23.3789 243.991 23.4798 244.238 23.5645C244.492 23.6491 244.74 23.7207 244.98 23.7793C245.228 23.8379 245.456 23.8867 245.664 23.9258C245.879 23.9648 246.048 23.9974 246.172 24.0234C246.628 24.1146 247.093 24.235 247.568 24.3848C248.05 24.528 248.486 24.7233 248.877 24.9707C249.274 25.2116 249.6 25.5143 249.854 25.8789C250.107 26.2435 250.234 26.6895 250.234 27.2168ZM260.479 24.8438V24.6777C260.479 24.1895 260.426 23.737 260.322 23.3203C260.218 22.9036 260.052 22.5358 259.824 22.2168C259.603 21.8913 259.316 21.6243 258.965 21.416C258.613 21.2077 258.19 21.0677 257.695 20.9961C257.35 21.0352 257.051 21.1296 256.797 21.2793C256.543 21.429 256.325 21.6146 256.143 21.8359C255.967 22.0508 255.82 22.2949 255.703 22.5684C255.586 22.8418 255.492 23.125 255.42 23.418C255.355 23.7044 255.306 23.9941 255.273 24.2871C255.241 24.5736 255.221 24.8438 255.215 25.0977C255.319 25.1302 255.449 25.166 255.605 25.2051C255.768 25.2441 255.951 25.2832 256.152 25.3223C256.354 25.3548 256.572 25.3841 256.807 25.4102C257.048 25.4297 257.298 25.4395 257.559 25.4395C258.112 25.4395 258.63 25.3874 259.111 25.2832C259.6 25.179 260.055 25.0326 260.479 24.8438ZM261.475 25.2246C261.455 25.3939 261.364 25.5404 261.201 25.6641C261.038 25.7878 260.833 25.8984 260.586 25.9961C260.339 26.0872 260.065 26.1654 259.766 26.2305C259.473 26.2891 259.183 26.3379 258.896 26.377C258.61 26.416 258.346 26.4453 258.105 26.4648C257.865 26.4779 257.676 26.4844 257.539 26.4844C257.064 26.4844 256.624 26.4518 256.221 26.3867C255.824 26.3216 255.495 26.2533 255.234 26.1816C255.273 26.5853 255.348 26.9824 255.459 27.373C255.57 27.7637 255.729 28.1152 255.938 28.4277C256.146 28.7337 256.406 28.9844 256.719 29.1797C257.031 29.3685 257.409 29.4629 257.852 29.4629C258.014 29.4629 258.2 29.4434 258.408 29.4043C258.617 29.3587 258.822 29.2969 259.023 29.2188C259.225 29.1341 259.411 29.0365 259.58 28.9258C259.749 28.8086 259.883 28.6784 259.98 28.5352C260.091 28.4049 260.225 28.3398 260.381 28.3398C260.518 28.3398 260.638 28.3952 260.742 28.5059C260.846 28.61 260.898 28.7272 260.898 28.8574C260.898 28.9941 260.856 29.1016 260.771 29.1797C260.615 29.4206 260.397 29.6257 260.117 29.7949C259.837 29.9642 259.535 30.1009 259.209 30.2051C258.883 30.3158 258.555 30.3939 258.223 30.4395C257.891 30.4915 257.588 30.5176 257.314 30.5176C256.533 30.5176 255.807 30.3776 255.137 30.0977C254.466 29.8242 253.883 29.4466 253.389 28.9648C252.894 28.4831 252.503 27.9167 252.217 27.2656C251.937 26.6146 251.797 25.9115 251.797 25.1562C251.797 24.3294 251.921 23.5938 252.168 22.9492C252.415 22.2982 252.767 21.7513 253.223 21.3086C253.678 20.8594 254.232 20.5208 254.883 20.293C255.534 20.0586 256.266 19.9414 257.08 19.9414C257.848 19.974 258.509 20.1042 259.062 20.332C259.622 20.5599 260.081 20.8757 260.439 21.2793C260.798 21.6829 261.061 22.1712 261.23 22.7441C261.406 23.3105 261.494 23.9486 261.494 24.6582C261.494 24.821 261.491 24.9512 261.484 25.0488C261.478 25.14 261.475 25.1986 261.475 25.2246ZM280.645 25.4004C280.534 26.0124 280.449 26.6406 280.391 27.2852C280.332 27.9232 280.303 28.5872 280.303 29.2773V29.5215C280.303 29.6647 280.251 29.7884 280.146 29.8926C280.049 29.9902 279.935 30.0391 279.805 30.0391H279.766C279.16 30.0065 278.555 29.987 277.949 29.9805C277.344 29.9674 276.735 29.9609 276.123 29.9609C274.997 29.9609 273.877 29.9837 272.764 30.0293C271.65 30.0814 270.537 30.153 269.424 30.2441H269.385C269.242 30.2441 269.118 30.1921 269.014 30.0879C268.916 29.9837 268.867 29.8665 268.867 29.7363C268.867 29.6842 268.874 29.6387 268.887 29.5996C268.906 29.5605 268.926 29.5215 268.945 29.4824L276.26 16.9629H275.039C274.336 16.9629 273.643 16.9531 272.959 16.9336C272.275 16.9141 271.598 16.8815 270.928 16.8359C270.863 17.3893 270.771 17.9395 270.654 18.4863C270.544 19.0332 270.413 19.5833 270.264 20.1367C270.225 20.2474 270.16 20.3353 270.068 20.4004C269.977 20.4655 269.876 20.498 269.766 20.498C269.616 20.498 269.489 20.446 269.385 20.3418C269.287 20.2376 269.238 20.1237 269.238 20C269.238 19.9674 269.242 19.9414 269.248 19.9219C269.261 19.9023 269.268 19.8763 269.268 19.8438C269.443 19.2513 269.587 18.6556 269.697 18.0566C269.808 17.4512 269.889 16.8457 269.941 16.2402C269.961 16.11 270.02 16.0026 270.117 15.918C270.215 15.8268 270.329 15.7812 270.459 15.7812H270.508C271.25 15.8333 271.995 15.8724 272.744 15.8984C273.493 15.9245 274.258 15.9375 275.039 15.9375C275.833 15.9375 276.634 15.9245 277.441 15.8984C278.255 15.8724 279.089 15.8333 279.941 15.7812H279.961C280.111 15.7943 280.234 15.8496 280.332 15.9473C280.43 16.0384 280.479 16.1556 280.479 16.2988C280.479 16.3379 280.472 16.3835 280.459 16.4355C280.452 16.4811 280.433 16.5234 280.4 16.5625L273.281 28.9844C273.763 28.9583 274.242 28.9453 274.717 28.9453C275.199 28.9388 275.68 28.9355 276.162 28.9355C276.689 28.9355 277.21 28.9421 277.725 28.9551C278.239 28.9681 278.76 28.9844 279.287 29.0039C279.3 28.3268 279.333 27.6758 279.385 27.0508C279.437 26.4258 279.521 25.8073 279.639 25.1953C279.665 25.0781 279.723 24.9805 279.814 24.9023C279.912 24.8177 280.023 24.7754 280.146 24.7754C280.283 24.7754 280.404 24.8307 280.508 24.9414C280.612 25.0521 280.664 25.1725 280.664 25.3027C280.664 25.3418 280.658 25.3743 280.645 25.4004ZM291.826 25.1758C291.826 24.8568 291.79 24.5345 291.719 24.209C291.647 23.8835 291.543 23.5677 291.406 23.2617C291.27 22.9557 291.104 22.6693 290.908 22.4023C290.713 22.1354 290.492 21.9043 290.244 21.709C290.003 21.5072 289.736 21.3509 289.443 21.2402C289.157 21.123 288.851 21.0645 288.525 21.0645C288.161 21.0645 287.842 21.1263 287.568 21.25C287.301 21.3672 287.067 21.5299 286.865 21.7383C286.663 21.9401 286.497 22.1745 286.367 22.4414C286.237 22.7083 286.133 22.9915 286.055 23.291C285.977 23.5905 285.921 23.8932 285.889 24.1992C285.856 24.5052 285.84 24.7982 285.84 25.0781C285.84 25.3646 285.853 25.6706 285.879 25.9961C285.905 26.3151 285.951 26.6341 286.016 26.9531C286.081 27.2656 286.169 27.5684 286.279 27.8613C286.39 28.1543 286.533 28.4115 286.709 28.6328C286.885 28.8542 287.096 29.0299 287.344 29.1602C287.598 29.2904 287.897 29.3555 288.242 29.3555C288.809 29.3555 289.313 29.2383 289.756 29.0039C290.205 28.763 290.583 28.4473 290.889 28.0566C291.195 27.666 291.426 27.2201 291.582 26.7188C291.745 26.2174 291.826 25.7031 291.826 25.1758ZM292.842 25.1758C292.842 25.957 292.702 26.6732 292.422 27.3242C292.142 27.9753 291.764 28.5352 291.289 29.0039C290.814 29.4661 290.257 29.8275 289.619 30.0879C288.988 30.3483 288.32 30.4785 287.617 30.4785C286.823 30.4785 286.104 30.3516 285.459 30.0977C284.821 29.8503 284.274 29.4954 283.818 29.0332C283.363 28.571 283.011 28.0143 282.764 27.3633C282.523 26.7122 282.402 25.9831 282.402 25.1758C282.402 24.4076 282.536 23.6979 282.803 23.0469C283.07 22.3958 283.438 21.8359 283.906 21.3672C284.375 20.8919 284.925 20.5241 285.557 20.2637C286.195 19.9967 286.882 19.8633 287.617 19.8633C288.385 19.8633 289.089 20.0065 289.727 20.293C290.371 20.5729 290.924 20.957 291.387 21.4453C291.849 21.9271 292.207 22.4902 292.461 23.1348C292.715 23.7793 292.842 24.4596 292.842 25.1758ZM301.797 22.6367C301.699 22.3438 301.553 22.0898 301.357 21.875C301.162 21.6602 300.938 21.4811 300.684 21.3379C300.436 21.1947 300.169 21.0905 299.883 21.0254C299.596 20.9538 299.307 20.918 299.014 20.918C298.571 20.918 298.177 20.9896 297.832 21.1328C297.487 21.2695 297.184 21.4583 296.924 21.6992C296.663 21.9336 296.439 22.2103 296.25 22.5293C296.068 22.8418 295.918 23.1738 295.801 23.5254C295.684 23.8704 295.599 24.2253 295.547 24.5898C295.495 24.9544 295.469 25.306 295.469 25.6445C295.475 26.1198 295.54 26.5788 295.664 27.0215C295.794 27.4577 295.983 27.8483 296.23 28.1934C296.484 28.5319 296.79 28.8053 297.148 29.0137C297.513 29.2155 297.933 29.3164 298.408 29.3164C298.844 29.3164 299.232 29.2155 299.57 29.0137C299.909 28.8053 300.205 28.5449 300.459 28.2324C300.719 27.9199 300.938 27.5781 301.113 27.207C301.289 26.8294 301.429 26.4714 301.533 26.1328C301.637 25.7878 301.709 25.485 301.748 25.2246C301.794 24.9577 301.81 24.7819 301.797 24.6973V22.6367ZM306.455 29.9609H306.416C306.253 29.9479 306.09 29.9382 305.928 29.9316C305.771 29.9251 305.618 29.9219 305.469 29.9219C305.052 29.9219 304.661 29.9414 304.297 29.9805C303.932 30.0195 303.613 30.0618 303.34 30.1074C303.073 30.1595 302.858 30.2051 302.695 30.2441C302.539 30.2832 302.458 30.3027 302.451 30.3027C302.432 30.3158 302.409 30.3223 302.383 30.3223C302.357 30.3223 302.334 30.3223 302.314 30.3223C302.165 30.3223 302.041 30.2669 301.943 30.1562C301.846 30.0521 301.797 29.9349 301.797 29.8047V28.1445C301.647 28.457 301.455 28.7467 301.221 29.0137C300.993 29.2806 300.736 29.5117 300.449 29.707C300.163 29.9023 299.847 30.0553 299.502 30.166C299.163 30.2832 298.809 30.3418 298.438 30.3418C297.812 30.3418 297.256 30.2148 296.768 29.9609C296.279 29.707 295.863 29.3685 295.518 28.9453C295.179 28.5156 294.919 28.0176 294.736 27.4512C294.554 26.8848 294.46 26.2891 294.453 25.6641C294.453 25.1758 294.492 24.6973 294.57 24.2285C294.655 23.7533 294.782 23.304 294.951 22.8809C295.12 22.4512 295.329 22.054 295.576 21.6895C295.83 21.3249 296.126 21.0124 296.465 20.752C296.803 20.485 297.184 20.2767 297.607 20.127C298.031 19.9772 298.499 19.9023 299.014 19.9023C299.58 19.9023 300.098 19.987 300.566 20.1562C301.035 20.3255 301.445 20.5599 301.797 20.8594V16.9238C301.393 16.9043 301.051 16.8783 300.771 16.8457C300.498 16.8132 300.345 16.7969 300.312 16.7969C300.182 16.7773 300.072 16.7188 299.98 16.6211C299.896 16.5234 299.854 16.4095 299.854 16.2793C299.854 16.1361 299.906 16.0189 300.01 15.9277C300.12 15.8301 300.241 15.7812 300.371 15.7812H300.43C300.436 15.7812 300.511 15.791 300.654 15.8105C300.798 15.8236 300.983 15.8398 301.211 15.8594C301.445 15.8789 301.712 15.8984 302.012 15.918C302.311 15.931 302.617 15.9375 302.93 15.9375C303.236 15.9375 303.535 15.9277 303.828 15.9082C304.128 15.8822 304.401 15.8398 304.648 15.7812H304.775C304.925 15.7812 305.046 15.8333 305.137 15.9375C305.228 16.0352 305.273 16.1491 305.273 16.2793V28.8965H305.469C305.638 28.8965 305.807 28.8997 305.977 28.9062C306.152 28.9062 306.325 28.916 306.494 28.9355C306.637 28.9486 306.751 29.0039 306.836 29.1016C306.927 29.1992 306.973 29.3132 306.973 29.4434C306.973 29.5996 306.914 29.7266 306.797 29.8242C306.686 29.9154 306.572 29.9609 306.455 29.9609ZM314.229 30.2441C314.215 30.2441 314.199 30.2409 314.18 30.2344C314.167 30.2279 314.15 30.2246 314.131 30.2246C313.604 30.1204 313.102 30.0456 312.627 30C312.152 29.9479 311.68 29.9219 311.211 29.9219C310.736 29.9219 310.264 29.9479 309.795 30C309.326 30.0456 308.831 30.1204 308.311 30.2246C308.291 30.2246 308.275 30.2279 308.262 30.2344C308.249 30.2409 308.232 30.2441 308.213 30.2441C308.063 30.2441 307.939 30.1888 307.842 30.0781C307.751 29.9674 307.705 29.847 307.705 29.7168C307.705 29.5996 307.741 29.4922 307.812 29.3945C307.891 29.2969 307.988 29.2383 308.105 29.2188C308.333 29.1667 308.561 29.1276 308.789 29.1016C309.023 29.069 309.251 29.0365 309.473 29.0039V21.5234C309.062 21.5039 308.717 21.4779 308.438 21.4453C308.158 21.4128 308.001 21.3965 307.969 21.3965C307.839 21.377 307.731 21.3184 307.646 21.2207C307.568 21.123 307.529 21.0091 307.529 20.8789C307.529 20.7161 307.588 20.5924 307.705 20.5078C307.822 20.4232 307.936 20.3809 308.047 20.3809H308.105C308.112 20.3809 308.187 20.3906 308.33 20.4102C308.473 20.4232 308.659 20.4395 308.887 20.459C309.121 20.4785 309.385 20.498 309.678 20.5176C309.971 20.5306 310.273 20.5371 310.586 20.5371C310.898 20.5371 311.204 20.5273 311.504 20.5078C311.803 20.4818 312.077 20.4395 312.324 20.3809H312.432C312.581 20.3809 312.705 20.4329 312.803 20.5371C312.9 20.6348 312.949 20.7487 312.949 20.8789L312.93 29.0039C313.158 29.0365 313.385 29.069 313.613 29.1016C313.848 29.1276 314.085 29.1667 314.326 29.2188C314.45 29.2383 314.551 29.2969 314.629 29.3945C314.707 29.4922 314.746 29.5996 314.746 29.7168C314.746 29.8665 314.691 29.9902 314.58 30.0879C314.469 30.1921 314.352 30.2441 314.229 30.2441ZM312.812 17.4023C312.812 17.6432 312.767 17.8711 312.676 18.0859C312.585 18.2943 312.458 18.4766 312.295 18.6328C312.139 18.7891 311.953 18.9128 311.738 19.0039C311.53 19.0951 311.305 19.1406 311.064 19.1406C310.824 19.1406 310.596 19.0951 310.381 19.0039C310.173 18.9128 309.99 18.7891 309.834 18.6328C309.678 18.4766 309.554 18.2943 309.463 18.0859C309.372 17.8711 309.326 17.6432 309.326 17.4023C309.326 17.1615 309.372 16.9368 309.463 16.7285C309.554 16.5137 309.678 16.3281 309.834 16.1719C309.99 16.0156 310.173 15.8919 310.381 15.8008C310.596 15.7096 310.824 15.6641 311.064 15.6641C311.305 15.6641 311.53 15.7096 311.738 15.8008C311.953 15.8919 312.139 16.0156 312.295 16.1719C312.458 16.3281 312.585 16.5137 312.676 16.7285C312.767 16.9368 312.812 17.1615 312.812 17.4023ZM322.324 26.582C322.311 26.4714 322.301 26.3574 322.295 26.2402C322.288 26.123 322.285 26.0026 322.285 25.8789H321.924C321.663 25.8789 321.354 25.8984 320.996 25.9375C320.645 25.9766 320.28 26.0384 319.902 26.123C319.525 26.2077 319.15 26.3216 318.779 26.4648C318.408 26.6016 318.076 26.7708 317.783 26.9727C317.49 27.168 317.253 27.3991 317.07 27.666C316.895 27.9329 316.807 28.2389 316.807 28.584C316.807 28.7663 316.849 28.9225 316.934 29.0527C317.025 29.1829 317.135 29.2904 317.266 29.375C317.402 29.4531 317.552 29.5117 317.715 29.5508C317.878 29.5833 318.034 29.5996 318.184 29.5996C318.646 29.5996 319.082 29.5117 319.492 29.3359C319.909 29.1536 320.293 28.9193 320.645 28.6328C320.996 28.3398 321.312 28.0143 321.592 27.6562C321.872 27.2982 322.116 26.9401 322.324 26.582ZM327.002 29.9609H326.963C326.852 29.9479 326.738 29.9414 326.621 29.9414C326.504 29.9414 326.39 29.9414 326.279 29.9414C325.667 29.9414 325.078 29.9805 324.512 30.0586C323.952 30.1367 323.389 30.2572 322.822 30.4199C322.803 30.4199 322.783 30.4232 322.764 30.4297C322.744 30.4362 322.718 30.4395 322.686 30.4395C322.536 30.4395 322.412 30.3809 322.314 30.2637C322.223 30.153 322.178 30.0391 322.178 29.9219V29.8438C322.178 29.8307 322.194 29.7005 322.227 29.4531C322.259 29.1992 322.292 28.8477 322.324 28.3984C322.044 28.7109 321.745 29.0039 321.426 29.2773C321.113 29.5443 320.781 29.7786 320.43 29.9805C320.085 30.1758 319.727 30.3288 319.355 30.4395C318.984 30.5566 318.6 30.6152 318.203 30.6152C317.891 30.6152 317.588 30.5664 317.295 30.4688C317.002 30.3776 316.742 30.2441 316.514 30.0684C316.292 29.8926 316.113 29.681 315.977 29.4336C315.846 29.1797 315.781 28.8965 315.781 28.584C315.781 28.0957 315.885 27.666 316.094 27.2949C316.309 26.9238 316.589 26.6016 316.934 26.3281C317.279 26.0482 317.669 25.8171 318.105 25.6348C318.548 25.446 318.997 25.2962 319.453 25.1855C319.909 25.0684 320.352 24.987 320.781 24.9414C321.211 24.8893 321.592 24.8633 321.924 24.8633H322.158C322.158 24.4661 322.087 24.0788 321.943 23.7012C321.807 23.3236 321.611 22.9883 321.357 22.6953C321.11 22.4023 320.814 22.168 320.469 21.9922C320.124 21.8099 319.743 21.7188 319.326 21.7188C319.02 21.7188 318.721 21.8066 318.428 21.9824C318.135 22.1517 317.874 22.3698 317.646 22.6367C317.419 22.9036 317.233 23.2031 317.09 23.5352C316.953 23.8672 316.885 24.1895 316.885 24.502C316.885 24.6322 316.829 24.7428 316.719 24.834C316.615 24.9186 316.497 24.9609 316.367 24.9609C316.224 24.9609 316.1 24.9089 315.996 24.8047C315.892 24.694 315.84 24.5736 315.84 24.4434C315.84 24.1309 315.895 23.8053 316.006 23.4668C316.117 23.1217 316.276 22.7865 316.484 22.4609C316.699 22.1289 316.956 21.8164 317.256 21.5234C317.562 21.2305 317.907 20.9733 318.291 20.752C318.682 20.5241 319.108 20.3451 319.57 20.2148C320.033 20.0846 320.524 20.0195 321.045 20.0195C321.774 20.0195 322.396 20.1335 322.91 20.3613C323.431 20.5892 323.864 20.8984 324.209 21.2891C324.561 21.6797 324.837 22.1322 325.039 22.6465C325.241 23.1608 325.394 23.7044 325.498 24.2773C325.602 24.8503 325.667 25.4329 325.693 26.0254C325.726 26.6178 325.742 27.1842 325.742 27.7246C325.742 27.998 325.739 28.2324 325.732 28.4277C325.726 28.623 325.723 28.7858 325.723 28.916C325.82 28.916 325.918 28.9128 326.016 28.9062C326.12 28.8997 326.221 28.8965 326.318 28.8965C326.429 28.8965 326.543 28.8997 326.66 28.9062C326.784 28.9128 326.904 28.916 327.021 28.916C327.165 28.929 327.279 28.9844 327.363 29.082C327.454 29.1797 327.5 29.3001 327.5 29.4434C327.5 29.5801 327.451 29.7005 327.354 29.8047C327.262 29.9089 327.145 29.9609 327.002 29.9609ZM337.412 23.5156C337.393 23.6458 337.331 23.7533 337.227 23.8379C337.129 23.9225 337.015 23.9648 336.885 23.9648C336.755 23.9648 336.641 23.9193 336.543 23.8281C336.452 23.737 336.4 23.6198 336.387 23.4766C336.387 23.1966 336.328 22.9036 336.211 22.5977C336.094 22.2917 335.934 22.0117 335.732 21.7578C335.531 21.5039 335.299 21.2956 335.039 21.1328C334.779 20.9635 334.502 20.8789 334.209 20.8789C333.844 20.8789 333.522 20.957 333.242 21.1133C332.962 21.263 332.718 21.4648 332.51 21.7188C332.301 21.9727 332.129 22.2624 331.992 22.5879C331.855 22.9134 331.745 23.2487 331.66 23.5938C331.576 23.9323 331.514 24.2676 331.475 24.5996C331.442 24.9316 331.426 25.2311 331.426 25.498C331.426 25.9538 331.475 26.4095 331.572 26.8652C331.676 27.321 331.833 27.7311 332.041 28.0957C332.249 28.4538 332.516 28.7467 332.842 28.9746C333.167 29.2025 333.555 29.3164 334.004 29.3164C334.336 29.3164 334.648 29.2415 334.941 29.0918C335.234 28.9421 335.495 28.75 335.723 28.5156C335.957 28.2747 336.156 28.0111 336.318 27.7246C336.481 27.4382 336.598 27.1582 336.67 26.8848C336.702 26.7611 336.761 26.6602 336.846 26.582C336.937 26.5039 337.044 26.4648 337.168 26.4648C337.311 26.4648 337.432 26.5202 337.529 26.6309C337.633 26.735 337.686 26.8522 337.686 26.9824C337.686 27.0215 337.679 27.054 337.666 27.0801C337.62 27.2949 337.542 27.5293 337.432 27.7832C337.321 28.0371 337.174 28.291 336.992 28.5449C336.816 28.7988 336.602 29.0462 336.348 29.2871C336.094 29.5215 335.804 29.7298 335.479 29.9121C335.153 30.0944 334.792 30.2409 334.395 30.3516C333.997 30.4622 333.561 30.5176 333.086 30.5176C332.337 30.5176 331.647 30.3906 331.016 30.1367C330.384 29.8893 329.84 29.541 329.385 29.0918C328.929 28.6361 328.571 28.0924 328.311 27.4609C328.057 26.8229 327.93 26.123 327.93 25.3613C327.93 24.541 328.04 23.7793 328.262 23.0762C328.49 22.373 328.818 21.7643 329.248 21.25C329.684 20.7357 330.218 20.332 330.85 20.0391C331.488 19.7461 332.22 19.5996 333.047 19.5996C333.789 19.5996 334.479 19.7493 335.117 20.0488C335.755 20.3418 336.279 20.7845 336.689 21.377L337.012 19.3848C337.031 19.2611 337.087 19.1602 337.178 19.082C337.275 19.0039 337.386 18.9648 337.51 18.9648C337.673 18.9648 337.799 19.0202 337.891 19.1309C337.982 19.2415 338.027 19.3522 338.027 19.4629V19.541L337.412 23.5156Z" fill="white"/>
<path d="M151.706 38.536L154.982 48H153.643L152.551 44.75H149.431L148.326 48H147.234L150.523 38.536H151.706ZM151.004 40.122L149.73 43.866H152.252L151.004 40.122ZM161.759 41.383C162.089 41.383 162.418 41.4393 162.747 41.552C163.085 41.656 163.415 41.8207 163.735 42.046L163.15 42.8C162.908 42.6007 162.669 42.4577 162.435 42.371C162.201 42.2757 161.976 42.228 161.759 42.228C161.413 42.228 161.101 42.332 160.823 42.54C160.546 42.748 160.325 43.0427 160.16 43.424C160.004 43.8053 159.926 44.2517 159.926 44.763C159.926 45.5777 160.108 46.2017 160.472 46.635C160.845 47.0683 161.313 47.285 161.876 47.285C162.128 47.285 162.37 47.246 162.604 47.168C162.847 47.09 163.098 46.9773 163.358 46.83L163.709 47.519C163.363 47.7357 163.029 47.896 162.708 48C162.388 48.1127 162.028 48.169 161.629 48.169C161.075 48.169 160.581 48.0303 160.147 47.753C159.723 47.467 159.385 47.064 159.133 46.544C158.891 46.024 158.769 45.413 158.769 44.711C158.769 44.035 158.904 43.45 159.172 42.956C159.45 42.4533 159.814 42.0677 160.264 41.799C160.724 41.5217 161.222 41.383 161.759 41.383ZM167.495 48.169C166.862 48.169 166.329 48.013 165.896 47.701C165.471 47.3803 165.15 46.9643 164.934 46.453C164.726 45.9417 164.622 45.3957 164.622 44.815C164.622 44.2343 164.734 43.684 164.96 43.164C165.194 42.6353 165.532 42.2063 165.974 41.877C166.416 41.5477 166.949 41.383 167.573 41.383C168.214 41.383 168.747 41.539 169.172 41.851C169.605 42.163 169.926 42.5747 170.134 43.086C170.35 43.5973 170.459 44.1477 170.459 44.737C170.459 45.3263 170.346 45.8853 170.121 46.414C169.895 46.934 169.562 47.3587 169.12 47.688C168.678 48.0087 168.136 48.169 167.495 48.169ZM167.508 47.35C167.846 47.35 168.127 47.272 168.353 47.116C168.587 46.9513 168.773 46.739 168.912 46.479C169.059 46.219 169.163 45.9417 169.224 45.647C169.284 45.3437 169.315 45.0533 169.315 44.776C169.315 44.49 169.284 44.1997 169.224 43.905C169.172 43.6017 169.081 43.3243 168.951 43.073C168.821 42.813 168.639 42.605 168.405 42.449C168.179 42.2843 167.898 42.202 167.56 42.202C167.222 42.202 166.936 42.2843 166.702 42.449C166.476 42.605 166.294 42.813 166.156 43.073C166.017 43.333 165.917 43.6147 165.857 43.918C165.796 44.2127 165.766 44.4987 165.766 44.776C165.766 45.0447 165.796 45.3307 165.857 45.634C165.917 45.9287 166.013 46.206 166.143 46.466C166.281 46.726 166.463 46.9383 166.689 47.103C166.914 47.2677 167.187 47.35 167.508 47.35ZM174.503 41.396C174.798 41.396 175.093 41.4437 175.387 41.539C175.682 41.6343 175.938 41.7817 176.154 41.981C176.146 41.8597 176.137 41.7427 176.128 41.63C176.128 41.5087 176.128 41.3917 176.128 41.279V38.861L175.946 38.094H177.194V46.141C177.194 46.4097 177.225 46.7217 177.285 47.077C177.355 47.4323 177.459 47.7313 177.597 47.974L176.453 48.117C176.393 47.9697 176.341 47.8223 176.297 47.675C176.254 47.5277 176.224 47.3803 176.206 47.233C175.981 47.5277 175.699 47.7573 175.361 47.922C175.023 48.0867 174.668 48.169 174.295 48.169C173.845 48.169 173.45 48.0737 173.112 47.883C172.774 47.6923 172.493 47.4367 172.267 47.116C172.051 46.7867 171.886 46.427 171.773 46.037C171.669 45.6383 171.617 45.2353 171.617 44.828C171.617 44.2387 171.721 43.684 171.929 43.164C172.146 42.6353 172.467 42.2107 172.891 41.89C173.316 41.5607 173.853 41.396 174.503 41.396ZM174.529 42.28C174.079 42.28 173.723 42.4057 173.463 42.657C173.203 42.9083 173.021 43.2247 172.917 43.606C172.813 43.9873 172.761 44.3687 172.761 44.75C172.761 45.14 172.818 45.5257 172.93 45.907C173.052 46.2883 173.247 46.6047 173.515 46.856C173.793 47.0987 174.161 47.22 174.62 47.22C174.924 47.22 175.201 47.1333 175.452 46.96C175.712 46.778 175.938 46.5787 176.128 46.362V44.178C176.128 43.8313 176.072 43.515 175.959 43.229C175.855 42.943 175.686 42.7133 175.452 42.54C175.218 42.3667 174.911 42.28 174.529 42.28ZM181.791 41.383C182.571 41.383 183.161 41.617 183.559 42.085C183.967 42.5443 184.17 43.151 184.17 43.905C184.17 44.0263 184.162 44.152 184.144 44.282C184.136 44.4033 184.123 44.5333 184.105 44.672H179.997C179.997 45.4953 180.179 46.1323 180.543 46.583C180.907 47.0337 181.393 47.259 181.999 47.259C182.493 47.259 183.039 47.103 183.637 46.791L184.04 47.441C183.737 47.6837 183.395 47.8657 183.013 47.987C182.632 48.1083 182.246 48.169 181.856 48.169C181.18 48.169 180.617 48.0087 180.166 47.688C179.724 47.3673 179.395 46.9513 179.178 46.44C178.962 45.9287 178.853 45.3957 178.853 44.841C178.853 44.4077 178.914 43.9873 179.035 43.58C179.157 43.1727 179.339 42.8043 179.581 42.475C179.833 42.137 180.14 41.8727 180.504 41.682C180.868 41.4827 181.297 41.383 181.791 41.383ZM181.687 42.202C181.393 42.202 181.133 42.2843 180.907 42.449C180.682 42.6137 180.5 42.826 180.361 43.086C180.223 43.3373 180.127 43.5973 180.075 43.866H183.039C183.057 43.3287 182.944 42.917 182.701 42.631C182.459 42.345 182.121 42.202 181.687 42.202ZM191.172 41.396C191.467 41.396 191.762 41.4437 192.056 41.539C192.351 41.6343 192.607 41.7817 192.823 41.981C192.815 41.8597 192.806 41.7427 192.797 41.63C192.797 41.5087 192.797 41.3917 192.797 41.279V38.861L192.615 38.094H193.863V46.141C193.863 46.4097 193.894 46.7217 193.954 47.077C194.024 47.4323 194.128 47.7313 194.266 47.974L193.122 48.117C193.062 47.9697 193.01 47.8223 192.966 47.675C192.923 47.5277 192.893 47.3803 192.875 47.233C192.65 47.5277 192.368 47.7573 192.03 47.922C191.692 48.0867 191.337 48.169 190.964 48.169C190.514 48.169 190.119 48.0737 189.781 47.883C189.443 47.6923 189.162 47.4367 188.936 47.116C188.72 46.7867 188.555 46.427 188.442 46.037C188.338 45.6383 188.286 45.2353 188.286 44.828C188.286 44.2387 188.39 43.684 188.598 43.164C188.815 42.6353 189.136 42.2107 189.56 41.89C189.985 41.5607 190.522 41.396 191.172 41.396ZM191.198 42.28C190.748 42.28 190.392 42.4057 190.132 42.657C189.872 42.9083 189.69 43.2247 189.586 43.606C189.482 43.9873 189.43 44.3687 189.43 44.75C189.43 45.14 189.487 45.5257 189.599 45.907C189.721 46.2883 189.916 46.6047 190.184 46.856C190.462 47.0987 190.83 47.22 191.289 47.22C191.593 47.22 191.87 47.1333 192.121 46.96C192.381 46.778 192.607 46.5787 192.797 46.362V44.178C192.797 43.8313 192.741 43.515 192.628 43.229C192.524 42.943 192.355 42.7133 192.121 42.54C191.887 42.3667 191.58 42.28 191.198 42.28ZM198.46 41.383C199.24 41.383 199.83 41.617 200.228 42.085C200.636 42.5443 200.839 43.151 200.839 43.905C200.839 44.0263 200.831 44.152 200.813 44.282C200.805 44.4033 200.792 44.5333 200.774 44.672H196.666C196.666 45.4953 196.848 46.1323 197.212 46.583C197.576 47.0337 198.062 47.259 198.668 47.259C199.162 47.259 199.708 47.103 200.306 46.791L200.709 47.441C200.406 47.6837 200.064 47.8657 199.682 47.987C199.301 48.1083 198.915 48.169 198.525 48.169C197.849 48.169 197.286 48.0087 196.835 47.688C196.393 47.3673 196.064 46.9513 195.847 46.44C195.631 45.9287 195.522 45.3957 195.522 44.841C195.522 44.4077 195.583 43.9873 195.704 43.58C195.826 43.1727 196.008 42.8043 196.25 42.475C196.502 42.137 196.809 41.8727 197.173 41.682C197.537 41.4827 197.966 41.383 198.46 41.383ZM198.356 42.202C198.062 42.202 197.802 42.2843 197.576 42.449C197.351 42.6137 197.169 42.826 197.03 43.086C196.892 43.3373 196.796 43.5973 196.744 43.866H199.708C199.726 43.3287 199.613 42.917 199.37 42.631C199.128 42.345 198.79 42.202 198.356 42.202ZM203.181 41.448C203.302 41.7427 203.385 42.0417 203.428 42.345C203.662 42.1197 203.948 41.903 204.286 41.695C204.624 41.487 204.966 41.383 205.313 41.383C205.729 41.383 206.084 41.4697 206.379 41.643C206.674 41.8077 206.912 42.0807 207.094 42.462C207.354 42.202 207.662 41.9593 208.017 41.734C208.372 41.5 208.736 41.383 209.109 41.383C209.828 41.383 210.335 41.5997 210.63 42.033C210.933 42.4663 211.085 43.0167 211.085 43.684V48H210.006V44.035C210.006 43.775 209.984 43.515 209.941 43.255C209.906 42.995 209.811 42.7783 209.655 42.605C209.508 42.4317 209.265 42.345 208.927 42.345C208.624 42.345 208.325 42.4447 208.03 42.644C207.735 42.8347 207.488 43.0297 207.289 43.229V48H206.21V44.035C206.21 43.7663 206.188 43.5063 206.145 43.255C206.11 42.995 206.015 42.7783 205.859 42.605C205.712 42.4317 205.469 42.345 205.131 42.345C204.94 42.345 204.745 42.3927 204.546 42.488C204.347 42.5747 204.156 42.6873 203.974 42.826C203.792 42.956 203.632 43.0817 203.493 43.203V48H202.414V43.307C202.414 43.0383 202.379 42.7437 202.31 42.423C202.249 42.0937 202.145 41.812 201.998 41.578L203.181 41.448ZM215.597 48.169C214.965 48.169 214.432 48.013 213.998 47.701C213.574 47.3803 213.253 46.9643 213.036 46.453C212.828 45.9417 212.724 45.3957 212.724 44.815C212.724 44.2343 212.837 43.684 213.062 43.164C213.296 42.6353 213.634 42.2063 214.076 41.877C214.518 41.5477 215.051 41.383 215.675 41.383C216.317 41.383 216.85 41.539 217.274 41.851C217.708 42.163 218.028 42.5747 218.236 43.086C218.453 43.5973 218.561 44.1477 218.561 44.737C218.561 45.3263 218.449 45.8853 218.223 46.414C217.998 46.934 217.664 47.3587 217.222 47.688C216.78 48.0087 216.239 48.169 215.597 48.169ZM215.61 47.35C215.948 47.35 216.23 47.272 216.455 47.116C216.689 46.9513 216.876 46.739 217.014 46.479C217.162 46.219 217.266 45.9417 217.326 45.647C217.387 45.3437 217.417 45.0533 217.417 44.776C217.417 44.49 217.387 44.1997 217.326 43.905C217.274 43.6017 217.183 43.3243 217.053 43.073C216.923 42.813 216.741 42.605 216.507 42.449C216.282 42.2843 216 42.202 215.662 42.202C215.324 42.202 215.038 42.2843 214.804 42.449C214.579 42.605 214.397 42.813 214.258 43.073C214.12 43.333 214.02 43.6147 213.959 43.918C213.899 44.2127 213.868 44.4987 213.868 44.776C213.868 45.0447 213.899 45.3307 213.959 45.634C214.02 45.9287 214.115 46.206 214.245 46.466C214.384 46.726 214.566 46.9383 214.791 47.103C215.017 47.2677 215.29 47.35 215.61 47.35ZM220.84 41.435C220.901 41.5823 220.953 41.734 220.996 41.89C221.039 42.046 221.07 42.202 221.087 42.358C221.347 42.098 221.655 41.8727 222.01 41.682C222.365 41.4827 222.729 41.383 223.102 41.383C223.821 41.383 224.328 41.5997 224.623 42.033C224.926 42.4663 225.078 43.0167 225.078 43.684V48H224.012V44.035C224.012 43.7663 223.99 43.502 223.947 43.242C223.912 42.982 223.817 42.7697 223.661 42.605C223.514 42.4317 223.267 42.345 222.92 42.345C222.599 42.345 222.279 42.436 221.958 42.618C221.646 42.7913 221.377 42.9863 221.152 43.203V48H220.086V43.424C220.086 43.2507 220.073 43.0513 220.047 42.826C220.021 42.592 219.978 42.3667 219.917 42.15C219.856 41.9247 219.77 41.7383 219.657 41.591L220.84 41.435ZM229.327 41.383C229.622 41.383 229.912 41.422 230.198 41.5C230.493 41.5693 230.762 41.682 231.004 41.838L230.627 42.67C230.437 42.514 230.224 42.397 229.99 42.319C229.756 42.241 229.527 42.202 229.301 42.202C228.981 42.202 228.699 42.2757 228.456 42.423C228.222 42.5703 228.105 42.7913 228.105 43.086C228.105 43.4067 228.209 43.645 228.417 43.801C228.634 43.957 228.89 44.1043 229.184 44.243C229.47 44.373 229.756 44.5203 230.042 44.685C230.337 44.841 230.584 45.0447 230.783 45.296C230.983 45.5387 231.082 45.868 231.082 46.284C231.082 46.7173 230.974 47.077 230.757 47.363C230.549 47.6403 230.272 47.844 229.925 47.974C229.587 48.104 229.219 48.169 228.82 48.169C228.474 48.169 228.127 48.1213 227.78 48.026C227.434 47.9307 227.113 47.7963 226.818 47.623L227.273 46.83C227.481 46.986 227.715 47.1117 227.975 47.207C228.235 47.3023 228.487 47.35 228.729 47.35C229.059 47.35 229.345 47.272 229.587 47.116C229.839 46.96 229.964 46.726 229.964 46.414C229.964 46.1973 229.895 46.0197 229.756 45.881C229.626 45.7337 229.457 45.6037 229.249 45.491C229.041 45.3783 228.825 45.27 228.599 45.166C228.339 45.036 228.084 44.8973 227.832 44.75C227.59 44.594 227.39 44.399 227.234 44.165C227.078 43.931 227 43.632 227 43.268C227 42.852 227.109 42.5053 227.325 42.228C227.551 41.9507 227.841 41.7427 228.196 41.604C228.552 41.4567 228.929 41.383 229.327 41.383ZM234.302 39.693C234.242 39.9877 234.185 40.2953 234.133 40.616C234.09 40.928 234.06 41.2357 234.042 41.539H235.732L235.511 42.358H234.042V46.492C234.042 46.7433 234.086 46.9427 234.172 47.09C234.268 47.2373 234.454 47.311 234.731 47.311C234.87 47.311 235.009 47.298 235.147 47.272C235.286 47.246 235.42 47.2157 235.55 47.181L235.732 47.909C235.516 47.9697 235.308 48.0217 235.108 48.065C234.918 48.117 234.697 48.143 234.445 48.143C233.891 48.143 233.505 47.9957 233.288 47.701C233.072 47.4063 232.963 46.9947 232.963 46.466V42.358H232.001V41.708C232.348 41.6993 232.621 41.5867 232.82 41.37C233.02 41.1447 233.171 40.876 233.275 40.564C233.379 40.252 233.457 39.9617 233.509 39.693H234.302ZM237.801 41.422C237.957 41.8033 238.057 42.2063 238.1 42.631C238.325 42.2757 238.629 41.9853 239.01 41.76C239.391 41.5347 239.794 41.422 240.219 41.422L239.959 42.566C239.543 42.566 239.188 42.6743 238.893 42.891C238.607 43.1077 238.351 43.3807 238.126 43.71V48H237.047V43.32C237.047 43.0687 237.012 42.7697 236.943 42.423C236.882 42.0677 236.778 41.7817 236.631 41.565L237.801 41.422ZM243.625 41.383C244.31 41.383 244.825 41.5693 245.172 41.942C245.519 42.3147 245.692 42.839 245.692 43.515V46.752C245.692 46.934 245.727 47.0597 245.796 47.129C245.865 47.1897 245.948 47.22 246.043 47.22C246.121 47.22 246.203 47.2113 246.29 47.194C246.377 47.168 246.459 47.1377 246.537 47.103L246.771 47.805C246.632 47.883 246.455 47.9523 246.238 48.013C246.03 48.0823 245.813 48.117 245.588 48.117C245.363 48.117 245.159 48.0563 244.977 47.935C244.795 47.805 244.682 47.571 244.639 47.233C244.388 47.5017 244.093 47.7227 243.755 47.896C243.417 48.0607 243.062 48.143 242.689 48.143C242.178 48.143 241.753 47.9913 241.415 47.688C241.077 47.3847 240.908 46.9687 240.908 46.44C240.908 45.946 241.025 45.5517 241.259 45.257C241.502 44.9623 241.814 44.7413 242.195 44.594C242.576 44.4467 242.979 44.347 243.404 44.295C243.837 44.243 244.24 44.217 244.613 44.217V43.528C244.613 43.164 244.539 42.8563 244.392 42.605C244.245 42.3537 243.959 42.228 243.534 42.228C243.205 42.228 242.888 42.293 242.585 42.423C242.282 42.553 241.978 42.7437 241.675 42.995L241.142 42.228C241.497 41.942 241.887 41.7297 242.312 41.591C242.737 41.4523 243.174 41.383 243.625 41.383ZM244.613 45.062C244.379 45.062 244.115 45.075 243.82 45.101C243.525 45.1183 243.239 45.1703 242.962 45.257C242.685 45.335 242.455 45.465 242.273 45.647C242.1 45.829 242.013 46.0803 242.013 46.401C242.013 46.687 242.108 46.8993 242.299 47.038C242.498 47.168 242.745 47.233 243.04 47.233C243.352 47.233 243.625 47.1463 243.859 46.973C244.093 46.7997 244.275 46.5787 244.405 46.31C244.544 46.0413 244.613 45.764 244.613 45.478V45.062ZM249.321 39.693C249.26 39.9877 249.204 40.2953 249.152 40.616C249.108 40.928 249.078 41.2357 249.061 41.539H250.751L250.53 42.358H249.061V46.492C249.061 46.7433 249.104 46.9427 249.191 47.09C249.286 47.2373 249.472 47.311 249.75 47.311C249.888 47.311 250.027 47.298 250.166 47.272C250.304 47.246 250.439 47.2157 250.569 47.181L250.751 47.909C250.534 47.9697 250.326 48.0217 250.127 48.065C249.936 48.117 249.715 48.143 249.464 48.143C248.909 48.143 248.523 47.9957 248.307 47.701C248.09 47.4063 247.982 46.9947 247.982 46.466V42.358H247.02V41.708C247.366 41.6993 247.639 41.5867 247.839 41.37C248.038 41.1447 248.19 40.876 248.294 40.564C248.398 40.252 248.476 39.9617 248.528 39.693H249.321ZM253.418 39.368C253.418 39.5847 253.34 39.771 253.184 39.927C253.036 40.083 252.85 40.161 252.625 40.161C252.408 40.161 252.222 40.083 252.066 39.927C251.918 39.771 251.845 39.5847 251.845 39.368C251.845 39.1513 251.918 38.965 252.066 38.809C252.222 38.653 252.408 38.575 252.625 38.575C252.841 38.575 253.028 38.653 253.184 38.809C253.34 38.965 253.418 39.1513 253.418 39.368ZM253.184 41.539V48H252.105V42.306L251.949 41.539H253.184ZM257.72 48.169C257.088 48.169 256.555 48.013 256.121 47.701C255.697 47.3803 255.376 46.9643 255.159 46.453C254.951 45.9417 254.847 45.3957 254.847 44.815C254.847 44.2343 254.96 43.684 255.185 43.164C255.419 42.6353 255.757 42.2063 256.199 41.877C256.641 41.5477 257.174 41.383 257.798 41.383C258.44 41.383 258.973 41.539 259.397 41.851C259.831 42.163 260.151 42.5747 260.359 43.086C260.576 43.5973 260.684 44.1477 260.684 44.737C260.684 45.3263 260.572 45.8853 260.346 46.414C260.121 46.934 259.787 47.3587 259.345 47.688C258.903 48.0087 258.362 48.169 257.72 48.169ZM257.733 47.35C258.071 47.35 258.353 47.272 258.578 47.116C258.812 46.9513 258.999 46.739 259.137 46.479C259.285 46.219 259.389 45.9417 259.449 45.647C259.51 45.3437 259.54 45.0533 259.54 44.776C259.54 44.49 259.51 44.1997 259.449 43.905C259.397 43.6017 259.306 43.3243 259.176 43.073C259.046 42.813 258.864 42.605 258.63 42.449C258.405 42.2843 258.123 42.202 257.785 42.202C257.447 42.202 257.161 42.2843 256.927 42.449C256.702 42.605 256.52 42.813 256.381 43.073C256.243 43.333 256.143 43.6147 256.082 43.918C256.022 44.2127 255.991 44.4987 255.991 44.776C255.991 45.0447 256.022 45.3307 256.082 45.634C256.143 45.9287 256.238 46.206 256.368 46.466C256.507 46.726 256.689 46.9383 256.914 47.103C257.14 47.2677 257.413 47.35 257.733 47.35ZM262.963 41.435C263.024 41.5823 263.076 41.734 263.119 41.89C263.162 42.046 263.193 42.202 263.21 42.358C263.47 42.098 263.778 41.8727 264.133 41.682C264.488 41.4827 264.852 41.383 265.225 41.383C265.944 41.383 266.451 41.5997 266.746 42.033C267.049 42.4663 267.201 43.0167 267.201 43.684V48H266.135V44.035C266.135 43.7663 266.113 43.502 266.07 43.242C266.035 42.982 265.94 42.7697 265.784 42.605C265.637 42.4317 265.39 42.345 265.043 42.345C264.722 42.345 264.402 42.436 264.081 42.618C263.769 42.7913 263.5 42.9863 263.275 43.203V48H262.209V43.424C262.209 43.2507 262.196 43.0513 262.17 42.826C262.144 42.592 262.101 42.3667 262.04 42.15C261.979 41.9247 261.893 41.7383 261.78 41.591L262.963 41.435ZM275.213 37.99C275.673 37.99 276.093 38.0983 276.474 38.315L276.175 39.121C276.063 39.017 275.915 38.939 275.733 38.887C275.56 38.8263 275.395 38.796 275.239 38.796C274.858 38.796 274.555 38.8827 274.329 39.056C274.113 39.2293 273.948 39.459 273.835 39.745C273.731 40.0223 273.662 40.3213 273.627 40.642C273.593 40.954 273.575 41.253 273.575 41.539H275.434L275.2 42.345H273.575V48H272.509V42.345H271.534V41.669C271.673 41.6517 271.812 41.6387 271.95 41.63C272.098 41.6127 272.223 41.5693 272.327 41.5C272.431 41.4307 272.501 41.3137 272.535 41.149C272.622 40.7503 272.687 40.4297 272.73 40.187C272.774 39.9357 272.834 39.7147 272.912 39.524C272.99 39.3333 273.116 39.1253 273.289 38.9C273.506 38.6227 273.775 38.4017 274.095 38.237C274.416 38.0723 274.789 37.99 275.213 37.99ZM278.465 48.169C277.832 48.169 277.299 48.013 276.866 47.701C276.441 47.3803 276.12 46.9643 275.904 46.453C275.696 45.9417 275.592 45.3957 275.592 44.815C275.592 44.2343 275.704 43.684 275.93 43.164C276.164 42.6353 276.502 42.2063 276.944 41.877C277.386 41.5477 277.919 41.383 278.543 41.383C279.184 41.383 279.717 41.539 280.142 41.851C280.575 42.163 280.896 42.5747 281.104 43.086C281.32 43.5973 281.429 44.1477 281.429 44.737C281.429 45.3263 281.316 45.8853 281.091 46.414C280.865 46.934 280.532 47.3587 280.09 47.688C279.648 48.0087 279.106 48.169 278.465 48.169ZM278.478 47.35C278.816 47.35 279.097 47.272 279.323 47.116C279.557 46.9513 279.743 46.739 279.882 46.479C280.029 46.219 280.133 45.9417 280.194 45.647C280.254 45.3437 280.285 45.0533 280.285 44.776C280.285 44.49 280.254 44.1997 280.194 43.905C280.142 43.6017 280.051 43.3243 279.921 43.073C279.791 42.813 279.609 42.605 279.375 42.449C279.149 42.2843 278.868 42.202 278.53 42.202C278.192 42.202 277.906 42.2843 277.672 42.449C277.446 42.605 277.264 42.813 277.126 43.073C276.987 43.333 276.887 43.6147 276.827 43.918C276.766 44.2127 276.736 44.4987 276.736 44.776C276.736 45.0447 276.766 45.3307 276.827 45.634C276.887 45.9287 276.983 46.206 277.113 46.466C277.251 46.726 277.433 46.9383 277.659 47.103C277.884 47.2677 278.157 47.35 278.478 47.35ZM283.72 41.422C283.876 41.8033 283.976 42.2063 284.019 42.631C284.244 42.2757 284.548 41.9853 284.929 41.76C285.31 41.5347 285.713 41.422 286.138 41.422L285.878 42.566C285.462 42.566 285.107 42.6743 284.812 42.891C284.526 43.1077 284.27 43.3807 284.045 43.71V48H282.966V43.32C282.966 43.0687 282.931 42.7697 282.862 42.423C282.801 42.0677 282.697 41.7817 282.55 41.565L283.72 41.422ZM290.364 38.536H293.198C293.822 38.536 294.373 38.6357 294.849 38.835C295.335 39.0257 295.712 39.329 295.98 39.745C296.249 40.161 296.383 40.7113 296.383 41.396C296.383 42.0287 296.24 42.5573 295.954 42.982C295.668 43.4067 295.287 43.7273 294.81 43.944C294.334 44.152 293.801 44.256 293.211 44.256H291.768V48H290.559V39.394L290.364 38.536ZM291.768 39.433V43.372H293.185C293.783 43.372 294.256 43.19 294.602 42.826C294.949 42.462 295.122 41.9853 295.122 41.396C295.122 40.7807 294.958 40.2997 294.628 39.953C294.299 39.6063 293.822 39.433 293.198 39.433H291.768ZM303.861 43.528H299.259V48H298.05V39.394C298.05 39.3853 298.033 39.316 297.998 39.186C297.972 39.056 297.946 38.9217 297.92 38.783C297.894 38.6443 297.877 38.562 297.868 38.536H299.259V42.644H303.861V38.536H305.07V48H303.861V43.528ZM307.122 38.536H309.956C310.58 38.536 311.131 38.6357 311.607 38.835C312.093 39.0257 312.47 39.329 312.738 39.745C313.007 40.161 313.141 40.7113 313.141 41.396C313.141 42.0287 312.998 42.5573 312.712 42.982C312.426 43.4067 312.045 43.7273 311.568 43.944C311.092 44.152 310.559 44.256 309.969 44.256H308.526V48H307.317V39.394L307.122 38.536ZM308.526 39.433V43.372H309.943C310.541 43.372 311.014 43.19 311.36 42.826C311.707 42.462 311.88 41.9853 311.88 41.396C311.88 40.7807 311.716 40.2997 311.386 39.953C311.057 39.6063 310.58 39.433 309.956 39.433H308.526Z" fill="#FFD700"/>
<rect x="46" y="-3" width="7" height="63" fill="url(#paint0_linear)"/>
<rect x="410" y="-1" width="7" height="63" fill="url(#paint1_linear)"/>
<rect x="60" y="-1" width="3" height="63" fill="url(#paint2_linear)"/>
<rect x="400" y="-1" width="3" height="63" fill="url(#paint3_linear)"/>
</g>
<defs>
<linearGradient id="paint0_linear" x1="49.5" y1="-3" x2="49.5" y2="60" gradientUnits="userSpaceOnUse">
<stop stop-color="#DD9539"/>
<stop offset="1" stop-color="#DD9539" stop-opacity="0"/>
</linearGradient>
<linearGradient id="paint1_linear" x1="413.5" y1="-1" x2="413.5" y2="62" gradientUnits="userSpaceOnUse">
<stop stop-color="#DD9539"/>
<stop offset="1" stop-color="#DD9539" stop-opacity="0"/>
</linearGradient>
<linearGradient id="paint2_linear" x1="61.5" y1="-1" x2="61.5" y2="62" gradientUnits="userSpaceOnUse">
<stop stop-color="#DD9539"/>
<stop offset="1" stop-color="#DD9539" stop-opacity="0"/>
</linearGradient>
<linearGradient id="paint3_linear" x1="401.5" y1="-1" x2="401.5" y2="62" gradientUnits="userSpaceOnUse">
<stop stop-color="#DD9539"/>
<stop offset="1" stop-color="#DD9539" stop-opacity="0"/>
</linearGradient>
<clipPath id="clip0">
<rect width="468" height="60" fill="white"/>
</clipPath>
</defs>
</svg>
