<svg width="468" height="42" viewBox="0 0 468 42" fill="none" xmlns="http://www.w3.org/2000/svg">
<g clip-path="url(#clip0)">
<rect width="468" height="42" fill="#BD1313"/>
<g filter="url(#filter0_d)">
<path d="M116.641 8.71875L115.879 14.4414L114.756 10.2617L111.758 10.6035L112.158 20.3594L114.58 21.5996L106.777 22.3418L109.619 20.2812L110.117 10.7012L107.021 10.584L105.82 14.1387L105.439 8.88477L116.641 8.71875ZM116.396 21.8828L117.9 20.6621L118.594 9.7832L116.416 8.69922L119.873 8.12305L119.912 13.6211C120.133 13.3021 120.378 13.0417 120.645 12.8398C120.911 12.6315 121.172 12.4688 121.426 12.3516C121.686 12.2344 121.924 12.153 122.139 12.1074C122.36 12.0618 122.533 12.0391 122.656 12.0391C123.268 12.0391 123.786 12.1497 124.209 12.3711C124.632 12.5859 124.974 12.8854 125.234 13.2695C125.501 13.6536 125.693 14.1094 125.811 14.6367C125.934 15.1576 125.996 15.724 125.996 16.3359C125.996 16.6745 125.967 17.0358 125.908 17.4199C125.856 17.804 125.785 18.1914 125.693 18.582C125.602 18.9661 125.498 19.3405 125.381 19.7051C125.27 20.0632 125.156 20.3887 125.039 20.6816L126.973 21.7559L121.914 22.2832L124.053 20.3398C124.144 19.8581 124.209 19.4056 124.248 18.9824C124.294 18.5592 124.316 18.1654 124.316 17.8008C124.316 17.6185 124.303 17.3971 124.277 17.1367C124.258 16.8763 124.215 16.6061 124.15 16.3262C124.085 16.0397 123.997 15.7565 123.887 15.4766C123.776 15.1966 123.63 14.946 123.447 14.7246C123.271 14.5033 123.057 14.3242 122.803 14.1875C122.555 14.0508 122.259 13.9824 121.914 13.9824C121.576 13.9824 121.227 14.0573 120.869 14.207C120.518 14.3568 120.199 14.5944 119.912 14.9199L119.98 20.7988L121.279 21.8828H116.396ZM129.873 18.416C129.958 18.7806 130.072 19.1387 130.215 19.4902C130.358 19.8353 130.534 20.1445 130.742 20.418C130.951 20.6914 131.191 20.9128 131.465 21.082C131.738 21.2513 132.048 21.3359 132.393 21.3359C132.848 21.3359 133.245 21.2415 133.584 21.0527C133.923 20.8639 134.199 20.6263 134.414 20.3398C134.629 20.0469 134.779 19.7279 134.863 19.3828C134.948 19.0312 134.964 18.696 134.912 18.377C135.094 18.4486 135.244 18.543 135.361 18.6602C135.485 18.7773 135.579 18.9076 135.645 19.0508C135.716 19.1875 135.765 19.3307 135.791 19.4805C135.817 19.6237 135.83 19.7637 135.83 19.9004C135.83 20.2129 135.739 20.5156 135.557 20.8086C135.374 21.0951 135.117 21.3522 134.785 21.5801C134.46 21.8014 134.072 21.9805 133.623 22.1172C133.174 22.2539 132.682 22.3223 132.148 22.3223C131.432 22.3223 130.791 22.1823 130.225 21.9023C129.665 21.6224 129.189 21.2448 128.799 20.7695C128.408 20.2878 128.109 19.7246 127.9 19.0801C127.692 18.4355 127.588 17.7487 127.588 17.0195C127.588 16.2773 127.692 15.5938 127.9 14.9688C128.109 14.3372 128.415 13.8001 128.818 13.3574C129.229 12.9147 129.73 12.5794 130.322 12.3516C130.915 12.1237 131.598 12.0326 132.373 12.0781C132.907 12.1172 133.398 12.2702 133.848 12.5371C134.297 12.804 134.688 13.1491 135.02 13.5723C135.358 13.9889 135.628 14.4674 135.83 15.0078C136.038 15.5482 136.165 16.1113 136.211 16.6973L129.873 18.416ZM129.688 16.8438C129.688 16.9349 129.688 17.026 129.688 17.1172C129.688 17.2018 129.694 17.2897 129.707 17.3809L133.994 15.8184C133.851 15.3496 133.688 14.9492 133.506 14.6172C133.33 14.2786 133.145 14.002 132.949 13.7871C132.754 13.5723 132.555 13.416 132.354 13.3184C132.158 13.2142 131.969 13.1621 131.787 13.1621C131.514 13.1621 131.273 13.2142 131.064 13.3184C130.856 13.4225 130.674 13.5658 130.518 13.748C130.368 13.9238 130.238 14.1322 130.127 14.373C130.023 14.6139 129.938 14.8711 129.873 15.1445C129.808 15.418 129.759 15.7012 129.727 15.9941C129.701 16.2806 129.688 16.5638 129.688 16.8438ZM148.438 8.33789C149.102 8.33789 149.736 8.45508 150.342 8.68945C150.947 8.91732 151.452 9.2526 151.855 9.69531L154.238 7.80078L151.514 13.6406L151.279 10.7988C151.064 10.5384 150.837 10.3333 150.596 10.1836C150.355 10.0339 150.12 9.92318 149.893 9.85156C149.671 9.77344 149.469 9.72461 149.287 9.70508C149.111 9.68555 148.975 9.67578 148.877 9.67578C148.35 9.67578 147.858 9.80924 147.402 10.0762C146.953 10.3431 146.562 10.7272 146.23 11.2285C145.898 11.7233 145.635 12.3223 145.439 13.0254C145.251 13.7285 145.156 14.513 145.156 15.3789C145.156 16.2448 145.251 17.0358 145.439 17.752C145.635 18.4681 145.895 19.0833 146.221 19.5977C146.553 20.112 146.94 20.5124 147.383 20.7988C147.826 21.0788 148.298 21.2188 148.799 21.2188C149.307 21.2188 149.743 21.0951 150.107 20.8477C150.472 20.5938 150.771 20.2747 151.006 19.8906C151.24 19.5065 151.41 19.0866 151.514 18.6309C151.624 18.1751 151.68 17.7389 151.68 17.3223C151.68 17.2311 151.68 17.1465 151.68 17.0684C151.68 16.9837 151.673 16.8958 151.66 16.8047C152.083 17.0846 152.393 17.4036 152.588 17.7617C152.79 18.1133 152.891 18.4779 152.891 18.8555C152.891 19.207 152.803 19.5814 152.627 19.9785C152.458 20.3691 152.204 20.7337 151.865 21.0723C151.527 21.4043 151.11 21.681 150.615 21.9023C150.12 22.1172 149.548 22.2246 148.896 22.2246C148.369 22.2246 147.845 22.1693 147.324 22.0586C146.803 21.9479 146.305 21.7786 145.83 21.5508C145.355 21.3164 144.912 21.0202 144.502 20.6621C144.092 20.304 143.737 19.8776 143.438 19.3828C143.138 18.888 142.9 18.3184 142.725 17.6738C142.555 17.0293 142.471 16.3099 142.471 15.5156C142.471 14.7409 142.549 14.028 142.705 13.377C142.868 12.7194 143.089 12.127 143.369 11.5996C143.656 11.0658 143.988 10.597 144.365 10.1934C144.749 9.7832 145.16 9.44141 145.596 9.16797C146.038 8.89453 146.501 8.68945 146.982 8.55273C147.471 8.40951 147.956 8.33789 148.438 8.33789ZM153.232 21.8828L154.736 20.6621L155.43 9.7832L153.252 8.69922L156.709 8.12305L156.748 13.6211C156.969 13.3021 157.214 13.0417 157.48 12.8398C157.747 12.6315 158.008 12.4688 158.262 12.3516C158.522 12.2344 158.76 12.153 158.975 12.1074C159.196 12.0618 159.368 12.0391 159.492 12.0391C160.104 12.0391 160.622 12.1497 161.045 12.3711C161.468 12.5859 161.81 12.8854 162.07 13.2695C162.337 13.6536 162.529 14.1094 162.646 14.6367C162.77 15.1576 162.832 15.724 162.832 16.3359C162.832 16.6745 162.803 17.0358 162.744 17.4199C162.692 17.804 162.62 18.1914 162.529 18.582C162.438 18.9661 162.334 19.3405 162.217 19.7051C162.106 20.0632 161.992 20.3887 161.875 20.6816L163.809 21.7559L158.75 22.2832L160.889 20.3398C160.98 19.8581 161.045 19.4056 161.084 18.9824C161.13 18.5592 161.152 18.1654 161.152 17.8008C161.152 17.6185 161.139 17.3971 161.113 17.1367C161.094 16.8763 161.051 16.6061 160.986 16.3262C160.921 16.0397 160.833 15.7565 160.723 15.4766C160.612 15.1966 160.465 14.946 160.283 14.7246C160.107 14.5033 159.893 14.3242 159.639 14.1875C159.391 14.0508 159.095 13.9824 158.75 13.9824C158.411 13.9824 158.063 14.0573 157.705 14.207C157.354 14.3568 157.035 14.5944 156.748 14.9199L156.816 20.7988L158.115 21.8828H153.232ZM164.209 22.0977L165.742 20.8965L165.41 14.1582L163.604 12.9766L167.803 12.2637L167.051 20.0957L169.15 21.4043L164.209 22.0977ZM167.91 9.90039C167.91 10.0957 167.871 10.2812 167.793 10.457C167.715 10.6263 167.607 10.7793 167.471 10.916C167.334 11.0462 167.178 11.1504 167.002 11.2285C166.826 11.3001 166.641 11.3359 166.445 11.3359C166.237 11.3359 166.042 11.3001 165.859 11.2285C165.684 11.1504 165.531 11.0462 165.4 10.916C165.27 10.7793 165.166 10.6263 165.088 10.457C165.01 10.2812 164.971 10.0957 164.971 9.90039C164.971 9.69857 165.01 9.51302 165.088 9.34375C165.166 9.16797 165.27 9.01497 165.4 8.88477C165.531 8.75456 165.684 8.65365 165.859 8.58203C166.042 8.50391 166.237 8.46484 166.445 8.46484C166.641 8.46484 166.826 8.50391 167.002 8.58203C167.178 8.65365 167.334 8.75456 167.471 8.88477C167.607 9.01497 167.715 9.16797 167.793 9.34375C167.871 9.51302 167.91 9.69857 167.91 9.90039ZM178.389 15.9355C178.389 16.3001 178.372 16.6842 178.34 17.0879C178.307 17.4915 178.258 17.8952 178.193 18.2988C178.128 18.7025 178.047 19.0964 177.949 19.4805C177.858 19.8646 177.751 20.2161 177.627 20.5352L179.551 21.1602L174.463 22.1562L176.191 20.8574C176.328 20.3561 176.419 19.8743 176.465 19.4121C176.517 18.9499 176.543 18.5137 176.543 18.1035C176.543 17.8561 176.533 17.5762 176.514 17.2637C176.501 16.9447 176.465 16.6224 176.406 16.2969C176.354 15.9714 176.276 15.6523 176.172 15.3398C176.074 15.0273 175.944 14.7507 175.781 14.5098C175.618 14.2624 175.417 14.0671 175.176 13.9238C174.941 13.7741 174.658 13.6992 174.326 13.6992C173.942 13.6992 173.551 13.8262 173.154 14.0801C172.757 14.334 172.389 14.7083 172.051 15.2031V20.6035L173.662 21.7559L168.828 22.0977L170.107 20.6816L170.791 13.582L168.711 12.5566L172.051 12.2246V13.6992C172.24 13.4388 172.448 13.1947 172.676 12.9668C172.904 12.7389 173.145 12.5436 173.398 12.3809C173.652 12.2116 173.916 12.0814 174.189 11.9902C174.469 11.8926 174.756 11.8438 175.049 11.8438C175.615 11.8438 176.107 11.9479 176.523 12.1562C176.94 12.3646 177.285 12.6543 177.559 13.0254C177.839 13.39 178.047 13.8229 178.184 14.3242C178.32 14.819 178.389 15.3561 178.389 15.9355ZM182.295 18.416C182.38 18.7806 182.493 19.1387 182.637 19.4902C182.78 19.8353 182.956 20.1445 183.164 20.418C183.372 20.6914 183.613 20.9128 183.887 21.082C184.16 21.2513 184.469 21.3359 184.814 21.3359C185.27 21.3359 185.667 21.2415 186.006 21.0527C186.344 20.8639 186.621 20.6263 186.836 20.3398C187.051 20.0469 187.201 19.7279 187.285 19.3828C187.37 19.0312 187.386 18.696 187.334 18.377C187.516 18.4486 187.666 18.543 187.783 18.6602C187.907 18.7773 188.001 18.9076 188.066 19.0508C188.138 19.1875 188.187 19.3307 188.213 19.4805C188.239 19.6237 188.252 19.7637 188.252 19.9004C188.252 20.2129 188.161 20.5156 187.979 20.8086C187.796 21.0951 187.539 21.3522 187.207 21.5801C186.882 21.8014 186.494 21.9805 186.045 22.1172C185.596 22.2539 185.104 22.3223 184.57 22.3223C183.854 22.3223 183.213 22.1823 182.646 21.9023C182.087 21.6224 181.611 21.2448 181.221 20.7695C180.83 20.2878 180.531 19.7246 180.322 19.0801C180.114 18.4355 180.01 17.7487 180.01 17.0195C180.01 16.2773 180.114 15.5938 180.322 14.9688C180.531 14.3372 180.837 13.8001 181.24 13.3574C181.65 12.9147 182.152 12.5794 182.744 12.3516C183.337 12.1237 184.02 12.0326 184.795 12.0781C185.329 12.1172 185.82 12.2702 186.27 12.5371C186.719 12.804 187.109 13.1491 187.441 13.5723C187.78 13.9889 188.05 14.4674 188.252 15.0078C188.46 15.5482 188.587 16.1113 188.633 16.6973L182.295 18.416ZM182.109 16.8438C182.109 16.9349 182.109 17.026 182.109 17.1172C182.109 17.2018 182.116 17.2897 182.129 17.3809L186.416 15.8184C186.273 15.3496 186.11 14.9492 185.928 14.6172C185.752 14.2786 185.566 14.002 185.371 13.7871C185.176 13.5723 184.977 13.416 184.775 13.3184C184.58 13.2142 184.391 13.1621 184.209 13.1621C183.936 13.1621 183.695 13.2142 183.486 13.3184C183.278 13.4225 183.096 13.5658 182.939 13.748C182.79 13.9238 182.66 14.1322 182.549 14.373C182.445 14.6139 182.36 14.8711 182.295 15.1445C182.23 15.418 182.181 15.7012 182.148 15.9941C182.122 16.2806 182.109 16.5638 182.109 16.8438ZM193.438 12.0586C193.685 12.0586 193.936 12.0814 194.189 12.127C194.443 12.166 194.691 12.2279 194.932 12.3125C195.179 12.3906 195.41 12.4883 195.625 12.6055C195.846 12.7161 196.045 12.8398 196.221 12.9766L197.822 11.0039L197.1 15.877C197.021 15.5384 196.885 15.2064 196.689 14.8809C196.494 14.5488 196.25 14.2526 195.957 13.9922C195.671 13.7318 195.339 13.5234 194.961 13.3672C194.583 13.2044 194.17 13.123 193.721 13.123C193.473 13.123 193.236 13.1523 193.008 13.2109C192.78 13.263 192.578 13.3509 192.402 13.4746C192.233 13.5983 192.096 13.7546 191.992 13.9434C191.895 14.1322 191.846 14.3568 191.846 14.6172C191.846 14.9297 191.93 15.1836 192.1 15.3789C192.275 15.5742 192.503 15.7402 192.783 15.877C193.063 16.0072 193.382 16.1211 193.74 16.2188C194.098 16.3099 194.466 16.4076 194.844 16.5117C195.221 16.6159 195.589 16.7396 195.947 16.8828C196.305 17.0195 196.624 17.1986 196.904 17.4199C197.184 17.6413 197.409 17.918 197.578 18.25C197.754 18.5755 197.842 18.9792 197.842 19.4609C197.842 20.0013 197.734 20.4635 197.52 20.8477C197.311 21.2253 197.041 21.5378 196.709 21.7852C196.377 22.026 196.009 22.2018 195.605 22.3125C195.202 22.4232 194.808 22.4785 194.424 22.4785C194.111 22.4785 193.799 22.446 193.486 22.3809C193.174 22.3158 192.871 22.2246 192.578 22.1074C192.285 21.9902 192.005 21.8503 191.738 21.6875C191.478 21.5247 191.24 21.349 191.025 21.1602L189.541 23.1426L190 18.2988C190.208 18.7415 190.459 19.1549 190.752 19.5391C191.045 19.9232 191.37 20.2585 191.729 20.5449C192.087 20.8249 192.471 21.0462 192.881 21.209C193.291 21.3652 193.717 21.4434 194.16 21.4434C194.674 21.4434 195.085 21.3359 195.391 21.1211C195.703 20.8997 195.859 20.5872 195.859 20.1836C195.859 19.9232 195.771 19.7083 195.596 19.5391C195.426 19.3633 195.199 19.2103 194.912 19.0801C194.632 18.9499 194.313 18.8327 193.955 18.7285C193.597 18.6243 193.229 18.5104 192.852 18.3867C192.474 18.263 192.106 18.1198 191.748 17.957C191.39 17.7878 191.068 17.5794 190.781 17.332C190.501 17.0781 190.273 16.7721 190.098 16.4141C189.928 16.0495 189.844 15.61 189.844 15.0957C189.844 14.653 189.909 14.2689 190.039 13.9434C190.169 13.6178 190.339 13.3444 190.547 13.123C190.762 12.8952 190.999 12.7129 191.26 12.5762C191.527 12.4329 191.794 12.3255 192.061 12.2539C192.327 12.1758 192.581 12.1237 192.822 12.0977C193.063 12.0716 193.268 12.0586 193.438 12.0586ZM201.201 18.416C201.286 18.7806 201.4 19.1387 201.543 19.4902C201.686 19.8353 201.862 20.1445 202.07 20.418C202.279 20.6914 202.52 20.9128 202.793 21.082C203.066 21.2513 203.376 21.3359 203.721 21.3359C204.176 21.3359 204.574 21.2415 204.912 21.0527C205.251 20.8639 205.527 20.6263 205.742 20.3398C205.957 20.0469 206.107 19.7279 206.191 19.3828C206.276 19.0312 206.292 18.696 206.24 18.377C206.423 18.4486 206.572 18.543 206.689 18.6602C206.813 18.7773 206.908 18.9076 206.973 19.0508C207.044 19.1875 207.093 19.3307 207.119 19.4805C207.145 19.6237 207.158 19.7637 207.158 19.9004C207.158 20.2129 207.067 20.5156 206.885 20.8086C206.702 21.0951 206.445 21.3522 206.113 21.5801C205.788 21.8014 205.4 21.9805 204.951 22.1172C204.502 22.2539 204.01 22.3223 203.477 22.3223C202.76 22.3223 202.119 22.1823 201.553 21.9023C200.993 21.6224 200.518 21.2448 200.127 20.7695C199.736 20.2878 199.437 19.7246 199.229 19.0801C199.02 18.4355 198.916 17.7487 198.916 17.0195C198.916 16.2773 199.02 15.5938 199.229 14.9688C199.437 14.3372 199.743 13.8001 200.146 13.3574C200.557 12.9147 201.058 12.5794 201.65 12.3516C202.243 12.1237 202.926 12.0326 203.701 12.0781C204.235 12.1172 204.727 12.2702 205.176 12.5371C205.625 12.804 206.016 13.1491 206.348 13.5723C206.686 13.9889 206.956 14.4674 207.158 15.0078C207.367 15.5482 207.493 16.1113 207.539 16.6973L201.201 18.416ZM201.016 16.8438C201.016 16.9349 201.016 17.026 201.016 17.1172C201.016 17.2018 201.022 17.2897 201.035 17.3809L205.322 15.8184C205.179 15.3496 205.016 14.9492 204.834 14.6172C204.658 14.2786 204.473 14.002 204.277 13.7871C204.082 13.5723 203.883 13.416 203.682 13.3184C203.486 13.2142 203.298 13.1621 203.115 13.1621C202.842 13.1621 202.601 13.2142 202.393 13.3184C202.184 13.4225 202.002 13.5658 201.846 13.748C201.696 13.9238 201.566 14.1322 201.455 14.373C201.351 14.6139 201.266 14.8711 201.201 15.1445C201.136 15.418 201.087 15.7012 201.055 15.9941C201.029 16.2806 201.016 16.5638 201.016 16.8438ZM216.006 20.6035L222.168 19.998L224.16 16.7754L223.428 22.1758L213.721 21.7168L220.264 10.623L215.488 11.7363L214.307 14.0996L214.023 8.24023L215.068 9.48047L224.16 9.04102L216.006 20.6035ZM225.283 17.0977C225.283 16.3685 225.397 15.6947 225.625 15.0762C225.859 14.4512 226.182 13.9108 226.592 13.4551C227.008 12.9993 227.5 12.6445 228.066 12.3906C228.639 12.1302 229.264 12 229.941 12C230.599 12 231.201 12.1237 231.748 12.3711C232.295 12.612 232.77 12.9538 233.174 13.3965C233.577 13.8392 233.9 14.3698 234.141 14.9883C234.382 15.6068 234.525 16.2904 234.57 17.0391C234.616 17.8398 234.531 18.5658 234.316 19.2168C234.108 19.8613 233.799 20.4115 233.389 20.8672C232.979 21.3164 232.487 21.6647 231.914 21.9121C231.348 22.1595 230.732 22.2832 230.068 22.2832C229.43 22.2832 228.822 22.1693 228.242 21.9414C227.669 21.707 227.161 21.3685 226.719 20.9258C226.283 20.4831 225.934 19.9427 225.674 19.3047C225.413 18.6602 225.283 17.9245 225.283 17.0977ZM227.686 17.2637C227.686 17.8366 227.767 18.3542 227.93 18.8164C228.092 19.2786 228.311 19.6725 228.584 19.998C228.857 20.3171 229.173 20.5645 229.531 20.7402C229.889 20.916 230.267 21.0039 230.664 21.0039C231.061 21.0039 231.432 20.9193 231.777 20.75C232.122 20.5742 232.422 20.3301 232.676 20.0176C232.93 19.6986 233.128 19.3177 233.271 18.875C233.415 18.4323 233.486 17.9408 233.486 17.4004C233.486 16.8665 233.415 16.3652 233.271 15.8965C233.128 15.4212 232.926 15.0078 232.666 14.6562C232.412 14.3047 232.109 14.028 231.758 13.8262C231.406 13.6243 231.022 13.5234 230.605 13.5234C230.234 13.5234 229.873 13.6081 229.521 13.7773C229.176 13.9466 228.867 14.194 228.594 14.5195C228.32 14.8385 228.099 15.2292 227.93 15.6914C227.767 16.1536 227.686 16.6777 227.686 17.2637ZM243.838 20.7793L245.996 21.5801L242.461 22.2637L242.5 20.3594C242.344 20.6263 242.165 20.8835 241.963 21.1309C241.761 21.3717 241.533 21.5866 241.279 21.7754C241.032 21.9642 240.755 22.1139 240.449 22.2246C240.143 22.3418 239.811 22.4004 239.453 22.4004C238.945 22.3874 238.464 22.2734 238.008 22.0586C237.559 21.8438 237.161 21.5378 236.816 21.1406C236.478 20.737 236.208 20.2454 236.006 19.666C235.811 19.0801 235.713 18.4128 235.713 17.6641C235.713 16.7526 235.82 15.9551 236.035 15.2715C236.25 14.5879 236.543 14.0182 236.914 13.5625C237.285 13.1068 237.718 12.765 238.213 12.5371C238.714 12.3092 239.248 12.1953 239.814 12.1953C240.387 12.1953 240.918 12.319 241.406 12.5664C241.901 12.8073 242.305 13.1328 242.617 13.543L242.656 11.2383L240.273 10.3398L245.098 9.48047L243.838 20.7793ZM239.756 21.1602C239.775 21.1602 239.84 21.1536 239.951 21.1406C240.062 21.1276 240.199 21.0951 240.361 21.043C240.524 20.9844 240.703 20.8997 240.898 20.7891C241.1 20.6784 241.299 20.5254 241.494 20.3301C241.696 20.1283 241.888 19.8776 242.07 19.5781C242.253 19.2786 242.409 18.9141 242.539 18.4844L242.598 15.3008C242.5 15.0664 242.376 14.8418 242.227 14.627C242.083 14.4121 241.921 14.2233 241.738 14.0605C241.562 13.8913 241.364 13.7578 241.143 13.6602C240.928 13.556 240.7 13.5039 240.459 13.5039C240.01 13.5039 239.626 13.6146 239.307 13.8359C238.994 14.0573 238.734 14.3633 238.525 14.7539C238.324 15.1445 238.174 15.6068 238.076 16.1406C237.985 16.6745 237.939 17.2539 237.939 17.8789C237.939 18.3411 237.979 18.7741 238.057 19.1777C238.135 19.5749 238.249 19.9199 238.398 20.2129C238.548 20.5059 238.737 20.737 238.965 20.9062C239.193 21.0755 239.456 21.1602 239.756 21.1602ZM246.123 22.0977L247.656 20.8965L247.324 14.1582L245.518 12.9766L249.717 12.2637L248.965 20.0957L251.064 21.4043L246.123 22.0977ZM249.824 9.90039C249.824 10.0957 249.785 10.2812 249.707 10.457C249.629 10.6263 249.521 10.7793 249.385 10.916C249.248 11.0462 249.092 11.1504 248.916 11.2285C248.74 11.3001 248.555 11.3359 248.359 11.3359C248.151 11.3359 247.956 11.3001 247.773 11.2285C247.598 11.1504 247.445 11.0462 247.314 10.916C247.184 10.7793 247.08 10.6263 247.002 10.457C246.924 10.2812 246.885 10.0957 246.885 9.90039C246.885 9.69857 246.924 9.51302 247.002 9.34375C247.08 9.16797 247.184 9.01497 247.314 8.88477C247.445 8.75456 247.598 8.65365 247.773 8.58203C247.956 8.50391 248.151 8.46484 248.359 8.46484C248.555 8.46484 248.74 8.50391 248.916 8.58203C249.092 8.65365 249.248 8.75456 249.385 8.88477C249.521 9.01497 249.629 9.16797 249.707 9.34375C249.785 9.51302 249.824 9.69857 249.824 9.90039ZM259.883 15.916C259.883 16.2611 259.863 16.6322 259.824 17.0293C259.785 17.4264 259.727 17.8301 259.648 18.2402C259.577 18.6504 259.489 19.054 259.385 19.4512C259.287 19.8418 259.18 20.2031 259.062 20.5352L261.143 22L257.461 21.8438L257.686 20.6426C257.295 21.1309 256.842 21.5052 256.328 21.7656C255.82 22.0195 255.231 22.1725 254.561 22.2246C254.014 22.2637 253.535 22.2246 253.125 22.1074C252.721 21.9967 252.383 21.8242 252.109 21.5898C251.842 21.349 251.644 21.056 251.514 20.7109C251.383 20.3594 251.318 19.9688 251.318 19.5391C251.318 19.1419 251.416 18.7578 251.611 18.3867C251.807 18.0091 252.087 17.6771 252.451 17.3906C252.822 17.1042 253.275 16.8763 253.809 16.707C254.342 16.5312 254.948 16.4434 255.625 16.4434C255.938 16.4434 256.296 16.4727 256.699 16.5312C257.109 16.5898 257.497 16.7135 257.861 16.9023C257.829 16.5052 257.767 16.1016 257.676 15.6914C257.591 15.2747 257.464 14.8971 257.295 14.5586C257.126 14.2201 256.904 13.9466 256.631 13.7383C256.364 13.5234 256.029 13.416 255.625 13.416C255.28 13.416 254.945 13.4876 254.619 13.6309C254.294 13.7741 253.988 13.9792 253.701 14.2461C253.421 14.513 253.167 14.8385 252.939 15.2227C252.712 15.6068 252.52 16.0397 252.363 16.5215L251.543 11.7363L252.783 13.6406C253.089 13.263 253.398 12.9635 253.711 12.7422C254.023 12.5143 254.333 12.3418 254.639 12.2246C254.951 12.1009 255.251 12.0195 255.537 11.9805C255.83 11.9414 256.11 11.9219 256.377 11.9219C256.878 11.9479 257.34 12.0521 257.764 12.2344C258.193 12.4102 258.564 12.6673 258.877 13.0059C259.189 13.3379 259.434 13.748 259.609 14.2363C259.792 14.7246 259.883 15.2845 259.883 15.916ZM257.861 19.041C257.874 18.8587 257.884 18.6829 257.891 18.5137C257.897 18.3444 257.9 18.1784 257.9 18.0156V17.8984C257.666 17.8073 257.428 17.7389 257.188 17.6934C256.953 17.6413 256.735 17.6055 256.533 17.5859C256.331 17.5599 256.159 17.5469 256.016 17.5469C255.879 17.5404 255.788 17.5371 255.742 17.5371C255.371 17.5501 255.049 17.6185 254.775 17.7422C254.502 17.8659 254.274 18.0221 254.092 18.2109C253.916 18.3932 253.783 18.5983 253.691 18.8262C253.607 19.054 253.564 19.2786 253.564 19.5C253.564 20.0013 253.685 20.3822 253.926 20.6426C254.173 20.8965 254.531 21.0234 255 21.0234C255.312 21.0234 255.609 20.9681 255.889 20.8574C256.169 20.7467 256.429 20.6003 256.67 20.418C256.917 20.2292 257.139 20.0176 257.334 19.7832C257.536 19.5423 257.712 19.2949 257.861 19.041ZM266.191 12.2441C266.738 12.2441 267.233 12.3646 267.676 12.6055C268.125 12.8398 268.486 13.1589 268.76 13.5625L270.732 11.5605L269.111 16.8438C269.053 16.2969 268.962 15.8346 268.838 15.457C268.714 15.0729 268.571 14.7572 268.408 14.5098C268.252 14.2559 268.086 14.0605 267.91 13.9238C267.741 13.7871 267.581 13.6862 267.432 13.6211C267.288 13.556 267.161 13.5169 267.051 13.5039C266.947 13.4909 266.882 13.4844 266.855 13.4844C266.387 13.4844 265.964 13.5755 265.586 13.7578C265.208 13.9401 264.883 14.207 264.609 14.5586C264.342 14.9102 264.137 15.3431 263.994 15.8574C263.851 16.3652 263.779 16.9447 263.779 17.5957C263.779 18.2207 263.854 18.7741 264.004 19.2559C264.154 19.7311 264.352 20.1315 264.6 20.457C264.847 20.7826 265.13 21.0299 265.449 21.1992C265.768 21.362 266.097 21.4434 266.436 21.4434C266.833 21.4434 267.201 21.3555 267.539 21.1797C267.878 20.9974 268.167 20.7598 268.408 20.4668C268.649 20.1738 268.828 19.8385 268.945 19.4609C269.069 19.0768 269.111 18.6829 269.072 18.2793C269.15 18.3509 269.232 18.4388 269.316 18.543C269.408 18.6471 269.489 18.7643 269.561 18.8945C269.639 19.0182 269.701 19.1549 269.746 19.3047C269.792 19.4479 269.814 19.5944 269.814 19.7441C269.814 20.1868 269.707 20.5872 269.492 20.9453C269.284 21.2969 269.014 21.5964 268.682 21.8438C268.35 22.0911 267.975 22.2799 267.559 22.4102C267.142 22.5469 266.729 22.6152 266.318 22.6152C266.143 22.6152 265.902 22.5957 265.596 22.5566C265.296 22.5176 264.967 22.4362 264.609 22.3125C264.258 22.1953 263.9 22.0228 263.535 21.7949C263.171 21.5671 262.839 21.2643 262.539 20.8867C262.246 20.5091 262.005 20.0436 261.816 19.4902C261.628 18.9368 261.533 18.2728 261.533 17.498C261.533 16.8079 261.611 16.1992 261.768 15.6719C261.93 15.138 262.142 14.6758 262.402 14.2852C262.669 13.8945 262.969 13.569 263.301 13.3086C263.633 13.0482 263.971 12.8398 264.316 12.6836C264.661 12.5273 264.997 12.4167 265.322 12.3516C265.654 12.2799 265.944 12.2441 266.191 12.2441Z" fill="white"/>
</g>
<g filter="url(#filter1_d)">
<path d="M211.262 21.7288L214.142 31.321L212.804 31.2653L211.848 27.9726L208.731 27.8428L207.491 31.0439L206.4 30.9985L210.08 21.6796L211.262 21.7288ZM210.495 23.2842L209.066 26.972L211.586 27.077L210.495 23.2842ZM221.188 24.9919C221.517 25.0056 221.844 25.0756 222.169 25.2019C222.502 25.3199 222.824 25.4981 223.135 25.7366L222.519 26.4656C222.285 26.2563 222.053 26.1035 221.823 26.0072C221.593 25.9022 221.37 25.8452 221.153 25.8362C220.807 25.8217 220.491 25.9126 220.205 26.1089C219.919 26.3052 219.686 26.5904 219.506 26.9646C219.334 27.3391 219.238 27.7818 219.216 28.2927C219.182 29.1066 219.338 29.7377 219.684 30.1858C220.038 30.6342 220.497 30.8702 221.06 30.8936C221.311 30.9041 221.555 30.8752 221.792 30.8071C222.038 30.7392 222.293 30.6371 222.559 30.5007L222.881 31.2038C222.526 31.4058 222.186 31.5521 221.861 31.6427C221.536 31.7419 221.174 31.7832 220.776 31.7666C220.222 31.7435 219.734 31.5844 219.313 31.2893C218.9 30.9858 218.579 30.5691 218.35 30.0391C218.129 29.5094 218.033 28.8939 218.062 28.1925C218.091 27.5171 218.249 26.9382 218.538 26.4558C218.836 25.9651 219.216 25.595 219.677 25.3453C220.148 25.0873 220.652 24.9695 221.188 24.9919ZM226.637 32.0108C226.004 31.9844 225.478 31.8064 225.058 31.4766C224.647 31.1386 224.344 30.7096 224.149 30.1897C223.963 29.6701 223.881 29.1202 223.906 28.5401C223.93 27.9599 224.065 27.4148 224.312 26.9046C224.568 26.3861 224.923 25.9716 225.379 25.6609C225.834 25.3503 226.373 25.2079 226.997 25.2339C227.638 25.2606 228.164 25.4387 228.575 25.7681C228.995 26.0978 229.298 26.5225 229.485 27.042C229.68 27.562 229.765 28.1163 229.741 28.7051C229.716 29.294 229.58 29.8478 229.333 30.3666C229.087 30.8768 228.735 31.2872 228.28 31.5978C227.825 31.8998 227.277 32.0375 226.637 32.0108ZM226.684 31.193C227.021 31.2071 227.306 31.1409 227.538 30.9944C227.778 30.8396 227.973 30.6352 228.123 30.3812C228.281 30.1276 228.396 29.8548 228.469 29.5629C228.542 29.2624 228.585 28.9736 228.596 28.6965C228.608 28.4107 228.59 28.1194 228.542 27.8225C228.502 27.5172 228.423 27.2363 228.303 26.9798C228.184 26.7146 228.011 26.4992 227.784 26.3336C227.566 26.1597 227.288 26.0657 226.95 26.0517C226.612 26.0376 226.323 26.1079 226.082 26.2627C225.851 26.4092 225.66 26.6095 225.511 26.8635C225.361 27.1175 225.25 27.3947 225.177 27.6953C225.104 27.9872 225.062 28.2717 225.05 28.5487C225.039 28.8172 225.057 29.1042 225.105 29.4098C225.154 29.7067 225.238 29.9878 225.357 30.253C225.484 30.5185 225.657 30.7382 225.876 30.9122C226.094 31.0861 226.363 31.1797 226.684 31.193ZM233.921 25.5354C234.215 25.5477 234.508 25.6076 234.798 25.7151C235.089 25.8226 235.338 25.9805 235.546 26.1886C235.542 26.067 235.539 25.9498 235.535 25.8369C235.54 25.7156 235.545 25.5987 235.549 25.4862L235.65 23.0703L235.5 22.2963L236.747 22.3483L236.412 30.3883C236.401 30.6568 236.418 30.9698 236.464 31.3273C236.518 31.6852 236.61 31.9883 236.738 32.2365L235.589 32.3318C235.535 32.182 235.489 32.0327 235.452 31.8837C235.415 31.7346 235.391 31.5862 235.379 31.4382C235.142 31.7233 234.851 31.941 234.506 32.0915C234.162 32.2419 233.803 32.3094 233.431 32.2939C232.981 32.2751 232.591 32.1635 232.261 31.9589C231.931 31.7543 231.66 31.4871 231.449 31.1574C231.246 30.8193 231.096 30.4531 231 30.0587C230.913 29.6561 230.877 29.2513 230.894 28.8443C230.919 28.2555 231.046 27.7056 231.275 27.1947C231.514 26.6755 231.852 26.2646 232.29 25.9619C232.728 25.6505 233.271 25.5084 233.921 25.5354ZM233.91 26.4197C233.46 26.401 233.099 26.5117 232.829 26.752C232.559 26.9923 232.364 27.3008 232.244 27.6775C232.124 28.0541 232.057 28.433 232.041 28.814C232.024 29.2036 232.065 29.5913 232.161 29.977C232.267 30.3631 232.448 30.6872 232.706 30.9495C232.973 31.2035 233.336 31.3401 233.795 31.3592C234.098 31.3719 234.379 31.2968 234.637 31.1341C234.905 30.9631 235.138 30.7733 235.338 30.5648L235.429 28.3826C235.443 28.0363 235.4 27.7179 235.299 27.4274C235.207 27.1374 235.048 26.9009 234.821 26.7179C234.595 26.535 234.291 26.4356 233.91 26.4197ZM241.203 25.8258C241.982 25.8583 242.561 26.1166 242.94 26.6008C243.328 27.0767 243.506 27.6913 243.475 28.4447C243.47 28.5659 243.456 28.6911 243.433 28.8203C243.42 28.9411 243.401 29.0705 243.378 29.2083L239.274 29.0373C239.239 29.8599 239.395 30.5039 239.74 30.9694C240.085 31.4348 240.56 31.6801 241.166 31.7054C241.66 31.726 242.212 31.5928 242.822 31.306L243.198 31.9722C242.885 32.202 242.535 32.3696 242.149 32.475C241.763 32.5803 241.375 32.6249 240.986 32.6086C240.31 32.5805 239.754 32.3969 239.317 32.0577C238.889 31.7189 238.577 31.2896 238.382 30.7697C238.187 30.2497 238.101 29.7127 238.124 29.1585C238.142 28.7256 238.22 28.3081 238.358 27.9062C238.496 27.5043 238.693 27.1438 238.95 26.8249C239.215 26.4976 239.533 26.2463 239.905 26.071C240.277 25.887 240.709 25.8053 241.203 25.8258ZM241.065 26.6398C240.771 26.6275 240.507 26.699 240.275 26.8541C240.043 27.0092 239.853 27.2138 239.703 27.4678C239.554 27.7132 239.448 27.969 239.385 28.2352L242.347 28.3586C242.386 27.8225 242.291 27.4065 242.06 27.1106C241.83 26.8148 241.498 26.6578 241.065 26.6398ZM250.575 26.2293C250.87 26.2416 251.162 26.3015 251.453 26.409C251.743 26.5165 251.992 26.6744 252.201 26.8826C252.197 26.761 252.193 26.6437 252.189 26.5308C252.194 26.4096 252.199 26.2927 252.204 26.1801L252.304 23.7642L252.155 22.9903L253.401 23.0422L253.066 31.0823C253.055 31.3507 253.073 31.6637 253.118 32.0212C253.173 32.3791 253.264 32.6822 253.393 32.9304L252.244 33.0257C252.189 32.876 252.144 32.7266 252.106 32.5776C252.069 32.4286 252.045 32.2801 252.034 32.1322C251.796 32.4172 251.505 32.6349 251.161 32.7854C250.816 32.9359 250.458 33.0033 250.086 32.9878C249.635 32.969 249.245 32.8574 248.915 32.6528C248.586 32.4482 248.315 32.1811 248.103 31.8513C247.9 31.5132 247.751 31.147 247.654 30.7527C247.567 30.35 247.532 29.9452 247.549 29.5382C247.573 28.9494 247.7 28.3995 247.93 27.8886C248.168 27.3695 248.507 26.9585 248.944 26.6558C249.382 26.3444 249.926 26.2023 250.575 26.2293ZM250.564 27.1137C250.114 27.0949 249.754 27.2057 249.484 27.4459C249.213 27.6862 249.018 27.9947 248.899 28.3714C248.779 28.7481 248.711 29.1269 248.695 29.5079C248.679 29.8976 248.719 30.2853 248.816 30.6709C248.921 31.057 249.103 31.3812 249.361 31.6435C249.628 31.8975 249.991 32.034 250.45 32.0532C250.753 32.0658 251.034 31.9907 251.292 31.828C251.559 31.657 251.793 31.4672 251.992 31.2587L252.083 29.0766C252.098 28.7302 252.054 28.4118 251.954 28.1214C251.862 27.8313 251.702 27.5948 251.476 27.4119C251.249 27.2289 250.945 27.1295 250.564 27.1137ZM257.858 26.5197C258.637 26.5522 259.216 26.8106 259.595 27.2947C259.983 27.7706 260.161 28.3853 260.13 29.1386C260.124 29.2598 260.111 29.385 260.088 29.5142C260.074 29.6351 260.056 29.7644 260.033 29.9022L255.928 29.7312C255.894 30.5538 256.049 31.1979 256.394 31.6633C256.739 32.1287 257.215 32.3741 257.821 32.3993C258.314 32.4199 258.866 32.2867 259.477 31.9999L259.852 32.6661C259.539 32.896 259.19 33.0635 258.804 33.1689C258.418 33.2742 258.03 33.3188 257.64 33.3026C256.965 33.2744 256.408 33.0908 255.971 32.7516C255.543 32.4128 255.231 31.9835 255.036 31.4636C254.841 30.9437 254.755 30.4066 254.778 29.8524C254.796 29.4195 254.874 29.002 255.012 28.6001C255.151 28.1982 255.348 27.8377 255.604 27.5188C255.869 27.1916 256.188 26.9403 256.559 26.7649C256.931 26.5809 257.364 26.4992 257.858 26.5197ZM257.72 27.3337C257.425 27.3214 257.162 27.3929 256.93 27.548C256.698 27.7032 256.507 27.9077 256.358 28.1617C256.209 28.4071 256.103 28.6629 256.04 28.9292L259.001 29.0526C259.041 28.5164 258.945 28.1004 258.715 27.8045C258.484 27.5087 258.153 27.3517 257.72 27.3337ZM262.572 26.7812C262.681 27.0807 262.75 27.3829 262.781 27.6877C263.024 27.4723 263.319 27.2678 263.665 27.074C264.012 26.8803 264.358 26.7906 264.704 26.805C265.12 26.8223 265.472 26.9237 265.759 27.1092C266.046 27.286 266.273 27.5687 266.439 27.9572C266.71 27.7083 267.027 27.4786 267.391 27.2683C267.756 27.0493 268.125 26.9475 268.497 26.9631C269.216 26.993 269.713 27.2306 269.99 27.6758C270.275 28.1214 270.403 28.6776 270.376 29.3443L270.196 33.6566L269.118 33.6117L269.283 29.6501C269.294 29.3903 269.283 29.1297 269.251 28.8681C269.227 28.6069 269.14 28.3864 268.992 28.2067C268.852 28.0274 268.613 27.9307 268.275 27.9166C267.972 27.904 267.669 27.9912 267.367 28.178C267.064 28.3563 266.809 28.5408 266.602 28.7317L266.403 33.4986L265.325 33.4536L265.49 29.4921C265.501 29.2236 265.491 28.963 265.458 28.71C265.434 28.4488 265.348 28.2284 265.199 28.0487C265.059 27.8694 264.82 27.7727 264.483 27.7586C264.292 27.7507 264.095 27.7902 263.892 27.8771C263.689 27.9554 263.494 28.0601 263.307 28.191C263.119 28.3133 262.954 28.4322 262.81 28.5477L262.611 33.3405L261.532 33.2956L261.728 28.6067C261.739 28.3382 261.717 28.0424 261.661 27.7191C261.614 27.3875 261.522 27.1018 261.384 26.8619L262.572 26.7812ZM274.697 34.0133C274.065 33.9869 273.539 33.8089 273.119 33.4791C272.708 33.1411 272.405 32.7121 272.21 32.1922C272.023 31.6726 271.942 31.1228 271.966 30.5426C271.991 29.9624 272.126 29.4173 272.373 28.9071C272.629 28.3886 272.984 27.9741 273.44 27.6634C273.895 27.3528 274.434 27.2104 275.058 27.2364C275.699 27.2631 276.225 27.4412 276.636 27.7706C277.056 28.1003 277.359 28.525 277.546 29.0446C277.741 29.5645 277.826 30.1188 277.802 30.7076C277.777 31.2965 277.641 31.8503 277.394 32.3691C277.147 32.8793 276.796 33.2897 276.341 33.6003C275.886 33.9023 275.338 34.04 274.697 34.0133ZM274.744 33.1955C275.082 33.2096 275.367 33.1434 275.598 32.9969C275.839 32.8421 276.034 32.6377 276.183 32.3837C276.342 32.1301 276.457 31.8573 276.53 31.5654C276.603 31.2649 276.645 30.9761 276.657 30.699C276.669 30.4132 276.651 30.1219 276.602 29.825C276.563 29.5197 276.484 29.2388 276.364 28.9823C276.245 28.7171 276.072 28.5017 275.845 28.3361C275.626 28.1622 275.348 28.0682 275.011 28.0542C274.673 28.0401 274.384 28.1104 274.143 28.2652C273.912 28.4117 273.721 28.612 273.572 28.866C273.422 29.12 273.311 29.3972 273.238 29.6978C273.165 29.9897 273.123 30.2742 273.111 30.5512C273.1 30.8197 273.118 31.1067 273.166 31.4123C273.215 31.7092 273.298 31.9903 273.417 32.2555C273.545 32.521 273.718 32.7407 273.936 32.9147C274.155 33.0886 274.424 33.1822 274.744 33.1955ZM280.216 27.5034C280.27 27.6531 280.316 27.8068 280.353 27.9645C280.389 28.1221 280.413 28.2793 280.424 28.4359C280.695 28.1869 281.011 27.9746 281.374 27.7989C281.738 27.6145 282.106 27.5301 282.478 27.5456C283.197 27.5755 283.694 27.8131 283.971 28.2583C284.256 28.7039 284.384 29.2601 284.356 29.9268L284.177 34.2391L283.112 34.1947L283.277 30.2332C283.288 29.9647 283.277 29.6997 283.245 29.4381C283.221 29.1769 283.135 28.9608 282.986 28.7898C282.846 28.6105 282.602 28.5136 282.256 28.4992C281.936 28.4858 281.611 28.5634 281.283 28.7319C280.965 28.8921 280.688 29.0757 280.454 29.2828L280.254 34.0757L279.189 34.0313L279.38 29.4593C279.387 29.2861 279.382 29.0864 279.365 28.8601C279.349 28.6253 279.315 28.3983 279.264 28.1793C279.213 27.9517 279.134 27.7619 279.027 27.61L280.216 27.5034ZM288.698 27.8047C288.992 27.817 289.281 27.8681 289.563 27.9579C289.855 28.0394 290.119 28.1632 290.354 28.3292L289.943 29.1447C289.759 28.9809 289.552 28.8552 289.321 28.7675C289.091 28.6799 288.863 28.6313 288.638 28.6219C288.317 28.6086 288.033 28.6705 287.784 28.8076C287.544 28.945 287.418 29.161 287.406 29.4554C287.393 29.7758 287.487 30.0182 287.688 30.1828C287.898 30.3476 288.147 30.5055 288.436 30.6563C288.716 30.7981 288.996 30.9572 289.275 31.1336C289.563 31.3018 289.801 31.5155 289.99 31.775C290.179 32.0257 290.265 32.3589 290.247 32.7746C290.229 33.2075 290.106 33.5624 289.878 33.8391C289.658 34.1075 289.373 34.2995 289.021 34.4149C288.678 34.5307 288.307 34.5803 287.909 34.5638C287.562 34.5493 287.218 34.4873 286.876 34.3776C286.533 34.2679 286.218 34.1203 285.931 33.9349L286.419 33.1615C286.62 33.326 286.849 33.4613 287.105 33.5674C287.36 33.6735 287.61 33.7316 287.852 33.7417C288.181 33.7554 288.47 33.6894 288.719 33.5436C288.977 33.3982 289.112 33.1696 289.125 32.8579C289.134 32.6414 289.072 32.461 288.939 32.3167C288.816 32.1641 288.652 32.0272 288.449 31.9059C288.246 31.7847 288.034 31.6674 287.813 31.5542C287.559 31.4134 287.309 31.2643 287.064 31.1066C286.828 30.9406 286.637 30.7375 286.491 30.4972C286.345 30.2569 286.279 29.9549 286.294 29.5912C286.312 29.1756 286.434 28.8337 286.662 28.5657C286.899 28.298 287.198 28.1022 287.559 27.9785C287.92 27.8461 288.3 27.7881 288.698 27.8047ZM293.739 26.3233C293.666 26.6152 293.597 26.9203 293.532 27.2385C293.475 27.5484 293.432 27.8545 293.402 28.1569L295.091 28.2272L294.836 29.0363L293.368 28.9752L293.196 33.1056C293.186 33.3567 293.221 33.5577 293.301 33.7085C293.39 33.8597 293.573 33.941 293.85 33.9526C293.989 33.9583 294.128 33.9511 294.268 33.9309C294.407 33.9107 294.543 33.886 294.674 33.8568L294.826 34.5917C294.607 34.6433 294.397 34.6866 294.196 34.7216C294.003 34.7656 293.781 34.7824 293.53 34.7719C292.976 34.7489 292.597 34.5856 292.392 34.2822C292.188 33.9787 292.097 33.5629 292.119 33.0347L292.29 28.9303L291.329 28.8902L291.356 28.2408C291.703 28.2465 291.98 28.1453 292.188 27.9372C292.397 27.7203 292.56 27.4582 292.676 27.1508C292.793 26.8434 292.883 26.5566 292.947 26.2903L293.739 26.3233ZM297.163 28.1965C297.303 28.584 297.386 28.9908 297.411 29.4169C297.651 29.0712 297.966 28.7938 298.357 28.5845C298.747 28.3752 299.154 28.2795 299.579 28.2971L299.271 29.4293C298.856 29.412 298.496 29.5054 298.193 29.7097C297.898 29.9142 297.631 30.1764 297.392 30.496L297.214 34.7823L296.136 34.7374L296.33 30.0614C296.341 29.8103 296.319 29.5101 296.264 29.1609C296.218 28.8033 296.126 28.5133 295.988 28.2906L297.163 28.1965ZM302.983 28.4C303.667 28.4285 304.175 28.6361 304.506 29.0229C304.836 29.4096 304.988 29.9407 304.96 30.6162L304.825 33.8503C304.817 34.0322 304.847 34.1592 304.913 34.2313C304.98 34.2948 305.061 34.3286 305.156 34.3326C305.234 34.3358 305.317 34.3306 305.404 34.3169C305.492 34.2945 305.575 34.2676 305.655 34.2362L305.859 34.9474C305.717 35.0195 305.537 35.0814 305.318 35.133C305.107 35.1936 304.889 35.2192 304.664 35.2098C304.439 35.2005 304.238 35.1314 304.061 35.0026C303.885 34.8651 303.782 34.6266 303.753 34.2871C303.49 34.5451 303.187 34.7536 302.842 34.9127C302.497 35.0632 302.139 35.1306 301.767 35.1151C301.256 35.0938 300.838 34.9246 300.513 34.6075C300.188 34.2903 300.036 33.8677 300.058 33.3395C300.079 32.8459 300.212 32.4568 300.458 32.1721C300.713 31.8878 301.034 31.68 301.421 31.5486C301.808 31.4173 302.215 31.3345 302.641 31.3002C303.076 31.2663 303.48 31.2571 303.852 31.2726L303.881 30.5842C303.896 30.2205 303.835 29.9101 303.699 29.6528C303.562 29.3956 303.281 29.2581 302.857 29.2404C302.528 29.2267 302.209 29.2785 301.901 29.3958C301.592 29.513 301.281 29.6909 300.968 29.9294L300.467 29.1409C300.834 28.8699 301.233 28.674 301.663 28.5531C302.093 28.4322 302.533 28.3812 302.983 28.4ZM303.817 32.1169C303.583 32.1072 303.319 32.1091 303.023 32.1228C302.728 32.1279 302.44 32.1679 302.159 32.243C301.879 32.3094 301.644 32.4297 301.455 32.604C301.274 32.7786 301.177 33.0261 301.164 33.3465C301.152 33.6322 301.238 33.8484 301.423 33.9948C301.617 34.133 301.861 34.2083 302.155 34.2205C302.467 34.2335 302.743 34.1583 302.984 33.9948C303.225 33.8314 303.416 33.6182 303.557 33.3552C303.707 33.0925 303.788 32.8183 303.8 32.5325L303.817 32.1169ZM308.744 26.9485C308.672 27.2404 308.602 27.5455 308.537 27.8637C308.481 28.1736 308.438 28.4798 308.408 28.7821L310.096 28.8525L309.841 29.6616L308.374 29.6004L308.202 33.7308C308.191 33.9819 308.226 34.1829 308.307 34.3337C308.396 34.4849 308.579 34.5662 308.856 34.5778C308.994 34.5836 309.134 34.5763 309.273 34.5561C309.413 34.5359 309.548 34.5112 309.68 34.482L309.831 35.2169C309.612 35.2685 309.402 35.3118 309.201 35.3468C309.009 35.3908 308.787 35.4076 308.536 35.3972C307.981 35.3741 307.602 35.2108 307.398 34.9074C307.194 34.6039 307.103 34.1881 307.125 33.6599L307.296 29.5555L306.334 29.5154L306.362 28.866C306.708 28.8718 306.986 28.7706 307.194 28.5624C307.402 28.3455 307.565 28.0834 307.682 27.776C307.799 27.4686 307.889 27.1818 307.952 26.9155L308.744 26.9485ZM312.851 26.7944C312.842 27.0108 312.757 27.1938 312.594 27.3431C312.441 27.4929 312.251 27.5631 312.026 27.5537C311.81 27.5446 311.627 27.459 311.477 27.2966C311.336 27.1346 311.271 26.9454 311.28 26.7289C311.289 26.5124 311.37 26.3293 311.524 26.1796C311.686 26.0302 311.876 25.96 312.092 25.969C312.308 25.9781 312.491 26.0638 312.641 26.2261C312.79 26.3885 312.86 26.5779 312.851 26.7944ZM312.527 28.9537L312.258 35.4091L311.18 35.3642L311.417 29.6752L311.293 28.9023L312.527 28.9537ZM316.784 35.7669C316.152 35.7405 315.626 35.5625 315.206 35.2327C314.795 34.8946 314.492 34.4656 314.297 33.9457C314.11 33.4262 314.029 32.8763 314.053 32.2962C314.077 31.716 314.213 31.1708 314.459 30.6607C314.715 30.1422 315.071 29.7276 315.526 29.417C315.981 29.1063 316.521 28.964 317.144 28.99C317.785 29.0167 318.311 29.1947 318.722 29.5242C319.142 29.8539 319.446 30.2786 319.632 30.7981C319.827 31.318 319.913 31.8724 319.888 32.4612C319.864 33.05 319.728 33.6039 319.481 34.1227C319.234 34.6329 318.883 35.0433 318.428 35.3539C317.973 35.6559 317.425 35.7936 316.784 35.7669ZM316.831 34.9491C317.169 34.9632 317.453 34.897 317.685 34.7505C317.926 34.5957 318.121 34.3913 318.27 34.1373C318.428 33.8837 318.543 33.6109 318.616 33.319C318.69 33.0185 318.732 32.7297 318.744 32.4526C318.755 32.1668 318.737 31.8755 318.689 31.5785C318.65 31.2733 318.57 30.9924 318.451 30.7359C318.332 30.4707 318.159 30.2553 317.931 30.0897C317.713 29.9158 317.435 29.8218 317.097 29.8077C316.76 29.7937 316.47 29.864 316.23 30.0188C315.998 30.1653 315.808 30.3655 315.658 30.6195C315.509 30.8735 315.398 31.1508 315.324 31.4514C315.251 31.7432 315.209 32.0277 315.198 32.3048C315.186 32.5733 315.205 32.8603 315.253 33.1659C315.301 33.4628 315.385 33.7439 315.504 34.0091C315.632 34.2746 315.805 34.4943 316.023 34.6682C316.241 34.8421 316.511 34.9358 316.831 34.9491ZM322.302 29.2569C322.357 29.4067 322.402 29.5604 322.439 29.718C322.476 29.8757 322.5 30.0328 322.511 30.1894C322.781 29.9405 323.098 29.7281 323.461 29.5524C323.824 29.3681 324.192 29.2836 324.564 29.2992C325.283 29.3291 325.781 29.5667 326.057 30.0119C326.342 30.4575 326.471 31.0137 326.443 31.6804L326.263 35.9927L325.198 35.9483L325.363 31.9867C325.374 31.7183 325.364 31.4533 325.331 31.1917C325.308 30.9305 325.221 30.7144 325.072 30.5434C324.932 30.3641 324.689 30.2672 324.343 30.2527C324.022 30.2394 323.698 30.317 323.37 30.4855C323.051 30.6457 322.775 30.8293 322.54 31.0364L322.341 35.8292L321.276 35.7849L321.466 31.2128C321.473 31.0396 321.469 30.8399 321.452 30.6137C321.436 30.3788 321.402 30.1519 321.35 29.9329C321.299 29.7052 321.22 29.5155 321.114 29.3636L322.302 29.2569ZM334.685 26.3249C335.144 26.344 335.56 26.4698 335.932 26.7021L335.6 27.495C335.491 27.3864 335.347 27.3023 335.168 27.2428C334.997 27.175 334.834 27.1378 334.678 27.1313C334.297 27.1154 333.99 27.1894 333.758 27.3532C333.534 27.5174 333.36 27.74 333.236 28.021C333.12 28.2938 333.038 28.5896 332.99 28.9086C332.943 29.2189 332.913 29.5169 332.901 29.8027L334.759 29.88L334.491 30.6756L332.868 30.608L332.632 36.2581L331.567 36.2137L331.803 30.5636L330.828 30.523L330.857 29.8476C330.996 29.836 331.135 29.8288 331.274 29.8259C331.422 29.8147 331.549 29.7767 331.656 29.7117C331.763 29.6468 331.837 29.5328 331.878 29.3697C331.981 28.975 332.06 28.6573 332.113 28.4166C332.167 28.1673 332.237 27.9491 332.323 27.7618C332.409 27.5745 332.543 27.372 332.725 27.154C332.953 26.886 333.231 26.6763 333.558 26.5252C333.885 26.374 334.261 26.3072 334.685 26.3249ZM337.51 36.6304C336.878 36.6041 336.352 36.426 335.932 36.0963C335.521 35.7582 335.218 35.3292 335.023 34.8093C334.836 34.2898 334.755 33.7399 334.779 33.1597C334.803 32.5796 334.939 32.0344 335.186 31.5242C335.441 31.0058 335.797 30.5912 336.252 30.2806C336.708 29.9699 337.247 29.8276 337.87 29.8536C338.511 29.8803 339.037 30.0583 339.449 30.3877C339.869 30.7175 340.172 31.1422 340.358 31.6617C340.554 32.1816 340.639 32.736 340.614 33.3248C340.59 33.9136 340.454 34.4675 340.207 34.9863C339.96 35.4964 339.609 35.9069 339.154 36.2175C338.699 36.5195 338.151 36.6571 337.51 36.6304ZM337.557 35.8127C337.895 35.8268 338.18 35.7606 338.411 35.6141C338.652 35.4593 338.847 35.2549 338.996 35.0009C339.154 34.7473 339.27 34.4745 339.343 34.1826C339.416 33.8821 339.458 33.5932 339.47 33.3161C339.482 33.0304 339.463 32.739 339.415 32.4421C339.376 32.1369 339.296 31.856 339.177 31.5995C339.058 31.3343 338.885 31.1189 338.657 30.9533C338.439 30.7794 338.161 30.6854 337.823 30.6713C337.486 30.6572 337.197 30.7276 336.956 30.8824C336.724 31.0289 336.534 31.2291 336.384 31.4831C336.235 31.7371 336.124 32.0144 336.05 32.3149C335.978 32.6068 335.935 32.8913 335.924 33.1684C335.913 33.4368 335.931 33.7238 335.979 34.0294C336.027 34.3264 336.111 34.6074 336.23 34.8726C336.358 35.1382 336.531 35.3579 336.749 35.5318C336.967 35.7057 337.237 35.7993 337.557 35.8127ZM343.042 30.1081C343.182 30.4956 343.265 30.9024 343.29 31.3285C343.53 30.9828 343.845 30.7054 344.236 30.4961C344.626 30.2868 345.034 30.1911 345.458 30.2087L345.15 31.3409C344.735 31.3236 344.375 31.417 344.072 31.6213C343.777 31.8258 343.51 32.088 343.271 32.4076L343.093 36.6939L342.015 36.649L342.21 31.973C342.22 31.7219 342.198 31.4217 342.143 31.0725C342.097 30.7149 342.005 30.4249 341.867 30.2022L343.042 30.1081ZM349.801 27.5012L352.632 27.6192C353.256 27.6451 353.801 27.7676 354.269 27.9866C354.746 28.1973 355.11 28.5161 355.361 28.9429C355.613 29.3697 355.724 29.9252 355.695 30.6093C355.669 31.2414 355.504 31.7636 355.201 32.176C354.897 32.5884 354.503 32.8929 354.018 33.0896C353.533 33.2776 352.996 33.3593 352.407 33.3347L350.965 33.2747L350.809 37.0154L349.601 36.9651L349.96 28.3666L349.801 27.5012ZM351.166 28.4558L351.002 32.3914L352.418 32.4504C353.015 32.4753 353.495 32.3131 353.856 31.9639C354.218 31.6146 354.411 31.1456 354.435 30.5568C354.461 29.942 354.317 29.4545 354.002 29.0945C353.687 28.7344 353.218 28.5414 352.595 28.5154L351.166 28.4558ZM363.078 33.0507L358.48 32.8591L358.293 37.3273L357.086 37.2769L357.444 28.6784C357.444 28.6697 357.43 28.5997 357.4 28.4684C357.38 28.3374 357.36 28.2021 357.339 28.0625C357.319 27.9229 357.305 27.8399 357.298 27.8135L358.687 27.8715L358.516 31.9759L363.114 32.1675L363.285 28.063L364.493 28.1134L364.099 37.5692L362.891 37.5188L363.078 33.0507ZM366.544 28.1988L369.375 28.3168C369.999 28.3428 370.545 28.4653 371.013 28.6843C371.49 28.895 371.854 29.2137 372.105 29.6405C372.356 30.0674 372.467 30.6228 372.439 31.3069C372.412 31.939 372.247 32.4613 371.944 32.8737C371.641 33.2861 371.246 33.5906 370.761 33.7872C370.276 33.9752 369.739 34.0569 369.15 34.0324L367.709 33.9723L367.553 37.713L366.345 37.6627L366.703 29.0642L366.544 28.1988ZM367.909 29.1535L367.745 33.0891L369.161 33.1481C369.759 33.1729 370.238 33.0108 370.6 32.6615C370.961 32.3123 371.154 31.8432 371.179 31.2544C371.204 30.6396 371.06 30.1522 370.745 29.7921C370.431 29.432 369.962 29.239 369.338 29.213L367.909 29.1535Z" fill="#FFD700"/>
</g>
<rect x="46" y="-3" width="7" height="63" fill="url(#paint0_linear)"/>
<rect x="410" y="-1" width="7" height="63" fill="url(#paint1_linear)"/>
<rect x="60" y="-1" width="3" height="63" fill="url(#paint2_linear)"/>
<rect x="400" y="-1" width="3" height="63" fill="url(#paint3_linear)"/>
</g>
<defs>
<filter id="filter0_d" x="101.439" y="7.80078" width="173.293" height="23.3418" filterUnits="userSpaceOnUse" color-interpolation-filters="sRGB">
<feFlood flood-opacity="0" result="BackgroundImageFix"/>
<feColorMatrix in="SourceAlpha" type="matrix" values="0 0 0 0 0 0 0 0 0 0 0 0 0 0 0 0 0 0 127 0"/>
<feOffset dy="4"/>
<feGaussianBlur stdDeviation="2"/>
<feColorMatrix type="matrix" values="0 0 0 0 0 0 0 0 0 0 0 0 0 0 0 0 0 0 0.68 0"/>
<feBlend mode="normal" in2="BackgroundImageFix" result="effect1_dropShadow"/>
<feBlend mode="normal" in="SourceGraphic" in2="effect1_dropShadow" result="shape"/>
</filter>
<filter id="filter1_d" x="202.4" y="21.6796" width="174.043" height="24.0335" filterUnits="userSpaceOnUse" color-interpolation-filters="sRGB">
<feFlood flood-opacity="0" result="BackgroundImageFix"/>
<feColorMatrix in="SourceAlpha" type="matrix" values="0 0 0 0 0 0 0 0 0 0 0 0 0 0 0 0 0 0 127 0"/>
<feOffset dy="4"/>
<feGaussianBlur stdDeviation="2"/>
<feColorMatrix type="matrix" values="0 0 0 0 0 0 0 0 0 0 0 0 0 0 0 0 0 0 0.66 0"/>
<feBlend mode="normal" in2="BackgroundImageFix" result="effect1_dropShadow"/>
<feBlend mode="normal" in="SourceGraphic" in2="effect1_dropShadow" result="shape"/>
</filter>
<linearGradient id="paint0_linear" x1="49.5" y1="-3" x2="49.5" y2="60" gradientUnits="userSpaceOnUse">
<stop stop-color="#D1652B"/>
<stop offset="1" stop-color="#DD9539" stop-opacity="0"/>
</linearGradient>
<linearGradient id="paint1_linear" x1="413.5" y1="-1" x2="413.5" y2="62" gradientUnits="userSpaceOnUse">
<stop stop-color="#DD9539"/>
<stop offset="1" stop-color="#DD9539" stop-opacity="0"/>
</linearGradient>
<linearGradient id="paint2_linear" x1="61.5" y1="-1" x2="61.5" y2="62" gradientUnits="userSpaceOnUse">
<stop stop-color="#DD9539"/>
<stop offset="1" stop-color="#DD9539" stop-opacity="0"/>
</linearGradient>
<linearGradient id="paint3_linear" x1="401.5" y1="-1" x2="401.5" y2="62" gradientUnits="userSpaceOnUse">
<stop stop-color="#DD9539"/>
<stop offset="1" stop-color="#DD9539" stop-opacity="0"/>
</linearGradient>
<clipPath id="clip0">
<rect width="468" height="42" fill="white"/>
</clipPath>
</defs>
</svg>
