<svg width="150" height="30" viewBox="0 0 150 30" fill="none" xmlns="http://www.w3.org/2000/svg">
<rect x="1" y="1" width="148" height="28" rx="4" fill="white"/>
<path d="M12.4302 9.72876C12.978 9.72876 13.5017 9.82544 14.0012 10.0188C14.5007 10.2068 14.917 10.4834 15.25 10.8486L17.2158 9.28564L14.968 14.1035L14.7747 11.759C14.5974 11.5442 14.4094 11.375 14.2107 11.2515C14.012 11.1279 13.8186 11.0366 13.6306 10.9775C13.448 10.9131 13.2815 10.8728 13.1311 10.8567C12.9861 10.8406 12.8733 10.8325 12.7927 10.8325C12.3577 10.8325 11.9521 10.9426 11.5762 11.1628C11.2056 11.3831 10.8833 11.7 10.6094 12.1135C10.3354 12.5217 10.1179 13.0159 9.95679 13.5959C9.80103 14.176 9.72314 14.8232 9.72314 15.5376C9.72314 16.252 9.80103 16.9045 9.95679 17.4954C10.1179 18.0862 10.3328 18.5938 10.6013 19.0181C10.8752 19.4424 11.1948 19.7727 11.5601 20.009C11.9253 20.24 12.3147 20.3555 12.7283 20.3555C13.1472 20.3555 13.5071 20.2534 13.8079 20.0493C14.1086 19.8398 14.3557 19.5767 14.5491 19.2598C14.7424 18.9429 14.8821 18.5964 14.968 18.2205C15.0593 17.8445 15.105 17.4846 15.105 17.1409C15.105 17.0657 15.105 16.9958 15.105 16.9314C15.105 16.8616 15.0996 16.7891 15.0889 16.7139C15.438 16.9448 15.6931 17.208 15.8542 17.5034C16.0208 17.7935 16.104 18.0942 16.104 18.4058C16.104 18.6958 16.0315 19.0046 15.8865 19.3323C15.7468 19.6545 15.5374 19.9553 15.2581 20.2346C14.9788 20.5085 14.635 20.7368 14.2268 20.9194C13.8186 21.0967 13.3459 21.1853 12.8088 21.1853C12.3738 21.1853 11.9414 21.1396 11.5117 21.0483C11.082 20.957 10.6711 20.8174 10.2791 20.6294C9.88696 20.436 9.52173 20.1917 9.18335 19.8962C8.84497 19.6008 8.55225 19.249 8.30518 18.8408C8.05811 18.4326 7.86206 17.9626 7.71704 17.4309C7.57739 16.8992 7.50757 16.3057 7.50757 15.6504C7.50757 15.0112 7.57202 14.4231 7.70093 13.886C7.83521 13.3435 8.01782 12.8547 8.24878 12.4197C8.48511 11.9792 8.75903 11.5925 9.07056 11.2595C9.38745 10.9211 9.72583 10.6392 10.0857 10.4136C10.4509 10.188 10.8323 10.0188 11.2297 9.90601C11.6326 9.78784 12.0327 9.72876 12.4302 9.72876ZM17.095 16.9556C17.095 16.354 17.189 15.7981 17.377 15.2878C17.5703 14.7722 17.8362 14.3264 18.1746 13.9504C18.5183 13.5745 18.9238 13.2817 19.3911 13.0723C19.8638 12.8574 20.3794 12.75 20.938 12.75C21.4805 12.75 21.9773 12.8521 22.4285 13.0562C22.8796 13.2549 23.2717 13.5369 23.6047 13.9021C23.9377 14.2673 24.2036 14.7051 24.4023 15.2153C24.6011 15.7256 24.7192 16.2896 24.7568 16.9072C24.7944 17.5679 24.7246 18.1667 24.5474 18.7039C24.3755 19.2356 24.1204 19.6895 23.782 20.0654C23.4436 20.436 23.0381 20.7234 22.5654 20.9275C22.0981 21.1316 21.5906 21.2336 21.0427 21.2336C20.5164 21.2336 20.0142 21.1396 19.5361 20.9517C19.0635 20.7583 18.6445 20.479 18.2793 20.1138C17.9194 19.7485 17.6321 19.3027 17.4172 18.7764C17.2024 18.2446 17.095 17.6377 17.095 16.9556ZM19.0769 17.0925C19.0769 17.5652 19.144 17.9922 19.2783 18.3735C19.4126 18.7549 19.5925 19.0798 19.8181 19.3484C20.0437 19.6116 20.3042 19.8157 20.5996 19.9607C20.895 20.1057 21.2065 20.1782 21.5342 20.1782C21.8618 20.1782 22.168 20.1084 22.4526 19.9688C22.7373 19.8237 22.9844 19.6223 23.1938 19.3645C23.4033 19.1013 23.5671 18.7871 23.6853 18.4219C23.8035 18.0566 23.8625 17.6511 23.8625 17.2053C23.8625 16.7649 23.8035 16.3513 23.6853 15.9646C23.5671 15.5725 23.4006 15.2314 23.1858 14.9414C22.9763 14.6514 22.7266 14.4231 22.4365 14.2566C22.1465 14.0901 21.8296 14.0068 21.4858 14.0068C21.1797 14.0068 20.8816 14.0767 20.5916 14.2163C20.3069 14.356 20.0518 14.5601 19.8262 14.8286C19.6006 15.0918 19.418 15.4141 19.2783 15.7954C19.144 16.1768 19.0769 16.6091 19.0769 17.0925ZM33.031 15.9968C33.031 16.2976 33.0176 16.6145 32.9907 16.9475C32.9639 17.2805 32.9236 17.6135 32.8699 17.9465C32.8162 18.2795 32.749 18.6045 32.6685 18.9214C32.5933 19.2383 32.5046 19.5283 32.4026 19.7915L33.9897 20.3071L29.7922 21.1289L31.2183 20.0574C31.3311 19.6438 31.4062 19.2463 31.4438 18.865C31.4868 18.4836 31.5083 18.1238 31.5083 17.7854C31.5083 17.5813 31.5002 17.3503 31.4841 17.0925C31.4734 16.8293 31.4438 16.5635 31.3955 16.2949C31.3525 16.0264 31.2881 15.7632 31.2021 15.5054C31.1216 15.2476 31.0142 15.0193 30.8799 14.8206C30.7456 14.6165 30.5791 14.4553 30.3804 14.3372C30.187 14.2136 29.9534 14.1519 29.6794 14.1519C29.3625 14.1519 29.0403 14.2566 28.7126 14.4661C28.385 14.6755 28.0815 14.9844 27.8022 15.3926V19.8479L29.1316 20.7986L25.1436 21.0806L26.199 19.9124L26.7629 14.0552L25.0469 13.2092L27.8022 12.9353V14.1519C27.958 13.937 28.1299 13.7356 28.3179 13.5476C28.5059 13.3596 28.7046 13.1985 28.9141 13.0642C29.1235 12.9246 29.3411 12.8171 29.5667 12.7419C29.7976 12.6614 30.0339 12.6211 30.2756 12.6211C30.7429 12.6211 31.1484 12.707 31.4922 12.8789C31.8359 13.0508 32.1206 13.2898 32.3462 13.5959C32.5771 13.8967 32.749 14.2539 32.8618 14.6675C32.9746 15.0757 33.031 15.5188 33.031 15.9968ZM34.9324 17.4712C34.9324 16.9663 34.9834 16.4641 35.0854 15.9646C35.1929 15.4597 35.3083 14.9978 35.4319 14.5789L34.0381 14.6675L37.9697 10.3733C37.6582 11.3562 37.4058 12.2424 37.2124 13.032L40.3464 13.2979L39.9355 14.2646L36.8982 14.4822C36.823 14.8743 36.7639 15.2234 36.7209 15.5295C36.6833 15.8303 36.6511 16.0854 36.6243 16.2949C36.5974 16.542 36.5786 16.7568 36.5679 16.9395C36.5679 17.4766 36.6001 17.96 36.6646 18.3896C36.729 18.8193 36.8284 19.1873 36.9626 19.4934C37.1023 19.7942 37.2769 20.0278 37.4863 20.1943C37.7012 20.3555 37.9563 20.436 38.2517 20.436C38.5256 20.436 38.7539 20.3823 38.9365 20.2749C39.1245 20.1621 39.2749 20.0198 39.3877 19.8479C39.5005 19.6707 39.5811 19.4746 39.6294 19.2598C39.6777 19.0396 39.7019 18.822 39.7019 18.6072C39.7019 18.4084 39.6858 18.2151 39.6536 18.0271C39.8845 18.1453 40.0591 18.3359 40.1772 18.5991C40.3008 18.8569 40.3625 19.1389 40.3625 19.4451C40.3625 19.762 40.3088 20.0413 40.2014 20.283C40.0994 20.5247 39.957 20.7288 39.7744 20.8953C39.5918 21.0564 39.377 21.1799 39.1299 21.2659C38.8828 21.3518 38.6169 21.3948 38.3323 21.3948C38.1604 21.3948 37.9563 21.376 37.72 21.3384C37.489 21.3008 37.2473 21.231 36.9949 21.1289C36.7424 21.0322 36.4927 20.8926 36.2456 20.71C35.9985 20.5273 35.7783 20.291 35.585 20.001C35.3916 19.7109 35.2332 19.3591 35.1096 18.9456C34.9915 18.5266 34.9324 18.0352 34.9324 17.4712ZM46.4775 15.5054C46.4292 15.3066 46.3594 15.1375 46.2681 14.9978C46.1821 14.8582 46.0828 14.7427 45.97 14.6514C45.8625 14.5547 45.7471 14.4822 45.6235 14.4338C45.5 14.3801 45.3765 14.3398 45.2529 14.313C44.9629 14.2539 44.6541 14.2566 44.3264 14.321C44.2136 14.3586 44.0928 14.4177 43.9639 14.4983C43.8511 14.5735 43.7222 14.6755 43.5771 14.8044C43.4321 14.928 43.2764 15.0945 43.1099 15.304L43.2549 19.9768L44.7051 20.7019L40.4351 21.0806L41.5388 19.9607L41.99 14.3533L40.2739 13.5718L43.0454 13.0481L43.0776 14.0552C43.2656 13.8296 43.459 13.6443 43.6577 13.4993C43.8564 13.3542 44.0364 13.2361 44.1975 13.1448C44.3855 13.0427 44.5681 12.9648 44.7454 12.9111C45.0676 12.8359 45.3953 12.8064 45.7283 12.8225C45.8679 12.8279 46.0129 12.844 46.1633 12.8708C46.3191 12.8977 46.4749 12.9407 46.6306 12.9998C46.7917 13.0535 46.9475 13.1287 47.0979 13.2253C47.2483 13.3167 47.3933 13.4321 47.533 13.5718L46.4775 15.5054ZM47.6458 16.9556C47.6458 16.354 47.7397 15.7981 47.9277 15.2878C48.1211 14.7722 48.387 14.3264 48.7253 13.9504C49.0691 13.5745 49.4746 13.2817 49.9419 13.0723C50.4146 12.8574 50.9302 12.75 51.4888 12.75C52.0312 12.75 52.5281 12.8521 52.9792 13.0562C53.4304 13.2549 53.8225 13.5369 54.1555 13.9021C54.4885 14.2673 54.7544 14.7051 54.9531 15.2153C55.1519 15.7256 55.27 16.2896 55.3076 16.9072C55.3452 17.5679 55.2754 18.1667 55.0981 18.7039C54.9263 19.2356 54.6711 19.6895 54.3328 20.0654C53.9944 20.436 53.5889 20.7234 53.1162 20.9275C52.6489 21.1316 52.1414 21.2336 51.5935 21.2336C51.0671 21.2336 50.5649 21.1396 50.0869 20.9517C49.6143 20.7583 49.1953 20.479 48.8301 20.1138C48.4702 19.7485 48.1829 19.3027 47.968 18.7764C47.7532 18.2446 47.6458 17.6377 47.6458 16.9556ZM49.6277 17.0925C49.6277 17.5652 49.6948 17.9922 49.8291 18.3735C49.9634 18.7549 50.1433 19.0798 50.3689 19.3484C50.5945 19.6116 50.855 19.8157 51.1504 19.9607C51.4458 20.1057 51.7573 20.1782 52.085 20.1782C52.4126 20.1782 52.7188 20.1084 53.0034 19.9688C53.2881 19.8237 53.5352 19.6223 53.7446 19.3645C53.9541 19.1013 54.1179 18.7871 54.2361 18.4219C54.3542 18.0566 54.4133 17.6511 54.4133 17.2053C54.4133 16.7649 54.3542 16.3513 54.2361 15.9646C54.1179 15.5725 53.9514 15.2314 53.7366 14.9414C53.5271 14.6514 53.2773 14.4231 52.9873 14.2566C52.6973 14.0901 52.3804 14.0068 52.0366 14.0068C51.7305 14.0068 51.4324 14.0767 51.1423 14.2163C50.8577 14.356 50.6025 14.5601 50.377 14.8286C50.1514 15.0918 49.9688 15.4141 49.8291 15.7954C49.6948 16.1768 49.6277 16.6091 49.6277 17.0925ZM58.0549 19.9929L59.6663 20.6375L55.6299 21.0322L57.0801 19.8962L56.8303 11.1951L54.9692 10.3894L59.0459 9.84961L58.0549 19.9929ZM68.3835 10.0913C68.7488 10.0913 69.0979 10.1262 69.4309 10.196C69.7693 10.2605 70.0835 10.3491 70.3735 10.4619C70.6636 10.5693 70.9268 10.6929 71.1631 10.8325C71.3994 10.9722 71.6008 11.1118 71.7673 11.2515L73.8621 9.80933L71.4531 14.4338L71.2678 12.0088C71.1121 11.9014 70.9429 11.8074 70.7603 11.7268C70.583 11.6409 70.4031 11.571 70.2205 11.5173C70.0432 11.4583 69.8713 11.4126 69.7048 11.3804C69.5383 11.3428 69.3906 11.3132 69.2617 11.2917C69.1328 11.2703 69.0281 11.2568 68.9475 11.2515C68.8723 11.2407 68.832 11.2354 68.8267 11.2354C68.4614 11.2354 68.1553 11.2756 67.9082 11.3562C67.6611 11.4368 67.4597 11.5415 67.304 11.6704C67.1536 11.7993 67.0435 11.947 66.9736 12.1135C66.9092 12.2747 66.877 12.4385 66.877 12.605C66.877 12.9434 66.9468 13.2307 67.0864 13.467C67.2261 13.698 67.4382 13.9048 67.7229 14.0874C68.0076 14.27 68.3701 14.4419 68.8105 14.603C69.251 14.7588 69.7693 14.928 70.3655 15.1106C70.7253 15.2234 71.0637 15.3765 71.3806 15.5698C71.7029 15.7578 71.9822 15.9807 72.2185 16.2385C72.4548 16.491 72.6401 16.7756 72.7744 17.0925C72.9141 17.4041 72.9839 17.7397 72.9839 18.0996C72.9839 18.5186 72.9248 18.8918 72.8066 19.2195C72.6885 19.5417 72.53 19.8264 72.3313 20.0735C72.1379 20.3152 71.9124 20.522 71.6545 20.6938C71.3967 20.8604 71.1282 20.9946 70.8489 21.0967C70.575 21.2041 70.2957 21.2793 70.011 21.3223C69.7317 21.3706 69.4685 21.3948 69.2214 21.3948C68.4963 21.3948 67.8384 21.2712 67.2476 21.0242C66.6567 20.7771 66.1062 20.4387 65.5959 20.009L63.5012 21.4431L65.8376 17.302C65.9021 17.6887 66.0149 18.062 66.176 18.4219C66.3425 18.7764 66.5466 19.0933 66.7883 19.3726C67.03 19.6519 67.3093 19.8748 67.6262 20.0413C67.9431 20.2078 68.2896 20.291 68.6655 20.291C68.9663 20.291 69.2402 20.2454 69.4873 20.1541C69.7397 20.0627 69.9546 19.9419 70.1318 19.7915C70.3091 19.6357 70.446 19.4585 70.5427 19.2598C70.6448 19.0557 70.6958 18.8435 70.6958 18.6233C70.6958 18.3171 70.6099 18.054 70.438 17.8337C70.2661 17.6082 70.0405 17.4094 69.7612 17.2375C69.4819 17.0603 69.1624 16.8992 68.8025 16.7542C68.448 16.6038 68.0828 16.4507 67.7068 16.2949C67.3308 16.1392 66.9629 15.9673 66.603 15.7793C66.2485 15.5913 65.9316 15.3711 65.6523 15.1187C65.373 14.8608 65.1475 14.5601 64.9756 14.2163C64.8037 13.8726 64.7178 13.467 64.7178 12.9998C64.7178 12.6399 64.7876 12.2881 64.9272 11.9443C65.0723 11.5952 65.2925 11.2837 65.5879 11.0098C65.8887 10.7358 66.27 10.5156 66.7319 10.3491C67.1938 10.1772 67.7444 10.0913 68.3835 10.0913ZM74.4583 17.4712C74.4583 16.9663 74.5093 16.4641 74.6113 15.9646C74.7188 15.4597 74.8342 14.9978 74.9578 14.5789L73.564 14.6675L77.4956 10.3733C77.1841 11.3562 76.9316 12.2424 76.7383 13.032L79.8723 13.2979L79.4614 14.2646L76.4241 14.4822C76.3489 14.8743 76.2898 15.2234 76.2468 15.5295C76.2092 15.8303 76.177 16.0854 76.1501 16.2949C76.1233 16.542 76.1045 16.7568 76.0938 16.9395C76.0938 17.4766 76.126 17.96 76.1904 18.3896C76.2549 18.8193 76.3542 19.1873 76.4885 19.4934C76.6282 19.7942 76.8027 20.0278 77.0122 20.1943C77.2271 20.3555 77.4822 20.436 77.7776 20.436C78.0515 20.436 78.2798 20.3823 78.4624 20.2749C78.6504 20.1621 78.8008 20.0198 78.9136 19.8479C79.0264 19.6707 79.1069 19.4746 79.1553 19.2598C79.2036 19.0396 79.2278 18.822 79.2278 18.6072C79.2278 18.4084 79.2117 18.2151 79.1794 18.0271C79.4104 18.1453 79.585 18.3359 79.7031 18.5991C79.8267 18.8569 79.8884 19.1389 79.8884 19.4451C79.8884 19.762 79.8347 20.0413 79.7273 20.283C79.6252 20.5247 79.4829 20.7288 79.3003 20.8953C79.1177 21.0564 78.9028 21.1799 78.6558 21.2659C78.4087 21.3518 78.1428 21.3948 77.8582 21.3948C77.6863 21.3948 77.4822 21.376 77.2458 21.3384C77.0149 21.3008 76.7732 21.231 76.5208 21.1289C76.2683 21.0322 76.0186 20.8926 75.7715 20.71C75.5244 20.5273 75.3042 20.291 75.1108 20.001C74.9175 19.7109 74.759 19.3591 74.6355 18.9456C74.5173 18.5266 74.4583 18.0352 74.4583 17.4712ZM86.0034 15.5054C85.9551 15.3066 85.8853 15.1375 85.7939 14.9978C85.708 14.8582 85.6086 14.7427 85.4958 14.6514C85.3884 14.5547 85.2729 14.4822 85.1494 14.4338C85.0259 14.3801 84.9023 14.3398 84.7788 14.313C84.4888 14.2539 84.1799 14.2566 83.8523 14.321C83.7395 14.3586 83.6187 14.4177 83.4897 14.4983C83.377 14.5735 83.248 14.6755 83.103 14.8044C82.958 14.928 82.8022 15.0945 82.6357 15.304L82.7808 19.9768L84.231 20.7019L79.9609 21.0806L81.0647 19.9607L81.5159 14.3533L79.7998 13.5718L82.5713 13.0481L82.6035 14.0552C82.7915 13.8296 82.9849 13.6443 83.1836 13.4993C83.3823 13.3542 83.5623 13.2361 83.7234 13.1448C83.9114 13.0427 84.094 12.9648 84.2712 12.9111C84.5935 12.8359 84.9211 12.8064 85.2542 12.8225C85.3938 12.8279 85.5388 12.844 85.6892 12.8708C85.845 12.8977 86.0007 12.9407 86.1565 12.9998C86.3176 13.0535 86.4734 13.1287 86.6238 13.2253C86.7742 13.3167 86.9192 13.4321 87.0588 13.5718L86.0034 15.5054ZM94.2373 13.1609L94.5515 20.0896L96.0017 20.7664L92.6985 21.3787L92.8516 19.0181C92.7012 19.335 92.5293 19.6384 92.3359 19.9285C92.1426 20.2131 91.925 20.4656 91.6833 20.6858C91.4417 20.9006 91.1758 21.0725 90.8857 21.2014C90.6011 21.3303 90.2922 21.3948 89.9592 21.3948C89.5618 21.3948 89.2126 21.325 88.9119 21.1853C88.6111 21.0457 88.3586 20.855 88.1545 20.6133C87.9504 20.3662 87.7947 20.0789 87.6873 19.7512C87.5852 19.4182 87.5342 19.0637 87.5342 18.6877C87.5342 18.3386 87.561 17.9761 87.6147 17.6001C87.6685 17.2241 87.741 16.8535 87.8323 16.4883C87.929 16.1177 88.0417 15.7605 88.1707 15.4167C88.3049 15.0676 88.45 14.7454 88.6057 14.45L86.9058 14.0552L90.0962 12.9675C89.8921 13.51 89.7336 14.031 89.6208 14.5305C89.5134 15.0247 89.4329 15.4651 89.3792 15.8518C89.3201 16.303 89.2825 16.7219 89.2664 17.1086C89.2664 17.6082 89.3013 18.0405 89.3711 18.4058C89.4409 18.7656 89.5376 19.0664 89.6611 19.3081C89.7847 19.5444 89.9324 19.7217 90.1042 19.8398C90.2761 19.9526 90.4641 20.009 90.6682 20.009C90.9797 20.009 91.259 19.9258 91.5061 19.7593C91.7532 19.5928 91.9707 19.3699 92.1587 19.0906C92.3521 18.8059 92.5159 18.4756 92.6501 18.0996C92.7898 17.7236 92.9026 17.3262 92.9885 16.9072C93.0798 16.4883 93.147 16.0613 93.1899 15.6262C93.2329 15.1912 93.2571 14.7722 93.2625 14.3694L91.5142 13.1609H94.2373ZM99.9092 12.9514C100.36 12.9514 100.769 13.0508 101.134 13.2495C101.504 13.4429 101.802 13.7061 102.028 14.0391L103.656 12.3875L102.318 16.7461C102.27 16.2949 102.195 15.9136 102.093 15.6021C101.99 15.2852 101.872 15.0247 101.738 14.8206C101.609 14.6111 101.472 14.45 101.327 14.3372C101.188 14.2244 101.056 14.1411 100.932 14.0874C100.814 14.0337 100.709 14.0015 100.618 13.9907C100.532 13.98 100.479 13.9746 100.457 13.9746C100.07 13.9746 99.7212 14.0498 99.4097 14.2002C99.0981 14.3506 98.8296 14.5708 98.604 14.8608C98.3838 15.1509 98.2146 15.5081 98.0964 15.9324C97.9783 16.3513 97.9192 16.8293 97.9192 17.3665C97.9192 17.8821 97.981 18.3386 98.1045 18.7361C98.228 19.1282 98.3918 19.4585 98.5959 19.7271C98.8 19.9956 99.0337 20.1997 99.2969 20.3394C99.5601 20.4736 99.8313 20.5408 100.111 20.5408C100.438 20.5408 100.742 20.4683 101.021 20.3232C101.3 20.1729 101.539 19.9768 101.738 19.7351C101.937 19.4934 102.084 19.2168 102.181 18.9053C102.283 18.5884 102.318 18.2634 102.286 17.9304C102.35 17.9895 102.417 18.062 102.487 18.1479C102.562 18.2339 102.63 18.3306 102.689 18.438C102.753 18.54 102.804 18.6528 102.842 18.7764C102.879 18.8945 102.898 19.0154 102.898 19.1389C102.898 19.5042 102.81 19.8345 102.632 20.1299C102.46 20.4199 102.238 20.667 101.964 20.8711C101.69 21.0752 101.381 21.231 101.037 21.3384C100.693 21.4512 100.352 21.5076 100.014 21.5076C99.8689 21.5076 99.6702 21.4915 99.4177 21.4592C99.1707 21.427 98.8994 21.3599 98.604 21.2578C98.314 21.1611 98.0186 21.0188 97.7178 20.8308C97.417 20.6428 97.1431 20.3931 96.896 20.0815C96.6543 19.77 96.4556 19.386 96.2998 18.9294C96.144 18.4729 96.0662 17.925 96.0662 17.2859C96.0662 16.7166 96.1306 16.2144 96.2595 15.7793C96.3938 15.3389 96.5684 14.9575 96.7832 14.6353C97.0034 14.313 97.2505 14.0444 97.5244 13.8296C97.7983 13.6147 98.0776 13.4429 98.3623 13.314C98.647 13.1851 98.9236 13.0938 99.1921 13.04C99.4661 12.981 99.7051 12.9514 99.9092 12.9514ZM104.638 17.4712C104.638 16.9663 104.689 16.4641 104.792 15.9646C104.899 15.4597 105.014 14.9978 105.138 14.5789L103.744 14.6675L107.676 10.3733C107.364 11.3562 107.112 12.2424 106.918 13.032L110.052 13.2979L109.642 14.2646L106.604 14.4822C106.529 14.8743 106.47 15.2234 106.427 15.5295C106.389 15.8303 106.357 16.0854 106.33 16.2949C106.303 16.542 106.285 16.7568 106.274 16.9395C106.274 17.4766 106.306 17.96 106.371 18.3896C106.435 18.8193 106.534 19.1873 106.669 19.4934C106.808 19.7942 106.983 20.0278 107.192 20.1943C107.407 20.3555 107.662 20.436 107.958 20.436C108.232 20.436 108.46 20.3823 108.643 20.2749C108.831 20.1621 108.981 20.0198 109.094 19.8479C109.207 19.6707 109.287 19.4746 109.335 19.2598C109.384 19.0396 109.408 18.822 109.408 18.6072C109.408 18.4084 109.392 18.2151 109.36 18.0271C109.591 18.1453 109.765 18.3359 109.883 18.5991C110.007 18.8569 110.069 19.1389 110.069 19.4451C110.069 19.762 110.015 20.0413 109.907 20.283C109.805 20.5247 109.663 20.7288 109.48 20.8953C109.298 21.0564 109.083 21.1799 108.836 21.2659C108.589 21.3518 108.323 21.3948 108.038 21.3948C107.866 21.3948 107.662 21.376 107.426 21.3384C107.195 21.3008 106.953 21.231 106.701 21.1289C106.448 21.0322 106.199 20.8926 105.952 20.71C105.705 20.5273 105.484 20.291 105.291 20.001C105.098 19.7109 104.939 19.3591 104.816 18.9456C104.698 18.5266 104.638 18.0352 104.638 17.4712ZM117.569 13.1609L117.884 20.0896L119.334 20.7664L116.031 21.3787L116.184 19.0181C116.033 19.335 115.861 19.6384 115.668 19.9285C115.475 20.2131 115.257 20.4656 115.015 20.6858C114.774 20.9006 114.508 21.0725 114.218 21.2014C113.933 21.3303 113.624 21.3948 113.291 21.3948C112.894 21.3948 112.545 21.325 112.244 21.1853C111.943 21.0457 111.691 20.855 111.487 20.6133C111.282 20.3662 111.127 20.0789 111.019 19.7512C110.917 19.4182 110.866 19.0637 110.866 18.6877C110.866 18.3386 110.893 17.9761 110.947 17.6001C111 17.2241 111.073 16.8535 111.164 16.4883C111.261 16.1177 111.374 15.7605 111.503 15.4167C111.637 15.0676 111.782 14.7454 111.938 14.45L110.238 14.0552L113.428 12.9675C113.224 13.51 113.066 14.031 112.953 14.5305C112.845 15.0247 112.765 15.4651 112.711 15.8518C112.652 16.303 112.615 16.7219 112.598 17.1086C112.598 17.6082 112.633 18.0405 112.703 18.4058C112.773 18.7656 112.87 19.0664 112.993 19.3081C113.117 19.5444 113.264 19.7217 113.436 19.8398C113.608 19.9526 113.796 20.009 114 20.009C114.312 20.009 114.591 19.9258 114.838 19.7593C115.085 19.5928 115.303 19.3699 115.491 19.0906C115.684 18.8059 115.848 18.4756 115.982 18.0996C116.122 17.7236 116.235 17.3262 116.321 16.9072C116.412 16.4883 116.479 16.0613 116.522 15.6262C116.565 15.1912 116.589 14.7722 116.594 14.3694L114.846 13.1609H117.569ZM124.998 15.5054C124.949 15.3066 124.879 15.1375 124.788 14.9978C124.702 14.8582 124.603 14.7427 124.49 14.6514C124.383 14.5547 124.267 14.4822 124.144 14.4338C124.02 14.3801 123.896 14.3398 123.773 14.313C123.483 14.2539 123.174 14.2566 122.846 14.321C122.734 14.3586 122.613 14.4177 122.484 14.4983C122.371 14.5735 122.242 14.6755 122.097 14.8044C121.952 14.928 121.796 15.0945 121.63 15.304L121.775 19.9768L123.225 20.7019L118.955 21.0806L120.059 19.9607L120.51 14.3533L118.794 13.5718L121.565 13.0481L121.598 14.0552C121.786 13.8296 121.979 13.6443 122.178 13.4993C122.376 13.3542 122.556 13.2361 122.718 13.1448C122.906 13.0427 123.088 12.9648 123.265 12.9111C123.588 12.8359 123.915 12.8064 124.248 12.8225C124.388 12.8279 124.533 12.844 124.683 12.8708C124.839 12.8977 124.995 12.9407 125.151 12.9998C125.312 13.0535 125.468 13.1287 125.618 13.2253C125.768 13.3167 125.913 13.4321 126.053 13.5718L124.998 15.5054ZM128.067 18.0432C128.137 18.344 128.231 18.6394 128.349 18.9294C128.467 19.2141 128.612 19.4692 128.784 19.6948C128.956 19.9204 129.155 20.103 129.38 20.2427C129.606 20.3823 129.861 20.4521 130.146 20.4521C130.522 20.4521 130.849 20.3743 131.129 20.2185C131.408 20.0627 131.636 19.8667 131.813 19.6304C131.991 19.3887 132.114 19.1255 132.184 18.8408C132.254 18.5508 132.267 18.2742 132.224 18.011C132.375 18.0701 132.498 18.1479 132.595 18.2446C132.697 18.3413 132.775 18.4487 132.829 18.5669C132.888 18.6797 132.928 18.7979 132.949 18.9214C132.971 19.0396 132.982 19.155 132.982 19.2678C132.982 19.5256 132.906 19.7754 132.756 20.0171C132.606 20.2534 132.394 20.4656 132.12 20.6536C131.851 20.8362 131.531 20.9839 131.161 21.0967C130.79 21.2095 130.385 21.2659 129.944 21.2659C129.354 21.2659 128.824 21.1504 128.357 20.9194C127.895 20.6885 127.503 20.377 127.181 19.9849C126.859 19.5874 126.612 19.1228 126.44 18.5911C126.268 18.0593 126.182 17.4927 126.182 16.8911C126.182 16.2788 126.268 15.7148 126.44 15.1992C126.612 14.6782 126.864 14.2351 127.197 13.8699C127.535 13.5046 127.949 13.228 128.438 13.04C128.927 12.8521 129.49 12.7769 130.13 12.8145C130.57 12.8467 130.976 12.9729 131.346 13.1931C131.717 13.4133 132.039 13.698 132.313 14.0471C132.592 14.3909 132.815 14.7856 132.982 15.2314C133.154 15.6772 133.258 16.1418 133.296 16.6252L128.067 18.0432ZM127.914 16.7461C127.914 16.8213 127.914 16.8965 127.914 16.9717C127.914 17.0415 127.919 17.114 127.93 17.1892L131.467 15.9001C131.349 15.5134 131.215 15.1831 131.064 14.9092C130.919 14.6299 130.766 14.4016 130.605 14.2244C130.444 14.0471 130.28 13.9182 130.114 13.8376C129.952 13.7517 129.797 13.7087 129.646 13.7087C129.421 13.7087 129.222 13.7517 129.05 13.8376C128.878 13.9236 128.728 14.0417 128.599 14.1921C128.475 14.3372 128.368 14.509 128.277 14.7078C128.191 14.9065 128.121 15.1187 128.067 15.3442C128.013 15.5698 127.973 15.8035 127.946 16.0452C127.925 16.2815 127.914 16.5151 127.914 16.7461ZM137.26 12.7983C137.464 12.7983 137.671 12.8171 137.88 12.8547C138.09 12.887 138.294 12.938 138.492 13.0078C138.697 13.0723 138.887 13.1528 139.064 13.2495C139.247 13.3408 139.411 13.4429 139.556 13.5557L140.877 11.9282L140.281 15.9485C140.217 15.6692 140.104 15.3953 139.943 15.1267C139.781 14.8528 139.58 14.6084 139.338 14.3936C139.102 14.1787 138.828 14.0068 138.517 13.8779C138.205 13.7437 137.864 13.6765 137.493 13.6765C137.289 13.6765 137.093 13.7007 136.905 13.749C136.717 13.792 136.551 13.8645 136.406 13.9666C136.266 14.0686 136.153 14.1975 136.067 14.3533C135.987 14.509 135.947 14.6943 135.947 14.9092C135.947 15.167 136.016 15.3765 136.156 15.5376C136.301 15.6987 136.489 15.8357 136.72 15.9485C136.951 16.0559 137.214 16.1499 137.51 16.2305C137.805 16.3057 138.108 16.3862 138.42 16.4722C138.731 16.5581 139.035 16.6602 139.33 16.7783C139.626 16.8911 139.889 17.0388 140.12 17.2214C140.351 17.4041 140.536 17.6323 140.676 17.9062C140.821 18.1748 140.893 18.5078 140.893 18.9053C140.893 19.3511 140.805 19.7324 140.627 20.0493C140.456 20.3608 140.233 20.6187 139.959 20.8228C139.685 21.0215 139.381 21.1665 139.048 21.2578C138.715 21.3491 138.39 21.3948 138.073 21.3948C137.816 21.3948 137.558 21.3679 137.3 21.3142C137.042 21.2605 136.792 21.1853 136.551 21.0886C136.309 20.9919 136.078 20.8765 135.858 20.7422C135.643 20.6079 135.447 20.4629 135.27 20.3071L134.045 21.9426L134.424 17.9465C134.596 18.3118 134.802 18.6528 135.044 18.9697C135.286 19.2866 135.554 19.5632 135.85 19.7996C136.145 20.0305 136.462 20.2131 136.801 20.3474C137.139 20.4763 137.491 20.5408 137.856 20.5408C138.28 20.5408 138.619 20.4521 138.871 20.2749C139.129 20.0923 139.258 19.8345 139.258 19.5015C139.258 19.2866 139.185 19.1094 139.04 18.9697C138.901 18.8247 138.713 18.6985 138.476 18.5911C138.245 18.4836 137.982 18.387 137.687 18.301C137.391 18.2151 137.088 18.1211 136.776 18.019C136.465 17.917 136.161 17.7988 135.866 17.6646C135.571 17.5249 135.305 17.353 135.068 17.1489C134.837 16.9395 134.649 16.687 134.504 16.3916C134.365 16.0908 134.295 15.7283 134.295 15.304C134.295 14.9387 134.349 14.6218 134.456 14.3533C134.563 14.0847 134.703 13.8591 134.875 13.6765C135.052 13.4885 135.248 13.3381 135.463 13.2253C135.683 13.1072 135.904 13.0186 136.124 12.9595C136.344 12.895 136.553 12.8521 136.752 12.8306C136.951 12.8091 137.12 12.7983 137.26 12.7983Z" fill="#BD1313"/>
<rect x="1" y="1" width="148" height="28" rx="4" stroke="url(#paint0_linear)" stroke-width="2"/>
<defs>
<linearGradient id="paint0_linear" x1="70" y1="-5.00002" x2="380" y2="80" gradientUnits="userSpaceOnUse">
<stop stop-color="#F4EB11"/>
<stop offset="0.742956" stop-color="#7C0000"/>
<stop offset="0.743056" stop-color="#DD9539" stop-opacity="0"/>
</linearGradient>
</defs>
</svg>
