<svg width="150" height="30" viewBox="0 0 150 30" fill="none" xmlns="http://www.w3.org/2000/svg">
<g clip-path="url(#clip0)">
<path d="M9.75928 10.0457C10.3403 10.0457 10.8958 10.1482 11.4255 10.3533C11.9553 10.5527 12.3968 10.846 12.75 11.2334L14.835 9.57568L12.4509 14.6855L12.2458 12.199C12.0579 11.9711 11.8585 11.7917 11.6477 11.6606C11.4369 11.5296 11.2319 11.4328 11.0325 11.3701C10.8388 11.3018 10.6622 11.259 10.5027 11.2419C10.3489 11.2249 10.2292 11.2163 10.1438 11.2163C9.68237 11.2163 9.25228 11.3331 8.85352 11.5667C8.46045 11.8002 8.11865 12.1363 7.82812 12.575C7.5376 13.0079 7.30688 13.532 7.13599 14.1472C6.97078 14.7625 6.88818 15.4489 6.88818 16.2065C6.88818 16.9642 6.97078 17.6563 7.13599 18.283C7.30688 18.9096 7.53475 19.4479 7.81958 19.8979C8.11011 20.348 8.44906 20.6983 8.83643 20.949C9.2238 21.1939 9.6368 21.3164 10.0754 21.3164C10.5198 21.3164 10.9014 21.2082 11.2205 20.9917C11.5395 20.7695 11.8015 20.4904 12.0066 20.1543C12.2117 19.8182 12.3598 19.4508 12.4509 19.052C12.5478 18.6532 12.5962 18.2716 12.5962 17.907C12.5962 17.8272 12.5962 17.7532 12.5962 17.6848C12.5962 17.6108 12.5905 17.5339 12.5791 17.4541C12.9494 17.6991 13.22 17.9782 13.3909 18.2915C13.5675 18.5991 13.6558 18.9181 13.6558 19.2485C13.6558 19.5562 13.5789 19.8837 13.425 20.2312C13.2769 20.573 13.0548 20.892 12.7585 21.1882C12.4623 21.4788 12.0977 21.7209 11.6648 21.9146C11.2319 22.1025 10.7306 22.1965 10.1609 22.1965C9.69946 22.1965 9.24089 22.1481 8.78516 22.0513C8.32943 21.9544 7.89364 21.8063 7.47778 21.6069C7.06193 21.4019 6.67456 21.1427 6.31567 20.8293C5.95679 20.516 5.64632 20.1429 5.38428 19.71C5.12223 19.277 4.91431 18.7786 4.7605 18.2146C4.61239 17.6506 4.53833 17.0212 4.53833 16.3262C4.53833 15.6483 4.60669 15.0245 4.74341 14.4548C4.88582 13.8795 5.07951 13.3611 5.32446 12.8997C5.57511 12.4325 5.86564 12.0224 6.19604 11.6692C6.53215 11.3103 6.89103 11.0112 7.27271 10.772C7.66007 10.5327 8.06453 10.3533 8.48608 10.2336C8.91333 10.1083 9.33773 10.0457 9.75928 10.0457ZM14.7068 17.7104C14.7068 17.0724 14.8065 16.4828 15.0059 15.9417C15.2109 15.3948 15.4929 14.922 15.8518 14.5232C16.2164 14.1244 16.6465 13.814 17.1421 13.5918C17.6434 13.3639 18.1903 13.25 18.7827 13.25C19.3581 13.25 19.885 13.3582 20.3635 13.5747C20.842 13.7855 21.2579 14.0846 21.6111 14.4719C21.9643 14.8593 22.2463 15.3236 22.457 15.8647C22.6678 16.4059 22.7931 17.0041 22.833 17.6592C22.8729 18.3599 22.7988 18.995 22.6108 19.5647C22.4285 20.1287 22.158 20.61 21.7991 21.0088C21.4402 21.4019 21.0101 21.7066 20.5088 21.9231C20.0132 22.1396 19.4749 22.2478 18.8938 22.2478C18.3355 22.2478 17.8029 22.1481 17.2959 21.9487C16.7946 21.7437 16.3503 21.4474 15.9629 21.0601C15.5812 20.6727 15.2764 20.1999 15.0486 19.6416C14.8207 19.0776 14.7068 18.4339 14.7068 17.7104ZM16.8088 17.8557C16.8088 18.357 16.88 18.8099 17.0225 19.2144C17.1649 19.6188 17.3557 19.9635 17.595 20.2483C17.8342 20.5274 18.1105 20.7439 18.4238 20.8977C18.7371 21.0515 19.0675 21.1284 19.415 21.1284C19.7625 21.1284 20.0872 21.0544 20.3892 20.9062C20.6911 20.7524 20.9531 20.5388 21.1753 20.2654C21.3975 19.9862 21.5712 19.653 21.6965 19.2656C21.8219 18.8783 21.8845 18.4482 21.8845 17.9753C21.8845 17.5082 21.8219 17.0696 21.6965 16.6594C21.5712 16.2436 21.3946 15.8818 21.1667 15.5742C20.9446 15.2666 20.6797 15.0245 20.3721 14.8479C20.0645 14.6713 19.7284 14.583 19.3638 14.583C19.0391 14.583 18.7229 14.6571 18.4153 14.8052C18.1134 14.9533 17.8428 15.1698 17.6035 15.4546C17.3643 15.7337 17.1706 16.0755 17.0225 16.48C16.88 16.8844 16.8088 17.343 16.8088 17.8557ZM31.6086 16.6936C31.6086 17.0126 31.5944 17.3487 31.5659 17.7019C31.5374 18.0551 31.4947 18.4083 31.4377 18.7615C31.3808 19.1147 31.3096 19.4593 31.2241 19.7954C31.1444 20.1315 31.0504 20.4391 30.9421 20.7183L32.6255 21.2651L28.1736 22.1367L29.686 21.0002C29.8057 20.5616 29.8854 20.1401 29.9253 19.7356C29.9709 19.3311 29.9937 18.9495 29.9937 18.5906C29.9937 18.3741 29.9851 18.1292 29.968 17.8557C29.9566 17.5766 29.9253 17.2946 29.874 17.0098C29.8285 16.7249 29.7601 16.4458 29.6689 16.1724C29.5835 15.8989 29.4696 15.6568 29.3271 15.446C29.1847 15.2296 29.0081 15.0587 28.7974 14.9333C28.5923 14.8023 28.3445 14.7368 28.054 14.7368C27.7179 14.7368 27.3761 14.8479 27.0286 15.0701C26.6811 15.2922 26.3592 15.6198 26.063 16.0527V20.7781L27.4729 21.7864L23.2432 22.0854L24.3625 20.8464L24.9607 14.6343L23.1406 13.7371L26.063 13.4465V14.7368C26.2282 14.509 26.4105 14.2953 26.6099 14.0959C26.8092 13.8966 27.02 13.7257 27.2422 13.5833C27.4644 13.4351 27.6951 13.3212 27.9343 13.2415C28.1793 13.156 28.4299 13.1133 28.6863 13.1133C29.1819 13.1133 29.612 13.2044 29.9766 13.3867C30.3411 13.569 30.6431 13.8225 30.8823 14.1472C31.1273 14.4662 31.3096 14.8451 31.4292 15.2837C31.5488 15.7166 31.6086 16.1866 31.6086 16.6936ZM33.6252 18.2573C33.6252 17.7218 33.6794 17.1892 33.7876 16.6594C33.9015 16.1239 34.024 15.634 34.155 15.1897L32.6768 15.2837L36.8467 10.7292C36.5163 11.7717 36.2485 12.7117 36.0435 13.5491L39.3674 13.8311L38.9316 14.8564L35.7102 15.0872C35.6305 15.503 35.5678 15.8733 35.5222 16.198C35.4823 16.517 35.4482 16.7876 35.4197 17.0098C35.3912 17.2718 35.3713 17.4997 35.3599 17.6934C35.3599 18.263 35.394 18.7757 35.4624 19.2314C35.5308 19.6872 35.6361 20.0774 35.7786 20.4021C35.9267 20.7211 36.1118 20.9689 36.334 21.1455C36.5618 21.3164 36.8324 21.4019 37.1458 21.4019C37.4363 21.4019 37.6784 21.3449 37.8721 21.231C38.0715 21.1113 38.231 20.9604 38.3506 20.7781C38.4702 20.5901 38.5557 20.3822 38.6069 20.1543C38.6582 19.9207 38.6838 19.69 38.6838 19.4622C38.6838 19.2514 38.6667 19.0463 38.6326 18.8469C38.8775 18.9722 39.0627 19.1745 39.188 19.4536C39.319 19.7271 39.3845 20.0261 39.3845 20.3508C39.3845 20.6869 39.3276 20.9832 39.2136 21.2395C39.1054 21.4958 38.9544 21.7123 38.7607 21.8889C38.5671 22.0598 38.3392 22.1908 38.0771 22.282C37.8151 22.3731 37.5331 22.4187 37.2312 22.4187C37.0489 22.4187 36.8324 22.3988 36.5818 22.3589C36.3368 22.319 36.0805 22.245 35.8127 22.1367C35.545 22.0342 35.2801 21.8861 35.0181 21.6924C34.756 21.4987 34.5225 21.248 34.3174 20.9404C34.1123 20.6328 33.9443 20.2597 33.8132 19.821C33.6879 19.3767 33.6252 18.8555 33.6252 18.2573ZM45.8701 16.1724C45.8188 15.9616 45.7448 15.7821 45.6479 15.634C45.5568 15.4859 45.4514 15.3634 45.3318 15.2666C45.2179 15.1641 45.0954 15.0872 44.9644 15.0359C44.8333 14.9789 44.7023 14.9362 44.5713 14.9077C44.2637 14.8451 43.9361 14.8479 43.5886 14.9163C43.469 14.9561 43.3408 15.0188 43.2041 15.1042C43.0845 15.184 42.9478 15.2922 42.7939 15.429C42.6401 15.56 42.4749 15.7366 42.2983 15.9587L42.4521 20.9148L43.9902 21.6838L39.4614 22.0854L40.6321 20.8977L41.1106 14.9504L39.2905 14.1216L42.23 13.5662L42.2642 14.6343C42.4635 14.395 42.6686 14.1985 42.8794 14.0447C43.0902 13.8909 43.281 13.7655 43.4519 13.6687C43.6513 13.5605 43.845 13.4779 44.033 13.4209C44.3748 13.3411 44.7222 13.3098 45.0754 13.3269C45.2236 13.3326 45.3774 13.3497 45.5369 13.3782C45.7021 13.4067 45.8673 13.4522 46.0325 13.5149C46.2034 13.5719 46.3686 13.6516 46.5281 13.7542C46.6876 13.851 46.8414 13.9735 46.9895 14.1216L45.8701 16.1724ZM47.1091 17.7104C47.1091 17.0724 47.2088 16.4828 47.4082 15.9417C47.6133 15.3948 47.8953 14.922 48.2542 14.5232C48.6187 14.1244 49.0488 13.814 49.5444 13.5918C50.0457 13.3639 50.5926 13.25 51.1851 13.25C51.7604 13.25 52.2874 13.3582 52.7659 13.5747C53.2444 13.7855 53.6602 14.0846 54.0134 14.4719C54.3666 14.8593 54.6486 15.3236 54.8594 15.8647C55.0701 16.4059 55.1955 17.0041 55.2354 17.6592C55.2752 18.3599 55.2012 18.995 55.0132 19.5647C54.8309 20.1287 54.5603 20.61 54.2014 21.0088C53.8425 21.4019 53.4124 21.7066 52.9111 21.9231C52.4155 22.1396 51.8772 22.2478 51.2961 22.2478C50.7379 22.2478 50.2052 22.1481 49.6982 21.9487C49.1969 21.7437 48.7526 21.4474 48.3652 21.0601C47.9836 20.6727 47.6788 20.1999 47.4509 19.6416C47.2231 19.0776 47.1091 18.4339 47.1091 17.7104ZM49.2112 17.8557C49.2112 18.357 49.2824 18.8099 49.4248 19.2144C49.5672 19.6188 49.7581 19.9635 49.9973 20.2483C50.2366 20.5274 50.5129 20.7439 50.8262 20.8977C51.1395 21.0515 51.4699 21.1284 51.8174 21.1284C52.1649 21.1284 52.4896 21.0544 52.7915 20.9062C53.0934 20.7524 53.3555 20.5388 53.5776 20.2654C53.7998 19.9862 53.9736 19.653 54.0989 19.2656C54.2242 18.8783 54.2869 18.4482 54.2869 17.9753C54.2869 17.5082 54.2242 17.0696 54.0989 16.6594C53.9736 16.2436 53.797 15.8818 53.5691 15.5742C53.3469 15.2666 53.082 15.0245 52.7744 14.8479C52.4668 14.6713 52.1307 14.583 51.7661 14.583C51.4414 14.583 51.1252 14.6571 50.8176 14.8052C50.5157 14.9533 50.2451 15.1698 50.0059 15.4546C49.7666 15.7337 49.5729 16.0755 49.4248 16.48C49.2824 16.8844 49.2112 17.343 49.2112 17.8557ZM58.1492 20.9319L59.8582 21.6155L55.5771 22.0342L57.1152 20.8293L56.8503 11.6008L54.8765 10.7463L59.2002 10.1738L58.1492 20.9319ZM69.1038 10.4302C69.4911 10.4302 69.8614 10.4672 70.2146 10.5413C70.5735 10.6096 70.9067 10.7036 71.2144 10.8232C71.522 10.9372 71.8011 11.0682 72.0518 11.2163C72.3024 11.3644 72.516 11.5125 72.6926 11.6606L74.9143 10.1311L72.3594 15.0359L72.1628 12.4639C71.9976 12.3499 71.8182 12.2502 71.6245 12.1648C71.4365 12.0736 71.2457 11.9996 71.052 11.9426C70.864 11.88 70.6817 11.8315 70.5051 11.7974C70.3285 11.7575 70.1719 11.7262 70.0352 11.7034C69.8984 11.6806 69.7874 11.6663 69.7019 11.6606C69.6222 11.6493 69.5794 11.6436 69.5737 11.6436C69.1864 11.6436 68.8617 11.6863 68.5996 11.7717C68.3376 11.8572 68.1239 11.9683 67.9587 12.105C67.7992 12.2417 67.6825 12.3984 67.6084 12.575C67.54 12.7458 67.5059 12.9196 67.5059 13.0962C67.5059 13.4551 67.5799 13.7598 67.728 14.0105C67.8761 14.2555 68.1012 14.4748 68.4031 14.6685C68.705 14.8621 69.0895 15.0444 69.5566 15.2153C70.0238 15.3805 70.5735 15.56 71.2058 15.7537C71.5875 15.8733 71.9464 16.0356 72.2825 16.2407C72.6243 16.4401 72.9205 16.6765 73.1711 16.95C73.4218 17.2177 73.6183 17.5196 73.7607 17.8557C73.9089 18.1861 73.9829 18.5422 73.9829 18.9238C73.9829 19.3682 73.9202 19.7641 73.7949 20.1116C73.6696 20.4534 73.5015 20.7553 73.2908 21.0173C73.0857 21.2737 72.8464 21.493 72.573 21.6753C72.2996 21.8519 72.0147 21.9943 71.7185 22.1025C71.428 22.2165 71.1318 22.2962 70.8298 22.3418C70.5336 22.3931 70.2545 22.4187 69.9924 22.4187C69.2234 22.4187 68.5256 22.2877 67.8989 22.0256C67.2723 21.7636 66.6884 21.4047 66.1472 20.949L63.9255 22.47L66.4036 18.0779C66.4719 18.488 66.5916 18.884 66.7625 19.2656C66.939 19.6416 67.1555 19.9777 67.4119 20.2739C67.6682 20.5701 67.9644 20.8066 68.3005 20.9832C68.6366 21.1597 69.0041 21.248 69.4028 21.248C69.7218 21.248 70.0124 21.1996 70.2744 21.1028C70.5422 21.0059 70.77 20.8778 70.958 20.7183C71.146 20.5531 71.2913 20.3651 71.3938 20.1543C71.502 19.9378 71.5562 19.7128 71.5562 19.4792C71.5562 19.1545 71.465 18.8754 71.2827 18.6418C71.1004 18.4026 70.8612 18.1918 70.5649 18.0095C70.2687 17.8215 69.9298 17.6506 69.5481 17.4968C69.1721 17.3373 68.7847 17.175 68.386 17.0098C67.9872 16.8446 67.597 16.6623 67.2153 16.4629C66.8394 16.2635 66.5033 16.0299 66.207 15.7622C65.9108 15.4888 65.6715 15.1698 65.4893 14.8052C65.307 14.4406 65.2158 14.0105 65.2158 13.5149C65.2158 13.1332 65.2899 12.7601 65.438 12.3955C65.5918 12.0252 65.8254 11.6948 66.1387 11.4043C66.4577 11.1138 66.8621 10.8802 67.3521 10.7036C67.842 10.5213 68.4259 10.4302 69.1038 10.4302ZM75.5466 18.2573C75.5466 17.7218 75.6007 17.1892 75.709 16.6594C75.8229 16.1239 75.9454 15.634 76.0764 15.1897L74.5981 15.2837L78.7681 10.7292C78.4377 11.7717 78.1699 12.7117 77.9648 13.5491L81.2888 13.8311L80.853 14.8564L77.6316 15.0872C77.5518 15.503 77.4892 15.8733 77.4436 16.198C77.4037 16.517 77.3695 16.7876 77.3411 17.0098C77.3126 17.2718 77.2926 17.4997 77.2812 17.6934C77.2812 18.263 77.3154 18.7757 77.3838 19.2314C77.4521 19.6872 77.5575 20.0774 77.7 20.4021C77.8481 20.7211 78.0332 20.9689 78.2554 21.1455C78.4832 21.3164 78.7538 21.4019 79.0671 21.4019C79.3577 21.4019 79.5998 21.3449 79.7935 21.231C79.9928 21.1113 80.1523 20.9604 80.272 20.7781C80.3916 20.5901 80.4771 20.3822 80.5283 20.1543C80.5796 19.9207 80.6052 19.69 80.6052 19.4622C80.6052 19.2514 80.5881 19.0463 80.554 18.8469C80.7989 18.9722 80.984 19.1745 81.1094 19.4536C81.2404 19.7271 81.3059 20.0261 81.3059 20.3508C81.3059 20.6869 81.2489 20.9832 81.135 21.2395C81.0268 21.4958 80.8758 21.7123 80.6821 21.8889C80.4884 22.0598 80.2606 22.1908 79.9985 22.282C79.7365 22.3731 79.4545 22.4187 79.1526 22.4187C78.9703 22.4187 78.7538 22.3988 78.5032 22.3589C78.2582 22.319 78.0019 22.245 77.7341 22.1367C77.4664 22.0342 77.2015 21.8861 76.9395 21.6924C76.6774 21.4987 76.4438 21.248 76.2388 20.9404C76.0337 20.6328 75.8656 20.2597 75.7346 19.821C75.6093 19.3767 75.5466 18.8555 75.5466 18.2573ZM87.7915 16.1724C87.7402 15.9616 87.6662 15.7821 87.5693 15.634C87.4782 15.4859 87.3728 15.3634 87.2532 15.2666C87.1392 15.1641 87.0168 15.0872 86.8857 15.0359C86.7547 14.9789 86.6237 14.9362 86.4927 14.9077C86.1851 14.8451 85.8575 14.8479 85.51 14.9163C85.3904 14.9561 85.2622 15.0188 85.1255 15.1042C85.0059 15.184 84.8691 15.2922 84.7153 15.429C84.5615 15.56 84.3963 15.7366 84.2197 15.9587L84.3735 20.9148L85.9116 21.6838L81.3828 22.0854L82.5535 20.8977L83.032 14.9504L81.2119 14.1216L84.1514 13.5662L84.1855 14.6343C84.3849 14.395 84.59 14.1985 84.8008 14.0447C85.0116 13.8909 85.2024 13.7655 85.3733 13.6687C85.5727 13.5605 85.7664 13.4779 85.9543 13.4209C86.2961 13.3411 86.6436 13.3098 86.9968 13.3269C87.1449 13.3326 87.2987 13.3497 87.4583 13.3782C87.6235 13.4067 87.7887 13.4522 87.9539 13.5149C88.1248 13.5719 88.29 13.6516 88.4495 13.7542C88.609 13.851 88.7628 13.9735 88.9109 14.1216L87.7915 16.1724ZM96.5244 13.6858L96.8577 21.0344L98.3958 21.7522L94.8923 22.4016L95.0547 19.8979C94.8952 20.234 94.7129 20.5559 94.5078 20.8635C94.3027 21.1654 94.072 21.4332 93.8157 21.6667C93.5593 21.8946 93.2773 22.0769 92.9697 22.2136C92.6678 22.3503 92.3403 22.4187 91.9871 22.4187C91.5655 22.4187 91.1952 22.3446 90.8762 22.1965C90.5572 22.0484 90.2895 21.8462 90.073 21.5898C89.8565 21.3278 89.6913 21.023 89.5774 20.6755C89.4692 20.3223 89.415 19.9464 89.415 19.5476C89.415 19.1773 89.4435 18.7928 89.5005 18.394C89.5575 17.9953 89.6344 17.6022 89.7312 17.2148C89.8337 16.8218 89.9534 16.443 90.0901 16.0784C90.2325 15.7081 90.3863 15.3663 90.5515 15.053L88.7485 14.6343L92.1323 13.4807C91.9159 14.0561 91.7478 14.6086 91.6282 15.1384C91.5142 15.6625 91.4288 16.1296 91.3718 16.5398C91.3092 17.0183 91.2693 17.4626 91.2522 17.8728C91.2522 18.4026 91.2892 18.8612 91.3633 19.2485C91.4373 19.6302 91.5399 19.9492 91.6709 20.2056C91.8019 20.4562 91.9586 20.6442 92.1409 20.7695C92.3232 20.8892 92.5225 20.949 92.739 20.949C93.0694 20.949 93.3656 20.8607 93.6277 20.6841C93.8897 20.5075 94.1204 20.2711 94.3198 19.9749C94.5249 19.6729 94.6986 19.3226 94.8411 18.9238C94.9892 18.5251 95.1088 18.1035 95.2 17.6592C95.2968 17.2148 95.368 16.762 95.4136 16.3005C95.4591 15.8391 95.4848 15.3948 95.4905 14.9675L93.6362 13.6858H96.5244ZM102.54 13.4636C103.019 13.4636 103.451 13.569 103.839 13.7798C104.232 13.9849 104.548 14.264 104.787 14.6172L106.513 12.8655L105.095 17.4883C105.044 17.0098 104.964 16.6053 104.856 16.2749C104.747 15.9388 104.622 15.6625 104.48 15.446C104.343 15.2239 104.198 15.053 104.044 14.9333C103.896 14.8137 103.756 14.7254 103.625 14.6685C103.5 14.6115 103.389 14.5773 103.292 14.5659C103.201 14.5545 103.144 14.5488 103.121 14.5488C102.711 14.5488 102.341 14.6286 102.01 14.7881C101.68 14.9476 101.395 15.1812 101.156 15.4888C100.922 15.7964 100.743 16.1752 100.617 16.6252C100.492 17.0696 100.429 17.5766 100.429 18.1462C100.429 18.6931 100.495 19.1773 100.626 19.5989C100.757 20.0147 100.931 20.3651 101.147 20.6499C101.364 20.9347 101.611 21.1512 101.891 21.2993C102.17 21.4417 102.457 21.5129 102.754 21.5129C103.101 21.5129 103.423 21.436 103.719 21.2822C104.015 21.1227 104.269 20.9148 104.48 20.6584C104.691 20.4021 104.847 20.1087 104.95 19.7783C105.058 19.4422 105.095 19.0976 105.061 18.7444C105.129 18.807 105.2 18.884 105.274 18.9751C105.354 19.0662 105.425 19.1688 105.488 19.2827C105.556 19.391 105.611 19.5106 105.65 19.6416C105.69 19.7669 105.71 19.8951 105.71 20.0261C105.71 20.4135 105.616 20.7638 105.428 21.0771C105.246 21.3848 105.01 21.6468 104.719 21.8633C104.428 22.0798 104.101 22.245 103.736 22.3589C103.372 22.4785 103.01 22.5383 102.651 22.5383C102.497 22.5383 102.287 22.5212 102.019 22.4871C101.757 22.4529 101.469 22.3817 101.156 22.2734C100.848 22.1709 100.535 22.0199 100.216 21.8206C99.8968 21.6212 99.6063 21.3563 99.3442 21.0259C99.0879 20.6955 98.8771 20.2882 98.7119 19.804C98.5467 19.3197 98.4641 18.7387 98.4641 18.0608C98.4641 17.4569 98.5325 16.9243 98.6692 16.4629C98.8116 15.9958 98.9967 15.5913 99.2246 15.2495C99.4582 14.9077 99.7202 14.6229 100.011 14.395C100.301 14.1672 100.597 13.9849 100.899 13.8481C101.201 13.7114 101.495 13.6146 101.78 13.5576C102.07 13.495 102.324 13.4636 102.54 13.4636ZM107.556 18.2573C107.556 17.7218 107.61 17.1892 107.718 16.6594C107.832 16.1239 107.955 15.634 108.086 15.1897L106.607 15.2837L110.777 10.7292C110.447 11.7717 110.179 12.7117 109.974 13.5491L113.298 13.8311L112.862 14.8564L109.641 15.0872C109.561 15.503 109.498 15.8733 109.453 16.198C109.413 16.517 109.379 16.7876 109.35 17.0098C109.322 17.2718 109.302 17.4997 109.291 17.6934C109.291 18.263 109.325 18.7757 109.393 19.2314C109.461 19.6872 109.567 20.0774 109.709 20.4021C109.857 20.7211 110.042 20.9689 110.265 21.1455C110.493 21.3164 110.763 21.4019 111.076 21.4019C111.367 21.4019 111.609 21.3449 111.803 21.231C112.002 21.1113 112.162 20.9604 112.281 20.7781C112.401 20.5901 112.486 20.3822 112.538 20.1543C112.589 19.9207 112.615 19.69 112.615 19.4622C112.615 19.2514 112.597 19.0463 112.563 18.8469C112.808 18.9722 112.993 19.1745 113.119 19.4536C113.25 19.7271 113.315 20.0261 113.315 20.3508C113.315 20.6869 113.258 20.9832 113.144 21.2395C113.036 21.4958 112.885 21.7123 112.691 21.8889C112.498 22.0598 112.27 22.1908 112.008 22.282C111.746 22.3731 111.464 22.4187 111.162 22.4187C110.98 22.4187 110.763 22.3988 110.512 22.3589C110.267 22.319 110.011 22.245 109.743 22.1367C109.476 22.0342 109.211 21.8861 108.949 21.6924C108.687 21.4987 108.453 21.248 108.248 20.9404C108.043 20.6328 107.875 20.2597 107.744 19.821C107.619 19.3767 107.556 18.8555 107.556 18.2573ZM121.271 13.6858L121.604 21.0344L123.142 21.7522L119.638 22.4016L119.801 19.8979C119.641 20.234 119.459 20.5559 119.254 20.8635C119.049 21.1654 118.818 21.4332 118.562 21.6667C118.305 21.8946 118.023 22.0769 117.716 22.2136C117.414 22.3503 117.086 22.4187 116.733 22.4187C116.312 22.4187 115.941 22.3446 115.622 22.1965C115.303 22.0484 115.036 21.8462 114.819 21.5898C114.603 21.3278 114.437 21.023 114.323 20.6755C114.215 20.3223 114.161 19.9464 114.161 19.5476C114.161 19.1773 114.19 18.7928 114.247 18.394C114.304 17.9953 114.38 17.6022 114.477 17.2148C114.58 16.8218 114.699 16.443 114.836 16.0784C114.979 15.7081 115.132 15.3663 115.298 15.053L113.495 14.6343L116.878 13.4807C116.662 14.0561 116.494 14.6086 116.374 15.1384C116.26 15.6625 116.175 16.1296 116.118 16.5398C116.055 17.0183 116.015 17.4626 115.998 17.8728C115.998 18.4026 116.035 18.8612 116.109 19.2485C116.183 19.6302 116.286 19.9492 116.417 20.2056C116.548 20.4562 116.705 20.6442 116.887 20.7695C117.069 20.8892 117.269 20.949 117.485 20.949C117.816 20.949 118.112 20.8607 118.374 20.6841C118.636 20.5075 118.867 20.2711 119.066 19.9749C119.271 19.6729 119.445 19.3226 119.587 18.9238C119.735 18.5251 119.855 18.1035 119.946 17.6592C120.043 17.2148 120.114 16.762 120.16 16.3005C120.205 15.8391 120.231 15.3948 120.237 14.9675L118.382 13.6858H121.271ZM129.149 16.1724C129.098 15.9616 129.024 15.7821 128.927 15.634C128.836 15.4859 128.73 15.3634 128.611 15.2666C128.497 15.1641 128.374 15.0872 128.243 15.0359C128.112 14.9789 127.981 14.9362 127.85 14.9077C127.542 14.8451 127.215 14.8479 126.867 14.9163C126.748 14.9561 126.62 15.0188 126.483 15.1042C126.363 15.184 126.227 15.2922 126.073 15.429C125.919 15.56 125.754 15.7366 125.577 15.9587L125.731 20.9148L127.269 21.6838L122.74 22.0854L123.911 20.8977L124.389 14.9504L122.569 14.1216L125.509 13.5662L125.543 14.6343C125.742 14.395 125.947 14.1985 126.158 14.0447C126.369 13.8909 126.56 13.7655 126.731 13.6687C126.93 13.5605 127.124 13.4779 127.312 13.4209C127.654 13.3411 128.001 13.3098 128.354 13.3269C128.502 13.3326 128.656 13.3497 128.816 13.3782C128.981 13.4067 129.146 13.4522 129.311 13.5149C129.482 13.5719 129.647 13.6516 129.807 13.7542C129.966 13.851 130.12 13.9735 130.268 14.1216L129.149 16.1724ZM132.405 18.864C132.479 19.183 132.578 19.4963 132.704 19.804C132.829 20.1059 132.983 20.3765 133.165 20.6157C133.347 20.855 133.558 21.0487 133.797 21.1968C134.037 21.3449 134.307 21.4189 134.609 21.4189C135.008 21.4189 135.355 21.3363 135.652 21.1711C135.948 21.0059 136.19 20.798 136.378 20.5474C136.566 20.291 136.697 20.0119 136.771 19.71C136.845 19.4023 136.859 19.109 136.814 18.8298C136.973 18.8925 137.104 18.9751 137.207 19.0776C137.315 19.1802 137.398 19.2941 137.455 19.4194C137.517 19.5391 137.56 19.6644 137.583 19.7954C137.606 19.9207 137.617 20.0432 137.617 20.1628C137.617 20.4363 137.537 20.7012 137.378 20.9575C137.218 21.2082 136.993 21.4332 136.703 21.6326C136.418 21.8263 136.079 21.9829 135.686 22.1025C135.293 22.2222 134.863 22.282 134.396 22.282C133.769 22.282 133.208 22.1595 132.712 21.9146C132.222 21.6696 131.806 21.3392 131.465 20.9233C131.123 20.5018 130.861 20.009 130.678 19.4451C130.496 18.8811 130.405 18.2801 130.405 17.6421C130.405 16.9927 130.496 16.3945 130.678 15.8477C130.861 15.2951 131.128 14.8251 131.482 14.4377C131.841 14.0504 132.279 13.757 132.798 13.5576C133.316 13.3582 133.914 13.2785 134.592 13.3184C135.059 13.3525 135.489 13.4864 135.882 13.72C136.275 13.9535 136.617 14.2555 136.908 14.6257C137.204 14.9903 137.44 15.409 137.617 15.8818C137.799 16.3547 137.91 16.8474 137.95 17.3601L132.405 18.864ZM132.242 17.4883C132.242 17.568 132.242 17.6478 132.242 17.7275C132.242 17.8016 132.248 17.8785 132.259 17.9583L136.01 16.5911C135.885 16.1809 135.743 15.8306 135.583 15.54C135.429 15.2438 135.267 15.0017 135.096 14.8137C134.925 14.6257 134.752 14.489 134.575 14.4036C134.404 14.3124 134.239 14.2668 134.079 14.2668C133.84 14.2668 133.629 14.3124 133.447 14.4036C133.265 14.4947 133.105 14.62 132.969 14.7795C132.837 14.9333 132.724 15.1156 132.627 15.3264C132.536 15.5372 132.462 15.7622 132.405 16.0015C132.348 16.2407 132.305 16.4885 132.276 16.7449C132.254 16.9955 132.242 17.2433 132.242 17.4883ZM142.154 13.3013C142.371 13.3013 142.59 13.3212 142.812 13.3611C143.034 13.3953 143.251 13.4494 143.462 13.5234C143.678 13.5918 143.88 13.6772 144.068 13.7798C144.262 13.8766 144.436 13.9849 144.59 14.1045L145.991 12.3784L145.359 16.6423C145.29 16.3461 145.171 16.0556 145 15.7708C144.829 15.4802 144.615 15.221 144.359 14.9932C144.108 14.7653 143.818 14.583 143.487 14.4463C143.157 14.3039 142.795 14.2327 142.402 14.2327C142.186 14.2327 141.978 14.2583 141.778 14.3096C141.579 14.3551 141.402 14.432 141.249 14.5403C141.1 14.6485 140.981 14.7852 140.89 14.9504C140.804 15.1156 140.761 15.3122 140.761 15.54C140.761 15.8135 140.836 16.0356 140.984 16.2065C141.137 16.3774 141.337 16.5227 141.582 16.6423C141.827 16.7563 142.106 16.856 142.419 16.9414C142.733 17.0212 143.054 17.1066 143.385 17.1978C143.715 17.2889 144.037 17.3971 144.35 17.5225C144.664 17.6421 144.943 17.7987 145.188 17.9924C145.433 18.1861 145.629 18.4282 145.777 18.7188C145.931 19.0036 146.008 19.3568 146.008 19.7783C146.008 20.2511 145.914 20.6556 145.726 20.9917C145.544 21.3221 145.307 21.5955 145.017 21.812C144.726 22.0228 144.404 22.1766 144.051 22.2734C143.698 22.3703 143.353 22.4187 143.017 22.4187C142.744 22.4187 142.47 22.3902 142.197 22.3333C141.924 22.2763 141.659 22.1965 141.402 22.094C141.146 21.9915 140.901 21.869 140.667 21.7266C140.44 21.5841 140.232 21.4303 140.044 21.2651L138.745 22.9998L139.146 18.7615C139.329 19.1488 139.548 19.5106 139.804 19.8467C140.061 20.1828 140.346 20.4762 140.659 20.7268C140.972 20.9718 141.308 21.1654 141.667 21.3079C142.026 21.4446 142.399 21.5129 142.787 21.5129C143.237 21.5129 143.596 21.4189 143.863 21.231C144.137 21.0373 144.273 20.7638 144.273 20.4106C144.273 20.1828 144.197 19.9948 144.043 19.8467C143.895 19.6929 143.695 19.559 143.445 19.4451C143.2 19.3311 142.92 19.2286 142.607 19.1375C142.294 19.0463 141.972 18.9466 141.642 18.8384C141.311 18.7301 140.989 18.6048 140.676 18.4624C140.363 18.3143 140.081 18.132 139.83 17.9155C139.585 17.6934 139.386 17.4256 139.232 17.1123C139.084 16.7933 139.01 16.4088 139.01 15.9587C139.01 15.5714 139.067 15.2353 139.181 14.9504C139.295 14.6656 139.443 14.4264 139.625 14.2327C139.813 14.0333 140.021 13.8738 140.249 13.7542C140.482 13.6288 140.716 13.5348 140.949 13.4722C141.183 13.4038 141.405 13.3582 141.616 13.3354C141.827 13.3127 142.006 13.3013 142.154 13.3013Z" fill="url(#paint0_linear)"/>
</g>
<rect x="1" y="1" width="148" height="28" rx="4" stroke="url(#paint1_linear)" stroke-width="2"/>
<defs>
<linearGradient id="paint0_linear" x1="79" y1="6" x2="66" y2="121" gradientUnits="userSpaceOnUse">
<stop stop-color="#EDDD0F"/>
<stop offset="1" stop-color="#DBBA0D" stop-opacity="0"/>
</linearGradient>
<linearGradient id="paint1_linear" x1="-9" y1="-7" x2="380" y2="80" gradientUnits="userSpaceOnUse">
<stop stop-color="#F4EB11"/>
<stop offset="0.742956" stop-color="#7C0000"/>
<stop offset="0.743056" stop-color="#DD9539" stop-opacity="0"/>
</linearGradient>
<clipPath id="clip0">
</clipPath>
</defs>
</svg>
