<svg width="150" height="30" viewBox="0 0 150 30" fill="none" xmlns="http://www.w3.org/2000/svg">
<rect x="0.5" y="0.5" width="149" height="29" fill="white"/>
<path d="M24.025 10.62C24.835 10.62 25.51 10.805 26.05 11.175C26.6 11.535 26.875 11.995 26.875 12.555C26.875 13.115 26.56 13.4 25.93 13.41C25.93 12.78 25.75 12.295 25.39 11.955C25.03 11.605 24.535 11.43 23.905 11.43C22.875 11.43 22.09 11.845 21.55 12.675C21.01 13.505 20.74 14.605 20.74 15.975C20.74 18.865 21.855 20.31 24.085 20.31C25.125 20.31 26.025 20.005 26.785 19.395C26.915 19.465 26.98 19.575 26.98 19.725C26.98 20.035 26.675 20.365 26.065 20.715C25.455 21.055 24.71 21.225 23.83 21.225C22.48 21.225 21.44 20.785 20.71 19.905C19.99 19.015 19.61 17.775 19.57 16.185C19.54 14.585 19.92 13.26 20.71 12.21C21.51 11.15 22.615 10.62 24.025 10.62ZM31.2039 14.22C30.5239 14.22 29.9989 14.515 29.6289 15.105C29.2589 15.695 29.0739 16.45 29.0739 17.37C29.0739 18.28 29.2539 19.025 29.6139 19.605C29.9739 20.175 30.4939 20.46 31.1739 20.46C31.8539 20.45 32.3789 20.16 32.7489 19.59C33.1189 19.02 33.3039 18.285 33.3039 17.385C33.3039 16.475 33.1239 15.72 32.7639 15.12C32.4139 14.51 31.8939 14.21 31.2039 14.22ZM31.2939 13.44C32.0539 13.44 32.7389 13.68 33.3489 14.16C33.6689 14.42 33.9239 14.8 34.1139 15.3C34.3139 15.8 34.4139 16.4 34.4139 17.1C34.4339 18.34 34.1439 19.34 33.5439 20.1C32.9439 20.85 32.1339 21.225 31.1139 21.225C30.0939 21.225 29.3189 20.905 28.7889 20.265C28.2589 19.625 27.9839 18.7 27.9639 17.49C27.9539 16.28 28.2489 15.305 28.8489 14.565C29.4589 13.815 30.2739 13.44 31.2939 13.44ZM43.4111 21H40.6211V20.88C40.6211 20.64 40.6911 20.49 40.8311 20.43C40.9011 20.39 40.9861 20.365 41.0861 20.355L41.7461 20.325V16.44C41.7461 15.04 41.1911 14.34 40.0811 14.34C39.6711 14.34 39.3011 14.42 38.9711 14.58C38.6411 14.74 38.2661 14.995 37.8461 15.345V20.295L38.9111 20.385C38.9511 20.795 38.8161 21 38.5061 21H35.6861V20.88C35.6861 20.56 35.8461 20.385 36.1661 20.355L36.8111 20.325V14.415L36.0311 14.325C35.7911 14.305 35.6711 14.1 35.6711 13.71L37.6061 13.455L37.8011 14.595H37.8461C38.6561 13.825 39.4911 13.44 40.3511 13.44C41.0211 13.44 41.5911 13.675 42.0611 14.145C42.5411 14.615 42.7811 15.34 42.7811 16.32V20.295L43.8311 20.385C43.8711 20.795 43.7311 21 43.4111 21ZM46.6403 14.355V18.765C46.6403 19.325 46.7003 19.73 46.8203 19.98C46.9503 20.23 47.1903 20.355 47.5403 20.355C47.9003 20.355 48.2003 20.315 48.4403 20.235C48.6803 20.155 48.9753 19.975 49.3253 19.695C49.5053 19.745 49.5953 19.895 49.5953 20.145C49.5953 20.395 49.3503 20.64 48.8603 20.88C48.3803 21.12 47.9153 21.24 47.4653 21.24C46.7653 21.24 46.2803 21.04 46.0103 20.64C45.7403 20.24 45.6053 19.66 45.6053 18.9V14.355H44.5103C44.4803 13.895 44.6253 13.665 44.9453 13.665H45.6053V11.88L46.6403 11.625V13.665H49.4453C49.4753 13.995 49.4003 14.225 49.2203 14.355H46.6403ZM52.6557 14.655C52.9557 14.335 53.3257 14.055 53.7657 13.815C54.2157 13.565 54.5807 13.44 54.8607 13.44C55.1507 13.44 55.3857 13.51 55.5657 13.65C55.7457 13.78 55.8357 13.99 55.8357 14.28C55.8357 14.8 55.7507 15.155 55.5807 15.345C55.4507 15.455 55.2457 15.5 54.9657 15.48C54.9657 14.76 54.7757 14.4 54.3957 14.4C53.9157 14.4 53.3357 14.74 52.6557 15.42V20.295L53.9457 20.385C53.9857 20.795 53.8457 21 53.5257 21H50.5257V20.88C50.5257 20.64 50.5957 20.49 50.7357 20.43C50.8057 20.39 50.8907 20.365 50.9907 20.355L51.6207 20.325V14.46L50.8107 14.37C50.5907 14.35 50.4807 14.145 50.4807 13.755L52.5057 13.5L52.6107 14.655H52.6557ZM59.7244 14.22C59.0444 14.22 58.5194 14.515 58.1494 15.105C57.7794 15.695 57.5944 16.45 57.5944 17.37C57.5944 18.28 57.7744 19.025 58.1344 19.605C58.4944 20.175 59.0144 20.46 59.6944 20.46C60.3744 20.45 60.8994 20.16 61.2694 19.59C61.6394 19.02 61.8244 18.285 61.8244 17.385C61.8244 16.475 61.6444 15.72 61.2844 15.12C60.9344 14.51 60.4144 14.21 59.7244 14.22ZM59.8144 13.44C60.5744 13.44 61.2594 13.68 61.8694 14.16C62.1894 14.42 62.4444 14.8 62.6344 15.3C62.8344 15.8 62.9344 16.4 62.9344 17.1C62.9544 18.34 62.6644 19.34 62.0644 20.1C61.4644 20.85 60.6544 21.225 59.6344 21.225C58.6144 21.225 57.8394 20.905 57.3094 20.265C56.7794 19.625 56.5044 18.7 56.4844 17.49C56.4744 16.28 56.7694 15.305 57.3694 14.565C57.9794 13.815 58.7944 13.44 59.8144 13.44ZM67.0266 21H64.2066V20.88C64.2066 20.56 64.3666 20.385 64.6866 20.355L65.3316 20.325V11.52L64.5516 11.445C64.3116 11.415 64.1916 11.205 64.1916 10.815L66.3666 10.53V20.295L67.4316 20.385C67.4716 20.795 67.3366 21 67.0266 21ZM77.9123 11.25C78.2323 11.52 78.3923 11.835 78.3923 12.195C78.3923 12.555 78.2973 12.815 78.1073 12.975C77.9273 13.125 77.7073 13.195 77.4473 13.185C77.4473 12.025 76.8373 11.445 75.6173 11.445C75.0473 11.445 74.5723 11.58 74.1923 11.85C73.8223 12.12 73.6373 12.495 73.6373 12.975C73.6373 13.545 73.9123 14.005 74.4623 14.355C74.7623 14.545 75.0073 14.685 75.1973 14.775C75.3873 14.865 75.6873 15 76.0973 15.18C76.5073 15.35 76.8223 15.49 77.0423 15.6C77.2723 15.71 77.5223 15.855 77.7923 16.035C78.0623 16.205 78.2623 16.37 78.3923 16.53C78.7123 16.94 78.8723 17.415 78.8723 17.955C78.8723 18.855 78.5323 19.625 77.8523 20.265C77.1823 20.905 76.2973 21.225 75.1973 21.225C74.4073 21.225 73.7073 21.065 73.0973 20.745C72.4973 20.425 72.1973 20 72.1973 19.47C72.1973 19.21 72.2723 18.995 72.4223 18.825C72.5823 18.655 72.7973 18.57 73.0673 18.57C73.1873 19.17 73.4523 19.625 73.8623 19.935C74.2723 20.245 74.8173 20.4 75.4973 20.4C76.1773 20.4 76.7373 20.215 77.1773 19.845C77.6173 19.465 77.8373 18.965 77.8373 18.345C77.8373 17.765 77.6323 17.325 77.2223 17.025C76.9023 16.785 76.5573 16.59 76.1873 16.44C75.8273 16.28 75.5123 16.14 75.2423 16.02C74.9723 15.9 74.6973 15.77 74.4173 15.63C74.1473 15.48 73.8523 15.29 73.5323 15.06C72.9123 14.61 72.6023 14 72.6023 13.23C72.6023 12.46 72.8973 11.84 73.4873 11.37C74.0873 10.89 74.8273 10.64 75.7073 10.62C76.6373 10.6 77.3723 10.81 77.9123 11.25ZM81.7087 14.355V18.765C81.7087 19.325 81.7687 19.73 81.8887 19.98C82.0187 20.23 82.2587 20.355 82.6087 20.355C82.9687 20.355 83.2687 20.315 83.5087 20.235C83.7487 20.155 84.0437 19.975 84.3937 19.695C84.5737 19.745 84.6637 19.895 84.6637 20.145C84.6637 20.395 84.4187 20.64 83.9287 20.88C83.4487 21.12 82.9837 21.24 82.5337 21.24C81.8337 21.24 81.3487 21.04 81.0787 20.64C80.8087 20.24 80.6737 19.66 80.6737 18.9V14.355H79.5787C79.5487 13.895 79.6937 13.665 80.0137 13.665H80.6737V11.88L81.7087 11.625V13.665H84.5137C84.5437 13.995 84.4687 14.225 84.2887 14.355H81.7087ZM87.724 14.655C88.024 14.335 88.394 14.055 88.834 13.815C89.284 13.565 89.649 13.44 89.929 13.44C90.219 13.44 90.454 13.51 90.634 13.65C90.814 13.78 90.904 13.99 90.904 14.28C90.904 14.8 90.819 15.155 90.649 15.345C90.519 15.455 90.314 15.5 90.034 15.48C90.034 14.76 89.844 14.4 89.464 14.4C88.984 14.4 88.404 14.74 87.724 15.42V20.295L89.014 20.385C89.054 20.795 88.914 21 88.594 21H85.594V20.88C85.594 20.64 85.664 20.49 85.804 20.43C85.874 20.39 85.959 20.365 86.059 20.355L86.689 20.325V14.46L85.879 14.37C85.659 14.35 85.549 14.145 85.549 13.755L87.574 13.5L87.679 14.655H87.724ZM91.2078 14.1C91.2078 13.81 91.3478 13.665 91.6278 13.665H93.3828V18.09C93.3828 18.83 93.5378 19.39 93.8478 19.77C94.1578 20.14 94.6178 20.325 95.2278 20.325C95.8478 20.325 96.4728 20.05 97.1028 19.5V14.37L95.9478 14.295C95.9078 13.875 96.0428 13.665 96.3528 13.665H98.1378V20.145L98.8728 20.22C99.1028 20.24 99.2178 20.455 99.2178 20.865L97.4028 21.015L97.2078 20.22C96.5378 20.89 95.7728 21.225 94.9128 21.225C94.2228 21.225 93.6228 20.98 93.1128 20.49C92.6028 20 92.3478 19.23 92.3478 18.18V14.37L91.2078 14.295V14.1ZM103.677 13.44C104.317 13.44 104.822 13.57 105.192 13.83C105.572 14.09 105.762 14.435 105.762 14.865C105.762 15.415 105.482 15.68 104.922 15.66C104.912 15.29 104.782 14.965 104.532 14.685C104.292 14.395 103.927 14.25 103.437 14.25C102.727 14.25 102.182 14.545 101.802 15.135C101.432 15.725 101.247 16.47 101.247 17.37C101.247 18.16 101.402 18.84 101.712 19.41C102.072 20.04 102.692 20.355 103.572 20.355C104.292 20.355 104.977 20.09 105.627 19.56C105.757 19.65 105.822 19.77 105.822 19.92C105.822 20.22 105.537 20.515 104.967 20.805C104.397 21.085 103.787 21.225 103.137 21.225C102.187 21.225 101.452 20.895 100.932 20.235C100.422 19.575 100.157 18.675 100.137 17.535C100.117 16.385 100.422 15.415 101.052 14.625C101.682 13.835 102.557 13.44 103.677 13.44ZM108.779 14.355V18.765C108.779 19.325 108.839 19.73 108.959 19.98C109.089 20.23 109.329 20.355 109.679 20.355C110.039 20.355 110.339 20.315 110.579 20.235C110.819 20.155 111.114 19.975 111.464 19.695C111.644 19.745 111.734 19.895 111.734 20.145C111.734 20.395 111.489 20.64 110.999 20.88C110.519 21.12 110.054 21.24 109.604 21.24C108.904 21.24 108.419 21.04 108.149 20.64C107.879 20.24 107.744 19.66 107.744 18.9V14.355H106.649C106.619 13.895 106.764 13.665 107.084 13.665H107.744V11.88L108.779 11.625V13.665H111.584C111.614 13.995 111.539 14.225 111.359 14.355H108.779ZM112.184 14.1C112.184 13.81 112.324 13.665 112.604 13.665H114.359V18.09C114.359 18.83 114.514 19.39 114.824 19.77C115.134 20.14 115.594 20.325 116.204 20.325C116.824 20.325 117.449 20.05 118.079 19.5V14.37L116.924 14.295C116.884 13.875 117.019 13.665 117.329 13.665H119.114V20.145L119.849 20.22C120.079 20.24 120.194 20.455 120.194 20.865L118.379 21.015L118.184 20.22C117.514 20.89 116.749 21.225 115.889 21.225C115.199 21.225 114.599 20.98 114.089 20.49C113.579 20 113.324 19.23 113.324 18.18V14.37L112.184 14.295V14.1ZM123.378 14.655C123.678 14.335 124.048 14.055 124.488 13.815C124.938 13.565 125.303 13.44 125.583 13.44C125.873 13.44 126.108 13.51 126.288 13.65C126.468 13.78 126.558 13.99 126.558 14.28C126.558 14.8 126.473 15.155 126.303 15.345C126.173 15.455 125.968 15.5 125.688 15.48C125.688 14.76 125.498 14.4 125.118 14.4C124.638 14.4 124.058 14.74 123.378 15.42V20.295L124.668 20.385C124.708 20.795 124.568 21 124.248 21H121.248V20.88C121.248 20.64 121.318 20.49 121.458 20.43C121.528 20.39 121.613 20.365 121.713 20.355L122.343 20.325V14.46L121.533 14.37C121.313 14.35 121.203 14.145 121.203 13.755L123.228 13.5L123.333 14.655H123.378ZM133.072 17.055H128.362C128.352 17.155 128.347 17.31 128.347 17.52C128.347 18.37 128.527 19.06 128.887 19.59C129.247 20.11 129.807 20.37 130.567 20.37C131.327 20.37 132.052 20.1 132.742 19.56C132.862 19.66 132.922 19.785 132.922 19.935C132.922 20.215 132.647 20.5 132.097 20.79C131.557 21.08 130.947 21.225 130.267 21.225C129.337 21.225 128.592 20.92 128.032 20.31C127.482 19.7 127.207 18.77 127.207 17.52C127.207 16.27 127.537 15.28 128.197 14.55C128.857 13.81 129.637 13.44 130.537 13.44C131.437 13.44 132.087 13.725 132.487 14.295C132.887 14.865 133.082 15.545 133.072 16.335V17.055ZM131.977 16.38C131.977 15.71 131.847 15.18 131.587 14.79C131.327 14.39 130.947 14.19 130.447 14.19C129.957 14.19 129.537 14.385 129.187 14.775C128.837 15.165 128.592 15.7 128.452 16.38H131.977ZM134.151 15.54C134.161 14.89 134.426 14.375 134.946 13.995C135.466 13.615 136.031 13.43 136.641 13.44C137.261 13.45 137.771 13.56 138.171 13.77C138.571 13.97 138.766 14.27 138.756 14.67C138.746 14.94 138.651 15.135 138.471 15.255C138.291 15.375 138.096 15.425 137.886 15.405C137.896 15.055 137.786 14.77 137.556 14.55C137.336 14.33 137.011 14.215 136.581 14.205C136.151 14.195 135.791 14.295 135.501 14.505C135.221 14.705 135.076 14.965 135.066 15.285C135.056 15.605 135.196 15.865 135.486 16.065C135.786 16.255 136.206 16.455 136.746 16.665C137.286 16.875 137.651 17.03 137.841 17.13C138.041 17.22 138.256 17.345 138.486 17.505C138.916 17.805 139.121 18.26 139.101 18.87C139.091 19.48 138.826 20.03 138.306 20.52C137.786 21 137.091 21.235 136.221 21.225C135.601 21.205 135.056 21.075 134.586 20.835C134.116 20.585 133.881 20.245 133.881 19.815C133.891 19.585 133.966 19.405 134.106 19.275C134.256 19.135 134.436 19.07 134.646 19.08C134.726 19.49 134.926 19.82 135.246 20.07C135.576 20.32 135.981 20.45 136.461 20.46C136.941 20.46 137.341 20.35 137.661 20.13C137.981 19.9 138.146 19.6 138.156 19.23C138.166 18.86 138.051 18.58 137.811 18.39C137.581 18.2 137.246 18.025 136.806 17.865C136.366 17.695 136.056 17.575 135.876 17.505C135.706 17.435 135.491 17.33 135.231 17.19C134.981 17.05 134.786 16.91 134.646 16.77C134.316 16.42 134.151 16.01 134.151 15.54Z" fill="#7C0000"/>
<rect x="0.5" y="0.5" width="149" height="29" stroke="url(#paint0_linear)"/>
<defs>
<linearGradient id="paint0_linear" x1="70" y1="-4.99999" x2="95" y2="70.5" gradientUnits="userSpaceOnUse">
<stop stop-color="#DD9539"/>
<stop offset="0.742956" stop-color="#7C0000"/>
<stop offset="0.743056" stop-color="#DD9539" stop-opacity="0"/>
</linearGradient>
</defs>
</svg>
