<svg width="150" height="30" viewBox="0 0 150 30" fill="none" xmlns="http://www.w3.org/2000/svg">
<path d="M15.2656 9.07031C15.7969 9.07031 16.3047 9.16406 16.7891 9.35156C17.2734 9.53385 17.6771 9.80208 18 10.1562L19.9062 8.64062L17.7266 13.3125L17.5391 11.0391C17.3672 10.8307 17.1849 10.6667 16.9922 10.5469C16.7995 10.4271 16.612 10.3385 16.4297 10.2812C16.2526 10.2188 16.0911 10.1797 15.9453 10.1641C15.8047 10.1484 15.6953 10.1406 15.6172 10.1406C15.1953 10.1406 14.8021 10.2474 14.4375 10.4609C14.0781 10.6745 13.7656 10.9818 13.5 11.3828C13.2344 11.7786 13.0234 12.2578 12.8672 12.8203C12.7161 13.3828 12.6406 14.0104 12.6406 14.7031C12.6406 15.3958 12.7161 16.0286 12.8672 16.6016C13.0234 17.1745 13.2318 17.6667 13.4922 18.0781C13.7578 18.4896 14.0677 18.8099 14.4219 19.0391C14.776 19.263 15.1536 19.375 15.5547 19.375C15.9609 19.375 16.3099 19.276 16.6016 19.0781C16.8932 18.875 17.1328 18.6198 17.3203 18.3125C17.5078 18.0052 17.6432 17.6693 17.7266 17.3047C17.8151 16.9401 17.8594 16.5911 17.8594 16.2578C17.8594 16.1849 17.8594 16.1172 17.8594 16.0547C17.8594 15.987 17.8542 15.9167 17.8438 15.8438C18.1823 16.0677 18.4297 16.3229 18.5859 16.6094C18.7474 16.8906 18.8281 17.1823 18.8281 17.4844C18.8281 17.7656 18.7578 18.0651 18.6172 18.3828C18.4818 18.6953 18.2786 18.987 18.0078 19.2578C17.737 19.5234 17.4036 19.7448 17.0078 19.9219C16.612 20.0938 16.1536 20.1797 15.6328 20.1797C15.2109 20.1797 14.7917 20.1354 14.375 20.0469C13.9583 19.9583 13.5599 19.8229 13.1797 19.6406C12.7995 19.4531 12.4453 19.2161 12.1172 18.9297C11.7891 18.6432 11.5052 18.3021 11.2656 17.9062C11.026 17.5104 10.8359 17.0547 10.6953 16.5391C10.5599 16.0234 10.4922 15.4479 10.4922 14.8125C10.4922 14.1927 10.5547 13.6224 10.6797 13.1016C10.8099 12.5755 10.987 12.1016 11.2109 11.6797C11.4401 11.2526 11.7057 10.8776 12.0078 10.5547C12.3151 10.2266 12.6432 9.95312 12.9922 9.73438C13.3464 9.51562 13.7161 9.35156 14.1016 9.24219C14.4922 9.1276 14.8802 9.07031 15.2656 9.07031ZM19.7891 16.0781C19.7891 15.4948 19.8802 14.9557 20.0625 14.4609C20.25 13.9609 20.5078 13.5286 20.8359 13.1641C21.1693 12.7995 21.5625 12.5156 22.0156 12.3125C22.474 12.1042 22.974 12 23.5156 12C24.0417 12 24.5234 12.099 24.9609 12.2969C25.3984 12.4896 25.7786 12.763 26.1016 13.1172C26.4245 13.4714 26.6823 13.8958 26.875 14.3906C27.0677 14.8854 27.1823 15.4323 27.2188 16.0312C27.2552 16.6719 27.1875 17.2526 27.0156 17.7734C26.849 18.2891 26.6016 18.7292 26.2734 19.0938C25.9453 19.4531 25.5521 19.7318 25.0938 19.9297C24.6406 20.1276 24.1484 20.2266 23.6172 20.2266C23.1068 20.2266 22.6198 20.1354 22.1562 19.9531C21.6979 19.7656 21.2917 19.4948 20.9375 19.1406C20.5885 18.7865 20.3099 18.3542 20.1016 17.8438C19.8932 17.3281 19.7891 16.7396 19.7891 16.0781ZM21.7109 16.2109C21.7109 16.6693 21.776 17.0833 21.9062 17.4531C22.0365 17.8229 22.2109 18.138 22.4297 18.3984C22.6484 18.6536 22.901 18.8516 23.1875 18.9922C23.474 19.1328 23.776 19.2031 24.0938 19.2031C24.4115 19.2031 24.7083 19.1354 24.9844 19C25.2604 18.8594 25.5 18.6641 25.7031 18.4141C25.9062 18.1589 26.0651 17.8542 26.1797 17.5C26.2943 17.1458 26.3516 16.7526 26.3516 16.3203C26.3516 15.8932 26.2943 15.4922 26.1797 15.1172C26.0651 14.737 25.9036 14.4062 25.6953 14.125C25.4922 13.8438 25.25 13.6224 24.9688 13.4609C24.6875 13.2995 24.3802 13.2188 24.0469 13.2188C23.75 13.2188 23.4609 13.2865 23.1797 13.4219C22.9036 13.5573 22.6562 13.7552 22.4375 14.0156C22.2188 14.2708 22.0417 14.5833 21.9062 14.9531C21.776 15.3229 21.7109 15.7422 21.7109 16.2109ZM35.2422 15.1484C35.2422 15.4401 35.2292 15.7474 35.2031 16.0703C35.1771 16.3932 35.138 16.7161 35.0859 17.0391C35.0339 17.362 34.9688 17.6771 34.8906 17.9844C34.8177 18.2917 34.7318 18.5729 34.6328 18.8281L36.1719 19.3281L32.1016 20.125L33.4844 19.0859C33.5938 18.6849 33.6667 18.2995 33.7031 17.9297C33.7448 17.5599 33.7656 17.2109 33.7656 16.8828C33.7656 16.6849 33.7578 16.4609 33.7422 16.2109C33.7318 15.9557 33.7031 15.6979 33.6562 15.4375C33.6146 15.1771 33.5521 14.9219 33.4688 14.6719C33.3906 14.4219 33.2865 14.2005 33.1562 14.0078C33.026 13.8099 32.8646 13.6536 32.6719 13.5391C32.4844 13.4193 32.2578 13.3594 31.9922 13.3594C31.6849 13.3594 31.3724 13.4609 31.0547 13.6641C30.737 13.8672 30.4427 14.1667 30.1719 14.5625V18.8828L31.4609 19.8047L27.5938 20.0781L28.6172 18.9453L29.1641 13.2656L27.5 12.4453L30.1719 12.1797V13.3594C30.3229 13.151 30.4896 12.9557 30.6719 12.7734C30.8542 12.5911 31.0469 12.4349 31.25 12.3047C31.4531 12.1693 31.6641 12.0651 31.8828 11.9922C32.1068 11.9141 32.3359 11.875 32.5703 11.875C33.0234 11.875 33.4167 11.9583 33.75 12.125C34.0833 12.2917 34.3594 12.5234 34.5781 12.8203C34.8021 13.112 34.9688 13.4583 35.0781 13.8594C35.1875 14.2552 35.2422 14.6849 35.2422 15.1484ZM37.0859 16.5781C37.0859 16.0885 37.1354 15.6016 37.2344 15.1172C37.3385 14.6276 37.4505 14.1797 37.5703 13.7734L36.2188 13.8594L40.0312 9.69531C39.7292 10.6484 39.4844 11.5078 39.2969 12.2734L42.3359 12.5312L41.9375 13.4688L38.9922 13.6797C38.9193 14.0599 38.862 14.3984 38.8203 14.6953C38.7839 14.987 38.7526 15.2344 38.7266 15.4375C38.7005 15.6771 38.6823 15.8854 38.6719 16.0625C38.6719 16.5833 38.7031 17.0521 38.7656 17.4688C38.8281 17.8854 38.9245 18.2422 39.0547 18.5391C39.1901 18.8307 39.3594 19.0573 39.5625 19.2188C39.7708 19.375 40.0182 19.4531 40.3047 19.4531C40.5703 19.4531 40.7917 19.401 40.9688 19.2969C41.151 19.1875 41.2969 19.0495 41.4062 18.8828C41.5156 18.7109 41.5938 18.5208 41.6406 18.3125C41.6875 18.099 41.7109 17.888 41.7109 17.6797C41.7109 17.487 41.6953 17.2995 41.6641 17.1172C41.888 17.2318 42.0573 17.4167 42.1719 17.6719C42.2917 17.9219 42.3516 18.1953 42.3516 18.4922C42.3516 18.7995 42.2995 19.0703 42.1953 19.3047C42.0964 19.5391 41.9583 19.737 41.7812 19.8984C41.6042 20.0547 41.3958 20.1745 41.1562 20.2578C40.9167 20.3411 40.6589 20.3828 40.3828 20.3828C40.2161 20.3828 40.0182 20.3646 39.7891 20.3281C39.5651 20.2917 39.3307 20.224 39.0859 20.125C38.8411 20.0312 38.599 19.8958 38.3594 19.7188C38.1198 19.5417 37.9062 19.3125 37.7188 19.0312C37.5312 18.75 37.3776 18.4089 37.2578 18.0078C37.1432 17.6016 37.0859 17.125 37.0859 16.5781ZM48.2812 14.6719C48.2344 14.4792 48.1667 14.3151 48.0781 14.1797C47.9948 14.0443 47.8984 13.9323 47.7891 13.8438C47.6849 13.75 47.5729 13.6797 47.4531 13.6328C47.3333 13.5807 47.2135 13.5417 47.0938 13.5156C46.8125 13.4583 46.513 13.4609 46.1953 13.5234C46.0859 13.5599 45.9688 13.6172 45.8438 13.6953C45.7344 13.7682 45.6094 13.8672 45.4688 13.9922C45.3281 14.112 45.1771 14.2734 45.0156 14.4766L45.1562 19.0078L46.5625 19.7109L42.4219 20.0781L43.4922 18.9922L43.9297 13.5547L42.2656 12.7969L44.9531 12.2891L44.9844 13.2656C45.1667 13.0469 45.3542 12.8672 45.5469 12.7266C45.7396 12.5859 45.9141 12.4714 46.0703 12.3828C46.2526 12.2839 46.4297 12.2083 46.6016 12.1562C46.9141 12.0833 47.2318 12.0547 47.5547 12.0703C47.6901 12.0755 47.8307 12.0911 47.9766 12.1172C48.1276 12.1432 48.2786 12.1849 48.4297 12.2422C48.5859 12.2943 48.737 12.3672 48.8828 12.4609C49.0286 12.5495 49.1693 12.6615 49.3047 12.7969L48.2812 14.6719ZM49.4141 16.0781C49.4141 15.4948 49.5052 14.9557 49.6875 14.4609C49.875 13.9609 50.1328 13.5286 50.4609 13.1641C50.7943 12.7995 51.1875 12.5156 51.6406 12.3125C52.099 12.1042 52.599 12 53.1406 12C53.6667 12 54.1484 12.099 54.5859 12.2969C55.0234 12.4896 55.4036 12.763 55.7266 13.1172C56.0495 13.4714 56.3073 13.8958 56.5 14.3906C56.6927 14.8854 56.8073 15.4323 56.8438 16.0312C56.8802 16.6719 56.8125 17.2526 56.6406 17.7734C56.474 18.2891 56.2266 18.7292 55.8984 19.0938C55.5703 19.4531 55.1771 19.7318 54.7188 19.9297C54.2656 20.1276 53.7734 20.2266 53.2422 20.2266C52.7318 20.2266 52.2448 20.1354 51.7812 19.9531C51.3229 19.7656 50.9167 19.4948 50.5625 19.1406C50.2135 18.7865 49.9349 18.3542 49.7266 17.8438C49.5182 17.3281 49.4141 16.7396 49.4141 16.0781ZM51.3359 16.2109C51.3359 16.6693 51.401 17.0833 51.5312 17.4531C51.6615 17.8229 51.8359 18.138 52.0547 18.3984C52.2734 18.6536 52.526 18.8516 52.8125 18.9922C53.099 19.1328 53.401 19.2031 53.7188 19.2031C54.0365 19.2031 54.3333 19.1354 54.6094 19C54.8854 18.8594 55.125 18.6641 55.3281 18.4141C55.5312 18.1589 55.6901 17.8542 55.8047 17.5C55.9193 17.1458 55.9766 16.7526 55.9766 16.3203C55.9766 15.8932 55.9193 15.4922 55.8047 15.1172C55.6901 14.737 55.5286 14.4062 55.3203 14.125C55.1172 13.8438 54.875 13.6224 54.5938 13.4609C54.3125 13.2995 54.0052 13.2188 53.6719 13.2188C53.375 13.2188 53.0859 13.2865 52.8047 13.4219C52.5286 13.5573 52.2812 13.7552 52.0625 14.0156C51.8438 14.2708 51.6667 14.5833 51.5312 14.9531C51.401 15.3229 51.3359 15.7422 51.3359 16.2109ZM59.5078 19.0234L61.0703 19.6484L57.1562 20.0312L58.5625 18.9297L58.3203 10.4922L56.5156 9.71094L60.4688 9.1875L59.5078 19.0234ZM69.5234 9.42188C69.8776 9.42188 70.2161 9.45573 70.5391 9.52344C70.8672 9.58594 71.1719 9.67188 71.4531 9.78125C71.7344 9.88542 71.9896 10.0052 72.2188 10.1406C72.4479 10.276 72.6432 10.4115 72.8047 10.5469L74.8359 9.14844L72.5 13.6328L72.3203 11.2812C72.1693 11.1771 72.0052 11.0859 71.8281 11.0078C71.6562 10.9245 71.4818 10.8568 71.3047 10.8047C71.1328 10.7474 70.9661 10.7031 70.8047 10.6719C70.6432 10.6354 70.5 10.6068 70.375 10.5859C70.25 10.5651 70.1484 10.5521 70.0703 10.5469C69.9974 10.5365 69.9583 10.5312 69.9531 10.5312C69.599 10.5312 69.3021 10.5703 69.0625 10.6484C68.8229 10.7266 68.6276 10.8281 68.4766 10.9531C68.3307 11.0781 68.224 11.2214 68.1562 11.3828C68.0938 11.5391 68.0625 11.6979 68.0625 11.8594C68.0625 12.1875 68.1302 12.4661 68.2656 12.6953C68.401 12.9193 68.6068 13.1198 68.8828 13.2969C69.1589 13.474 69.5104 13.6406 69.9375 13.7969C70.3646 13.9479 70.8672 14.112 71.4453 14.2891C71.7943 14.3984 72.1224 14.5469 72.4297 14.7344C72.7422 14.9167 73.013 15.1328 73.2422 15.3828C73.4714 15.6276 73.651 15.9036 73.7812 16.2109C73.9167 16.513 73.9844 16.8385 73.9844 17.1875C73.9844 17.5938 73.9271 17.9557 73.8125 18.2734C73.6979 18.5859 73.5443 18.862 73.3516 19.1016C73.1641 19.3359 72.9453 19.5365 72.6953 19.7031C72.4453 19.8646 72.1849 19.9948 71.9141 20.0938C71.6484 20.1979 71.3776 20.2708 71.1016 20.3125C70.8307 20.3594 70.5755 20.3828 70.3359 20.3828C69.6328 20.3828 68.9948 20.263 68.4219 20.0234C67.849 19.7839 67.3151 19.4557 66.8203 19.0391L64.7891 20.4297L67.0547 16.4141C67.1172 16.7891 67.2266 17.151 67.3828 17.5C67.5443 17.8438 67.7422 18.151 67.9766 18.4219C68.2109 18.6927 68.4818 18.9089 68.7891 19.0703C69.0964 19.2318 69.4323 19.3125 69.7969 19.3125C70.0885 19.3125 70.3542 19.2682 70.5938 19.1797C70.8385 19.0911 71.0469 18.974 71.2188 18.8281C71.3906 18.6771 71.5234 18.5052 71.6172 18.3125C71.7161 18.1146 71.7656 17.9089 71.7656 17.6953C71.7656 17.3984 71.6823 17.1432 71.5156 16.9297C71.349 16.7109 71.1302 16.5182 70.8594 16.3516C70.5885 16.1797 70.2786 16.0234 69.9297 15.8828C69.5859 15.737 69.2318 15.5885 68.8672 15.4375C68.5026 15.2865 68.1458 15.1198 67.7969 14.9375C67.4531 14.7552 67.1458 14.5417 66.875 14.2969C66.6042 14.0469 66.3854 13.7552 66.2188 13.4219C66.0521 13.0885 65.9688 12.6953 65.9688 12.2422C65.9688 11.8932 66.0365 11.5521 66.1719 11.2188C66.3125 10.8802 66.526 10.5781 66.8125 10.3125C67.1042 10.0469 67.474 9.83333 67.9219 9.67188C68.3698 9.50521 68.9036 9.42188 69.5234 9.42188ZM75.4141 16.5781C75.4141 16.0885 75.4635 15.6016 75.5625 15.1172C75.6667 14.6276 75.7786 14.1797 75.8984 13.7734L74.5469 13.8594L78.3594 9.69531C78.0573 10.6484 77.8125 11.5078 77.625 12.2734L80.6641 12.5312L80.2656 13.4688L77.3203 13.6797C77.2474 14.0599 77.1901 14.3984 77.1484 14.6953C77.112 14.987 77.0807 15.2344 77.0547 15.4375C77.0286 15.6771 77.0104 15.8854 77 16.0625C77 16.5833 77.0312 17.0521 77.0938 17.4688C77.1562 17.8854 77.2526 18.2422 77.3828 18.5391C77.5182 18.8307 77.6875 19.0573 77.8906 19.2188C78.099 19.375 78.3464 19.4531 78.6328 19.4531C78.8984 19.4531 79.1198 19.401 79.2969 19.2969C79.4792 19.1875 79.625 19.0495 79.7344 18.8828C79.8438 18.7109 79.9219 18.5208 79.9688 18.3125C80.0156 18.099 80.0391 17.888 80.0391 17.6797C80.0391 17.487 80.0234 17.2995 79.9922 17.1172C80.2161 17.2318 80.3854 17.4167 80.5 17.6719C80.6198 17.9219 80.6797 18.1953 80.6797 18.4922C80.6797 18.7995 80.6276 19.0703 80.5234 19.3047C80.4245 19.5391 80.2865 19.737 80.1094 19.8984C79.9323 20.0547 79.724 20.1745 79.4844 20.2578C79.2448 20.3411 78.987 20.3828 78.7109 20.3828C78.5443 20.3828 78.3464 20.3646 78.1172 20.3281C77.8932 20.2917 77.6589 20.224 77.4141 20.125C77.1693 20.0312 76.9271 19.8958 76.6875 19.7188C76.4479 19.5417 76.2344 19.3125 76.0469 19.0312C75.8594 18.75 75.7057 18.4089 75.5859 18.0078C75.4714 17.6016 75.4141 17.125 75.4141 16.5781ZM86.6094 14.6719C86.5625 14.4792 86.4948 14.3151 86.4062 14.1797C86.3229 14.0443 86.2266 13.9323 86.1172 13.8438C86.013 13.75 85.901 13.6797 85.7812 13.6328C85.6615 13.5807 85.5417 13.5417 85.4219 13.5156C85.1406 13.4583 84.8411 13.4609 84.5234 13.5234C84.4141 13.5599 84.2969 13.6172 84.1719 13.6953C84.0625 13.7682 83.9375 13.8672 83.7969 13.9922C83.6562 14.112 83.5052 14.2734 83.3438 14.4766L83.4844 19.0078L84.8906 19.7109L80.75 20.0781L81.8203 18.9922L82.2578 13.5547L80.5938 12.7969L83.2812 12.2891L83.3125 13.2656C83.4948 13.0469 83.6823 12.8672 83.875 12.7266C84.0677 12.5859 84.2422 12.4714 84.3984 12.3828C84.5807 12.2839 84.7578 12.2083 84.9297 12.1562C85.2422 12.0833 85.5599 12.0547 85.8828 12.0703C86.0182 12.0755 86.1589 12.0911 86.3047 12.1172C86.4557 12.1432 86.6068 12.1849 86.7578 12.2422C86.9141 12.2943 87.0651 12.3672 87.2109 12.4609C87.3568 12.5495 87.4974 12.6615 87.6328 12.7969L86.6094 14.6719ZM94.5938 12.3984L94.8984 19.1172L96.3047 19.7734L93.1016 20.3672L93.25 18.0781C93.1042 18.3854 92.9375 18.6797 92.75 18.9609C92.5625 19.237 92.3516 19.4818 92.1172 19.6953C91.8828 19.9036 91.625 20.0703 91.3438 20.1953C91.0677 20.3203 90.7682 20.3828 90.4453 20.3828C90.0599 20.3828 89.7214 20.3151 89.4297 20.1797C89.138 20.0443 88.8932 19.8594 88.6953 19.625C88.4974 19.3854 88.3464 19.1068 88.2422 18.7891C88.1432 18.4661 88.0938 18.1224 88.0938 17.7578C88.0938 17.4193 88.1198 17.0677 88.1719 16.7031C88.224 16.3385 88.2943 15.9792 88.3828 15.625C88.4766 15.2656 88.5859 14.9193 88.7109 14.5859C88.8411 14.2474 88.9818 13.9349 89.1328 13.6484L87.4844 13.2656L90.5781 12.2109C90.3802 12.737 90.2266 13.2422 90.1172 13.7266C90.013 14.2057 89.9349 14.6328 89.8828 15.0078C89.8255 15.4453 89.7891 15.8516 89.7734 16.2266C89.7734 16.7109 89.8073 17.1302 89.875 17.4844C89.9427 17.8333 90.0365 18.125 90.1562 18.3594C90.276 18.5885 90.4193 18.7604 90.5859 18.875C90.7526 18.9844 90.9349 19.0391 91.1328 19.0391C91.4349 19.0391 91.7057 18.9583 91.9453 18.7969C92.1849 18.6354 92.3958 18.4193 92.5781 18.1484C92.7656 17.8724 92.9245 17.5521 93.0547 17.1875C93.1901 16.8229 93.2995 16.4375 93.3828 16.0312C93.4714 15.625 93.5365 15.2109 93.5781 14.7891C93.6198 14.3672 93.6432 13.9609 93.6484 13.5703L91.9531 12.3984H94.5938ZM100.094 12.1953C100.531 12.1953 100.927 12.2917 101.281 12.4844C101.641 12.6719 101.93 12.9271 102.148 13.25L103.727 11.6484L102.43 15.875C102.383 15.4375 102.31 15.0677 102.211 14.7656C102.112 14.4583 101.997 14.2057 101.867 14.0078C101.742 13.8047 101.609 13.6484 101.469 13.5391C101.333 13.4297 101.206 13.349 101.086 13.2969C100.971 13.2448 100.87 13.2135 100.781 13.2031C100.698 13.1927 100.646 13.1875 100.625 13.1875C100.25 13.1875 99.9115 13.2604 99.6094 13.4062C99.3073 13.5521 99.0469 13.7656 98.8281 14.0469C98.6146 14.3281 98.4505 14.6745 98.3359 15.0859C98.2214 15.4922 98.1641 15.9557 98.1641 16.4766C98.1641 16.9766 98.224 17.4193 98.3438 17.8047C98.4635 18.1849 98.6224 18.5052 98.8203 18.7656C99.0182 19.026 99.2448 19.224 99.5 19.3594C99.7552 19.4896 100.018 19.5547 100.289 19.5547C100.607 19.5547 100.901 19.4844 101.172 19.3438C101.443 19.1979 101.674 19.0078 101.867 18.7734C102.06 18.5391 102.203 18.2708 102.297 17.9688C102.396 17.6615 102.43 17.3464 102.398 17.0234C102.461 17.0807 102.526 17.151 102.594 17.2344C102.667 17.3177 102.732 17.4115 102.789 17.5156C102.852 17.6146 102.901 17.724 102.938 17.8438C102.974 17.9583 102.992 18.0755 102.992 18.1953C102.992 18.5495 102.906 18.8698 102.734 19.1562C102.568 19.4375 102.352 19.6771 102.086 19.875C101.82 20.0729 101.521 20.224 101.188 20.3281C100.854 20.4375 100.523 20.4922 100.195 20.4922C100.055 20.4922 99.862 20.4766 99.6172 20.4453C99.3776 20.4141 99.1146 20.349 98.8281 20.25C98.5469 20.1562 98.2604 20.0182 97.9688 19.8359C97.6771 19.6536 97.4115 19.4115 97.1719 19.1094C96.9375 18.8073 96.7448 18.4349 96.5938 17.9922C96.4427 17.5495 96.3672 17.0182 96.3672 16.3984C96.3672 15.8464 96.4297 15.3594 96.5547 14.9375C96.6849 14.5104 96.8542 14.1406 97.0625 13.8281C97.276 13.5156 97.5156 13.2552 97.7812 13.0469C98.0469 12.8385 98.3177 12.6719 98.5938 12.5469C98.8698 12.4219 99.138 12.3333 99.3984 12.2812C99.6641 12.224 99.8958 12.1953 100.094 12.1953ZM104.68 16.5781C104.68 16.0885 104.729 15.6016 104.828 15.1172C104.932 14.6276 105.044 14.1797 105.164 13.7734L103.812 13.8594L107.625 9.69531C107.323 10.6484 107.078 11.5078 106.891 12.2734L109.93 12.5312L109.531 13.4688L106.586 13.6797C106.513 14.0599 106.456 14.3984 106.414 14.6953C106.378 14.987 106.346 15.2344 106.32 15.4375C106.294 15.6771 106.276 15.8854 106.266 16.0625C106.266 16.5833 106.297 17.0521 106.359 17.4688C106.422 17.8854 106.518 18.2422 106.648 18.5391C106.784 18.8307 106.953 19.0573 107.156 19.2188C107.365 19.375 107.612 19.4531 107.898 19.4531C108.164 19.4531 108.385 19.401 108.562 19.2969C108.745 19.1875 108.891 19.0495 109 18.8828C109.109 18.7109 109.188 18.5208 109.234 18.3125C109.281 18.099 109.305 17.888 109.305 17.6797C109.305 17.487 109.289 17.2995 109.258 17.1172C109.482 17.2318 109.651 17.4167 109.766 17.6719C109.885 17.9219 109.945 18.1953 109.945 18.4922C109.945 18.7995 109.893 19.0703 109.789 19.3047C109.69 19.5391 109.552 19.737 109.375 19.8984C109.198 20.0547 108.99 20.1745 108.75 20.2578C108.51 20.3411 108.253 20.3828 107.977 20.3828C107.81 20.3828 107.612 20.3646 107.383 20.3281C107.159 20.2917 106.924 20.224 106.68 20.125C106.435 20.0312 106.193 19.8958 105.953 19.7188C105.714 19.5417 105.5 19.3125 105.312 19.0312C105.125 18.75 104.971 18.4089 104.852 18.0078C104.737 17.6016 104.68 17.125 104.68 16.5781ZM117.219 12.3984L117.523 19.1172L118.93 19.7734L115.727 20.3672L115.875 18.0781C115.729 18.3854 115.562 18.6797 115.375 18.9609C115.188 19.237 114.977 19.4818 114.742 19.6953C114.508 19.9036 114.25 20.0703 113.969 20.1953C113.693 20.3203 113.393 20.3828 113.07 20.3828C112.685 20.3828 112.346 20.3151 112.055 20.1797C111.763 20.0443 111.518 19.8594 111.32 19.625C111.122 19.3854 110.971 19.1068 110.867 18.7891C110.768 18.4661 110.719 18.1224 110.719 17.7578C110.719 17.4193 110.745 17.0677 110.797 16.7031C110.849 16.3385 110.919 15.9792 111.008 15.625C111.102 15.2656 111.211 14.9193 111.336 14.5859C111.466 14.2474 111.607 13.9349 111.758 13.6484L110.109 13.2656L113.203 12.2109C113.005 12.737 112.852 13.2422 112.742 13.7266C112.638 14.2057 112.56 14.6328 112.508 15.0078C112.451 15.4453 112.414 15.8516 112.398 16.2266C112.398 16.7109 112.432 17.1302 112.5 17.4844C112.568 17.8333 112.661 18.125 112.781 18.3594C112.901 18.5885 113.044 18.7604 113.211 18.875C113.378 18.9844 113.56 19.0391 113.758 19.0391C114.06 19.0391 114.331 18.9583 114.57 18.7969C114.81 18.6354 115.021 18.4193 115.203 18.1484C115.391 17.8724 115.549 17.5521 115.68 17.1875C115.815 16.8229 115.924 16.4375 116.008 16.0312C116.096 15.625 116.161 15.2109 116.203 14.7891C116.245 14.3672 116.268 13.9609 116.273 13.5703L114.578 12.3984H117.219ZM124.422 14.6719C124.375 14.4792 124.307 14.3151 124.219 14.1797C124.135 14.0443 124.039 13.9323 123.93 13.8438C123.826 13.75 123.714 13.6797 123.594 13.6328C123.474 13.5807 123.354 13.5417 123.234 13.5156C122.953 13.4583 122.654 13.4609 122.336 13.5234C122.227 13.5599 122.109 13.6172 121.984 13.6953C121.875 13.7682 121.75 13.8672 121.609 13.9922C121.469 14.112 121.318 14.2734 121.156 14.4766L121.297 19.0078L122.703 19.7109L118.562 20.0781L119.633 18.9922L120.07 13.5547L118.406 12.7969L121.094 12.2891L121.125 13.2656C121.307 13.0469 121.495 12.8672 121.688 12.7266C121.88 12.5859 122.055 12.4714 122.211 12.3828C122.393 12.2839 122.57 12.2083 122.742 12.1562C123.055 12.0833 123.372 12.0547 123.695 12.0703C123.831 12.0755 123.971 12.0911 124.117 12.1172C124.268 12.1432 124.419 12.1849 124.57 12.2422C124.727 12.2943 124.878 12.3672 125.023 12.4609C125.169 12.5495 125.31 12.6615 125.445 12.7969L124.422 14.6719ZM127.398 17.1328C127.466 17.4245 127.557 17.7109 127.672 17.9922C127.786 18.2682 127.927 18.5156 128.094 18.7344C128.26 18.9531 128.453 19.1302 128.672 19.2656C128.891 19.401 129.138 19.4688 129.414 19.4688C129.779 19.4688 130.096 19.3932 130.367 19.2422C130.638 19.0911 130.859 18.901 131.031 18.6719C131.203 18.4375 131.323 18.1823 131.391 17.9062C131.458 17.625 131.471 17.3568 131.43 17.1016C131.576 17.1589 131.695 17.2344 131.789 17.3281C131.888 17.4219 131.964 17.526 132.016 17.6406C132.073 17.75 132.112 17.8646 132.133 17.9844C132.154 18.099 132.164 18.2109 132.164 18.3203C132.164 18.5703 132.091 18.8125 131.945 19.0469C131.799 19.276 131.594 19.4818 131.328 19.6641C131.068 19.8411 130.758 19.9844 130.398 20.0938C130.039 20.2031 129.646 20.2578 129.219 20.2578C128.646 20.2578 128.133 20.1458 127.68 19.9219C127.232 19.6979 126.852 19.3958 126.539 19.0156C126.227 18.6302 125.987 18.1797 125.82 17.6641C125.654 17.1484 125.57 16.599 125.57 16.0156C125.57 15.4219 125.654 14.875 125.82 14.375C125.987 13.8698 126.232 13.4401 126.555 13.0859C126.883 12.7318 127.284 12.4635 127.758 12.2812C128.232 12.099 128.779 12.026 129.398 12.0625C129.826 12.0938 130.219 12.2161 130.578 12.4297C130.938 12.6432 131.25 12.9193 131.516 13.2578C131.786 13.5911 132.003 13.974 132.164 14.4062C132.331 14.8385 132.432 15.2891 132.469 15.7578L127.398 17.1328ZM127.25 15.875C127.25 15.9479 127.25 16.0208 127.25 16.0938C127.25 16.1615 127.255 16.2318 127.266 16.3047L130.695 15.0547C130.581 14.6797 130.451 14.3594 130.305 14.0938C130.164 13.8229 130.016 13.6016 129.859 13.4297C129.703 13.2578 129.544 13.1328 129.383 13.0547C129.227 12.9714 129.076 12.9297 128.93 12.9297C128.711 12.9297 128.518 12.9714 128.352 13.0547C128.185 13.138 128.039 13.2526 127.914 13.3984C127.794 13.5391 127.69 13.7057 127.602 13.8984C127.518 14.0911 127.451 14.2969 127.398 14.5156C127.346 14.7344 127.307 14.9609 127.281 15.1953C127.26 15.4245 127.25 15.651 127.25 15.875ZM136.312 12.0469C136.51 12.0469 136.711 12.0651 136.914 12.1016C137.117 12.1328 137.315 12.1823 137.508 12.25C137.706 12.3125 137.891 12.3906 138.062 12.4844C138.24 12.5729 138.398 12.6719 138.539 12.7812L139.82 11.2031L139.242 15.1016C139.18 14.8307 139.07 14.5651 138.914 14.3047C138.758 14.0391 138.562 13.8021 138.328 13.5938C138.099 13.3854 137.833 13.2188 137.531 13.0938C137.229 12.9635 136.898 12.8984 136.539 12.8984C136.341 12.8984 136.151 12.9219 135.969 12.9688C135.786 13.0104 135.625 13.0807 135.484 13.1797C135.349 13.2786 135.24 13.4036 135.156 13.5547C135.078 13.7057 135.039 13.8854 135.039 14.0938C135.039 14.3438 135.107 14.5469 135.242 14.7031C135.383 14.8594 135.565 14.9922 135.789 15.1016C136.013 15.2057 136.268 15.2969 136.555 15.375C136.841 15.4479 137.135 15.526 137.438 15.6094C137.74 15.6927 138.034 15.7917 138.32 15.9062C138.607 16.0156 138.862 16.1589 139.086 16.3359C139.31 16.513 139.49 16.7344 139.625 17C139.766 17.2604 139.836 17.5833 139.836 17.9688C139.836 18.401 139.75 18.7708 139.578 19.0781C139.411 19.3802 139.195 19.6302 138.93 19.8281C138.664 20.0208 138.37 20.1615 138.047 20.25C137.724 20.3385 137.409 20.3828 137.102 20.3828C136.852 20.3828 136.602 20.3568 136.352 20.3047C136.102 20.2526 135.859 20.1797 135.625 20.0859C135.391 19.9922 135.167 19.8802 134.953 19.75C134.745 19.6198 134.555 19.4792 134.383 19.3281L133.195 20.9141L133.562 17.0391C133.729 17.3932 133.93 17.724 134.164 18.0312C134.398 18.3385 134.659 18.6068 134.945 18.8359C135.232 19.0599 135.539 19.237 135.867 19.3672C136.195 19.4922 136.536 19.5547 136.891 19.5547C137.302 19.5547 137.63 19.4688 137.875 19.2969C138.125 19.1198 138.25 18.8698 138.25 18.5469C138.25 18.3385 138.18 18.1667 138.039 18.0312C137.904 17.8906 137.721 17.7682 137.492 17.6641C137.268 17.5599 137.013 17.4661 136.727 17.3828C136.44 17.2995 136.146 17.2083 135.844 17.1094C135.542 17.0104 135.247 16.8958 134.961 16.7656C134.674 16.6302 134.417 16.4635 134.188 16.2656C133.964 16.0625 133.781 15.8177 133.641 15.5312C133.505 15.2396 133.438 14.888 133.438 14.4766C133.438 14.1224 133.49 13.8151 133.594 13.5547C133.698 13.2943 133.833 13.0755 134 12.8984C134.172 12.7161 134.362 12.5703 134.57 12.4609C134.784 12.3464 134.997 12.2604 135.211 12.2031C135.424 12.1406 135.628 12.099 135.82 12.0781C136.013 12.0573 136.177 12.0469 136.312 12.0469Z" fill="url(#paint0_linear)"/>
<rect x="1" y="1" width="148" height="28" rx="4" stroke="url(#paint1_linear)" stroke-width="2"/>
<defs>
<linearGradient id="paint0_linear" x1="78" y1="6" x2="63.7008" y2="120.687" gradientUnits="userSpaceOnUse">
<stop stop-color="#EDDD0F"/>
<stop offset="1" stop-color="#DBBA0D" stop-opacity="0"/>
</linearGradient>
<linearGradient id="paint1_linear" x1="-9" y1="-7" x2="380" y2="80" gradientUnits="userSpaceOnUse">
<stop stop-color="#F4EB11"/>
<stop offset="0.742956" stop-color="#7C0000"/>
<stop offset="0.743056" stop-color="#DD9539" stop-opacity="0"/>
</linearGradient>
</defs>
</svg>
