<svg width="150" height="30" viewBox="0 0 150 30" fill="none" xmlns="http://www.w3.org/2000/svg">
<path d="M36.3779 12.8613L34.9717 9.85547L30.4893 10.7432L30.6562 13.96H31.9834L33.4424 11.8418V17.1855L31.9131 14.8301L30.709 14.9707L30.9463 19.3652L33.5303 20.4639L26.8242 21.1758L28.7314 19.4707L29.1973 11.042L26.7979 8.92383L36.3779 8.58105V12.8613ZM36.9229 21.0879L38.3027 20.0068L38.0039 13.9424L36.3779 12.8789L40.1572 12.2373L39.4805 19.2861L41.3701 20.4639L36.9229 21.0879ZM40.2539 10.1104C40.2539 10.2861 40.2188 10.4531 40.1484 10.6113C40.0781 10.7637 39.9814 10.9014 39.8584 11.0244C39.7354 11.1416 39.5947 11.2354 39.4365 11.3057C39.2783 11.3701 39.1113 11.4023 38.9355 11.4023C38.748 11.4023 38.5723 11.3701 38.4082 11.3057C38.25 11.2354 38.1123 11.1416 37.9951 11.0244C37.8779 10.9014 37.7842 10.7637 37.7139 10.6113C37.6436 10.4531 37.6084 10.2861 37.6084 10.1104C37.6084 9.92871 37.6436 9.76172 37.7139 9.60938C37.7842 9.45117 37.8779 9.31348 37.9951 9.19629C38.1123 9.0791 38.25 8.98828 38.4082 8.92383C38.5723 8.85352 38.748 8.81836 38.9355 8.81836C39.1113 8.81836 39.2783 8.85352 39.4365 8.92383C39.5947 8.98828 39.7354 9.0791 39.8584 9.19629C39.9814 9.31348 40.0781 9.45117 40.1484 9.60938C40.2188 9.76172 40.2539 9.92871 40.2539 10.1104ZM49.6846 15.542C49.6846 15.8701 49.6699 16.2158 49.6406 16.5791C49.6113 16.9424 49.5674 17.3057 49.5088 17.6689C49.4502 18.0322 49.377 18.3867 49.2891 18.7324C49.207 19.0781 49.1104 19.3945 48.999 19.6816L50.7305 20.2441L46.1514 21.1406L47.707 19.9717C47.8301 19.5205 47.9121 19.0869 47.9531 18.6709C48 18.2549 48.0234 17.8623 48.0234 17.4932C48.0234 17.2705 48.0146 17.0186 47.9971 16.7373C47.9854 16.4502 47.9531 16.1602 47.9004 15.8672C47.8535 15.5742 47.7832 15.2871 47.6895 15.0059C47.6016 14.7246 47.4844 14.4756 47.3379 14.2588C47.1914 14.0361 47.0098 13.8604 46.793 13.7314C46.582 13.5967 46.3271 13.5293 46.0283 13.5293C45.6826 13.5293 45.3311 13.6436 44.9736 13.8721C44.6162 14.1006 44.2852 14.4375 43.9805 14.8828V19.7432L45.4307 20.7803L41.0801 21.0879L42.2314 19.8135L42.8467 13.4238L40.9746 12.501L43.9805 12.2021V13.5293C44.1504 13.2949 44.3379 13.0752 44.543 12.8701C44.748 12.665 44.9648 12.4893 45.1934 12.3428C45.4219 12.1904 45.6592 12.0732 45.9053 11.9912C46.1572 11.9033 46.415 11.8594 46.6787 11.8594C47.1885 11.8594 47.6309 11.9531 48.0059 12.1406C48.3809 12.3281 48.6914 12.5889 48.9375 12.9229C49.1895 13.251 49.377 13.6406 49.5 14.0918C49.623 14.5371 49.6846 15.0205 49.6846 15.542ZM58.834 15.5244C58.834 15.835 58.8164 16.1689 58.7812 16.5264C58.7461 16.8838 58.6934 17.2471 58.623 17.6162C58.5586 17.9854 58.4795 18.3486 58.3857 18.7061C58.2979 19.0576 58.2012 19.3828 58.0957 19.6816L59.9678 21L56.6543 20.8594L56.8564 19.7783C56.5049 20.2178 56.0977 20.5547 55.6348 20.7891C55.1777 21.0176 54.6475 21.1553 54.0439 21.2021C53.5518 21.2373 53.1211 21.2021 52.752 21.0967C52.3887 20.9971 52.084 20.8418 51.8379 20.6309C51.5977 20.4141 51.4189 20.1504 51.3018 19.8398C51.1846 19.5234 51.126 19.1719 51.126 18.7852C51.126 18.4277 51.2139 18.082 51.3896 17.748C51.5654 17.4082 51.8174 17.1094 52.1455 16.8516C52.4795 16.5938 52.8867 16.3887 53.3672 16.2363C53.8477 16.0781 54.3926 15.999 55.002 15.999C55.2832 15.999 55.6055 16.0254 55.9688 16.0781C56.3379 16.1309 56.6865 16.2422 57.0146 16.4121C56.9854 16.0547 56.9297 15.6914 56.8477 15.3223C56.7715 14.9473 56.6572 14.6074 56.5049 14.3027C56.3525 13.998 56.1533 13.752 55.9072 13.5645C55.667 13.3711 55.3652 13.2744 55.002 13.2744C54.6914 13.2744 54.3896 13.3389 54.0967 13.4678C53.8037 13.5967 53.5283 13.7812 53.2705 14.0215C53.0186 14.2617 52.79 14.5547 52.585 14.9004C52.3799 15.2461 52.207 15.6357 52.0664 16.0693L51.3281 11.7627L52.4443 13.4766C52.7197 13.1367 52.998 12.8672 53.2793 12.668C53.5605 12.4629 53.8389 12.3076 54.1143 12.2021C54.3955 12.0908 54.665 12.0176 54.9229 11.9824C55.1865 11.9473 55.4385 11.9297 55.6787 11.9297C56.1299 11.9531 56.5459 12.0469 56.9268 12.2109C57.3135 12.3691 57.6475 12.6006 57.9287 12.9053C58.21 13.2041 58.4297 13.5732 58.5879 14.0127C58.752 14.4521 58.834 14.9561 58.834 15.5244ZM57.0146 18.3369C57.0264 18.1729 57.0352 18.0146 57.041 17.8623C57.0469 17.71 57.0498 17.5605 57.0498 17.4141V17.3086C56.8389 17.2266 56.625 17.165 56.4082 17.124C56.1973 17.0771 56.001 17.0449 55.8193 17.0273C55.6377 17.0039 55.4824 16.9922 55.3535 16.9922C55.2305 16.9863 55.1484 16.9834 55.1074 16.9834C54.7734 16.9951 54.4834 17.0566 54.2373 17.168C53.9912 17.2793 53.7861 17.4199 53.6221 17.5898C53.4639 17.7539 53.3438 17.9385 53.2617 18.1436C53.1855 18.3486 53.1475 18.5508 53.1475 18.75C53.1475 19.2012 53.2559 19.5439 53.4727 19.7783C53.6953 20.0068 54.0176 20.1211 54.4395 20.1211C54.7207 20.1211 54.9873 20.0713 55.2393 19.9717C55.4912 19.8721 55.7256 19.7402 55.9424 19.5762C56.165 19.4062 56.3643 19.2158 56.54 19.0049C56.7217 18.7881 56.8799 18.5654 57.0146 18.3369ZM62.3936 19.9014L64.1514 20.6045L59.748 21.0352L61.3301 19.7959L61.0576 10.3037L59.0273 9.4248L63.4746 8.83594L62.3936 19.9014ZM72.7998 17.2383V19.7783L75.0146 20.877H68.4756L70.6553 19.5762L71.2705 10.541L68.6426 8.94141C68.9473 8.89453 69.2578 8.85645 69.5742 8.82715C69.8965 8.79785 70.2129 8.77734 70.5234 8.76562C70.8398 8.74805 71.1445 8.73633 71.4375 8.73047C71.7363 8.72461 72.0146 8.72168 72.2725 8.72168C72.8584 8.72168 73.4414 8.74219 74.0215 8.7832C74.6016 8.82422 75.1553 8.90332 75.6826 9.02051C76.2158 9.13184 76.708 9.28711 77.1592 9.48633C77.6162 9.68555 78.0117 9.94336 78.3457 10.2598C78.6797 10.5703 78.9404 10.9482 79.1279 11.3936C79.3213 11.8389 79.418 12.3604 79.418 12.958C79.418 13.5029 79.3301 13.9863 79.1543 14.4082C78.9844 14.8301 78.75 15.2021 78.4512 15.5244C78.1582 15.8408 77.8125 16.1074 77.4141 16.3242C77.0156 16.541 76.5938 16.7197 76.1484 16.8604C75.7031 16.9951 75.2461 17.0918 74.7773 17.1504C74.3086 17.209 73.8516 17.2383 73.4062 17.2383H72.7998ZM72.7998 9.89062V16.3594C73.4854 16.3594 74.0654 16.292 74.54 16.1572C75.0146 16.0225 75.4102 15.8525 75.7266 15.6475C76.043 15.4365 76.2891 15.2051 76.4648 14.9531C76.6465 14.6953 76.7812 14.4492 76.8691 14.2148C76.957 13.9746 77.0098 13.7607 77.0273 13.5732C77.0508 13.3799 77.0625 13.2393 77.0625 13.1514C77.0625 13.0342 77.0508 12.873 77.0273 12.668C77.0098 12.457 76.96 12.2314 76.8779 11.9912C76.7959 11.751 76.6729 11.5078 76.5088 11.2617C76.3447 11.0098 76.1162 10.7842 75.8232 10.585C75.5303 10.3799 75.1641 10.2129 74.7246 10.084C74.291 9.95508 73.7637 9.89062 73.1426 9.89062H72.7998ZM86.2734 15.0059C86.2207 14.7891 86.1445 14.6045 86.0449 14.4521C85.9512 14.2998 85.8428 14.1738 85.7197 14.0742C85.6025 13.9688 85.4766 13.8896 85.3418 13.8369C85.207 13.7783 85.0723 13.7344 84.9375 13.7051C84.6211 13.6406 84.2842 13.6436 83.9268 13.7139C83.8037 13.7549 83.6719 13.8193 83.5312 13.9072C83.4082 13.9893 83.2676 14.1006 83.1094 14.2412C82.9512 14.376 82.7812 14.5576 82.5996 14.7861L82.7578 19.8838L84.3398 20.6748L79.6816 21.0879L80.8857 19.8662L81.3779 13.749L79.5059 12.8965L82.5293 12.3252L82.5645 13.4238C82.7695 13.1777 82.9805 12.9756 83.1973 12.8174C83.4141 12.6592 83.6104 12.5303 83.7861 12.4307C83.9912 12.3193 84.1904 12.2344 84.3838 12.1758C84.7354 12.0938 85.0928 12.0615 85.4561 12.0791C85.6084 12.085 85.7666 12.1025 85.9307 12.1318C86.1006 12.1611 86.2705 12.208 86.4404 12.2725C86.6162 12.3311 86.7861 12.4131 86.9502 12.5186C87.1143 12.6182 87.2725 12.7441 87.4248 12.8965L86.2734 15.0059ZM87.5479 16.5879C87.5479 15.9316 87.6504 15.3252 87.8555 14.7686C88.0664 14.2061 88.3564 13.7197 88.7256 13.3096C89.1006 12.8994 89.543 12.5801 90.0527 12.3516C90.5684 12.1172 91.1309 12 91.7402 12C92.332 12 92.874 12.1113 93.3662 12.334C93.8584 12.5508 94.2861 12.8584 94.6494 13.2568C95.0127 13.6553 95.3027 14.1328 95.5195 14.6895C95.7363 15.2461 95.8652 15.8613 95.9062 16.5352C95.9473 17.2559 95.8711 17.9092 95.6777 18.4951C95.4902 19.0752 95.2119 19.5703 94.8428 19.9805C94.4736 20.3848 94.0312 20.6982 93.5156 20.9209C93.0059 21.1436 92.4521 21.2549 91.8545 21.2549C91.2803 21.2549 90.7324 21.1523 90.2109 20.9473C89.6953 20.7363 89.2383 20.4316 88.8398 20.0332C88.4473 19.6348 88.1338 19.1484 87.8994 18.5742C87.665 17.9941 87.5479 17.332 87.5479 16.5879ZM89.71 16.7373C89.71 17.2529 89.7832 17.7188 89.9297 18.1348C90.0762 18.5508 90.2725 18.9053 90.5186 19.1982C90.7646 19.4854 91.0488 19.708 91.3711 19.8662C91.6934 20.0244 92.0332 20.1035 92.3906 20.1035C92.748 20.1035 93.082 20.0273 93.3926 19.875C93.7031 19.7168 93.9727 19.4971 94.2012 19.2158C94.4297 18.9287 94.6084 18.5859 94.7373 18.1875C94.8662 17.7891 94.9307 17.3467 94.9307 16.8604C94.9307 16.3799 94.8662 15.9287 94.7373 15.5068C94.6084 15.0791 94.4268 14.707 94.1924 14.3906C93.9639 14.0742 93.6914 13.8252 93.375 13.6436C93.0586 13.4619 92.7129 13.3711 92.3379 13.3711C92.0039 13.3711 91.6787 13.4473 91.3623 13.5996C91.0518 13.752 90.7734 13.9746 90.5273 14.2676C90.2812 14.5547 90.082 14.9062 89.9297 15.3223C89.7832 15.7383 89.71 16.21 89.71 16.7373ZM95.625 22.749C95.9414 22.749 96.2197 22.6523 96.46 22.459C96.7002 22.2656 96.9082 22.0049 97.084 21.6768C97.2598 21.3486 97.4062 20.9678 97.5234 20.5342C97.6465 20.1006 97.7461 19.6406 97.8223 19.1543C97.8984 18.668 97.957 18.1699 97.998 17.6602C98.0391 17.1504 98.0684 16.6582 98.0859 16.1836C98.1035 15.709 98.1152 15.2666 98.1211 14.8564C98.127 14.4463 98.1299 14.0947 98.1299 13.8018L95.8623 12.8262L99.3516 12.1406C99.416 12.4453 99.4746 12.7969 99.5273 13.1953C99.5859 13.5879 99.6328 14.0068 99.668 14.4521C99.709 14.8975 99.7412 15.3516 99.7646 15.8145C99.7881 16.2773 99.7998 16.7285 99.7998 17.168C99.7998 17.7129 99.7734 18.2549 99.7207 18.7939C99.6738 19.333 99.5889 19.8457 99.4658 20.332C99.3486 20.8184 99.1934 21.2695 99 21.6855C98.8066 22.1074 98.5635 22.4707 98.2705 22.7754C97.9834 23.0801 97.6436 23.3174 97.251 23.4873C96.8584 23.6631 96.4072 23.751 95.8975 23.751C95.7334 23.751 95.5605 23.7393 95.3789 23.7158C95.1914 23.6924 95.0039 23.6455 94.8164 23.5752L94.4033 25.1221L93.375 21.3955C93.5625 21.6768 93.7588 21.9053 93.9639 22.0811C94.1689 22.2627 94.3711 22.4004 94.5703 22.4941C94.7637 22.5938 94.9512 22.6611 95.1328 22.6963C95.3145 22.7314 95.4785 22.749 95.625 22.749ZM99.6416 10.1631C99.6416 10.333 99.6094 10.4912 99.5449 10.6377C99.4863 10.7783 99.4043 10.9043 99.2988 11.0156C99.1934 11.127 99.0674 11.2148 98.9209 11.2793C98.7803 11.3379 98.625 11.3672 98.4551 11.3672C98.291 11.3672 98.1357 11.3379 97.9893 11.2793C97.8486 11.2148 97.7256 11.127 97.6201 11.0156C97.5146 10.9043 97.4297 10.7783 97.3652 10.6377C97.3066 10.4912 97.2773 10.333 97.2773 10.1631C97.2773 9.99902 97.3066 9.84668 97.3652 9.70605C97.4297 9.55957 97.5146 9.43359 97.6201 9.32812C97.7256 9.2168 97.8486 9.13184 97.9893 9.07324C98.1357 9.00879 98.291 8.97656 98.4551 8.97656C98.625 8.97656 98.7803 9.00879 98.9209 9.07324C99.0674 9.13184 99.1934 9.2168 99.2988 9.32812C99.4043 9.43359 99.4863 9.55957 99.5449 9.70605C99.6094 9.84668 99.6416 9.99902 99.6416 10.1631ZM103.28 17.7744C103.356 18.1025 103.459 18.4248 103.588 18.7412C103.717 19.0518 103.875 19.3301 104.062 19.5762C104.25 19.8223 104.467 20.0215 104.713 20.1738C104.959 20.3262 105.237 20.4023 105.548 20.4023C105.958 20.4023 106.315 20.3174 106.62 20.1475C106.925 19.9775 107.174 19.7637 107.367 19.5059C107.561 19.2422 107.695 18.9551 107.771 18.6445C107.848 18.3281 107.862 18.0264 107.815 17.7393C107.979 17.8037 108.114 17.8887 108.22 17.9941C108.331 18.0996 108.416 18.2168 108.475 18.3457C108.539 18.4688 108.583 18.5977 108.606 18.7324C108.63 18.8613 108.642 18.9873 108.642 19.1104C108.642 19.3916 108.56 19.6641 108.396 19.9277C108.231 20.1855 108 20.417 107.701 20.6221C107.408 20.8213 107.06 20.9824 106.655 21.1055C106.251 21.2285 105.809 21.29 105.328 21.29C104.684 21.29 104.106 21.1641 103.597 20.9121C103.093 20.6602 102.665 20.3203 102.313 19.8926C101.962 19.459 101.692 18.9521 101.505 18.3721C101.317 17.792 101.224 17.1738 101.224 16.5176C101.224 15.8496 101.317 15.2344 101.505 14.6719C101.692 14.1035 101.968 13.6201 102.331 13.2217C102.7 12.8232 103.151 12.5215 103.685 12.3164C104.218 12.1113 104.833 12.0293 105.53 12.0703C106.011 12.1055 106.453 12.2432 106.857 12.4834C107.262 12.7236 107.613 13.0342 107.912 13.415C108.217 13.79 108.46 14.2207 108.642 14.707C108.829 15.1934 108.943 15.7002 108.984 16.2275L103.28 17.7744ZM103.113 16.3594C103.113 16.4414 103.113 16.5234 103.113 16.6055C103.113 16.6816 103.119 16.7607 103.131 16.8428L106.989 15.4365C106.86 15.0146 106.714 14.6543 106.55 14.3555C106.392 14.0508 106.225 13.8018 106.049 13.6084C105.873 13.415 105.694 13.2744 105.513 13.1865C105.337 13.0928 105.167 13.0459 105.003 13.0459C104.757 13.0459 104.54 13.0928 104.353 13.1865C104.165 13.2803 104.001 13.4092 103.86 13.5732C103.726 13.7314 103.608 13.9189 103.509 14.1357C103.415 14.3525 103.339 14.584 103.28 14.8301C103.222 15.0762 103.178 15.3311 103.148 15.5947C103.125 15.8525 103.113 16.1074 103.113 16.3594ZM114.064 12.2197C114.557 12.2197 115.002 12.3281 115.4 12.5449C115.805 12.7559 116.13 13.043 116.376 13.4062L118.151 11.6045L116.692 16.3594C116.64 15.8672 116.558 15.4512 116.446 15.1113C116.335 14.7656 116.206 14.4814 116.06 14.2588C115.919 14.0303 115.77 13.8545 115.611 13.7314C115.459 13.6084 115.315 13.5176 115.181 13.459C115.052 13.4004 114.938 13.3652 114.838 13.3535C114.744 13.3418 114.686 13.3359 114.662 13.3359C114.24 13.3359 113.859 13.418 113.52 13.582C113.18 13.7461 112.887 13.9863 112.641 14.3027C112.4 14.6191 112.216 15.0088 112.087 15.4717C111.958 15.9287 111.894 16.4502 111.894 17.0361C111.894 17.5986 111.961 18.0967 112.096 18.5303C112.23 18.958 112.409 19.3184 112.632 19.6113C112.854 19.9043 113.109 20.127 113.396 20.2793C113.684 20.4258 113.979 20.499 114.284 20.499C114.642 20.499 114.973 20.4199 115.277 20.2617C115.582 20.0977 115.843 19.8838 116.06 19.6201C116.276 19.3564 116.438 19.0547 116.543 18.7148C116.654 18.3691 116.692 18.0146 116.657 17.6514C116.728 17.7158 116.801 17.7949 116.877 17.8887C116.959 17.9824 117.032 18.0879 117.097 18.2051C117.167 18.3164 117.223 18.4395 117.264 18.5742C117.305 18.7031 117.325 18.835 117.325 18.9697C117.325 19.3682 117.229 19.7285 117.035 20.0508C116.848 20.3672 116.604 20.6367 116.306 20.8594C116.007 21.082 115.67 21.252 115.295 21.3691C114.92 21.4922 114.548 21.5537 114.179 21.5537C114.021 21.5537 113.804 21.5361 113.528 21.501C113.259 21.4658 112.963 21.3926 112.641 21.2812C112.324 21.1758 112.002 21.0205 111.674 20.8154C111.346 20.6104 111.047 20.3379 110.777 19.998C110.514 19.6582 110.297 19.2393 110.127 18.7412C109.957 18.2432 109.872 17.6455 109.872 16.9482C109.872 16.3271 109.942 15.7793 110.083 15.3047C110.229 14.8242 110.42 14.4082 110.654 14.0566C110.895 13.7051 111.164 13.4121 111.463 13.1777C111.762 12.9434 112.066 12.7559 112.377 12.6152C112.688 12.4746 112.989 12.375 113.282 12.3164C113.581 12.252 113.842 12.2197 114.064 12.2197ZM119.224 17.1504C119.224 16.5996 119.279 16.0518 119.391 15.5068C119.508 14.9561 119.634 14.4521 119.769 13.9951L118.248 14.0918L122.537 9.40723C122.197 10.4795 121.922 11.4463 121.711 12.3076L125.13 12.5977L124.682 13.6523L121.368 13.8896C121.286 14.3174 121.222 14.6982 121.175 15.0322C121.134 15.3604 121.099 15.6387 121.069 15.8672C121.04 16.1367 121.02 16.3711 121.008 16.5703C121.008 17.1562 121.043 17.6836 121.113 18.1523C121.184 18.6211 121.292 19.0225 121.438 19.3564C121.591 19.6846 121.781 19.9395 122.01 20.1211C122.244 20.2969 122.522 20.3848 122.845 20.3848C123.144 20.3848 123.393 20.3262 123.592 20.209C123.797 20.0859 123.961 19.9307 124.084 19.7432C124.207 19.5498 124.295 19.3359 124.348 19.1016C124.4 18.8613 124.427 18.624 124.427 18.3896C124.427 18.1729 124.409 17.9619 124.374 17.7568C124.626 17.8857 124.816 18.0938 124.945 18.3809C125.08 18.6621 125.147 18.9697 125.147 19.3037C125.147 19.6494 125.089 19.9541 124.972 20.2178C124.86 20.4814 124.705 20.7041 124.506 20.8857C124.307 21.0615 124.072 21.1963 123.803 21.29C123.533 21.3838 123.243 21.4307 122.933 21.4307C122.745 21.4307 122.522 21.4102 122.265 21.3691C122.013 21.3281 121.749 21.252 121.474 21.1406C121.198 21.0352 120.926 20.8828 120.656 20.6836C120.387 20.4844 120.146 20.2266 119.936 19.9102C119.725 19.5938 119.552 19.21 119.417 18.7588C119.288 18.3018 119.224 17.7656 119.224 17.1504Z" fill="url(#paint0_linear)"/>
<rect x="1" y="1" width="148" height="28" rx="4" stroke="url(#paint1_linear)" stroke-width="2"/>
<defs>
<linearGradient id="paint0_linear" x1="78" y1="5" x2="54.6214" y2="130.828" gradientUnits="userSpaceOnUse">
<stop stop-color="#EDDD0F"/>
<stop offset="1" stop-color="#DBBA0D" stop-opacity="0"/>
</linearGradient>
<linearGradient id="paint1_linear" x1="-9" y1="-7" x2="380" y2="80" gradientUnits="userSpaceOnUse">
<stop stop-color="#F4EB11"/>
<stop offset="0.742956" stop-color="#7C0000"/>
<stop offset="0.743056" stop-color="#DD9539" stop-opacity="0"/>
</linearGradient>
</defs>
</svg>
