<svg width="150" height="30" viewBox="0 0 150 30" fill="none" xmlns="http://www.w3.org/2000/svg">
<rect x="1" y="1" width="148" height="28" rx="4" fill="white"/>
<path d="M36.3779 13.8613L34.9717 10.8555L30.4893 11.7432L30.6562 14.96H31.9834L33.4424 12.8418V18.1855L31.9131 15.8301L30.709 15.9707L30.9463 20.3652L33.5303 21.4639L26.8242 22.1758L28.7314 20.4707L29.1973 12.042L26.7979 9.92383L36.3779 9.58105V13.8613ZM36.9229 22.0879L38.3027 21.0068L38.0039 14.9424L36.3779 13.8789L40.1572 13.2373L39.4805 20.2861L41.3701 21.4639L36.9229 22.0879ZM40.2539 11.1104C40.2539 11.2861 40.2188 11.4531 40.1484 11.6113C40.0781 11.7637 39.9814 11.9014 39.8584 12.0244C39.7354 12.1416 39.5947 12.2354 39.4365 12.3057C39.2783 12.3701 39.1113 12.4023 38.9355 12.4023C38.748 12.4023 38.5723 12.3701 38.4082 12.3057C38.25 12.2354 38.1123 12.1416 37.9951 12.0244C37.8779 11.9014 37.7842 11.7637 37.7139 11.6113C37.6436 11.4531 37.6084 11.2861 37.6084 11.1104C37.6084 10.9287 37.6436 10.7617 37.7139 10.6094C37.7842 10.4512 37.8779 10.3135 37.9951 10.1963C38.1123 10.0791 38.25 9.98828 38.4082 9.92383C38.5723 9.85352 38.748 9.81836 38.9355 9.81836C39.1113 9.81836 39.2783 9.85352 39.4365 9.92383C39.5947 9.98828 39.7354 10.0791 39.8584 10.1963C39.9814 10.3135 40.0781 10.4512 40.1484 10.6094C40.2188 10.7617 40.2539 10.9287 40.2539 11.1104ZM49.6846 16.542C49.6846 16.8701 49.6699 17.2158 49.6406 17.5791C49.6113 17.9424 49.5674 18.3057 49.5088 18.6689C49.4502 19.0322 49.377 19.3867 49.2891 19.7324C49.207 20.0781 49.1104 20.3945 48.999 20.6816L50.7305 21.2441L46.1514 22.1406L47.707 20.9717C47.8301 20.5205 47.9121 20.0869 47.9531 19.6709C48 19.2549 48.0234 18.8623 48.0234 18.4932C48.0234 18.2705 48.0146 18.0186 47.9971 17.7373C47.9854 17.4502 47.9531 17.1602 47.9004 16.8672C47.8535 16.5742 47.7832 16.2871 47.6895 16.0059C47.6016 15.7246 47.4844 15.4756 47.3379 15.2588C47.1914 15.0361 47.0098 14.8604 46.793 14.7314C46.582 14.5967 46.3271 14.5293 46.0283 14.5293C45.6826 14.5293 45.3311 14.6436 44.9736 14.8721C44.6162 15.1006 44.2852 15.4375 43.9805 15.8828V20.7432L45.4307 21.7803L41.0801 22.0879L42.2314 20.8135L42.8467 14.4238L40.9746 13.501L43.9805 13.2021V14.5293C44.1504 14.2949 44.3379 14.0752 44.543 13.8701C44.748 13.665 44.9648 13.4893 45.1934 13.3428C45.4219 13.1904 45.6592 13.0732 45.9053 12.9912C46.1572 12.9033 46.415 12.8594 46.6787 12.8594C47.1885 12.8594 47.6309 12.9531 48.0059 13.1406C48.3809 13.3281 48.6914 13.5889 48.9375 13.9229C49.1895 14.251 49.377 14.6406 49.5 15.0918C49.623 15.5371 49.6846 16.0205 49.6846 16.542ZM58.834 16.5244C58.834 16.835 58.8164 17.1689 58.7812 17.5264C58.7461 17.8838 58.6934 18.2471 58.623 18.6162C58.5586 18.9854 58.4795 19.3486 58.3857 19.7061C58.2979 20.0576 58.2012 20.3828 58.0957 20.6816L59.9678 22L56.6543 21.8594L56.8564 20.7783C56.5049 21.2178 56.0977 21.5547 55.6348 21.7891C55.1777 22.0176 54.6475 22.1553 54.0439 22.2021C53.5518 22.2373 53.1211 22.2021 52.752 22.0967C52.3887 21.9971 52.084 21.8418 51.8379 21.6309C51.5977 21.4141 51.4189 21.1504 51.3018 20.8398C51.1846 20.5234 51.126 20.1719 51.126 19.7852C51.126 19.4277 51.2139 19.082 51.3896 18.748C51.5654 18.4082 51.8174 18.1094 52.1455 17.8516C52.4795 17.5938 52.8867 17.3887 53.3672 17.2363C53.8477 17.0781 54.3926 16.999 55.002 16.999C55.2832 16.999 55.6055 17.0254 55.9688 17.0781C56.3379 17.1309 56.6865 17.2422 57.0146 17.4121C56.9854 17.0547 56.9297 16.6914 56.8477 16.3223C56.7715 15.9473 56.6572 15.6074 56.5049 15.3027C56.3525 14.998 56.1533 14.752 55.9072 14.5645C55.667 14.3711 55.3652 14.2744 55.002 14.2744C54.6914 14.2744 54.3896 14.3389 54.0967 14.4678C53.8037 14.5967 53.5283 14.7812 53.2705 15.0215C53.0186 15.2617 52.79 15.5547 52.585 15.9004C52.3799 16.2461 52.207 16.6357 52.0664 17.0693L51.3281 12.7627L52.4443 14.4766C52.7197 14.1367 52.998 13.8672 53.2793 13.668C53.5605 13.4629 53.8389 13.3076 54.1143 13.2021C54.3955 13.0908 54.665 13.0176 54.9229 12.9824C55.1865 12.9473 55.4385 12.9297 55.6787 12.9297C56.1299 12.9531 56.5459 13.0469 56.9268 13.2109C57.3135 13.3691 57.6475 13.6006 57.9287 13.9053C58.21 14.2041 58.4297 14.5732 58.5879 15.0127C58.752 15.4521 58.834 15.9561 58.834 16.5244ZM57.0146 19.3369C57.0264 19.1729 57.0352 19.0146 57.041 18.8623C57.0469 18.71 57.0498 18.5605 57.0498 18.4141V18.3086C56.8389 18.2266 56.625 18.165 56.4082 18.124C56.1973 18.0771 56.001 18.0449 55.8193 18.0273C55.6377 18.0039 55.4824 17.9922 55.3535 17.9922C55.2305 17.9863 55.1484 17.9834 55.1074 17.9834C54.7734 17.9951 54.4834 18.0566 54.2373 18.168C53.9912 18.2793 53.7861 18.4199 53.6221 18.5898C53.4639 18.7539 53.3438 18.9385 53.2617 19.1436C53.1855 19.3486 53.1475 19.5508 53.1475 19.75C53.1475 20.2012 53.2559 20.5439 53.4727 20.7783C53.6953 21.0068 54.0176 21.1211 54.4395 21.1211C54.7207 21.1211 54.9873 21.0713 55.2393 20.9717C55.4912 20.8721 55.7256 20.7402 55.9424 20.5762C56.165 20.4062 56.3643 20.2158 56.54 20.0049C56.7217 19.7881 56.8799 19.5654 57.0146 19.3369ZM62.3936 20.9014L64.1514 21.6045L59.748 22.0352L61.3301 20.7959L61.0576 11.3037L59.0273 10.4248L63.4746 9.83594L62.3936 20.9014ZM72.7998 18.2383V20.7783L75.0146 21.877H68.4756L70.6553 20.5762L71.2705 11.541L68.6426 9.94141C68.9473 9.89453 69.2578 9.85645 69.5742 9.82715C69.8965 9.79785 70.2129 9.77734 70.5234 9.76562C70.8398 9.74805 71.1445 9.73633 71.4375 9.73047C71.7363 9.72461 72.0146 9.72168 72.2725 9.72168C72.8584 9.72168 73.4414 9.74219 74.0215 9.7832C74.6016 9.82422 75.1553 9.90332 75.6826 10.0205C76.2158 10.1318 76.708 10.2871 77.1592 10.4863C77.6162 10.6855 78.0117 10.9434 78.3457 11.2598C78.6797 11.5703 78.9404 11.9482 79.1279 12.3936C79.3213 12.8389 79.418 13.3604 79.418 13.958C79.418 14.5029 79.3301 14.9863 79.1543 15.4082C78.9844 15.8301 78.75 16.2021 78.4512 16.5244C78.1582 16.8408 77.8125 17.1074 77.4141 17.3242C77.0156 17.541 76.5938 17.7197 76.1484 17.8604C75.7031 17.9951 75.2461 18.0918 74.7773 18.1504C74.3086 18.209 73.8516 18.2383 73.4062 18.2383H72.7998ZM72.7998 10.8906V17.3594C73.4854 17.3594 74.0654 17.292 74.54 17.1572C75.0146 17.0225 75.4102 16.8525 75.7266 16.6475C76.043 16.4365 76.2891 16.2051 76.4648 15.9531C76.6465 15.6953 76.7812 15.4492 76.8691 15.2148C76.957 14.9746 77.0098 14.7607 77.0273 14.5732C77.0508 14.3799 77.0625 14.2393 77.0625 14.1514C77.0625 14.0342 77.0508 13.873 77.0273 13.668C77.0098 13.457 76.96 13.2314 76.8779 12.9912C76.7959 12.751 76.6729 12.5078 76.5088 12.2617C76.3447 12.0098 76.1162 11.7842 75.8232 11.585C75.5303 11.3799 75.1641 11.2129 74.7246 11.084C74.291 10.9551 73.7637 10.8906 73.1426 10.8906H72.7998ZM86.2734 16.0059C86.2207 15.7891 86.1445 15.6045 86.0449 15.4521C85.9512 15.2998 85.8428 15.1738 85.7197 15.0742C85.6025 14.9688 85.4766 14.8896 85.3418 14.8369C85.207 14.7783 85.0723 14.7344 84.9375 14.7051C84.6211 14.6406 84.2842 14.6436 83.9268 14.7139C83.8037 14.7549 83.6719 14.8193 83.5312 14.9072C83.4082 14.9893 83.2676 15.1006 83.1094 15.2412C82.9512 15.376 82.7812 15.5576 82.5996 15.7861L82.7578 20.8838L84.3398 21.6748L79.6816 22.0879L80.8857 20.8662L81.3779 14.749L79.5059 13.8965L82.5293 13.3252L82.5645 14.4238C82.7695 14.1777 82.9805 13.9756 83.1973 13.8174C83.4141 13.6592 83.6104 13.5303 83.7861 13.4307C83.9912 13.3193 84.1904 13.2344 84.3838 13.1758C84.7354 13.0938 85.0928 13.0615 85.4561 13.0791C85.6084 13.085 85.7666 13.1025 85.9307 13.1318C86.1006 13.1611 86.2705 13.208 86.4404 13.2725C86.6162 13.3311 86.7861 13.4131 86.9502 13.5186C87.1143 13.6182 87.2725 13.7441 87.4248 13.8965L86.2734 16.0059ZM87.5479 17.5879C87.5479 16.9316 87.6504 16.3252 87.8555 15.7686C88.0664 15.2061 88.3564 14.7197 88.7256 14.3096C89.1006 13.8994 89.543 13.5801 90.0527 13.3516C90.5684 13.1172 91.1309 13 91.7402 13C92.332 13 92.874 13.1113 93.3662 13.334C93.8584 13.5508 94.2861 13.8584 94.6494 14.2568C95.0127 14.6553 95.3027 15.1328 95.5195 15.6895C95.7363 16.2461 95.8652 16.8613 95.9062 17.5352C95.9473 18.2559 95.8711 18.9092 95.6777 19.4951C95.4902 20.0752 95.2119 20.5703 94.8428 20.9805C94.4736 21.3848 94.0312 21.6982 93.5156 21.9209C93.0059 22.1436 92.4521 22.2549 91.8545 22.2549C91.2803 22.2549 90.7324 22.1523 90.2109 21.9473C89.6953 21.7363 89.2383 21.4316 88.8398 21.0332C88.4473 20.6348 88.1338 20.1484 87.8994 19.5742C87.665 18.9941 87.5479 18.332 87.5479 17.5879ZM89.71 17.7373C89.71 18.2529 89.7832 18.7188 89.9297 19.1348C90.0762 19.5508 90.2725 19.9053 90.5186 20.1982C90.7646 20.4854 91.0488 20.708 91.3711 20.8662C91.6934 21.0244 92.0332 21.1035 92.3906 21.1035C92.748 21.1035 93.082 21.0273 93.3926 20.875C93.7031 20.7168 93.9727 20.4971 94.2012 20.2158C94.4297 19.9287 94.6084 19.5859 94.7373 19.1875C94.8662 18.7891 94.9307 18.3467 94.9307 17.8604C94.9307 17.3799 94.8662 16.9287 94.7373 16.5068C94.6084 16.0791 94.4268 15.707 94.1924 15.3906C93.9639 15.0742 93.6914 14.8252 93.375 14.6436C93.0586 14.4619 92.7129 14.3711 92.3379 14.3711C92.0039 14.3711 91.6787 14.4473 91.3623 14.5996C91.0518 14.752 90.7734 14.9746 90.5273 15.2676C90.2812 15.5547 90.082 15.9062 89.9297 16.3223C89.7832 16.7383 89.71 17.21 89.71 17.7373ZM95.625 23.749C95.9414 23.749 96.2197 23.6523 96.46 23.459C96.7002 23.2656 96.9082 23.0049 97.084 22.6768C97.2598 22.3486 97.4062 21.9678 97.5234 21.5342C97.6465 21.1006 97.7461 20.6406 97.8223 20.1543C97.8984 19.668 97.957 19.1699 97.998 18.6602C98.0391 18.1504 98.0684 17.6582 98.0859 17.1836C98.1035 16.709 98.1152 16.2666 98.1211 15.8564C98.127 15.4463 98.1299 15.0947 98.1299 14.8018L95.8623 13.8262L99.3516 13.1406C99.416 13.4453 99.4746 13.7969 99.5273 14.1953C99.5859 14.5879 99.6328 15.0068 99.668 15.4521C99.709 15.8975 99.7412 16.3516 99.7646 16.8145C99.7881 17.2773 99.7998 17.7285 99.7998 18.168C99.7998 18.7129 99.7734 19.2549 99.7207 19.7939C99.6738 20.333 99.5889 20.8457 99.4658 21.332C99.3486 21.8184 99.1934 22.2695 99 22.6855C98.8066 23.1074 98.5635 23.4707 98.2705 23.7754C97.9834 24.0801 97.6436 24.3174 97.251 24.4873C96.8584 24.6631 96.4072 24.751 95.8975 24.751C95.7334 24.751 95.5605 24.7393 95.3789 24.7158C95.1914 24.6924 95.0039 24.6455 94.8164 24.5752L94.4033 26.1221L93.375 22.3955C93.5625 22.6768 93.7588 22.9053 93.9639 23.0811C94.1689 23.2627 94.3711 23.4004 94.5703 23.4941C94.7637 23.5938 94.9512 23.6611 95.1328 23.6963C95.3145 23.7314 95.4785 23.749 95.625 23.749ZM99.6416 11.1631C99.6416 11.333 99.6094 11.4912 99.5449 11.6377C99.4863 11.7783 99.4043 11.9043 99.2988 12.0156C99.1934 12.127 99.0674 12.2148 98.9209 12.2793C98.7803 12.3379 98.625 12.3672 98.4551 12.3672C98.291 12.3672 98.1357 12.3379 97.9893 12.2793C97.8486 12.2148 97.7256 12.127 97.6201 12.0156C97.5146 11.9043 97.4297 11.7783 97.3652 11.6377C97.3066 11.4912 97.2773 11.333 97.2773 11.1631C97.2773 10.999 97.3066 10.8467 97.3652 10.7061C97.4297 10.5596 97.5146 10.4336 97.6201 10.3281C97.7256 10.2168 97.8486 10.1318 97.9893 10.0732C98.1357 10.0088 98.291 9.97656 98.4551 9.97656C98.625 9.97656 98.7803 10.0088 98.9209 10.0732C99.0674 10.1318 99.1934 10.2168 99.2988 10.3281C99.4043 10.4336 99.4863 10.5596 99.5449 10.7061C99.6094 10.8467 99.6416 10.999 99.6416 11.1631ZM103.28 18.7744C103.356 19.1025 103.459 19.4248 103.588 19.7412C103.717 20.0518 103.875 20.3301 104.062 20.5762C104.25 20.8223 104.467 21.0215 104.713 21.1738C104.959 21.3262 105.237 21.4023 105.548 21.4023C105.958 21.4023 106.315 21.3174 106.62 21.1475C106.925 20.9775 107.174 20.7637 107.367 20.5059C107.561 20.2422 107.695 19.9551 107.771 19.6445C107.848 19.3281 107.862 19.0264 107.815 18.7393C107.979 18.8037 108.114 18.8887 108.22 18.9941C108.331 19.0996 108.416 19.2168 108.475 19.3457C108.539 19.4688 108.583 19.5977 108.606 19.7324C108.63 19.8613 108.642 19.9873 108.642 20.1104C108.642 20.3916 108.56 20.6641 108.396 20.9277C108.231 21.1855 108 21.417 107.701 21.6221C107.408 21.8213 107.06 21.9824 106.655 22.1055C106.251 22.2285 105.809 22.29 105.328 22.29C104.684 22.29 104.106 22.1641 103.597 21.9121C103.093 21.6602 102.665 21.3203 102.313 20.8926C101.962 20.459 101.692 19.9521 101.505 19.3721C101.317 18.792 101.224 18.1738 101.224 17.5176C101.224 16.8496 101.317 16.2344 101.505 15.6719C101.692 15.1035 101.968 14.6201 102.331 14.2217C102.7 13.8232 103.151 13.5215 103.685 13.3164C104.218 13.1113 104.833 13.0293 105.53 13.0703C106.011 13.1055 106.453 13.2432 106.857 13.4834C107.262 13.7236 107.613 14.0342 107.912 14.415C108.217 14.79 108.46 15.2207 108.642 15.707C108.829 16.1934 108.943 16.7002 108.984 17.2275L103.28 18.7744ZM103.113 17.3594C103.113 17.4414 103.113 17.5234 103.113 17.6055C103.113 17.6816 103.119 17.7607 103.131 17.8428L106.989 16.4365C106.86 16.0146 106.714 15.6543 106.55 15.3555C106.392 15.0508 106.225 14.8018 106.049 14.6084C105.873 14.415 105.694 14.2744 105.513 14.1865C105.337 14.0928 105.167 14.0459 105.003 14.0459C104.757 14.0459 104.54 14.0928 104.353 14.1865C104.165 14.2803 104.001 14.4092 103.86 14.5732C103.726 14.7314 103.608 14.9189 103.509 15.1357C103.415 15.3525 103.339 15.584 103.28 15.8301C103.222 16.0762 103.178 16.3311 103.148 16.5947C103.125 16.8525 103.113 17.1074 103.113 17.3594ZM114.064 13.2197C114.557 13.2197 115.002 13.3281 115.4 13.5449C115.805 13.7559 116.13 14.043 116.376 14.4062L118.151 12.6045L116.692 17.3594C116.64 16.8672 116.558 16.4512 116.446 16.1113C116.335 15.7656 116.206 15.4814 116.06 15.2588C115.919 15.0303 115.77 14.8545 115.611 14.7314C115.459 14.6084 115.315 14.5176 115.181 14.459C115.052 14.4004 114.938 14.3652 114.838 14.3535C114.744 14.3418 114.686 14.3359 114.662 14.3359C114.24 14.3359 113.859 14.418 113.52 14.582C113.18 14.7461 112.887 14.9863 112.641 15.3027C112.4 15.6191 112.216 16.0088 112.087 16.4717C111.958 16.9287 111.894 17.4502 111.894 18.0361C111.894 18.5986 111.961 19.0967 112.096 19.5303C112.23 19.958 112.409 20.3184 112.632 20.6113C112.854 20.9043 113.109 21.127 113.396 21.2793C113.684 21.4258 113.979 21.499 114.284 21.499C114.642 21.499 114.973 21.4199 115.277 21.2617C115.582 21.0977 115.843 20.8838 116.06 20.6201C116.276 20.3564 116.438 20.0547 116.543 19.7148C116.654 19.3691 116.692 19.0146 116.657 18.6514C116.728 18.7158 116.801 18.7949 116.877 18.8887C116.959 18.9824 117.032 19.0879 117.097 19.2051C117.167 19.3164 117.223 19.4395 117.264 19.5742C117.305 19.7031 117.325 19.835 117.325 19.9697C117.325 20.3682 117.229 20.7285 117.035 21.0508C116.848 21.3672 116.604 21.6367 116.306 21.8594C116.007 22.082 115.67 22.252 115.295 22.3691C114.92 22.4922 114.548 22.5537 114.179 22.5537C114.021 22.5537 113.804 22.5361 113.528 22.501C113.259 22.4658 112.963 22.3926 112.641 22.2812C112.324 22.1758 112.002 22.0205 111.674 21.8154C111.346 21.6104 111.047 21.3379 110.777 20.998C110.514 20.6582 110.297 20.2393 110.127 19.7412C109.957 19.2432 109.872 18.6455 109.872 17.9482C109.872 17.3271 109.942 16.7793 110.083 16.3047C110.229 15.8242 110.42 15.4082 110.654 15.0566C110.895 14.7051 111.164 14.4121 111.463 14.1777C111.762 13.9434 112.066 13.7559 112.377 13.6152C112.688 13.4746 112.989 13.375 113.282 13.3164C113.581 13.252 113.842 13.2197 114.064 13.2197ZM119.224 18.1504C119.224 17.5996 119.279 17.0518 119.391 16.5068C119.508 15.9561 119.634 15.4521 119.769 14.9951L118.248 15.0918L122.537 10.4072C122.197 11.4795 121.922 12.4463 121.711 13.3076L125.13 13.5977L124.682 14.6523L121.368 14.8896C121.286 15.3174 121.222 15.6982 121.175 16.0322C121.134 16.3604 121.099 16.6387 121.069 16.8672C121.04 17.1367 121.02 17.3711 121.008 17.5703C121.008 18.1562 121.043 18.6836 121.113 19.1523C121.184 19.6211 121.292 20.0225 121.438 20.3564C121.591 20.6846 121.781 20.9395 122.01 21.1211C122.244 21.2969 122.522 21.3848 122.845 21.3848C123.144 21.3848 123.393 21.3262 123.592 21.209C123.797 21.0859 123.961 20.9307 124.084 20.7432C124.207 20.5498 124.295 20.3359 124.348 20.1016C124.4 19.8613 124.427 19.624 124.427 19.3896C124.427 19.1729 124.409 18.9619 124.374 18.7568C124.626 18.8857 124.816 19.0938 124.945 19.3809C125.08 19.6621 125.147 19.9697 125.147 20.3037C125.147 20.6494 125.089 20.9541 124.972 21.2178C124.86 21.4814 124.705 21.7041 124.506 21.8857C124.307 22.0615 124.072 22.1963 123.803 22.29C123.533 22.3838 123.243 22.4307 122.933 22.4307C122.745 22.4307 122.522 22.4102 122.265 22.3691C122.013 22.3281 121.749 22.252 121.474 22.1406C121.198 22.0352 120.926 21.8828 120.656 21.6836C120.387 21.4844 120.146 21.2266 119.936 20.9102C119.725 20.5938 119.552 20.21 119.417 19.7588C119.288 19.3018 119.224 18.7656 119.224 18.1504Z" fill="#BD1313"/>
<rect x="1" y="1" width="148" height="28" rx="4" stroke="url(#paint0_linear)" stroke-width="2"/>
<defs>
<linearGradient id="paint0_linear" x1="70" y1="-5.00002" x2="380" y2="80" gradientUnits="userSpaceOnUse">
<stop stop-color="#F4EB11"/>
<stop offset="0.742956" stop-color="#7C0000"/>
<stop offset="0.743056" stop-color="#DD9539" stop-opacity="0"/>
</linearGradient>
</defs>
</svg>
