<svg width="150" height="30" viewBox="0 0 150 30" fill="none" xmlns="http://www.w3.org/2000/svg">
<path d="M41.7744 9.77441L40.0693 10.7148L39.832 15.0742L44.3672 15.2148L44.4814 11.5586L42.8555 10.5918L48.0586 10.2666L46.0811 11.8838L46.4062 20.7256L48.2256 21.9297L41.9766 21.9648L44.1914 20.4883L44.332 16.3486L39.7617 16.2607L39.5684 19.873L40.8604 21.1738H36.5801L38.0918 19.9521L37.5645 10.8379L35.6572 9.68652L41.7744 9.77441ZM48.4541 17.5879C48.4541 16.9316 48.5566 16.3252 48.7617 15.7686C48.9727 15.2061 49.2627 14.7197 49.6318 14.3096C50.0068 13.8994 50.4492 13.5801 50.959 13.3516C51.4746 13.1172 52.0371 13 52.6465 13C53.2383 13 53.7803 13.1113 54.2725 13.334C54.7646 13.5508 55.1924 13.8584 55.5557 14.2568C55.9189 14.6553 56.209 15.1328 56.4258 15.6895C56.6426 16.2461 56.7715 16.8613 56.8125 17.5352C56.8535 18.2559 56.7773 18.9092 56.584 19.4951C56.3965 20.0752 56.1182 20.5703 55.749 20.9805C55.3799 21.3848 54.9375 21.6982 54.4219 21.9209C53.9121 22.1436 53.3584 22.2549 52.7607 22.2549C52.1865 22.2549 51.6387 22.1523 51.1172 21.9473C50.6016 21.7363 50.1445 21.4316 49.7461 21.0332C49.3535 20.6348 49.04 20.1484 48.8057 19.5742C48.5713 18.9941 48.4541 18.332 48.4541 17.5879ZM50.6162 17.7373C50.6162 18.2529 50.6895 18.7188 50.8359 19.1348C50.9824 19.5508 51.1787 19.9053 51.4248 20.1982C51.6709 20.4854 51.9551 20.708 52.2773 20.8662C52.5996 21.0244 52.9395 21.1035 53.2969 21.1035C53.6543 21.1035 53.9883 21.0273 54.2988 20.875C54.6094 20.7168 54.8789 20.4971 55.1074 20.2158C55.3359 19.9287 55.5146 19.5859 55.6436 19.1875C55.7725 18.7891 55.8369 18.3467 55.8369 17.8604C55.8369 17.3799 55.7725 16.9287 55.6436 16.5068C55.5146 16.0791 55.333 15.707 55.0986 15.3906C54.8701 15.0742 54.5977 14.8252 54.2812 14.6436C53.9648 14.4619 53.6191 14.3711 53.2441 14.3711C52.9102 14.3711 52.585 14.4473 52.2686 14.5996C51.958 14.752 51.6797 14.9746 51.4336 15.2676C51.1875 15.5547 50.9883 15.9062 50.8359 16.3223C50.6895 16.7383 50.6162 17.21 50.6162 17.7373ZM57.252 22.0879L58.4033 20.7959L59.001 14.8369L57.1465 13.501L60.1348 13.7031V14.5996C60.3574 14.3008 60.5889 14.0693 60.8291 13.9053C61.0752 13.7412 61.3008 13.6211 61.5059 13.5449C61.7461 13.457 61.9834 13.4072 62.2178 13.3955C62.6338 13.3955 63.0117 13.4805 63.3516 13.6504C63.6914 13.8203 63.9609 14.0547 64.1602 14.3535C64.4062 14.0605 64.6875 13.8291 65.0039 13.6592C65.3203 13.4834 65.6631 13.3955 66.0322 13.3955C66.3662 13.3955 66.6768 13.4717 66.9639 13.624C67.251 13.7764 67.4971 13.9902 67.7021 14.2656C67.9131 14.541 68.0771 14.8779 68.1943 15.2764C68.3174 15.6689 68.3789 16.1055 68.3789 16.5859C68.3789 16.9316 68.3555 17.292 68.3086 17.667C68.2676 18.042 68.209 18.4141 68.1328 18.7832C68.0625 19.1523 67.9746 19.5127 67.8691 19.8643C67.7637 20.21 67.6494 20.5322 67.5264 20.8311L68.7744 21.3848L64.415 22.2021L66.3398 20.6641C66.4336 20.0312 66.4922 19.4541 66.5156 18.9326C66.5449 18.4053 66.5596 17.957 66.5596 17.5879C66.5596 16.6445 66.4453 15.959 66.2168 15.5312C65.9941 15.1035 65.6748 14.8896 65.2588 14.8896C65.0068 14.8896 64.7549 14.9805 64.5029 15.1621C64.5381 15.3027 64.5557 15.4521 64.5557 15.6104C64.5557 15.9678 64.5264 16.3369 64.4678 16.7178C64.415 17.0986 64.3447 17.4736 64.2568 17.8428C64.1689 18.2119 64.0693 18.5693 63.958 18.915C63.8467 19.2607 63.7354 19.5742 63.624 19.8555L64.8633 20.8311H61.3213L62.5078 19.873C62.5781 19.3281 62.6279 18.7715 62.6572 18.2031C62.6865 17.6289 62.7012 17.0898 62.7012 16.5859C62.7012 15.9883 62.6309 15.5195 62.4902 15.1797C62.3555 14.8398 62.1094 14.6699 61.752 14.6699C61.5703 14.6699 61.4004 14.7051 61.2422 14.7754C61.0898 14.8457 60.9463 14.9395 60.8115 15.0566C60.6826 15.1738 60.5596 15.3086 60.4424 15.4609C60.3311 15.6133 60.2285 15.7715 60.1348 15.9355V20.7256L61.6113 21.7803L57.252 22.0879ZM71.7275 18.7744C71.8037 19.1025 71.9062 19.4248 72.0352 19.7412C72.1641 20.0518 72.3223 20.3301 72.5098 20.5762C72.6973 20.8223 72.9141 21.0215 73.1602 21.1738C73.4062 21.3262 73.6846 21.4023 73.9951 21.4023C74.4053 21.4023 74.7627 21.3174 75.0674 21.1475C75.3721 20.9775 75.6211 20.7637 75.8145 20.5059C76.0078 20.2422 76.1426 19.9551 76.2188 19.6445C76.2949 19.3281 76.3096 19.0264 76.2627 18.7393C76.4268 18.8037 76.5615 18.8887 76.667 18.9941C76.7783 19.0996 76.8633 19.2168 76.9219 19.3457C76.9863 19.4688 77.0303 19.5977 77.0537 19.7324C77.0771 19.8613 77.0889 19.9873 77.0889 20.1104C77.0889 20.3916 77.0068 20.6641 76.8428 20.9277C76.6787 21.1855 76.4473 21.417 76.1484 21.6221C75.8555 21.8213 75.5068 21.9824 75.1025 22.1055C74.6982 22.2285 74.2559 22.29 73.7754 22.29C73.1309 22.29 72.5537 22.1641 72.0439 21.9121C71.54 21.6602 71.1123 21.3203 70.7607 20.8926C70.4092 20.459 70.1396 19.9521 69.9521 19.3721C69.7646 18.792 69.6709 18.1738 69.6709 17.5176C69.6709 16.8496 69.7646 16.2344 69.9521 15.6719C70.1396 15.1035 70.415 14.6201 70.7783 14.2217C71.1475 13.8232 71.5986 13.5215 72.1318 13.3164C72.665 13.1113 73.2803 13.0293 73.9775 13.0703C74.458 13.1055 74.9004 13.2432 75.3047 13.4834C75.709 13.7236 76.0605 14.0342 76.3594 14.415C76.6641 14.79 76.9072 15.2207 77.0889 15.707C77.2764 16.1934 77.3906 16.7002 77.4316 17.2275L71.7275 18.7744ZM71.5605 17.3594C71.5605 17.4414 71.5605 17.5234 71.5605 17.6055C71.5605 17.6816 71.5664 17.7607 71.5781 17.8428L75.4365 16.4365C75.3076 16.0146 75.1611 15.6543 74.9971 15.3555C74.8389 15.0508 74.6719 14.8018 74.4961 14.6084C74.3203 14.415 74.1416 14.2744 73.96 14.1865C73.7842 14.0928 73.6143 14.0459 73.4502 14.0459C73.2041 14.0459 72.9873 14.0928 72.7998 14.1865C72.6123 14.2803 72.4482 14.4092 72.3076 14.5732C72.1729 14.7314 72.0557 14.9189 71.9561 15.1357C71.8623 15.3525 71.7861 15.584 71.7275 15.8301C71.6689 16.0762 71.625 16.3311 71.5957 16.5947C71.5723 16.8525 71.5605 17.1074 71.5605 17.3594ZM86.4756 18.2383V20.7783L88.6904 21.877H82.1514L84.3311 20.5762L84.9463 11.541L82.3184 9.94141C82.623 9.89453 82.9336 9.85645 83.25 9.82715C83.5723 9.79785 83.8887 9.77734 84.1992 9.76562C84.5156 9.74805 84.8203 9.73633 85.1133 9.73047C85.4121 9.72461 85.6904 9.72168 85.9482 9.72168C86.5342 9.72168 87.1172 9.74219 87.6973 9.7832C88.2773 9.82422 88.8311 9.90332 89.3584 10.0205C89.8916 10.1318 90.3838 10.2871 90.835 10.4863C91.292 10.6855 91.6875 10.9434 92.0215 11.2598C92.3555 11.5703 92.6162 11.9482 92.8037 12.3936C92.9971 12.8389 93.0938 13.3604 93.0938 13.958C93.0938 14.5029 93.0059 14.9863 92.8301 15.4082C92.6602 15.8301 92.4258 16.2021 92.127 16.5244C91.834 16.8408 91.4883 17.1074 91.0898 17.3242C90.6914 17.541 90.2695 17.7197 89.8242 17.8604C89.3789 17.9951 88.9219 18.0918 88.4531 18.1504C87.9844 18.209 87.5273 18.2383 87.082 18.2383H86.4756ZM86.4756 10.8906V17.3594C87.1611 17.3594 87.7412 17.292 88.2158 17.1572C88.6904 17.0225 89.0859 16.8525 89.4023 16.6475C89.7188 16.4365 89.9648 16.2051 90.1406 15.9531C90.3223 15.6953 90.457 15.4492 90.5449 15.2148C90.6328 14.9746 90.6855 14.7607 90.7031 14.5732C90.7266 14.3799 90.7383 14.2393 90.7383 14.1514C90.7383 14.0342 90.7266 13.873 90.7031 13.668C90.6855 13.457 90.6357 13.2314 90.5537 12.9912C90.4717 12.751 90.3486 12.5078 90.1846 12.2617C90.0205 12.0098 89.792 11.7842 89.499 11.585C89.2061 11.3799 88.8398 11.2129 88.4004 11.084C87.9668 10.9551 87.4395 10.8906 86.8184 10.8906H86.4756ZM101.443 16.5244C101.443 16.835 101.426 17.1689 101.391 17.5264C101.355 17.8838 101.303 18.2471 101.232 18.6162C101.168 18.9854 101.089 19.3486 100.995 19.7061C100.907 20.0576 100.811 20.3828 100.705 20.6816L102.577 22L99.2637 21.8594L99.4658 20.7783C99.1143 21.2178 98.707 21.5547 98.2441 21.7891C97.7871 22.0176 97.2568 22.1553 96.6533 22.2021C96.1611 22.2373 95.7305 22.2021 95.3613 22.0967C94.998 21.9971 94.6934 21.8418 94.4473 21.6309C94.207 21.4141 94.0283 21.1504 93.9111 20.8398C93.7939 20.5234 93.7354 20.1719 93.7354 19.7852C93.7354 19.4277 93.8232 19.082 93.999 18.748C94.1748 18.4082 94.4268 18.1094 94.7549 17.8516C95.0889 17.5938 95.4961 17.3887 95.9766 17.2363C96.457 17.0781 97.002 16.999 97.6113 16.999C97.8926 16.999 98.2148 17.0254 98.5781 17.0781C98.9473 17.1309 99.2959 17.2422 99.624 17.4121C99.5947 17.0547 99.5391 16.6914 99.457 16.3223C99.3809 15.9473 99.2666 15.6074 99.1143 15.3027C98.9619 14.998 98.7627 14.752 98.5166 14.5645C98.2764 14.3711 97.9746 14.2744 97.6113 14.2744C97.3008 14.2744 96.999 14.3389 96.7061 14.4678C96.4131 14.5967 96.1377 14.7812 95.8799 15.0215C95.6279 15.2617 95.3994 15.5547 95.1943 15.9004C94.9893 16.2461 94.8164 16.6357 94.6758 17.0693L93.9375 12.7627L95.0537 14.4766C95.3291 14.1367 95.6074 13.8672 95.8887 13.668C96.1699 13.4629 96.4482 13.3076 96.7236 13.2021C97.0049 13.0908 97.2744 13.0176 97.5322 12.9824C97.7959 12.9473 98.0479 12.9297 98.2881 12.9297C98.7393 12.9531 99.1553 13.0469 99.5361 13.2109C99.9229 13.3691 100.257 13.6006 100.538 13.9053C100.819 14.2041 101.039 14.5732 101.197 15.0127C101.361 15.4521 101.443 15.9561 101.443 16.5244ZM99.624 19.3369C99.6357 19.1729 99.6445 19.0146 99.6504 18.8623C99.6562 18.71 99.6592 18.5605 99.6592 18.4141V18.3086C99.4482 18.2266 99.2344 18.165 99.0176 18.124C98.8066 18.0771 98.6104 18.0449 98.4287 18.0273C98.2471 18.0039 98.0918 17.9922 97.9629 17.9922C97.8398 17.9863 97.7578 17.9834 97.7168 17.9834C97.3828 17.9951 97.0928 18.0566 96.8467 18.168C96.6006 18.2793 96.3955 18.4199 96.2314 18.5898C96.0732 18.7539 95.9531 18.9385 95.8711 19.1436C95.7949 19.3486 95.7568 19.5508 95.7568 19.75C95.7568 20.2012 95.8652 20.5439 96.082 20.7783C96.3047 21.0068 96.627 21.1211 97.0488 21.1211C97.3301 21.1211 97.5967 21.0713 97.8486 20.9717C98.1006 20.8721 98.335 20.7402 98.5518 20.5762C98.7744 20.4062 98.9736 20.2158 99.1494 20.0049C99.3311 19.7881 99.4893 19.5654 99.624 19.3369ZM112.324 12.9473L110.654 14.4062C110.719 14.8926 110.766 15.3848 110.795 15.8828C110.83 16.375 110.848 16.8672 110.848 17.3594C110.848 18.4961 110.789 19.5479 110.672 20.5146C110.561 21.4756 110.353 22.3047 110.048 23.002C109.749 23.6992 109.333 24.2441 108.8 24.6367C108.267 25.0293 107.581 25.2256 106.743 25.2256C106.585 25.2256 106.421 25.2021 106.251 25.1553C106.087 25.1143 105.926 25.0586 105.768 24.9883C105.615 24.918 105.469 24.8389 105.328 24.751C105.188 24.6631 105.062 24.5752 104.95 24.4873L103.922 25.6387L103.685 21.8242C103.989 22.3691 104.291 22.7939 104.59 23.0986C104.895 23.4092 105.176 23.6406 105.434 23.793C105.691 23.9512 105.923 24.0479 106.128 24.083C106.333 24.124 106.491 24.1445 106.603 24.1445C106.743 24.1445 106.887 24.1357 107.033 24.1182C107.186 24.1064 107.332 24.0684 107.473 24.0039C107.619 23.9395 107.76 23.8369 107.895 23.6963C108.035 23.5615 108.164 23.374 108.281 23.1338C108.404 22.8936 108.513 22.5889 108.606 22.2197C108.706 21.8564 108.788 21.4111 108.853 20.8838C108.712 21.0889 108.557 21.2822 108.387 21.4639C108.217 21.6396 108.026 21.7949 107.815 21.9297C107.61 22.0586 107.388 22.1611 107.147 22.2373C106.907 22.3193 106.646 22.3604 106.365 22.3604C105.914 22.3486 105.483 22.2461 105.073 22.0527C104.669 21.8594 104.312 21.584 104.001 21.2266C103.696 20.8633 103.453 20.4209 103.271 19.8994C103.09 19.3721 102.999 18.7715 102.999 18.0977C102.999 17.2773 103.096 16.5566 103.289 15.9355C103.482 15.3145 103.746 14.7959 104.08 14.3799C104.414 13.9639 104.804 13.6562 105.249 13.457C105.7 13.252 106.181 13.1582 106.69 13.1758C107.171 13.1992 107.59 13.3164 107.947 13.5273C108.305 13.7324 108.606 13.9873 108.853 14.292C108.841 14.1514 108.826 14.0049 108.809 13.8525C108.797 13.7002 108.782 13.542 108.765 13.3779L112.324 12.9473ZM109.011 17.9131C109.011 17.5674 109.005 17.2217 108.993 16.876C108.987 16.5244 108.976 16.1553 108.958 15.7686C108.864 15.5811 108.756 15.4023 108.633 15.2324C108.516 15.0566 108.384 14.9043 108.237 14.7754C108.097 14.6465 107.944 14.5439 107.78 14.4678C107.622 14.3916 107.452 14.3535 107.271 14.3535C106.866 14.3535 106.521 14.4531 106.233 14.6523C105.952 14.8516 105.718 15.127 105.53 15.4785C105.349 15.8301 105.214 16.2461 105.126 16.7266C105.044 17.207 105.003 17.7285 105.003 18.291C105.003 18.707 105.038 19.0967 105.108 19.46C105.179 19.8174 105.281 20.1279 105.416 20.3916C105.551 20.6553 105.721 20.8633 105.926 21.0156C106.131 21.168 106.368 21.2441 106.638 21.2441C106.655 21.2441 106.708 21.2412 106.796 21.2354C106.884 21.2236 106.992 21.1973 107.121 21.1562C107.256 21.1094 107.405 21.0449 107.569 20.9629C107.733 20.8809 107.9 20.7666 108.07 20.6201C108.24 20.4736 108.404 20.292 108.562 20.0752C108.721 19.8525 108.864 19.583 108.993 19.2666C109.005 19.0615 109.011 18.8477 109.011 18.625C109.011 18.3965 109.011 18.1592 109.011 17.9131ZM114.513 18.7744C114.589 19.1025 114.691 19.4248 114.82 19.7412C114.949 20.0518 115.107 20.3301 115.295 20.5762C115.482 20.8223 115.699 21.0215 115.945 21.1738C116.191 21.3262 116.47 21.4023 116.78 21.4023C117.19 21.4023 117.548 21.3174 117.853 21.1475C118.157 20.9775 118.406 20.7637 118.6 20.5059C118.793 20.2422 118.928 19.9551 119.004 19.6445C119.08 19.3281 119.095 19.0264 119.048 18.7393C119.212 18.8037 119.347 18.8887 119.452 18.9941C119.563 19.0996 119.648 19.2168 119.707 19.3457C119.771 19.4688 119.815 19.5977 119.839 19.7324C119.862 19.8613 119.874 19.9873 119.874 20.1104C119.874 20.3916 119.792 20.6641 119.628 20.9277C119.464 21.1855 119.232 21.417 118.934 21.6221C118.641 21.8213 118.292 21.9824 117.888 22.1055C117.483 22.2285 117.041 22.29 116.561 22.29C115.916 22.29 115.339 22.1641 114.829 21.9121C114.325 21.6602 113.897 21.3203 113.546 20.8926C113.194 20.459 112.925 19.9521 112.737 19.3721C112.55 18.792 112.456 18.1738 112.456 17.5176C112.456 16.8496 112.55 16.2344 112.737 15.6719C112.925 15.1035 113.2 14.6201 113.563 14.2217C113.933 13.8232 114.384 13.5215 114.917 13.3164C115.45 13.1113 116.065 13.0293 116.763 13.0703C117.243 13.1055 117.686 13.2432 118.09 13.4834C118.494 13.7236 118.846 14.0342 119.145 14.415C119.449 14.79 119.692 15.2207 119.874 15.707C120.062 16.1934 120.176 16.7002 120.217 17.2275L114.513 18.7744ZM114.346 17.3594C114.346 17.4414 114.346 17.5234 114.346 17.6055C114.346 17.6816 114.352 17.7607 114.363 17.8428L118.222 16.4365C118.093 16.0146 117.946 15.6543 117.782 15.3555C117.624 15.0508 117.457 14.8018 117.281 14.6084C117.105 14.415 116.927 14.2744 116.745 14.1865C116.569 14.0928 116.399 14.0459 116.235 14.0459C115.989 14.0459 115.772 14.0928 115.585 14.1865C115.397 14.2803 115.233 14.4092 115.093 14.5732C114.958 14.7314 114.841 14.9189 114.741 15.1357C114.647 15.3525 114.571 15.584 114.513 15.8301C114.454 16.0762 114.41 16.3311 114.381 16.5947C114.357 16.8525 114.346 17.1074 114.346 17.3594Z" fill="url(#paint0_linear)"/>
<rect x="1" y="1" width="148" height="28" rx="4" stroke="url(#paint1_linear)" stroke-width="2"/>
<defs>
<linearGradient id="paint0_linear" x1="82" y1="6" x2="61.2388" y2="118.643" gradientUnits="userSpaceOnUse">
<stop stop-color="#EDDD0F"/>
<stop offset="1" stop-color="#DBBA0D" stop-opacity="0"/>
</linearGradient>
<linearGradient id="paint1_linear" x1="-9" y1="-7" x2="380" y2="80" gradientUnits="userSpaceOnUse">
<stop stop-color="#F4EB11"/>
<stop offset="0.742956" stop-color="#7C0000"/>
<stop offset="0.743056" stop-color="#DD9539" stop-opacity="0"/>
</linearGradient>
</defs>
</svg>
