<svg width="150" height="30" viewBox="0 0 150 30" fill="none" xmlns="http://www.w3.org/2000/svg">
<rect x="1" y="1" width="148" height="28" rx="4" fill="white"/>
<path d="M20.7344 19.6484L11.7578 20L13.7422 18.2734L14.2109 10.7188L12.0625 9.60156L17.2656 9.26562L15.6172 10.3828L15.7109 18.3047L19.3281 18.75L20.7344 16.1094V19.6484ZM21.4922 16.0781C21.4922 15.4948 21.5833 14.9557 21.7656 14.4609C21.9531 13.9609 22.2109 13.5286 22.5391 13.1641C22.8724 12.7995 23.2656 12.5156 23.7188 12.3125C24.1771 12.1042 24.6771 12 25.2188 12C25.7448 12 26.2266 12.099 26.6641 12.2969C27.1016 12.4896 27.4818 12.763 27.8047 13.1172C28.1276 13.4714 28.3854 13.8958 28.5781 14.3906C28.7708 14.8854 28.8854 15.4323 28.9219 16.0312C28.9583 16.6719 28.8906 17.2526 28.7188 17.7734C28.5521 18.2891 28.3047 18.7292 27.9766 19.0938C27.6484 19.4531 27.2552 19.7318 26.7969 19.9297C26.3438 20.1276 25.8516 20.2266 25.3203 20.2266C24.8099 20.2266 24.3229 20.1354 23.8594 19.9531C23.401 19.7656 22.9948 19.4948 22.6406 19.1406C22.2917 18.7865 22.013 18.3542 21.8047 17.8438C21.5964 17.3281 21.4922 16.7396 21.4922 16.0781ZM23.4141 16.2109C23.4141 16.6693 23.4792 17.0833 23.6094 17.4531C23.7396 17.8229 23.9141 18.138 24.1328 18.3984C24.3516 18.6536 24.6042 18.8516 24.8906 18.9922C25.1771 19.1328 25.4792 19.2031 25.7969 19.2031C26.1146 19.2031 26.4115 19.1354 26.6875 19C26.9635 18.8594 27.2031 18.6641 27.4062 18.4141C27.6094 18.1589 27.7682 17.8542 27.8828 17.5C27.9974 17.1458 28.0547 16.7526 28.0547 16.3203C28.0547 15.8932 27.9974 15.4922 27.8828 15.1172C27.7682 14.737 27.6068 14.4062 27.3984 14.125C27.1953 13.8438 26.9531 13.6224 26.6719 13.4609C26.3906 13.2995 26.0833 13.2188 25.75 13.2188C25.4531 13.2188 25.1641 13.2865 24.8828 13.4219C24.6068 13.5573 24.3594 13.7552 24.1406 14.0156C23.9219 14.2708 23.7448 14.5833 23.6094 14.9531C23.4792 15.3229 23.4141 15.7422 23.4141 16.2109ZM36.9453 15.1484C36.9453 15.4401 36.9323 15.7474 36.9062 16.0703C36.8802 16.3932 36.8411 16.7161 36.7891 17.0391C36.737 17.362 36.6719 17.6771 36.5938 17.9844C36.5208 18.2917 36.4349 18.5729 36.3359 18.8281L37.875 19.3281L33.8047 20.125L35.1875 19.0859C35.2969 18.6849 35.3698 18.2995 35.4062 17.9297C35.4479 17.5599 35.4688 17.2109 35.4688 16.8828C35.4688 16.6849 35.4609 16.4609 35.4453 16.2109C35.4349 15.9557 35.4062 15.6979 35.3594 15.4375C35.3177 15.1771 35.2552 14.9219 35.1719 14.6719C35.0938 14.4219 34.9896 14.2005 34.8594 14.0078C34.7292 13.8099 34.5677 13.6536 34.375 13.5391C34.1875 13.4193 33.9609 13.3594 33.6953 13.3594C33.388 13.3594 33.0755 13.4609 32.7578 13.6641C32.4401 13.8672 32.1458 14.1667 31.875 14.5625V18.8828L33.1641 19.8047L29.2969 20.0781L30.3203 18.9453L30.8672 13.2656L29.2031 12.4453L31.875 12.1797V13.3594C32.026 13.151 32.1927 12.9557 32.375 12.7734C32.5573 12.5911 32.75 12.4349 32.9531 12.3047C33.1562 12.1693 33.3672 12.0651 33.5859 11.9922C33.8099 11.9141 34.0391 11.875 34.2734 11.875C34.7266 11.875 35.1198 11.9583 35.4531 12.125C35.7865 12.2917 36.0625 12.5234 36.2812 12.8203C36.5052 13.112 36.6719 13.4583 36.7812 13.8594C36.8906 14.2552 36.9453 14.6849 36.9453 15.1484ZM46.5625 11.9531L45.0781 13.25C45.1354 13.6823 45.1771 14.1198 45.2031 14.5625C45.2344 15 45.25 15.4375 45.25 15.875C45.25 16.8854 45.1979 17.8203 45.0938 18.6797C44.9948 19.5339 44.8099 20.2708 44.5391 20.8906C44.2734 21.5104 43.9036 21.9948 43.4297 22.3438C42.9557 22.6927 42.3464 22.8672 41.6016 22.8672C41.4609 22.8672 41.3151 22.8464 41.1641 22.8047C41.0182 22.7682 40.875 22.7188 40.7344 22.6562C40.599 22.5938 40.4688 22.5234 40.3438 22.4453C40.2188 22.3672 40.1068 22.2891 40.0078 22.2109L39.0938 23.2344L38.8828 19.8438C39.1536 20.3281 39.4219 20.7057 39.6875 20.9766C39.9583 21.2526 40.2083 21.4583 40.4375 21.5938C40.6667 21.7344 40.8724 21.8203 41.0547 21.8516C41.237 21.888 41.3776 21.9062 41.4766 21.9062C41.6016 21.9062 41.7292 21.8984 41.8594 21.8828C41.9948 21.8724 42.125 21.8385 42.25 21.7812C42.3802 21.724 42.5052 21.6328 42.625 21.5078C42.75 21.388 42.8646 21.2214 42.9688 21.0078C43.0781 20.7943 43.1745 20.5234 43.2578 20.1953C43.3464 19.8724 43.4193 19.4766 43.4766 19.0078C43.3516 19.1901 43.2135 19.362 43.0625 19.5234C42.9115 19.6797 42.7422 19.8177 42.5547 19.9375C42.3724 20.0521 42.1745 20.1432 41.9609 20.2109C41.7474 20.2839 41.5156 20.3203 41.2656 20.3203C40.8646 20.3099 40.4818 20.2188 40.1172 20.0469C39.7578 19.875 39.4401 19.6302 39.1641 19.3125C38.8932 18.9896 38.6771 18.5964 38.5156 18.1328C38.3542 17.6641 38.2734 17.1302 38.2734 16.5312C38.2734 15.8021 38.3594 15.1615 38.5312 14.6094C38.7031 14.0573 38.9375 13.5964 39.2344 13.2266C39.5312 12.8568 39.8776 12.5833 40.2734 12.4062C40.6745 12.224 41.1016 12.1406 41.5547 12.1562C41.9818 12.1771 42.3542 12.2812 42.6719 12.4688C42.9896 12.651 43.2578 12.8776 43.4766 13.1484C43.4661 13.0234 43.4531 12.8932 43.4375 12.7578C43.4271 12.6224 43.4141 12.4818 43.3984 12.3359L46.5625 11.9531ZM43.6172 16.3672C43.6172 16.0599 43.612 15.7526 43.6016 15.4453C43.5964 15.1328 43.5859 14.8047 43.5703 14.4609C43.487 14.2943 43.3906 14.1354 43.2812 13.9844C43.1771 13.8281 43.0599 13.6927 42.9297 13.5781C42.8047 13.4635 42.6693 13.3724 42.5234 13.3047C42.3828 13.237 42.2318 13.2031 42.0703 13.2031C41.7109 13.2031 41.4036 13.2917 41.1484 13.4688C40.8984 13.6458 40.6901 13.8906 40.5234 14.2031C40.362 14.5156 40.2422 14.8854 40.1641 15.3125C40.0911 15.7396 40.0547 16.2031 40.0547 16.7031C40.0547 17.0729 40.0859 17.4193 40.1484 17.7422C40.2109 18.0599 40.3021 18.3359 40.4219 18.5703C40.5417 18.8047 40.6927 18.9896 40.875 19.125C41.0573 19.2604 41.2682 19.3281 41.5078 19.3281C41.5234 19.3281 41.5703 19.3255 41.6484 19.3203C41.7266 19.3099 41.8229 19.2865 41.9375 19.25C42.0573 19.2083 42.1901 19.151 42.3359 19.0781C42.4818 19.0052 42.6302 18.9036 42.7812 18.7734C42.9323 18.6432 43.0781 18.4818 43.2188 18.2891C43.3594 18.0911 43.487 17.8516 43.6016 17.5703C43.612 17.388 43.6172 17.1979 43.6172 17C43.6172 16.7969 43.6172 16.5859 43.6172 16.3672ZM59.5469 9.375L58.9375 13.9531L58.0391 10.6094L55.6406 10.8828L55.9609 18.6875L57.8984 19.6797L51.6562 20.2734L53.9297 18.625L54.3281 10.9609L51.8516 10.8672L50.8906 13.7109L50.5859 9.50781L59.5469 9.375ZM61.6953 17.1328C61.763 17.4245 61.8542 17.7109 61.9688 17.9922C62.0833 18.2682 62.224 18.5156 62.3906 18.7344C62.5573 18.9531 62.75 19.1302 62.9688 19.2656C63.1875 19.401 63.4349 19.4688 63.7109 19.4688C64.0755 19.4688 64.3932 19.3932 64.6641 19.2422C64.9349 19.0911 65.1562 18.901 65.3281 18.6719C65.5 18.4375 65.6198 18.1823 65.6875 17.9062C65.7552 17.625 65.7682 17.3568 65.7266 17.1016C65.8724 17.1589 65.9922 17.2344 66.0859 17.3281C66.1849 17.4219 66.2604 17.526 66.3125 17.6406C66.3698 17.75 66.4089 17.8646 66.4297 17.9844C66.4505 18.099 66.4609 18.2109 66.4609 18.3203C66.4609 18.5703 66.388 18.8125 66.2422 19.0469C66.0964 19.276 65.8906 19.4818 65.625 19.6641C65.3646 19.8411 65.0547 19.9844 64.6953 20.0938C64.3359 20.2031 63.9427 20.2578 63.5156 20.2578C62.9427 20.2578 62.4297 20.1458 61.9766 19.9219C61.5286 19.6979 61.1484 19.3958 60.8359 19.0156C60.5234 18.6302 60.2839 18.1797 60.1172 17.6641C59.9505 17.1484 59.8672 16.599 59.8672 16.0156C59.8672 15.4219 59.9505 14.875 60.1172 14.375C60.2839 13.8698 60.5286 13.4401 60.8516 13.0859C61.1797 12.7318 61.5807 12.4635 62.0547 12.2812C62.5286 12.099 63.0755 12.026 63.6953 12.0625C64.1224 12.0938 64.5156 12.2161 64.875 12.4297C65.2344 12.6432 65.5469 12.9193 65.8125 13.2578C66.0833 13.5911 66.2995 13.974 66.4609 14.4062C66.6276 14.8385 66.7292 15.2891 66.7656 15.7578L61.6953 17.1328ZM61.5469 15.875C61.5469 15.9479 61.5469 16.0208 61.5469 16.0938C61.5469 16.1615 61.5521 16.2318 61.5625 16.3047L64.9922 15.0547C64.8776 14.6797 64.7474 14.3594 64.6016 14.0938C64.4609 13.8229 64.3125 13.6016 64.1562 13.4297C64 13.2578 63.8411 13.1328 63.6797 13.0547C63.5234 12.9714 63.3724 12.9297 63.2266 12.9297C63.0078 12.9297 62.8151 12.9714 62.6484 13.0547C62.4818 13.138 62.3359 13.2526 62.2109 13.3984C62.0911 13.5391 61.987 13.7057 61.8984 13.8984C61.8151 14.0911 61.7474 14.2969 61.6953 14.5156C61.6432 14.7344 61.6042 14.9609 61.5781 15.1953C61.5573 15.4245 61.5469 15.651 61.5469 15.875ZM70.6094 12.0469C70.8073 12.0469 71.0078 12.0651 71.2109 12.1016C71.4141 12.1328 71.612 12.1823 71.8047 12.25C72.0026 12.3125 72.1875 12.3906 72.3594 12.4844C72.5365 12.5729 72.6953 12.6719 72.8359 12.7812L74.1172 11.2031L73.5391 15.1016C73.4766 14.8307 73.3672 14.5651 73.2109 14.3047C73.0547 14.0391 72.8594 13.8021 72.625 13.5938C72.3958 13.3854 72.1302 13.2188 71.8281 13.0938C71.526 12.9635 71.1953 12.8984 70.8359 12.8984C70.638 12.8984 70.4479 12.9219 70.2656 12.9688C70.0833 13.0104 69.9219 13.0807 69.7812 13.1797C69.6458 13.2786 69.5365 13.4036 69.4531 13.5547C69.375 13.7057 69.3359 13.8854 69.3359 14.0938C69.3359 14.3438 69.4036 14.5469 69.5391 14.7031C69.6797 14.8594 69.862 14.9922 70.0859 15.1016C70.3099 15.2057 70.5651 15.2969 70.8516 15.375C71.138 15.4479 71.4323 15.526 71.7344 15.6094C72.0365 15.6927 72.3307 15.7917 72.6172 15.9062C72.9036 16.0156 73.1589 16.1589 73.3828 16.3359C73.6068 16.513 73.7865 16.7344 73.9219 17C74.0625 17.2604 74.1328 17.5833 74.1328 17.9688C74.1328 18.401 74.0469 18.7708 73.875 19.0781C73.7083 19.3802 73.4922 19.6302 73.2266 19.8281C72.9609 20.0208 72.6667 20.1615 72.3438 20.25C72.0208 20.3385 71.7057 20.3828 71.3984 20.3828C71.1484 20.3828 70.8984 20.3568 70.6484 20.3047C70.3984 20.2526 70.1562 20.1797 69.9219 20.0859C69.6875 19.9922 69.4635 19.8802 69.25 19.75C69.0417 19.6198 68.8516 19.4792 68.6797 19.3281L67.4922 20.9141L67.8594 17.0391C68.026 17.3932 68.2266 17.724 68.4609 18.0312C68.6953 18.3385 68.9557 18.6068 69.2422 18.8359C69.5286 19.0599 69.8359 19.237 70.1641 19.3672C70.4922 19.4922 70.8333 19.5547 71.1875 19.5547C71.599 19.5547 71.9271 19.4688 72.1719 19.2969C72.4219 19.1198 72.5469 18.8698 72.5469 18.5469C72.5469 18.3385 72.4766 18.1667 72.3359 18.0312C72.2005 17.8906 72.0182 17.7682 71.7891 17.6641C71.5651 17.5599 71.3099 17.4661 71.0234 17.3828C70.737 17.2995 70.4427 17.2083 70.1406 17.1094C69.8385 17.0104 69.5443 16.8958 69.2578 16.7656C68.9714 16.6302 68.7135 16.4635 68.4844 16.2656C68.2604 16.0625 68.0781 15.8177 67.9375 15.5312C67.8021 15.2396 67.7344 14.888 67.7344 14.4766C67.7344 14.1224 67.7865 13.8151 67.8906 13.5547C67.9948 13.2943 68.1302 13.0755 68.2969 12.8984C68.4688 12.7161 68.6589 12.5703 68.8672 12.4609C69.0807 12.3464 69.2943 12.2604 69.5078 12.2031C69.7214 12.1406 69.9245 12.099 70.1172 12.0781C70.3099 12.0573 70.474 12.0469 70.6094 12.0469ZM75.5547 16.5781C75.5547 16.0885 75.6042 15.6016 75.7031 15.1172C75.8073 14.6276 75.9193 14.1797 76.0391 13.7734L74.6875 13.8594L78.5 9.69531C78.1979 10.6484 77.9531 11.5078 77.7656 12.2734L80.8047 12.5312L80.4062 13.4688L77.4609 13.6797C77.388 14.0599 77.3307 14.3984 77.2891 14.6953C77.2526 14.987 77.2214 15.2344 77.1953 15.4375C77.1693 15.6771 77.151 15.8854 77.1406 16.0625C77.1406 16.5833 77.1719 17.0521 77.2344 17.4688C77.2969 17.8854 77.3932 18.2422 77.5234 18.5391C77.6589 18.8307 77.8281 19.0573 78.0312 19.2188C78.2396 19.375 78.487 19.4531 78.7734 19.4531C79.0391 19.4531 79.2604 19.401 79.4375 19.2969C79.6198 19.1875 79.7656 19.0495 79.875 18.8828C79.9844 18.7109 80.0625 18.5208 80.1094 18.3125C80.1562 18.099 80.1797 17.888 80.1797 17.6797C80.1797 17.487 80.1641 17.2995 80.1328 17.1172C80.3568 17.2318 80.526 17.4167 80.6406 17.6719C80.7604 17.9219 80.8203 18.1953 80.8203 18.4922C80.8203 18.7995 80.7682 19.0703 80.6641 19.3047C80.5651 19.5391 80.4271 19.737 80.25 19.8984C80.0729 20.0547 79.8646 20.1745 79.625 20.2578C79.3854 20.3411 79.1276 20.3828 78.8516 20.3828C78.6849 20.3828 78.487 20.3646 78.2578 20.3281C78.0339 20.2917 77.7995 20.224 77.5547 20.125C77.3099 20.0312 77.0677 19.8958 76.8281 19.7188C76.5885 19.5417 76.375 19.3125 76.1875 19.0312C76 18.75 75.8464 18.4089 75.7266 18.0078C75.612 17.6016 75.5547 17.125 75.5547 16.5781ZM91.5625 8.94531L93.9141 18.3828L95.7734 18.6562L91.375 20.5312L92.875 18.625L92 16.4453L87.9688 16.5781L87.1484 18.8984L88.6562 20.8828L83.9844 19.0391L86.2812 18.8125L86.9375 16.6094H86.5547L85.8984 15.7734L87.2266 15.6328L88.6406 10.9141L87.0391 10.0781L91.5625 8.94531ZM88.3359 15.5078L91.4531 15.1484L89.8516 11.1875L88.3359 15.5078ZM98.5312 12.0469C98.7292 12.0469 98.9297 12.0651 99.1328 12.1016C99.3359 12.1328 99.5339 12.1823 99.7266 12.25C99.9245 12.3125 100.109 12.3906 100.281 12.4844C100.458 12.5729 100.617 12.6719 100.758 12.7812L102.039 11.2031L101.461 15.1016C101.398 14.8307 101.289 14.5651 101.133 14.3047C100.977 14.0391 100.781 13.8021 100.547 13.5938C100.318 13.3854 100.052 13.2188 99.75 13.0938C99.4479 12.9635 99.1172 12.8984 98.7578 12.8984C98.5599 12.8984 98.3698 12.9219 98.1875 12.9688C98.0052 13.0104 97.8438 13.0807 97.7031 13.1797C97.5677 13.2786 97.4583 13.4036 97.375 13.5547C97.2969 13.7057 97.2578 13.8854 97.2578 14.0938C97.2578 14.3438 97.3255 14.5469 97.4609 14.7031C97.6016 14.8594 97.7839 14.9922 98.0078 15.1016C98.2318 15.2057 98.487 15.2969 98.7734 15.375C99.0599 15.4479 99.3542 15.526 99.6562 15.6094C99.9583 15.6927 100.253 15.7917 100.539 15.9062C100.826 16.0156 101.081 16.1589 101.305 16.3359C101.529 16.513 101.708 16.7344 101.844 17C101.984 17.2604 102.055 17.5833 102.055 17.9688C102.055 18.401 101.969 18.7708 101.797 19.0781C101.63 19.3802 101.414 19.6302 101.148 19.8281C100.883 20.0208 100.589 20.1615 100.266 20.25C99.9427 20.3385 99.6276 20.3828 99.3203 20.3828C99.0703 20.3828 98.8203 20.3568 98.5703 20.3047C98.3203 20.2526 98.0781 20.1797 97.8438 20.0859C97.6094 19.9922 97.3854 19.8802 97.1719 19.75C96.9635 19.6198 96.7734 19.4792 96.6016 19.3281L95.4141 20.9141L95.7812 17.0391C95.9479 17.3932 96.1484 17.724 96.3828 18.0312C96.6172 18.3385 96.8776 18.6068 97.1641 18.8359C97.4505 19.0599 97.7578 19.237 98.0859 19.3672C98.4141 19.4922 98.7552 19.5547 99.1094 19.5547C99.5208 19.5547 99.849 19.4688 100.094 19.2969C100.344 19.1198 100.469 18.8698 100.469 18.5469C100.469 18.3385 100.398 18.1667 100.258 18.0312C100.122 17.8906 99.9401 17.7682 99.7109 17.6641C99.487 17.5599 99.2318 17.4661 98.9453 17.3828C98.6589 17.2995 98.3646 17.2083 98.0625 17.1094C97.7604 17.0104 97.4661 16.8958 97.1797 16.7656C96.8932 16.6302 96.6354 16.4635 96.4062 16.2656C96.1823 16.0625 96 15.8177 95.8594 15.5312C95.724 15.2396 95.6562 14.888 95.6562 14.4766C95.6562 14.1224 95.7083 13.8151 95.8125 13.5547C95.9167 13.2943 96.0521 13.0755 96.2188 12.8984C96.3906 12.7161 96.5807 12.5703 96.7891 12.4609C97.0026 12.3464 97.2161 12.2604 97.4297 12.2031C97.6432 12.1406 97.8464 12.099 98.0391 12.0781C98.2318 12.0573 98.3958 12.0469 98.5312 12.0469ZM105.969 12.0469C106.167 12.0469 106.367 12.0651 106.57 12.1016C106.773 12.1328 106.971 12.1823 107.164 12.25C107.362 12.3125 107.547 12.3906 107.719 12.4844C107.896 12.5729 108.055 12.6719 108.195 12.7812L109.477 11.2031L108.898 15.1016C108.836 14.8307 108.727 14.5651 108.57 14.3047C108.414 14.0391 108.219 13.8021 107.984 13.5938C107.755 13.3854 107.49 13.2188 107.188 13.0938C106.885 12.9635 106.555 12.8984 106.195 12.8984C105.997 12.8984 105.807 12.9219 105.625 12.9688C105.443 13.0104 105.281 13.0807 105.141 13.1797C105.005 13.2786 104.896 13.4036 104.812 13.5547C104.734 13.7057 104.695 13.8854 104.695 14.0938C104.695 14.3438 104.763 14.5469 104.898 14.7031C105.039 14.8594 105.221 14.9922 105.445 15.1016C105.669 15.2057 105.924 15.2969 106.211 15.375C106.497 15.4479 106.792 15.526 107.094 15.6094C107.396 15.6927 107.69 15.7917 107.977 15.9062C108.263 16.0156 108.518 16.1589 108.742 16.3359C108.966 16.513 109.146 16.7344 109.281 17C109.422 17.2604 109.492 17.5833 109.492 17.9688C109.492 18.401 109.406 18.7708 109.234 19.0781C109.068 19.3802 108.852 19.6302 108.586 19.8281C108.32 20.0208 108.026 20.1615 107.703 20.25C107.38 20.3385 107.065 20.3828 106.758 20.3828C106.508 20.3828 106.258 20.3568 106.008 20.3047C105.758 20.2526 105.516 20.1797 105.281 20.0859C105.047 19.9922 104.823 19.8802 104.609 19.75C104.401 19.6198 104.211 19.4792 104.039 19.3281L102.852 20.9141L103.219 17.0391C103.385 17.3932 103.586 17.724 103.82 18.0312C104.055 18.3385 104.315 18.6068 104.602 18.8359C104.888 19.0599 105.195 19.237 105.523 19.3672C105.852 19.4922 106.193 19.5547 106.547 19.5547C106.958 19.5547 107.286 19.4688 107.531 19.2969C107.781 19.1198 107.906 18.8698 107.906 18.5469C107.906 18.3385 107.836 18.1667 107.695 18.0312C107.56 17.8906 107.378 17.7682 107.148 17.6641C106.924 17.5599 106.669 17.4661 106.383 17.3828C106.096 17.2995 105.802 17.2083 105.5 17.1094C105.198 17.0104 104.904 16.8958 104.617 16.7656C104.331 16.6302 104.073 16.4635 103.844 16.2656C103.62 16.0625 103.438 15.8177 103.297 15.5312C103.161 15.2396 103.094 14.888 103.094 14.4766C103.094 14.1224 103.146 13.8151 103.25 13.5547C103.354 13.2943 103.49 13.0755 103.656 12.8984C103.828 12.7161 104.018 12.5703 104.227 12.4609C104.44 12.3464 104.654 12.2604 104.867 12.2031C105.081 12.1406 105.284 12.099 105.477 12.0781C105.669 12.0573 105.833 12.0469 105.969 12.0469ZM109.906 20.0781L110.93 18.9297L111.461 13.6328L109.812 12.4453L112.469 12.625V13.4219C112.667 13.1562 112.872 12.9505 113.086 12.8047C113.305 12.6589 113.505 12.5521 113.688 12.4844C113.901 12.4062 114.112 12.362 114.32 12.3516C114.69 12.3516 115.026 12.4271 115.328 12.5781C115.63 12.7292 115.87 12.9375 116.047 13.2031C116.266 12.9427 116.516 12.737 116.797 12.5859C117.078 12.4297 117.383 12.3516 117.711 12.3516C118.008 12.3516 118.284 12.4193 118.539 12.5547C118.794 12.6901 119.013 12.8802 119.195 13.125C119.383 13.3698 119.529 13.6693 119.633 14.0234C119.742 14.3724 119.797 14.7604 119.797 15.1875C119.797 15.4948 119.776 15.8151 119.734 16.1484C119.698 16.4818 119.646 16.8125 119.578 17.1406C119.516 17.4688 119.438 17.7891 119.344 18.1016C119.25 18.4089 119.148 18.6953 119.039 18.9609L120.148 19.4531L116.273 20.1797L117.984 18.8125C118.068 18.25 118.12 17.737 118.141 17.2734C118.167 16.8047 118.18 16.4062 118.18 16.0781C118.18 15.2396 118.078 14.6302 117.875 14.25C117.677 13.8698 117.393 13.6797 117.023 13.6797C116.799 13.6797 116.576 13.7604 116.352 13.9219C116.383 14.0469 116.398 14.1797 116.398 14.3203C116.398 14.638 116.372 14.9661 116.32 15.3047C116.273 15.6432 116.211 15.9766 116.133 16.3047C116.055 16.6328 115.966 16.9505 115.867 17.2578C115.768 17.5651 115.669 17.8438 115.57 18.0938L116.672 18.9609H113.523L114.578 18.1094C114.641 17.625 114.685 17.1302 114.711 16.625C114.737 16.1146 114.75 15.6354 114.75 15.1875C114.75 14.6562 114.688 14.2396 114.562 13.9375C114.443 13.6354 114.224 13.4844 113.906 13.4844C113.745 13.4844 113.594 13.5156 113.453 13.5781C113.318 13.6406 113.19 13.724 113.07 13.8281C112.956 13.9323 112.846 14.0521 112.742 14.1875C112.643 14.3229 112.552 14.4635 112.469 14.6094V18.8672L113.781 19.8047L109.906 20.0781ZM128.117 15.1484C128.117 15.4401 128.104 15.7474 128.078 16.0703C128.052 16.3932 128.013 16.7161 127.961 17.0391C127.909 17.362 127.844 17.6771 127.766 17.9844C127.693 18.2917 127.607 18.5729 127.508 18.8281L129.047 19.3281L124.977 20.125L126.359 19.0859C126.469 18.6849 126.542 18.2995 126.578 17.9297C126.62 17.5599 126.641 17.2109 126.641 16.8828C126.641 16.6849 126.633 16.4609 126.617 16.2109C126.607 15.9557 126.578 15.6979 126.531 15.4375C126.49 15.1771 126.427 14.9219 126.344 14.6719C126.266 14.4219 126.161 14.2005 126.031 14.0078C125.901 13.8099 125.74 13.6536 125.547 13.5391C125.359 13.4193 125.133 13.3594 124.867 13.3594C124.56 13.3594 124.247 13.4609 123.93 13.6641C123.612 13.8672 123.318 14.1667 123.047 14.5625V18.8828L124.336 19.8047L120.469 20.0781L121.492 18.9453L122.039 13.2656L120.375 12.4453L123.047 12.1797V13.3594C123.198 13.151 123.365 12.9557 123.547 12.7734C123.729 12.5911 123.922 12.4349 124.125 12.3047C124.328 12.1693 124.539 12.0651 124.758 11.9922C124.982 11.9141 125.211 11.875 125.445 11.875C125.898 11.875 126.292 11.9583 126.625 12.125C126.958 12.2917 127.234 12.5234 127.453 12.8203C127.677 13.112 127.844 13.4583 127.953 13.8594C128.062 14.2552 128.117 14.6849 128.117 15.1484ZM129.961 16.5781C129.961 16.0885 130.01 15.6016 130.109 15.1172C130.214 14.6276 130.326 14.1797 130.445 13.7734L129.094 13.8594L132.906 9.69531C132.604 10.6484 132.359 11.5078 132.172 12.2734L135.211 12.5312L134.812 13.4688L131.867 13.6797C131.794 14.0599 131.737 14.3984 131.695 14.6953C131.659 14.987 131.628 15.2344 131.602 15.4375C131.576 15.6771 131.557 15.8854 131.547 16.0625C131.547 16.5833 131.578 17.0521 131.641 17.4688C131.703 17.8854 131.799 18.2422 131.93 18.5391C132.065 18.8307 132.234 19.0573 132.438 19.2188C132.646 19.375 132.893 19.4531 133.18 19.4531C133.445 19.4531 133.667 19.401 133.844 19.2969C134.026 19.1875 134.172 19.0495 134.281 18.8828C134.391 18.7109 134.469 18.5208 134.516 18.3125C134.562 18.099 134.586 17.888 134.586 17.6797C134.586 17.487 134.57 17.2995 134.539 17.1172C134.763 17.2318 134.932 17.4167 135.047 17.6719C135.167 17.9219 135.227 18.1953 135.227 18.4922C135.227 18.7995 135.174 19.0703 135.07 19.3047C134.971 19.5391 134.833 19.737 134.656 19.8984C134.479 20.0547 134.271 20.1745 134.031 20.2578C133.792 20.3411 133.534 20.3828 133.258 20.3828C133.091 20.3828 132.893 20.3646 132.664 20.3281C132.44 20.2917 132.206 20.224 131.961 20.125C131.716 20.0312 131.474 19.8958 131.234 19.7188C130.995 19.5417 130.781 19.3125 130.594 19.0312C130.406 18.75 130.253 18.4089 130.133 18.0078C130.018 17.6016 129.961 17.125 129.961 16.5781ZM138.195 19.5547C138.195 19.7214 138.151 19.8646 138.062 19.9844C137.979 20.1042 137.875 20.2005 137.75 20.2734C137.625 20.3516 137.495 20.4062 137.359 20.4375C137.224 20.474 137.107 20.4922 137.008 20.4922C136.898 20.4922 136.776 20.474 136.641 20.4375C136.505 20.4062 136.378 20.3516 136.258 20.2734C136.138 20.2005 136.036 20.1042 135.953 19.9844C135.87 19.8646 135.828 19.7214 135.828 19.5547C135.828 19.3776 135.87 19.2266 135.953 19.1016C136.036 18.9766 136.138 18.875 136.258 18.7969C136.378 18.7135 136.505 18.6536 136.641 18.6172C136.776 18.5807 136.898 18.5625 137.008 18.5625C137.107 18.5625 137.224 18.5807 137.359 18.6172C137.495 18.6536 137.625 18.7135 137.75 18.7969C137.875 18.875 137.979 18.9766 138.062 19.1016C138.151 19.2266 138.195 19.3776 138.195 19.5547Z" fill="#BD1313"/>
<rect x="1" y="1" width="148" height="28" rx="4" stroke="url(#paint0_linear)" stroke-width="2"/>
<defs>
<linearGradient id="paint0_linear" x1="70" y1="-5.00002" x2="380" y2="80" gradientUnits="userSpaceOnUse">
<stop stop-color="#F4EB11"/>
<stop offset="0.742956" stop-color="#7C0000"/>
<stop offset="0.743056" stop-color="#DD9539" stop-opacity="0"/>
</linearGradient>
</defs>
</svg>
