<svg width="150" height="30" viewBox="0 0 150 30" fill="none" xmlns="http://www.w3.org/2000/svg">
<rect x="0.5" y="0.5" width="149" height="29" fill="white"/>
<path d="M18.475 20H15.685V19.88C15.685 19.62 15.76 19.45 15.91 19.37C15.98 19.34 16.065 19.32 16.165 19.31L16.795 19.28L16.225 11.435L13.42 18.155C13.17 18.215 12.945 18.23 12.745 18.2L9.82 11.69L9.25 19.25L10.345 19.34C10.385 19.78 10.245 20 9.925 20H7.21V19.88C7.21 19.62 7.28 19.45 7.42 19.37C7.49 19.34 7.575 19.32 7.675 19.31L8.35 19.28L9.04 10.58L7.975 10.49C7.925 10.04 8.065 9.815 8.395 9.815H10.18L13.21 16.625L16 9.815H17.86C18.18 9.815 18.32 10.04 18.28 10.49L17.23 10.58L17.905 19.22L18.895 19.34C18.935 19.78 18.795 20 18.475 20ZM22.6843 20H19.8343V19.88C19.8343 19.64 19.9043 19.49 20.0443 19.43C20.1143 19.39 20.1993 19.365 20.2993 19.355L20.9293 19.325V13.385L20.1493 13.325C19.9093 13.295 19.7893 13.08 19.7893 12.68L21.9643 12.44V19.295L23.1043 19.385C23.1443 19.795 23.0043 20 22.6843 20ZM21.8593 11.075C21.7193 11.205 21.5393 11.27 21.3193 11.27C21.0993 11.27 20.9193 11.205 20.7793 11.075C20.6493 10.935 20.5843 10.755 20.5843 10.535C20.5843 10.315 20.6493 10.135 20.7793 9.995C20.9193 9.855 21.0993 9.785 21.3193 9.785C21.5393 9.785 21.7193 9.855 21.8593 9.995C21.9993 10.135 22.0693 10.315 22.0693 10.535C22.0693 10.755 21.9993 10.935 21.8593 11.075ZM30.4545 20.225C29.7945 20.225 29.4395 19.86 29.3895 19.13C28.6595 19.86 27.8745 20.225 27.0345 20.225C26.1945 20.225 25.4945 19.92 24.9345 19.31C24.3845 18.69 24.0945 17.77 24.0645 16.55C24.0345 15.32 24.3345 14.33 24.9645 13.58C25.6045 12.82 26.4945 12.44 27.6345 12.44C28.2445 12.44 28.8245 12.57 29.3745 12.83V10.535L28.5945 10.445C28.3545 10.425 28.2345 10.21 28.2345 9.8L30.4095 9.53V19.4L31.3695 19.52C31.3495 19.99 31.0445 20.225 30.4545 20.225ZM29.3745 13.985C28.8345 13.495 28.1795 13.25 27.4095 13.25C26.6495 13.25 26.0845 13.545 25.7145 14.135C25.3545 14.715 25.1745 15.445 25.1745 16.325C25.1745 17.205 25.3545 17.93 25.7145 18.5C26.0745 19.06 26.6245 19.34 27.3645 19.34C27.7345 19.34 28.0645 19.265 28.3545 19.115C28.6445 18.965 28.9845 18.725 29.3745 18.395V13.985ZM34.0837 13.355V17.765C34.0837 18.325 34.1437 18.73 34.2637 18.98C34.3937 19.23 34.6337 19.355 34.9837 19.355C35.3437 19.355 35.6437 19.315 35.8837 19.235C36.1237 19.155 36.4187 18.975 36.7687 18.695C36.9487 18.745 37.0387 18.895 37.0387 19.145C37.0387 19.395 36.7937 19.64 36.3037 19.88C35.8237 20.12 35.3587 20.24 34.9087 20.24C34.2087 20.24 33.7237 20.04 33.4537 19.64C33.1837 19.24 33.0487 18.66 33.0487 17.9V13.355H31.9537C31.9237 12.895 32.0687 12.665 32.3887 12.665H33.0487V10.88L34.0837 10.625V12.665H36.8887C36.9187 12.995 36.8437 13.225 36.6637 13.355H34.0837ZM43.699 16.055H38.989C38.979 16.155 38.974 16.31 38.974 16.52C38.974 17.37 39.154 18.06 39.514 18.59C39.874 19.11 40.434 19.37 41.194 19.37C41.954 19.37 42.679 19.1 43.369 18.56C43.489 18.66 43.549 18.785 43.549 18.935C43.549 19.215 43.274 19.5 42.724 19.79C42.184 20.08 41.574 20.225 40.894 20.225C39.964 20.225 39.219 19.92 38.659 19.31C38.109 18.7 37.834 17.77 37.834 16.52C37.834 15.27 38.164 14.28 38.824 13.55C39.484 12.81 40.264 12.44 41.164 12.44C42.064 12.44 42.714 12.725 43.114 13.295C43.514 13.865 43.709 14.545 43.699 15.335V16.055ZM42.604 15.38C42.604 14.71 42.474 14.18 42.214 13.79C41.954 13.39 41.574 13.19 41.074 13.19C40.584 13.19 40.164 13.385 39.814 13.775C39.464 14.165 39.219 14.7 39.079 15.38H42.604ZM47.0131 13.655C47.3131 13.335 47.6831 13.055 48.1231 12.815C48.5731 12.565 48.9381 12.44 49.2181 12.44C49.5081 12.44 49.7431 12.51 49.9231 12.65C50.1031 12.78 50.1931 12.99 50.1931 13.28C50.1931 13.8 50.1081 14.155 49.9381 14.345C49.8081 14.455 49.6031 14.5 49.3231 14.48C49.3231 13.76 49.1331 13.4 48.7531 13.4C48.2731 13.4 47.6931 13.74 47.0131 14.42V19.295L48.3031 19.385C48.3431 19.795 48.2031 20 47.8831 20H44.8831V19.88C44.8831 19.64 44.9531 19.49 45.0931 19.43C45.1631 19.39 45.2481 19.365 45.3481 19.355L45.9781 19.325V13.46L45.1681 13.37C44.9481 13.35 44.8381 13.145 44.8381 12.755L46.8631 12.5L46.9681 13.655H47.0131ZM63.4268 20H60.5918V19.88C60.5918 19.64 60.6618 19.49 60.8018 19.43C60.8718 19.39 60.9568 19.365 61.0568 19.355L61.6718 19.325V15.575C61.6718 14.115 61.0818 13.385 59.9018 13.385C59.4918 13.385 59.1318 13.475 58.8218 13.655C58.5118 13.825 58.1718 14.08 57.8018 14.42C57.8918 14.7 57.9368 15.055 57.9368 15.485V19.295L59.0618 19.385C59.1018 19.795 58.9668 20 58.6568 20H55.8068V19.88C55.8068 19.64 55.8768 19.49 56.0168 19.43C56.0868 19.39 56.1718 19.365 56.2718 19.355L56.8868 19.325V15.575C56.8868 14.855 56.7268 14.31 56.4068 13.94C56.0968 13.57 55.6618 13.385 55.1018 13.385C54.7118 13.385 54.3668 13.465 54.0668 13.625C53.7668 13.785 53.4468 14.02 53.1068 14.33V19.295L54.2468 19.385C54.2868 19.795 54.1468 20 53.8268 20H50.9768V19.88C50.9768 19.64 51.0468 19.49 51.1868 19.43C51.2568 19.39 51.3418 19.365 51.4418 19.355L52.0718 19.325V13.37L51.4118 13.355C51.0918 13.355 50.9318 13.14 50.9318 12.71L52.8668 12.455L53.0468 13.505H53.0918C53.7618 12.795 54.5118 12.44 55.3418 12.44C55.7918 12.44 56.2218 12.55 56.6318 12.77C57.0418 12.99 57.3568 13.335 57.5768 13.805C57.9268 13.395 58.2968 13.065 58.6868 12.815C59.0868 12.565 59.6018 12.44 60.2318 12.44C60.8618 12.44 61.4318 12.685 61.9418 13.175C62.4518 13.665 62.7068 14.435 62.7068 15.485V19.295L63.8468 19.385C63.8868 19.795 63.7468 20 63.4268 20ZM76.7808 20H73.9008V19.88C73.9008 19.62 73.9708 19.45 74.1108 19.37C74.1808 19.34 74.2658 19.32 74.3658 19.31L75.0558 19.28L74.2608 16.535H71.0808L70.2858 19.25L71.4108 19.34C71.4508 19.78 71.3158 20 71.0058 20H68.3808V19.88C68.3808 19.62 68.4508 19.45 68.5908 19.37C68.6608 19.34 68.7458 19.32 68.8458 19.31L69.4458 19.28L72.3408 9.83C72.6608 9.79 72.9858 9.79 73.3158 9.83L76.2108 19.25L77.1858 19.34C77.2258 19.78 77.0908 20 76.7808 20ZM71.3058 15.785H74.0358L72.6858 11.09L71.3058 15.785ZM77.9861 14.54C77.9961 13.89 78.2611 13.375 78.7811 12.995C79.3011 12.615 79.8661 12.43 80.4761 12.44C81.0961 12.45 81.6061 12.56 82.0061 12.77C82.4061 12.97 82.6011 13.27 82.5911 13.67C82.5811 13.94 82.4861 14.135 82.3061 14.255C82.1261 14.375 81.9311 14.425 81.7211 14.405C81.7311 14.055 81.6211 13.77 81.3911 13.55C81.1711 13.33 80.8461 13.215 80.4161 13.205C79.9861 13.195 79.6261 13.295 79.3361 13.505C79.0561 13.705 78.9111 13.965 78.9011 14.285C78.8911 14.605 79.0311 14.865 79.3211 15.065C79.6211 15.255 80.0411 15.455 80.5811 15.665C81.1211 15.875 81.4861 16.03 81.6761 16.13C81.8761 16.22 82.0911 16.345 82.3211 16.505C82.7511 16.805 82.9561 17.26 82.9361 17.87C82.9261 18.48 82.6611 19.03 82.1411 19.52C81.6211 20 80.9261 20.235 80.0561 20.225C79.4361 20.205 78.8911 20.075 78.4211 19.835C77.9511 19.585 77.7161 19.245 77.7161 18.815C77.7261 18.585 77.8011 18.405 77.9411 18.275C78.0911 18.135 78.2711 18.07 78.4811 18.08C78.5611 18.49 78.7611 18.82 79.0811 19.07C79.4111 19.32 79.8161 19.45 80.2961 19.46C80.7761 19.46 81.1761 19.35 81.4961 19.13C81.8161 18.9 81.9811 18.6 81.9911 18.23C82.0011 17.86 81.8861 17.58 81.6461 17.39C81.4161 17.2 81.0811 17.025 80.6411 16.865C80.2011 16.695 79.8911 16.575 79.7111 16.505C79.5411 16.435 79.3261 16.33 79.0661 16.19C78.8161 16.05 78.6211 15.91 78.4811 15.77C78.1511 15.42 77.9861 15.01 77.9861 14.54ZM83.9041 14.54C83.9141 13.89 84.1791 13.375 84.6991 12.995C85.2191 12.615 85.7841 12.43 86.3941 12.44C87.0141 12.45 87.5241 12.56 87.9241 12.77C88.3241 12.97 88.5191 13.27 88.5091 13.67C88.4991 13.94 88.4041 14.135 88.2241 14.255C88.0441 14.375 87.8491 14.425 87.6391 14.405C87.6491 14.055 87.5391 13.77 87.3091 13.55C87.0891 13.33 86.7641 13.215 86.3341 13.205C85.9041 13.195 85.5441 13.295 85.2541 13.505C84.9741 13.705 84.8291 13.965 84.8191 14.285C84.8091 14.605 84.9491 14.865 85.2391 15.065C85.5391 15.255 85.9591 15.455 86.4991 15.665C87.0391 15.875 87.4041 16.03 87.5941 16.13C87.7941 16.22 88.0091 16.345 88.2391 16.505C88.6691 16.805 88.8741 17.26 88.8541 17.87C88.8441 18.48 88.5791 19.03 88.0591 19.52C87.5391 20 86.8441 20.235 85.9741 20.225C85.3541 20.205 84.8091 20.075 84.3391 19.835C83.8691 19.585 83.6341 19.245 83.6341 18.815C83.6441 18.585 83.7191 18.405 83.8591 18.275C84.0091 18.135 84.1891 18.07 84.3991 18.08C84.4791 18.49 84.6791 18.82 84.9991 19.07C85.3291 19.32 85.7341 19.45 86.2141 19.46C86.6941 19.46 87.0941 19.35 87.4141 19.13C87.7341 18.9 87.8991 18.6 87.9091 18.23C87.9191 17.86 87.8041 17.58 87.5641 17.39C87.3341 17.2 86.9991 17.025 86.5591 16.865C86.1191 16.695 85.8091 16.575 85.6291 16.505C85.4591 16.435 85.2441 16.33 84.9841 16.19C84.7341 16.05 84.5391 15.91 84.3991 15.77C84.0691 15.42 83.9041 15.01 83.9041 14.54ZM95.657 16.055H90.947C90.937 16.155 90.932 16.31 90.932 16.52C90.932 17.37 91.112 18.06 91.472 18.59C91.832 19.11 92.392 19.37 93.152 19.37C93.912 19.37 94.637 19.1 95.327 18.56C95.447 18.66 95.507 18.785 95.507 18.935C95.507 19.215 95.232 19.5 94.682 19.79C94.142 20.08 93.532 20.225 92.852 20.225C91.922 20.225 91.177 19.92 90.617 19.31C90.067 18.7 89.792 17.77 89.792 16.52C89.792 15.27 90.122 14.28 90.782 13.55C91.442 12.81 92.222 12.44 93.122 12.44C94.022 12.44 94.672 12.725 95.072 13.295C95.472 13.865 95.667 14.545 95.657 15.335V16.055ZM94.562 15.38C94.562 14.71 94.432 14.18 94.172 13.79C93.912 13.39 93.532 13.19 93.032 13.19C92.542 13.19 92.122 13.385 91.772 13.775C91.422 14.165 91.177 14.7 91.037 15.38H94.562ZM96.7361 14.54C96.7461 13.89 97.0111 13.375 97.5311 12.995C98.0511 12.615 98.6161 12.43 99.2261 12.44C99.8461 12.45 100.356 12.56 100.756 12.77C101.156 12.97 101.351 13.27 101.341 13.67C101.331 13.94 101.236 14.135 101.056 14.255C100.876 14.375 100.681 14.425 100.471 14.405C100.481 14.055 100.371 13.77 100.141 13.55C99.9211 13.33 99.5961 13.215 99.1661 13.205C98.7361 13.195 98.3761 13.295 98.0861 13.505C97.8061 13.705 97.6611 13.965 97.6511 14.285C97.6411 14.605 97.7811 14.865 98.0711 15.065C98.3711 15.255 98.7911 15.455 99.3311 15.665C99.8711 15.875 100.236 16.03 100.426 16.13C100.626 16.22 100.841 16.345 101.071 16.505C101.501 16.805 101.706 17.26 101.686 17.87C101.676 18.48 101.411 19.03 100.891 19.52C100.371 20 99.6761 20.235 98.8061 20.225C98.1861 20.205 97.6411 20.075 97.1711 19.835C96.7011 19.585 96.4661 19.245 96.4661 18.815C96.4761 18.585 96.5511 18.405 96.6911 18.275C96.8411 18.135 97.0211 18.07 97.2311 18.08C97.3111 18.49 97.5111 18.82 97.8311 19.07C98.1611 19.32 98.5661 19.45 99.0461 19.46C99.5261 19.46 99.9261 19.35 100.246 19.13C100.566 18.9 100.731 18.6 100.741 18.23C100.751 17.86 100.636 17.58 100.396 17.39C100.166 17.2 99.8311 17.025 99.3911 16.865C98.9511 16.695 98.6411 16.575 98.4611 16.505C98.2911 16.435 98.0761 16.33 97.8161 16.19C97.5661 16.05 97.3711 15.91 97.2311 15.77C96.9011 15.42 96.7361 15.01 96.7361 14.54ZM102.654 14.54C102.664 13.89 102.929 13.375 103.449 12.995C103.969 12.615 104.534 12.43 105.144 12.44C105.764 12.45 106.274 12.56 106.674 12.77C107.074 12.97 107.269 13.27 107.259 13.67C107.249 13.94 107.154 14.135 106.974 14.255C106.794 14.375 106.599 14.425 106.389 14.405C106.399 14.055 106.289 13.77 106.059 13.55C105.839 13.33 105.514 13.215 105.084 13.205C104.654 13.195 104.294 13.295 104.004 13.505C103.724 13.705 103.579 13.965 103.569 14.285C103.559 14.605 103.699 14.865 103.989 15.065C104.289 15.255 104.709 15.455 105.249 15.665C105.789 15.875 106.154 16.03 106.344 16.13C106.544 16.22 106.759 16.345 106.989 16.505C107.419 16.805 107.624 17.26 107.604 17.87C107.594 18.48 107.329 19.03 106.809 19.52C106.289 20 105.594 20.235 104.724 20.225C104.104 20.205 103.559 20.075 103.089 19.835C102.619 19.585 102.384 19.245 102.384 18.815C102.394 18.585 102.469 18.405 102.609 18.275C102.759 18.135 102.939 18.07 103.149 18.08C103.229 18.49 103.429 18.82 103.749 19.07C104.079 19.32 104.484 19.45 104.964 19.46C105.444 19.46 105.844 19.35 106.164 19.13C106.484 18.9 106.649 18.6 106.659 18.23C106.669 17.86 106.554 17.58 106.314 17.39C106.084 17.2 105.749 17.025 105.309 16.865C104.869 16.695 104.559 16.575 104.379 16.505C104.209 16.435 103.994 16.33 103.734 16.19C103.484 16.05 103.289 15.91 103.149 15.77C102.819 15.42 102.654 15.01 102.654 14.54ZM121.127 20H118.292V19.88C118.292 19.64 118.362 19.49 118.502 19.43C118.572 19.39 118.657 19.365 118.757 19.355L119.372 19.325V15.575C119.372 14.115 118.782 13.385 117.602 13.385C117.192 13.385 116.832 13.475 116.522 13.655C116.212 13.825 115.872 14.08 115.502 14.42C115.592 14.7 115.637 15.055 115.637 15.485V19.295L116.762 19.385C116.802 19.795 116.667 20 116.357 20H113.507V19.88C113.507 19.64 113.577 19.49 113.717 19.43C113.787 19.39 113.872 19.365 113.972 19.355L114.587 19.325V15.575C114.587 14.855 114.427 14.31 114.107 13.94C113.797 13.57 113.362 13.385 112.802 13.385C112.412 13.385 112.067 13.465 111.767 13.625C111.467 13.785 111.147 14.02 110.807 14.33V19.295L111.947 19.385C111.987 19.795 111.847 20 111.527 20H108.677V19.88C108.677 19.64 108.747 19.49 108.887 19.43C108.957 19.39 109.042 19.365 109.142 19.355L109.772 19.325V13.37L109.112 13.355C108.792 13.355 108.632 13.14 108.632 12.71L110.567 12.455L110.747 13.505H110.792C111.462 12.795 112.212 12.44 113.042 12.44C113.492 12.44 113.922 12.55 114.332 12.77C114.742 12.99 115.057 13.335 115.277 13.805C115.627 13.395 115.997 13.065 116.387 12.815C116.787 12.565 117.302 12.44 117.932 12.44C118.562 12.44 119.132 12.685 119.642 13.175C120.152 13.665 120.407 14.435 120.407 15.485V19.295L121.547 19.385C121.587 19.795 121.447 20 121.127 20ZM128.352 16.055H123.642C123.632 16.155 123.627 16.31 123.627 16.52C123.627 17.37 123.807 18.06 124.167 18.59C124.527 19.11 125.087 19.37 125.847 19.37C126.607 19.37 127.332 19.1 128.022 18.56C128.142 18.66 128.202 18.785 128.202 18.935C128.202 19.215 127.927 19.5 127.377 19.79C126.837 20.08 126.227 20.225 125.547 20.225C124.617 20.225 123.872 19.92 123.312 19.31C122.762 18.7 122.487 17.77 122.487 16.52C122.487 15.27 122.817 14.28 123.477 13.55C124.137 12.81 124.917 12.44 125.817 12.44C126.717 12.44 127.367 12.725 127.767 13.295C128.167 13.865 128.362 14.545 128.352 15.335V16.055ZM127.257 15.38C127.257 14.71 127.127 14.18 126.867 13.79C126.607 13.39 126.227 13.19 125.727 13.19C125.237 13.19 124.817 13.385 124.467 13.775C124.117 14.165 123.872 14.7 123.732 15.38H127.257ZM137.231 20H134.441V19.88C134.441 19.64 134.511 19.49 134.651 19.43C134.721 19.39 134.806 19.365 134.906 19.355L135.566 19.325V15.44C135.566 14.04 135.011 13.34 133.901 13.34C133.491 13.34 133.121 13.42 132.791 13.58C132.461 13.74 132.086 13.995 131.666 14.345V19.295L132.731 19.385C132.771 19.795 132.636 20 132.326 20H129.506V19.88C129.506 19.56 129.666 19.385 129.986 19.355L130.631 19.325V13.415L129.851 13.325C129.611 13.305 129.491 13.1 129.491 12.71L131.426 12.455L131.621 13.595H131.666C132.476 12.825 133.311 12.44 134.171 12.44C134.841 12.44 135.411 12.675 135.881 13.145C136.361 13.615 136.601 14.34 136.601 15.32V19.295L137.651 19.385C137.691 19.795 137.551 20 137.231 20ZM140.461 13.355V17.765C140.461 18.325 140.521 18.73 140.641 18.98C140.771 19.23 141.011 19.355 141.361 19.355C141.721 19.355 142.021 19.315 142.261 19.235C142.501 19.155 142.796 18.975 143.146 18.695C143.326 18.745 143.416 18.895 143.416 19.145C143.416 19.395 143.171 19.64 142.681 19.88C142.201 20.12 141.736 20.24 141.286 20.24C140.586 20.24 140.101 20.04 139.831 19.64C139.561 19.24 139.426 18.66 139.426 17.9V13.355H138.331C138.301 12.895 138.446 12.665 138.766 12.665H139.426V10.88L140.461 10.625V12.665H143.266C143.296 12.995 143.221 13.225 143.041 13.355H140.461Z" fill="#7C0000"/>
<rect x="0.5" y="0.5" width="149" height="29" stroke="url(#paint0_linear)"/>
<defs>
<linearGradient id="paint0_linear" x1="70" y1="-4.99999" x2="95" y2="70.5" gradientUnits="userSpaceOnUse">
<stop stop-color="#DD9539"/>
<stop offset="0.742956" stop-color="#7C0000"/>
<stop offset="0.743056" stop-color="#DD9539" stop-opacity="0"/>
</linearGradient>
</defs>
</svg>
