<svg width="150" height="30" viewBox="0 0 150 30" fill="none" xmlns="http://www.w3.org/2000/svg">
<path d="M36.8252 10.0996C37.2236 10.0996 37.6045 10.1377 37.9678 10.2139C38.3369 10.2842 38.6797 10.3809 38.9961 10.5039C39.3125 10.6211 39.5996 10.7559 39.8574 10.9082C40.1152 11.0605 40.335 11.2129 40.5166 11.3652L42.8018 9.79199L40.1738 14.8369L39.9717 12.1914C39.8018 12.0742 39.6172 11.9717 39.418 11.8838C39.2246 11.79 39.0283 11.7139 38.8291 11.6553C38.6357 11.5908 38.4482 11.541 38.2666 11.5059C38.085 11.4648 37.9238 11.4326 37.7832 11.4092C37.6426 11.3857 37.5283 11.3711 37.4404 11.3652C37.3584 11.3535 37.3145 11.3477 37.3086 11.3477C36.9102 11.3477 36.5762 11.3916 36.3066 11.4795C36.0371 11.5674 35.8174 11.6816 35.6475 11.8223C35.4834 11.9629 35.3633 12.124 35.2871 12.3057C35.2168 12.4814 35.1816 12.6602 35.1816 12.8418C35.1816 13.2109 35.2578 13.5244 35.4102 13.7822C35.5625 14.0342 35.7939 14.2598 36.1045 14.459C36.415 14.6582 36.8105 14.8457 37.291 15.0215C37.7715 15.1914 38.3369 15.376 38.9873 15.5752C39.3799 15.6982 39.749 15.8652 40.0947 16.0762C40.4463 16.2812 40.751 16.5244 41.0088 16.8057C41.2666 17.0811 41.4688 17.3916 41.6152 17.7373C41.7676 18.0771 41.8438 18.4434 41.8438 18.8359C41.8438 19.293 41.7793 19.7002 41.6504 20.0576C41.5215 20.4092 41.3486 20.7197 41.1318 20.9893C40.9209 21.2529 40.6748 21.4785 40.3936 21.666C40.1123 21.8477 39.8193 21.9941 39.5146 22.1055C39.2158 22.2227 38.9111 22.3047 38.6006 22.3516C38.2959 22.4043 38.0088 22.4307 37.7393 22.4307C36.9482 22.4307 36.2305 22.2959 35.5859 22.0264C34.9414 21.7568 34.3408 21.3877 33.7842 20.9189L31.499 22.4834L34.0479 17.9658C34.1182 18.3877 34.2412 18.7949 34.417 19.1875C34.5986 19.5742 34.8213 19.9199 35.085 20.2246C35.3486 20.5293 35.6533 20.7725 35.999 20.9541C36.3447 21.1357 36.7227 21.2266 37.1328 21.2266C37.4609 21.2266 37.7598 21.1768 38.0293 21.0771C38.3047 20.9775 38.5391 20.8457 38.7324 20.6816C38.9258 20.5117 39.0752 20.3184 39.1807 20.1016C39.292 19.8789 39.3477 19.6475 39.3477 19.4072C39.3477 19.0732 39.2539 18.7861 39.0664 18.5459C38.8789 18.2998 38.6328 18.083 38.3281 17.8955C38.0234 17.7021 37.6748 17.5264 37.2822 17.3682C36.8955 17.2041 36.4971 17.0371 36.0869 16.8672C35.6768 16.6973 35.2754 16.5098 34.8828 16.3047C34.4961 16.0996 34.1504 15.8594 33.8457 15.584C33.541 15.3027 33.2949 14.9746 33.1074 14.5996C32.9199 14.2246 32.8262 13.7822 32.8262 13.2725C32.8262 12.8799 32.9023 12.4961 33.0547 12.1211C33.2129 11.7402 33.4531 11.4004 33.7754 11.1016C34.1035 10.8027 34.5195 10.5625 35.0234 10.3809C35.5273 10.1934 36.1279 10.0996 36.8252 10.0996ZM42.8545 22.0879L44.2344 21.0068L43.9355 14.9424L42.3096 13.8789L46.0889 13.2373L45.4121 20.2861L47.3018 21.4639L42.8545 22.0879ZM46.1855 11.1104C46.1855 11.2861 46.1504 11.4531 46.0801 11.6113C46.0098 11.7637 45.9131 11.9014 45.79 12.0244C45.667 12.1416 45.5264 12.2354 45.3682 12.3057C45.21 12.3701 45.043 12.4023 44.8672 12.4023C44.6797 12.4023 44.5039 12.3701 44.3398 12.3057C44.1816 12.2354 44.0439 12.1416 43.9268 12.0244C43.8096 11.9014 43.7158 11.7637 43.6455 11.6113C43.5752 11.4531 43.54 11.2861 43.54 11.1104C43.54 10.9287 43.5752 10.7617 43.6455 10.6094C43.7158 10.4512 43.8096 10.3135 43.9268 10.1963C44.0439 10.0791 44.1816 9.98828 44.3398 9.92383C44.5039 9.85352 44.6797 9.81836 44.8672 9.81836C45.043 9.81836 45.21 9.85352 45.3682 9.92383C45.5264 9.98828 45.667 10.0791 45.79 10.1963C45.9131 10.3135 46.0098 10.4512 46.0801 10.6094C46.1504 10.7617 46.1855 10.9287 46.1855 11.1104ZM48.1807 18.1504C48.1807 17.5996 48.2363 17.0518 48.3477 16.5068C48.4648 15.9561 48.5908 15.4521 48.7256 14.9951L47.2051 15.0918L51.4941 10.4072C51.1543 11.4795 50.8789 12.4463 50.668 13.3076L54.0869 13.5977L53.6387 14.6523L50.3252 14.8896C50.2432 15.3174 50.1787 15.6982 50.1318 16.0322C50.0908 16.3604 50.0557 16.6387 50.0264 16.8672C49.9971 17.1367 49.9766 17.3711 49.9648 17.5703C49.9648 18.1562 50 18.6836 50.0703 19.1523C50.1406 19.6211 50.249 20.0225 50.3955 20.3564C50.5479 20.6846 50.7383 20.9395 50.9668 21.1211C51.2012 21.2969 51.4795 21.3848 51.8018 21.3848C52.1006 21.3848 52.3496 21.3262 52.5488 21.209C52.7539 21.0859 52.918 20.9307 53.041 20.7432C53.1641 20.5498 53.252 20.3359 53.3047 20.1016C53.3574 19.8613 53.3838 19.624 53.3838 19.3896C53.3838 19.1729 53.3662 18.9619 53.3311 18.7568C53.583 18.8857 53.7734 19.0938 53.9023 19.3809C54.0371 19.6621 54.1045 19.9697 54.1045 20.3037C54.1045 20.6494 54.0459 20.9541 53.9287 21.2178C53.8174 21.4814 53.6621 21.7041 53.4629 21.8857C53.2637 22.0615 53.0293 22.1963 52.7598 22.29C52.4902 22.3838 52.2002 22.4307 51.8896 22.4307C51.7021 22.4307 51.4795 22.4102 51.2217 22.3691C50.9697 22.3281 50.7061 22.252 50.4307 22.1406C50.1553 22.0352 49.8828 21.8828 49.6133 21.6836C49.3438 21.4844 49.1035 21.2266 48.8926 20.9102C48.6816 20.5938 48.5088 20.21 48.374 19.7588C48.2451 19.3018 48.1807 18.7656 48.1807 18.1504ZM56.7236 18.7744C56.7998 19.1025 56.9023 19.4248 57.0312 19.7412C57.1602 20.0518 57.3184 20.3301 57.5059 20.5762C57.6934 20.8223 57.9102 21.0215 58.1562 21.1738C58.4023 21.3262 58.6807 21.4023 58.9912 21.4023C59.4014 21.4023 59.7588 21.3174 60.0635 21.1475C60.3682 20.9775 60.6172 20.7637 60.8105 20.5059C61.0039 20.2422 61.1387 19.9551 61.2148 19.6445C61.291 19.3281 61.3057 19.0264 61.2588 18.7393C61.4229 18.8037 61.5576 18.8887 61.6631 18.9941C61.7744 19.0996 61.8594 19.2168 61.918 19.3457C61.9824 19.4688 62.0264 19.5977 62.0498 19.7324C62.0732 19.8613 62.085 19.9873 62.085 20.1104C62.085 20.3916 62.0029 20.6641 61.8389 20.9277C61.6748 21.1855 61.4434 21.417 61.1445 21.6221C60.8516 21.8213 60.5029 21.9824 60.0986 22.1055C59.6943 22.2285 59.252 22.29 58.7715 22.29C58.127 22.29 57.5498 22.1641 57.04 21.9121C56.5361 21.6602 56.1084 21.3203 55.7568 20.8926C55.4053 20.459 55.1357 19.9521 54.9482 19.3721C54.7607 18.792 54.667 18.1738 54.667 17.5176C54.667 16.8496 54.7607 16.2344 54.9482 15.6719C55.1357 15.1035 55.4111 14.6201 55.7744 14.2217C56.1436 13.8232 56.5947 13.5215 57.1279 13.3164C57.6611 13.1113 58.2764 13.0293 58.9736 13.0703C59.4541 13.1055 59.8965 13.2432 60.3008 13.4834C60.7051 13.7236 61.0566 14.0342 61.3555 14.415C61.6602 14.79 61.9033 15.2207 62.085 15.707C62.2725 16.1934 62.3867 16.7002 62.4277 17.2275L56.7236 18.7744ZM56.5566 17.3594C56.5566 17.4414 56.5566 17.5234 56.5566 17.6055C56.5566 17.6816 56.5625 17.7607 56.5742 17.8428L60.4326 16.4365C60.3037 16.0146 60.1572 15.6543 59.9932 15.3555C59.835 15.0508 59.668 14.8018 59.4922 14.6084C59.3164 14.415 59.1377 14.2744 58.9561 14.1865C58.7803 14.0928 58.6104 14.0459 58.4463 14.0459C58.2002 14.0459 57.9834 14.0928 57.7959 14.1865C57.6084 14.2803 57.4443 14.4092 57.3037 14.5732C57.1689 14.7314 57.0518 14.9189 56.9521 15.1357C56.8584 15.3525 56.7822 15.584 56.7236 15.8301C56.665 16.0762 56.6211 16.3311 56.5918 16.5947C56.5684 16.8525 56.5566 17.1074 56.5566 17.3594ZM77.2461 21.6045L67.1475 22L69.3799 20.0576L69.9072 11.5586L67.4902 10.3018L73.3438 9.92383L71.4893 11.1807L71.5947 20.0928L75.6641 20.5938L77.2461 17.623V21.6045ZM85.7891 16.5244C85.7891 16.835 85.7715 17.1689 85.7363 17.5264C85.7012 17.8838 85.6484 18.2471 85.5781 18.6162C85.5137 18.9854 85.4346 19.3486 85.3408 19.7061C85.2529 20.0576 85.1562 20.3828 85.0508 20.6816L86.9229 22L83.6094 21.8594L83.8115 20.7783C83.46 21.2178 83.0527 21.5547 82.5898 21.7891C82.1328 22.0176 81.6025 22.1553 80.999 22.2021C80.5068 22.2373 80.0762 22.2021 79.707 22.0967C79.3438 21.9971 79.0391 21.8418 78.793 21.6309C78.5527 21.4141 78.374 21.1504 78.2568 20.8398C78.1396 20.5234 78.0811 20.1719 78.0811 19.7852C78.0811 19.4277 78.1689 19.082 78.3447 18.748C78.5205 18.4082 78.7725 18.1094 79.1006 17.8516C79.4346 17.5938 79.8418 17.3887 80.3223 17.2363C80.8027 17.0781 81.3477 16.999 81.957 16.999C82.2383 16.999 82.5605 17.0254 82.9238 17.0781C83.293 17.1309 83.6416 17.2422 83.9697 17.4121C83.9404 17.0547 83.8848 16.6914 83.8027 16.3223C83.7266 15.9473 83.6123 15.6074 83.46 15.3027C83.3076 14.998 83.1084 14.752 82.8623 14.5645C82.6221 14.3711 82.3203 14.2744 81.957 14.2744C81.6465 14.2744 81.3447 14.3389 81.0518 14.4678C80.7588 14.5967 80.4834 14.7812 80.2256 15.0215C79.9736 15.2617 79.7451 15.5547 79.54 15.9004C79.335 16.2461 79.1621 16.6357 79.0215 17.0693L78.2832 12.7627L79.3994 14.4766C79.6748 14.1367 79.9531 13.8672 80.2344 13.668C80.5156 13.4629 80.7939 13.3076 81.0693 13.2021C81.3506 13.0908 81.6201 13.0176 81.8779 12.9824C82.1416 12.9473 82.3936 12.9297 82.6338 12.9297C83.085 12.9531 83.501 13.0469 83.8818 13.2109C84.2686 13.3691 84.6025 13.6006 84.8838 13.9053C85.165 14.2041 85.3848 14.5732 85.543 15.0127C85.707 15.4521 85.7891 15.9561 85.7891 16.5244ZM83.9697 19.3369C83.9814 19.1729 83.9902 19.0146 83.9961 18.8623C84.002 18.71 84.0049 18.5605 84.0049 18.4141V18.3086C83.7939 18.2266 83.5801 18.165 83.3633 18.124C83.1523 18.0771 82.9561 18.0449 82.7744 18.0273C82.5928 18.0039 82.4375 17.9922 82.3086 17.9922C82.1855 17.9863 82.1035 17.9834 82.0625 17.9834C81.7285 17.9951 81.4385 18.0566 81.1924 18.168C80.9463 18.2793 80.7412 18.4199 80.5771 18.5898C80.4189 18.7539 80.2988 18.9385 80.2168 19.1436C80.1406 19.3486 80.1025 19.5508 80.1025 19.75C80.1025 20.2012 80.2109 20.5439 80.4277 20.7783C80.6504 21.0068 80.9727 21.1211 81.3945 21.1211C81.6758 21.1211 81.9424 21.0713 82.1943 20.9717C82.4463 20.8721 82.6807 20.7402 82.8975 20.5762C83.1201 20.4062 83.3193 20.2158 83.4951 20.0049C83.6768 19.7881 83.835 19.5654 83.9697 19.3369ZM94.4463 14.3184C94.5049 14.7988 94.5488 15.3203 94.5781 15.8828C94.6133 16.4453 94.625 17.0225 94.6133 17.6143C94.6016 18.2061 94.5635 18.8008 94.499 19.3984C94.4346 19.9902 94.332 20.5615 94.1914 21.1123C94.0508 21.6572 93.8691 22.167 93.6465 22.6416C93.4238 23.1162 93.1484 23.5264 92.8203 23.8721C92.498 24.2236 92.1172 24.499 91.6777 24.6982C91.2441 24.9033 90.7432 25.0059 90.1748 25.0059C89.5303 25.0059 88.8418 24.8447 88.1094 24.5225L87.459 25.8145L86.5625 22.3604C86.8262 22.7061 87.0957 22.9844 87.3711 23.1953C87.6523 23.4062 87.9189 23.5674 88.1709 23.6787C88.4287 23.7959 88.6631 23.8721 88.874 23.9072C89.0908 23.9424 89.2666 23.96 89.4014 23.96C89.8818 23.96 90.3096 23.8076 90.6846 23.5029C91.0654 23.2041 91.3994 22.7881 91.6865 22.2549C91.2178 21.7627 90.7607 21.2295 90.3154 20.6553C89.876 20.0752 89.4775 19.46 89.1201 18.8096C88.7627 18.1533 88.4609 17.4648 88.2148 16.7441C87.9746 16.0234 87.8193 15.2734 87.749 14.4941L86.3076 13.7207L90.377 13.1406L89.6211 14.1689C89.7734 15.3467 90.0664 16.5039 90.5 17.6406C90.9336 18.7773 91.499 19.9316 92.1963 21.1035C92.3486 20.6641 92.4805 20.1895 92.5918 19.6797C92.709 19.1699 92.8057 18.6309 92.8818 18.0625C92.9639 17.4941 93.0254 16.9053 93.0664 16.2959C93.1074 15.6807 93.1338 15.0566 93.1455 14.4238L91.8359 13.1406C92.3223 13.1758 92.75 13.208 93.1191 13.2373C93.4941 13.2666 93.8193 13.293 94.0947 13.3164C94.3701 13.334 94.6016 13.3516 94.7891 13.3691C94.9824 13.3809 95.1406 13.3896 95.2637 13.3955C95.5508 13.4189 95.7207 13.4307 95.7734 13.4307L94.4463 14.3184ZM96.2393 17.5879C96.2393 16.9316 96.3418 16.3252 96.5469 15.7686C96.7578 15.2061 97.0479 14.7197 97.417 14.3096C97.792 13.8994 98.2344 13.5801 98.7441 13.3516C99.2598 13.1172 99.8223 13 100.432 13C101.023 13 101.565 13.1113 102.058 13.334C102.55 13.5508 102.978 13.8584 103.341 14.2568C103.704 14.6553 103.994 15.1328 104.211 15.6895C104.428 16.2461 104.557 16.8613 104.598 17.5352C104.639 18.2559 104.562 18.9092 104.369 19.4951C104.182 20.0752 103.903 20.5703 103.534 20.9805C103.165 21.3848 102.723 21.6982 102.207 21.9209C101.697 22.1436 101.144 22.2549 100.546 22.2549C99.9717 22.2549 99.4238 22.1523 98.9023 21.9473C98.3867 21.7363 97.9297 21.4316 97.5312 21.0332C97.1387 20.6348 96.8252 20.1484 96.5908 19.5742C96.3564 18.9941 96.2393 18.332 96.2393 17.5879ZM98.4014 17.7373C98.4014 18.2529 98.4746 18.7188 98.6211 19.1348C98.7676 19.5508 98.9639 19.9053 99.21 20.1982C99.4561 20.4854 99.7402 20.708 100.062 20.8662C100.385 21.0244 100.725 21.1035 101.082 21.1035C101.439 21.1035 101.773 21.0273 102.084 20.875C102.395 20.7168 102.664 20.4971 102.893 20.2158C103.121 19.9287 103.3 19.5859 103.429 19.1875C103.558 18.7891 103.622 18.3467 103.622 17.8604C103.622 17.3799 103.558 16.9287 103.429 16.5068C103.3 16.0791 103.118 15.707 102.884 15.3906C102.655 15.0742 102.383 14.8252 102.066 14.6436C101.75 14.4619 101.404 14.3711 101.029 14.3711C100.695 14.3711 100.37 14.4473 100.054 14.5996C99.7432 14.752 99.4648 14.9746 99.2188 15.2676C98.9727 15.5547 98.7734 15.9062 98.6211 16.3223C98.4746 16.7383 98.4014 17.21 98.4014 17.7373ZM113.229 13.4482L113.571 21.0068L115.153 21.7451L111.55 22.4131L111.717 19.8379C111.553 20.1836 111.365 20.5146 111.154 20.8311C110.943 21.1416 110.706 21.417 110.442 21.6572C110.179 21.8916 109.889 22.0791 109.572 22.2197C109.262 22.3604 108.925 22.4307 108.562 22.4307C108.128 22.4307 107.747 22.3545 107.419 22.2021C107.091 22.0498 106.815 21.8418 106.593 21.5781C106.37 21.3086 106.2 20.9951 106.083 20.6377C105.972 20.2744 105.916 19.8877 105.916 19.4775C105.916 19.0967 105.945 18.7012 106.004 18.291C106.062 17.8809 106.142 17.4766 106.241 17.0781C106.347 16.6738 106.47 16.2842 106.61 15.9092C106.757 15.5283 106.915 15.1768 107.085 14.8545L105.23 14.4238L108.711 13.2373C108.488 13.8291 108.315 14.3975 108.192 14.9424C108.075 15.4814 107.987 15.9619 107.929 16.3838C107.864 16.876 107.823 17.333 107.806 17.7549C107.806 18.2998 107.844 18.7715 107.92 19.1699C107.996 19.5625 108.102 19.8906 108.236 20.1543C108.371 20.4121 108.532 20.6055 108.72 20.7344C108.907 20.8574 109.112 20.9189 109.335 20.9189C109.675 20.9189 109.979 20.8281 110.249 20.6465C110.519 20.4648 110.756 20.2217 110.961 19.917C111.172 19.6064 111.351 19.2461 111.497 18.8359C111.649 18.4258 111.772 17.9922 111.866 17.5352C111.966 17.0781 112.039 16.6123 112.086 16.1377C112.133 15.6631 112.159 15.2061 112.165 14.7666L110.258 13.4482H113.229ZM115.804 18.1504C115.804 17.5996 115.859 17.0518 115.971 16.5068C116.088 15.9561 116.214 15.4521 116.349 14.9951L114.828 15.0918L119.117 10.4072C118.777 11.4795 118.502 12.4463 118.291 13.3076L121.71 13.5977L121.262 14.6523L117.948 14.8896C117.866 15.3174 117.802 15.6982 117.755 16.0322C117.714 16.3604 117.679 16.6387 117.649 16.8672C117.62 17.1367 117.6 17.3711 117.588 17.5703C117.588 18.1562 117.623 18.6836 117.693 19.1523C117.764 19.6211 117.872 20.0225 118.019 20.3564C118.171 20.6846 118.361 20.9395 118.59 21.1211C118.824 21.2969 119.103 21.3848 119.425 21.3848C119.724 21.3848 119.973 21.3262 120.172 21.209C120.377 21.0859 120.541 20.9307 120.664 20.7432C120.787 20.5498 120.875 20.3359 120.928 20.1016C120.98 19.8613 121.007 19.624 121.007 19.3896C121.007 19.1729 120.989 18.9619 120.954 18.7568C121.206 18.8857 121.396 19.0938 121.525 19.3809C121.66 19.6621 121.728 19.9697 121.728 20.3037C121.728 20.6494 121.669 20.9541 121.552 21.2178C121.44 21.4814 121.285 21.7041 121.086 21.8857C120.887 22.0615 120.652 22.1963 120.383 22.29C120.113 22.3838 119.823 22.4307 119.513 22.4307C119.325 22.4307 119.103 22.4102 118.845 22.3691C118.593 22.3281 118.329 22.252 118.054 22.1406C117.778 22.0352 117.506 21.8828 117.236 21.6836C116.967 21.4844 116.727 21.2266 116.516 20.9102C116.305 20.5938 116.132 20.21 115.997 19.7588C115.868 19.3018 115.804 18.7656 115.804 18.1504Z" fill="url(#paint0_linear)"/>
<rect x="1" y="1" width="148" height="28" rx="4" stroke="url(#paint1_linear)" stroke-width="2"/>
<defs>
<linearGradient id="paint0_linear" x1="78" y1="6" x2="57.2388" y2="118.643" gradientUnits="userSpaceOnUse">
<stop stop-color="#EDDD0F"/>
<stop offset="1" stop-color="#DBBA0D" stop-opacity="0"/>
</linearGradient>
<linearGradient id="paint1_linear" x1="-9" y1="-7" x2="380" y2="80" gradientUnits="userSpaceOnUse">
<stop stop-color="#F4EB11"/>
<stop offset="0.742956" stop-color="#7C0000"/>
<stop offset="0.743056" stop-color="#DD9539" stop-opacity="0"/>
</linearGradient>
</defs>
</svg>
