<svg width="150" height="30" viewBox="0 0 150 30" fill="none" xmlns="http://www.w3.org/2000/svg">
<rect x="2.5" y="2.5" width="145" height="25" fill="url(#paint0_linear)"/>
<path d="M45.66 11.25C45.95 11.54 46.095 11.9 46.095 12.33C46.095 12.76 45.965 13.085 45.705 13.305C45.445 13.525 45.11 13.605 44.7 13.545C44.7 12.275 44.145 11.64 43.035 11.64C42.545 11.64 42.145 11.755 41.835 11.985C41.535 12.205 41.385 12.51 41.385 12.9C41.385 13.2 41.455 13.425 41.595 13.575C41.735 13.715 41.84 13.82 41.91 13.89C41.98 13.95 42.11 14.035 42.3 14.145C42.5 14.245 42.64 14.315 42.72 14.355C42.81 14.395 42.985 14.475 43.245 14.595C43.515 14.705 43.695 14.78 43.785 14.82C44.805 15.27 45.52 15.7 45.93 16.11C46.35 16.52 46.56 17.09 46.56 17.82C46.56 18.83 46.205 19.65 45.495 20.28C44.785 20.91 43.825 21.225 42.615 21.225C41.395 21.225 40.48 20.95 39.87 20.4C39.54 20.09 39.375 19.73 39.375 19.32C39.375 18.9 39.505 18.57 39.765 18.33C40.035 18.09 40.435 17.97 40.965 17.97C40.965 18.7 41.115 19.235 41.415 19.575C41.725 19.915 42.21 20.085 42.87 20.085C43.53 20.085 44.05 19.935 44.43 19.635C44.81 19.325 45 18.94 45 18.48C45 18.02 44.82 17.65 44.46 17.37C44.1 17.09 43.62 16.82 43.02 16.56C42.42 16.3 42.025 16.13 41.835 16.05C41.645 15.96 41.395 15.82 41.085 15.63C40.775 15.43 40.55 15.24 40.41 15.06C40.02 14.58 39.825 14.03 39.825 13.41C39.825 12.46 40.175 11.74 40.875 11.25C41.575 10.75 42.42 10.5 43.41 10.5C44.4 10.5 45.15 10.75 45.66 11.25ZM50.823 21H47.478V20.88C47.478 20.33 47.698 20.035 48.138 19.995L48.603 19.965V14.52L48.018 14.46C47.608 14.42 47.423 14.11 47.463 13.53L50.433 13.2V19.935L51.498 20.025C51.558 20.675 51.333 21 50.823 21ZM50.508 11.415C50.508 11.725 50.403 11.99 50.193 12.21C49.983 12.42 49.718 12.525 49.398 12.525C49.088 12.525 48.823 12.42 48.603 12.21C48.393 11.99 48.288 11.725 48.288 11.415C48.288 11.105 48.393 10.845 48.603 10.635C48.823 10.415 49.088 10.305 49.398 10.305C49.708 10.305 49.968 10.415 50.178 10.635C50.398 10.845 50.508 11.105 50.508 11.415ZM54.9081 14.475V18.63C54.9081 19.44 55.1681 19.845 55.6881 19.845C56.0681 19.845 56.3831 19.795 56.6331 19.695C56.8931 19.595 57.1681 19.425 57.4581 19.185C57.5081 19.185 57.5731 19.25 57.6531 19.38C57.7331 19.51 57.7731 19.65 57.7731 19.8C57.7731 20.19 57.4981 20.525 56.9481 20.805C56.3981 21.085 55.8631 21.225 55.3431 21.225C54.8231 21.225 54.4131 21.15 54.1131 21C53.8131 20.86 53.5881 20.65 53.4381 20.37C53.1981 19.91 53.0781 19.3 53.0781 18.54V14.475H51.8331C51.8331 13.775 52.0781 13.425 52.5681 13.425H53.0781V11.505L54.9081 11.31V13.425H57.6081C57.6281 13.575 57.6131 13.745 57.5631 13.935C57.4731 14.295 57.2431 14.475 56.8731 14.475H54.9081ZM60.3704 17.325V17.49C60.3704 18.3 60.5154 18.905 60.8054 19.305C61.1054 19.695 61.6154 19.89 62.3354 19.89C63.0654 19.89 63.7804 19.615 64.4804 19.065C64.6804 19.215 64.7804 19.45 64.7804 19.77C64.7804 20.08 64.5004 20.4 63.9404 20.73C63.3904 21.06 62.7004 21.225 61.8704 21.225C60.7904 21.225 59.9504 20.91 59.3504 20.28C58.7604 19.64 58.4654 18.675 58.4654 17.385C58.4654 16.085 58.7854 15.065 59.4254 14.325C60.0754 13.575 60.9654 13.2 62.0954 13.2C63.0554 13.2 63.7704 13.5 64.2404 14.1C64.7204 14.7 64.9504 15.49 64.9304 16.47V17.325H60.3704ZM61.9304 14.4C61.1104 14.4 60.6154 15.03 60.4454 16.29H63.1754C63.1554 15.61 63.0404 15.125 62.8304 14.835C62.6204 14.545 62.3204 14.4 61.9304 14.4ZM77.4202 18.345V21H70.0102V20.88C70.0102 20.33 70.2302 20.035 70.6702 19.995L71.1052 19.965V11.79L70.0552 11.7C70.0252 11.64 70.0302 11.505 70.0702 11.295C70.1602 10.915 70.3802 10.725 70.7302 10.725H74.4052V10.86C74.4052 11.25 74.2902 11.515 74.0602 11.655C73.9702 11.705 73.8652 11.73 73.7452 11.73L73.0102 11.76H72.9802V19.935L76.2202 19.83L76.4602 17.76C77.1002 17.7 77.4202 17.895 77.4202 18.345ZM85.4541 20.325C85.4541 20.925 85.0641 21.225 84.2841 21.225C83.5041 21.225 82.9991 20.965 82.7691 20.445C82.1391 20.965 81.4441 21.225 80.6841 21.225C79.9241 21.225 79.3241 21.04 78.8841 20.67C78.4541 20.29 78.2391 19.775 78.2391 19.125C78.2391 18.465 78.4941 17.925 79.0041 17.505C79.5141 17.085 80.3191 16.875 81.4191 16.875C81.8491 16.875 82.2591 16.905 82.6491 16.965V16.305C82.6491 15.615 82.5341 15.125 82.3041 14.835C82.0841 14.545 81.7791 14.4 81.3891 14.4C80.9991 14.4 80.6841 14.525 80.4441 14.775C80.2141 15.025 80.0991 15.365 80.0991 15.795C79.6991 15.835 79.3641 15.775 79.0941 15.615C78.8341 15.445 78.7041 15.19 78.7041 14.85C78.7041 14.37 78.9541 13.975 79.4541 13.665C79.9541 13.355 80.5991 13.2 81.3891 13.2C83.4491 13.2 84.4791 14.2 84.4791 16.2V20.205L85.4541 20.325ZM82.6491 18.09C82.2891 17.96 81.9091 17.895 81.5091 17.895C81.1191 17.895 80.7941 17.99 80.5341 18.18C80.2741 18.36 80.1441 18.62 80.1441 18.96C80.1441 19.66 80.5041 20.01 81.2241 20.01C81.7341 20.01 82.2091 19.865 82.6491 19.575V18.09ZM91.5063 13.425H93.6513C93.6513 13.425 93.6513 13.465 93.6513 13.545C93.6513 14.065 93.4313 14.36 92.9913 14.43L92.9313 14.445L90.4413 20.49H90.4563C90.4063 20.6 90.3163 20.81 90.1863 21.12C90.0563 21.43 89.9613 21.645 89.9013 21.765C89.8513 21.895 89.7613 22.095 89.6313 22.365C89.5013 22.635 89.3963 22.83 89.3163 22.95C89.2363 23.08 89.1313 23.245 89.0013 23.445C88.8713 23.645 88.7463 23.79 88.6263 23.88C88.5163 23.98 88.3863 24.085 88.2363 24.195C87.9663 24.395 87.6263 24.495 87.2163 24.495C86.8063 24.495 86.4763 24.39 86.2263 24.18C85.9763 23.97 85.8513 23.71 85.8513 23.4C85.8513 23.1 85.9413 22.855 86.1213 22.665C86.3013 22.485 86.5013 22.395 86.7213 22.395C86.9413 22.395 87.0763 22.405 87.1263 22.425C87.0163 22.955 87.1313 23.22 87.4713 23.22C87.7613 23.22 88.0663 22.905 88.3863 22.275C88.7163 21.655 88.9813 21.02 89.1813 20.37L86.5263 14.49H86.4513L85.6263 14.4C85.5963 14.34 85.6013 14.205 85.6413 13.995C85.7313 13.615 85.9513 13.425 86.3013 13.425H89.4063C89.3763 13.795 89.3313 14.025 89.2713 14.115C89.1213 14.285 88.9463 14.39 88.7463 14.43L88.5813 14.46L90.0963 18.21L91.5363 14.475L90.8313 14.4C90.7713 13.75 90.9963 13.425 91.5063 13.425ZM98.9183 15.15C98.6383 14.62 98.2383 14.355 97.7183 14.355C97.1983 14.355 96.7933 14.615 96.5033 15.135C96.2233 15.655 96.0833 16.365 96.0833 17.265C96.0833 18.155 96.2233 18.85 96.5033 19.35C96.7933 19.84 97.1983 20.085 97.7183 20.085C98.2383 20.085 98.6383 19.845 98.9183 19.365C99.2083 18.875 99.3533 18.185 99.3533 17.295C99.3533 16.395 99.2083 15.68 98.9183 15.15ZM94.1783 17.34C94.1783 16.06 94.4933 15.05 95.1233 14.31C95.7633 13.57 96.6483 13.2 97.7783 13.2C98.9083 13.2 99.7683 13.555 100.358 14.265C100.958 14.975 101.258 15.96 101.258 17.22C101.258 18.47 100.938 19.45 100.298 20.16C99.6583 20.87 98.7633 21.225 97.6133 21.225C96.4733 21.225 95.6133 20.895 95.0333 20.235C94.4633 19.575 94.1783 18.61 94.1783 17.34ZM106.583 14.37C106.583 13.74 106.803 13.425 107.243 13.425H109.583V19.995H109.913C110.253 20.005 110.423 20.32 110.423 20.94L108.293 21.15L107.978 20.31C107.268 20.92 106.533 21.225 105.773 21.225C105.023 21.225 104.378 20.97 103.838 20.46C103.298 19.94 103.028 19.145 103.028 18.075V14.49H101.933V14.37C101.933 13.74 102.153 13.425 102.593 13.425H104.858V18.15C104.858 18.77 104.978 19.21 105.218 19.47C105.458 19.73 105.828 19.86 106.328 19.86C106.828 19.86 107.303 19.69 107.753 19.35V14.49H106.583V14.37ZM113.912 14.475V18.63C113.912 19.44 114.172 19.845 114.692 19.845C115.072 19.845 115.387 19.795 115.637 19.695C115.897 19.595 116.172 19.425 116.462 19.185C116.512 19.185 116.577 19.25 116.657 19.38C116.737 19.51 116.777 19.65 116.777 19.8C116.777 20.19 116.502 20.525 115.952 20.805C115.402 21.085 114.867 21.225 114.347 21.225C113.827 21.225 113.417 21.15 113.117 21C112.817 20.86 112.592 20.65 112.442 20.37C112.202 19.91 112.082 19.3 112.082 18.54V14.475H110.837C110.837 13.775 111.082 13.425 111.572 13.425H112.082V11.505L113.912 11.31V13.425H116.612C116.632 13.575 116.617 13.745 116.567 13.935C116.477 14.295 116.247 14.475 115.877 14.475H113.912Z" fill="white"/>
<rect x="2.5" y="2.5" width="145" height="25" stroke="url(#paint1_linear)" stroke-width="5"/>
<defs>
<linearGradient id="paint0_linear" x1="75" y1="5.96046e-07" x2="67" y2="164" gradientUnits="userSpaceOnUse">
<stop stop-color="#BD1313"/>
<stop offset="1" stop-color="#CE1D1D" stop-opacity="0"/>
</linearGradient>
<linearGradient id="paint1_linear" x1="70" y1="-4.99999" x2="95" y2="70.5" gradientUnits="userSpaceOnUse">
<stop stop-color="#DD9539"/>
<stop offset="0.742956" stop-color="#7C0000"/>
<stop offset="0.743056" stop-color="#DD9539" stop-opacity="0"/>
</linearGradient>
</defs>
</svg>
