<svg width="150" height="30" viewBox="0 0 150 30" fill="none" xmlns="http://www.w3.org/2000/svg">
<rect x="0.5" y="0.5" width="149" height="29" fill="white"/>
<path d="M46.09 11.25C46.41 11.52 46.57 11.835 46.57 12.195C46.57 12.555 46.475 12.815 46.285 12.975C46.105 13.125 45.885 13.195 45.625 13.185C45.625 12.025 45.015 11.445 43.795 11.445C43.225 11.445 42.75 11.58 42.37 11.85C42 12.12 41.815 12.495 41.815 12.975C41.815 13.545 42.09 14.005 42.64 14.355C42.94 14.545 43.185 14.685 43.375 14.775C43.565 14.865 43.865 15 44.275 15.18C44.685 15.35 45 15.49 45.22 15.6C45.45 15.71 45.7 15.855 45.97 16.035C46.24 16.205 46.44 16.37 46.57 16.53C46.89 16.94 47.05 17.415 47.05 17.955C47.05 18.855 46.71 19.625 46.03 20.265C45.36 20.905 44.475 21.225 43.375 21.225C42.585 21.225 41.885 21.065 41.275 20.745C40.675 20.425 40.375 20 40.375 19.47C40.375 19.21 40.45 18.995 40.6 18.825C40.76 18.655 40.975 18.57 41.245 18.57C41.365 19.17 41.63 19.625 42.04 19.935C42.45 20.245 42.995 20.4 43.675 20.4C44.355 20.4 44.915 20.215 45.355 19.845C45.795 19.465 46.015 18.965 46.015 18.345C46.015 17.765 45.81 17.325 45.4 17.025C45.08 16.785 44.735 16.59 44.365 16.44C44.005 16.28 43.69 16.14 43.42 16.02C43.15 15.9 42.875 15.77 42.595 15.63C42.325 15.48 42.03 15.29 41.71 15.06C41.09 14.61 40.78 14 40.78 13.23C40.78 12.46 41.075 11.84 41.665 11.37C42.265 10.89 43.005 10.64 43.885 10.62C44.815 10.6 45.55 10.81 46.09 11.25ZM51.0114 21H48.1614V20.88C48.1614 20.64 48.2314 20.49 48.3714 20.43C48.4414 20.39 48.5264 20.365 48.6264 20.355L49.2564 20.325V14.385L48.4764 14.325C48.2364 14.295 48.1164 14.08 48.1164 13.68L50.2914 13.44V20.295L51.4314 20.385C51.4714 20.795 51.3314 21 51.0114 21ZM50.1864 12.075C50.0464 12.205 49.8664 12.27 49.6464 12.27C49.4264 12.27 49.2464 12.205 49.1064 12.075C48.9764 11.935 48.9114 11.755 48.9114 11.535C48.9114 11.315 48.9764 11.135 49.1064 10.995C49.2464 10.855 49.4264 10.785 49.6464 10.785C49.8664 10.785 50.0464 10.855 50.1864 10.995C50.3264 11.135 50.3964 11.315 50.3964 11.535C50.3964 11.755 50.3264 11.935 50.1864 12.075ZM54.2516 14.355V18.765C54.2516 19.325 54.3116 19.73 54.4316 19.98C54.5616 20.23 54.8016 20.355 55.1516 20.355C55.5116 20.355 55.8116 20.315 56.0516 20.235C56.2916 20.155 56.5866 19.975 56.9366 19.695C57.1166 19.745 57.2066 19.895 57.2066 20.145C57.2066 20.395 56.9616 20.64 56.4716 20.88C55.9916 21.12 55.5266 21.24 55.0766 21.24C54.3766 21.24 53.8916 21.04 53.6216 20.64C53.3516 20.24 53.2166 19.66 53.2166 18.9V14.355H52.1216C52.0916 13.895 52.2366 13.665 52.5566 13.665H53.2166V11.88L54.2516 11.625V13.665H57.0566C57.0866 13.995 57.0116 14.225 56.8316 14.355H54.2516ZM63.867 17.055H59.157C59.147 17.155 59.142 17.31 59.142 17.52C59.142 18.37 59.322 19.06 59.682 19.59C60.042 20.11 60.602 20.37 61.362 20.37C62.122 20.37 62.847 20.1 63.537 19.56C63.657 19.66 63.717 19.785 63.717 19.935C63.717 20.215 63.442 20.5 62.892 20.79C62.352 21.08 61.742 21.225 61.062 21.225C60.132 21.225 59.387 20.92 58.827 20.31C58.277 19.7 58.002 18.77 58.002 17.52C58.002 16.27 58.332 15.28 58.992 14.55C59.652 13.81 60.432 13.44 61.332 13.44C62.232 13.44 62.882 13.725 63.282 14.295C63.682 14.865 63.877 15.545 63.867 16.335V17.055ZM62.772 16.38C62.772 15.71 62.642 15.18 62.382 14.79C62.122 14.39 61.742 14.19 61.242 14.19C60.752 14.19 60.332 14.385 59.982 14.775C59.632 15.165 59.387 15.7 59.247 16.38H62.772ZM75.9347 18.915V21H68.9747V20.88C68.9747 20.62 69.0447 20.45 69.1847 20.37C69.2547 20.34 69.3397 20.32 69.4397 20.31L70.1297 20.28V11.58L69.0197 11.49C68.9697 11.04 69.1097 10.815 69.4397 10.815H72.4247V10.935C72.4247 11.205 72.3547 11.37 72.2147 11.43C72.1447 11.47 72.0597 11.495 71.9597 11.505L71.2097 11.55V20.25L75.1097 20.175L75.2747 18.525C75.7147 18.485 75.9347 18.615 75.9347 18.915ZM83.5149 20.535C83.5149 21.005 83.2049 21.24 82.5849 21.24C81.9649 21.24 81.6049 20.925 81.5049 20.295C80.8649 20.915 80.0949 21.225 79.1949 21.225C78.5049 21.225 77.9549 21.05 77.5449 20.7C77.1449 20.34 76.9449 19.855 76.9449 19.245C76.9449 18.635 77.1699 18.12 77.6199 17.7C78.0699 17.28 78.8149 17.07 79.8549 17.07C80.4649 17.07 81.0049 17.14 81.4749 17.28V16.095C81.4749 15.525 81.3299 15.07 81.0399 14.73C80.7599 14.38 80.3449 14.205 79.7949 14.205C79.2449 14.205 78.8499 14.355 78.6099 14.655C78.3799 14.945 78.2499 15.285 78.2199 15.675C77.9799 15.695 77.7799 15.645 77.6199 15.525C77.4599 15.405 77.3799 15.21 77.3799 14.94C77.3799 14.51 77.5999 14.155 78.0399 13.875C78.4799 13.585 79.0499 13.44 79.7499 13.44C80.3599 13.44 80.9399 13.59 81.4899 13.89C81.7999 14.05 82.0499 14.315 82.2399 14.685C82.4299 15.055 82.5249 15.505 82.5249 16.035V20.415L83.5149 20.535ZM81.4749 18.18C81.0149 17.93 80.4799 17.805 79.8699 17.805C79.2599 17.805 78.8099 17.92 78.5199 18.15C78.2399 18.38 78.0999 18.695 78.0999 19.095C78.0999 19.495 78.2249 19.815 78.4749 20.055C78.7249 20.285 79.0699 20.4 79.5099 20.4C80.2099 20.4 80.8649 20.13 81.4749 19.59V18.18ZM89.1842 13.665H91.1642C91.1542 13.695 91.1542 13.735 91.1642 13.785C91.1742 13.825 91.1692 13.875 91.1492 13.935C91.1392 13.985 91.1242 14.035 91.1042 14.085C91.0442 14.205 90.8542 14.28 90.5342 14.31L87.9692 20.625H87.9842C87.7142 21.345 87.4392 21.965 87.1592 22.485C86.8892 23.005 86.6742 23.36 86.5142 23.55C86.1242 24.04 85.7392 24.285 85.3592 24.285C84.9792 24.285 84.6992 24.205 84.5192 24.045C84.3392 23.895 84.2492 23.71 84.2492 23.49C84.2492 23.28 84.3042 23.105 84.4142 22.965C84.5342 22.835 84.6642 22.77 84.8042 22.77C84.9542 22.77 85.0542 22.78 85.1042 22.8C85.0142 23.2 85.1292 23.4 85.4492 23.4C85.7092 23.4 86.0042 23.105 86.3342 22.515C86.6642 21.925 86.9592 21.3 87.2192 20.64L84.6092 14.37H84.5942L83.8592 14.28C83.8192 13.87 83.9592 13.665 84.2792 13.665H86.7992V13.77C86.7992 14.01 86.7292 14.16 86.5892 14.22C86.5092 14.26 86.2342 14.3 85.7642 14.34L87.7142 19.365L89.6342 14.37L88.7642 14.28C88.7242 13.87 88.8642 13.665 89.1842 13.665ZM95.0359 14.22C94.3559 14.22 93.8309 14.515 93.4609 15.105C93.0909 15.695 92.9059 16.45 92.9059 17.37C92.9059 18.28 93.0859 19.025 93.4459 19.605C93.8059 20.175 94.3259 20.46 95.0059 20.46C95.6859 20.45 96.2109 20.16 96.5809 19.59C96.9509 19.02 97.1359 18.285 97.1359 17.385C97.1359 16.475 96.9559 15.72 96.5959 15.12C96.2459 14.51 95.7259 14.21 95.0359 14.22ZM95.1259 13.44C95.8859 13.44 96.5709 13.68 97.1809 14.16C97.5009 14.42 97.7559 14.8 97.9459 15.3C98.1459 15.8 98.2459 16.4 98.2459 17.1C98.2659 18.34 97.9759 19.34 97.3759 20.1C96.7759 20.85 95.9659 21.225 94.9459 21.225C93.9259 21.225 93.1509 20.905 92.6209 20.265C92.0909 19.625 91.8159 18.7 91.7959 17.49C91.7859 16.28 92.0809 15.305 92.6809 14.565C93.2909 13.815 94.1059 13.44 95.1259 13.44ZM99.0681 14.1C99.0681 13.81 99.2081 13.665 99.4881 13.665H101.243V18.09C101.243 18.83 101.398 19.39 101.708 19.77C102.018 20.14 102.478 20.325 103.088 20.325C103.708 20.325 104.333 20.05 104.963 19.5V14.37L103.808 14.295C103.768 13.875 103.903 13.665 104.213 13.665H105.998V20.145L106.733 20.22C106.963 20.24 107.078 20.455 107.078 20.865L105.263 21.015L105.068 20.22C104.398 20.89 103.633 21.225 102.773 21.225C102.083 21.225 101.483 20.98 100.973 20.49C100.463 20 100.208 19.23 100.208 18.18V14.37L99.0681 14.295V14.1ZM109.857 14.355V18.765C109.857 19.325 109.917 19.73 110.037 19.98C110.167 20.23 110.407 20.355 110.757 20.355C111.117 20.355 111.417 20.315 111.657 20.235C111.897 20.155 112.192 19.975 112.542 19.695C112.722 19.745 112.812 19.895 112.812 20.145C112.812 20.395 112.567 20.64 112.077 20.88C111.597 21.12 111.132 21.24 110.682 21.24C109.982 21.24 109.497 21.04 109.227 20.64C108.957 20.24 108.822 19.66 108.822 18.9V14.355H107.727C107.697 13.895 107.842 13.665 108.162 13.665H108.822V11.88L109.857 11.625V13.665H112.662C112.692 13.995 112.617 14.225 112.437 14.355H109.857Z" fill="#7C0000"/>
<rect x="0.5" y="0.5" width="149" height="29" stroke="url(#paint0_linear)"/>
<defs>
<linearGradient id="paint0_linear" x1="70" y1="-4.99999" x2="95" y2="70.5" gradientUnits="userSpaceOnUse">
<stop stop-color="#DD9539"/>
<stop offset="0.742956" stop-color="#7C0000"/>
<stop offset="0.743056" stop-color="#DD9539" stop-opacity="0"/>
</linearGradient>
</defs>
</svg>
