<svg width="150" height="30" viewBox="0 0 150 30" fill="none" xmlns="http://www.w3.org/2000/svg">
<rect x="1" y="1" width="148" height="28" rx="4" fill="white"/>
<path d="M35.8252 9.09961C36.2236 9.09961 36.6045 9.1377 36.9678 9.21387C37.3369 9.28418 37.6797 9.38086 37.9961 9.50391C38.3125 9.62109 38.5996 9.75586 38.8574 9.9082C39.1152 10.0605 39.335 10.2129 39.5166 10.3652L41.8018 8.79199L39.1738 13.8369L38.9717 11.1914C38.8018 11.0742 38.6172 10.9717 38.418 10.8838C38.2246 10.79 38.0283 10.7139 37.8291 10.6553C37.6357 10.5908 37.4482 10.541 37.2666 10.5059C37.085 10.4648 36.9238 10.4326 36.7832 10.4092C36.6426 10.3857 36.5283 10.3711 36.4404 10.3652C36.3584 10.3535 36.3145 10.3477 36.3086 10.3477C35.9102 10.3477 35.5762 10.3916 35.3066 10.4795C35.0371 10.5674 34.8174 10.6816 34.6475 10.8223C34.4834 10.9629 34.3633 11.124 34.2871 11.3057C34.2168 11.4814 34.1816 11.6602 34.1816 11.8418C34.1816 12.2109 34.2578 12.5244 34.4102 12.7822C34.5625 13.0342 34.7939 13.2598 35.1045 13.459C35.415 13.6582 35.8105 13.8457 36.291 14.0215C36.7715 14.1914 37.3369 14.376 37.9873 14.5752C38.3799 14.6982 38.749 14.8652 39.0947 15.0762C39.4463 15.2812 39.751 15.5244 40.0088 15.8057C40.2666 16.0811 40.4688 16.3916 40.6152 16.7373C40.7676 17.0771 40.8438 17.4434 40.8438 17.8359C40.8438 18.293 40.7793 18.7002 40.6504 19.0576C40.5215 19.4092 40.3486 19.7197 40.1318 19.9893C39.9209 20.2529 39.6748 20.4785 39.3936 20.666C39.1123 20.8477 38.8193 20.9941 38.5146 21.1055C38.2158 21.2227 37.9111 21.3047 37.6006 21.3516C37.2959 21.4043 37.0088 21.4307 36.7393 21.4307C35.9482 21.4307 35.2305 21.2959 34.5859 21.0264C33.9414 20.7568 33.3408 20.3877 32.7842 19.9189L30.499 21.4834L33.0479 16.9658C33.1182 17.3877 33.2412 17.7949 33.417 18.1875C33.5986 18.5742 33.8213 18.9199 34.085 19.2246C34.3486 19.5293 34.6533 19.7725 34.999 19.9541C35.3447 20.1357 35.7227 20.2266 36.1328 20.2266C36.4609 20.2266 36.7598 20.1768 37.0293 20.0771C37.3047 19.9775 37.5391 19.8457 37.7324 19.6816C37.9258 19.5117 38.0752 19.3184 38.1807 19.1016C38.292 18.8789 38.3477 18.6475 38.3477 18.4072C38.3477 18.0732 38.2539 17.7861 38.0664 17.5459C37.8789 17.2998 37.6328 17.083 37.3281 16.8955C37.0234 16.7021 36.6748 16.5264 36.2822 16.3682C35.8955 16.2041 35.4971 16.0371 35.0869 15.8672C34.6768 15.6973 34.2754 15.5098 33.8828 15.3047C33.4961 15.0996 33.1504 14.8594 32.8457 14.584C32.541 14.3027 32.2949 13.9746 32.1074 13.5996C31.9199 13.2246 31.8262 12.7822 31.8262 12.2725C31.8262 11.8799 31.9023 11.4961 32.0547 11.1211C32.2129 10.7402 32.4531 10.4004 32.7754 10.1016C33.1035 9.80273 33.5195 9.5625 34.0234 9.38086C34.5273 9.19336 35.1279 9.09961 35.8252 9.09961ZM41.8545 21.0879L43.2344 20.0068L42.9355 13.9424L41.3096 12.8789L45.0889 12.2373L44.4121 19.2861L46.3018 20.4639L41.8545 21.0879ZM45.1855 10.1104C45.1855 10.2861 45.1504 10.4531 45.0801 10.6113C45.0098 10.7637 44.9131 10.9014 44.79 11.0244C44.667 11.1416 44.5264 11.2354 44.3682 11.3057C44.21 11.3701 44.043 11.4023 43.8672 11.4023C43.6797 11.4023 43.5039 11.3701 43.3398 11.3057C43.1816 11.2354 43.0439 11.1416 42.9268 11.0244C42.8096 10.9014 42.7158 10.7637 42.6455 10.6113C42.5752 10.4531 42.54 10.2861 42.54 10.1104C42.54 9.92871 42.5752 9.76172 42.6455 9.60938C42.7158 9.45117 42.8096 9.31348 42.9268 9.19629C43.0439 9.0791 43.1816 8.98828 43.3398 8.92383C43.5039 8.85352 43.6797 8.81836 43.8672 8.81836C44.043 8.81836 44.21 8.85352 44.3682 8.92383C44.5264 8.98828 44.667 9.0791 44.79 9.19629C44.9131 9.31348 45.0098 9.45117 45.0801 9.60938C45.1504 9.76172 45.1855 9.92871 45.1855 10.1104ZM47.1807 17.1504C47.1807 16.5996 47.2363 16.0518 47.3477 15.5068C47.4648 14.9561 47.5908 14.4521 47.7256 13.9951L46.2051 14.0918L50.4941 9.40723C50.1543 10.4795 49.8789 11.4463 49.668 12.3076L53.0869 12.5977L52.6387 13.6523L49.3252 13.8896C49.2432 14.3174 49.1787 14.6982 49.1318 15.0322C49.0908 15.3604 49.0557 15.6387 49.0264 15.8672C48.9971 16.1367 48.9766 16.3711 48.9648 16.5703C48.9648 17.1562 49 17.6836 49.0703 18.1523C49.1406 18.6211 49.249 19.0225 49.3955 19.3564C49.5479 19.6846 49.7383 19.9395 49.9668 20.1211C50.2012 20.2969 50.4795 20.3848 50.8018 20.3848C51.1006 20.3848 51.3496 20.3262 51.5488 20.209C51.7539 20.0859 51.918 19.9307 52.041 19.7432C52.1641 19.5498 52.252 19.3359 52.3047 19.1016C52.3574 18.8613 52.3838 18.624 52.3838 18.3896C52.3838 18.1729 52.3662 17.9619 52.3311 17.7568C52.583 17.8857 52.7734 18.0938 52.9023 18.3809C53.0371 18.6621 53.1045 18.9697 53.1045 19.3037C53.1045 19.6494 53.0459 19.9541 52.9287 20.2178C52.8174 20.4814 52.6621 20.7041 52.4629 20.8857C52.2637 21.0615 52.0293 21.1963 51.7598 21.29C51.4902 21.3838 51.2002 21.4307 50.8896 21.4307C50.7021 21.4307 50.4795 21.4102 50.2217 21.3691C49.9697 21.3281 49.7061 21.252 49.4307 21.1406C49.1553 21.0352 48.8828 20.8828 48.6133 20.6836C48.3438 20.4844 48.1035 20.2266 47.8926 19.9102C47.6816 19.5938 47.5088 19.21 47.374 18.7588C47.2451 18.3018 47.1807 17.7656 47.1807 17.1504ZM55.7236 17.7744C55.7998 18.1025 55.9023 18.4248 56.0312 18.7412C56.1602 19.0518 56.3184 19.3301 56.5059 19.5762C56.6934 19.8223 56.9102 20.0215 57.1562 20.1738C57.4023 20.3262 57.6807 20.4023 57.9912 20.4023C58.4014 20.4023 58.7588 20.3174 59.0635 20.1475C59.3682 19.9775 59.6172 19.7637 59.8105 19.5059C60.0039 19.2422 60.1387 18.9551 60.2148 18.6445C60.291 18.3281 60.3057 18.0264 60.2588 17.7393C60.4229 17.8037 60.5576 17.8887 60.6631 17.9941C60.7744 18.0996 60.8594 18.2168 60.918 18.3457C60.9824 18.4688 61.0264 18.5977 61.0498 18.7324C61.0732 18.8613 61.085 18.9873 61.085 19.1104C61.085 19.3916 61.0029 19.6641 60.8389 19.9277C60.6748 20.1855 60.4434 20.417 60.1445 20.6221C59.8516 20.8213 59.5029 20.9824 59.0986 21.1055C58.6943 21.2285 58.252 21.29 57.7715 21.29C57.127 21.29 56.5498 21.1641 56.04 20.9121C55.5361 20.6602 55.1084 20.3203 54.7568 19.8926C54.4053 19.459 54.1357 18.9521 53.9482 18.3721C53.7607 17.792 53.667 17.1738 53.667 16.5176C53.667 15.8496 53.7607 15.2344 53.9482 14.6719C54.1357 14.1035 54.4111 13.6201 54.7744 13.2217C55.1436 12.8232 55.5947 12.5215 56.1279 12.3164C56.6611 12.1113 57.2764 12.0293 57.9736 12.0703C58.4541 12.1055 58.8965 12.2432 59.3008 12.4834C59.7051 12.7236 60.0566 13.0342 60.3555 13.415C60.6602 13.79 60.9033 14.2207 61.085 14.707C61.2725 15.1934 61.3867 15.7002 61.4277 16.2275L55.7236 17.7744ZM55.5566 16.3594C55.5566 16.4414 55.5566 16.5234 55.5566 16.6055C55.5566 16.6816 55.5625 16.7607 55.5742 16.8428L59.4326 15.4365C59.3037 15.0146 59.1572 14.6543 58.9932 14.3555C58.835 14.0508 58.668 13.8018 58.4922 13.6084C58.3164 13.415 58.1377 13.2744 57.9561 13.1865C57.7803 13.0928 57.6104 13.0459 57.4463 13.0459C57.2002 13.0459 56.9834 13.0928 56.7959 13.1865C56.6084 13.2803 56.4443 13.4092 56.3037 13.5732C56.1689 13.7314 56.0518 13.9189 55.9521 14.1357C55.8584 14.3525 55.7822 14.584 55.7236 14.8301C55.665 15.0762 55.6211 15.3311 55.5918 15.5947C55.5684 15.8525 55.5566 16.1074 55.5566 16.3594ZM76.2461 20.6045L66.1475 21L68.3799 19.0576L68.9072 10.5586L66.4902 9.30176L72.3438 8.92383L70.4893 10.1807L70.5947 19.0928L74.6641 19.5938L76.2461 16.623V20.6045ZM84.7891 15.5244C84.7891 15.835 84.7715 16.1689 84.7363 16.5264C84.7012 16.8838 84.6484 17.2471 84.5781 17.6162C84.5137 17.9854 84.4346 18.3486 84.3408 18.7061C84.2529 19.0576 84.1562 19.3828 84.0508 19.6816L85.9229 21L82.6094 20.8594L82.8115 19.7783C82.46 20.2178 82.0527 20.5547 81.5898 20.7891C81.1328 21.0176 80.6025 21.1553 79.999 21.2021C79.5068 21.2373 79.0762 21.2021 78.707 21.0967C78.3438 20.9971 78.0391 20.8418 77.793 20.6309C77.5527 20.4141 77.374 20.1504 77.2568 19.8398C77.1396 19.5234 77.0811 19.1719 77.0811 18.7852C77.0811 18.4277 77.1689 18.082 77.3447 17.748C77.5205 17.4082 77.7725 17.1094 78.1006 16.8516C78.4346 16.5938 78.8418 16.3887 79.3223 16.2363C79.8027 16.0781 80.3477 15.999 80.957 15.999C81.2383 15.999 81.5605 16.0254 81.9238 16.0781C82.293 16.1309 82.6416 16.2422 82.9697 16.4121C82.9404 16.0547 82.8848 15.6914 82.8027 15.3223C82.7266 14.9473 82.6123 14.6074 82.46 14.3027C82.3076 13.998 82.1084 13.752 81.8623 13.5645C81.6221 13.3711 81.3203 13.2744 80.957 13.2744C80.6465 13.2744 80.3447 13.3389 80.0518 13.4678C79.7588 13.5967 79.4834 13.7812 79.2256 14.0215C78.9736 14.2617 78.7451 14.5547 78.54 14.9004C78.335 15.2461 78.1621 15.6357 78.0215 16.0693L77.2832 11.7627L78.3994 13.4766C78.6748 13.1367 78.9531 12.8672 79.2344 12.668C79.5156 12.4629 79.7939 12.3076 80.0693 12.2021C80.3506 12.0908 80.6201 12.0176 80.8779 11.9824C81.1416 11.9473 81.3936 11.9297 81.6338 11.9297C82.085 11.9531 82.501 12.0469 82.8818 12.2109C83.2686 12.3691 83.6025 12.6006 83.8838 12.9053C84.165 13.2041 84.3848 13.5732 84.543 14.0127C84.707 14.4521 84.7891 14.9561 84.7891 15.5244ZM82.9697 18.3369C82.9814 18.1729 82.9902 18.0146 82.9961 17.8623C83.002 17.71 83.0049 17.5605 83.0049 17.4141V17.3086C82.7939 17.2266 82.5801 17.165 82.3633 17.124C82.1523 17.0771 81.9561 17.0449 81.7744 17.0273C81.5928 17.0039 81.4375 16.9922 81.3086 16.9922C81.1855 16.9863 81.1035 16.9834 81.0625 16.9834C80.7285 16.9951 80.4385 17.0566 80.1924 17.168C79.9463 17.2793 79.7412 17.4199 79.5771 17.5898C79.4189 17.7539 79.2988 17.9385 79.2168 18.1436C79.1406 18.3486 79.1025 18.5508 79.1025 18.75C79.1025 19.2012 79.2109 19.5439 79.4277 19.7783C79.6504 20.0068 79.9727 20.1211 80.3945 20.1211C80.6758 20.1211 80.9424 20.0713 81.1943 19.9717C81.4463 19.8721 81.6807 19.7402 81.8975 19.5762C82.1201 19.4062 82.3193 19.2158 82.4951 19.0049C82.6768 18.7881 82.835 18.5654 82.9697 18.3369ZM93.4463 13.3184C93.5049 13.7988 93.5488 14.3203 93.5781 14.8828C93.6133 15.4453 93.625 16.0225 93.6133 16.6143C93.6016 17.2061 93.5635 17.8008 93.499 18.3984C93.4346 18.9902 93.332 19.5615 93.1914 20.1123C93.0508 20.6572 92.8691 21.167 92.6465 21.6416C92.4238 22.1162 92.1484 22.5264 91.8203 22.8721C91.498 23.2236 91.1172 23.499 90.6777 23.6982C90.2441 23.9033 89.7432 24.0059 89.1748 24.0059C88.5303 24.0059 87.8418 23.8447 87.1094 23.5225L86.459 24.8145L85.5625 21.3604C85.8262 21.7061 86.0957 21.9844 86.3711 22.1953C86.6523 22.4062 86.9189 22.5674 87.1709 22.6787C87.4287 22.7959 87.6631 22.8721 87.874 22.9072C88.0908 22.9424 88.2666 22.96 88.4014 22.96C88.8818 22.96 89.3096 22.8076 89.6846 22.5029C90.0654 22.2041 90.3994 21.7881 90.6865 21.2549C90.2178 20.7627 89.7607 20.2295 89.3154 19.6553C88.876 19.0752 88.4775 18.46 88.1201 17.8096C87.7627 17.1533 87.4609 16.4648 87.2148 15.7441C86.9746 15.0234 86.8193 14.2734 86.749 13.4941L85.3076 12.7207L89.377 12.1406L88.6211 13.1689C88.7734 14.3467 89.0664 15.5039 89.5 16.6406C89.9336 17.7773 90.499 18.9316 91.1963 20.1035C91.3486 19.6641 91.4805 19.1895 91.5918 18.6797C91.709 18.1699 91.8057 17.6309 91.8818 17.0625C91.9639 16.4941 92.0254 15.9053 92.0664 15.2959C92.1074 14.6807 92.1338 14.0566 92.1455 13.4238L90.8359 12.1406C91.3223 12.1758 91.75 12.208 92.1191 12.2373C92.4941 12.2666 92.8193 12.293 93.0947 12.3164C93.3701 12.334 93.6016 12.3516 93.7891 12.3691C93.9824 12.3809 94.1406 12.3896 94.2637 12.3955C94.5508 12.4189 94.7207 12.4307 94.7734 12.4307L93.4463 13.3184ZM95.2393 16.5879C95.2393 15.9316 95.3418 15.3252 95.5469 14.7686C95.7578 14.2061 96.0479 13.7197 96.417 13.3096C96.792 12.8994 97.2344 12.5801 97.7441 12.3516C98.2598 12.1172 98.8223 12 99.4316 12C100.023 12 100.565 12.1113 101.058 12.334C101.55 12.5508 101.978 12.8584 102.341 13.2568C102.704 13.6553 102.994 14.1328 103.211 14.6895C103.428 15.2461 103.557 15.8613 103.598 16.5352C103.639 17.2559 103.562 17.9092 103.369 18.4951C103.182 19.0752 102.903 19.5703 102.534 19.9805C102.165 20.3848 101.723 20.6982 101.207 20.9209C100.697 21.1436 100.144 21.2549 99.5459 21.2549C98.9717 21.2549 98.4238 21.1523 97.9023 20.9473C97.3867 20.7363 96.9297 20.4316 96.5312 20.0332C96.1387 19.6348 95.8252 19.1484 95.5908 18.5742C95.3564 17.9941 95.2393 17.332 95.2393 16.5879ZM97.4014 16.7373C97.4014 17.2529 97.4746 17.7188 97.6211 18.1348C97.7676 18.5508 97.9639 18.9053 98.21 19.1982C98.4561 19.4854 98.7402 19.708 99.0625 19.8662C99.3848 20.0244 99.7246 20.1035 100.082 20.1035C100.439 20.1035 100.773 20.0273 101.084 19.875C101.395 19.7168 101.664 19.4971 101.893 19.2158C102.121 18.9287 102.3 18.5859 102.429 18.1875C102.558 17.7891 102.622 17.3467 102.622 16.8604C102.622 16.3799 102.558 15.9287 102.429 15.5068C102.3 15.0791 102.118 14.707 101.884 14.3906C101.655 14.0742 101.383 13.8252 101.066 13.6436C100.75 13.4619 100.404 13.3711 100.029 13.3711C99.6953 13.3711 99.3701 13.4473 99.0537 13.5996C98.7432 13.752 98.4648 13.9746 98.2188 14.2676C97.9727 14.5547 97.7734 14.9062 97.6211 15.3223C97.4746 15.7383 97.4014 16.21 97.4014 16.7373ZM112.229 12.4482L112.571 20.0068L114.153 20.7451L110.55 21.4131L110.717 18.8379C110.553 19.1836 110.365 19.5146 110.154 19.8311C109.943 20.1416 109.706 20.417 109.442 20.6572C109.179 20.8916 108.889 21.0791 108.572 21.2197C108.262 21.3604 107.925 21.4307 107.562 21.4307C107.128 21.4307 106.747 21.3545 106.419 21.2021C106.091 21.0498 105.815 20.8418 105.593 20.5781C105.37 20.3086 105.2 19.9951 105.083 19.6377C104.972 19.2744 104.916 18.8877 104.916 18.4775C104.916 18.0967 104.945 17.7012 105.004 17.291C105.062 16.8809 105.142 16.4766 105.241 16.0781C105.347 15.6738 105.47 15.2842 105.61 14.9092C105.757 14.5283 105.915 14.1768 106.085 13.8545L104.23 13.4238L107.711 12.2373C107.488 12.8291 107.315 13.3975 107.192 13.9424C107.075 14.4814 106.987 14.9619 106.929 15.3838C106.864 15.876 106.823 16.333 106.806 16.7549C106.806 17.2998 106.844 17.7715 106.92 18.1699C106.996 18.5625 107.102 18.8906 107.236 19.1543C107.371 19.4121 107.532 19.6055 107.72 19.7344C107.907 19.8574 108.112 19.9189 108.335 19.9189C108.675 19.9189 108.979 19.8281 109.249 19.6465C109.519 19.4648 109.756 19.2217 109.961 18.917C110.172 18.6064 110.351 18.2461 110.497 17.8359C110.649 17.4258 110.772 16.9922 110.866 16.5352C110.966 16.0781 111.039 15.6123 111.086 15.1377C111.133 14.6631 111.159 14.2061 111.165 13.7666L109.258 12.4482H112.229ZM114.804 17.1504C114.804 16.5996 114.859 16.0518 114.971 15.5068C115.088 14.9561 115.214 14.4521 115.349 13.9951L113.828 14.0918L118.117 9.40723C117.777 10.4795 117.502 11.4463 117.291 12.3076L120.71 12.5977L120.262 13.6523L116.948 13.8896C116.866 14.3174 116.802 14.6982 116.755 15.0322C116.714 15.3604 116.679 15.6387 116.649 15.8672C116.62 16.1367 116.6 16.3711 116.588 16.5703C116.588 17.1562 116.623 17.6836 116.693 18.1523C116.764 18.6211 116.872 19.0225 117.019 19.3564C117.171 19.6846 117.361 19.9395 117.59 20.1211C117.824 20.2969 118.103 20.3848 118.425 20.3848C118.724 20.3848 118.973 20.3262 119.172 20.209C119.377 20.0859 119.541 19.9307 119.664 19.7432C119.787 19.5498 119.875 19.3359 119.928 19.1016C119.98 18.8613 120.007 18.624 120.007 18.3896C120.007 18.1729 119.989 17.9619 119.954 17.7568C120.206 17.8857 120.396 18.0938 120.525 18.3809C120.66 18.6621 120.728 18.9697 120.728 19.3037C120.728 19.6494 120.669 19.9541 120.552 20.2178C120.44 20.4814 120.285 20.7041 120.086 20.8857C119.887 21.0615 119.652 21.1963 119.383 21.29C119.113 21.3838 118.823 21.4307 118.513 21.4307C118.325 21.4307 118.103 21.4102 117.845 21.3691C117.593 21.3281 117.329 21.252 117.054 21.1406C116.778 21.0352 116.506 20.8828 116.236 20.6836C115.967 20.4844 115.727 20.2266 115.516 19.9102C115.305 19.5938 115.132 19.21 114.997 18.7588C114.868 18.3018 114.804 17.7656 114.804 17.1504Z" fill="#BD1313"/>
<rect x="1" y="1" width="148" height="28" rx="4" stroke="url(#paint0_linear)" stroke-width="2"/>
<defs>
<linearGradient id="paint0_linear" x1="70" y1="-5.00002" x2="380" y2="80" gradientUnits="userSpaceOnUse">
<stop stop-color="#F4EB11"/>
<stop offset="0.742956" stop-color="#7C0000"/>
<stop offset="0.743056" stop-color="#DD9539" stop-opacity="0"/>
</linearGradient>
</defs>
</svg>
