<svg width="150" height="30" viewBox="0 0 150 30" fill="none" xmlns="http://www.w3.org/2000/svg">
<rect x="1" y="1" width="148" height="28" rx="4" fill="white"/>
<path d="M21.8252 10.0996C22.2236 10.0996 22.6045 10.1377 22.9678 10.2139C23.3369 10.2842 23.6797 10.3809 23.9961 10.5039C24.3125 10.6211 24.5996 10.7559 24.8574 10.9082C25.1152 11.0605 25.335 11.2129 25.5166 11.3652L27.8018 9.79199L25.1738 14.8369L24.9717 12.1914C24.8018 12.0742 24.6172 11.9717 24.418 11.8838C24.2246 11.79 24.0283 11.7139 23.8291 11.6553C23.6357 11.5908 23.4482 11.541 23.2666 11.5059C23.085 11.4648 22.9238 11.4326 22.7832 11.4092C22.6426 11.3857 22.5283 11.3711 22.4404 11.3652C22.3584 11.3535 22.3145 11.3477 22.3086 11.3477C21.9102 11.3477 21.5762 11.3916 21.3066 11.4795C21.0371 11.5674 20.8174 11.6816 20.6475 11.8223C20.4834 11.9629 20.3633 12.124 20.2871 12.3057C20.2168 12.4814 20.1816 12.6602 20.1816 12.8418C20.1816 13.2109 20.2578 13.5244 20.4102 13.7822C20.5625 14.0342 20.7939 14.2598 21.1045 14.459C21.415 14.6582 21.8105 14.8457 22.291 15.0215C22.7715 15.1914 23.3369 15.376 23.9873 15.5752C24.3799 15.6982 24.749 15.8652 25.0947 16.0762C25.4463 16.2812 25.751 16.5244 26.0088 16.8057C26.2666 17.0811 26.4688 17.3916 26.6152 17.7373C26.7676 18.0771 26.8438 18.4434 26.8438 18.8359C26.8438 19.293 26.7793 19.7002 26.6504 20.0576C26.5215 20.4092 26.3486 20.7197 26.1318 20.9893C25.9209 21.2529 25.6748 21.4785 25.3936 21.666C25.1123 21.8477 24.8193 21.9941 24.5146 22.1055C24.2158 22.2227 23.9111 22.3047 23.6006 22.3516C23.2959 22.4043 23.0088 22.4307 22.7393 22.4307C21.9482 22.4307 21.2305 22.2959 20.5859 22.0264C19.9414 21.7568 19.3408 21.3877 18.7842 20.9189L16.499 22.4834L19.0479 17.9658C19.1182 18.3877 19.2412 18.7949 19.417 19.1875C19.5986 19.5742 19.8213 19.9199 20.085 20.2246C20.3486 20.5293 20.6533 20.7725 20.999 20.9541C21.3447 21.1357 21.7227 21.2266 22.1328 21.2266C22.4609 21.2266 22.7598 21.1768 23.0293 21.0771C23.3047 20.9775 23.5391 20.8457 23.7324 20.6816C23.9258 20.5117 24.0752 20.3184 24.1807 20.1016C24.292 19.8789 24.3477 19.6475 24.3477 19.4072C24.3477 19.0732 24.2539 18.7861 24.0664 18.5459C23.8789 18.2998 23.6328 18.083 23.3281 17.8955C23.0234 17.7021 22.6748 17.5264 22.2822 17.3682C21.8955 17.2041 21.4971 17.0371 21.0869 16.8672C20.6768 16.6973 20.2754 16.5098 19.8828 16.3047C19.4961 16.0996 19.1504 15.8594 18.8457 15.584C18.541 15.3027 18.2949 14.9746 18.1074 14.5996C17.9199 14.2246 17.8262 13.7822 17.8262 13.2725C17.8262 12.8799 17.9023 12.4961 18.0547 12.1211C18.2129 11.7402 18.4531 11.4004 18.7754 11.1016C19.1035 10.8027 19.5195 10.5625 20.0234 10.3809C20.5273 10.1934 21.1279 10.0996 21.8252 10.0996ZM28.4521 18.1504C28.4521 17.5996 28.5078 17.0518 28.6191 16.5068C28.7363 15.9561 28.8623 15.4521 28.9971 14.9951L27.4766 15.0918L31.7656 10.4072C31.4258 11.4795 31.1504 12.4463 30.9395 13.3076L34.3584 13.5977L33.9102 14.6523L30.5967 14.8896C30.5146 15.3174 30.4502 15.6982 30.4033 16.0322C30.3623 16.3604 30.3271 16.6387 30.2979 16.8672C30.2686 17.1367 30.248 17.3711 30.2363 17.5703C30.2363 18.1562 30.2715 18.6836 30.3418 19.1523C30.4121 19.6211 30.5205 20.0225 30.667 20.3564C30.8193 20.6846 31.0098 20.9395 31.2383 21.1211C31.4727 21.2969 31.751 21.3848 32.0732 21.3848C32.3721 21.3848 32.6211 21.3262 32.8203 21.209C33.0254 21.0859 33.1895 20.9307 33.3125 20.7432C33.4355 20.5498 33.5234 20.3359 33.5762 20.1016C33.6289 19.8613 33.6553 19.624 33.6553 19.3896C33.6553 19.1729 33.6377 18.9619 33.6025 18.7568C33.8545 18.8857 34.0449 19.0938 34.1738 19.3809C34.3086 19.6621 34.376 19.9697 34.376 20.3037C34.376 20.6494 34.3174 20.9541 34.2002 21.2178C34.0889 21.4814 33.9336 21.7041 33.7344 21.8857C33.5352 22.0615 33.3008 22.1963 33.0312 22.29C32.7617 22.3838 32.4717 22.4307 32.1611 22.4307C31.9736 22.4307 31.751 22.4102 31.4932 22.3691C31.2412 22.3281 30.9775 22.252 30.7021 22.1406C30.4268 22.0352 30.1543 21.8828 29.8848 21.6836C29.6152 21.4844 29.375 21.2266 29.1641 20.9102C28.9531 20.5938 28.7803 20.21 28.6455 19.7588C28.5166 19.3018 28.4521 18.7656 28.4521 18.1504ZM42.6289 16.5244C42.6289 16.835 42.6113 17.1689 42.5762 17.5264C42.541 17.8838 42.4883 18.2471 42.418 18.6162C42.3535 18.9854 42.2744 19.3486 42.1807 19.7061C42.0928 20.0576 41.9961 20.3828 41.8906 20.6816L43.7627 22L40.4492 21.8594L40.6514 20.7783C40.2998 21.2178 39.8926 21.5547 39.4297 21.7891C38.9727 22.0176 38.4424 22.1553 37.8389 22.2021C37.3467 22.2373 36.916 22.2021 36.5469 22.0967C36.1836 21.9971 35.8789 21.8418 35.6328 21.6309C35.3926 21.4141 35.2139 21.1504 35.0967 20.8398C34.9795 20.5234 34.9209 20.1719 34.9209 19.7852C34.9209 19.4277 35.0088 19.082 35.1846 18.748C35.3604 18.4082 35.6123 18.1094 35.9404 17.8516C36.2744 17.5938 36.6816 17.3887 37.1621 17.2363C37.6426 17.0781 38.1875 16.999 38.7969 16.999C39.0781 16.999 39.4004 17.0254 39.7637 17.0781C40.1328 17.1309 40.4814 17.2422 40.8096 17.4121C40.7803 17.0547 40.7246 16.6914 40.6426 16.3223C40.5664 15.9473 40.4521 15.6074 40.2998 15.3027C40.1475 14.998 39.9482 14.752 39.7021 14.5645C39.4619 14.3711 39.1602 14.2744 38.7969 14.2744C38.4863 14.2744 38.1846 14.3389 37.8916 14.4678C37.5986 14.5967 37.3232 14.7812 37.0654 15.0215C36.8135 15.2617 36.585 15.5547 36.3799 15.9004C36.1748 16.2461 36.002 16.6357 35.8613 17.0693L35.123 12.7627L36.2393 14.4766C36.5146 14.1367 36.793 13.8672 37.0742 13.668C37.3555 13.4629 37.6338 13.3076 37.9092 13.2021C38.1904 13.0908 38.46 13.0176 38.7178 12.9824C38.9814 12.9473 39.2334 12.9297 39.4736 12.9297C39.9248 12.9531 40.3408 13.0469 40.7217 13.2109C41.1084 13.3691 41.4424 13.6006 41.7236 13.9053C42.0049 14.2041 42.2246 14.5732 42.3828 15.0127C42.5469 15.4521 42.6289 15.9561 42.6289 16.5244ZM40.8096 19.3369C40.8213 19.1729 40.8301 19.0146 40.8359 18.8623C40.8418 18.71 40.8447 18.5605 40.8447 18.4141V18.3086C40.6338 18.2266 40.4199 18.165 40.2031 18.124C39.9922 18.0771 39.7959 18.0449 39.6143 18.0273C39.4326 18.0039 39.2773 17.9922 39.1484 17.9922C39.0254 17.9863 38.9434 17.9834 38.9023 17.9834C38.5684 17.9951 38.2783 18.0566 38.0322 18.168C37.7861 18.2793 37.5811 18.4199 37.417 18.5898C37.2588 18.7539 37.1387 18.9385 37.0566 19.1436C36.9805 19.3486 36.9424 19.5508 36.9424 19.75C36.9424 20.2012 37.0508 20.5439 37.2676 20.7783C37.4902 21.0068 37.8125 21.1211 38.2344 21.1211C38.5156 21.1211 38.7822 21.0713 39.0342 20.9717C39.2861 20.8721 39.5205 20.7402 39.7373 20.5762C39.96 20.4062 40.1592 20.2158 40.335 20.0049C40.5166 19.7881 40.6748 19.5654 40.8096 19.3369ZM44.7471 18.1504C44.7471 17.5996 44.8027 17.0518 44.9141 16.5068C45.0312 15.9561 45.1572 15.4521 45.292 14.9951L43.7715 15.0918L48.0605 10.4072C47.7207 11.4795 47.4453 12.4463 47.2344 13.3076L50.6533 13.5977L50.2051 14.6523L46.8916 14.8896C46.8096 15.3174 46.7451 15.6982 46.6982 16.0322C46.6572 16.3604 46.6221 16.6387 46.5928 16.8672C46.5635 17.1367 46.543 17.3711 46.5312 17.5703C46.5312 18.1562 46.5664 18.6836 46.6367 19.1523C46.707 19.6211 46.8154 20.0225 46.9619 20.3564C47.1143 20.6846 47.3047 20.9395 47.5332 21.1211C47.7676 21.2969 48.0459 21.3848 48.3682 21.3848C48.667 21.3848 48.916 21.3262 49.1152 21.209C49.3203 21.0859 49.4844 20.9307 49.6074 20.7432C49.7305 20.5498 49.8184 20.3359 49.8711 20.1016C49.9238 19.8613 49.9502 19.624 49.9502 19.3896C49.9502 19.1729 49.9326 18.9619 49.8975 18.7568C50.1494 18.8857 50.3398 19.0938 50.4688 19.3809C50.6035 19.6621 50.6709 19.9697 50.6709 20.3037C50.6709 20.6494 50.6123 20.9541 50.4951 21.2178C50.3838 21.4814 50.2285 21.7041 50.0293 21.8857C49.8301 22.0615 49.5957 22.1963 49.3262 22.29C49.0566 22.3838 48.7666 22.4307 48.4561 22.4307C48.2686 22.4307 48.0459 22.4102 47.7881 22.3691C47.5361 22.3281 47.2725 22.252 46.9971 22.1406C46.7217 22.0352 46.4492 21.8828 46.1797 21.6836C45.9102 21.4844 45.6699 21.2266 45.459 20.9102C45.248 20.5938 45.0752 20.21 44.9404 19.7588C44.8115 19.3018 44.7471 18.7656 44.7471 18.1504ZM53.29 18.7744C53.3662 19.1025 53.4688 19.4248 53.5977 19.7412C53.7266 20.0518 53.8848 20.3301 54.0723 20.5762C54.2598 20.8223 54.4766 21.0215 54.7227 21.1738C54.9688 21.3262 55.2471 21.4023 55.5576 21.4023C55.9678 21.4023 56.3252 21.3174 56.6299 21.1475C56.9346 20.9775 57.1836 20.7637 57.377 20.5059C57.5703 20.2422 57.7051 19.9551 57.7812 19.6445C57.8574 19.3281 57.8721 19.0264 57.8252 18.7393C57.9893 18.8037 58.124 18.8887 58.2295 18.9941C58.3408 19.0996 58.4258 19.2168 58.4844 19.3457C58.5488 19.4688 58.5928 19.5977 58.6162 19.7324C58.6396 19.8613 58.6514 19.9873 58.6514 20.1104C58.6514 20.3916 58.5693 20.6641 58.4053 20.9277C58.2412 21.1855 58.0098 21.417 57.7109 21.6221C57.418 21.8213 57.0693 21.9824 56.665 22.1055C56.2607 22.2285 55.8184 22.29 55.3379 22.29C54.6934 22.29 54.1162 22.1641 53.6064 21.9121C53.1025 21.6602 52.6748 21.3203 52.3232 20.8926C51.9717 20.459 51.7021 19.9521 51.5146 19.3721C51.3271 18.792 51.2334 18.1738 51.2334 17.5176C51.2334 16.8496 51.3271 16.2344 51.5146 15.6719C51.7021 15.1035 51.9775 14.6201 52.3408 14.2217C52.71 13.8232 53.1611 13.5215 53.6943 13.3164C54.2275 13.1113 54.8428 13.0293 55.54 13.0703C56.0205 13.1055 56.4629 13.2432 56.8672 13.4834C57.2715 13.7236 57.623 14.0342 57.9219 14.415C58.2266 14.79 58.4697 15.2207 58.6514 15.707C58.8389 16.1934 58.9531 16.7002 58.9941 17.2275L53.29 18.7744ZM53.123 17.3594C53.123 17.4414 53.123 17.5234 53.123 17.6055C53.123 17.6816 53.1289 17.7607 53.1406 17.8428L56.999 16.4365C56.8701 16.0146 56.7236 15.6543 56.5596 15.3555C56.4014 15.0508 56.2344 14.8018 56.0586 14.6084C55.8828 14.415 55.7041 14.2744 55.5225 14.1865C55.3467 14.0928 55.1768 14.0459 55.0127 14.0459C54.7666 14.0459 54.5498 14.0928 54.3623 14.1865C54.1748 14.2803 54.0107 14.4092 53.8701 14.5732C53.7354 14.7314 53.6182 14.9189 53.5186 15.1357C53.4248 15.3525 53.3486 15.584 53.29 15.8301C53.2314 16.0762 53.1875 16.3311 53.1582 16.5947C53.1348 16.8525 53.123 17.1074 53.123 17.3594ZM59.3809 22.0879L60.5322 20.7959L61.1299 14.8369L59.2754 13.501L62.2637 13.7031V14.5996C62.4863 14.3008 62.7178 14.0693 62.958 13.9053C63.2041 13.7412 63.4297 13.6211 63.6348 13.5449C63.875 13.457 64.1123 13.4072 64.3467 13.3955C64.7627 13.3955 65.1406 13.4805 65.4805 13.6504C65.8203 13.8203 66.0898 14.0547 66.2891 14.3535C66.5352 14.0605 66.8164 13.8291 67.1328 13.6592C67.4492 13.4834 67.792 13.3955 68.1611 13.3955C68.4951 13.3955 68.8057 13.4717 69.0928 13.624C69.3799 13.7764 69.626 13.9902 69.8311 14.2656C70.042 14.541 70.2061 14.8779 70.3232 15.2764C70.4463 15.6689 70.5078 16.1055 70.5078 16.5859C70.5078 16.9316 70.4844 17.292 70.4375 17.667C70.3965 18.042 70.3379 18.4141 70.2617 18.7832C70.1914 19.1523 70.1035 19.5127 69.998 19.8643C69.8926 20.21 69.7783 20.5322 69.6553 20.8311L70.9033 21.3848L66.5439 22.2021L68.4688 20.6641C68.5625 20.0312 68.6211 19.4541 68.6445 18.9326C68.6738 18.4053 68.6885 17.957 68.6885 17.5879C68.6885 16.6445 68.5742 15.959 68.3457 15.5312C68.123 15.1035 67.8037 14.8896 67.3877 14.8896C67.1357 14.8896 66.8838 14.9805 66.6318 15.1621C66.667 15.3027 66.6846 15.4521 66.6846 15.6104C66.6846 15.9678 66.6553 16.3369 66.5967 16.7178C66.5439 17.0986 66.4736 17.4736 66.3857 17.8428C66.2979 18.2119 66.1982 18.5693 66.0869 18.915C65.9756 19.2607 65.8643 19.5742 65.7529 19.8555L66.9922 20.8311H63.4502L64.6367 19.873C64.707 19.3281 64.7568 18.7715 64.7861 18.2031C64.8154 17.6289 64.8301 17.0898 64.8301 16.5859C64.8301 15.9883 64.7598 15.5195 64.6191 15.1797C64.4844 14.8398 64.2383 14.6699 63.8809 14.6699C63.6992 14.6699 63.5293 14.7051 63.3711 14.7754C63.2188 14.8457 63.0752 14.9395 62.9404 15.0566C62.8115 15.1738 62.6885 15.3086 62.5713 15.4609C62.46 15.6133 62.3574 15.7715 62.2637 15.9355V20.7256L63.7402 21.7803L59.3809 22.0879ZM73.8564 18.7744C73.9326 19.1025 74.0352 19.4248 74.1641 19.7412C74.293 20.0518 74.4512 20.3301 74.6387 20.5762C74.8262 20.8223 75.043 21.0215 75.2891 21.1738C75.5352 21.3262 75.8135 21.4023 76.124 21.4023C76.5342 21.4023 76.8916 21.3174 77.1963 21.1475C77.501 20.9775 77.75 20.7637 77.9434 20.5059C78.1367 20.2422 78.2715 19.9551 78.3477 19.6445C78.4238 19.3281 78.4385 19.0264 78.3916 18.7393C78.5557 18.8037 78.6904 18.8887 78.7959 18.9941C78.9072 19.0996 78.9922 19.2168 79.0508 19.3457C79.1152 19.4688 79.1592 19.5977 79.1826 19.7324C79.2061 19.8613 79.2178 19.9873 79.2178 20.1104C79.2178 20.3916 79.1357 20.6641 78.9717 20.9277C78.8076 21.1855 78.5762 21.417 78.2773 21.6221C77.9844 21.8213 77.6357 21.9824 77.2314 22.1055C76.8271 22.2285 76.3848 22.29 75.9043 22.29C75.2598 22.29 74.6826 22.1641 74.1729 21.9121C73.6689 21.6602 73.2412 21.3203 72.8896 20.8926C72.5381 20.459 72.2686 19.9521 72.0811 19.3721C71.8936 18.792 71.7998 18.1738 71.7998 17.5176C71.7998 16.8496 71.8936 16.2344 72.0811 15.6719C72.2686 15.1035 72.5439 14.6201 72.9072 14.2217C73.2764 13.8232 73.7275 13.5215 74.2607 13.3164C74.7939 13.1113 75.4092 13.0293 76.1064 13.0703C76.5869 13.1055 77.0293 13.2432 77.4336 13.4834C77.8379 13.7236 78.1895 14.0342 78.4883 14.415C78.793 14.79 79.0361 15.2207 79.2178 15.707C79.4053 16.1934 79.5195 16.7002 79.5605 17.2275L73.8564 18.7744ZM73.6895 17.3594C73.6895 17.4414 73.6895 17.5234 73.6895 17.6055C73.6895 17.6816 73.6953 17.7607 73.707 17.8428L77.5654 16.4365C77.4365 16.0146 77.29 15.6543 77.126 15.3555C76.9678 15.0508 76.8008 14.8018 76.625 14.6084C76.4492 14.415 76.2705 14.2744 76.0889 14.1865C75.9131 14.0928 75.7432 14.0459 75.5791 14.0459C75.333 14.0459 75.1162 14.0928 74.9287 14.1865C74.7412 14.2803 74.5771 14.4092 74.4365 14.5732C74.3018 14.7314 74.1846 14.9189 74.085 15.1357C73.9912 15.3525 73.915 15.584 73.8564 15.8301C73.7979 16.0762 73.7539 16.3311 73.7246 16.5947C73.7012 16.8525 73.6895 17.1074 73.6895 17.3594ZM88.5166 16.542C88.5166 16.8701 88.502 17.2158 88.4727 17.5791C88.4434 17.9424 88.3994 18.3057 88.3408 18.6689C88.2822 19.0322 88.209 19.3867 88.1211 19.7324C88.0391 20.0781 87.9424 20.3945 87.8311 20.6816L89.5625 21.2441L84.9834 22.1406L86.5391 20.9717C86.6621 20.5205 86.7441 20.0869 86.7852 19.6709C86.832 19.2549 86.8555 18.8623 86.8555 18.4932C86.8555 18.2705 86.8467 18.0186 86.8291 17.7373C86.8174 17.4502 86.7852 17.1602 86.7324 16.8672C86.6855 16.5742 86.6152 16.2871 86.5215 16.0059C86.4336 15.7246 86.3164 15.4756 86.1699 15.2588C86.0234 15.0361 85.8418 14.8604 85.625 14.7314C85.4141 14.5967 85.1592 14.5293 84.8604 14.5293C84.5146 14.5293 84.1631 14.6436 83.8057 14.8721C83.4482 15.1006 83.1172 15.4375 82.8125 15.8828V20.7432L84.2627 21.7803L79.9121 22.0879L81.0635 20.8135L81.6787 14.4238L79.8066 13.501L82.8125 13.2021V14.5293C82.9824 14.2949 83.1699 14.0752 83.375 13.8701C83.5801 13.665 83.7969 13.4893 84.0254 13.3428C84.2539 13.1904 84.4912 13.0732 84.7373 12.9912C84.9893 12.9033 85.2471 12.8594 85.5107 12.8594C86.0205 12.8594 86.4629 12.9531 86.8379 13.1406C87.2129 13.3281 87.5234 13.5889 87.7695 13.9229C88.0215 14.251 88.209 14.6406 88.332 15.0918C88.4551 15.5371 88.5166 16.0205 88.5166 16.542ZM90.5908 18.1504C90.5908 17.5996 90.6465 17.0518 90.7578 16.5068C90.875 15.9561 91.001 15.4521 91.1357 14.9951L89.6152 15.0918L93.9043 10.4072C93.5645 11.4795 93.2891 12.4463 93.0781 13.3076L96.4971 13.5977L96.0488 14.6523L92.7354 14.8896C92.6533 15.3174 92.5889 15.6982 92.542 16.0322C92.501 16.3604 92.4658 16.6387 92.4365 16.8672C92.4072 17.1367 92.3867 17.3711 92.375 17.5703C92.375 18.1562 92.4102 18.6836 92.4805 19.1523C92.5508 19.6211 92.6592 20.0225 92.8057 20.3564C92.958 20.6846 93.1484 20.9395 93.377 21.1211C93.6113 21.2969 93.8896 21.3848 94.2119 21.3848C94.5107 21.3848 94.7598 21.3262 94.959 21.209C95.1641 21.0859 95.3281 20.9307 95.4512 20.7432C95.5742 20.5498 95.6621 20.3359 95.7148 20.1016C95.7676 19.8613 95.7939 19.624 95.7939 19.3896C95.7939 19.1729 95.7764 18.9619 95.7412 18.7568C95.9932 18.8857 96.1836 19.0938 96.3125 19.3809C96.4473 19.6621 96.5146 19.9697 96.5146 20.3037C96.5146 20.6494 96.4561 20.9541 96.3389 21.2178C96.2275 21.4814 96.0723 21.7041 95.873 21.8857C95.6738 22.0615 95.4395 22.1963 95.1699 22.29C94.9004 22.3838 94.6104 22.4307 94.2998 22.4307C94.1123 22.4307 93.8896 22.4102 93.6318 22.3691C93.3799 22.3281 93.1162 22.252 92.8408 22.1406C92.5654 22.0352 92.293 21.8828 92.0234 21.6836C91.7539 21.4844 91.5137 21.2266 91.3027 20.9102C91.0918 20.5938 90.9189 20.21 90.7842 19.7588C90.6553 19.3018 90.5908 18.7656 90.5908 18.1504ZM105.137 12.4463L105.392 20.4004L107.211 21.6748L100.979 22.2197L103.124 20.4355L103.66 11.9189L101.823 10.4775L107.176 10.8027L105.137 12.4463ZM115.921 16.542C115.921 16.8701 115.906 17.2158 115.877 17.5791C115.848 17.9424 115.804 18.3057 115.745 18.6689C115.687 19.0322 115.613 19.3867 115.525 19.7324C115.443 20.0781 115.347 20.3945 115.235 20.6816L116.967 21.2441L112.388 22.1406L113.943 20.9717C114.066 20.5205 114.148 20.0869 114.189 19.6709C114.236 19.2549 114.26 18.8623 114.26 18.4932C114.26 18.2705 114.251 18.0186 114.233 17.7373C114.222 17.4502 114.189 17.1602 114.137 16.8672C114.09 16.5742 114.02 16.2871 113.926 16.0059C113.838 15.7246 113.721 15.4756 113.574 15.2588C113.428 15.0361 113.246 14.8604 113.029 14.7314C112.818 14.5967 112.563 14.5293 112.265 14.5293C111.919 14.5293 111.567 14.6436 111.21 14.8721C110.853 15.1006 110.521 15.4375 110.217 15.8828V20.7432L111.667 21.7803L107.316 22.0879L108.468 20.8135L109.083 14.4238L107.211 13.501L110.217 13.2021V14.5293C110.387 14.2949 110.574 14.0752 110.779 13.8701C110.984 13.665 111.201 13.4893 111.43 13.3428C111.658 13.1904 111.896 13.0732 112.142 12.9912C112.394 12.9033 112.651 12.8594 112.915 12.8594C113.425 12.8594 113.867 12.9531 114.242 13.1406C114.617 13.3281 114.928 13.5889 115.174 13.9229C115.426 14.251 115.613 14.6406 115.736 15.0918C115.859 15.5371 115.921 16.0205 115.921 16.542ZM120.008 14.9424V15.1973C120.008 15.707 120.002 16.1992 119.99 16.6738C119.979 17.1426 119.964 17.6055 119.946 18.0625C119.935 18.5195 119.923 18.9707 119.911 19.416C119.899 19.8613 119.891 20.3096 119.885 20.7607L121.915 21.8945H117.187L118.769 20.8135C118.64 19.6299 118.537 18.5576 118.461 17.5967C118.391 16.6299 118.338 15.8184 118.303 15.1621L117.02 15.3027L118.232 13.3779C118.273 12.8271 118.358 12.3203 118.487 11.8574C118.616 11.3887 118.798 10.9844 119.032 10.6445C119.272 10.3047 119.571 10.041 119.929 9.85352C120.286 9.66016 120.717 9.56348 121.221 9.56348C121.396 9.56348 121.578 9.58105 121.766 9.61621C121.953 9.64551 122.135 9.69238 122.311 9.75684C122.492 9.82129 122.662 9.90332 122.82 10.0029C122.979 10.1025 123.11 10.2197 123.216 10.3545L124.64 9.30859L123.251 12.8242C123.239 12.4668 123.192 12.1621 123.11 11.9102C123.034 11.6523 122.938 11.4385 122.82 11.2686C122.709 11.0986 122.586 10.9668 122.451 10.873C122.316 10.7734 122.19 10.7002 122.073 10.6533C121.956 10.6006 121.856 10.5684 121.774 10.5566C121.692 10.5391 121.646 10.5303 121.634 10.5303C121.353 10.5479 121.118 10.6387 120.931 10.8027C120.743 10.9668 120.588 11.1924 120.465 11.4795C120.348 11.7666 120.257 12.1094 120.192 12.5078C120.128 12.9004 120.078 13.334 120.043 13.8086H123.251L122.601 14.6172L120.008 14.9424ZM123.321 17.5879C123.321 16.9316 123.424 16.3252 123.629 15.7686C123.84 15.2061 124.13 14.7197 124.499 14.3096C124.874 13.8994 125.316 13.5801 125.826 13.3516C126.342 13.1172 126.904 13 127.514 13C128.105 13 128.647 13.1113 129.14 13.334C129.632 13.5508 130.06 13.8584 130.423 14.2568C130.786 14.6553 131.076 15.1328 131.293 15.6895C131.51 16.2461 131.639 16.8613 131.68 17.5352C131.721 18.2559 131.645 18.9092 131.451 19.4951C131.264 20.0752 130.985 20.5703 130.616 20.9805C130.247 21.3848 129.805 21.6982 129.289 21.9209C128.779 22.1436 128.226 22.2549 127.628 22.2549C127.054 22.2549 126.506 22.1523 125.984 21.9473C125.469 21.7363 125.012 21.4316 124.613 21.0332C124.221 20.6348 123.907 20.1484 123.673 19.5742C123.438 18.9941 123.321 18.332 123.321 17.5879ZM125.483 17.7373C125.483 18.2529 125.557 18.7188 125.703 19.1348C125.85 19.5508 126.046 19.9053 126.292 20.1982C126.538 20.4854 126.822 20.708 127.145 20.8662C127.467 21.0244 127.807 21.1035 128.164 21.1035C128.521 21.1035 128.855 21.0273 129.166 20.875C129.477 20.7168 129.746 20.4971 129.975 20.2158C130.203 19.9287 130.382 19.5859 130.511 19.1875C130.64 18.7891 130.704 18.3467 130.704 17.8604C130.704 17.3799 130.64 16.9287 130.511 16.5068C130.382 16.0791 130.2 15.707 129.966 15.3906C129.737 15.0742 129.465 14.8252 129.148 14.6436C128.832 14.4619 128.486 14.3711 128.111 14.3711C127.777 14.3711 127.452 14.4473 127.136 14.5996C126.825 14.752 126.547 14.9746 126.301 15.2676C126.055 15.5547 125.855 15.9062 125.703 16.3223C125.557 16.7383 125.483 17.21 125.483 17.7373ZM135.468 21.499C135.468 21.6865 135.418 21.8477 135.318 21.9824C135.225 22.1172 135.107 22.2256 134.967 22.3076C134.826 22.3955 134.68 22.457 134.527 22.4922C134.375 22.5332 134.243 22.5537 134.132 22.5537C134.009 22.5537 133.871 22.5332 133.719 22.4922C133.566 22.457 133.423 22.3955 133.288 22.3076C133.153 22.2256 133.039 22.1172 132.945 21.9824C132.852 21.8477 132.805 21.6865 132.805 21.499C132.805 21.2998 132.852 21.1299 132.945 20.9893C133.039 20.8486 133.153 20.7344 133.288 20.6465C133.423 20.5527 133.566 20.4854 133.719 20.4443C133.871 20.4033 134.009 20.3828 134.132 20.3828C134.243 20.3828 134.375 20.4033 134.527 20.4443C134.68 20.4854 134.826 20.5527 134.967 20.6465C135.107 20.7344 135.225 20.8486 135.318 20.9893C135.418 21.1299 135.468 21.2998 135.468 21.499Z" fill="#BD1313"/>
<rect x="1" y="1" width="148" height="28" rx="4" stroke="url(#paint0_linear)" stroke-width="2"/>
<defs>
<linearGradient id="paint0_linear" x1="70" y1="-5.00002" x2="380" y2="80" gradientUnits="userSpaceOnUse">
<stop stop-color="#F4EB11"/>
<stop offset="0.742956" stop-color="#7C0000"/>
<stop offset="0.743056" stop-color="#DD9539" stop-opacity="0"/>
</linearGradient>
</defs>
</svg>
