<svg width="150" height="30" viewBox="0 0 150 30" fill="none" xmlns="http://www.w3.org/2000/svg">
<path d="M16.8252 10.0996C17.2236 10.0996 17.6045 10.1377 17.9678 10.2139C18.3369 10.2842 18.6797 10.3809 18.9961 10.5039C19.3125 10.6211 19.5996 10.7559 19.8574 10.9082C20.1152 11.0605 20.335 11.2129 20.5166 11.3652L22.8018 9.79199L20.1738 14.8369L19.9717 12.1914C19.8018 12.0742 19.6172 11.9717 19.418 11.8838C19.2246 11.79 19.0283 11.7139 18.8291 11.6553C18.6357 11.5908 18.4482 11.541 18.2666 11.5059C18.085 11.4648 17.9238 11.4326 17.7832 11.4092C17.6426 11.3857 17.5283 11.3711 17.4404 11.3652C17.3584 11.3535 17.3145 11.3477 17.3086 11.3477C16.9102 11.3477 16.5762 11.3916 16.3066 11.4795C16.0371 11.5674 15.8174 11.6816 15.6475 11.8223C15.4834 11.9629 15.3633 12.124 15.2871 12.3057C15.2168 12.4814 15.1816 12.6602 15.1816 12.8418C15.1816 13.2109 15.2578 13.5244 15.4102 13.7822C15.5625 14.0342 15.7939 14.2598 16.1045 14.459C16.415 14.6582 16.8105 14.8457 17.291 15.0215C17.7715 15.1914 18.3369 15.376 18.9873 15.5752C19.3799 15.6982 19.749 15.8652 20.0947 16.0762C20.4463 16.2812 20.751 16.5244 21.0088 16.8057C21.2666 17.0811 21.4688 17.3916 21.6152 17.7373C21.7676 18.0771 21.8438 18.4434 21.8438 18.8359C21.8438 19.293 21.7793 19.7002 21.6504 20.0576C21.5215 20.4092 21.3486 20.7197 21.1318 20.9893C20.9209 21.2529 20.6748 21.4785 20.3936 21.666C20.1123 21.8477 19.8193 21.9941 19.5146 22.1055C19.2158 22.2227 18.9111 22.3047 18.6006 22.3516C18.2959 22.4043 18.0088 22.4307 17.7393 22.4307C16.9482 22.4307 16.2305 22.2959 15.5859 22.0264C14.9414 21.7568 14.3408 21.3877 13.7842 20.9189L11.499 22.4834L14.0479 17.9658C14.1182 18.3877 14.2412 18.7949 14.417 19.1875C14.5986 19.5742 14.8213 19.9199 15.085 20.2246C15.3486 20.5293 15.6533 20.7725 15.999 20.9541C16.3447 21.1357 16.7227 21.2266 17.1328 21.2266C17.4609 21.2266 17.7598 21.1768 18.0293 21.0771C18.3047 20.9775 18.5391 20.8457 18.7324 20.6816C18.9258 20.5117 19.0752 20.3184 19.1807 20.1016C19.292 19.8789 19.3477 19.6475 19.3477 19.4072C19.3477 19.0732 19.2539 18.7861 19.0664 18.5459C18.8789 18.2998 18.6328 18.083 18.3281 17.8955C18.0234 17.7021 17.6748 17.5264 17.2822 17.3682C16.8955 17.2041 16.4971 17.0371 16.0869 16.8672C15.6768 16.6973 15.2754 16.5098 14.8828 16.3047C14.4961 16.0996 14.1504 15.8594 13.8457 15.584C13.541 15.3027 13.2949 14.9746 13.1074 14.5996C12.9199 14.2246 12.8262 13.7822 12.8262 13.2725C12.8262 12.8799 12.9023 12.4961 13.0547 12.1211C13.2129 11.7402 13.4531 11.4004 13.7754 11.1016C14.1035 10.8027 14.5195 10.5625 15.0234 10.3809C15.5273 10.1934 16.1279 10.0996 16.8252 10.0996ZM23.4521 18.1504C23.4521 17.5996 23.5078 17.0518 23.6191 16.5068C23.7363 15.9561 23.8623 15.4521 23.9971 14.9951L22.4766 15.0918L26.7656 10.4072C26.4258 11.4795 26.1504 12.4463 25.9395 13.3076L29.3584 13.5977L28.9102 14.6523L25.5967 14.8896C25.5146 15.3174 25.4502 15.6982 25.4033 16.0322C25.3623 16.3604 25.3271 16.6387 25.2979 16.8672C25.2686 17.1367 25.248 17.3711 25.2363 17.5703C25.2363 18.1562 25.2715 18.6836 25.3418 19.1523C25.4121 19.6211 25.5205 20.0225 25.667 20.3564C25.8193 20.6846 26.0098 20.9395 26.2383 21.1211C26.4727 21.2969 26.751 21.3848 27.0732 21.3848C27.3721 21.3848 27.6211 21.3262 27.8203 21.209C28.0254 21.0859 28.1895 20.9307 28.3125 20.7432C28.4355 20.5498 28.5234 20.3359 28.5762 20.1016C28.6289 19.8613 28.6553 19.624 28.6553 19.3896C28.6553 19.1729 28.6377 18.9619 28.6025 18.7568C28.8545 18.8857 29.0449 19.0938 29.1738 19.3809C29.3086 19.6621 29.376 19.9697 29.376 20.3037C29.376 20.6494 29.3174 20.9541 29.2002 21.2178C29.0889 21.4814 28.9336 21.7041 28.7344 21.8857C28.5352 22.0615 28.3008 22.1963 28.0312 22.29C27.7617 22.3838 27.4717 22.4307 27.1611 22.4307C26.9736 22.4307 26.751 22.4102 26.4932 22.3691C26.2412 22.3281 25.9775 22.252 25.7021 22.1406C25.4268 22.0352 25.1543 21.8828 24.8848 21.6836C24.6152 21.4844 24.375 21.2266 24.1641 20.9102C23.9531 20.5938 23.7803 20.21 23.6455 19.7588C23.5166 19.3018 23.4521 18.7656 23.4521 18.1504ZM37.6289 16.5244C37.6289 16.835 37.6113 17.1689 37.5762 17.5264C37.541 17.8838 37.4883 18.2471 37.418 18.6162C37.3535 18.9854 37.2744 19.3486 37.1807 19.7061C37.0928 20.0576 36.9961 20.3828 36.8906 20.6816L38.7627 22L35.4492 21.8594L35.6514 20.7783C35.2998 21.2178 34.8926 21.5547 34.4297 21.7891C33.9727 22.0176 33.4424 22.1553 32.8389 22.2021C32.3467 22.2373 31.916 22.2021 31.5469 22.0967C31.1836 21.9971 30.8789 21.8418 30.6328 21.6309C30.3926 21.4141 30.2139 21.1504 30.0967 20.8398C29.9795 20.5234 29.9209 20.1719 29.9209 19.7852C29.9209 19.4277 30.0088 19.082 30.1846 18.748C30.3604 18.4082 30.6123 18.1094 30.9404 17.8516C31.2744 17.5938 31.6816 17.3887 32.1621 17.2363C32.6426 17.0781 33.1875 16.999 33.7969 16.999C34.0781 16.999 34.4004 17.0254 34.7637 17.0781C35.1328 17.1309 35.4814 17.2422 35.8096 17.4121C35.7803 17.0547 35.7246 16.6914 35.6426 16.3223C35.5664 15.9473 35.4521 15.6074 35.2998 15.3027C35.1475 14.998 34.9482 14.752 34.7021 14.5645C34.4619 14.3711 34.1602 14.2744 33.7969 14.2744C33.4863 14.2744 33.1846 14.3389 32.8916 14.4678C32.5986 14.5967 32.3232 14.7812 32.0654 15.0215C31.8135 15.2617 31.585 15.5547 31.3799 15.9004C31.1748 16.2461 31.002 16.6357 30.8613 17.0693L30.123 12.7627L31.2393 14.4766C31.5146 14.1367 31.793 13.8672 32.0742 13.668C32.3555 13.4629 32.6338 13.3076 32.9092 13.2021C33.1904 13.0908 33.46 13.0176 33.7178 12.9824C33.9814 12.9473 34.2334 12.9297 34.4736 12.9297C34.9248 12.9531 35.3408 13.0469 35.7217 13.2109C36.1084 13.3691 36.4424 13.6006 36.7236 13.9053C37.0049 14.2041 37.2246 14.5732 37.3828 15.0127C37.5469 15.4521 37.6289 15.9561 37.6289 16.5244ZM35.8096 19.3369C35.8213 19.1729 35.8301 19.0146 35.8359 18.8623C35.8418 18.71 35.8447 18.5605 35.8447 18.4141V18.3086C35.6338 18.2266 35.4199 18.165 35.2031 18.124C34.9922 18.0771 34.7959 18.0449 34.6143 18.0273C34.4326 18.0039 34.2773 17.9922 34.1484 17.9922C34.0254 17.9863 33.9434 17.9834 33.9023 17.9834C33.5684 17.9951 33.2783 18.0566 33.0322 18.168C32.7861 18.2793 32.5811 18.4199 32.417 18.5898C32.2588 18.7539 32.1387 18.9385 32.0566 19.1436C31.9805 19.3486 31.9424 19.5508 31.9424 19.75C31.9424 20.2012 32.0508 20.5439 32.2676 20.7783C32.4902 21.0068 32.8125 21.1211 33.2344 21.1211C33.5156 21.1211 33.7822 21.0713 34.0342 20.9717C34.2861 20.8721 34.5205 20.7402 34.7373 20.5762C34.96 20.4062 35.1592 20.2158 35.335 20.0049C35.5166 19.7881 35.6748 19.5654 35.8096 19.3369ZM39.7471 18.1504C39.7471 17.5996 39.8027 17.0518 39.9141 16.5068C40.0312 15.9561 40.1572 15.4521 40.292 14.9951L38.7715 15.0918L43.0605 10.4072C42.7207 11.4795 42.4453 12.4463 42.2344 13.3076L45.6533 13.5977L45.2051 14.6523L41.8916 14.8896C41.8096 15.3174 41.7451 15.6982 41.6982 16.0322C41.6572 16.3604 41.6221 16.6387 41.5928 16.8672C41.5635 17.1367 41.543 17.3711 41.5312 17.5703C41.5312 18.1562 41.5664 18.6836 41.6367 19.1523C41.707 19.6211 41.8154 20.0225 41.9619 20.3564C42.1143 20.6846 42.3047 20.9395 42.5332 21.1211C42.7676 21.2969 43.0459 21.3848 43.3682 21.3848C43.667 21.3848 43.916 21.3262 44.1152 21.209C44.3203 21.0859 44.4844 20.9307 44.6074 20.7432C44.7305 20.5498 44.8184 20.3359 44.8711 20.1016C44.9238 19.8613 44.9502 19.624 44.9502 19.3896C44.9502 19.1729 44.9326 18.9619 44.8975 18.7568C45.1494 18.8857 45.3398 19.0938 45.4688 19.3809C45.6035 19.6621 45.6709 19.9697 45.6709 20.3037C45.6709 20.6494 45.6123 20.9541 45.4951 21.2178C45.3838 21.4814 45.2285 21.7041 45.0293 21.8857C44.8301 22.0615 44.5957 22.1963 44.3262 22.29C44.0566 22.3838 43.7666 22.4307 43.4561 22.4307C43.2686 22.4307 43.0459 22.4102 42.7881 22.3691C42.5361 22.3281 42.2725 22.252 41.9971 22.1406C41.7217 22.0352 41.4492 21.8828 41.1797 21.6836C40.9102 21.4844 40.6699 21.2266 40.459 20.9102C40.248 20.5938 40.0752 20.21 39.9404 19.7588C39.8115 19.3018 39.7471 18.7656 39.7471 18.1504ZM48.29 18.7744C48.3662 19.1025 48.4688 19.4248 48.5977 19.7412C48.7266 20.0518 48.8848 20.3301 49.0723 20.5762C49.2598 20.8223 49.4766 21.0215 49.7227 21.1738C49.9688 21.3262 50.2471 21.4023 50.5576 21.4023C50.9678 21.4023 51.3252 21.3174 51.6299 21.1475C51.9346 20.9775 52.1836 20.7637 52.377 20.5059C52.5703 20.2422 52.7051 19.9551 52.7812 19.6445C52.8574 19.3281 52.8721 19.0264 52.8252 18.7393C52.9893 18.8037 53.124 18.8887 53.2295 18.9941C53.3408 19.0996 53.4258 19.2168 53.4844 19.3457C53.5488 19.4688 53.5928 19.5977 53.6162 19.7324C53.6396 19.8613 53.6514 19.9873 53.6514 20.1104C53.6514 20.3916 53.5693 20.6641 53.4053 20.9277C53.2412 21.1855 53.0098 21.417 52.7109 21.6221C52.418 21.8213 52.0693 21.9824 51.665 22.1055C51.2607 22.2285 50.8184 22.29 50.3379 22.29C49.6934 22.29 49.1162 22.1641 48.6064 21.9121C48.1025 21.6602 47.6748 21.3203 47.3232 20.8926C46.9717 20.459 46.7021 19.9521 46.5146 19.3721C46.3271 18.792 46.2334 18.1738 46.2334 17.5176C46.2334 16.8496 46.3271 16.2344 46.5146 15.6719C46.7021 15.1035 46.9775 14.6201 47.3408 14.2217C47.71 13.8232 48.1611 13.5215 48.6943 13.3164C49.2275 13.1113 49.8428 13.0293 50.54 13.0703C51.0205 13.1055 51.4629 13.2432 51.8672 13.4834C52.2715 13.7236 52.623 14.0342 52.9219 14.415C53.2266 14.79 53.4697 15.2207 53.6514 15.707C53.8389 16.1934 53.9531 16.7002 53.9941 17.2275L48.29 18.7744ZM48.123 17.3594C48.123 17.4414 48.123 17.5234 48.123 17.6055C48.123 17.6816 48.1289 17.7607 48.1406 17.8428L51.999 16.4365C51.8701 16.0146 51.7236 15.6543 51.5596 15.3555C51.4014 15.0508 51.2344 14.8018 51.0586 14.6084C50.8828 14.415 50.7041 14.2744 50.5225 14.1865C50.3467 14.0928 50.1768 14.0459 50.0127 14.0459C49.7666 14.0459 49.5498 14.0928 49.3623 14.1865C49.1748 14.2803 49.0107 14.4092 48.8701 14.5732C48.7354 14.7314 48.6182 14.9189 48.5186 15.1357C48.4248 15.3525 48.3486 15.584 48.29 15.8301C48.2314 16.0762 48.1875 16.3311 48.1582 16.5947C48.1348 16.8525 48.123 17.1074 48.123 17.3594ZM54.3809 22.0879L55.5322 20.7959L56.1299 14.8369L54.2754 13.501L57.2637 13.7031V14.5996C57.4863 14.3008 57.7178 14.0693 57.958 13.9053C58.2041 13.7412 58.4297 13.6211 58.6348 13.5449C58.875 13.457 59.1123 13.4072 59.3467 13.3955C59.7627 13.3955 60.1406 13.4805 60.4805 13.6504C60.8203 13.8203 61.0898 14.0547 61.2891 14.3535C61.5352 14.0605 61.8164 13.8291 62.1328 13.6592C62.4492 13.4834 62.792 13.3955 63.1611 13.3955C63.4951 13.3955 63.8057 13.4717 64.0928 13.624C64.3799 13.7764 64.626 13.9902 64.8311 14.2656C65.042 14.541 65.2061 14.8779 65.3232 15.2764C65.4463 15.6689 65.5078 16.1055 65.5078 16.5859C65.5078 16.9316 65.4844 17.292 65.4375 17.667C65.3965 18.042 65.3379 18.4141 65.2617 18.7832C65.1914 19.1523 65.1035 19.5127 64.998 19.8643C64.8926 20.21 64.7783 20.5322 64.6553 20.8311L65.9033 21.3848L61.5439 22.2021L63.4688 20.6641C63.5625 20.0312 63.6211 19.4541 63.6445 18.9326C63.6738 18.4053 63.6885 17.957 63.6885 17.5879C63.6885 16.6445 63.5742 15.959 63.3457 15.5312C63.123 15.1035 62.8037 14.8896 62.3877 14.8896C62.1357 14.8896 61.8838 14.9805 61.6318 15.1621C61.667 15.3027 61.6846 15.4521 61.6846 15.6104C61.6846 15.9678 61.6553 16.3369 61.5967 16.7178C61.5439 17.0986 61.4736 17.4736 61.3857 17.8428C61.2979 18.2119 61.1982 18.5693 61.0869 18.915C60.9756 19.2607 60.8643 19.5742 60.7529 19.8555L61.9922 20.8311H58.4502L59.6367 19.873C59.707 19.3281 59.7568 18.7715 59.7861 18.2031C59.8154 17.6289 59.8301 17.0898 59.8301 16.5859C59.8301 15.9883 59.7598 15.5195 59.6191 15.1797C59.4844 14.8398 59.2383 14.6699 58.8809 14.6699C58.6992 14.6699 58.5293 14.7051 58.3711 14.7754C58.2188 14.8457 58.0752 14.9395 57.9404 15.0566C57.8115 15.1738 57.6885 15.3086 57.5713 15.4609C57.46 15.6133 57.3574 15.7715 57.2637 15.9355V20.7256L58.7402 21.7803L54.3809 22.0879ZM68.8564 18.7744C68.9326 19.1025 69.0352 19.4248 69.1641 19.7412C69.293 20.0518 69.4512 20.3301 69.6387 20.5762C69.8262 20.8223 70.043 21.0215 70.2891 21.1738C70.5352 21.3262 70.8135 21.4023 71.124 21.4023C71.5342 21.4023 71.8916 21.3174 72.1963 21.1475C72.501 20.9775 72.75 20.7637 72.9434 20.5059C73.1367 20.2422 73.2715 19.9551 73.3477 19.6445C73.4238 19.3281 73.4385 19.0264 73.3916 18.7393C73.5557 18.8037 73.6904 18.8887 73.7959 18.9941C73.9072 19.0996 73.9922 19.2168 74.0508 19.3457C74.1152 19.4688 74.1592 19.5977 74.1826 19.7324C74.2061 19.8613 74.2178 19.9873 74.2178 20.1104C74.2178 20.3916 74.1357 20.6641 73.9717 20.9277C73.8076 21.1855 73.5762 21.417 73.2773 21.6221C72.9844 21.8213 72.6357 21.9824 72.2314 22.1055C71.8271 22.2285 71.3848 22.29 70.9043 22.29C70.2598 22.29 69.6826 22.1641 69.1729 21.9121C68.6689 21.6602 68.2412 21.3203 67.8896 20.8926C67.5381 20.459 67.2686 19.9521 67.0811 19.3721C66.8936 18.792 66.7998 18.1738 66.7998 17.5176C66.7998 16.8496 66.8936 16.2344 67.0811 15.6719C67.2686 15.1035 67.5439 14.6201 67.9072 14.2217C68.2764 13.8232 68.7275 13.5215 69.2607 13.3164C69.7939 13.1113 70.4092 13.0293 71.1064 13.0703C71.5869 13.1055 72.0293 13.2432 72.4336 13.4834C72.8379 13.7236 73.1895 14.0342 73.4883 14.415C73.793 14.79 74.0361 15.2207 74.2178 15.707C74.4053 16.1934 74.5195 16.7002 74.5605 17.2275L68.8564 18.7744ZM68.6895 17.3594C68.6895 17.4414 68.6895 17.5234 68.6895 17.6055C68.6895 17.6816 68.6953 17.7607 68.707 17.8428L72.5654 16.4365C72.4365 16.0146 72.29 15.6543 72.126 15.3555C71.9678 15.0508 71.8008 14.8018 71.625 14.6084C71.4492 14.415 71.2705 14.2744 71.0889 14.1865C70.9131 14.0928 70.7432 14.0459 70.5791 14.0459C70.333 14.0459 70.1162 14.0928 69.9287 14.1865C69.7412 14.2803 69.5771 14.4092 69.4365 14.5732C69.3018 14.7314 69.1846 14.9189 69.085 15.1357C68.9912 15.3525 68.915 15.584 68.8564 15.8301C68.7979 16.0762 68.7539 16.3311 68.7246 16.5947C68.7012 16.8525 68.6895 17.1074 68.6895 17.3594ZM83.5166 16.542C83.5166 16.8701 83.502 17.2158 83.4727 17.5791C83.4434 17.9424 83.3994 18.3057 83.3408 18.6689C83.2822 19.0322 83.209 19.3867 83.1211 19.7324C83.0391 20.0781 82.9424 20.3945 82.8311 20.6816L84.5625 21.2441L79.9834 22.1406L81.5391 20.9717C81.6621 20.5205 81.7441 20.0869 81.7852 19.6709C81.832 19.2549 81.8555 18.8623 81.8555 18.4932C81.8555 18.2705 81.8467 18.0186 81.8291 17.7373C81.8174 17.4502 81.7852 17.1602 81.7324 16.8672C81.6855 16.5742 81.6152 16.2871 81.5215 16.0059C81.4336 15.7246 81.3164 15.4756 81.1699 15.2588C81.0234 15.0361 80.8418 14.8604 80.625 14.7314C80.4141 14.5967 80.1592 14.5293 79.8604 14.5293C79.5146 14.5293 79.1631 14.6436 78.8057 14.8721C78.4482 15.1006 78.1172 15.4375 77.8125 15.8828V20.7432L79.2627 21.7803L74.9121 22.0879L76.0635 20.8135L76.6787 14.4238L74.8066 13.501L77.8125 13.2021V14.5293C77.9824 14.2949 78.1699 14.0752 78.375 13.8701C78.5801 13.665 78.7969 13.4893 79.0254 13.3428C79.2539 13.1904 79.4912 13.0732 79.7373 12.9912C79.9893 12.9033 80.2471 12.8594 80.5107 12.8594C81.0205 12.8594 81.4629 12.9531 81.8379 13.1406C82.2129 13.3281 82.5234 13.5889 82.7695 13.9229C83.0215 14.251 83.209 14.6406 83.332 15.0918C83.4551 15.5371 83.5166 16.0205 83.5166 16.542ZM85.5908 18.1504C85.5908 17.5996 85.6465 17.0518 85.7578 16.5068C85.875 15.9561 86.001 15.4521 86.1357 14.9951L84.6152 15.0918L88.9043 10.4072C88.5645 11.4795 88.2891 12.4463 88.0781 13.3076L91.4971 13.5977L91.0488 14.6523L87.7354 14.8896C87.6533 15.3174 87.5889 15.6982 87.542 16.0322C87.501 16.3604 87.4658 16.6387 87.4365 16.8672C87.4072 17.1367 87.3867 17.3711 87.375 17.5703C87.375 18.1562 87.4102 18.6836 87.4805 19.1523C87.5508 19.6211 87.6592 20.0225 87.8057 20.3564C87.958 20.6846 88.1484 20.9395 88.377 21.1211C88.6113 21.2969 88.8896 21.3848 89.2119 21.3848C89.5107 21.3848 89.7598 21.3262 89.959 21.209C90.1641 21.0859 90.3281 20.9307 90.4512 20.7432C90.5742 20.5498 90.6621 20.3359 90.7148 20.1016C90.7676 19.8613 90.7939 19.624 90.7939 19.3896C90.7939 19.1729 90.7764 18.9619 90.7412 18.7568C90.9932 18.8857 91.1836 19.0938 91.3125 19.3809C91.4473 19.6621 91.5146 19.9697 91.5146 20.3037C91.5146 20.6494 91.4561 20.9541 91.3389 21.2178C91.2275 21.4814 91.0723 21.7041 90.873 21.8857C90.6738 22.0615 90.4395 22.1963 90.1699 22.29C89.9004 22.3838 89.6104 22.4307 89.2998 22.4307C89.1123 22.4307 88.8896 22.4102 88.6318 22.3691C88.3799 22.3281 88.1162 22.252 87.8408 22.1406C87.5654 22.0352 87.293 21.8828 87.0234 21.6836C86.7539 21.4844 86.5137 21.2266 86.3027 20.9102C86.0918 20.5938 85.9189 20.21 85.7842 19.7588C85.6553 19.3018 85.5908 18.7656 85.5908 18.1504ZM104.812 12.4463L105.067 20.4004L106.887 21.6748L100.655 22.2197L102.8 20.4355L103.336 11.9189L101.499 10.4775L106.852 10.8027L104.812 12.4463ZM115.597 16.542C115.597 16.8701 115.582 17.2158 115.553 17.5791C115.523 17.9424 115.479 18.3057 115.421 18.6689C115.362 19.0322 115.289 19.3867 115.201 19.7324C115.119 20.0781 115.022 20.3945 114.911 20.6816L116.643 21.2441L112.063 22.1406L113.619 20.9717C113.742 20.5205 113.824 20.0869 113.865 19.6709C113.912 19.2549 113.936 18.8623 113.936 18.4932C113.936 18.2705 113.927 18.0186 113.909 17.7373C113.897 17.4502 113.865 17.1602 113.812 16.8672C113.766 16.5742 113.695 16.2871 113.602 16.0059C113.514 15.7246 113.396 15.4756 113.25 15.2588C113.104 15.0361 112.922 14.8604 112.705 14.7314C112.494 14.5967 112.239 14.5293 111.94 14.5293C111.595 14.5293 111.243 14.6436 110.886 14.8721C110.528 15.1006 110.197 15.4375 109.893 15.8828V20.7432L111.343 21.7803L106.992 22.0879L108.144 20.8135L108.759 14.4238L106.887 13.501L109.893 13.2021V14.5293C110.062 14.2949 110.25 14.0752 110.455 13.8701C110.66 13.665 110.877 13.4893 111.105 13.3428C111.334 13.1904 111.571 13.0732 111.817 12.9912C112.069 12.9033 112.327 12.8594 112.591 12.8594C113.101 12.8594 113.543 12.9531 113.918 13.1406C114.293 13.3281 114.604 13.5889 114.85 13.9229C115.102 14.251 115.289 14.6406 115.412 15.0918C115.535 15.5371 115.597 16.0205 115.597 16.542ZM119.684 14.9424V15.1973C119.684 15.707 119.678 16.1992 119.666 16.6738C119.654 17.1426 119.64 17.6055 119.622 18.0625C119.61 18.5195 119.599 18.9707 119.587 19.416C119.575 19.8613 119.566 20.3096 119.561 20.7607L121.591 21.8945H116.862L118.444 20.8135C118.315 19.6299 118.213 18.5576 118.137 17.5967C118.066 16.6299 118.014 15.8184 117.979 15.1621L116.695 15.3027L117.908 13.3779C117.949 12.8271 118.034 12.3203 118.163 11.8574C118.292 11.3887 118.474 10.9844 118.708 10.6445C118.948 10.3047 119.247 10.041 119.604 9.85352C119.962 9.66016 120.393 9.56348 120.896 9.56348C121.072 9.56348 121.254 9.58105 121.441 9.61621C121.629 9.64551 121.811 9.69238 121.986 9.75684C122.168 9.82129 122.338 9.90332 122.496 10.0029C122.654 10.1025 122.786 10.2197 122.892 10.3545L124.315 9.30859L122.927 12.8242C122.915 12.4668 122.868 12.1621 122.786 11.9102C122.71 11.6523 122.613 11.4385 122.496 11.2686C122.385 11.0986 122.262 10.9668 122.127 10.873C121.992 10.7734 121.866 10.7002 121.749 10.6533C121.632 10.6006 121.532 10.5684 121.45 10.5566C121.368 10.5391 121.321 10.5303 121.31 10.5303C121.028 10.5479 120.794 10.6387 120.606 10.8027C120.419 10.9668 120.264 11.1924 120.141 11.4795C120.023 11.7666 119.933 12.1094 119.868 12.5078C119.804 12.9004 119.754 13.334 119.719 13.8086H122.927L122.276 14.6172L119.684 14.9424ZM122.997 17.5879C122.997 16.9316 123.1 16.3252 123.305 15.7686C123.516 15.2061 123.806 14.7197 124.175 14.3096C124.55 13.8994 124.992 13.5801 125.502 13.3516C126.018 13.1172 126.58 13 127.189 13C127.781 13 128.323 13.1113 128.815 13.334C129.308 13.5508 129.735 13.8584 130.099 14.2568C130.462 14.6553 130.752 15.1328 130.969 15.6895C131.186 16.2461 131.314 16.8613 131.355 17.5352C131.396 18.2559 131.32 18.9092 131.127 19.4951C130.939 20.0752 130.661 20.5703 130.292 20.9805C129.923 21.3848 129.48 21.6982 128.965 21.9209C128.455 22.1436 127.901 22.2549 127.304 22.2549C126.729 22.2549 126.182 22.1523 125.66 21.9473C125.145 21.7363 124.688 21.4316 124.289 21.0332C123.896 20.6348 123.583 20.1484 123.349 19.5742C123.114 18.9941 122.997 18.332 122.997 17.5879ZM125.159 17.7373C125.159 18.2529 125.232 18.7188 125.379 19.1348C125.525 19.5508 125.722 19.9053 125.968 20.1982C126.214 20.4854 126.498 20.708 126.82 20.8662C127.143 21.0244 127.482 21.1035 127.84 21.1035C128.197 21.1035 128.531 21.0273 128.842 20.875C129.152 20.7168 129.422 20.4971 129.65 20.2158C129.879 19.9287 130.058 19.5859 130.187 19.1875C130.315 18.7891 130.38 18.3467 130.38 17.8604C130.38 17.3799 130.315 16.9287 130.187 16.5068C130.058 16.0791 129.876 15.707 129.642 15.3906C129.413 15.0742 129.141 14.8252 128.824 14.6436C128.508 14.4619 128.162 14.3711 127.787 14.3711C127.453 14.3711 127.128 14.4473 126.812 14.5996C126.501 14.752 126.223 14.9746 125.977 15.2676C125.73 15.5547 125.531 15.9062 125.379 16.3223C125.232 16.7383 125.159 17.21 125.159 17.7373ZM135.144 21.499C135.144 21.6865 135.094 21.8477 134.994 21.9824C134.9 22.1172 134.783 22.2256 134.643 22.3076C134.502 22.3955 134.355 22.457 134.203 22.4922C134.051 22.5332 133.919 22.5537 133.808 22.5537C133.685 22.5537 133.547 22.5332 133.395 22.4922C133.242 22.457 133.099 22.3955 132.964 22.3076C132.829 22.2256 132.715 22.1172 132.621 21.9824C132.527 21.8477 132.48 21.6865 132.48 21.499C132.48 21.2998 132.527 21.1299 132.621 20.9893C132.715 20.8486 132.829 20.7344 132.964 20.6465C133.099 20.5527 133.242 20.4854 133.395 20.4443C133.547 20.4033 133.685 20.3828 133.808 20.3828C133.919 20.3828 134.051 20.4033 134.203 20.4443C134.355 20.4854 134.502 20.5527 134.643 20.6465C134.783 20.7344 134.9 20.8486 134.994 20.9893C135.094 21.1299 135.144 21.2998 135.144 21.499Z" fill="url(#paint0_linear)"/>
<rect x="1" y="1" width="148" height="28" rx="4" stroke="url(#paint1_linear)" stroke-width="2"/>
<defs>
<linearGradient id="paint0_linear" x1="76.5" y1="6" x2="61.4506" y2="120.491" gradientUnits="userSpaceOnUse">
<stop stop-color="#EDDD0F"/>
<stop offset="1" stop-color="#DBBA0D" stop-opacity="0"/>
</linearGradient>
<linearGradient id="paint1_linear" x1="-9" y1="-7" x2="380" y2="80" gradientUnits="userSpaceOnUse">
<stop stop-color="#F4EB11"/>
<stop offset="0.742956" stop-color="#7C0000"/>
<stop offset="0.743056" stop-color="#DD9539" stop-opacity="0"/>
</linearGradient>
</defs>
</svg>
