<svg width="150" height="30" viewBox="0 0 150 30" fill="none" xmlns="http://www.w3.org/2000/svg">
<rect x="0.5" y="0.5" width="149" height="29" fill="white"/>
<path d="M24.09 10.25C24.41 10.52 24.57 10.835 24.57 11.195C24.57 11.555 24.475 11.815 24.285 11.975C24.105 12.125 23.885 12.195 23.625 12.185C23.625 11.025 23.015 10.445 21.795 10.445C21.225 10.445 20.75 10.58 20.37 10.85C20 11.12 19.815 11.495 19.815 11.975C19.815 12.545 20.09 13.005 20.64 13.355C20.94 13.545 21.185 13.685 21.375 13.775C21.565 13.865 21.865 14 22.275 14.18C22.685 14.35 23 14.49 23.22 14.6C23.45 14.71 23.7 14.855 23.97 15.035C24.24 15.205 24.44 15.37 24.57 15.53C24.89 15.94 25.05 16.415 25.05 16.955C25.05 17.855 24.71 18.625 24.03 19.265C23.36 19.905 22.475 20.225 21.375 20.225C20.585 20.225 19.885 20.065 19.275 19.745C18.675 19.425 18.375 19 18.375 18.47C18.375 18.21 18.45 17.995 18.6 17.825C18.76 17.655 18.975 17.57 19.245 17.57C19.365 18.17 19.63 18.625 20.04 18.935C20.45 19.245 20.995 19.4 21.675 19.4C22.355 19.4 22.915 19.215 23.355 18.845C23.795 18.465 24.015 17.965 24.015 17.345C24.015 16.765 23.81 16.325 23.4 16.025C23.08 15.785 22.735 15.59 22.365 15.44C22.005 15.28 21.69 15.14 21.42 15.02C21.15 14.9 20.875 14.77 20.595 14.63C20.325 14.48 20.03 14.29 19.71 14.06C19.09 13.61 18.78 13 18.78 12.23C18.78 11.46 19.075 10.84 19.665 10.37C20.265 9.89 21.005 9.64 21.885 9.62C22.815 9.6 23.55 9.81 24.09 10.25ZM27.8864 13.355V17.765C27.8864 18.325 27.9464 18.73 28.0664 18.98C28.1964 19.23 28.4364 19.355 28.7864 19.355C29.1464 19.355 29.4464 19.315 29.6864 19.235C29.9264 19.155 30.2214 18.975 30.5714 18.695C30.7514 18.745 30.8414 18.895 30.8414 19.145C30.8414 19.395 30.5964 19.64 30.1064 19.88C29.6264 20.12 29.1614 20.24 28.7114 20.24C28.0114 20.24 27.5264 20.04 27.2564 19.64C26.9864 19.24 26.8514 18.66 26.8514 17.9V13.355H25.7564C25.7264 12.895 25.8714 12.665 26.1914 12.665H26.8514V10.88L27.8864 10.625V12.665H30.6914C30.7214 12.995 30.6464 13.225 30.4664 13.355H27.8864ZM38.3118 19.535C38.3118 20.005 38.0018 20.24 37.3818 20.24C36.7618 20.24 36.4018 19.925 36.3018 19.295C35.6618 19.915 34.8918 20.225 33.9918 20.225C33.3018 20.225 32.7518 20.05 32.3418 19.7C31.9418 19.34 31.7418 18.855 31.7418 18.245C31.7418 17.635 31.9668 17.12 32.4168 16.7C32.8668 16.28 33.6118 16.07 34.6518 16.07C35.2618 16.07 35.8018 16.14 36.2718 16.28V15.095C36.2718 14.525 36.1268 14.07 35.8368 13.73C35.5568 13.38 35.1418 13.205 34.5918 13.205C34.0418 13.205 33.6468 13.355 33.4068 13.655C33.1768 13.945 33.0468 14.285 33.0168 14.675C32.7768 14.695 32.5768 14.645 32.4168 14.525C32.2568 14.405 32.1768 14.21 32.1768 13.94C32.1768 13.51 32.3968 13.155 32.8368 12.875C33.2768 12.585 33.8468 12.44 34.5468 12.44C35.1568 12.44 35.7368 12.59 36.2868 12.89C36.5968 13.05 36.8468 13.315 37.0368 13.685C37.2268 14.055 37.3218 14.505 37.3218 15.035V19.415L38.3118 19.535ZM36.2718 17.18C35.8118 16.93 35.2768 16.805 34.6668 16.805C34.0568 16.805 33.6068 16.92 33.3168 17.15C33.0368 17.38 32.8968 17.695 32.8968 18.095C32.8968 18.495 33.0218 18.815 33.2718 19.055C33.5218 19.285 33.8668 19.4 34.3068 19.4C35.0068 19.4 35.6618 19.13 36.2718 18.59V17.18ZM41.0261 13.355V17.765C41.0261 18.325 41.0861 18.73 41.2061 18.98C41.3361 19.23 41.5761 19.355 41.9261 19.355C42.2861 19.355 42.5861 19.315 42.8261 19.235C43.0661 19.155 43.3611 18.975 43.7111 18.695C43.8911 18.745 43.9811 18.895 43.9811 19.145C43.9811 19.395 43.7361 19.64 43.2461 19.88C42.7661 20.12 42.3011 20.24 41.8511 20.24C41.1511 20.24 40.6661 20.04 40.3961 19.64C40.1261 19.24 39.9911 18.66 39.9911 17.9V13.355H38.8961C38.8661 12.895 39.0111 12.665 39.3311 12.665H39.9911V10.88L41.0261 10.625V12.665H43.8311C43.8611 12.995 43.7861 13.225 43.6061 13.355H41.0261ZM50.6414 16.055H45.9314C45.9214 16.155 45.9164 16.31 45.9164 16.52C45.9164 17.37 46.0964 18.06 46.4564 18.59C46.8164 19.11 47.3764 19.37 48.1364 19.37C48.8964 19.37 49.6214 19.1 50.3114 18.56C50.4314 18.66 50.4914 18.785 50.4914 18.935C50.4914 19.215 50.2164 19.5 49.6664 19.79C49.1264 20.08 48.5164 20.225 47.8364 20.225C46.9064 20.225 46.1614 19.92 45.6014 19.31C45.0514 18.7 44.7764 17.77 44.7764 16.52C44.7764 15.27 45.1064 14.28 45.7664 13.55C46.4264 12.81 47.2064 12.44 48.1064 12.44C49.0064 12.44 49.6564 12.725 50.0564 13.295C50.4564 13.865 50.6514 14.545 50.6414 15.335V16.055ZM49.5464 15.38C49.5464 14.71 49.4164 14.18 49.1564 13.79C48.8964 13.39 48.5164 13.19 48.0164 13.19C47.5264 13.19 47.1064 13.385 46.7564 13.775C46.4064 14.165 46.1614 14.7 46.0214 15.38H49.5464ZM58.6741 20H55.7491V19.88C55.7491 19.62 55.8191 19.45 55.9591 19.37C56.0291 19.34 56.1141 19.32 56.2141 19.31L56.9041 19.28V10.595L55.8091 10.505C55.7691 10.065 55.9041 9.845 56.2141 9.845H59.1391V9.965C59.1391 10.235 59.0691 10.4 58.9291 10.46C58.8591 10.5 58.7741 10.525 58.6741 10.535L57.9841 10.565V19.25L59.0791 19.34C59.1191 19.78 58.9841 20 58.6741 20ZM68.1777 20H65.3877V19.88C65.3877 19.64 65.4577 19.49 65.5977 19.43C65.6677 19.39 65.7527 19.365 65.8527 19.355L66.5127 19.325V15.44C66.5127 14.04 65.9577 13.34 64.8477 13.34C64.4377 13.34 64.0677 13.42 63.7377 13.58C63.4077 13.74 63.0327 13.995 62.6127 14.345V19.295L63.6777 19.385C63.7177 19.795 63.5827 20 63.2727 20H60.4527V19.88C60.4527 19.56 60.6127 19.385 60.9327 19.355L61.5777 19.325V13.415L60.7977 13.325C60.5577 13.305 60.4377 13.1 60.4377 12.71L62.3727 12.455L62.5677 13.595H62.6127C63.4227 12.825 64.2577 12.44 65.1177 12.44C65.7877 12.44 66.3577 12.675 66.8277 13.145C67.3077 13.615 67.5477 14.34 67.5477 15.32V19.295L68.5977 19.385C68.6377 19.795 68.4977 20 68.1777 20ZM69.6669 13.355V13.085C69.6669 12.975 69.6919 12.89 69.7419 12.83C69.7919 12.76 69.8319 12.72 69.8619 12.71C69.9519 12.68 70.0269 12.665 70.0869 12.665H70.7319V12.11C70.7319 11.22 70.9219 10.53 71.3019 10.04C71.6919 9.55 72.2369 9.305 72.9369 9.305C73.2869 9.295 73.5819 9.36 73.8219 9.5C74.0619 9.63 74.1819 9.82 74.1819 10.07C74.1819 10.31 74.1169 10.49 73.9869 10.61C73.8569 10.73 73.6869 10.79 73.4769 10.79C73.4669 10.54 73.3869 10.345 73.2369 10.205C73.0969 10.065 72.8919 9.995 72.6219 9.995C72.0519 9.995 71.7669 10.585 71.7669 11.765V12.665H73.6119C73.6519 13.125 73.5069 13.355 73.1769 13.355H71.7669V19.295L73.2369 19.385V19.64C73.2369 19.76 73.2119 19.835 73.1619 19.865C73.0619 19.955 72.9519 20 72.8319 20H69.6369V19.88C69.6369 19.64 69.7069 19.49 69.8469 19.43C69.9169 19.39 70.0019 19.365 70.1019 19.355L70.7319 19.325V13.355H69.6669ZM77.6063 13.22C76.9263 13.22 76.4013 13.515 76.0313 14.105C75.6613 14.695 75.4763 15.45 75.4763 16.37C75.4763 17.28 75.6563 18.025 76.0163 18.605C76.3763 19.175 76.8963 19.46 77.5763 19.46C78.2563 19.45 78.7813 19.16 79.1513 18.59C79.5213 18.02 79.7063 17.285 79.7063 16.385C79.7063 15.475 79.5263 14.72 79.1663 14.12C78.8163 13.51 78.2963 13.21 77.6063 13.22ZM77.6963 12.44C78.4563 12.44 79.1413 12.68 79.7513 13.16C80.0713 13.42 80.3263 13.8 80.5163 14.3C80.7163 14.8 80.8163 15.4 80.8163 16.1C80.8363 17.34 80.5463 18.34 79.9463 19.1C79.3463 19.85 78.5363 20.225 77.5163 20.225C76.4963 20.225 75.7213 19.905 75.1913 19.265C74.6613 18.625 74.3863 17.7 74.3663 16.49C74.3563 15.28 74.6513 14.305 75.2513 13.565C75.8613 12.815 76.6763 12.44 77.6963 12.44ZM84.2484 13.655C84.5484 13.335 84.9184 13.055 85.3584 12.815C85.8084 12.565 86.1734 12.44 86.4534 12.44C86.7434 12.44 86.9784 12.51 87.1584 12.65C87.3384 12.78 87.4284 12.99 87.4284 13.28C87.4284 13.8 87.3434 14.155 87.1734 14.345C87.0434 14.455 86.8384 14.5 86.5584 14.48C86.5584 13.76 86.3684 13.4 85.9884 13.4C85.5084 13.4 84.9284 13.74 84.2484 14.42V19.295L85.5384 19.385C85.5784 19.795 85.4384 20 85.1184 20H82.1184V19.88C82.1184 19.64 82.1884 19.49 82.3284 19.43C82.3984 19.39 82.4834 19.365 82.5834 19.355L83.2134 19.325V13.46L82.4034 13.37C82.1834 13.35 82.0734 13.145 82.0734 12.755L84.0984 12.5L84.2034 13.655H84.2484ZM100.662 20H97.8272V19.88C97.8272 19.64 97.8972 19.49 98.0372 19.43C98.1072 19.39 98.1922 19.365 98.2922 19.355L98.9072 19.325V15.575C98.9072 14.115 98.3172 13.385 97.1372 13.385C96.7272 13.385 96.3672 13.475 96.0572 13.655C95.7472 13.825 95.4072 14.08 95.0372 14.42C95.1272 14.7 95.1722 15.055 95.1722 15.485V19.295L96.2972 19.385C96.3372 19.795 96.2022 20 95.8922 20H93.0422V19.88C93.0422 19.64 93.1122 19.49 93.2522 19.43C93.3222 19.39 93.4072 19.365 93.5072 19.355L94.1222 19.325V15.575C94.1222 14.855 93.9622 14.31 93.6422 13.94C93.3322 13.57 92.8972 13.385 92.3372 13.385C91.9472 13.385 91.6022 13.465 91.3022 13.625C91.0022 13.785 90.6822 14.02 90.3422 14.33V19.295L91.4822 19.385C91.5222 19.795 91.3822 20 91.0622 20H88.2122V19.88C88.2122 19.64 88.2822 19.49 88.4222 19.43C88.4922 19.39 88.5772 19.365 88.6772 19.355L89.3072 19.325V13.37L88.6472 13.355C88.3272 13.355 88.1672 13.14 88.1672 12.71L90.1022 12.455L90.2822 13.505H90.3272C90.9972 12.795 91.7472 12.44 92.5772 12.44C93.0272 12.44 93.4572 12.55 93.8672 12.77C94.2772 12.99 94.5922 13.335 94.8122 13.805C95.1622 13.395 95.5322 13.065 95.9222 12.815C96.3222 12.565 96.8372 12.44 97.4672 12.44C98.0972 12.44 98.6672 12.685 99.1772 13.175C99.6872 13.665 99.9422 14.435 99.9422 15.485V19.295L101.082 19.385C101.122 19.795 100.982 20 100.662 20ZM108.698 19.535C108.698 20.005 108.388 20.24 107.768 20.24C107.148 20.24 106.788 19.925 106.688 19.295C106.048 19.915 105.278 20.225 104.378 20.225C103.688 20.225 103.138 20.05 102.728 19.7C102.328 19.34 102.128 18.855 102.128 18.245C102.128 17.635 102.353 17.12 102.803 16.7C103.253 16.28 103.998 16.07 105.038 16.07C105.648 16.07 106.188 16.14 106.658 16.28V15.095C106.658 14.525 106.513 14.07 106.223 13.73C105.943 13.38 105.528 13.205 104.978 13.205C104.428 13.205 104.033 13.355 103.793 13.655C103.563 13.945 103.433 14.285 103.403 14.675C103.163 14.695 102.963 14.645 102.803 14.525C102.643 14.405 102.563 14.21 102.563 13.94C102.563 13.51 102.783 13.155 103.223 12.875C103.663 12.585 104.233 12.44 104.933 12.44C105.543 12.44 106.123 12.59 106.673 12.89C106.983 13.05 107.233 13.315 107.423 13.685C107.613 14.055 107.708 14.505 107.708 15.035V19.415L108.698 19.535ZM106.658 17.18C106.198 16.93 105.663 16.805 105.053 16.805C104.443 16.805 103.993 16.92 103.703 17.15C103.423 17.38 103.283 17.695 103.283 18.095C103.283 18.495 103.408 18.815 103.658 19.055C103.908 19.285 104.253 19.4 104.693 19.4C105.393 19.4 106.048 19.13 106.658 18.59V17.18ZM111.412 13.355V17.765C111.412 18.325 111.472 18.73 111.592 18.98C111.722 19.23 111.962 19.355 112.312 19.355C112.672 19.355 112.972 19.315 113.212 19.235C113.452 19.155 113.747 18.975 114.097 18.695C114.277 18.745 114.367 18.895 114.367 19.145C114.367 19.395 114.122 19.64 113.632 19.88C113.152 20.12 112.687 20.24 112.237 20.24C111.537 20.24 111.052 20.04 110.782 19.64C110.512 19.24 110.377 18.66 110.377 17.9V13.355H109.282C109.252 12.895 109.397 12.665 109.717 12.665H110.377V10.88L111.412 10.625V12.665H114.217C114.247 12.995 114.172 13.225 113.992 13.355H111.412ZM118.147 20H115.297V19.88C115.297 19.64 115.367 19.49 115.507 19.43C115.577 19.39 115.662 19.365 115.762 19.355L116.392 19.325V13.385L115.612 13.325C115.372 13.295 115.252 13.08 115.252 12.68L117.427 12.44V19.295L118.567 19.385C118.607 19.795 118.467 20 118.147 20ZM117.322 11.075C117.182 11.205 117.002 11.27 116.782 11.27C116.562 11.27 116.382 11.205 116.242 11.075C116.112 10.935 116.047 10.755 116.047 10.535C116.047 10.315 116.112 10.135 116.242 9.995C116.382 9.855 116.562 9.785 116.782 9.785C117.002 9.785 117.182 9.855 117.322 9.995C117.462 10.135 117.532 10.315 117.532 10.535C117.532 10.755 117.462 10.935 117.322 11.075ZM122.767 13.22C122.087 13.22 121.562 13.515 121.192 14.105C120.822 14.695 120.637 15.45 120.637 16.37C120.637 17.28 120.817 18.025 121.177 18.605C121.537 19.175 122.057 19.46 122.737 19.46C123.417 19.45 123.942 19.16 124.312 18.59C124.682 18.02 124.867 17.285 124.867 16.385C124.867 15.475 124.687 14.72 124.327 14.12C123.977 13.51 123.457 13.21 122.767 13.22ZM122.857 12.44C123.617 12.44 124.302 12.68 124.912 13.16C125.232 13.42 125.487 13.8 125.677 14.3C125.877 14.8 125.977 15.4 125.977 16.1C125.997 17.34 125.707 18.34 125.107 19.1C124.507 19.85 123.697 20.225 122.677 20.225C121.657 20.225 120.882 19.905 120.352 19.265C119.822 18.625 119.547 17.7 119.527 16.49C119.517 15.28 119.812 14.305 120.412 13.565C121.022 12.815 121.837 12.44 122.857 12.44ZM134.975 20H132.185V19.88C132.185 19.64 132.255 19.49 132.395 19.43C132.465 19.39 132.55 19.365 132.65 19.355L133.31 19.325V15.44C133.31 14.04 132.755 13.34 131.645 13.34C131.235 13.34 130.865 13.42 130.535 13.58C130.205 13.74 129.83 13.995 129.41 14.345V19.295L130.475 19.385C130.515 19.795 130.38 20 130.07 20H127.25V19.88C127.25 19.56 127.41 19.385 127.73 19.355L128.375 19.325V13.415L127.595 13.325C127.355 13.305 127.235 13.1 127.235 12.71L129.17 12.455L129.365 13.595H129.41C130.22 12.825 131.055 12.44 131.915 12.44C132.585 12.44 133.155 12.675 133.625 13.145C134.105 13.615 134.345 14.34 134.345 15.32V19.295L135.395 19.385C135.435 19.795 135.295 20 134.975 20Z" fill="#7C0000"/>
<rect x="0.5" y="0.5" width="149" height="29" stroke="url(#paint0_linear)"/>
<defs>
<linearGradient id="paint0_linear" x1="70" y1="-4.99999" x2="95" y2="70.5" gradientUnits="userSpaceOnUse">
<stop stop-color="#DD9539"/>
<stop offset="0.742956" stop-color="#7C0000"/>
<stop offset="0.743056" stop-color="#DD9539" stop-opacity="0"/>
</linearGradient>
</defs>
</svg>
