<svg width="150" height="30" viewBox="0 0 150 30" fill="none" xmlns="http://www.w3.org/2000/svg">
<rect x="0.5" y="0.5" width="149" height="29" fill="white"/>
<path d="M25.09 11.25C25.41 11.52 25.57 11.835 25.57 12.195C25.57 12.555 25.475 12.815 25.285 12.975C25.105 13.125 24.885 13.195 24.625 13.185C24.625 12.025 24.015 11.445 22.795 11.445C22.225 11.445 21.75 11.58 21.37 11.85C21 12.12 20.815 12.495 20.815 12.975C20.815 13.545 21.09 14.005 21.64 14.355C21.94 14.545 22.185 14.685 22.375 14.775C22.565 14.865 22.865 15 23.275 15.18C23.685 15.35 24 15.49 24.22 15.6C24.45 15.71 24.7 15.855 24.97 16.035C25.24 16.205 25.44 16.37 25.57 16.53C25.89 16.94 26.05 17.415 26.05 17.955C26.05 18.855 25.71 19.625 25.03 20.265C24.36 20.905 23.475 21.225 22.375 21.225C21.585 21.225 20.885 21.065 20.275 20.745C19.675 20.425 19.375 20 19.375 19.47C19.375 19.21 19.45 18.995 19.6 18.825C19.76 18.655 19.975 18.57 20.245 18.57C20.365 19.17 20.63 19.625 21.04 19.935C21.45 20.245 21.995 20.4 22.675 20.4C23.355 20.4 23.915 20.215 24.355 19.845C24.795 19.465 25.015 18.965 25.015 18.345C25.015 17.765 24.81 17.325 24.4 17.025C24.08 16.785 23.735 16.59 23.365 16.44C23.005 16.28 22.69 16.14 22.42 16.02C22.15 15.9 21.875 15.77 21.595 15.63C21.325 15.48 21.03 15.29 20.71 15.06C20.09 14.61 19.78 14 19.78 13.23C19.78 12.46 20.075 11.84 20.665 11.37C21.265 10.89 22.005 10.64 22.885 10.62C23.815 10.6 24.55 10.81 25.09 11.25ZM28.8864 14.355V18.765C28.8864 19.325 28.9464 19.73 29.0664 19.98C29.1964 20.23 29.4364 20.355 29.7864 20.355C30.1464 20.355 30.4464 20.315 30.6864 20.235C30.9264 20.155 31.2214 19.975 31.5714 19.695C31.7514 19.745 31.8414 19.895 31.8414 20.145C31.8414 20.395 31.5964 20.64 31.1064 20.88C30.6264 21.12 30.1614 21.24 29.7114 21.24C29.0114 21.24 28.5264 21.04 28.2564 20.64C27.9864 20.24 27.8514 19.66 27.8514 18.9V14.355H26.7564C26.7264 13.895 26.8714 13.665 27.1914 13.665H27.8514V11.88L28.8864 11.625V13.665H31.6914C31.7214 13.995 31.6464 14.225 31.4664 14.355H28.8864ZM34.9018 14.655C35.2018 14.335 35.5718 14.055 36.0118 13.815C36.4618 13.565 36.8268 13.44 37.1068 13.44C37.3968 13.44 37.6318 13.51 37.8118 13.65C37.9918 13.78 38.0818 13.99 38.0818 14.28C38.0818 14.8 37.9968 15.155 37.8268 15.345C37.6968 15.455 37.4918 15.5 37.2118 15.48C37.2118 14.76 37.0218 14.4 36.6418 14.4C36.1618 14.4 35.5818 14.74 34.9018 15.42V20.295L36.1918 20.385C36.2318 20.795 36.0918 21 35.7718 21H32.7718V20.88C32.7718 20.64 32.8418 20.49 32.9818 20.43C33.0518 20.39 33.1368 20.365 33.2368 20.355L33.8668 20.325V14.46L33.0568 14.37C32.8368 14.35 32.7268 14.145 32.7268 13.755L34.7518 13.5L34.8568 14.655H34.9018ZM41.7155 21H38.8655V20.88C38.8655 20.64 38.9355 20.49 39.0755 20.43C39.1455 20.39 39.2305 20.365 39.3305 20.355L39.9605 20.325V14.385L39.1805 14.325C38.9405 14.295 38.8205 14.08 38.8205 13.68L40.9955 13.44V20.295L42.1355 20.385C42.1755 20.795 42.0355 21 41.7155 21ZM40.8905 12.075C40.7505 12.205 40.5705 12.27 40.3505 12.27C40.1305 12.27 39.9505 12.205 39.8105 12.075C39.6805 11.935 39.6155 11.755 39.6155 11.535C39.6155 11.315 39.6805 11.135 39.8105 10.995C39.9505 10.855 40.1305 10.785 40.3505 10.785C40.5705 10.785 40.7505 10.855 40.8905 10.995C41.0305 11.135 41.1005 11.315 41.1005 11.535C41.1005 11.755 41.0305 11.935 40.8905 12.075ZM50.9257 21H48.1357V20.88C48.1357 20.64 48.2057 20.49 48.3457 20.43C48.4157 20.39 48.5007 20.365 48.6007 20.355L49.2607 20.325V16.44C49.2607 15.04 48.7057 14.34 47.5957 14.34C47.1857 14.34 46.8157 14.42 46.4857 14.58C46.1557 14.74 45.7807 14.995 45.3607 15.345V20.295L46.4257 20.385C46.4657 20.795 46.3307 21 46.0207 21H43.2007V20.88C43.2007 20.56 43.3607 20.385 43.6807 20.355L44.3257 20.325V14.415L43.5457 14.325C43.3057 14.305 43.1857 14.1 43.1857 13.71L45.1207 13.455L45.3157 14.595H45.3607C46.1707 13.825 47.0057 13.44 47.8657 13.44C48.5357 13.44 49.1057 13.675 49.5757 14.145C50.0557 14.615 50.2957 15.34 50.2957 16.32V20.295L51.3457 20.385C51.3857 20.795 51.2457 21 50.9257 21ZM54.68 19.575L55.13 19.59C56.35 19.61 57.21 19.755 57.71 20.025C58.22 20.285 58.475 20.77 58.475 21.48C58.475 22.35 58.155 23.05 57.515 23.58C56.875 24.12 56.05 24.39 55.04 24.39C54.04 24.39 53.28 24.2 52.76 23.82C52.24 23.45 51.98 22.97 51.98 22.38C51.98 21.62 52.375 20.945 53.165 20.355C52.915 20.225 52.79 20 52.79 19.68C52.79 19.35 53.04 18.925 53.54 18.405C52.78 18.015 52.375 17.345 52.325 16.395C52.275 15.595 52.5 14.905 53 14.325C53.5 13.735 54.18 13.44 55.04 13.44C55.61 13.44 56.115 13.58 56.555 13.86L58.37 13.38C58.46 13.5 58.51 13.65 58.52 13.83C58.53 14.01 58.48 14.15 58.37 14.25C58.21 14.33 57.78 14.36 57.08 14.34C57.4 14.76 57.55 15.34 57.53 16.08C57.52 16.81 57.28 17.43 56.81 17.94C56.35 18.45 55.7 18.705 54.86 18.705C54.63 18.705 54.4 18.68 54.17 18.63C53.77 19.1 53.67 19.38 53.87 19.47C54.05 19.54 54.32 19.575 54.68 19.575ZM53.765 14.715C53.485 15.085 53.345 15.54 53.345 16.08C53.345 16.62 53.48 17.08 53.75 17.46C54.03 17.84 54.415 18.025 54.905 18.015C55.405 18.005 55.795 17.81 56.075 17.43C56.365 17.05 56.51 16.595 56.51 16.065C56.51 15.525 56.375 15.07 56.105 14.7C55.835 14.32 55.45 14.135 54.95 14.145C54.45 14.155 54.055 14.345 53.765 14.715ZM52.865 22.005C52.865 22.505 53.075 22.875 53.495 23.115C53.915 23.365 54.495 23.49 55.235 23.49C55.975 23.49 56.57 23.32 57.02 22.98C57.47 22.64 57.695 22.23 57.695 21.75C57.695 21.28 57.43 20.97 56.9 20.82C56.44 20.7 55.85 20.63 55.13 20.61C54.42 20.59 53.945 20.56 53.705 20.52C53.145 21.01 52.865 21.505 52.865 22.005ZM70.092 10.845V12.855C70.092 13.155 69.872 13.285 69.432 13.245L69.267 11.61L65.547 11.595V15.435L68.427 15.24C68.487 15.58 68.487 15.94 68.427 16.32L65.547 16.155V20.25L66.852 20.34C66.892 20.78 66.757 21 66.447 21H63.297C63.297 21 63.297 20.96 63.297 20.88C63.297 20.62 63.367 20.45 63.507 20.37C63.577 20.34 63.662 20.32 63.762 20.31L64.452 20.28V11.595L63.357 11.505C63.317 11.065 63.457 10.845 63.777 10.845H70.092ZM70.6121 14.1C70.6121 13.81 70.7521 13.665 71.0321 13.665H72.7871V18.09C72.7871 18.83 72.9421 19.39 73.2521 19.77C73.5621 20.14 74.0221 20.325 74.6321 20.325C75.2521 20.325 75.8771 20.05 76.5071 19.5V14.37L75.3521 14.295C75.3121 13.875 75.4471 13.665 75.7571 13.665H77.5421V20.145L78.2771 20.22C78.5071 20.24 78.6221 20.455 78.6221 20.865L76.8071 21.015L76.6121 20.22C75.9421 20.89 75.1771 21.225 74.3171 21.225C73.6271 21.225 73.0271 20.98 72.5171 20.49C72.0071 20 71.7521 19.23 71.7521 18.18V14.37L70.6121 14.295V14.1ZM87.3711 21H84.5811V20.88C84.5811 20.64 84.6511 20.49 84.7911 20.43C84.8611 20.39 84.9461 20.365 85.0461 20.355L85.7061 20.325V16.44C85.7061 15.04 85.1511 14.34 84.0411 14.34C83.6311 14.34 83.2611 14.42 82.9311 14.58C82.6011 14.74 82.2261 14.995 81.8061 15.345V20.295L82.8711 20.385C82.9111 20.795 82.7761 21 82.4661 21H79.6461V20.88C79.6461 20.56 79.8061 20.385 80.1261 20.355L80.7711 20.325V14.415L79.9911 14.325C79.7511 14.305 79.6311 14.1 79.6311 13.71L81.5661 13.455L81.7611 14.595H81.8061C82.6161 13.825 83.4511 13.44 84.3111 13.44C84.9811 13.44 85.5511 13.675 86.0211 14.145C86.5011 14.615 86.7411 15.34 86.7411 16.32V20.295L87.7911 20.385C87.8311 20.795 87.6911 21 87.3711 21ZM92.2803 13.44C92.9203 13.44 93.4253 13.57 93.7953 13.83C94.1753 14.09 94.3653 14.435 94.3653 14.865C94.3653 15.415 94.0853 15.68 93.5253 15.66C93.5153 15.29 93.3853 14.965 93.1353 14.685C92.8953 14.395 92.5303 14.25 92.0403 14.25C91.3303 14.25 90.7853 14.545 90.4053 15.135C90.0353 15.725 89.8503 16.47 89.8503 17.37C89.8503 18.16 90.0053 18.84 90.3153 19.41C90.6753 20.04 91.2953 20.355 92.1753 20.355C92.8953 20.355 93.5803 20.09 94.2303 19.56C94.3603 19.65 94.4253 19.77 94.4253 19.92C94.4253 20.22 94.1403 20.515 93.5703 20.805C93.0003 21.085 92.3903 21.225 91.7403 21.225C90.7903 21.225 90.0553 20.895 89.5353 20.235C89.0253 19.575 88.7603 18.675 88.7403 17.535C88.7203 16.385 89.0253 15.415 89.6553 14.625C90.2853 13.835 91.1603 13.44 92.2803 13.44ZM97.3825 14.355V18.765C97.3825 19.325 97.4425 19.73 97.5625 19.98C97.6925 20.23 97.9325 20.355 98.2825 20.355C98.6425 20.355 98.9425 20.315 99.1825 20.235C99.4225 20.155 99.7175 19.975 100.068 19.695C100.248 19.745 100.338 19.895 100.338 20.145C100.338 20.395 100.093 20.64 99.6025 20.88C99.1225 21.12 98.6575 21.24 98.2075 21.24C97.5075 21.24 97.0225 21.04 96.7525 20.64C96.4825 20.24 96.3475 19.66 96.3475 18.9V14.355H95.2525C95.2225 13.895 95.3675 13.665 95.6875 13.665H96.3475V11.88L97.3825 11.625V13.665H100.188C100.218 13.995 100.143 14.225 99.9625 14.355H97.3825ZM104.118 21H101.268V20.88C101.268 20.64 101.338 20.49 101.478 20.43C101.548 20.39 101.633 20.365 101.733 20.355L102.363 20.325V14.385L101.583 14.325C101.343 14.295 101.223 14.08 101.223 13.68L103.398 13.44V20.295L104.538 20.385C104.578 20.795 104.438 21 104.118 21ZM103.293 12.075C103.153 12.205 102.973 12.27 102.753 12.27C102.533 12.27 102.353 12.205 102.213 12.075C102.083 11.935 102.018 11.755 102.018 11.535C102.018 11.315 102.083 11.135 102.213 10.995C102.353 10.855 102.533 10.785 102.753 10.785C102.973 10.785 103.153 10.855 103.293 10.995C103.433 11.135 103.503 11.315 103.503 11.535C103.503 11.755 103.433 11.935 103.293 12.075ZM108.738 14.22C108.058 14.22 107.533 14.515 107.163 15.105C106.793 15.695 106.608 16.45 106.608 17.37C106.608 18.28 106.788 19.025 107.148 19.605C107.508 20.175 108.028 20.46 108.708 20.46C109.388 20.45 109.913 20.16 110.283 19.59C110.653 19.02 110.838 18.285 110.838 17.385C110.838 16.475 110.658 15.72 110.298 15.12C109.948 14.51 109.428 14.21 108.738 14.22ZM108.828 13.44C109.588 13.44 110.273 13.68 110.883 14.16C111.203 14.42 111.458 14.8 111.648 15.3C111.848 15.8 111.948 16.4 111.948 17.1C111.968 18.34 111.678 19.34 111.078 20.1C110.478 20.85 109.668 21.225 108.648 21.225C107.628 21.225 106.853 20.905 106.323 20.265C105.793 19.625 105.518 18.7 105.498 17.49C105.488 16.28 105.783 15.305 106.383 14.565C106.993 13.815 107.808 13.44 108.828 13.44ZM120.945 21H118.155V20.88C118.155 20.64 118.225 20.49 118.365 20.43C118.435 20.39 118.52 20.365 118.62 20.355L119.28 20.325V16.44C119.28 15.04 118.725 14.34 117.615 14.34C117.205 14.34 116.835 14.42 116.505 14.58C116.175 14.74 115.8 14.995 115.38 15.345V20.295L116.445 20.385C116.485 20.795 116.35 21 116.04 21H113.22V20.88C113.22 20.56 113.38 20.385 113.7 20.355L114.345 20.325V14.415L113.565 14.325C113.325 14.305 113.205 14.1 113.205 13.71L115.14 13.455L115.335 14.595H115.38C116.19 13.825 117.025 13.44 117.885 13.44C118.555 13.44 119.125 13.675 119.595 14.145C120.075 14.615 120.315 15.34 120.315 16.32V20.295L121.365 20.385C121.405 20.795 121.265 21 120.945 21ZM122.344 15.54C122.354 14.89 122.619 14.375 123.139 13.995C123.659 13.615 124.224 13.43 124.834 13.44C125.454 13.45 125.964 13.56 126.364 13.77C126.764 13.97 126.959 14.27 126.949 14.67C126.939 14.94 126.844 15.135 126.664 15.255C126.484 15.375 126.289 15.425 126.079 15.405C126.089 15.055 125.979 14.77 125.749 14.55C125.529 14.33 125.204 14.215 124.774 14.205C124.344 14.195 123.984 14.295 123.694 14.505C123.414 14.705 123.269 14.965 123.259 15.285C123.249 15.605 123.389 15.865 123.679 16.065C123.979 16.255 124.399 16.455 124.939 16.665C125.479 16.875 125.844 17.03 126.034 17.13C126.234 17.22 126.449 17.345 126.679 17.505C127.109 17.805 127.314 18.26 127.294 18.87C127.284 19.48 127.019 20.03 126.499 20.52C125.979 21 125.284 21.235 124.414 21.225C123.794 21.205 123.249 21.075 122.779 20.835C122.309 20.585 122.074 20.245 122.074 19.815C122.084 19.585 122.159 19.405 122.299 19.275C122.449 19.135 122.629 19.07 122.839 19.08C122.919 19.49 123.119 19.82 123.439 20.07C123.769 20.32 124.174 20.45 124.654 20.46C125.134 20.46 125.534 20.35 125.854 20.13C126.174 19.9 126.339 19.6 126.349 19.23C126.359 18.86 126.244 18.58 126.004 18.39C125.774 18.2 125.439 18.025 124.999 17.865C124.559 17.695 124.249 17.575 124.069 17.505C123.899 17.435 123.684 17.33 123.424 17.19C123.174 17.05 122.979 16.91 122.839 16.77C122.509 16.42 122.344 16.01 122.344 15.54Z" fill="#7C0000"/>
<rect x="0.5" y="0.5" width="149" height="29" stroke="url(#paint0_linear)"/>
<defs>
<linearGradient id="paint0_linear" x1="70" y1="-4.99999" x2="95" y2="70.5" gradientUnits="userSpaceOnUse">
<stop stop-color="#DD9539"/>
<stop offset="0.742956" stop-color="#7C0000"/>
<stop offset="0.743056" stop-color="#DD9539" stop-opacity="0"/>
</linearGradient>
</defs>
</svg>
