<svg width="150" height="30" viewBox="0 0 150 30" fill="none" xmlns="http://www.w3.org/2000/svg">
<rect x="1" y="1" width="148" height="28" rx="4" fill="white"/>
<path d="M20.4231 10.0913C20.7883 10.0913 21.1375 10.1262 21.4705 10.196C21.8088 10.2605 22.123 10.3491 22.4131 10.4619C22.7031 10.5693 22.9663 10.6929 23.2026 10.8325C23.439 10.9722 23.6404 11.1118 23.8069 11.2515L25.9016 9.80933L23.4927 14.4338L23.3074 12.0088C23.1516 11.9014 22.9824 11.8074 22.7998 11.7268C22.6226 11.6409 22.4426 11.571 22.26 11.5173C22.0828 11.4583 21.9109 11.4126 21.7444 11.3804C21.5779 11.3428 21.4302 11.3132 21.3013 11.2917C21.1724 11.2703 21.0676 11.2568 20.9871 11.2515C20.9119 11.2407 20.8716 11.2354 20.8662 11.2354C20.501 11.2354 20.1948 11.2756 19.9478 11.3562C19.7007 11.4368 19.4993 11.5415 19.3435 11.6704C19.1931 11.7993 19.083 11.947 19.0132 12.1135C18.9487 12.2747 18.9165 12.4385 18.9165 12.605C18.9165 12.9434 18.9863 13.2307 19.126 13.467C19.2656 13.698 19.4778 13.9048 19.7625 14.0874C20.0471 14.27 20.4097 14.4419 20.8501 14.603C21.2905 14.7588 21.8088 14.928 22.405 15.1106C22.7649 15.2234 23.1033 15.3765 23.4202 15.5698C23.7424 15.7578 24.0217 15.9807 24.2581 16.2385C24.4944 16.491 24.6797 16.7756 24.814 17.0925C24.9536 17.4041 25.0234 17.7397 25.0234 18.0996C25.0234 18.5186 24.9644 18.8918 24.8462 19.2195C24.728 19.5417 24.5696 19.8264 24.3708 20.0735C24.1775 20.3152 23.9519 20.522 23.6941 20.6938C23.4363 20.8604 23.1677 20.9946 22.8884 21.0967C22.6145 21.2041 22.3352 21.2793 22.0505 21.3223C21.7712 21.3706 21.5081 21.3948 21.261 21.3948C20.5359 21.3948 19.8779 21.2712 19.2871 21.0242C18.6963 20.7771 18.1458 20.4387 17.6355 20.009L15.5408 21.4431L17.8772 17.302C17.9417 17.6887 18.0544 18.062 18.2156 18.4219C18.3821 18.7764 18.5862 19.0933 18.8279 19.3726C19.0696 19.6519 19.3489 19.8748 19.6658 20.0413C19.9827 20.2078 20.3291 20.291 20.7051 20.291C21.0059 20.291 21.2798 20.2454 21.5269 20.1541C21.7793 20.0627 21.9941 19.9419 22.1714 19.7915C22.3486 19.6357 22.4856 19.4585 22.5823 19.2598C22.6843 19.0557 22.7354 18.8435 22.7354 18.6233C22.7354 18.3171 22.6494 18.054 22.4775 17.8337C22.3057 17.6082 22.0801 17.4094 21.8008 17.2375C21.5215 17.0603 21.2019 16.8992 20.842 16.7542C20.4875 16.6038 20.1223 16.4507 19.7463 16.2949C19.3704 16.1392 19.0024 15.9673 18.6426 15.7793C18.2881 15.5913 17.9712 15.3711 17.6919 15.1187C17.4126 14.8608 17.187 14.5601 17.0151 14.2163C16.8433 13.8726 16.7573 13.467 16.7573 12.9998C16.7573 12.6399 16.8271 12.2881 16.9668 11.9443C17.1118 11.5952 17.332 11.2837 17.6274 11.0098C17.9282 10.7358 18.3096 10.5156 18.7715 10.3491C19.2334 10.1772 19.7839 10.0913 20.4231 10.0913ZM26.4978 17.4712C26.4978 16.9663 26.5488 16.4641 26.6509 15.9646C26.7583 15.4597 26.8738 14.9978 26.9973 14.5789L25.6035 14.6675L29.5352 10.3733C29.2236 11.3562 28.9712 12.2424 28.7778 13.032L31.9119 13.2979L31.501 14.2646L28.4636 14.4822C28.3884 14.8743 28.3293 15.2234 28.2864 15.5295C28.2488 15.8303 28.2166 16.0854 28.1897 16.2949C28.1628 16.542 28.144 16.7568 28.1333 16.9395C28.1333 17.4766 28.1655 17.96 28.23 18.3896C28.2944 18.8193 28.3938 19.1873 28.5281 19.4934C28.6677 19.7942 28.8423 20.0278 29.0518 20.1943C29.2666 20.3555 29.5217 20.436 29.8171 20.436C30.0911 20.436 30.3193 20.3823 30.502 20.2749C30.6899 20.1621 30.8403 20.0198 30.9531 19.8479C31.0659 19.6707 31.1465 19.4746 31.1948 19.2598C31.2432 19.0396 31.2673 18.822 31.2673 18.6072C31.2673 18.4084 31.2512 18.2151 31.219 18.0271C31.45 18.1453 31.6245 18.3359 31.7427 18.5991C31.8662 18.8569 31.928 19.1389 31.928 19.4451C31.928 19.762 31.8743 20.0413 31.7668 20.283C31.6648 20.5247 31.5225 20.7288 31.3398 20.8953C31.1572 21.0564 30.9424 21.1799 30.6953 21.2659C30.4482 21.3518 30.1824 21.3948 29.8977 21.3948C29.7258 21.3948 29.5217 21.376 29.2854 21.3384C29.0544 21.3008 28.8127 21.231 28.5603 21.1289C28.3079 21.0322 28.0581 20.8926 27.811 20.71C27.564 20.5273 27.3438 20.291 27.1504 20.001C26.957 19.7109 26.7986 19.3591 26.675 18.9456C26.5569 18.5266 26.4978 18.0352 26.4978 17.4712ZM38.043 15.5054C37.9946 15.3066 37.9248 15.1375 37.8335 14.9978C37.7476 14.8582 37.6482 14.7427 37.5354 14.6514C37.428 14.5547 37.3125 14.4822 37.189 14.4338C37.0654 14.3801 36.9419 14.3398 36.8184 14.313C36.5283 14.2539 36.2195 14.2566 35.8918 14.321C35.7791 14.3586 35.6582 14.4177 35.5293 14.4983C35.4165 14.5735 35.2876 14.6755 35.1426 14.8044C34.9976 14.928 34.8418 15.0945 34.6753 15.304L34.8203 19.9768L36.2705 20.7019L32.0005 21.0806L33.1042 19.9607L33.5554 14.3533L31.8394 13.5718L34.6108 13.0481L34.6431 14.0552C34.8311 13.8296 35.0244 13.6443 35.2231 13.4993C35.4219 13.3542 35.6018 13.2361 35.7629 13.1448C35.9509 13.0427 36.1335 12.9648 36.3108 12.9111C36.6331 12.8359 36.9607 12.8064 37.2937 12.8225C37.4333 12.8279 37.5784 12.844 37.7288 12.8708C37.8845 12.8977 38.0403 12.9407 38.196 12.9998C38.3572 13.0535 38.5129 13.1287 38.6633 13.2253C38.8137 13.3167 38.9587 13.4321 39.0984 13.5718L38.043 15.5054ZM39.1145 21.0806L40.3794 20.0896L40.1055 14.5305L38.615 13.5557L42.0793 12.9675L41.459 19.429L43.1912 20.5085L39.1145 21.0806ZM42.168 11.0178C42.168 11.179 42.1357 11.332 42.0713 11.4771C42.0068 11.6167 41.9182 11.7429 41.8054 11.8557C41.6926 11.9631 41.5637 12.0491 41.4187 12.1135C41.2737 12.1726 41.1206 12.2021 40.9595 12.2021C40.7876 12.2021 40.6265 12.1726 40.4761 12.1135C40.3311 12.0491 40.2048 11.9631 40.0974 11.8557C39.99 11.7429 39.9041 11.6167 39.8396 11.4771C39.7751 11.332 39.7429 11.179 39.7429 11.0178C39.7429 10.8513 39.7751 10.6982 39.8396 10.5586C39.9041 10.4136 39.99 10.2874 40.0974 10.1799C40.2048 10.0725 40.3311 9.98926 40.4761 9.93018C40.6265 9.86572 40.7876 9.8335 40.9595 9.8335C41.1206 9.8335 41.2737 9.86572 41.4187 9.93018C41.5637 9.98926 41.6926 10.0725 41.8054 10.1799C41.9182 10.2874 42.0068 10.4136 42.0713 10.5586C42.1357 10.6982 42.168 10.8513 42.168 11.0178ZM50.8127 15.9968C50.8127 16.2976 50.7993 16.6145 50.7725 16.9475C50.7456 17.2805 50.7053 17.6135 50.6516 17.9465C50.5979 18.2795 50.5308 18.6045 50.4502 18.9214C50.375 19.2383 50.2864 19.5283 50.1843 19.7915L51.7715 20.3071L47.574 21.1289L49 20.0574C49.1128 19.6438 49.188 19.2463 49.2256 18.865C49.2686 18.4836 49.29 18.1238 49.29 17.7854C49.29 17.5813 49.282 17.3503 49.2659 17.0925C49.2551 16.8293 49.2256 16.5635 49.1772 16.2949C49.1343 16.0264 49.0698 15.7632 48.9839 15.5054C48.9033 15.2476 48.7959 15.0193 48.6616 14.8206C48.5273 14.6165 48.3608 14.4553 48.1621 14.3372C47.9688 14.2136 47.7351 14.1519 47.4612 14.1519C47.1443 14.1519 46.822 14.2566 46.4944 14.4661C46.1667 14.6755 45.8633 14.9844 45.584 15.3926V19.8479L46.9133 20.7986L42.9253 21.0806L43.9807 19.9124L44.5447 14.0552L42.8286 13.2092L45.584 12.9353V14.1519C45.7397 13.937 45.9116 13.7356 46.0996 13.5476C46.2876 13.3596 46.4863 13.1985 46.6958 13.0642C46.9053 12.9246 47.1228 12.8171 47.3484 12.7419C47.5793 12.6614 47.8157 12.6211 48.0574 12.6211C48.5247 12.6211 48.9302 12.707 49.2739 12.8789C49.6177 13.0508 49.9023 13.2898 50.1279 13.5959C50.3589 13.8967 50.5308 14.2539 50.6436 14.6675C50.7563 15.0757 50.8127 15.5188 50.8127 15.9968ZM60.7305 12.7017L59.1997 14.0391C59.2588 14.4849 59.3018 14.936 59.3286 15.3926C59.3608 15.8438 59.377 16.2949 59.377 16.7461C59.377 17.7881 59.3232 18.7522 59.2158 19.6384C59.1138 20.5193 58.9231 21.2793 58.6438 21.9185C58.3699 22.5576 57.9885 23.0571 57.4998 23.417C57.011 23.7769 56.3826 23.9568 55.6145 23.9568C55.4695 23.9568 55.3191 23.9353 55.1633 23.8923C55.0129 23.8547 54.8652 23.8037 54.7202 23.7393C54.5806 23.6748 54.4463 23.6023 54.3174 23.5217C54.1885 23.4412 54.073 23.3606 53.9709 23.28L53.0283 24.3354L52.8108 20.8389C53.0901 21.3384 53.3667 21.7278 53.6406 22.0071C53.9199 22.2917 54.1777 22.5039 54.4141 22.6436C54.6504 22.7886 54.8625 22.8772 55.0505 22.9094C55.2385 22.947 55.3835 22.9658 55.4856 22.9658C55.6145 22.9658 55.7461 22.9578 55.8804 22.9417C56.02 22.9309 56.1543 22.896 56.2832 22.8369C56.4175 22.7778 56.5464 22.6838 56.6699 22.5549C56.7988 22.4314 56.917 22.2595 57.0244 22.0393C57.1372 21.8191 57.2366 21.5398 57.3225 21.2014C57.4138 20.8684 57.489 20.4602 57.5481 19.9768C57.4192 20.1648 57.2769 20.342 57.1211 20.5085C56.9653 20.6697 56.7908 20.812 56.5974 20.9355C56.4094 21.0537 56.2053 21.1477 55.9851 21.2175C55.7649 21.2927 55.5259 21.3303 55.2681 21.3303C54.8545 21.3196 54.4597 21.2256 54.0837 21.0483C53.7131 20.8711 53.3855 20.6187 53.1008 20.291C52.8215 19.958 52.5986 19.5525 52.4321 19.0745C52.2656 18.5911 52.1824 18.0405 52.1824 17.4229C52.1824 16.6709 52.271 16.0103 52.4482 15.4409C52.6255 14.8716 52.8672 14.3962 53.1733 14.0149C53.4795 13.6335 53.8367 13.3516 54.2449 13.1689C54.6584 12.981 55.0989 12.895 55.5662 12.9111C56.0066 12.9326 56.3906 13.04 56.7183 13.2334C57.0459 13.4214 57.3225 13.655 57.5481 13.9343C57.5374 13.8054 57.5239 13.6711 57.5078 13.5315C57.4971 13.3918 57.4836 13.2468 57.4675 13.0964L60.7305 12.7017ZM57.6931 17.2537C57.6931 16.9368 57.6877 16.6199 57.677 16.303C57.6716 15.9807 57.6609 15.6423 57.6448 15.2878C57.5588 15.116 57.4595 14.9521 57.3467 14.7964C57.2393 14.6353 57.1184 14.4956 56.9841 14.3774C56.8552 14.2593 56.7156 14.1653 56.5652 14.0955C56.4202 14.0256 56.2644 13.9907 56.0979 13.9907C55.7273 13.9907 55.4104 14.082 55.1472 14.2646C54.8894 14.4473 54.6746 14.6997 54.5027 15.022C54.3362 15.3442 54.2126 15.7256 54.1321 16.166C54.0569 16.6064 54.0193 17.0845 54.0193 17.6001C54.0193 17.9814 54.0515 18.3386 54.116 18.6716C54.1804 18.9993 54.2744 19.2839 54.3979 19.5256C54.5215 19.7673 54.6772 19.958 54.8652 20.0977C55.0532 20.2373 55.2708 20.3071 55.5178 20.3071C55.5339 20.3071 55.5823 20.3044 55.6628 20.2991C55.7434 20.2883 55.8428 20.2642 55.9609 20.2266C56.0845 20.1836 56.2214 20.1245 56.3718 20.0493C56.5222 19.9741 56.6753 19.8694 56.8311 19.7351C56.9868 19.6008 57.1372 19.4343 57.2822 19.2356C57.4272 19.0315 57.5588 18.7844 57.677 18.4944C57.6877 18.3064 57.6931 18.1104 57.6931 17.9062C57.6931 17.6968 57.6931 17.4792 57.6931 17.2537ZM73.2263 13.5396L71.9373 10.7842L67.8284 11.5979L67.9814 14.5466H69.198L70.5354 12.605V17.5034L69.1335 15.3442L68.0298 15.4731L68.2473 19.5015L70.616 20.5085L64.4688 21.1611L66.217 19.5981L66.644 11.8718L64.4446 9.93018L73.2263 9.61597V13.5396ZM80.7593 13.1609L81.0735 20.0896L82.5237 20.7664L79.2205 21.3787L79.3735 19.0181C79.2231 19.335 79.0513 19.6384 78.8579 19.9285C78.6646 20.2131 78.447 20.4656 78.2053 20.6858C77.9636 20.9006 77.6978 21.0725 77.4077 21.2014C77.123 21.3303 76.8142 21.3948 76.4812 21.3948C76.0837 21.3948 75.7346 21.325 75.4338 21.1853C75.1331 21.0457 74.8806 20.855 74.6765 20.6133C74.4724 20.3662 74.3167 20.0789 74.2092 19.7512C74.1072 19.4182 74.0562 19.0637 74.0562 18.6877C74.0562 18.3386 74.083 17.9761 74.1367 17.6001C74.1904 17.2241 74.2629 16.8535 74.3542 16.4883C74.4509 16.1177 74.5637 15.7605 74.6926 15.4167C74.8269 15.0676 74.9719 14.7454 75.1277 14.45L73.4277 14.0552L76.6182 12.9675C76.4141 13.51 76.2556 14.031 76.1428 14.5305C76.0354 15.0247 75.9548 15.4651 75.9011 15.8518C75.842 16.303 75.8044 16.7219 75.7883 17.1086C75.7883 17.6082 75.8232 18.0405 75.8931 18.4058C75.9629 18.7656 76.0596 19.0664 76.1831 19.3081C76.3066 19.5444 76.4543 19.7217 76.6262 19.8398C76.7981 19.9526 76.9861 20.009 77.1902 20.009C77.5017 20.009 77.781 19.9258 78.0281 19.7593C78.2751 19.5928 78.4927 19.3699 78.6807 19.0906C78.874 18.8059 79.0378 18.4756 79.1721 18.0996C79.3118 17.7236 79.4246 17.3262 79.5105 16.9072C79.6018 16.4883 79.6689 16.0613 79.7119 15.6262C79.7549 15.1912 79.7791 14.7722 79.7844 14.3694L78.0361 13.1609H80.7593ZM89.9841 15.9968C89.9841 16.2976 89.9707 16.6145 89.9438 16.9475C89.917 17.2805 89.8767 17.6135 89.823 17.9465C89.7693 18.2795 89.7021 18.6045 89.6216 18.9214C89.5464 19.2383 89.4578 19.5283 89.3557 19.7915L90.9429 20.3071L86.7454 21.1289L88.1714 20.0574C88.2842 19.6438 88.3594 19.2463 88.397 18.865C88.4399 18.4836 88.4614 18.1238 88.4614 17.7854C88.4614 17.5813 88.4534 17.3503 88.4373 17.0925C88.4265 16.8293 88.397 16.5635 88.3486 16.2949C88.3057 16.0264 88.2412 15.7632 88.1553 15.5054C88.0747 15.2476 87.9673 15.0193 87.833 14.8206C87.6987 14.6165 87.5322 14.4553 87.3335 14.3372C87.1401 14.2136 86.9065 14.1519 86.6326 14.1519C86.3157 14.1519 85.9934 14.2566 85.6658 14.4661C85.3381 14.6755 85.0347 14.9844 84.7554 15.3926V19.8479L86.0847 20.7986L82.0967 21.0806L83.1521 19.9124L83.7161 14.0552L82 13.2092L84.7554 12.9353V14.1519C84.9111 13.937 85.083 13.7356 85.271 13.5476C85.459 13.3596 85.6577 13.1985 85.8672 13.0642C86.0767 12.9246 86.2942 12.8171 86.5198 12.7419C86.7507 12.6614 86.9871 12.6211 87.2288 12.6211C87.696 12.6211 88.1016 12.707 88.4453 12.8789C88.7891 13.0508 89.0737 13.2898 89.2993 13.5959C89.5303 13.8967 89.7021 14.2539 89.8149 14.6675C89.9277 15.0757 89.9841 15.5188 89.9841 15.9968ZM95.1646 12.9514C95.6157 12.9514 96.0239 13.0508 96.3892 13.2495C96.7598 13.4429 97.0579 13.7061 97.2834 14.0391L98.9109 12.3875L97.5735 16.7461C97.5251 16.2949 97.45 15.9136 97.3479 15.6021C97.2458 15.2852 97.1277 15.0247 96.9934 14.8206C96.8645 14.6111 96.7275 14.45 96.5825 14.3372C96.4429 14.2244 96.3113 14.1411 96.1877 14.0874C96.0696 14.0337 95.9648 14.0015 95.8735 13.9907C95.7876 13.98 95.7339 13.9746 95.7124 13.9746C95.3257 13.9746 94.9766 14.0498 94.665 14.2002C94.3535 14.3506 94.085 14.5708 93.8594 14.8608C93.6392 15.1509 93.47 15.5081 93.3518 15.9324C93.2336 16.3513 93.1746 16.8293 93.1746 17.3665C93.1746 17.8821 93.2363 18.3386 93.3599 18.7361C93.4834 19.1282 93.6472 19.4585 93.8513 19.7271C94.0554 19.9956 94.2891 20.1997 94.5522 20.3394C94.8154 20.4736 95.0867 20.5408 95.366 20.5408C95.6936 20.5408 95.9971 20.4683 96.2764 20.3232C96.5557 20.1729 96.7947 19.9768 96.9934 19.7351C97.1921 19.4934 97.3398 19.2168 97.4365 18.9053C97.5386 18.5884 97.5735 18.2634 97.5413 17.9304C97.6057 17.9895 97.6729 18.062 97.7427 18.1479C97.8179 18.2339 97.885 18.3306 97.9441 18.438C98.0085 18.54 98.0596 18.6528 98.0972 18.7764C98.1348 18.8945 98.1536 19.0154 98.1536 19.1389C98.1536 19.5042 98.0649 19.8345 97.8877 20.1299C97.7158 20.4199 97.4929 20.667 97.219 20.8711C96.9451 21.0752 96.6362 21.231 96.2925 21.3384C95.9487 21.4512 95.6077 21.5076 95.2693 21.5076C95.1243 21.5076 94.9255 21.4915 94.6731 21.4592C94.426 21.427 94.1548 21.3599 93.8594 21.2578C93.5693 21.1611 93.2739 21.0188 92.9731 20.8308C92.6724 20.6428 92.3984 20.3931 92.1514 20.0815C91.9097 19.77 91.7109 19.386 91.5552 18.9294C91.3994 18.4729 91.3215 17.925 91.3215 17.2859C91.3215 16.7166 91.386 16.2144 91.5149 15.7793C91.6492 15.3389 91.8237 14.9575 92.0386 14.6353C92.2588 14.313 92.5059 14.0444 92.7798 13.8296C93.0537 13.6147 93.333 13.4429 93.6177 13.314C93.9023 13.1851 94.179 13.0938 94.4475 13.04C94.7214 12.981 94.9604 12.9514 95.1646 12.9514ZM99.8938 17.4712C99.8938 16.9663 99.9448 16.4641 100.047 15.9646C100.154 15.4597 100.27 14.9978 100.393 14.5789L98.9995 14.6675L102.931 10.3733C102.62 11.3562 102.367 12.2424 102.174 13.032L105.308 13.2979L104.897 14.2646L101.86 14.4822C101.784 14.8743 101.725 15.2234 101.682 15.5295C101.645 15.8303 101.613 16.0854 101.586 16.2949C101.559 16.542 101.54 16.7568 101.529 16.9395C101.529 17.4766 101.562 17.96 101.626 18.3896C101.69 18.8193 101.79 19.1873 101.924 19.4934C102.064 19.7942 102.238 20.0278 102.448 20.1943C102.663 20.3555 102.918 20.436 103.213 20.436C103.487 20.436 103.715 20.3823 103.898 20.2749C104.086 20.1621 104.236 20.0198 104.349 19.8479C104.462 19.6707 104.542 19.4746 104.591 19.2598C104.639 19.0396 104.663 18.822 104.663 18.6072C104.663 18.4084 104.647 18.2151 104.615 18.0271C104.846 18.1453 105.021 18.3359 105.139 18.5991C105.262 18.8569 105.324 19.1389 105.324 19.4451C105.324 19.762 105.27 20.0413 105.163 20.283C105.061 20.5247 104.918 20.7288 104.736 20.8953C104.553 21.0564 104.338 21.1799 104.091 21.2659C103.844 21.3518 103.578 21.3948 103.294 21.3948C103.122 21.3948 102.918 21.376 102.681 21.3384C102.45 21.3008 102.209 21.231 101.956 21.1289C101.704 21.0322 101.454 20.8926 101.207 20.71C100.96 20.5273 100.74 20.291 100.546 20.001C100.353 19.7109 100.195 19.3591 100.071 18.9456C99.9529 18.5266 99.8938 18.0352 99.8938 17.4712ZM105.662 21.0806L106.927 20.0896L106.653 14.5305L105.163 13.5557L108.627 12.9675L108.007 19.429L109.739 20.5085L105.662 21.0806ZM108.716 11.0178C108.716 11.179 108.684 11.332 108.619 11.4771C108.555 11.6167 108.466 11.7429 108.353 11.8557C108.24 11.9631 108.112 12.0491 107.967 12.1135C107.822 12.1726 107.668 12.2021 107.507 12.2021C107.335 12.2021 107.174 12.1726 107.024 12.1135C106.879 12.0491 106.753 11.9631 106.645 11.8557C106.538 11.7429 106.452 11.6167 106.387 11.4771C106.323 11.332 106.291 11.179 106.291 11.0178C106.291 10.8513 106.323 10.6982 106.387 10.5586C106.452 10.4136 106.538 10.2874 106.645 10.1799C106.753 10.0725 106.879 9.98926 107.024 9.93018C107.174 9.86572 107.335 9.8335 107.507 9.8335C107.668 9.8335 107.822 9.86572 107.967 9.93018C108.112 9.98926 108.24 10.0725 108.353 10.1799C108.466 10.2874 108.555 10.4136 108.619 10.5586C108.684 10.6982 108.716 10.8513 108.716 11.0178ZM109.916 16.9556C109.916 16.354 110.01 15.7981 110.198 15.2878C110.392 14.7722 110.657 14.3264 110.996 13.9504C111.34 13.5745 111.745 13.2817 112.212 13.0723C112.685 12.8574 113.201 12.75 113.759 12.75C114.302 12.75 114.799 12.8521 115.25 13.0562C115.701 13.2549 116.093 13.5369 116.426 13.9021C116.759 14.2673 117.025 14.7051 117.224 15.2153C117.422 15.7256 117.541 16.2896 117.578 16.9072C117.616 17.5679 117.546 18.1667 117.369 18.7039C117.197 19.2356 116.942 19.6895 116.603 20.0654C116.265 20.436 115.859 20.7234 115.387 20.9275C114.919 21.1316 114.412 21.2336 113.864 21.2336C113.338 21.2336 112.835 21.1396 112.357 20.9517C111.885 20.7583 111.466 20.479 111.101 20.1138C110.741 19.7485 110.453 19.3027 110.239 18.7764C110.024 18.2446 109.916 17.6377 109.916 16.9556ZM111.898 17.0925C111.898 17.5652 111.965 17.9922 112.1 18.3735C112.234 18.7549 112.414 19.0798 112.639 19.3484C112.865 19.6116 113.125 19.8157 113.421 19.9607C113.716 20.1057 114.028 20.1782 114.355 20.1782C114.683 20.1782 114.989 20.1084 115.274 19.9688C115.559 19.8237 115.806 19.6223 116.015 19.3645C116.225 19.1013 116.388 18.7871 116.507 18.4219C116.625 18.0566 116.684 17.6511 116.684 17.2053C116.684 16.7649 116.625 16.3513 116.507 15.9646C116.388 15.5725 116.222 15.2314 116.007 14.9414C115.798 14.6514 115.548 14.4231 115.258 14.2566C114.968 14.0901 114.651 14.0068 114.307 14.0068C114.001 14.0068 113.703 14.0767 113.413 14.2163C113.128 14.356 112.873 14.5601 112.647 14.8286C112.422 15.0918 112.239 15.4141 112.1 15.7954C111.965 16.1768 111.898 16.6091 111.898 17.0925ZM125.852 15.9968C125.852 16.2976 125.839 16.6145 125.812 16.9475C125.785 17.2805 125.745 17.6135 125.691 17.9465C125.637 18.2795 125.57 18.6045 125.49 18.9214C125.415 19.2383 125.326 19.5283 125.224 19.7915L126.811 20.3071L122.614 21.1289L124.04 20.0574C124.152 19.6438 124.228 19.2463 124.265 18.865C124.308 18.4836 124.33 18.1238 124.33 17.7854C124.33 17.5813 124.322 17.3503 124.305 17.0925C124.295 16.8293 124.265 16.5635 124.217 16.2949C124.174 16.0264 124.109 15.7632 124.023 15.5054C123.943 15.2476 123.835 15.0193 123.701 14.8206C123.567 14.6165 123.4 14.4553 123.202 14.3372C123.008 14.2136 122.775 14.1519 122.501 14.1519C122.184 14.1519 121.862 14.2566 121.534 14.4661C121.206 14.6755 120.903 14.9844 120.624 15.3926V19.8479L121.953 20.7986L117.965 21.0806L119.02 19.9124L119.584 14.0552L117.868 13.2092L120.624 12.9353V14.1519C120.779 13.937 120.951 13.7356 121.139 13.5476C121.327 13.3596 121.526 13.1985 121.735 13.0642C121.945 12.9246 122.162 12.8171 122.388 12.7419C122.619 12.6614 122.855 12.6211 123.097 12.6211C123.564 12.6211 123.97 12.707 124.313 12.8789C124.657 13.0508 124.942 13.2898 125.167 13.5959C125.398 13.8967 125.57 14.2539 125.683 14.6675C125.796 15.0757 125.852 15.5188 125.852 15.9968ZM130.34 12.7983C130.544 12.7983 130.751 12.8171 130.96 12.8547C131.17 12.887 131.374 12.938 131.573 13.0078C131.777 13.0723 131.967 13.1528 132.145 13.2495C132.327 13.3408 132.491 13.4429 132.636 13.5557L133.957 11.9282L133.361 15.9485C133.297 15.6692 133.184 15.3953 133.023 15.1267C132.862 14.8528 132.66 14.6084 132.418 14.3936C132.182 14.1787 131.908 14.0068 131.597 13.8779C131.285 13.7437 130.944 13.6765 130.573 13.6765C130.369 13.6765 130.173 13.7007 129.985 13.749C129.797 13.792 129.631 13.8645 129.486 13.9666C129.346 14.0686 129.233 14.1975 129.147 14.3533C129.067 14.509 129.027 14.6943 129.027 14.9092C129.027 15.167 129.096 15.3765 129.236 15.5376C129.381 15.6987 129.569 15.8357 129.8 15.9485C130.031 16.0559 130.294 16.1499 130.59 16.2305C130.885 16.3057 131.188 16.3862 131.5 16.4722C131.812 16.5581 132.115 16.6602 132.41 16.7783C132.706 16.8911 132.969 17.0388 133.2 17.2214C133.431 17.4041 133.616 17.6323 133.756 17.9062C133.901 18.1748 133.973 18.5078 133.973 18.9053C133.973 19.3511 133.885 19.7324 133.708 20.0493C133.536 20.3608 133.313 20.6187 133.039 20.8228C132.765 21.0215 132.461 21.1665 132.128 21.2578C131.795 21.3491 131.47 21.3948 131.154 21.3948C130.896 21.3948 130.638 21.3679 130.38 21.3142C130.122 21.2605 129.873 21.1853 129.631 21.0886C129.389 20.9919 129.158 20.8765 128.938 20.7422C128.723 20.6079 128.527 20.4629 128.35 20.3071L127.125 21.9426L127.504 17.9465C127.676 18.3118 127.883 18.6528 128.124 18.9697C128.366 19.2866 128.635 19.5632 128.93 19.7996C129.225 20.0305 129.542 20.2131 129.881 20.3474C130.219 20.4763 130.571 20.5408 130.936 20.5408C131.36 20.5408 131.699 20.4521 131.951 20.2749C132.209 20.0923 132.338 19.8345 132.338 19.5015C132.338 19.2866 132.265 19.1094 132.12 18.9697C131.981 18.8247 131.793 18.6985 131.556 18.5911C131.325 18.4836 131.062 18.387 130.767 18.301C130.471 18.2151 130.168 18.1211 129.856 18.019C129.545 17.917 129.241 17.7988 128.946 17.6646C128.651 17.5249 128.385 17.353 128.148 17.1489C127.917 16.9395 127.729 16.687 127.584 16.3916C127.445 16.0908 127.375 15.7283 127.375 15.304C127.375 14.9387 127.429 14.6218 127.536 14.3533C127.644 14.0847 127.783 13.8591 127.955 13.6765C128.132 13.4885 128.328 13.3381 128.543 13.2253C128.763 13.1072 128.984 13.0186 129.204 12.9595C129.424 12.895 129.634 12.8521 129.832 12.8306C130.031 12.8091 130.2 12.7983 130.34 12.7983Z" fill="#BD1313"/>
<rect x="1" y="1" width="148" height="28" rx="4" stroke="url(#paint0_linear)" stroke-width="2"/>
<defs>
<linearGradient id="paint0_linear" x1="70" y1="-5.00002" x2="380" y2="80" gradientUnits="userSpaceOnUse">
<stop stop-color="#F4EB11"/>
<stop offset="0.742956" stop-color="#7C0000"/>
<stop offset="0.743056" stop-color="#DD9539" stop-opacity="0"/>
</linearGradient>
</defs>
</svg>
