<svg width="150" height="30" viewBox="0 0 150 30" fill="none" xmlns="http://www.w3.org/2000/svg">
<path d="M15.8252 10.0996C16.2236 10.0996 16.6045 10.1377 16.9678 10.2139C17.3369 10.2842 17.6797 10.3809 17.9961 10.5039C18.3125 10.6211 18.5996 10.7559 18.8574 10.9082C19.1152 11.0605 19.335 11.2129 19.5166 11.3652L21.8018 9.79199L19.1738 14.8369L18.9717 12.1914C18.8018 12.0742 18.6172 11.9717 18.418 11.8838C18.2246 11.79 18.0283 11.7139 17.8291 11.6553C17.6357 11.5908 17.4482 11.541 17.2666 11.5059C17.085 11.4648 16.9238 11.4326 16.7832 11.4092C16.6426 11.3857 16.5283 11.3711 16.4404 11.3652C16.3584 11.3535 16.3145 11.3477 16.3086 11.3477C15.9102 11.3477 15.5762 11.3916 15.3066 11.4795C15.0371 11.5674 14.8174 11.6816 14.6475 11.8223C14.4834 11.9629 14.3633 12.124 14.2871 12.3057C14.2168 12.4814 14.1816 12.6602 14.1816 12.8418C14.1816 13.2109 14.2578 13.5244 14.4102 13.7822C14.5625 14.0342 14.7939 14.2598 15.1045 14.459C15.415 14.6582 15.8105 14.8457 16.291 15.0215C16.7715 15.1914 17.3369 15.376 17.9873 15.5752C18.3799 15.6982 18.749 15.8652 19.0947 16.0762C19.4463 16.2812 19.751 16.5244 20.0088 16.8057C20.2666 17.0811 20.4688 17.3916 20.6152 17.7373C20.7676 18.0771 20.8438 18.4434 20.8438 18.8359C20.8438 19.293 20.7793 19.7002 20.6504 20.0576C20.5215 20.4092 20.3486 20.7197 20.1318 20.9893C19.9209 21.2529 19.6748 21.4785 19.3936 21.666C19.1123 21.8477 18.8193 21.9941 18.5146 22.1055C18.2158 22.2227 17.9111 22.3047 17.6006 22.3516C17.2959 22.4043 17.0088 22.4307 16.7393 22.4307C15.9482 22.4307 15.2305 22.2959 14.5859 22.0264C13.9414 21.7568 13.3408 21.3877 12.7842 20.9189L10.499 22.4834L13.0479 17.9658C13.1182 18.3877 13.2412 18.7949 13.417 19.1875C13.5986 19.5742 13.8213 19.9199 14.085 20.2246C14.3486 20.5293 14.6533 20.7725 14.999 20.9541C15.3447 21.1357 15.7227 21.2266 16.1328 21.2266C16.4609 21.2266 16.7598 21.1768 17.0293 21.0771C17.3047 20.9775 17.5391 20.8457 17.7324 20.6816C17.9258 20.5117 18.0752 20.3184 18.1807 20.1016C18.292 19.8789 18.3477 19.6475 18.3477 19.4072C18.3477 19.0732 18.2539 18.7861 18.0664 18.5459C17.8789 18.2998 17.6328 18.083 17.3281 17.8955C17.0234 17.7021 16.6748 17.5264 16.2822 17.3682C15.8955 17.2041 15.4971 17.0371 15.0869 16.8672C14.6768 16.6973 14.2754 16.5098 13.8828 16.3047C13.4961 16.0996 13.1504 15.8594 12.8457 15.584C12.541 15.3027 12.2949 14.9746 12.1074 14.5996C11.9199 14.2246 11.8262 13.7822 11.8262 13.2725C11.8262 12.8799 11.9023 12.4961 12.0547 12.1211C12.2129 11.7402 12.4531 11.4004 12.7754 11.1016C13.1035 10.8027 13.5195 10.5625 14.0234 10.3809C14.5273 10.1934 15.1279 10.0996 15.8252 10.0996ZM22.4521 18.1504C22.4521 17.5996 22.5078 17.0518 22.6191 16.5068C22.7363 15.9561 22.8623 15.4521 22.9971 14.9951L21.4766 15.0918L25.7656 10.4072C25.4258 11.4795 25.1504 12.4463 24.9395 13.3076L28.3584 13.5977L27.9102 14.6523L24.5967 14.8896C24.5146 15.3174 24.4502 15.6982 24.4033 16.0322C24.3623 16.3604 24.3271 16.6387 24.2979 16.8672C24.2686 17.1367 24.248 17.3711 24.2363 17.5703C24.2363 18.1562 24.2715 18.6836 24.3418 19.1523C24.4121 19.6211 24.5205 20.0225 24.667 20.3564C24.8193 20.6846 25.0098 20.9395 25.2383 21.1211C25.4727 21.2969 25.751 21.3848 26.0732 21.3848C26.3721 21.3848 26.6211 21.3262 26.8203 21.209C27.0254 21.0859 27.1895 20.9307 27.3125 20.7432C27.4355 20.5498 27.5234 20.3359 27.5762 20.1016C27.6289 19.8613 27.6553 19.624 27.6553 19.3896C27.6553 19.1729 27.6377 18.9619 27.6025 18.7568C27.8545 18.8857 28.0449 19.0938 28.1738 19.3809C28.3086 19.6621 28.376 19.9697 28.376 20.3037C28.376 20.6494 28.3174 20.9541 28.2002 21.2178C28.0889 21.4814 27.9336 21.7041 27.7344 21.8857C27.5352 22.0615 27.3008 22.1963 27.0312 22.29C26.7617 22.3838 26.4717 22.4307 26.1611 22.4307C25.9736 22.4307 25.751 22.4102 25.4932 22.3691C25.2412 22.3281 24.9775 22.252 24.7021 22.1406C24.4268 22.0352 24.1543 21.8828 23.8848 21.6836C23.6152 21.4844 23.375 21.2266 23.1641 20.9102C22.9531 20.5938 22.7803 20.21 22.6455 19.7588C22.5166 19.3018 22.4521 18.7656 22.4521 18.1504ZM35.0469 16.0059C34.9941 15.7891 34.918 15.6045 34.8184 15.4521C34.7246 15.2998 34.6162 15.1738 34.4932 15.0742C34.376 14.9688 34.25 14.8896 34.1152 14.8369C33.9805 14.7783 33.8457 14.7344 33.7109 14.7051C33.3945 14.6406 33.0576 14.6436 32.7002 14.7139C32.5771 14.7549 32.4453 14.8193 32.3047 14.9072C32.1816 14.9893 32.041 15.1006 31.8828 15.2412C31.7246 15.376 31.5547 15.5576 31.373 15.7861L31.5312 20.8838L33.1133 21.6748L28.4551 22.0879L29.6592 20.8662L30.1514 14.749L28.2793 13.8965L31.3027 13.3252L31.3379 14.4238C31.543 14.1777 31.7539 13.9756 31.9707 13.8174C32.1875 13.6592 32.3838 13.5303 32.5596 13.4307C32.7646 13.3193 32.9639 13.2344 33.1572 13.1758C33.5088 13.0938 33.8662 13.0615 34.2295 13.0791C34.3818 13.085 34.54 13.1025 34.7041 13.1318C34.874 13.1611 35.0439 13.208 35.2139 13.2725C35.3896 13.3311 35.5596 13.4131 35.7236 13.5186C35.8877 13.6182 36.0459 13.7441 36.1982 13.8965L35.0469 16.0059ZM36.2158 22.0879L37.5957 21.0068L37.2969 14.9424L35.6709 13.8789L39.4502 13.2373L38.7734 20.2861L40.6631 21.4639L36.2158 22.0879ZM39.5469 11.1104C39.5469 11.2861 39.5117 11.4531 39.4414 11.6113C39.3711 11.7637 39.2744 11.9014 39.1514 12.0244C39.0283 12.1416 38.8877 12.2354 38.7295 12.3057C38.5713 12.3701 38.4043 12.4023 38.2285 12.4023C38.041 12.4023 37.8652 12.3701 37.7012 12.3057C37.543 12.2354 37.4053 12.1416 37.2881 12.0244C37.1709 11.9014 37.0771 11.7637 37.0068 11.6113C36.9365 11.4531 36.9014 11.2861 36.9014 11.1104C36.9014 10.9287 36.9365 10.7617 37.0068 10.6094C37.0771 10.4512 37.1709 10.3135 37.2881 10.1963C37.4053 10.0791 37.543 9.98828 37.7012 9.92383C37.8652 9.85352 38.041 9.81836 38.2285 9.81836C38.4043 9.81836 38.5713 9.85352 38.7295 9.92383C38.8877 9.98828 39.0283 10.0791 39.1514 10.1963C39.2744 10.3135 39.3711 10.4512 39.4414 10.6094C39.5117 10.7617 39.5469 10.9287 39.5469 11.1104ZM48.9775 16.542C48.9775 16.8701 48.9629 17.2158 48.9336 17.5791C48.9043 17.9424 48.8604 18.3057 48.8018 18.6689C48.7432 19.0322 48.6699 19.3867 48.582 19.7324C48.5 20.0781 48.4033 20.3945 48.292 20.6816L50.0234 21.2441L45.4443 22.1406L47 20.9717C47.123 20.5205 47.2051 20.0869 47.2461 19.6709C47.293 19.2549 47.3164 18.8623 47.3164 18.4932C47.3164 18.2705 47.3076 18.0186 47.29 17.7373C47.2783 17.4502 47.2461 17.1602 47.1934 16.8672C47.1465 16.5742 47.0762 16.2871 46.9824 16.0059C46.8945 15.7246 46.7773 15.4756 46.6309 15.2588C46.4844 15.0361 46.3027 14.8604 46.0859 14.7314C45.875 14.5967 45.6201 14.5293 45.3213 14.5293C44.9756 14.5293 44.624 14.6436 44.2666 14.8721C43.9092 15.1006 43.5781 15.4375 43.2734 15.8828V20.7432L44.7236 21.7803L40.373 22.0879L41.5244 20.8135L42.1396 14.4238L40.2676 13.501L43.2734 13.2021V14.5293C43.4434 14.2949 43.6309 14.0752 43.8359 13.8701C44.041 13.665 44.2578 13.4893 44.4863 13.3428C44.7148 13.1904 44.9521 13.0732 45.1982 12.9912C45.4502 12.9033 45.708 12.8594 45.9717 12.8594C46.4814 12.8594 46.9238 12.9531 47.2988 13.1406C47.6738 13.3281 47.9844 13.5889 48.2305 13.9229C48.4824 14.251 48.6699 14.6406 48.793 15.0918C48.916 15.5371 48.9775 16.0205 48.9775 16.542ZM59.7969 12.9473L58.127 14.4062C58.1914 14.8926 58.2383 15.3848 58.2676 15.8828C58.3027 16.375 58.3203 16.8672 58.3203 17.3594C58.3203 18.4961 58.2617 19.5479 58.1445 20.5146C58.0332 21.4756 57.8252 22.3047 57.5205 23.002C57.2217 23.6992 56.8057 24.2441 56.2725 24.6367C55.7393 25.0293 55.0537 25.2256 54.2158 25.2256C54.0576 25.2256 53.8936 25.2021 53.7236 25.1553C53.5596 25.1143 53.3984 25.0586 53.2402 24.9883C53.0879 24.918 52.9414 24.8389 52.8008 24.751C52.6602 24.6631 52.5342 24.5752 52.4229 24.4873L51.3945 25.6387L51.1572 21.8242C51.4619 22.3691 51.7637 22.7939 52.0625 23.0986C52.3672 23.4092 52.6484 23.6406 52.9062 23.793C53.1641 23.9512 53.3955 24.0479 53.6006 24.083C53.8057 24.124 53.9639 24.1445 54.0752 24.1445C54.2158 24.1445 54.3594 24.1357 54.5059 24.1182C54.6582 24.1064 54.8047 24.0684 54.9453 24.0039C55.0918 23.9395 55.2324 23.8369 55.3672 23.6963C55.5078 23.5615 55.6367 23.374 55.7539 23.1338C55.877 22.8936 55.9854 22.5889 56.0791 22.2197C56.1787 21.8564 56.2607 21.4111 56.3252 20.8838C56.1846 21.0889 56.0293 21.2822 55.8594 21.4639C55.6895 21.6396 55.499 21.7949 55.2881 21.9297C55.083 22.0586 54.8604 22.1611 54.6201 22.2373C54.3799 22.3193 54.1191 22.3604 53.8379 22.3604C53.3867 22.3486 52.9561 22.2461 52.5459 22.0527C52.1416 21.8594 51.7842 21.584 51.4736 21.2266C51.1689 20.8633 50.9258 20.4209 50.7441 19.8994C50.5625 19.3721 50.4717 18.7715 50.4717 18.0977C50.4717 17.2773 50.5684 16.5566 50.7617 15.9355C50.9551 15.3145 51.2188 14.7959 51.5527 14.3799C51.8867 13.9639 52.2764 13.6562 52.7217 13.457C53.1729 13.252 53.6533 13.1582 54.1631 13.1758C54.6436 13.1992 55.0625 13.3164 55.4199 13.5273C55.7773 13.7324 56.0791 13.9873 56.3252 14.292C56.3135 14.1514 56.2988 14.0049 56.2812 13.8525C56.2695 13.7002 56.2549 13.542 56.2373 13.3779L59.7969 12.9473ZM56.4834 17.9131C56.4834 17.5674 56.4775 17.2217 56.4658 16.876C56.46 16.5244 56.4482 16.1553 56.4307 15.7686C56.3369 15.5811 56.2285 15.4023 56.1055 15.2324C55.9883 15.0566 55.8564 14.9043 55.71 14.7754C55.5693 14.6465 55.417 14.5439 55.2529 14.4678C55.0947 14.3916 54.9248 14.3535 54.7432 14.3535C54.3389 14.3535 53.9932 14.4531 53.7061 14.6523C53.4248 14.8516 53.1904 15.127 53.0029 15.4785C52.8213 15.8301 52.6865 16.2461 52.5986 16.7266C52.5166 17.207 52.4756 17.7285 52.4756 18.291C52.4756 18.707 52.5107 19.0967 52.5811 19.46C52.6514 19.8174 52.7539 20.1279 52.8887 20.3916C53.0234 20.6553 53.1934 20.8633 53.3984 21.0156C53.6035 21.168 53.8408 21.2441 54.1104 21.2441C54.1279 21.2441 54.1807 21.2412 54.2686 21.2354C54.3564 21.2236 54.4648 21.1973 54.5938 21.1562C54.7285 21.1094 54.8779 21.0449 55.042 20.9629C55.2061 20.8809 55.373 20.7666 55.543 20.6201C55.7129 20.4736 55.877 20.292 56.0352 20.0752C56.1934 19.8525 56.3369 19.583 56.4658 19.2666C56.4775 19.0615 56.4834 18.8477 56.4834 18.625C56.4834 18.3965 56.4834 18.1592 56.4834 17.9131ZM73.4287 13.8613L72.0225 10.8555L67.54 11.7432L67.707 14.96H69.0342L70.4932 12.8418V18.1855L68.9639 15.8301L67.7598 15.9707L67.9971 20.3652L70.5811 21.4639L63.875 22.1758L65.7822 20.4707L66.248 12.042L63.8486 9.92383L73.4287 9.58105V13.8613ZM81.6465 13.4482L81.9893 21.0068L83.5713 21.7451L79.9678 22.4131L80.1348 19.8379C79.9707 20.1836 79.7832 20.5146 79.5723 20.8311C79.3613 21.1416 79.124 21.417 78.8604 21.6572C78.5967 21.8916 78.3066 22.0791 77.9902 22.2197C77.6797 22.3604 77.3428 22.4307 76.9795 22.4307C76.5459 22.4307 76.165 22.3545 75.8369 22.2021C75.5088 22.0498 75.2334 21.8418 75.0107 21.5781C74.7881 21.3086 74.6182 20.9951 74.501 20.6377C74.3896 20.2744 74.334 19.8877 74.334 19.4775C74.334 19.0967 74.3633 18.7012 74.4219 18.291C74.4805 17.8809 74.5596 17.4766 74.6592 17.0781C74.7646 16.6738 74.8877 16.2842 75.0283 15.9092C75.1748 15.5283 75.333 15.1768 75.5029 14.8545L73.6484 14.4238L77.1289 13.2373C76.9062 13.8291 76.7334 14.3975 76.6104 14.9424C76.4932 15.4814 76.4053 15.9619 76.3467 16.3838C76.2822 16.876 76.2412 17.333 76.2236 17.7549C76.2236 18.2998 76.2617 18.7715 76.3379 19.1699C76.4141 19.5625 76.5195 19.8906 76.6543 20.1543C76.7891 20.4121 76.9502 20.6055 77.1377 20.7344C77.3252 20.8574 77.5303 20.9189 77.7529 20.9189C78.0928 20.9189 78.3975 20.8281 78.667 20.6465C78.9365 20.4648 79.1738 20.2217 79.3789 19.917C79.5898 19.6064 79.7686 19.2461 79.915 18.8359C80.0674 18.4258 80.1904 17.9922 80.2842 17.5352C80.3838 17.0781 80.457 16.6123 80.5039 16.1377C80.5508 15.6631 80.5771 15.2061 80.583 14.7666L78.6758 13.4482H81.6465ZM91.71 16.542C91.71 16.8701 91.6953 17.2158 91.666 17.5791C91.6367 17.9424 91.5928 18.3057 91.5342 18.6689C91.4756 19.0322 91.4023 19.3867 91.3145 19.7324C91.2324 20.0781 91.1357 20.3945 91.0244 20.6816L92.7559 21.2441L88.1768 22.1406L89.7324 20.9717C89.8555 20.5205 89.9375 20.0869 89.9785 19.6709C90.0254 19.2549 90.0488 18.8623 90.0488 18.4932C90.0488 18.2705 90.04 18.0186 90.0225 17.7373C90.0107 17.4502 89.9785 17.1602 89.9258 16.8672C89.8789 16.5742 89.8086 16.2871 89.7148 16.0059C89.627 15.7246 89.5098 15.4756 89.3633 15.2588C89.2168 15.0361 89.0352 14.8604 88.8184 14.7314C88.6074 14.5967 88.3525 14.5293 88.0537 14.5293C87.708 14.5293 87.3564 14.6436 86.999 14.8721C86.6416 15.1006 86.3105 15.4375 86.0059 15.8828V20.7432L87.4561 21.7803L83.1055 22.0879L84.2568 20.8135L84.8721 14.4238L83 13.501L86.0059 13.2021V14.5293C86.1758 14.2949 86.3633 14.0752 86.5684 13.8701C86.7734 13.665 86.9902 13.4893 87.2188 13.3428C87.4473 13.1904 87.6846 13.0732 87.9307 12.9912C88.1826 12.9033 88.4404 12.8594 88.7041 12.8594C89.2139 12.8594 89.6562 12.9531 90.0312 13.1406C90.4062 13.3281 90.7168 13.5889 90.9629 13.9229C91.2148 14.251 91.4023 14.6406 91.5254 15.0918C91.6484 15.5371 91.71 16.0205 91.71 16.542ZM97.3613 13.2197C97.8535 13.2197 98.2988 13.3281 98.6973 13.5449C99.1016 13.7559 99.4268 14.043 99.6729 14.4062L101.448 12.6045L99.9893 17.3594C99.9365 16.8672 99.8545 16.4512 99.7432 16.1113C99.6318 15.7656 99.5029 15.4814 99.3564 15.2588C99.2158 15.0303 99.0664 14.8545 98.9082 14.7314C98.7559 14.6084 98.6123 14.5176 98.4775 14.459C98.3486 14.4004 98.2344 14.3652 98.1348 14.3535C98.041 14.3418 97.9824 14.3359 97.959 14.3359C97.5371 14.3359 97.1562 14.418 96.8164 14.582C96.4766 14.7461 96.1836 14.9863 95.9375 15.3027C95.6973 15.6191 95.5127 16.0088 95.3838 16.4717C95.2549 16.9287 95.1904 17.4502 95.1904 18.0361C95.1904 18.5986 95.2578 19.0967 95.3926 19.5303C95.5273 19.958 95.7061 20.3184 95.9287 20.6113C96.1514 20.9043 96.4062 21.127 96.6934 21.2793C96.9805 21.4258 97.2764 21.499 97.5811 21.499C97.9385 21.499 98.2695 21.4199 98.5742 21.2617C98.8789 21.0977 99.1396 20.8838 99.3564 20.6201C99.5732 20.3564 99.7344 20.0547 99.8398 19.7148C99.9512 19.3691 99.9893 19.0146 99.9541 18.6514C100.024 18.7158 100.098 18.7949 100.174 18.8887C100.256 18.9824 100.329 19.0879 100.394 19.2051C100.464 19.3164 100.52 19.4395 100.561 19.5742C100.602 19.7031 100.622 19.835 100.622 19.9697C100.622 20.3682 100.525 20.7285 100.332 21.0508C100.145 21.3672 99.9014 21.6367 99.6025 21.8594C99.3037 22.082 98.9668 22.252 98.5918 22.3691C98.2168 22.4922 97.8447 22.5537 97.4756 22.5537C97.3174 22.5537 97.1006 22.5361 96.8252 22.501C96.5557 22.4658 96.2598 22.3926 95.9375 22.2812C95.6211 22.1758 95.2988 22.0205 94.9707 21.8154C94.6426 21.6104 94.3438 21.3379 94.0742 20.998C93.8105 20.6582 93.5938 20.2393 93.4238 19.7412C93.2539 19.2432 93.1689 18.6455 93.1689 17.9482C93.1689 17.3271 93.2393 16.7793 93.3799 16.3047C93.5264 15.8242 93.7168 15.4082 93.9512 15.0566C94.1914 14.7051 94.4609 14.4121 94.7598 14.1777C95.0586 13.9434 95.3633 13.7559 95.6738 13.6152C95.9844 13.4746 96.2861 13.375 96.5791 13.3164C96.8779 13.252 97.1387 13.2197 97.3613 13.2197ZM102.521 18.1504C102.521 17.5996 102.576 17.0518 102.688 16.5068C102.805 15.9561 102.931 15.4521 103.065 14.9951L101.545 15.0918L105.834 10.4072C105.494 11.4795 105.219 12.4463 105.008 13.3076L108.427 13.5977L107.979 14.6523L104.665 14.8896C104.583 15.3174 104.519 15.6982 104.472 16.0322C104.431 16.3604 104.396 16.6387 104.366 16.8672C104.337 17.1367 104.316 17.3711 104.305 17.5703C104.305 18.1562 104.34 18.6836 104.41 19.1523C104.48 19.6211 104.589 20.0225 104.735 20.3564C104.888 20.6846 105.078 20.9395 105.307 21.1211C105.541 21.2969 105.819 21.3848 106.142 21.3848C106.44 21.3848 106.689 21.3262 106.889 21.209C107.094 21.0859 107.258 20.9307 107.381 20.7432C107.504 20.5498 107.592 20.3359 107.645 20.1016C107.697 19.8613 107.724 19.624 107.724 19.3896C107.724 19.1729 107.706 18.9619 107.671 18.7568C107.923 18.8857 108.113 19.0938 108.242 19.3809C108.377 19.6621 108.444 19.9697 108.444 20.3037C108.444 20.6494 108.386 20.9541 108.269 21.2178C108.157 21.4814 108.002 21.7041 107.803 21.8857C107.604 22.0615 107.369 22.1963 107.1 22.29C106.83 22.3838 106.54 22.4307 106.229 22.4307C106.042 22.4307 105.819 22.4102 105.562 22.3691C105.31 22.3281 105.046 22.252 104.771 22.1406C104.495 22.0352 104.223 21.8828 103.953 21.6836C103.684 21.4844 103.443 21.2266 103.232 20.9102C103.021 20.5938 102.849 20.21 102.714 19.7588C102.585 19.3018 102.521 18.7656 102.521 18.1504ZM108.813 22.0879L110.193 21.0068L109.895 14.9424L108.269 13.8789L112.048 13.2373L111.371 20.2861L113.261 21.4639L108.813 22.0879ZM112.145 11.1104C112.145 11.2861 112.109 11.4531 112.039 11.6113C111.969 11.7637 111.872 11.9014 111.749 12.0244C111.626 12.1416 111.485 12.2354 111.327 12.3057C111.169 12.3701 111.002 12.4023 110.826 12.4023C110.639 12.4023 110.463 12.3701 110.299 12.3057C110.141 12.2354 110.003 12.1416 109.886 12.0244C109.769 11.9014 109.675 11.7637 109.604 11.6113C109.534 11.4531 109.499 11.2861 109.499 11.1104C109.499 10.9287 109.534 10.7617 109.604 10.6094C109.675 10.4512 109.769 10.3135 109.886 10.1963C110.003 10.0791 110.141 9.98828 110.299 9.92383C110.463 9.85352 110.639 9.81836 110.826 9.81836C111.002 9.81836 111.169 9.85352 111.327 9.92383C111.485 9.98828 111.626 10.0791 111.749 10.1963C111.872 10.3135 111.969 10.4512 112.039 10.6094C112.109 10.7617 112.145 10.9287 112.145 11.1104ZM113.454 17.5879C113.454 16.9316 113.557 16.3252 113.762 15.7686C113.973 15.2061 114.263 14.7197 114.632 14.3096C115.007 13.8994 115.449 13.5801 115.959 13.3516C116.475 13.1172 117.037 13 117.646 13C118.238 13 118.78 13.1113 119.272 13.334C119.765 13.5508 120.192 13.8584 120.556 14.2568C120.919 14.6553 121.209 15.1328 121.426 15.6895C121.643 16.2461 121.771 16.8613 121.812 17.5352C121.854 18.2559 121.777 18.9092 121.584 19.4951C121.396 20.0752 121.118 20.5703 120.749 20.9805C120.38 21.3848 119.938 21.6982 119.422 21.9209C118.912 22.1436 118.358 22.2549 117.761 22.2549C117.187 22.2549 116.639 22.1523 116.117 21.9473C115.602 21.7363 115.145 21.4316 114.746 21.0332C114.354 20.6348 114.04 20.1484 113.806 19.5742C113.571 18.9941 113.454 18.332 113.454 17.5879ZM115.616 17.7373C115.616 18.2529 115.689 18.7188 115.836 19.1348C115.982 19.5508 116.179 19.9053 116.425 20.1982C116.671 20.4854 116.955 20.708 117.277 20.8662C117.6 21.0244 117.939 21.1035 118.297 21.1035C118.654 21.1035 118.988 21.0273 119.299 20.875C119.609 20.7168 119.879 20.4971 120.107 20.2158C120.336 19.9287 120.515 19.5859 120.644 19.1875C120.772 18.7891 120.837 18.3467 120.837 17.8604C120.837 17.3799 120.772 16.9287 120.644 16.5068C120.515 16.0791 120.333 15.707 120.099 15.3906C119.87 15.0742 119.598 14.8252 119.281 14.6436C118.965 14.4619 118.619 14.3711 118.244 14.3711C117.91 14.3711 117.585 14.4473 117.269 14.5996C116.958 14.752 116.68 14.9746 116.434 15.2676C116.188 15.5547 115.988 15.9062 115.836 16.3223C115.689 16.7383 115.616 17.21 115.616 17.7373ZM130.839 16.542C130.839 16.8701 130.824 17.2158 130.795 17.5791C130.766 17.9424 130.722 18.3057 130.663 18.6689C130.604 19.0322 130.531 19.3867 130.443 19.7324C130.361 20.0781 130.265 20.3945 130.153 20.6816L131.885 21.2441L127.306 22.1406L128.861 20.9717C128.984 20.5205 129.066 20.0869 129.107 19.6709C129.154 19.2549 129.178 18.8623 129.178 18.4932C129.178 18.2705 129.169 18.0186 129.151 17.7373C129.14 17.4502 129.107 17.1602 129.055 16.8672C129.008 16.5742 128.938 16.2871 128.844 16.0059C128.756 15.7246 128.639 15.4756 128.492 15.2588C128.346 15.0361 128.164 14.8604 127.947 14.7314C127.736 14.5967 127.481 14.5293 127.183 14.5293C126.837 14.5293 126.485 14.6436 126.128 14.8721C125.771 15.1006 125.439 15.4375 125.135 15.8828V20.7432L126.585 21.7803L122.234 22.0879L123.386 20.8135L124.001 14.4238L122.129 13.501L125.135 13.2021V14.5293C125.305 14.2949 125.492 14.0752 125.697 13.8701C125.902 13.665 126.119 13.4893 126.348 13.3428C126.576 13.1904 126.813 13.0732 127.06 12.9912C127.312 12.9033 127.569 12.8594 127.833 12.8594C128.343 12.8594 128.785 12.9531 129.16 13.1406C129.535 13.3281 129.846 13.5889 130.092 13.9229C130.344 14.251 130.531 14.6406 130.654 15.0918C130.777 15.5371 130.839 16.0205 130.839 16.542ZM135.734 13.0527C135.957 13.0527 136.183 13.0732 136.411 13.1143C136.64 13.1494 136.862 13.2051 137.079 13.2812C137.302 13.3516 137.51 13.4395 137.703 13.5449C137.902 13.6445 138.081 13.7559 138.239 13.8789L139.681 12.1035L139.03 16.4893C138.96 16.1846 138.837 15.8857 138.661 15.5928C138.485 15.2939 138.266 15.0273 138.002 14.793C137.744 14.5586 137.445 14.3711 137.105 14.2305C136.766 14.084 136.394 14.0107 135.989 14.0107C135.767 14.0107 135.553 14.0371 135.348 14.0898C135.143 14.1367 134.961 14.2158 134.803 14.3271C134.65 14.4385 134.527 14.5791 134.434 14.749C134.346 14.9189 134.302 15.1211 134.302 15.3555C134.302 15.6367 134.378 15.8652 134.53 16.041C134.688 16.2168 134.894 16.3662 135.146 16.4893C135.397 16.6064 135.685 16.709 136.007 16.7969C136.329 16.8789 136.66 16.9668 137 17.0605C137.34 17.1543 137.671 17.2656 137.993 17.3945C138.315 17.5176 138.603 17.6787 138.854 17.8779C139.106 18.0771 139.309 18.3262 139.461 18.625C139.619 18.918 139.698 19.2812 139.698 19.7148C139.698 20.2012 139.602 20.6172 139.408 20.9629C139.221 21.3027 138.978 21.584 138.679 21.8066C138.38 22.0234 138.049 22.1816 137.686 22.2812C137.322 22.3809 136.968 22.4307 136.622 22.4307C136.341 22.4307 136.06 22.4014 135.778 22.3428C135.497 22.2842 135.225 22.2021 134.961 22.0967C134.697 21.9912 134.445 21.8652 134.205 21.7188C133.971 21.5723 133.757 21.4141 133.563 21.2441L132.228 23.0283L132.641 18.6689C132.828 19.0674 133.054 19.4395 133.317 19.7852C133.581 20.1309 133.874 20.4326 134.196 20.6904C134.519 20.9424 134.864 21.1416 135.233 21.2881C135.603 21.4287 135.986 21.499 136.385 21.499C136.848 21.499 137.217 21.4023 137.492 21.209C137.773 21.0098 137.914 20.7285 137.914 20.3652C137.914 20.1309 137.835 19.9375 137.677 19.7852C137.524 19.627 137.319 19.4893 137.062 19.3721C136.81 19.2549 136.522 19.1494 136.2 19.0557C135.878 18.9619 135.547 18.8594 135.207 18.748C134.867 18.6367 134.536 18.5078 134.214 18.3613C133.892 18.209 133.602 18.0215 133.344 17.7988C133.092 17.5703 132.887 17.2949 132.729 16.9727C132.576 16.6445 132.5 16.249 132.5 15.7861C132.5 15.3877 132.559 15.042 132.676 14.749C132.793 14.4561 132.945 14.21 133.133 14.0107C133.326 13.8057 133.54 13.6416 133.774 13.5186C134.015 13.3896 134.255 13.293 134.495 13.2285C134.735 13.1582 134.964 13.1113 135.181 13.0879C135.397 13.0645 135.582 13.0527 135.734 13.0527Z" fill="url(#paint0_linear)"/>
<rect x="1" y="1" width="148" height="28" rx="4" stroke="url(#paint1_linear)" stroke-width="2"/>
<defs>
<linearGradient id="paint0_linear" x1="77" y1="6" x2="62.2814" y2="120.579" gradientUnits="userSpaceOnUse">
<stop stop-color="#EDDD0F"/>
<stop offset="1" stop-color="#DBBA0D" stop-opacity="0"/>
</linearGradient>
<linearGradient id="paint1_linear" x1="-9" y1="-7" x2="380" y2="80" gradientUnits="userSpaceOnUse">
<stop stop-color="#F4EB11"/>
<stop offset="0.742956" stop-color="#7C0000"/>
<stop offset="0.743056" stop-color="#DD9539" stop-opacity="0"/>
</linearGradient>
</defs>
</svg>
