<svg width="150" height="30" viewBox="0 0 150 30" fill="none" xmlns="http://www.w3.org/2000/svg">
<rect x="1" y="1" width="148" height="28" rx="4" fill="white"/>
<path d="M32.3203 10.0293L30.5361 11.4707C30.5479 11.7168 30.5566 11.9658 30.5625 12.2178C30.5742 12.4697 30.5801 12.6953 30.5801 12.8945C30.5801 13.6855 30.5742 14.4619 30.5625 15.2236C30.5566 15.9795 30.5186 16.7002 30.4482 17.3857C30.3779 18.0654 30.2666 18.6953 30.1143 19.2754C29.9678 19.8496 29.7539 20.3477 29.4727 20.7695C29.1914 21.1855 28.834 21.5137 28.4004 21.7539C27.9668 21.9883 27.4307 22.1055 26.792 22.1055C26.1475 22.1055 25.5967 21.9502 25.1396 21.6396C24.6826 21.3291 24.2959 20.9102 23.9795 20.3828C23.6689 19.8555 23.417 19.2432 23.2236 18.5459C23.0361 17.8428 22.8867 17.0986 22.7754 16.3135C22.6641 15.5283 22.582 14.7256 22.5293 13.9053C22.4824 13.085 22.4414 12.291 22.4062 11.5234L20.6396 10.4775L26.792 9.83594L24.8672 11.2686C24.8555 11.4502 24.8496 11.6318 24.8496 11.8135C24.8496 11.9893 24.8496 12.168 24.8496 12.3496C24.8496 12.7598 24.8496 13.1992 24.8496 13.668C24.8496 14.1367 24.8584 14.6172 24.876 15.1094C24.8936 15.5957 24.9199 16.085 24.9551 16.5771C24.9902 17.0635 25.04 17.5322 25.1045 17.9834C25.1748 18.4346 25.2627 18.8535 25.3682 19.2402C25.4736 19.627 25.6055 19.9639 25.7637 20.251C25.9219 20.5381 26.1064 20.7637 26.3174 20.9277C26.5342 21.0918 26.7832 21.1738 27.0645 21.1738C27.4395 21.1738 27.7822 21.0742 28.0928 20.875C28.4033 20.6758 28.6699 20.3652 28.8926 19.9434C29.1152 19.5156 29.2881 18.9678 29.4111 18.2998C29.54 17.6318 29.6045 16.8262 29.6045 15.8828C29.6045 14.7344 29.5635 13.8027 29.4814 13.0879C29.4053 12.373 29.332 11.8398 29.2617 11.4883L27.4775 10.6445L32.3203 10.0293ZM35.8535 13.0527C36.0762 13.0527 36.3018 13.0732 36.5303 13.1143C36.7588 13.1494 36.9814 13.2051 37.1982 13.2812C37.4209 13.3516 37.6289 13.4395 37.8223 13.5449C38.0215 13.6445 38.2002 13.7559 38.3584 13.8789L39.7998 12.1035L39.1494 16.4893C39.0791 16.1846 38.9561 15.8857 38.7803 15.5928C38.6045 15.2939 38.3848 15.0273 38.1211 14.793C37.8633 14.5586 37.5645 14.3711 37.2246 14.2305C36.8848 14.084 36.5127 14.0107 36.1084 14.0107C35.8857 14.0107 35.6719 14.0371 35.4668 14.0898C35.2617 14.1367 35.0801 14.2158 34.9219 14.3271C34.7695 14.4385 34.6465 14.5791 34.5527 14.749C34.4648 14.9189 34.4209 15.1211 34.4209 15.3555C34.4209 15.6367 34.4971 15.8652 34.6494 16.041C34.8076 16.2168 35.0127 16.3662 35.2646 16.4893C35.5166 16.6064 35.8037 16.709 36.126 16.7969C36.4482 16.8789 36.7793 16.9668 37.1191 17.0605C37.459 17.1543 37.79 17.2656 38.1123 17.3945C38.4346 17.5176 38.7217 17.6787 38.9736 17.8779C39.2256 18.0771 39.4277 18.3262 39.5801 18.625C39.7383 18.918 39.8174 19.2812 39.8174 19.7148C39.8174 20.2012 39.7207 20.6172 39.5273 20.9629C39.3398 21.3027 39.0967 21.584 38.7979 21.8066C38.499 22.0234 38.168 22.1816 37.8047 22.2812C37.4414 22.3809 37.0869 22.4307 36.7412 22.4307C36.46 22.4307 36.1787 22.4014 35.8975 22.3428C35.6162 22.2842 35.3438 22.2021 35.0801 22.0967C34.8164 21.9912 34.5645 21.8652 34.3242 21.7188C34.0898 21.5723 33.876 21.4141 33.6826 21.2441L32.3467 23.0283L32.7598 18.6689C32.9473 19.0674 33.1729 19.4395 33.4365 19.7852C33.7002 20.1309 33.9932 20.4326 34.3154 20.6904C34.6377 20.9424 34.9834 21.1416 35.3525 21.2881C35.7217 21.4287 36.1055 21.499 36.5039 21.499C36.9668 21.499 37.3359 21.4023 37.6113 21.209C37.8926 21.0098 38.0332 20.7285 38.0332 20.3652C38.0332 20.1309 37.9541 19.9375 37.7959 19.7852C37.6436 19.627 37.4385 19.4893 37.1807 19.3721C36.9287 19.2549 36.6416 19.1494 36.3193 19.0557C35.9971 18.9619 35.666 18.8594 35.3262 18.748C34.9863 18.6367 34.6553 18.5078 34.333 18.3613C34.0107 18.209 33.7207 18.0215 33.4629 17.7988C33.2109 17.5703 33.0059 17.2949 32.8477 16.9727C32.6953 16.6445 32.6191 16.249 32.6191 15.7861C32.6191 15.3877 32.6777 15.042 32.7949 14.749C32.9121 14.4561 33.0645 14.21 33.252 14.0107C33.4453 13.8057 33.6592 13.6416 33.8936 13.5186C34.1338 13.3896 34.374 13.293 34.6143 13.2285C34.8545 13.1582 35.083 13.1113 35.2998 13.0879C35.5166 13.0645 35.7012 13.0527 35.8535 13.0527ZM42.8408 18.7744C42.917 19.1025 43.0195 19.4248 43.1484 19.7412C43.2773 20.0518 43.4355 20.3301 43.623 20.5762C43.8105 20.8223 44.0273 21.0215 44.2734 21.1738C44.5195 21.3262 44.7979 21.4023 45.1084 21.4023C45.5186 21.4023 45.876 21.3174 46.1807 21.1475C46.4854 20.9775 46.7344 20.7637 46.9277 20.5059C47.1211 20.2422 47.2559 19.9551 47.332 19.6445C47.4082 19.3281 47.4229 19.0264 47.376 18.7393C47.54 18.8037 47.6748 18.8887 47.7803 18.9941C47.8916 19.0996 47.9766 19.2168 48.0352 19.3457C48.0996 19.4688 48.1436 19.5977 48.167 19.7324C48.1904 19.8613 48.2021 19.9873 48.2021 20.1104C48.2021 20.3916 48.1201 20.6641 47.9561 20.9277C47.792 21.1855 47.5605 21.417 47.2617 21.6221C46.9688 21.8213 46.6201 21.9824 46.2158 22.1055C45.8115 22.2285 45.3691 22.29 44.8887 22.29C44.2441 22.29 43.667 22.1641 43.1572 21.9121C42.6533 21.6602 42.2256 21.3203 41.874 20.8926C41.5225 20.459 41.2529 19.9521 41.0654 19.3721C40.8779 18.792 40.7842 18.1738 40.7842 17.5176C40.7842 16.8496 40.8779 16.2344 41.0654 15.6719C41.2529 15.1035 41.5283 14.6201 41.8916 14.2217C42.2607 13.8232 42.7119 13.5215 43.2451 13.3164C43.7783 13.1113 44.3936 13.0293 45.0908 13.0703C45.5713 13.1055 46.0137 13.2432 46.418 13.4834C46.8223 13.7236 47.1738 14.0342 47.4727 14.415C47.7773 14.79 48.0205 15.2207 48.2021 15.707C48.3896 16.1934 48.5039 16.7002 48.5449 17.2275L42.8408 18.7744ZM42.6738 17.3594C42.6738 17.4414 42.6738 17.5234 42.6738 17.6055C42.6738 17.6816 42.6797 17.7607 42.6914 17.8428L46.5498 16.4365C46.4209 16.0146 46.2744 15.6543 46.1104 15.3555C45.9521 15.0508 45.7852 14.8018 45.6094 14.6084C45.4336 14.415 45.2549 14.2744 45.0732 14.1865C44.8975 14.0928 44.7275 14.0459 44.5635 14.0459C44.3174 14.0459 44.1006 14.0928 43.9131 14.1865C43.7256 14.2803 43.5615 14.4092 43.4209 14.5732C43.2861 14.7314 43.1689 14.9189 43.0693 15.1357C42.9756 15.3525 42.8994 15.584 42.8408 15.8301C42.7822 16.0762 42.7383 16.3311 42.709 16.5947C42.6855 16.8525 42.6738 17.1074 42.6738 17.3594ZM55.541 16.0059C55.4883 15.7891 55.4121 15.6045 55.3125 15.4521C55.2188 15.2998 55.1104 15.1738 54.9873 15.0742C54.8701 14.9688 54.7441 14.8896 54.6094 14.8369C54.4746 14.7783 54.3398 14.7344 54.2051 14.7051C53.8887 14.6406 53.5518 14.6436 53.1943 14.7139C53.0713 14.7549 52.9395 14.8193 52.7988 14.9072C52.6758 14.9893 52.5352 15.1006 52.377 15.2412C52.2188 15.376 52.0488 15.5576 51.8672 15.7861L52.0254 20.8838L53.6074 21.6748L48.9492 22.0879L50.1533 20.8662L50.6455 14.749L48.7734 13.8965L51.7969 13.3252L51.832 14.4238C52.0371 14.1777 52.248 13.9756 52.4648 13.8174C52.6816 13.6592 52.8779 13.5303 53.0537 13.4307C53.2588 13.3193 53.458 13.2344 53.6514 13.1758C54.0029 13.0938 54.3604 13.0615 54.7236 13.0791C54.876 13.085 55.0342 13.1025 55.1982 13.1318C55.3682 13.1611 55.5381 13.208 55.708 13.2725C55.8838 13.3311 56.0537 13.4131 56.2178 13.5186C56.3818 13.6182 56.54 13.7441 56.6924 13.8965L55.541 16.0059ZM71.1504 10.0469L70.4648 15.1973L69.4541 11.4355L66.7559 11.7432L67.1162 20.5234L69.2959 21.6396L62.2734 22.3076L64.8311 20.4531L65.2793 11.8311L62.4932 11.7256L61.4121 14.9248L61.0693 10.1963L71.1504 10.0469ZM73.5674 18.7744C73.6436 19.1025 73.7461 19.4248 73.875 19.7412C74.0039 20.0518 74.1621 20.3301 74.3496 20.5762C74.5371 20.8223 74.7539 21.0215 75 21.1738C75.2461 21.3262 75.5244 21.4023 75.835 21.4023C76.2451 21.4023 76.6025 21.3174 76.9072 21.1475C77.2119 20.9775 77.4609 20.7637 77.6543 20.5059C77.8477 20.2422 77.9824 19.9551 78.0586 19.6445C78.1348 19.3281 78.1494 19.0264 78.1025 18.7393C78.2666 18.8037 78.4014 18.8887 78.5068 18.9941C78.6182 19.0996 78.7031 19.2168 78.7617 19.3457C78.8262 19.4688 78.8701 19.5977 78.8936 19.7324C78.917 19.8613 78.9287 19.9873 78.9287 20.1104C78.9287 20.3916 78.8467 20.6641 78.6826 20.9277C78.5186 21.1855 78.2871 21.417 77.9883 21.6221C77.6953 21.8213 77.3467 21.9824 76.9424 22.1055C76.5381 22.2285 76.0957 22.29 75.6152 22.29C74.9707 22.29 74.3936 22.1641 73.8838 21.9121C73.3799 21.6602 72.9521 21.3203 72.6006 20.8926C72.249 20.459 71.9795 19.9521 71.792 19.3721C71.6045 18.792 71.5107 18.1738 71.5107 17.5176C71.5107 16.8496 71.6045 16.2344 71.792 15.6719C71.9795 15.1035 72.2549 14.6201 72.6182 14.2217C72.9873 13.8232 73.4385 13.5215 73.9717 13.3164C74.5049 13.1113 75.1201 13.0293 75.8174 13.0703C76.2979 13.1055 76.7402 13.2432 77.1445 13.4834C77.5488 13.7236 77.9004 14.0342 78.1992 14.415C78.5039 14.79 78.7471 15.2207 78.9287 15.707C79.1162 16.1934 79.2305 16.7002 79.2715 17.2275L73.5674 18.7744ZM73.4004 17.3594C73.4004 17.4414 73.4004 17.5234 73.4004 17.6055C73.4004 17.6816 73.4062 17.7607 73.418 17.8428L77.2764 16.4365C77.1475 16.0146 77.001 15.6543 76.8369 15.3555C76.6787 15.0508 76.5117 14.8018 76.3359 14.6084C76.1602 14.415 75.9814 14.2744 75.7998 14.1865C75.624 14.0928 75.4541 14.0459 75.29 14.0459C75.0439 14.0459 74.8271 14.0928 74.6396 14.1865C74.4521 14.2803 74.2881 14.4092 74.1475 14.5732C74.0127 14.7314 73.8955 14.9189 73.7959 15.1357C73.7021 15.3525 73.626 15.584 73.5674 15.8301C73.5088 16.0762 73.4648 16.3311 73.4355 16.5947C73.4121 16.8525 73.4004 17.1074 73.4004 17.3594ZM79.6582 22.0879L80.8096 20.7959L81.4072 14.8369L79.5527 13.501L82.541 13.7031V14.5996C82.7637 14.3008 82.9951 14.0693 83.2354 13.9053C83.4814 13.7412 83.707 13.6211 83.9121 13.5449C84.1523 13.457 84.3896 13.4072 84.624 13.3955C85.04 13.3955 85.418 13.4805 85.7578 13.6504C86.0977 13.8203 86.3672 14.0547 86.5664 14.3535C86.8125 14.0605 87.0938 13.8291 87.4102 13.6592C87.7266 13.4834 88.0693 13.3955 88.4385 13.3955C88.7725 13.3955 89.083 13.4717 89.3701 13.624C89.6572 13.7764 89.9033 13.9902 90.1084 14.2656C90.3193 14.541 90.4834 14.8779 90.6006 15.2764C90.7236 15.6689 90.7852 16.1055 90.7852 16.5859C90.7852 16.9316 90.7617 17.292 90.7148 17.667C90.6738 18.042 90.6152 18.4141 90.5391 18.7832C90.4688 19.1523 90.3809 19.5127 90.2754 19.8643C90.1699 20.21 90.0557 20.5322 89.9326 20.8311L91.1807 21.3848L86.8213 22.2021L88.7461 20.6641C88.8398 20.0312 88.8984 19.4541 88.9219 18.9326C88.9512 18.4053 88.9658 17.957 88.9658 17.5879C88.9658 16.6445 88.8516 15.959 88.623 15.5312C88.4004 15.1035 88.0811 14.8896 87.665 14.8896C87.4131 14.8896 87.1611 14.9805 86.9092 15.1621C86.9443 15.3027 86.9619 15.4521 86.9619 15.6104C86.9619 15.9678 86.9326 16.3369 86.874 16.7178C86.8213 17.0986 86.751 17.4736 86.6631 17.8428C86.5752 18.2119 86.4756 18.5693 86.3643 18.915C86.2529 19.2607 86.1416 19.5742 86.0303 19.8555L87.2695 20.8311H83.7275L84.9141 19.873C84.9844 19.3281 85.0342 18.7715 85.0635 18.2031C85.0928 17.6289 85.1074 17.0898 85.1074 16.5859C85.1074 15.9883 85.0371 15.5195 84.8965 15.1797C84.7617 14.8398 84.5156 14.6699 84.1582 14.6699C83.9766 14.6699 83.8066 14.7051 83.6484 14.7754C83.4961 14.8457 83.3525 14.9395 83.2178 15.0566C83.0889 15.1738 82.9658 15.3086 82.8486 15.4609C82.7373 15.6133 82.6348 15.7715 82.541 15.9355V20.7256L84.0176 21.7803L79.6582 22.0879ZM94.8193 14.3184C94.9541 14.1543 95.1006 14.0049 95.2588 13.8701C95.417 13.7295 95.5898 13.6094 95.7773 13.5098C95.9648 13.4043 96.1641 13.3223 96.375 13.2637C96.5918 13.2051 96.8232 13.1758 97.0693 13.1758C97.5205 13.1934 97.9482 13.2988 98.3525 13.4922C98.7627 13.6855 99.1201 13.9639 99.4248 14.3271C99.7354 14.6846 99.9814 15.127 100.163 15.6543C100.345 16.1758 100.436 16.7734 100.436 17.4473C100.436 18.2676 100.339 18.9854 100.146 19.6006C99.9521 20.2158 99.6885 20.7285 99.3545 21.1387C99.0205 21.543 98.6279 21.8477 98.1768 22.0527C97.7314 22.2578 97.2539 22.3604 96.7441 22.3604C96.2988 22.3604 95.8857 22.2842 95.5049 22.1318C95.124 21.9795 94.793 21.7686 94.5117 21.499L94.4238 23.4766L96.1816 24.4258L91.8662 25.1641L93.1934 23.8369L92.833 14.4238L91.2334 13.791L94.8721 13.1758L94.8193 14.3184ZM96.7969 14.292C96.7148 14.292 96.5977 14.3066 96.4453 14.3359C96.293 14.3652 96.1201 14.4326 95.9268 14.5381C95.7393 14.6436 95.54 14.7959 95.3291 14.9951C95.124 15.1943 94.9277 15.4639 94.7402 15.8037L94.5645 20.1807C94.752 20.4736 94.9805 20.7168 95.25 20.9102C95.5254 21.0977 95.8301 21.1914 96.1641 21.1914C96.5625 21.1914 96.9053 21.0918 97.1924 20.8926C97.4795 20.6934 97.7139 20.418 97.8955 20.0664C98.083 19.709 98.2178 19.29 98.2998 18.8096C98.3877 18.3291 98.4316 17.8076 98.4316 17.2451C98.4316 16.835 98.3965 16.4512 98.3262 16.0938C98.2559 15.7305 98.1533 15.417 98.0186 15.1533C97.8838 14.8838 97.7139 14.6729 97.5088 14.5205C97.3037 14.3682 97.0664 14.292 96.7969 14.292ZM103.468 20.9014L105.226 21.6045L100.822 22.0352L102.404 20.7959L102.132 11.3037L100.102 10.4248L104.549 9.83594L103.468 20.9014ZM113.408 16.5244C113.408 16.835 113.391 17.1689 113.355 17.5264C113.32 17.8838 113.268 18.2471 113.197 18.6162C113.133 18.9854 113.054 19.3486 112.96 19.7061C112.872 20.0576 112.775 20.3828 112.67 20.6816L114.542 22L111.229 21.8594L111.431 20.7783C111.079 21.2178 110.672 21.5547 110.209 21.7891C109.752 22.0176 109.222 22.1553 108.618 22.2021C108.126 22.2373 107.695 22.2021 107.326 22.0967C106.963 21.9971 106.658 21.8418 106.412 21.6309C106.172 21.4141 105.993 21.1504 105.876 20.8398C105.759 20.5234 105.7 20.1719 105.7 19.7852C105.7 19.4277 105.788 19.082 105.964 18.748C106.14 18.4082 106.392 18.1094 106.72 17.8516C107.054 17.5938 107.461 17.3887 107.941 17.2363C108.422 17.0781 108.967 16.999 109.576 16.999C109.857 16.999 110.18 17.0254 110.543 17.0781C110.912 17.1309 111.261 17.2422 111.589 17.4121C111.56 17.0547 111.504 16.6914 111.422 16.3223C111.346 15.9473 111.231 15.6074 111.079 15.3027C110.927 14.998 110.728 14.752 110.481 14.5645C110.241 14.3711 109.939 14.2744 109.576 14.2744C109.266 14.2744 108.964 14.3389 108.671 14.4678C108.378 14.5967 108.103 14.7812 107.845 15.0215C107.593 15.2617 107.364 15.5547 107.159 15.9004C106.954 16.2461 106.781 16.6357 106.641 17.0693L105.902 12.7627L107.019 14.4766C107.294 14.1367 107.572 13.8672 107.854 13.668C108.135 13.4629 108.413 13.3076 108.688 13.2021C108.97 13.0908 109.239 13.0176 109.497 12.9824C109.761 12.9473 110.013 12.9297 110.253 12.9297C110.704 12.9531 111.12 13.0469 111.501 13.2109C111.888 13.3691 112.222 13.6006 112.503 13.9053C112.784 14.2041 113.004 14.5732 113.162 15.0127C113.326 15.4521 113.408 15.9561 113.408 16.5244ZM111.589 19.3369C111.601 19.1729 111.609 19.0146 111.615 18.8623C111.621 18.71 111.624 18.5605 111.624 18.4141V18.3086C111.413 18.2266 111.199 18.165 110.982 18.124C110.771 18.0771 110.575 18.0449 110.394 18.0273C110.212 18.0039 110.057 17.9922 109.928 17.9922C109.805 17.9863 109.723 17.9834 109.682 17.9834C109.348 17.9951 109.058 18.0566 108.812 18.168C108.565 18.2793 108.36 18.4199 108.196 18.5898C108.038 18.7539 107.918 18.9385 107.836 19.1436C107.76 19.3486 107.722 19.5508 107.722 19.75C107.722 20.2012 107.83 20.5439 108.047 20.7783C108.27 21.0068 108.592 21.1211 109.014 21.1211C109.295 21.1211 109.562 21.0713 109.813 20.9717C110.065 20.8721 110.3 20.7402 110.517 20.5762C110.739 20.4062 110.938 20.2158 111.114 20.0049C111.296 19.7881 111.454 19.5654 111.589 19.3369ZM115.526 18.1504C115.526 17.5996 115.582 17.0518 115.693 16.5068C115.811 15.9561 115.937 15.4521 116.071 14.9951L114.551 15.0918L118.84 10.4072C118.5 11.4795 118.225 12.4463 118.014 13.3076L121.433 13.5977L120.984 14.6523L117.671 14.8896C117.589 15.3174 117.524 15.6982 117.478 16.0322C117.437 16.3604 117.401 16.6387 117.372 16.8672C117.343 17.1367 117.322 17.3711 117.311 17.5703C117.311 18.1562 117.346 18.6836 117.416 19.1523C117.486 19.6211 117.595 20.0225 117.741 20.3564C117.894 20.6846 118.084 20.9395 118.312 21.1211C118.547 21.2969 118.825 21.3848 119.147 21.3848C119.446 21.3848 119.695 21.3262 119.895 21.209C120.1 21.0859 120.264 20.9307 120.387 20.7432C120.51 20.5498 120.598 20.3359 120.65 20.1016C120.703 19.8613 120.729 19.624 120.729 19.3896C120.729 19.1729 120.712 18.9619 120.677 18.7568C120.929 18.8857 121.119 19.0938 121.248 19.3809C121.383 19.6621 121.45 19.9697 121.45 20.3037C121.45 20.6494 121.392 20.9541 121.274 21.2178C121.163 21.4814 121.008 21.7041 120.809 21.8857C120.609 22.0615 120.375 22.1963 120.105 22.29C119.836 22.3838 119.546 22.4307 119.235 22.4307C119.048 22.4307 118.825 22.4102 118.567 22.3691C118.315 22.3281 118.052 22.252 117.776 22.1406C117.501 22.0352 117.229 21.8828 116.959 21.6836C116.689 21.4844 116.449 21.2266 116.238 20.9102C116.027 20.5938 115.854 20.21 115.72 19.7588C115.591 19.3018 115.526 18.7656 115.526 18.1504ZM124.069 18.7744C124.146 19.1025 124.248 19.4248 124.377 19.7412C124.506 20.0518 124.664 20.3301 124.852 20.5762C125.039 20.8223 125.256 21.0215 125.502 21.1738C125.748 21.3262 126.026 21.4023 126.337 21.4023C126.747 21.4023 127.104 21.3174 127.409 21.1475C127.714 20.9775 127.963 20.7637 128.156 20.5059C128.35 20.2422 128.484 19.9551 128.561 19.6445C128.637 19.3281 128.651 19.0264 128.604 18.7393C128.769 18.8037 128.903 18.8887 129.009 18.9941C129.12 19.0996 129.205 19.2168 129.264 19.3457C129.328 19.4688 129.372 19.5977 129.396 19.7324C129.419 19.8613 129.431 19.9873 129.431 20.1104C129.431 20.3916 129.349 20.6641 129.185 20.9277C129.021 21.1855 128.789 21.417 128.49 21.6221C128.197 21.8213 127.849 21.9824 127.444 22.1055C127.04 22.2285 126.598 22.29 126.117 22.29C125.473 22.29 124.896 22.1641 124.386 21.9121C123.882 21.6602 123.454 21.3203 123.103 20.8926C122.751 20.459 122.481 19.9521 122.294 19.3721C122.106 18.792 122.013 18.1738 122.013 17.5176C122.013 16.8496 122.106 16.2344 122.294 15.6719C122.481 15.1035 122.757 14.6201 123.12 14.2217C123.489 13.8232 123.94 13.5215 124.474 13.3164C125.007 13.1113 125.622 13.0293 126.319 13.0703C126.8 13.1055 127.242 13.2432 127.646 13.4834C128.051 13.7236 128.402 14.0342 128.701 14.415C129.006 14.79 129.249 15.2207 129.431 15.707C129.618 16.1934 129.732 16.7002 129.773 17.2275L124.069 18.7744ZM123.902 17.3594C123.902 17.4414 123.902 17.5234 123.902 17.6055C123.902 17.6816 123.908 17.7607 123.92 17.8428L127.778 16.4365C127.649 16.0146 127.503 15.6543 127.339 15.3555C127.181 15.0508 127.014 14.8018 126.838 14.6084C126.662 14.415 126.483 14.2744 126.302 14.1865C126.126 14.0928 125.956 14.0459 125.792 14.0459C125.546 14.0459 125.329 14.0928 125.142 14.1865C124.954 14.2803 124.79 14.4092 124.649 14.5732C124.515 14.7314 124.397 14.9189 124.298 15.1357C124.204 15.3525 124.128 15.584 124.069 15.8301C124.011 16.0762 123.967 16.3311 123.938 16.5947C123.914 16.8525 123.902 17.1074 123.902 17.3594Z" fill="#BD1313"/>
<rect x="1" y="1" width="148" height="28" rx="4" stroke="url(#paint0_linear)" stroke-width="2"/>
<defs>
<linearGradient id="paint0_linear" x1="70" y1="-5.00002" x2="380" y2="80" gradientUnits="userSpaceOnUse">
<stop stop-color="#F4EB11"/>
<stop offset="0.742956" stop-color="#7C0000"/>
<stop offset="0.743056" stop-color="#DD9539" stop-opacity="0"/>
</linearGradient>
</defs>
</svg>
