<svg width="150" height="30" viewBox="0 0 150 30" fill="none" xmlns="http://www.w3.org/2000/svg">
<path d="M30.3203 9.0293L28.5361 10.4707C28.5479 10.7168 28.5566 10.9658 28.5625 11.2178C28.5742 11.4697 28.5801 11.6953 28.5801 11.8945C28.5801 12.6855 28.5742 13.4619 28.5625 14.2236C28.5566 14.9795 28.5186 15.7002 28.4482 16.3857C28.3779 17.0654 28.2666 17.6953 28.1143 18.2754C27.9678 18.8496 27.7539 19.3477 27.4727 19.7695C27.1914 20.1855 26.834 20.5137 26.4004 20.7539C25.9668 20.9883 25.4307 21.1055 24.792 21.1055C24.1475 21.1055 23.5967 20.9502 23.1396 20.6396C22.6826 20.3291 22.2959 19.9102 21.9795 19.3828C21.6689 18.8555 21.417 18.2432 21.2236 17.5459C21.0361 16.8428 20.8867 16.0986 20.7754 15.3135C20.6641 14.5283 20.582 13.7256 20.5293 12.9053C20.4824 12.085 20.4414 11.291 20.4062 10.5234L18.6396 9.47754L24.792 8.83594L22.8672 10.2686C22.8555 10.4502 22.8496 10.6318 22.8496 10.8135C22.8496 10.9893 22.8496 11.168 22.8496 11.3496C22.8496 11.7598 22.8496 12.1992 22.8496 12.668C22.8496 13.1367 22.8584 13.6172 22.876 14.1094C22.8936 14.5957 22.9199 15.085 22.9551 15.5771C22.9902 16.0635 23.04 16.5322 23.1045 16.9834C23.1748 17.4346 23.2627 17.8535 23.3682 18.2402C23.4736 18.627 23.6055 18.9639 23.7637 19.251C23.9219 19.5381 24.1064 19.7637 24.3174 19.9277C24.5342 20.0918 24.7832 20.1738 25.0645 20.1738C25.4395 20.1738 25.7822 20.0742 26.0928 19.875C26.4033 19.6758 26.6699 19.3652 26.8926 18.9434C27.1152 18.5156 27.2881 17.9678 27.4111 17.2998C27.54 16.6318 27.6045 15.8262 27.6045 14.8828C27.6045 13.7344 27.5635 12.8027 27.4814 12.0879C27.4053 11.373 27.332 10.8398 27.2617 10.4883L25.4775 9.64453L30.3203 9.0293ZM33.8535 12.0527C34.0762 12.0527 34.3018 12.0732 34.5303 12.1143C34.7588 12.1494 34.9814 12.2051 35.1982 12.2812C35.4209 12.3516 35.6289 12.4395 35.8223 12.5449C36.0215 12.6445 36.2002 12.7559 36.3584 12.8789L37.7998 11.1035L37.1494 15.4893C37.0791 15.1846 36.9561 14.8857 36.7803 14.5928C36.6045 14.2939 36.3848 14.0273 36.1211 13.793C35.8633 13.5586 35.5645 13.3711 35.2246 13.2305C34.8848 13.084 34.5127 13.0107 34.1084 13.0107C33.8857 13.0107 33.6719 13.0371 33.4668 13.0898C33.2617 13.1367 33.0801 13.2158 32.9219 13.3271C32.7695 13.4385 32.6465 13.5791 32.5527 13.749C32.4648 13.9189 32.4209 14.1211 32.4209 14.3555C32.4209 14.6367 32.4971 14.8652 32.6494 15.041C32.8076 15.2168 33.0127 15.3662 33.2646 15.4893C33.5166 15.6064 33.8037 15.709 34.126 15.7969C34.4482 15.8789 34.7793 15.9668 35.1191 16.0605C35.459 16.1543 35.79 16.2656 36.1123 16.3945C36.4346 16.5176 36.7217 16.6787 36.9736 16.8779C37.2256 17.0771 37.4277 17.3262 37.5801 17.625C37.7383 17.918 37.8174 18.2812 37.8174 18.7148C37.8174 19.2012 37.7207 19.6172 37.5273 19.9629C37.3398 20.3027 37.0967 20.584 36.7979 20.8066C36.499 21.0234 36.168 21.1816 35.8047 21.2812C35.4414 21.3809 35.0869 21.4307 34.7412 21.4307C34.46 21.4307 34.1787 21.4014 33.8975 21.3428C33.6162 21.2842 33.3438 21.2021 33.0801 21.0967C32.8164 20.9912 32.5645 20.8652 32.3242 20.7188C32.0898 20.5723 31.876 20.4141 31.6826 20.2441L30.3467 22.0283L30.7598 17.6689C30.9473 18.0674 31.1729 18.4395 31.4365 18.7852C31.7002 19.1309 31.9932 19.4326 32.3154 19.6904C32.6377 19.9424 32.9834 20.1416 33.3525 20.2881C33.7217 20.4287 34.1055 20.499 34.5039 20.499C34.9668 20.499 35.3359 20.4023 35.6113 20.209C35.8926 20.0098 36.0332 19.7285 36.0332 19.3652C36.0332 19.1309 35.9541 18.9375 35.7959 18.7852C35.6436 18.627 35.4385 18.4893 35.1807 18.3721C34.9287 18.2549 34.6416 18.1494 34.3193 18.0557C33.9971 17.9619 33.666 17.8594 33.3262 17.748C32.9863 17.6367 32.6553 17.5078 32.333 17.3613C32.0107 17.209 31.7207 17.0215 31.4629 16.7988C31.2109 16.5703 31.0059 16.2949 30.8477 15.9727C30.6953 15.6445 30.6191 15.249 30.6191 14.7861C30.6191 14.3877 30.6777 14.042 30.7949 13.749C30.9121 13.4561 31.0645 13.21 31.252 13.0107C31.4453 12.8057 31.6592 12.6416 31.8936 12.5186C32.1338 12.3896 32.374 12.293 32.6143 12.2285C32.8545 12.1582 33.083 12.1113 33.2998 12.0879C33.5166 12.0645 33.7012 12.0527 33.8535 12.0527ZM40.8408 17.7744C40.917 18.1025 41.0195 18.4248 41.1484 18.7412C41.2773 19.0518 41.4355 19.3301 41.623 19.5762C41.8105 19.8223 42.0273 20.0215 42.2734 20.1738C42.5195 20.3262 42.7979 20.4023 43.1084 20.4023C43.5186 20.4023 43.876 20.3174 44.1807 20.1475C44.4854 19.9775 44.7344 19.7637 44.9277 19.5059C45.1211 19.2422 45.2559 18.9551 45.332 18.6445C45.4082 18.3281 45.4229 18.0264 45.376 17.7393C45.54 17.8037 45.6748 17.8887 45.7803 17.9941C45.8916 18.0996 45.9766 18.2168 46.0352 18.3457C46.0996 18.4688 46.1436 18.5977 46.167 18.7324C46.1904 18.8613 46.2021 18.9873 46.2021 19.1104C46.2021 19.3916 46.1201 19.6641 45.9561 19.9277C45.792 20.1855 45.5605 20.417 45.2617 20.6221C44.9688 20.8213 44.6201 20.9824 44.2158 21.1055C43.8115 21.2285 43.3691 21.29 42.8887 21.29C42.2441 21.29 41.667 21.1641 41.1572 20.9121C40.6533 20.6602 40.2256 20.3203 39.874 19.8926C39.5225 19.459 39.2529 18.9521 39.0654 18.3721C38.8779 17.792 38.7842 17.1738 38.7842 16.5176C38.7842 15.8496 38.8779 15.2344 39.0654 14.6719C39.2529 14.1035 39.5283 13.6201 39.8916 13.2217C40.2607 12.8232 40.7119 12.5215 41.2451 12.3164C41.7783 12.1113 42.3936 12.0293 43.0908 12.0703C43.5713 12.1055 44.0137 12.2432 44.418 12.4834C44.8223 12.7236 45.1738 13.0342 45.4727 13.415C45.7773 13.79 46.0205 14.2207 46.2021 14.707C46.3896 15.1934 46.5039 15.7002 46.5449 16.2275L40.8408 17.7744ZM40.6738 16.3594C40.6738 16.4414 40.6738 16.5234 40.6738 16.6055C40.6738 16.6816 40.6797 16.7607 40.6914 16.8428L44.5498 15.4365C44.4209 15.0146 44.2744 14.6543 44.1104 14.3555C43.9521 14.0508 43.7852 13.8018 43.6094 13.6084C43.4336 13.415 43.2549 13.2744 43.0732 13.1865C42.8975 13.0928 42.7275 13.0459 42.5635 13.0459C42.3174 13.0459 42.1006 13.0928 41.9131 13.1865C41.7256 13.2803 41.5615 13.4092 41.4209 13.5732C41.2861 13.7314 41.1689 13.9189 41.0693 14.1357C40.9756 14.3525 40.8994 14.584 40.8408 14.8301C40.7822 15.0762 40.7383 15.3311 40.709 15.5947C40.6855 15.8525 40.6738 16.1074 40.6738 16.3594ZM53.541 15.0059C53.4883 14.7891 53.4121 14.6045 53.3125 14.4521C53.2188 14.2998 53.1104 14.1738 52.9873 14.0742C52.8701 13.9688 52.7441 13.8896 52.6094 13.8369C52.4746 13.7783 52.3398 13.7344 52.2051 13.7051C51.8887 13.6406 51.5518 13.6436 51.1943 13.7139C51.0713 13.7549 50.9395 13.8193 50.7988 13.9072C50.6758 13.9893 50.5352 14.1006 50.377 14.2412C50.2188 14.376 50.0488 14.5576 49.8672 14.7861L50.0254 19.8838L51.6074 20.6748L46.9492 21.0879L48.1533 19.8662L48.6455 13.749L46.7734 12.8965L49.7969 12.3252L49.832 13.4238C50.0371 13.1777 50.248 12.9756 50.4648 12.8174C50.6816 12.6592 50.8779 12.5303 51.0537 12.4307C51.2588 12.3193 51.458 12.2344 51.6514 12.1758C52.0029 12.0938 52.3604 12.0615 52.7236 12.0791C52.876 12.085 53.0342 12.1025 53.1982 12.1318C53.3682 12.1611 53.5381 12.208 53.708 12.2725C53.8838 12.3311 54.0537 12.4131 54.2178 12.5186C54.3818 12.6182 54.54 12.7441 54.6924 12.8965L53.541 15.0059ZM69.1504 9.04688L68.4648 14.1973L67.4541 10.4355L64.7559 10.7432L65.1162 19.5234L67.2959 20.6396L60.2734 21.3076L62.8311 19.4531L63.2793 10.8311L60.4932 10.7256L59.4121 13.9248L59.0693 9.19629L69.1504 9.04688ZM71.5674 17.7744C71.6436 18.1025 71.7461 18.4248 71.875 18.7412C72.0039 19.0518 72.1621 19.3301 72.3496 19.5762C72.5371 19.8223 72.7539 20.0215 73 20.1738C73.2461 20.3262 73.5244 20.4023 73.835 20.4023C74.2451 20.4023 74.6025 20.3174 74.9072 20.1475C75.2119 19.9775 75.4609 19.7637 75.6543 19.5059C75.8477 19.2422 75.9824 18.9551 76.0586 18.6445C76.1348 18.3281 76.1494 18.0264 76.1025 17.7393C76.2666 17.8037 76.4014 17.8887 76.5068 17.9941C76.6182 18.0996 76.7031 18.2168 76.7617 18.3457C76.8262 18.4688 76.8701 18.5977 76.8936 18.7324C76.917 18.8613 76.9287 18.9873 76.9287 19.1104C76.9287 19.3916 76.8467 19.6641 76.6826 19.9277C76.5186 20.1855 76.2871 20.417 75.9883 20.6221C75.6953 20.8213 75.3467 20.9824 74.9424 21.1055C74.5381 21.2285 74.0957 21.29 73.6152 21.29C72.9707 21.29 72.3936 21.1641 71.8838 20.9121C71.3799 20.6602 70.9521 20.3203 70.6006 19.8926C70.249 19.459 69.9795 18.9521 69.792 18.3721C69.6045 17.792 69.5107 17.1738 69.5107 16.5176C69.5107 15.8496 69.6045 15.2344 69.792 14.6719C69.9795 14.1035 70.2549 13.6201 70.6182 13.2217C70.9873 12.8232 71.4385 12.5215 71.9717 12.3164C72.5049 12.1113 73.1201 12.0293 73.8174 12.0703C74.2979 12.1055 74.7402 12.2432 75.1445 12.4834C75.5488 12.7236 75.9004 13.0342 76.1992 13.415C76.5039 13.79 76.7471 14.2207 76.9287 14.707C77.1162 15.1934 77.2305 15.7002 77.2715 16.2275L71.5674 17.7744ZM71.4004 16.3594C71.4004 16.4414 71.4004 16.5234 71.4004 16.6055C71.4004 16.6816 71.4062 16.7607 71.418 16.8428L75.2764 15.4365C75.1475 15.0146 75.001 14.6543 74.8369 14.3555C74.6787 14.0508 74.5117 13.8018 74.3359 13.6084C74.1602 13.415 73.9814 13.2744 73.7998 13.1865C73.624 13.0928 73.4541 13.0459 73.29 13.0459C73.0439 13.0459 72.8271 13.0928 72.6396 13.1865C72.4521 13.2803 72.2881 13.4092 72.1475 13.5732C72.0127 13.7314 71.8955 13.9189 71.7959 14.1357C71.7021 14.3525 71.626 14.584 71.5674 14.8301C71.5088 15.0762 71.4648 15.3311 71.4355 15.5947C71.4121 15.8525 71.4004 16.1074 71.4004 16.3594ZM77.6582 21.0879L78.8096 19.7959L79.4072 13.8369L77.5527 12.501L80.541 12.7031V13.5996C80.7637 13.3008 80.9951 13.0693 81.2354 12.9053C81.4814 12.7412 81.707 12.6211 81.9121 12.5449C82.1523 12.457 82.3896 12.4072 82.624 12.3955C83.04 12.3955 83.418 12.4805 83.7578 12.6504C84.0977 12.8203 84.3672 13.0547 84.5664 13.3535C84.8125 13.0605 85.0938 12.8291 85.4102 12.6592C85.7266 12.4834 86.0693 12.3955 86.4385 12.3955C86.7725 12.3955 87.083 12.4717 87.3701 12.624C87.6572 12.7764 87.9033 12.9902 88.1084 13.2656C88.3193 13.541 88.4834 13.8779 88.6006 14.2764C88.7236 14.6689 88.7852 15.1055 88.7852 15.5859C88.7852 15.9316 88.7617 16.292 88.7148 16.667C88.6738 17.042 88.6152 17.4141 88.5391 17.7832C88.4688 18.1523 88.3809 18.5127 88.2754 18.8643C88.1699 19.21 88.0557 19.5322 87.9326 19.8311L89.1807 20.3848L84.8213 21.2021L86.7461 19.6641C86.8398 19.0312 86.8984 18.4541 86.9219 17.9326C86.9512 17.4053 86.9658 16.957 86.9658 16.5879C86.9658 15.6445 86.8516 14.959 86.623 14.5312C86.4004 14.1035 86.0811 13.8896 85.665 13.8896C85.4131 13.8896 85.1611 13.9805 84.9092 14.1621C84.9443 14.3027 84.9619 14.4521 84.9619 14.6104C84.9619 14.9678 84.9326 15.3369 84.874 15.7178C84.8213 16.0986 84.751 16.4736 84.6631 16.8428C84.5752 17.2119 84.4756 17.5693 84.3643 17.915C84.2529 18.2607 84.1416 18.5742 84.0303 18.8555L85.2695 19.8311H81.7275L82.9141 18.873C82.9844 18.3281 83.0342 17.7715 83.0635 17.2031C83.0928 16.6289 83.1074 16.0898 83.1074 15.5859C83.1074 14.9883 83.0371 14.5195 82.8965 14.1797C82.7617 13.8398 82.5156 13.6699 82.1582 13.6699C81.9766 13.6699 81.8066 13.7051 81.6484 13.7754C81.4961 13.8457 81.3525 13.9395 81.2178 14.0566C81.0889 14.1738 80.9658 14.3086 80.8486 14.4609C80.7373 14.6133 80.6348 14.7715 80.541 14.9355V19.7256L82.0176 20.7803L77.6582 21.0879ZM92.8193 13.3184C92.9541 13.1543 93.1006 13.0049 93.2588 12.8701C93.417 12.7295 93.5898 12.6094 93.7773 12.5098C93.9648 12.4043 94.1641 12.3223 94.375 12.2637C94.5918 12.2051 94.8232 12.1758 95.0693 12.1758C95.5205 12.1934 95.9482 12.2988 96.3525 12.4922C96.7627 12.6855 97.1201 12.9639 97.4248 13.3271C97.7354 13.6846 97.9814 14.127 98.1631 14.6543C98.3447 15.1758 98.4355 15.7734 98.4355 16.4473C98.4355 17.2676 98.3389 17.9854 98.1455 18.6006C97.9521 19.2158 97.6885 19.7285 97.3545 20.1387C97.0205 20.543 96.6279 20.8477 96.1768 21.0527C95.7314 21.2578 95.2539 21.3604 94.7441 21.3604C94.2988 21.3604 93.8857 21.2842 93.5049 21.1318C93.124 20.9795 92.793 20.7686 92.5117 20.499L92.4238 22.4766L94.1816 23.4258L89.8662 24.1641L91.1934 22.8369L90.833 13.4238L89.2334 12.791L92.8721 12.1758L92.8193 13.3184ZM94.7969 13.292C94.7148 13.292 94.5977 13.3066 94.4453 13.3359C94.293 13.3652 94.1201 13.4326 93.9268 13.5381C93.7393 13.6436 93.54 13.7959 93.3291 13.9951C93.124 14.1943 92.9277 14.4639 92.7402 14.8037L92.5645 19.1807C92.752 19.4736 92.9805 19.7168 93.25 19.9102C93.5254 20.0977 93.8301 20.1914 94.1641 20.1914C94.5625 20.1914 94.9053 20.0918 95.1924 19.8926C95.4795 19.6934 95.7139 19.418 95.8955 19.0664C96.083 18.709 96.2178 18.29 96.2998 17.8096C96.3877 17.3291 96.4316 16.8076 96.4316 16.2451C96.4316 15.835 96.3965 15.4512 96.3262 15.0938C96.2559 14.7305 96.1533 14.417 96.0186 14.1533C95.8838 13.8838 95.7139 13.6729 95.5088 13.5205C95.3037 13.3682 95.0664 13.292 94.7969 13.292ZM101.468 19.9014L103.226 20.6045L98.8223 21.0352L100.404 19.7959L100.132 10.3037L98.1016 9.4248L102.549 8.83594L101.468 19.9014ZM111.408 15.5244C111.408 15.835 111.391 16.1689 111.355 16.5264C111.32 16.8838 111.268 17.2471 111.197 17.6162C111.133 17.9854 111.054 18.3486 110.96 18.7061C110.872 19.0576 110.775 19.3828 110.67 19.6816L112.542 21L109.229 20.8594L109.431 19.7783C109.079 20.2178 108.672 20.5547 108.209 20.7891C107.752 21.0176 107.222 21.1553 106.618 21.2021C106.126 21.2373 105.695 21.2021 105.326 21.0967C104.963 20.9971 104.658 20.8418 104.412 20.6309C104.172 20.4141 103.993 20.1504 103.876 19.8398C103.759 19.5234 103.7 19.1719 103.7 18.7852C103.7 18.4277 103.788 18.082 103.964 17.748C104.14 17.4082 104.392 17.1094 104.72 16.8516C105.054 16.5938 105.461 16.3887 105.941 16.2363C106.422 16.0781 106.967 15.999 107.576 15.999C107.857 15.999 108.18 16.0254 108.543 16.0781C108.912 16.1309 109.261 16.2422 109.589 16.4121C109.56 16.0547 109.504 15.6914 109.422 15.3223C109.346 14.9473 109.231 14.6074 109.079 14.3027C108.927 13.998 108.728 13.752 108.481 13.5645C108.241 13.3711 107.939 13.2744 107.576 13.2744C107.266 13.2744 106.964 13.3389 106.671 13.4678C106.378 13.5967 106.103 13.7812 105.845 14.0215C105.593 14.2617 105.364 14.5547 105.159 14.9004C104.954 15.2461 104.781 15.6357 104.641 16.0693L103.902 11.7627L105.019 13.4766C105.294 13.1367 105.572 12.8672 105.854 12.668C106.135 12.4629 106.413 12.3076 106.688 12.2021C106.97 12.0908 107.239 12.0176 107.497 11.9824C107.761 11.9473 108.013 11.9297 108.253 11.9297C108.704 11.9531 109.12 12.0469 109.501 12.2109C109.888 12.3691 110.222 12.6006 110.503 12.9053C110.784 13.2041 111.004 13.5732 111.162 14.0127C111.326 14.4521 111.408 14.9561 111.408 15.5244ZM109.589 18.3369C109.601 18.1729 109.609 18.0146 109.615 17.8623C109.621 17.71 109.624 17.5605 109.624 17.4141V17.3086C109.413 17.2266 109.199 17.165 108.982 17.124C108.771 17.0771 108.575 17.0449 108.394 17.0273C108.212 17.0039 108.057 16.9922 107.928 16.9922C107.805 16.9863 107.723 16.9834 107.682 16.9834C107.348 16.9951 107.058 17.0566 106.812 17.168C106.565 17.2793 106.36 17.4199 106.196 17.5898C106.038 17.7539 105.918 17.9385 105.836 18.1436C105.76 18.3486 105.722 18.5508 105.722 18.75C105.722 19.2012 105.83 19.5439 106.047 19.7783C106.27 20.0068 106.592 20.1211 107.014 20.1211C107.295 20.1211 107.562 20.0713 107.813 19.9717C108.065 19.8721 108.3 19.7402 108.517 19.5762C108.739 19.4062 108.938 19.2158 109.114 19.0049C109.296 18.7881 109.454 18.5654 109.589 18.3369ZM113.526 17.1504C113.526 16.5996 113.582 16.0518 113.693 15.5068C113.811 14.9561 113.937 14.4521 114.071 13.9951L112.551 14.0918L116.84 9.40723C116.5 10.4795 116.225 11.4463 116.014 12.3076L119.433 12.5977L118.984 13.6523L115.671 13.8896C115.589 14.3174 115.524 14.6982 115.478 15.0322C115.437 15.3604 115.401 15.6387 115.372 15.8672C115.343 16.1367 115.322 16.3711 115.311 16.5703C115.311 17.1562 115.346 17.6836 115.416 18.1523C115.486 18.6211 115.595 19.0225 115.741 19.3564C115.894 19.6846 116.084 19.9395 116.312 20.1211C116.547 20.2969 116.825 20.3848 117.147 20.3848C117.446 20.3848 117.695 20.3262 117.895 20.209C118.1 20.0859 118.264 19.9307 118.387 19.7432C118.51 19.5498 118.598 19.3359 118.65 19.1016C118.703 18.8613 118.729 18.624 118.729 18.3896C118.729 18.1729 118.712 17.9619 118.677 17.7568C118.929 17.8857 119.119 18.0938 119.248 18.3809C119.383 18.6621 119.45 18.9697 119.45 19.3037C119.45 19.6494 119.392 19.9541 119.274 20.2178C119.163 20.4814 119.008 20.7041 118.809 20.8857C118.609 21.0615 118.375 21.1963 118.105 21.29C117.836 21.3838 117.546 21.4307 117.235 21.4307C117.048 21.4307 116.825 21.4102 116.567 21.3691C116.315 21.3281 116.052 21.252 115.776 21.1406C115.501 21.0352 115.229 20.8828 114.959 20.6836C114.689 20.4844 114.449 20.2266 114.238 19.9102C114.027 19.5938 113.854 19.21 113.72 18.7588C113.591 18.3018 113.526 17.7656 113.526 17.1504ZM122.069 17.7744C122.146 18.1025 122.248 18.4248 122.377 18.7412C122.506 19.0518 122.664 19.3301 122.852 19.5762C123.039 19.8223 123.256 20.0215 123.502 20.1738C123.748 20.3262 124.026 20.4023 124.337 20.4023C124.747 20.4023 125.104 20.3174 125.409 20.1475C125.714 19.9775 125.963 19.7637 126.156 19.5059C126.35 19.2422 126.484 18.9551 126.561 18.6445C126.637 18.3281 126.651 18.0264 126.604 17.7393C126.769 17.8037 126.903 17.8887 127.009 17.9941C127.12 18.0996 127.205 18.2168 127.264 18.3457C127.328 18.4688 127.372 18.5977 127.396 18.7324C127.419 18.8613 127.431 18.9873 127.431 19.1104C127.431 19.3916 127.349 19.6641 127.185 19.9277C127.021 20.1855 126.789 20.417 126.49 20.6221C126.197 20.8213 125.849 20.9824 125.444 21.1055C125.04 21.2285 124.598 21.29 124.117 21.29C123.473 21.29 122.896 21.1641 122.386 20.9121C121.882 20.6602 121.454 20.3203 121.103 19.8926C120.751 19.459 120.481 18.9521 120.294 18.3721C120.106 17.792 120.013 17.1738 120.013 16.5176C120.013 15.8496 120.106 15.2344 120.294 14.6719C120.481 14.1035 120.757 13.6201 121.12 13.2217C121.489 12.8232 121.94 12.5215 122.474 12.3164C123.007 12.1113 123.622 12.0293 124.319 12.0703C124.8 12.1055 125.242 12.2432 125.646 12.4834C126.051 12.7236 126.402 13.0342 126.701 13.415C127.006 13.79 127.249 14.2207 127.431 14.707C127.618 15.1934 127.732 15.7002 127.773 16.2275L122.069 17.7744ZM121.902 16.3594C121.902 16.4414 121.902 16.5234 121.902 16.6055C121.902 16.6816 121.908 16.7607 121.92 16.8428L125.778 15.4365C125.649 15.0146 125.503 14.6543 125.339 14.3555C125.181 14.0508 125.014 13.8018 124.838 13.6084C124.662 13.415 124.483 13.2744 124.302 13.1865C124.126 13.0928 123.956 13.0459 123.792 13.0459C123.546 13.0459 123.329 13.0928 123.142 13.1865C122.954 13.2803 122.79 13.4092 122.649 13.5732C122.515 13.7314 122.397 13.9189 122.298 14.1357C122.204 14.3525 122.128 14.584 122.069 14.8301C122.011 15.0762 121.967 15.3311 121.938 15.5947C121.914 15.8525 121.902 16.1074 121.902 16.3594Z" fill="url(#paint0_linear)"/>
<rect x="1" y="1" width="148" height="28" rx="4" stroke="url(#paint1_linear)" stroke-width="2"/>
<defs>
<linearGradient id="paint0_linear" x1="74.5" y1="5" x2="57.1137" y2="118.814" gradientUnits="userSpaceOnUse">
<stop stop-color="#EDDD0F"/>
<stop offset="1" stop-color="#DBBA0D" stop-opacity="0"/>
</linearGradient>
<linearGradient id="paint1_linear" x1="-9" y1="-7" x2="380" y2="80" gradientUnits="userSpaceOnUse">
<stop stop-color="#F4EB11"/>
<stop offset="0.742956" stop-color="#7C0000"/>
<stop offset="0.743056" stop-color="#DD9539" stop-opacity="0"/>
</linearGradient>
</defs>
</svg>
