<svg width="150" height="30" viewBox="0 0 150 30" fill="none" xmlns="http://www.w3.org/2000/svg">
<rect x="0.5" y="0.5" width="149" height="29" fill="white"/>
<path d="M31.75 9.845H34.36C34.36 9.845 34.36 9.885 34.36 9.965C34.36 10.235 34.29 10.4 34.15 10.46C34.08 10.5 33.995 10.525 33.895 10.535L33.235 10.565V16.19C33.235 17.47 32.945 18.465 32.365 19.175C31.795 19.875 30.9 20.225 29.68 20.225C27.52 20.225 26.44 18.945 26.44 16.385V10.595L25.345 10.505C25.305 10.065 25.44 9.845 25.75 9.845H28.675C28.675 9.845 28.675 9.885 28.675 9.965C28.675 10.225 28.6 10.39 28.45 10.46C28.38 10.5 28.295 10.525 28.195 10.535L27.52 10.565L27.505 16.325C27.505 18.405 28.275 19.445 29.815 19.445C30.645 19.445 31.285 19.195 31.735 18.695C32.195 18.185 32.425 17.41 32.425 16.37V10.595L31.33 10.505C31.29 10.065 31.43 9.845 31.75 9.845ZM35.3123 14.54C35.3223 13.89 35.5873 13.375 36.1073 12.995C36.6273 12.615 37.1923 12.43 37.8023 12.44C38.4223 12.45 38.9323 12.56 39.3323 12.77C39.7323 12.97 39.9273 13.27 39.9173 13.67C39.9073 13.94 39.8123 14.135 39.6323 14.255C39.4523 14.375 39.2573 14.425 39.0473 14.405C39.0573 14.055 38.9473 13.77 38.7173 13.55C38.4973 13.33 38.1723 13.215 37.7423 13.205C37.3123 13.195 36.9523 13.295 36.6623 13.505C36.3823 13.705 36.2373 13.965 36.2273 14.285C36.2173 14.605 36.3573 14.865 36.6473 15.065C36.9473 15.255 37.3673 15.455 37.9073 15.665C38.4473 15.875 38.8123 16.03 39.0023 16.13C39.2023 16.22 39.4173 16.345 39.6473 16.505C40.0773 16.805 40.2823 17.26 40.2623 17.87C40.2523 18.48 39.9873 19.03 39.4673 19.52C38.9473 20 38.2523 20.235 37.3823 20.225C36.7623 20.205 36.2173 20.075 35.7473 19.835C35.2773 19.585 35.0423 19.245 35.0423 18.815C35.0523 18.585 35.1273 18.405 35.2673 18.275C35.4173 18.135 35.5973 18.07 35.8073 18.08C35.8873 18.49 36.0873 18.82 36.4073 19.07C36.7373 19.32 37.1423 19.45 37.6223 19.46C38.1023 19.46 38.5023 19.35 38.8223 19.13C39.1423 18.9 39.3073 18.6 39.3173 18.23C39.3273 17.86 39.2123 17.58 38.9723 17.39C38.7423 17.2 38.4073 17.025 37.9673 16.865C37.5273 16.695 37.2173 16.575 37.0373 16.505C36.8673 16.435 36.6523 16.33 36.3923 16.19C36.1423 16.05 35.9473 15.91 35.8073 15.77C35.4773 15.42 35.3123 15.01 35.3123 14.54ZM47.0652 16.055H42.3552C42.3452 16.155 42.3402 16.31 42.3402 16.52C42.3402 17.37 42.5202 18.06 42.8802 18.59C43.2402 19.11 43.8002 19.37 44.5602 19.37C45.3202 19.37 46.0452 19.1 46.7352 18.56C46.8552 18.66 46.9152 18.785 46.9152 18.935C46.9152 19.215 46.6402 19.5 46.0902 19.79C45.5502 20.08 44.9402 20.225 44.2602 20.225C43.3302 20.225 42.5852 19.92 42.0252 19.31C41.4752 18.7 41.2002 17.77 41.2002 16.52C41.2002 15.27 41.5302 14.28 42.1902 13.55C42.8502 12.81 43.6302 12.44 44.5302 12.44C45.4302 12.44 46.0802 12.725 46.4802 13.295C46.8802 13.865 47.0752 14.545 47.0652 15.335V16.055ZM45.9702 15.38C45.9702 14.71 45.8402 14.18 45.5802 13.79C45.3202 13.39 44.9402 13.19 44.4402 13.19C43.9502 13.19 43.5302 13.385 43.1802 13.775C42.8302 14.165 42.5852 14.7 42.4452 15.38H45.9702ZM50.3793 13.655C50.6793 13.335 51.0493 13.055 51.4893 12.815C51.9393 12.565 52.3043 12.44 52.5843 12.44C52.8743 12.44 53.1093 12.51 53.2893 12.65C53.4693 12.78 53.5593 12.99 53.5593 13.28C53.5593 13.8 53.4743 14.155 53.3043 14.345C53.1743 14.455 52.9693 14.5 52.6893 14.48C52.6893 13.76 52.4993 13.4 52.1193 13.4C51.6393 13.4 51.0593 13.74 50.3793 14.42V19.295L51.6693 19.385C51.7093 19.795 51.5693 20 51.2493 20H48.2493V19.88C48.2493 19.64 48.3193 19.49 48.4593 19.43C48.5293 19.39 48.6143 19.365 48.7143 19.355L49.3443 19.325V13.46L48.5343 13.37C48.3143 13.35 48.2043 13.145 48.2043 12.755L50.2293 12.5L50.3343 13.655H50.3793ZM57.9367 9.845H66.3817V11.645C66.3817 11.965 66.1617 12.105 65.7217 12.065L65.6167 10.61H62.7217V19.25L63.8617 19.34C63.9017 19.78 63.7617 20 63.4417 20H60.4567C60.4567 20 60.4567 19.96 60.4567 19.88C60.4567 19.62 60.5267 19.45 60.6667 19.37C60.7367 19.34 60.8217 19.32 60.9217 19.31L61.6417 19.28V10.61H58.7017L58.5967 12.065C58.1567 12.105 57.9367 11.965 57.9367 11.645V9.845ZM73.1248 16.055H68.4148C68.4048 16.155 68.3998 16.31 68.3998 16.52C68.3998 17.37 68.5798 18.06 68.9398 18.59C69.2998 19.11 69.8598 19.37 70.6198 19.37C71.3798 19.37 72.1048 19.1 72.7948 18.56C72.9148 18.66 72.9748 18.785 72.9748 18.935C72.9748 19.215 72.6998 19.5 72.1498 19.79C71.6098 20.08 70.9998 20.225 70.3198 20.225C69.3898 20.225 68.6448 19.92 68.0848 19.31C67.5348 18.7 67.2598 17.77 67.2598 16.52C67.2598 15.27 67.5898 14.28 68.2498 13.55C68.9098 12.81 69.6898 12.44 70.5898 12.44C71.4898 12.44 72.1398 12.725 72.5398 13.295C72.9398 13.865 73.1348 14.545 73.1248 15.335V16.055ZM72.0298 15.38C72.0298 14.71 71.8998 14.18 71.6398 13.79C71.3798 13.39 70.9998 13.19 70.4998 13.19C70.0098 13.19 69.5898 13.385 69.2398 13.775C68.8898 14.165 68.6448 14.7 68.5048 15.38H72.0298ZM86.7589 20H83.9239V19.88C83.9239 19.64 83.9939 19.49 84.1339 19.43C84.2039 19.39 84.2889 19.365 84.3889 19.355L85.0039 19.325V15.575C85.0039 14.115 84.4139 13.385 83.2339 13.385C82.8239 13.385 82.4639 13.475 82.1539 13.655C81.8439 13.825 81.5039 14.08 81.1339 14.42C81.2239 14.7 81.2689 15.055 81.2689 15.485V19.295L82.3939 19.385C82.4339 19.795 82.2989 20 81.9889 20H79.1389V19.88C79.1389 19.64 79.2089 19.49 79.3489 19.43C79.4189 19.39 79.5039 19.365 79.6039 19.355L80.2189 19.325V15.575C80.2189 14.855 80.0589 14.31 79.7389 13.94C79.4289 13.57 78.9939 13.385 78.4339 13.385C78.0439 13.385 77.6989 13.465 77.3989 13.625C77.0989 13.785 76.7789 14.02 76.4389 14.33V19.295L77.5789 19.385C77.6189 19.795 77.4789 20 77.1589 20H74.3089V19.88C74.3089 19.64 74.3789 19.49 74.5189 19.43C74.5889 19.39 74.6739 19.365 74.7739 19.355L75.4039 19.325V13.37L74.7439 13.355C74.4239 13.355 74.2639 13.14 74.2639 12.71L76.1989 12.455L76.3789 13.505H76.4239C77.0939 12.795 77.8439 12.44 78.6739 12.44C79.1239 12.44 79.5539 12.55 79.9639 12.77C80.3739 12.99 80.6889 13.335 80.9089 13.805C81.2589 13.395 81.6289 13.065 82.0189 12.815C82.4189 12.565 82.9339 12.44 83.5639 12.44C84.1939 12.44 84.7639 12.685 85.2739 13.175C85.7839 13.665 86.0389 14.435 86.0389 15.485V19.295L87.1789 19.385C87.2189 19.795 87.0789 20 86.7589 20ZM89.8442 13.55C90.6242 12.81 91.4242 12.44 92.2442 12.44C93.0642 12.44 93.7492 12.75 94.2992 13.37C94.8592 13.98 95.1492 14.9 95.1692 16.13C95.1992 17.35 94.8992 18.34 94.2692 19.1C93.6392 19.85 92.7542 20.225 91.6142 20.225C91.0442 20.225 90.4642 20.095 89.8742 19.835V22.505L91.0142 22.595C91.0542 23.005 90.9142 23.21 90.5942 23.21H87.7442V23.09C87.7442 22.85 87.8142 22.7 87.9542 22.64C88.0342 22.61 88.3292 22.575 88.8392 22.535V13.445L88.0442 13.355C87.8142 13.335 87.6992 13.14 87.6992 12.77L89.6342 12.515L89.8442 13.55ZM89.8742 18.68C90.3942 19.17 91.0442 19.415 91.8242 19.415C92.6042 19.415 93.1692 19.12 93.5192 18.53C93.8792 17.94 94.0592 17.205 94.0592 16.325C94.0592 15.445 93.8792 14.725 93.5192 14.165C93.1692 13.605 92.6242 13.325 91.8842 13.325C91.5142 13.325 91.1842 13.4 90.8942 13.55C90.6042 13.7 90.2642 13.935 89.8742 14.255V18.68ZM99.262 20H96.442V19.88C96.442 19.56 96.602 19.385 96.922 19.355L97.567 19.325V10.52L96.787 10.445C96.547 10.415 96.427 10.205 96.427 9.815L98.602 9.53V19.295L99.667 19.385C99.707 19.795 99.572 20 99.262 20ZM107.304 19.535C107.304 20.005 106.994 20.24 106.374 20.24C105.754 20.24 105.394 19.925 105.294 19.295C104.654 19.915 103.884 20.225 102.984 20.225C102.294 20.225 101.744 20.05 101.334 19.7C100.934 19.34 100.734 18.855 100.734 18.245C100.734 17.635 100.959 17.12 101.409 16.7C101.859 16.28 102.604 16.07 103.644 16.07C104.254 16.07 104.794 16.14 105.264 16.28V15.095C105.264 14.525 105.119 14.07 104.829 13.73C104.549 13.38 104.134 13.205 103.584 13.205C103.034 13.205 102.639 13.355 102.399 13.655C102.169 13.945 102.039 14.285 102.009 14.675C101.769 14.695 101.569 14.645 101.409 14.525C101.249 14.405 101.169 14.21 101.169 13.94C101.169 13.51 101.389 13.155 101.829 12.875C102.269 12.585 102.839 12.44 103.539 12.44C104.149 12.44 104.729 12.59 105.279 12.89C105.589 13.05 105.839 13.315 106.029 13.685C106.219 14.055 106.314 14.505 106.314 15.035V19.415L107.304 19.535ZM105.264 17.18C104.804 16.93 104.269 16.805 103.659 16.805C103.049 16.805 102.599 16.92 102.309 17.15C102.029 17.38 101.889 17.695 101.889 18.095C101.889 18.495 102.014 18.815 102.264 19.055C102.514 19.285 102.859 19.4 103.299 19.4C103.999 19.4 104.654 19.13 105.264 18.59V17.18ZM110.018 13.355V17.765C110.018 18.325 110.078 18.73 110.198 18.98C110.328 19.23 110.568 19.355 110.918 19.355C111.278 19.355 111.578 19.315 111.818 19.235C112.058 19.155 112.353 18.975 112.703 18.695C112.883 18.745 112.973 18.895 112.973 19.145C112.973 19.395 112.728 19.64 112.238 19.88C111.758 20.12 111.293 20.24 110.843 20.24C110.143 20.24 109.658 20.04 109.388 19.64C109.118 19.24 108.983 18.66 108.983 17.9V13.355H107.888C107.858 12.895 108.003 12.665 108.323 12.665H108.983V10.88L110.018 10.625V12.665H112.823C112.853 12.995 112.778 13.225 112.598 13.355H110.018ZM119.634 16.055H114.924C114.914 16.155 114.909 16.31 114.909 16.52C114.909 17.37 115.089 18.06 115.449 18.59C115.809 19.11 116.369 19.37 117.129 19.37C117.889 19.37 118.614 19.1 119.304 18.56C119.424 18.66 119.484 18.785 119.484 18.935C119.484 19.215 119.209 19.5 118.659 19.79C118.119 20.08 117.509 20.225 116.829 20.225C115.899 20.225 115.154 19.92 114.594 19.31C114.044 18.7 113.769 17.77 113.769 16.52C113.769 15.27 114.099 14.28 114.759 13.55C115.419 12.81 116.199 12.44 117.099 12.44C117.999 12.44 118.649 12.725 119.049 13.295C119.449 13.865 119.644 14.545 119.634 15.335V16.055ZM118.539 15.38C118.539 14.71 118.409 14.18 118.149 13.79C117.889 13.39 117.509 13.19 117.009 13.19C116.519 13.19 116.099 13.385 115.749 13.775C115.399 14.165 115.154 14.7 115.014 15.38H118.539ZM120.713 14.54C120.723 13.89 120.988 13.375 121.508 12.995C122.028 12.615 122.593 12.43 123.203 12.44C123.823 12.45 124.333 12.56 124.733 12.77C125.133 12.97 125.328 13.27 125.318 13.67C125.308 13.94 125.213 14.135 125.033 14.255C124.853 14.375 124.658 14.425 124.448 14.405C124.458 14.055 124.348 13.77 124.118 13.55C123.898 13.33 123.573 13.215 123.143 13.205C122.713 13.195 122.353 13.295 122.063 13.505C121.783 13.705 121.638 13.965 121.628 14.285C121.618 14.605 121.758 14.865 122.048 15.065C122.348 15.255 122.768 15.455 123.308 15.665C123.848 15.875 124.213 16.03 124.403 16.13C124.603 16.22 124.818 16.345 125.048 16.505C125.478 16.805 125.683 17.26 125.663 17.87C125.653 18.48 125.388 19.03 124.868 19.52C124.348 20 123.653 20.235 122.783 20.225C122.163 20.205 121.618 20.075 121.148 19.835C120.678 19.585 120.443 19.245 120.443 18.815C120.453 18.585 120.528 18.405 120.668 18.275C120.818 18.135 120.998 18.07 121.208 18.08C121.288 18.49 121.488 18.82 121.808 19.07C122.138 19.32 122.543 19.45 123.023 19.46C123.503 19.46 123.903 19.35 124.223 19.13C124.543 18.9 124.708 18.6 124.718 18.23C124.728 17.86 124.613 17.58 124.373 17.39C124.143 17.2 123.808 17.025 123.368 16.865C122.928 16.695 122.618 16.575 122.438 16.505C122.268 16.435 122.053 16.33 121.793 16.19C121.543 16.05 121.348 15.91 121.208 15.77C120.878 15.42 120.713 15.01 120.713 14.54Z" fill="#7C0000"/>
<rect x="0.5" y="0.5" width="149" height="29" stroke="url(#paint0_linear)"/>
<defs>
<linearGradient id="paint0_linear" x1="70" y1="-4.99999" x2="95" y2="70.5" gradientUnits="userSpaceOnUse">
<stop stop-color="#DD9539"/>
<stop offset="0.742956" stop-color="#7C0000"/>
<stop offset="0.743056" stop-color="#DD9539" stop-opacity="0"/>
</linearGradient>
</defs>
</svg>
