<svg width="150" height="30" viewBox="0 0 150 30" fill="none" xmlns="http://www.w3.org/2000/svg">
<path d="M50.2207 10.3545L48.0059 11.7256L46.6172 20.1279L48.2959 21.499H43.2686L44.1738 20.5938L43.1279 13.791L41.7217 20.9717L43.1807 22.123L38.1094 21.8594L39.8145 20.541L37.3359 11.6289L35.332 10.6445L41.5459 9.59863L39.7793 10.8906L40.8604 19.2314L42.3545 13.2549L41.168 12.4023L45.7559 11.8135L44.2266 13.0352L45.3252 18.6162L46.8018 11.3037L45.123 9.99414L50.2207 10.3545ZM52.1455 18.7744C52.2217 19.1025 52.3242 19.4248 52.4531 19.7412C52.582 20.0518 52.7402 20.3301 52.9277 20.5762C53.1152 20.8223 53.332 21.0215 53.5781 21.1738C53.8242 21.3262 54.1025 21.4023 54.4131 21.4023C54.8232 21.4023 55.1807 21.3174 55.4854 21.1475C55.79 20.9775 56.0391 20.7637 56.2324 20.5059C56.4258 20.2422 56.5605 19.9551 56.6367 19.6445C56.7129 19.3281 56.7275 19.0264 56.6807 18.7393C56.8447 18.8037 56.9795 18.8887 57.085 18.9941C57.1963 19.0996 57.2812 19.2168 57.3398 19.3457C57.4043 19.4688 57.4482 19.5977 57.4717 19.7324C57.4951 19.8613 57.5068 19.9873 57.5068 20.1104C57.5068 20.3916 57.4248 20.6641 57.2607 20.9277C57.0967 21.1855 56.8652 21.417 56.5664 21.6221C56.2734 21.8213 55.9248 21.9824 55.5205 22.1055C55.1162 22.2285 54.6738 22.29 54.1934 22.29C53.5488 22.29 52.9717 22.1641 52.4619 21.9121C51.958 21.6602 51.5303 21.3203 51.1787 20.8926C50.8271 20.459 50.5576 19.9521 50.3701 19.3721C50.1826 18.792 50.0889 18.1738 50.0889 17.5176C50.0889 16.8496 50.1826 16.2344 50.3701 15.6719C50.5576 15.1035 50.833 14.6201 51.1963 14.2217C51.5654 13.8232 52.0166 13.5215 52.5498 13.3164C53.083 13.1113 53.6982 13.0293 54.3955 13.0703C54.876 13.1055 55.3184 13.2432 55.7227 13.4834C56.127 13.7236 56.4785 14.0342 56.7773 14.415C57.082 14.79 57.3252 15.2207 57.5068 15.707C57.6943 16.1934 57.8086 16.7002 57.8496 17.2275L52.1455 18.7744ZM51.9785 17.3594C51.9785 17.4414 51.9785 17.5234 51.9785 17.6055C51.9785 17.6816 51.9844 17.7607 51.9961 17.8428L55.8545 16.4365C55.7256 16.0146 55.5791 15.6543 55.415 15.3555C55.2568 15.0508 55.0898 14.8018 54.9141 14.6084C54.7383 14.415 54.5596 14.2744 54.3779 14.1865C54.2021 14.0928 54.0322 14.0459 53.8682 14.0459C53.6221 14.0459 53.4053 14.0928 53.2178 14.1865C53.0303 14.2803 52.8662 14.4092 52.7256 14.5732C52.5908 14.7314 52.4736 14.9189 52.374 15.1357C52.2803 15.3525 52.2041 15.584 52.1455 15.8301C52.0869 16.0762 52.043 16.3311 52.0137 16.5947C51.9902 16.8525 51.9785 17.1074 51.9785 17.3594ZM62.9297 22.2021C62.6133 22.2021 62.3203 22.1523 62.0508 22.0527C61.7812 21.9531 61.541 21.8184 61.3301 21.6484C61.1191 21.4785 60.9346 21.2822 60.7764 21.0596C60.624 20.8311 60.5039 20.5879 60.416 20.3301L59.5283 22.3779L59.1855 11.8838L56.9795 11.0225L61.6377 10.4951C61.5205 11.3506 61.4209 12.1152 61.3389 12.7891C61.2568 13.457 61.1895 14.0547 61.1367 14.582C61.4531 14.1074 61.8369 13.7236 62.2881 13.4307C62.7451 13.1318 63.2666 12.9824 63.8525 12.9824C64.2861 12.9824 64.6641 13.0352 64.9863 13.1406C65.3086 13.2461 65.584 13.3926 65.8125 13.5801C66.0469 13.7617 66.2373 13.9785 66.3838 14.2305C66.5361 14.4766 66.6562 14.7402 66.7441 15.0215C66.832 15.3027 66.8936 15.5928 66.9287 15.8916C66.9639 16.1904 66.9814 16.4863 66.9814 16.7793C66.9814 17.5703 66.8936 18.2998 66.7178 18.9678C66.5479 19.6299 66.293 20.2012 65.9531 20.6816C65.6191 21.1621 65.1973 21.5371 64.6875 21.8066C64.1836 22.0703 63.5977 22.2021 62.9297 22.2021ZM63.0615 14.3359C62.8154 14.3359 62.584 14.3975 62.3672 14.5205C62.1504 14.6436 61.9512 14.8105 61.7695 15.0215C61.5938 15.2324 61.4355 15.4785 61.2949 15.7598C61.1602 16.0352 61.0459 16.3281 60.9521 16.6387C60.9404 16.8086 60.9316 16.9551 60.9258 17.0781C60.9199 17.1953 60.917 17.2949 60.917 17.377C60.9111 17.4766 60.9111 17.5586 60.917 17.623C60.917 18.3027 60.9668 18.8652 61.0664 19.3105C61.166 19.7559 61.3008 20.1133 61.4707 20.3828C61.6406 20.6465 61.8369 20.834 62.0596 20.9453C62.2881 21.0508 62.5254 21.1035 62.7715 21.1035C63.0176 21.1035 63.2695 21.0098 63.5273 20.8223C63.7852 20.6348 64.0195 20.3652 64.2305 20.0137C64.4473 19.6621 64.623 19.2373 64.7578 18.7393C64.8984 18.2412 64.9688 17.6787 64.9688 17.0518C64.9688 16.6123 64.916 16.2227 64.8105 15.8828C64.7051 15.543 64.5615 15.2588 64.3799 15.0303C64.2041 14.8018 64.002 14.6289 63.7734 14.5117C63.5449 14.3945 63.3076 14.3359 63.0615 14.3359ZM81.501 13.8613L80.0947 10.8555L75.6123 11.7432L75.7793 14.96H77.1064L78.5654 12.8418V18.1855L77.0361 15.8301L75.832 15.9707L76.0693 20.3652L78.6533 21.4639L71.9473 22.1758L73.8545 20.4707L74.3203 12.042L71.9209 9.92383L81.501 9.58105V13.8613ZM81.8174 17.5879C81.8174 16.9316 81.9199 16.3252 82.125 15.7686C82.3359 15.2061 82.626 14.7197 82.9951 14.3096C83.3701 13.8994 83.8125 13.5801 84.3223 13.3516C84.8379 13.1172 85.4004 13 86.0098 13C86.6016 13 87.1436 13.1113 87.6357 13.334C88.1279 13.5508 88.5557 13.8584 88.9189 14.2568C89.2822 14.6553 89.5723 15.1328 89.7891 15.6895C90.0059 16.2461 90.1348 16.8613 90.1758 17.5352C90.2168 18.2559 90.1406 18.9092 89.9473 19.4951C89.7598 20.0752 89.4814 20.5703 89.1123 20.9805C88.7432 21.3848 88.3008 21.6982 87.7852 21.9209C87.2754 22.1436 86.7217 22.2549 86.124 22.2549C85.5498 22.2549 85.002 22.1523 84.4805 21.9473C83.9648 21.7363 83.5078 21.4316 83.1094 21.0332C82.7168 20.6348 82.4033 20.1484 82.1689 19.5742C81.9346 18.9941 81.8174 18.332 81.8174 17.5879ZM83.9795 17.7373C83.9795 18.2529 84.0527 18.7188 84.1992 19.1348C84.3457 19.5508 84.542 19.9053 84.7881 20.1982C85.0342 20.4854 85.3184 20.708 85.6406 20.8662C85.9629 21.0244 86.3027 21.1035 86.6602 21.1035C87.0176 21.1035 87.3516 21.0273 87.6621 20.875C87.9727 20.7168 88.2422 20.4971 88.4707 20.2158C88.6992 19.9287 88.8779 19.5859 89.0068 19.1875C89.1357 18.7891 89.2002 18.3467 89.2002 17.8604C89.2002 17.3799 89.1357 16.9287 89.0068 16.5068C88.8779 16.0791 88.6963 15.707 88.4619 15.3906C88.2334 15.0742 87.9609 14.8252 87.6445 14.6436C87.3281 14.4619 86.9824 14.3711 86.6074 14.3711C86.2734 14.3711 85.9482 14.4473 85.6318 14.5996C85.3213 14.752 85.043 14.9746 84.7969 15.2676C84.5508 15.5547 84.3516 15.9062 84.1992 16.3223C84.0527 16.7383 83.9795 17.21 83.9795 17.7373ZM97.2422 16.0059C97.1895 15.7891 97.1133 15.6045 97.0137 15.4521C96.9199 15.2998 96.8115 15.1738 96.6885 15.0742C96.5713 14.9688 96.4453 14.8896 96.3105 14.8369C96.1758 14.7783 96.041 14.7344 95.9062 14.7051C95.5898 14.6406 95.2529 14.6436 94.8955 14.7139C94.7725 14.7549 94.6406 14.8193 94.5 14.9072C94.377 14.9893 94.2363 15.1006 94.0781 15.2412C93.9199 15.376 93.75 15.5576 93.5684 15.7861L93.7266 20.8838L95.3086 21.6748L90.6504 22.0879L91.8545 20.8662L92.3467 14.749L90.4746 13.8965L93.498 13.3252L93.5332 14.4238C93.7383 14.1777 93.9492 13.9756 94.166 13.8174C94.3828 13.6592 94.5791 13.5303 94.7549 13.4307C94.96 13.3193 95.1592 13.2344 95.3525 13.1758C95.7041 13.0938 96.0615 13.0615 96.4248 13.0791C96.5771 13.085 96.7354 13.1025 96.8994 13.1318C97.0693 13.1611 97.2393 13.208 97.4092 13.2725C97.585 13.3311 97.7549 13.4131 97.9189 13.5186C98.083 13.6182 98.2412 13.7441 98.3936 13.8965L97.2422 16.0059ZM98.1035 22.0879L99.2549 20.7959L99.8525 14.8369L97.998 13.501L100.986 13.7031V14.5996C101.209 14.3008 101.44 14.0693 101.681 13.9053C101.927 13.7412 102.152 13.6211 102.357 13.5449C102.598 13.457 102.835 13.4072 103.069 13.3955C103.485 13.3955 103.863 13.4805 104.203 13.6504C104.543 13.8203 104.812 14.0547 105.012 14.3535C105.258 14.0605 105.539 13.8291 105.855 13.6592C106.172 13.4834 106.515 13.3955 106.884 13.3955C107.218 13.3955 107.528 13.4717 107.815 13.624C108.103 13.7764 108.349 13.9902 108.554 14.2656C108.765 14.541 108.929 14.8779 109.046 15.2764C109.169 15.6689 109.23 16.1055 109.23 16.5859C109.23 16.9316 109.207 17.292 109.16 17.667C109.119 18.042 109.061 18.4141 108.984 18.7832C108.914 19.1523 108.826 19.5127 108.721 19.8643C108.615 20.21 108.501 20.5322 108.378 20.8311L109.626 21.3848L105.267 22.2021L107.191 20.6641C107.285 20.0312 107.344 19.4541 107.367 18.9326C107.396 18.4053 107.411 17.957 107.411 17.5879C107.411 16.6445 107.297 15.959 107.068 15.5312C106.846 15.1035 106.526 14.8896 106.11 14.8896C105.858 14.8896 105.606 14.9805 105.354 15.1621C105.39 15.3027 105.407 15.4521 105.407 15.6104C105.407 15.9678 105.378 16.3369 105.319 16.7178C105.267 17.0986 105.196 17.4736 105.108 17.8428C105.021 18.2119 104.921 18.5693 104.81 18.915C104.698 19.2607 104.587 19.5742 104.476 19.8555L105.715 20.8311H102.173L103.359 19.873C103.43 19.3281 103.479 18.7715 103.509 18.2031C103.538 17.6289 103.553 17.0898 103.553 16.5859C103.553 15.9883 103.482 15.5195 103.342 15.1797C103.207 14.8398 102.961 14.6699 102.604 14.6699C102.422 14.6699 102.252 14.7051 102.094 14.7754C101.941 14.8457 101.798 14.9395 101.663 15.0566C101.534 15.1738 101.411 15.3086 101.294 15.4609C101.183 15.6133 101.08 15.7715 100.986 15.9355V20.7256L102.463 21.7803L98.1035 22.0879ZM113.959 13.0527C114.182 13.0527 114.407 13.0732 114.636 13.1143C114.864 13.1494 115.087 13.2051 115.304 13.2812C115.526 13.3516 115.734 13.4395 115.928 13.5449C116.127 13.6445 116.306 13.7559 116.464 13.8789L117.905 12.1035L117.255 16.4893C117.185 16.1846 117.062 15.8857 116.886 15.5928C116.71 15.2939 116.49 15.0273 116.227 14.793C115.969 14.5586 115.67 14.3711 115.33 14.2305C114.99 14.084 114.618 14.0107 114.214 14.0107C113.991 14.0107 113.777 14.0371 113.572 14.0898C113.367 14.1367 113.186 14.2158 113.027 14.3271C112.875 14.4385 112.752 14.5791 112.658 14.749C112.57 14.9189 112.526 15.1211 112.526 15.3555C112.526 15.6367 112.603 15.8652 112.755 16.041C112.913 16.2168 113.118 16.3662 113.37 16.4893C113.622 16.6064 113.909 16.709 114.231 16.7969C114.554 16.8789 114.885 16.9668 115.225 17.0605C115.564 17.1543 115.896 17.2656 116.218 17.3945C116.54 17.5176 116.827 17.6787 117.079 17.8779C117.331 18.0771 117.533 18.3262 117.686 18.625C117.844 18.918 117.923 19.2812 117.923 19.7148C117.923 20.2012 117.826 20.6172 117.633 20.9629C117.445 21.3027 117.202 21.584 116.903 21.8066C116.604 22.0234 116.273 22.1816 115.91 22.2812C115.547 22.3809 115.192 22.4307 114.847 22.4307C114.565 22.4307 114.284 22.4014 114.003 22.3428C113.722 22.2842 113.449 22.2021 113.186 22.0967C112.922 21.9912 112.67 21.8652 112.43 21.7188C112.195 21.5723 111.981 21.4141 111.788 21.2441L110.452 23.0283L110.865 18.6689C111.053 19.0674 111.278 19.4395 111.542 19.7852C111.806 20.1309 112.099 20.4326 112.421 20.6904C112.743 20.9424 113.089 21.1416 113.458 21.2881C113.827 21.4287 114.211 21.499 114.609 21.499C115.072 21.499 115.441 21.4023 115.717 21.209C115.998 21.0098 116.139 20.7285 116.139 20.3652C116.139 20.1309 116.06 19.9375 115.901 19.7852C115.749 19.627 115.544 19.4893 115.286 19.3721C115.034 19.2549 114.747 19.1494 114.425 19.0557C114.103 18.9619 113.771 18.8594 113.432 18.748C113.092 18.6367 112.761 18.5078 112.438 18.3613C112.116 18.209 111.826 18.0215 111.568 17.7988C111.316 17.5703 111.111 17.2949 110.953 16.9727C110.801 16.6445 110.725 16.249 110.725 15.7861C110.725 15.3877 110.783 15.042 110.9 14.749C111.018 14.4561 111.17 14.21 111.357 14.0107C111.551 13.8057 111.765 13.6416 111.999 13.5186C112.239 13.3896 112.479 13.293 112.72 13.2285C112.96 13.1582 113.188 13.1113 113.405 13.0879C113.622 13.0645 113.807 13.0527 113.959 13.0527Z" fill="url(#paint0_linear)"/>
<rect x="1" y="1" width="148" height="28" rx="4" stroke="url(#paint1_linear)" stroke-width="2"/>
<defs>
<linearGradient id="paint0_linear" x1="82" y1="6" x2="61.2388" y2="118.643" gradientUnits="userSpaceOnUse">
<stop stop-color="#EDDD0F"/>
<stop offset="1" stop-color="#DBBA0D" stop-opacity="0"/>
</linearGradient>
<linearGradient id="paint1_linear" x1="-9" y1="-7" x2="380" y2="80" gradientUnits="userSpaceOnUse">
<stop stop-color="#F4EB11"/>
<stop offset="0.742956" stop-color="#7C0000"/>
<stop offset="0.743056" stop-color="#DD9539" stop-opacity="0"/>
</linearGradient>
</defs>
</svg>
