<svg width="150" height="30" viewBox="0 0 150 30" fill="none" xmlns="http://www.w3.org/2000/svg">
<rect x="1" y="1" width="148" height="28" rx="4" fill="white"/>
<path d="M51.0356 10.325L49.0054 11.5818L47.7324 19.2839L49.2712 20.5408H44.6628L45.4927 19.7109L44.5339 13.4751L43.2449 20.0574L44.5823 21.1128L39.9336 20.8711L41.4966 19.6626L39.2246 11.4932L37.3877 10.5908L43.0837 9.63208L41.4644 10.8164L42.4553 18.4622L43.825 12.9836L42.7373 12.2021L46.9429 11.6624L45.541 12.7822L46.5481 17.8982L47.9016 11.1951L46.3628 9.99463L51.0356 10.325ZM52.8 18.0432C52.8699 18.344 52.9639 18.6394 53.082 18.9294C53.2002 19.2141 53.3452 19.4692 53.5171 19.6948C53.689 19.9204 53.8877 20.103 54.1133 20.2427C54.3389 20.3823 54.594 20.4521 54.8787 20.4521C55.2546 20.4521 55.5823 20.3743 55.8616 20.2185C56.1409 20.0627 56.3691 19.8667 56.5464 19.6304C56.7236 19.3887 56.8472 19.1255 56.917 18.8408C56.9868 18.5508 57.0002 18.2742 56.9573 18.011C57.1077 18.0701 57.2312 18.1479 57.3279 18.2446C57.4299 18.3413 57.5078 18.4487 57.5615 18.5669C57.6206 18.6797 57.6609 18.7979 57.6824 18.9214C57.7039 19.0396 57.7146 19.155 57.7146 19.2678C57.7146 19.5256 57.6394 19.7754 57.489 20.0171C57.3386 20.2534 57.1265 20.4656 56.8525 20.6536C56.584 20.8362 56.2644 20.9839 55.8938 21.0967C55.5232 21.2095 55.1177 21.2659 54.6772 21.2659C54.0864 21.2659 53.5574 21.1504 53.0901 20.9194C52.6282 20.6885 52.2361 20.377 51.9138 19.9849C51.5916 19.5874 51.3445 19.1228 51.1726 18.5911C51.0007 18.0593 50.9148 17.4927 50.9148 16.8911C50.9148 16.2788 51.0007 15.7148 51.1726 15.1992C51.3445 14.6782 51.5969 14.2351 51.9299 13.8699C52.2683 13.5046 52.6819 13.228 53.1707 13.04C53.6594 12.8521 54.2234 12.7769 54.8625 12.8145C55.303 12.8467 55.7085 12.9729 56.0791 13.1931C56.4497 13.4133 56.772 13.698 57.0459 14.0471C57.3252 14.3909 57.5481 14.7856 57.7146 15.2314C57.8865 15.6772 57.9912 16.1418 58.0288 16.6252L52.8 18.0432ZM52.647 16.7461C52.647 16.8213 52.647 16.8965 52.647 16.9717C52.647 17.0415 52.6523 17.114 52.6631 17.1892L56.2 15.9001C56.0818 15.5134 55.9475 15.1831 55.7971 14.9092C55.6521 14.6299 55.499 14.4016 55.3379 14.2244C55.1768 14.0471 55.0129 13.9182 54.8464 13.8376C54.6853 13.7517 54.5295 13.7087 54.3792 13.7087C54.1536 13.7087 53.9548 13.7517 53.783 13.8376C53.6111 13.9236 53.4607 14.0417 53.3318 14.1921C53.2083 14.3372 53.1008 14.509 53.0095 14.7078C52.9236 14.9065 52.8538 15.1187 52.8 15.3442C52.7463 15.5698 52.7061 15.8035 52.6792 16.0452C52.6577 16.2815 52.647 16.5151 52.647 16.7461ZM62.6855 21.1853C62.3955 21.1853 62.127 21.1396 61.8799 21.0483C61.6328 20.957 61.4126 20.8335 61.2192 20.6777C61.0259 20.522 60.8567 20.342 60.7117 20.1379C60.572 19.9285 60.4619 19.7056 60.3813 19.4692L59.5676 21.3464L59.2534 11.7268L57.2312 10.9373L61.5012 10.4539C61.3938 11.238 61.3025 11.939 61.2273 12.5566C61.1521 13.1689 61.0903 13.7168 61.042 14.2002C61.332 13.7651 61.6838 13.4133 62.0974 13.1448C62.5164 12.8708 62.9944 12.7339 63.5315 12.7339C63.929 12.7339 64.2754 12.7822 64.5708 12.8789C64.8662 12.9756 65.1187 13.1099 65.3281 13.2817C65.543 13.4482 65.7175 13.647 65.8518 13.8779C65.9915 14.1035 66.1016 14.3452 66.1821 14.603C66.2627 14.8608 66.3191 15.1267 66.3513 15.4006C66.3835 15.6746 66.3997 15.9458 66.3997 16.2144C66.3997 16.9395 66.3191 17.6082 66.158 18.2205C66.0022 18.8274 65.7686 19.3511 65.457 19.7915C65.1509 20.2319 64.7642 20.5757 64.2969 20.8228C63.835 21.0645 63.2979 21.1853 62.6855 21.1853ZM62.8064 13.9746C62.5808 13.9746 62.3687 14.031 62.1699 14.1438C61.9712 14.2566 61.7886 14.4097 61.6221 14.603C61.4609 14.7964 61.3159 15.022 61.187 15.2798C61.0635 15.5322 60.9587 15.8008 60.8728 16.0854C60.8621 16.2412 60.854 16.3755 60.8486 16.4883C60.8433 16.5957 60.8406 16.687 60.8406 16.7622C60.8352 16.8535 60.8352 16.9287 60.8406 16.9878C60.8406 17.6108 60.8862 18.1265 60.9775 18.5347C61.0688 18.9429 61.1924 19.2705 61.3481 19.5176C61.5039 19.7593 61.6838 19.9312 61.8879 20.0332C62.0974 20.1299 62.3149 20.1782 62.5405 20.1782C62.7661 20.1782 62.9971 20.0923 63.2334 19.9204C63.4697 19.7485 63.6846 19.5015 63.8779 19.1792C64.0767 18.8569 64.2378 18.4675 64.3613 18.011C64.4902 17.5544 64.5547 17.0388 64.5547 16.4641C64.5547 16.0613 64.5063 15.7041 64.4097 15.3926C64.313 15.0811 64.1814 14.8206 64.0149 14.6111C63.8538 14.4016 63.6685 14.2432 63.459 14.1357C63.2495 14.0283 63.032 13.9746 62.8064 13.9746ZM79.7092 13.5396L78.4202 10.7842L74.3113 11.5979L74.4644 14.5466H75.6809L77.0183 12.605V17.5034L75.6165 15.3442L74.5127 15.4731L74.7302 19.5015L77.0989 20.5085L70.9517 21.1611L72.7 19.5981L73.127 11.8718L70.9275 9.93018L79.7092 9.61597V13.5396ZM79.9993 16.9556C79.9993 16.354 80.0933 15.7981 80.2812 15.2878C80.4746 14.7722 80.7405 14.3264 81.0789 13.9504C81.4226 13.5745 81.8281 13.2817 82.2954 13.0723C82.7681 12.8574 83.2837 12.75 83.8423 12.75C84.3848 12.75 84.8816 12.8521 85.3328 13.0562C85.7839 13.2549 86.176 13.5369 86.509 13.9021C86.842 14.2673 87.1079 14.7051 87.3066 15.2153C87.5054 15.7256 87.6235 16.2896 87.6611 16.9072C87.6987 17.5679 87.6289 18.1667 87.4517 18.7039C87.2798 19.2356 87.0247 19.6895 86.6863 20.0654C86.3479 20.436 85.9424 20.7234 85.4697 20.9275C85.0024 21.1316 84.4949 21.2336 83.947 21.2336C83.4207 21.2336 82.9185 21.1396 82.4404 20.9517C81.9678 20.7583 81.5488 20.479 81.1836 20.1138C80.8237 19.7485 80.5364 19.3027 80.3215 18.7764C80.1067 18.2446 79.9993 17.6377 79.9993 16.9556ZM81.9812 17.0925C81.9812 17.5652 82.0483 17.9922 82.1826 18.3735C82.3169 18.7549 82.4968 19.0798 82.7224 19.3484C82.948 19.6116 83.2085 19.8157 83.5039 19.9607C83.7993 20.1057 84.1108 20.1782 84.4385 20.1782C84.7661 20.1782 85.0723 20.1084 85.3569 19.9688C85.6416 19.8237 85.8887 19.6223 86.0981 19.3645C86.3076 19.1013 86.4714 18.7871 86.5896 18.4219C86.7078 18.0566 86.7668 17.6511 86.7668 17.2053C86.7668 16.7649 86.7078 16.3513 86.5896 15.9646C86.4714 15.5725 86.3049 15.2314 86.0901 14.9414C85.8806 14.6514 85.6309 14.4231 85.3408 14.2566C85.0508 14.0901 84.7339 14.0068 84.3901 14.0068C84.084 14.0068 83.7859 14.0767 83.4958 14.2163C83.2112 14.356 82.9561 14.5601 82.7305 14.8286C82.5049 15.0918 82.3223 15.4141 82.1826 15.7954C82.0483 16.1768 81.9812 16.6091 81.9812 17.0925ZM94.1387 15.5054C94.0903 15.3066 94.0205 15.1375 93.9292 14.9978C93.8433 14.8582 93.7439 14.7427 93.6311 14.6514C93.5237 14.5547 93.4082 14.4822 93.2847 14.4338C93.1611 14.3801 93.0376 14.3398 92.9141 14.313C92.624 14.2539 92.3152 14.2566 91.9875 14.321C91.8748 14.3586 91.7539 14.4177 91.625 14.4983C91.5122 14.5735 91.3833 14.6755 91.2383 14.8044C91.0933 14.928 90.9375 15.0945 90.771 15.304L90.916 19.9768L92.3662 20.7019L88.0962 21.0806L89.2 19.9607L89.6511 14.3533L87.9351 13.5718L90.7065 13.0481L90.7388 14.0552C90.9268 13.8296 91.1201 13.6443 91.3188 13.4993C91.5176 13.3542 91.6975 13.2361 91.8586 13.1448C92.0466 13.0427 92.2292 12.9648 92.4065 12.9111C92.7288 12.8359 93.0564 12.8064 93.3894 12.8225C93.5291 12.8279 93.6741 12.844 93.8245 12.8708C93.9802 12.8977 94.136 12.9407 94.2917 12.9998C94.4529 13.0535 94.6086 13.1287 94.759 13.2253C94.9094 13.3167 95.0544 13.4321 95.1941 13.5718L94.1387 15.5054ZM94.9282 21.0806L95.9836 19.8962L96.5315 14.4338L94.8315 13.2092L97.5708 13.3945V14.2163C97.7749 13.9424 97.9871 13.7302 98.2073 13.5798C98.4329 13.4294 98.6396 13.3193 98.8276 13.2495C99.0479 13.1689 99.2654 13.1233 99.4802 13.1125C99.8616 13.1125 100.208 13.1904 100.52 13.3462C100.831 13.502 101.078 13.7168 101.261 13.9907C101.486 13.7222 101.744 13.51 102.034 13.3542C102.324 13.1931 102.638 13.1125 102.977 13.1125C103.283 13.1125 103.568 13.1824 103.831 13.322C104.094 13.4617 104.32 13.6577 104.508 13.9102C104.701 14.1626 104.851 14.4714 104.959 14.8367C105.072 15.1965 105.128 15.5967 105.128 16.0371C105.128 16.354 105.106 16.6843 105.063 17.0281C105.026 17.3718 104.972 17.7129 104.902 18.0513C104.838 18.3896 104.757 18.72 104.661 19.0422C104.564 19.3591 104.459 19.6545 104.346 19.9285L105.49 20.436L101.494 21.1853L103.259 19.7754C103.345 19.1953 103.398 18.6663 103.42 18.1882C103.447 17.7048 103.46 17.2939 103.46 16.9556C103.46 16.0908 103.355 15.4624 103.146 15.0703C102.942 14.6782 102.649 14.4822 102.268 14.4822C102.037 14.4822 101.806 14.5654 101.575 14.7319C101.607 14.8608 101.623 14.9978 101.623 15.1428C101.623 15.4705 101.596 15.8088 101.543 16.158C101.494 16.5071 101.43 16.8508 101.349 17.1892C101.269 17.5276 101.177 17.8552 101.075 18.1721C100.973 18.489 100.871 18.7764 100.769 19.0342L101.905 19.9285H98.6584L99.7461 19.0503C99.8105 18.5508 99.8562 18.0405 99.8831 17.5195C99.9099 16.9932 99.9233 16.499 99.9233 16.0371C99.9233 15.4893 99.8589 15.0596 99.73 14.748C99.6064 14.4365 99.3809 14.2808 99.0532 14.2808C98.8867 14.2808 98.731 14.313 98.5859 14.3774C98.4463 14.4419 98.3147 14.5278 98.1912 14.6353C98.073 14.7427 97.9602 14.8662 97.8528 15.0059C97.7507 15.1455 97.6567 15.2905 97.5708 15.4409V19.8318L98.9243 20.7986L94.9282 21.0806ZM109.462 12.7983C109.667 12.7983 109.873 12.8171 110.083 12.8547C110.292 12.887 110.496 12.938 110.695 13.0078C110.899 13.0723 111.09 13.1528 111.267 13.2495C111.45 13.3408 111.614 13.4429 111.759 13.5557L113.08 11.9282L112.484 15.9485C112.419 15.6692 112.306 15.3953 112.145 15.1267C111.984 14.8528 111.783 14.6084 111.541 14.3936C111.305 14.1787 111.031 14.0068 110.719 13.8779C110.408 13.7437 110.067 13.6765 109.696 13.6765C109.492 13.6765 109.296 13.7007 109.108 13.749C108.92 13.792 108.753 13.8645 108.608 13.9666C108.469 14.0686 108.356 14.1975 108.27 14.3533C108.189 14.509 108.149 14.6943 108.149 14.9092C108.149 15.167 108.219 15.3765 108.359 15.5376C108.504 15.6987 108.692 15.8357 108.923 15.9485C109.154 16.0559 109.417 16.1499 109.712 16.2305C110.008 16.3057 110.311 16.3862 110.623 16.4722C110.934 16.5581 111.238 16.6602 111.533 16.7783C111.828 16.8911 112.092 17.0388 112.323 17.2214C112.553 17.4041 112.739 17.6323 112.878 17.9062C113.023 18.1748 113.096 18.5078 113.096 18.9053C113.096 19.3511 113.007 19.7324 112.83 20.0493C112.658 20.3608 112.435 20.6187 112.161 20.8228C111.887 21.0215 111.584 21.1665 111.251 21.2578C110.918 21.3491 110.593 21.3948 110.276 21.3948C110.018 21.3948 109.76 21.3679 109.503 21.3142C109.245 21.2605 108.995 21.1853 108.753 21.0886C108.512 20.9919 108.281 20.8765 108.061 20.7422C107.846 20.6079 107.65 20.4629 107.472 20.3071L106.248 21.9426L106.626 17.9465C106.798 18.3118 107.005 18.6528 107.247 18.9697C107.489 19.2866 107.757 19.5632 108.052 19.7996C108.348 20.0305 108.665 20.2131 109.003 20.3474C109.342 20.4763 109.693 20.5408 110.059 20.5408C110.483 20.5408 110.821 20.4521 111.074 20.2749C111.332 20.0923 111.46 19.8345 111.46 19.5015C111.46 19.2866 111.388 19.1094 111.243 18.9697C111.103 18.8247 110.915 18.6985 110.679 18.5911C110.448 18.4836 110.185 18.387 109.889 18.301C109.594 18.2151 109.291 18.1211 108.979 18.019C108.667 17.917 108.364 17.7988 108.069 17.6646C107.773 17.5249 107.507 17.353 107.271 17.1489C107.04 16.9395 106.852 16.687 106.707 16.3916C106.567 16.0908 106.498 15.7283 106.498 15.304C106.498 14.9387 106.551 14.6218 106.659 14.3533C106.766 14.0847 106.906 13.8591 107.078 13.6765C107.255 13.4885 107.451 13.3381 107.666 13.2253C107.886 13.1072 108.106 13.0186 108.326 12.9595C108.547 12.895 108.756 12.8521 108.955 12.8306C109.154 12.8091 109.323 12.7983 109.462 12.7983Z" fill="#BD1313"/>
<rect x="1" y="1" width="148" height="28" rx="4" stroke="url(#paint0_linear)" stroke-width="2"/>
<defs>
<linearGradient id="paint0_linear" x1="70" y1="-5.00002" x2="380" y2="80" gradientUnits="userSpaceOnUse">
<stop stop-color="#F4EB11"/>
<stop offset="0.742956" stop-color="#7C0000"/>
<stop offset="0.743056" stop-color="#DD9539" stop-opacity="0"/>
</linearGradient>
</defs>
</svg>
