<svg width="150" height="30" viewBox="0 0 150 30" fill="none" xmlns="http://www.w3.org/2000/svg">
<rect x="0.5" y="0.5" width="149" height="29" fill="white"/>
<path d="M51.76 9.845H54.115C54.105 9.875 54.105 9.915 54.115 9.965C54.125 10.015 54.12 10.075 54.1 10.145C54.09 10.205 54.07 10.26 54.04 10.31C53.98 10.44 53.85 10.515 53.65 10.535L53.38 10.565L50.32 20H49.42L47.095 12.695L44.56 20H43.705L40.885 10.595L40.075 10.505C40.035 10.065 40.17 9.845 40.48 9.845H43.21C43.21 9.845 43.21 9.885 43.21 9.965C43.21 10.235 43.14 10.4 43 10.46C42.93 10.5 42.845 10.525 42.745 10.535L42.1 10.565L44.275 18.44L46.84 10.76H47.725L50.005 18.485L52.45 10.595L51.34 10.505C51.3 10.065 51.44 9.845 51.76 9.845ZM60.6297 16.055H55.9197C55.9097 16.155 55.9047 16.31 55.9047 16.52C55.9047 17.37 56.0847 18.06 56.4447 18.59C56.8047 19.11 57.3647 19.37 58.1247 19.37C58.8847 19.37 59.6097 19.1 60.2997 18.56C60.4197 18.66 60.4797 18.785 60.4797 18.935C60.4797 19.215 60.2047 19.5 59.6547 19.79C59.1147 20.08 58.5047 20.225 57.8247 20.225C56.8947 20.225 56.1497 19.92 55.5897 19.31C55.0397 18.7 54.7647 17.77 54.7647 16.52C54.7647 15.27 55.0947 14.28 55.7547 13.55C56.4147 12.81 57.1947 12.44 58.0947 12.44C58.9947 12.44 59.6447 12.725 60.0447 13.295C60.4447 13.865 60.6397 14.545 60.6297 15.335V16.055ZM59.5347 15.38C59.5347 14.71 59.4047 14.18 59.1447 13.79C58.8847 13.39 58.5047 13.19 58.0047 13.19C57.5147 13.19 57.0947 13.385 56.7447 13.775C56.3947 14.165 56.1497 14.7 56.0097 15.38H59.5347ZM63.4938 13.505C64.2238 12.795 65.0038 12.44 65.8338 12.44C66.6738 12.44 67.3688 12.745 67.9188 13.355C68.4788 13.965 68.7688 14.885 68.7888 16.115C68.8188 17.345 68.5188 18.34 67.8888 19.1C67.2588 19.85 66.3738 20.225 65.2338 20.225C64.6638 20.225 64.0838 20.095 63.4938 19.835L62.4588 19.445V10.535L61.6788 10.445C61.4388 10.425 61.3188 10.21 61.3188 9.8L63.4938 9.53V13.505ZM63.4938 18.68C64.0338 19.17 64.6838 19.415 65.4438 19.415C66.2138 19.415 66.7788 19.12 67.1388 18.53C67.4988 17.94 67.6788 17.205 67.6788 16.325C67.6788 15.445 67.4988 14.725 67.1388 14.165C66.7888 13.605 66.2438 13.325 65.5037 13.325C65.1337 13.325 64.8038 13.4 64.5138 13.55C64.2238 13.7 63.8838 13.935 63.4938 14.255V18.68ZM80.8088 9.845V11.855C80.8088 12.155 80.5888 12.285 80.1488 12.245L79.9838 10.61L76.2638 10.595V14.435L79.1438 14.24C79.2038 14.58 79.2038 14.94 79.1438 15.32L76.2638 15.155V19.25L77.5688 19.34C77.6088 19.78 77.4738 20 77.1638 20H74.0138C74.0138 20 74.0138 19.96 74.0138 19.88C74.0138 19.62 74.0838 19.45 74.2238 19.37C74.2938 19.34 74.3788 19.32 74.4788 19.31L75.1688 19.28V10.595L74.0738 10.505C74.0338 10.065 74.1738 9.845 74.4938 9.845H80.8088ZM84.9139 13.22C84.2339 13.22 83.7089 13.515 83.3389 14.105C82.9689 14.695 82.7839 15.45 82.7839 16.37C82.7839 17.28 82.9639 18.025 83.3239 18.605C83.6839 19.175 84.2039 19.46 84.8839 19.46C85.5639 19.45 86.0889 19.16 86.4589 18.59C86.8289 18.02 87.0139 17.285 87.0139 16.385C87.0139 15.475 86.8339 14.72 86.4739 14.12C86.1239 13.51 85.6039 13.21 84.9139 13.22ZM85.0039 12.44C85.7639 12.44 86.4489 12.68 87.0589 13.16C87.3789 13.42 87.6339 13.8 87.8239 14.3C88.0239 14.8 88.1239 15.4 88.1239 16.1C88.1439 17.34 87.8539 18.34 87.2539 19.1C86.6539 19.85 85.8439 20.225 84.8239 20.225C83.8039 20.225 83.0289 19.905 82.4989 19.265C81.9689 18.625 81.6939 17.7 81.6739 16.49C81.6639 15.28 81.9589 14.305 82.5589 13.565C83.1689 12.815 83.9839 12.44 85.0039 12.44ZM91.5561 13.655C91.8561 13.335 92.2261 13.055 92.6661 12.815C93.1161 12.565 93.4811 12.44 93.7611 12.44C94.0511 12.44 94.2861 12.51 94.4661 12.65C94.6461 12.78 94.7361 12.99 94.7361 13.28C94.7361 13.8 94.6511 14.155 94.4811 14.345C94.3511 14.455 94.1461 14.5 93.8661 14.48C93.8661 13.76 93.6761 13.4 93.2961 13.4C92.8161 13.4 92.2361 13.74 91.5561 14.42V19.295L92.8461 19.385C92.8861 19.795 92.7461 20 92.4261 20H89.4261V19.88C89.4261 19.64 89.4961 19.49 89.6361 19.43C89.7061 19.39 89.7911 19.365 89.8911 19.355L90.5211 19.325V13.46L89.7111 13.37C89.4911 13.35 89.3811 13.145 89.3811 12.755L91.4061 12.5L91.5111 13.655H91.5561ZM107.97 20H105.135V19.88C105.135 19.64 105.205 19.49 105.345 19.43C105.415 19.39 105.5 19.365 105.6 19.355L106.215 19.325V15.575C106.215 14.115 105.625 13.385 104.445 13.385C104.035 13.385 103.675 13.475 103.365 13.655C103.055 13.825 102.715 14.08 102.345 14.42C102.435 14.7 102.48 15.055 102.48 15.485V19.295L103.605 19.385C103.645 19.795 103.51 20 103.2 20H100.35V19.88C100.35 19.64 100.42 19.49 100.56 19.43C100.63 19.39 100.715 19.365 100.815 19.355L101.43 19.325V15.575C101.43 14.855 101.27 14.31 100.95 13.94C100.64 13.57 100.205 13.385 99.6448 13.385C99.2548 13.385 98.9098 13.465 98.6098 13.625C98.3098 13.785 97.9898 14.02 97.6498 14.33V19.295L98.7898 19.385C98.8298 19.795 98.6898 20 98.3698 20H95.5198V19.88C95.5198 19.64 95.5898 19.49 95.7298 19.43C95.7998 19.39 95.8848 19.365 95.9848 19.355L96.6148 19.325V13.37L95.9548 13.355C95.6348 13.355 95.4748 13.14 95.4748 12.71L97.4098 12.455L97.5898 13.505H97.6348C98.3048 12.795 99.0548 12.44 99.8848 12.44C100.335 12.44 100.765 12.55 101.175 12.77C101.585 12.99 101.9 13.335 102.12 13.805C102.47 13.395 102.84 13.065 103.23 12.815C103.63 12.565 104.145 12.44 104.775 12.44C105.405 12.44 105.975 12.685 106.485 13.175C106.995 13.665 107.25 14.435 107.25 15.485V19.295L108.39 19.385C108.43 19.795 108.29 20 107.97 20ZM109.36 14.54C109.37 13.89 109.635 13.375 110.155 12.995C110.675 12.615 111.24 12.43 111.85 12.44C112.47 12.45 112.98 12.56 113.38 12.77C113.78 12.97 113.975 13.27 113.965 13.67C113.955 13.94 113.86 14.135 113.68 14.255C113.5 14.375 113.305 14.425 113.095 14.405C113.105 14.055 112.995 13.77 112.765 13.55C112.545 13.33 112.22 13.215 111.79 13.205C111.36 13.195 111 13.295 110.71 13.505C110.43 13.705 110.285 13.965 110.275 14.285C110.265 14.605 110.405 14.865 110.695 15.065C110.995 15.255 111.415 15.455 111.955 15.665C112.495 15.875 112.86 16.03 113.05 16.13C113.25 16.22 113.465 16.345 113.695 16.505C114.125 16.805 114.33 17.26 114.31 17.87C114.3 18.48 114.035 19.03 113.515 19.52C112.995 20 112.3 20.235 111.43 20.225C110.81 20.205 110.265 20.075 109.795 19.835C109.325 19.585 109.09 19.245 109.09 18.815C109.1 18.585 109.175 18.405 109.315 18.275C109.465 18.135 109.645 18.07 109.855 18.08C109.935 18.49 110.135 18.82 110.455 19.07C110.785 19.32 111.19 19.45 111.67 19.46C112.15 19.46 112.55 19.35 112.87 19.13C113.19 18.9 113.355 18.6 113.365 18.23C113.375 17.86 113.26 17.58 113.02 17.39C112.79 17.2 112.455 17.025 112.015 16.865C111.575 16.695 111.265 16.575 111.085 16.505C110.915 16.435 110.7 16.33 110.44 16.19C110.19 16.05 109.995 15.91 109.855 15.77C109.525 15.42 109.36 15.01 109.36 14.54Z" fill="#7C0000"/>
<rect x="0.5" y="0.5" width="149" height="29" stroke="url(#paint0_linear)"/>
<defs>
<linearGradient id="paint0_linear" x1="70" y1="-4.99999" x2="95" y2="70.5" gradientUnits="userSpaceOnUse">
<stop stop-color="#DD9539"/>
<stop offset="0.742956" stop-color="#7C0000"/>
<stop offset="0.743056" stop-color="#DD9539" stop-opacity="0"/>
</linearGradient>
</defs>
</svg>
